<svg xmlns="http://www.w3.org/2000/svg" id="ico_24_menu_business_n" width="24" height="24" viewBox="0 0 24 24">
    <defs>
        <style>
            .cls-2{fill:none;stroke:#fff;stroke-linecap:round;stroke-width:1.3px;stroke-miterlimit:10}
        </style>
    </defs>
    <g id="Layer_1" transform="translate(-461.653 -315)">
        <path id="패스_33931" d="M478.418 330.808l.416-.188 2.615-1.184a1.028 1.028 0 0 1 1.387.435 1.028 1.028 0 0 1-.436 1.386l-4.829 2.782a4.232 4.232 0 0 1-2.654.529l-4.391-.568a3.187 3.187 0 0 0-1.55.187l-4.023 1.554" class="cls-2"/>
        <path id="패스_33932" fill="none" stroke="#fff" stroke-linecap="round" stroke-linejoin="round" stroke-width="1.3px" d="M481.386 323.8l-.131-.882a1.562 1.562 0 0 0-1.133-1.277l-2.089-.571a1.635 1.635 0 0 1-.925-.662l-1.276-1.893a1.125 1.125 0 0 0-.792-.327h-4.8a2.024 2.024 0 0 0-1.7.923l-1.78 2.742a1.17 1.17 0 0 0-.153.578v1.663a1.485 1.485 0 0 0 1.485 1.485.458.458 0 0 1 .445.318 1.542 1.542 0 0 0 2.96 0 .458.458 0 0 1 .446-.316h3.97a.459.459 0 0 1 .446.318 1.542 1.542 0 0 0 3.017-.318h.48a1.55 1.55 0 0 0 1.532-1.779z"/>
        <path id="패스_33942" d="M464.953 331.084l4.556-1.875a5.272 5.272 0 0 1 3.751-.1l2.3.805c.043.016.086.034.127.053.089.039.178.082.262.129a2.072 2.072 0 0 1 .212.137 1.359 1.359 0 0 1 .5.628.968.968 0 0 1-.106.821 1.4 1.4 0 0 1-1.311.5l-2.618-.423" class="cls-2"/>
    </g>
</svg>
