<svg xmlns="http://www.w3.org/2000/svg" width="20" height="20" viewBox="0 0 20 20">
    <path fill="none" d="M0 0H20V20H0z"/>
    <g fill="none" stroke-linejoin="round">
        <path d="M75 423l5.525 7.8v5.2l1.95-1.3v-3.9L88 423z" transform="translate(-71 -419)"/>
        <path fill="#333" d="M75 423l5.525 7.8v5.2l1.95-1.3v-3.9L88 423H75m0-1.4h13c.523 0 1.003.292 1.244.757.24.465.201 1.025-.102 1.452l-5.267 7.437v3.454c0 .468-.234.905-.623 1.165l-1.95 1.3c-.235.156-.505.235-.777.235-.227 0-.454-.055-.66-.166-.456-.243-.74-.718-.74-1.234v-4.754l-5.267-7.437c-.303-.427-.342-.987-.102-1.452.24-.465.72-.757 1.244-.757z" transform="translate(-71 -419)"/>
    </g>
</svg>
