<svg xmlns="http://www.w3.org/2000/svg" id="ico_24_menu_qna_n" width="24" height="24" viewBox="0 0 24 24">
    <defs>
        <style>
            .cls-2{fill:none;stroke:#fff;stroke-linecap:round;stroke-linejoin:round;stroke-width:1.3px}.cls-3{fill:#fff}
        </style>
    </defs>
    <g id="그룹_42130" transform="translate(-401 -345)">
        <path id="패스_33907" d="M415.44 362.076h-3.3a1.011 1.011 0 0 0-.837.444 2.92 2.92 0 0 0-.418 1.039 11.5 11.5 0 0 1-4.225-4.218 2.978 2.978 0 0 0 1.026-.431 1.02 1.02 0 0 0 .448-.844v-3.294a1.017 1.017 0 0 0-.448-.843 3 3 0 0 0-3.334-.009 2.411 2.411 0 0 0-.2.154 2.248 2.248 0 0 0-.2.178c-1.672 1.753-.382 5.807 2.913 9.1 3.319 3.319 7.413 4.607 9.143 2.877a3.273 3.273 0 0 0 .607-1v-.017l.022-.045a3 3 0 0 0-.352-2.645 1.01 1.01 0 0 0-.845-.446z" class="cls-2"/>
        <path id="패스_33908" d="M420.577 347.5h-8.154a1.928 1.928 0 0 0-1.923 1.923v5.154a1.928 1.928 0 0 0 1.923 1.923h1.1v2.5l3.5-2.5h3.555a1.928 1.928 0 0 0 1.923-1.923v-5.154a1.928 1.928 0 0 0-1.924-1.923z" class="cls-2"/>
        <circle id="타원_1182" cx=".75" cy=".75" r=".75" class="cls-3" transform="translate(412.75 351)"/>
        <circle id="타원_1183" cx=".75" cy=".75" r=".75" class="cls-3" transform="translate(415.75 351)"/>
        <circle id="타원_1184" cx=".75" cy=".75" r=".75" class="cls-3" transform="translate(418.75 351)"/>
    </g>
</svg>
