<svg xmlns="http://www.w3.org/2000/svg" width="24" height="24" viewBox="0 0 24 24">
    <path fill="none" d="M0 0H24V24H0z"/>
    <path fill="#fc3" d="M1330.277 29.74l-.431-.655-.383-.624a4.93 4.93 0 0 1-1.057-3.49 5.522 5.522 0 0 0-3.352-5.185.663.663 0 0 0 .1-.214 1.985 1.985 0 0 0 .066-.492 2.184 2.184 0 0 0-4.364 0 2.062 2.062 0 0 0 .06.478.65.65 0 0 0 .1.221 5.531 5.531 0 0 0-3.359 5.193 4.923 4.923 0 0 1-1.057 3.49l-.374.6-.45.687a4.8 4.8 0 0 0-.766 2.122 1.688 1.688 0 0 0 1.725 1.642H1320c-.006.068-.014.138-.014.2a3.051 3.051 0 0 0 6.095 0c0-.07-.008-.136-.014-.2h3.251a1.7 1.7 0 0 0 1.725-1.694 4.754 4.754 0 0 0-.766-2.079zm-8.009-10.47a.806.806 0 0 1-.028-.19.8.8 0 0 1 1.6 0 .7.7 0 0 1-.026.176.634.634 0 0 0-.01.19 5.58 5.58 0 0 0-.785-.067h-.033a5.376 5.376 0 0 0-.719.061.568.568 0 0 0 .001-.17zm2.44 14.452a1.669 1.669 0 0 1-3.334 0 1.354 1.354 0 0 1 .019-.2h3.287a1.384 1.384 0 0 1 .028.2zm4.619-1.518h-12.581a.35.35 0 0 1-.345-.38 3.706 3.706 0 0 1 .564-1.39l.453-.69c.136-.224.262-.426.378-.611a6.106 6.106 0 0 0 1.25-4.163 4.065 4.065 0 0 1 3.983-4.28h.023a4.054 4.054 0 0 1 3.972 4.278 6.106 6.106 0 0 0 1.25 4.163c.116.185.242.386.389.629l.432.659a3.6 3.6 0 0 1 .574 1.453.336.336 0 0 1-.342.328z" transform="translate(-1310.984 -14.782)"/>
</svg>
