<svg xmlns="http://www.w3.org/2000/svg" id="ico_24_menu_system_n" width="24" height="24" viewBox="0 0 24 24">
    <defs>
        <style>
            .cls-3{fill:none;stroke:#fff;stroke-linejoin:round;stroke-width:1.3px}
        </style>
    </defs>
    <g id="Layer_1" transform="translate(-521 -315)">
        <path id="패스_33909" fill="none" stroke="#fff" stroke-linecap="round" stroke-linejoin="round" stroke-width="1.3px" d="M535.319 321.332l-.425-.245a.463.463 0 0 1-.17-.631l.687-1.2a.462.462 0 0 1 .631-.169l.467.27a.465.465 0 0 0 .5-.033 3.365 3.365 0 0 1 .6-.336.464.464 0 0 0 .295-.424v-.555a.462.462 0 0 1 .462-.462h1.385a.462.462 0 0 1 .462.462v.592a.467.467 0 0 0 .284.42 3.368 3.368 0 0 1 .56.326.463.463 0 0 0 .508.038l.516-.3a.461.461 0 0 1 .631.169l.693 1.2a.463.463 0 0 1-.17.631l-.811.468a3.379 3.379 0 0 1 .053.522v.176a3.378 3.378 0 0 1-.053.522l.811.468a.463.463 0 0 1 .17.631l-.693 1.2a.461.461 0 0 1-.631.169l-.515-.3a.469.469 0 0 0-.509.038 3.368 3.368 0 0 1-.56.326.467.467 0 0 0-.284.42v.592a.462.462 0 0 1-.462.462h-.366"/>
        <path id="패스_33910" d="M537.089 330.508l-1.4-.809a5.7 5.7 0 0 0 0-2.419l1.4-.808a.894.894 0 0 0 .326-1.217l-.889-1.54a.893.893 0 0 0-1.217-.326l-1.411.814a5.786 5.786 0 0 0-2.084-1.213v-1.619a.894.894 0 0 0-.892-.891h-1.777a.9.9 0 0 0-.891.891v1.619a5.767 5.767 0 0 0-2.085 1.213l-1.411-.814a.893.893 0 0 0-1.217.326l-.889 1.54a.894.894 0 0 0 .326 1.217l1.4.808a5.7 5.7 0 0 0 0 2.419l-1.4.809a.894.894 0 0 0-.326 1.217l.889 1.539a.893.893 0 0 0 1.217.327l1.411-.815a5.783 5.783 0 0 0 2.085 1.214v1.619a.9.9 0 0 0 .891.891h1.777a.894.894 0 0 0 .892-.891v-1.619a5.787 5.787 0 0 0 2.084-1.214l1.411.815a.893.893 0 0 0 1.217-.327l.889-1.539a.894.894 0 0 0-.326-1.217z" class="cls-3"/>
        <rect id="사각형_19126" width="4.895" height="4.895" class="cls-3" rx="2.447" transform="translate(527.586 326.042)"/>
    </g>
</svg>
