<svg xmlns="http://www.w3.org/2000/svg" id="ico_24_quickmenu_carcontrol_n" width="24" height="24" viewBox="0 0 24 24">
    <defs>
        <style>
            .cls-2,.cls-3,.cls-4{fill:none;stroke:#fc3;stroke-width:1.3px}.cls-2,.cls-3{stroke-linecap:round}.cls-2{stroke-linejoin:round}.cls-3,.cls-4{stroke-miterlimit:10}
        </style>
    </defs>
    <g id="그룹_41161">
        <g id="Layer_2" transform="translate(-72 -318)">
            <g id="그룹_41159">
                <path id="패스_33808" d="M75.806 332.756v.635a1.769 1.769 0 0 0 1.769 1.769h.8a1.769 1.769 0 0 0 1.769-1.769v-.612" class="cls-2"/>
                <path id="패스_33809" d="M89.611 326.986a2.283 2.283 0 0 1-1.254-1.538l-.484-2.037a2.28 2.28 0 0 0-2.218-1.751H80a2.279 2.279 0 0 0-2.218 1.751l-.485 2.037a2.281 2.281 0 0 1-1.254 1.538 2.279 2.279 0 0 0-1.316 2.066v1.668a2.28 2.28 0 0 0 2.28 2.28h5.821" class="cls-3"/>
                <path id="패스_33810" d="M88.824 326.52H76.786l-2.112-1.336" class="cls-2"/>
                <path id="패스_33811" d="M80.4 333v-1.077a1.156 1.156 0 0 1 1.218-1.083h.268" class="cls-2"/>
            </g>
            <g id="그룹_41160">
                <path id="패스_33812" d="M85.95 332.983v-1.259a2.859 2.859 0 0 1 2.859-2.859 2.858 2.858 0 0 1 2.858 2.859v1.259" class="cls-4"/>
                <rect id="사각형_18737" width="8.235" height="6.176" class="cls-4" rx=".797" transform="translate(84.691 332.983)"/>
            </g>
            <path id="선_1433" d="M0 0L1 0" class="cls-3" transform="translate(88.309 336.071)"/>
        </g>
    </g>
</svg>
