<svg xmlns="http://www.w3.org/2000/svg" width="24" height="24" viewBox="0 0 24 24">
    <g fill="none" stroke="#fc3" stroke-miterlimit="10" stroke-width="1.2px">
        <path d="M453.3 554.448a2.248 2.248 0 1 1-2.248-2.248 2.239 2.239 0 0 1 2.248 2.248z" transform="translate(3 3) translate(-442.117 -545.33)"/>
        <path stroke-linejoin="round" d="M460.642 554.194l-.992-.125-.992-2.373.744-1a.792.792 0 0 0 0-1.124l-.5-.5-.5-.5a.769.769 0 0 0-1.116 0l-1.116.749-2.109-.874-.124-1q-.186-.749-.744-.749h-1.489q-.558 0-.744.749l-.124 1-2.357 1-.992-.749a.779.779 0 0 0-1.116 0l-.5.5-.5.5a.782.782 0 0 0 0 1.124l.744.874-.992 2.373-.992.125q-.744.187-.744.749v1.498q0 .562.744.749l.992.125.992 2.373-.5.625a.792.792 0 0 0 0 1.124l.5.5.5.5a.769.769 0 0 0 1.116 0l.62-.5 2.6 1 .124 1.124q.186.749.744.749h1.489q.558 0 .744-.749l.124-1.124 2.357-1 .744.5a.779.779 0 0 0 1.116 0l.5-.5.5-.5a.782.782 0 0 0 0-1.124l-.62-.749.868-2.373 1.116-.125q.744-.187.744-.749v-1.498a1.229 1.229 0 0 0-.859-.625z" transform="translate(3 3) translate(-443.4 -546.7)"/>
    </g>
</svg>
