<svg xmlns="http://www.w3.org/2000/svg" id="btn_delete_remove_n" width="32" height="32" viewBox="0 0 32 32">
    <defs>
        <style>
            .cls-2{fill:none}.cls-3{fill:#e5e7ef}
        </style>
    </defs>
    <g id="타원_961" stroke="#fff" opacity="0.2">
        <circle cx="16" cy="16" r="16" stroke="none"/>
        <circle cx="16" cy="16" r="15.5" class="cls-2"/>
    </g>
    <g id="Frame_-_24px" transform="translate(529.703 -667.591)">
        <path id="사각형_115" d="M0 0H20V20H0z" class="cls-2" transform="translate(-523.703 673.591)"/>
    </g>
    <g id="그룹_42053" transform="translate(529.703 -667.591)">
        <path id="패스_31495" d="M-508.062 678.914a.9.9 0 0 0-.9.9v10.252a.13.13 0 0 1-.126.129h-9.226a.13.13 0 0 1-.13-.126v-10.255a.9.9 0 0 0-.9-.9.9.9 0 0 0-.9.9v10.258a1.935 1.935 0 0 0 1.927 1.923h9.232a1.934 1.934 0 0 0 1.922-1.926v-10.255a.9.9 0 0 0-.899-.9z" class="cls-3"/>
        <path id="패스_31496" d="M-507.31 676.447h-5.49v-.818a.9.9 0 0 0-.9-.9.9.9 0 0 0-.9.9v.818h-5.493a.9.9 0 0 0-.9.9.9.9 0 0 0 .9.9h12.785a.9.9 0 0 0 .9-.9.9.9 0 0 0-.902-.9z" class="cls-3"/>
        <path id="패스_31497" d="M-514.566 687.959v-6.036a.9.9 0 0 0-.9-.9.9.9 0 0 0-.9.9v6.036a.9.9 0 0 0 .9.9.9.9 0 0 0 .9-.9z" class="cls-3"/>
        <path id="패스_31498" d="M-511.059 687.959v-6.036a.9.9 0 0 0-.9-.9.9.9 0 0 0-.9.9v6.036a.9.9 0 0 0 .9.9.9.9 0 0 0 .9-.9z" class="cls-3"/>
    </g>
    <g id="Frame_-_24px-2" transform="translate(529.703 -667.591)">
        <path id="사각형_115-2" d="M0 0H20V20H0z" class="cls-2" transform="translate(-523.703 673.591)"/>
    </g>
    <g id="그룹_42053-2" transform="translate(529.703 -667.591)">
        <path id="패스_31495-2" d="M-508.062 678.914a.9.9 0 0 0-.9.9v10.252a.13.13 0 0 1-.126.129h-9.226a.13.13 0 0 1-.13-.126v-10.255a.9.9 0 0 0-.9-.9.9.9 0 0 0-.9.9v10.258a1.935 1.935 0 0 0 1.927 1.923h9.232a1.934 1.934 0 0 0 1.922-1.926v-10.255a.9.9 0 0 0-.899-.9z" class="cls-3"/>
        <path id="패스_31496-2" d="M-507.31 676.447h-5.49v-.818a.9.9 0 0 0-.9-.9.9.9 0 0 0-.9.9v.818h-5.493a.9.9 0 0 0-.9.9.9.9 0 0 0 .9.9h12.785a.9.9 0 0 0 .9-.9.9.9 0 0 0-.902-.9z" class="cls-3"/>
        <path id="패스_31497-2" d="M-514.566 687.959v-6.036a.9.9 0 0 0-.9-.9.9.9 0 0 0-.9.9v6.036a.9.9 0 0 0 .9.9.9.9 0 0 0 .9-.9z" class="cls-3"/>
        <path id="패스_31498-2" d="M-511.059 687.959v-6.036a.9.9 0 0 0-.9-.9.9.9 0 0 0-.9.9v6.036a.9.9 0 0 0 .9.9.9.9 0 0 0 .9-.9z" class="cls-3"/>
    </g>
</svg>
