<svg xmlns="http://www.w3.org/2000/svg" id="ico_helpdesk_n" width="24" height="24" viewBox="0 0 24 24">
    <defs>
        <style>
            .cls-2{fill:#626572}
        </style>
    </defs>
    <path id="패스_31437" d="M613.494 1230.016a6.532 6.532 0 0 1-3.9 1.658 1.608 1.608 0 0 0-1.344-.721h-1.754a1.625 1.625 0 0 0-1.623 1.618 1.63 1.63 0 0 0 1.629 1.63h1.749a1.623 1.623 0 0 0 1.51-1.036h.008c2.308-.337 4.1-1.156 4.927-2.248a.75.75 0 1 0-1.2-.9zm-5.119 2.559a.125.125 0 0 1-.121.126H606.5a.124.124 0 1 1 0-.248h1.752a.125.125 0 0 1 .085.035.122.122 0 0 1 .038.087z" class="cls-2" transform="translate(-595.162 -1211.807)"/>
    <path id="패스_31438" d="M615.2 1222.871v-1.4a8.086 8.086 0 0 0-8.076-8.063h-.014a8.092 8.092 0 0 0-8.062 8.063v1.4a3.244 3.244 0 0 0-2.289 3.1v.494a3.254 3.254 0 0 0 3.25 3.25h.663a1.252 1.252 0 0 0 1.25-1.25v-4.494a1.251 1.251 0 0 0-1.25-1.25h-.124v-1.25a6.583 6.583 0 0 1 6.576-6.564h.013a6.588 6.588 0 0 1 6.563 6.564v1.25h-.124a1.251 1.251 0 0 0-1.25 1.25v4.494a1.252 1.252 0 0 0 1.25 1.25h.663a3.254 3.254 0 0 0 3.25-3.25v-.495a3.243 3.243 0 0 0-2.289-3.099zm.789 3.1v.494a1.752 1.752 0 0 1-1.75 1.75h-.413v-3.994h.413a1.752 1.752 0 0 1 1.753 1.747zm-17.73 0a1.752 1.752 0 0 1 1.75-1.75h.413v3.994h-.413a1.752 1.752 0 0 1-1.75-1.75z" class="cls-2" transform="translate(-595.162 -1211.807)"/>
</svg>
