<svg xmlns="http://www.w3.org/2000/svg" id="ico_key_ball_n" width="36" height="36" viewBox="0 0 36 36">
    <defs>
        <style>
            .cls-2{fill:#ff5f39}
        </style>
    </defs>
    <g id="그룹_42039" transform="translate(352.313 -934.562)">
        <path id="패스_31471" d="M-318.163 965.223l-14.624-26.992a1.257 1.257 0 0 0-1.109-.669 1.315 1.315 0 0 0-1.057.637l-15.384 27a1.35 1.35 0 0 0-.027 1.282 1.243 1.243 0 0 0 1.1.689h30.018a1.237 1.237 0 0 0 1.086-.664 1.349 1.349 0 0 0-.003-1.283zm-3.231-.661h-25.669l13.157-23.1z" class="cls-2"/>
        <path id="패스_31472" d="M-334.909 948.908a1.264 1.264 0 0 0-.413.413l-6.01 10.493a1.357 1.357 0 0 0-.026 1.283 1.244 1.244 0 0 0 1.1.691h12.007a1.242 1.242 0 0 0 1.094-.685 1.36 1.36 0 0 0-.028-1.293l-6.007-10.488a1.243 1.243 0 0 0-.773-.563 1.247 1.247 0 0 0-.944.149zm.655 3.64l3.8 6.627h-7.591z" class="cls-2"/>
    </g>
</svg>
