<svg xmlns="http://www.w3.org/2000/svg" id="ico_24_time_fast" width="24" height="24" viewBox="0 0 24 24">
    <defs>
        <style>
            .cls-2{fill:#1a1a1a}
        </style>
    </defs>
    <g id="ico_time_fast" transform="translate(456.919 -675.057)">
        <path id="패스_31501" d="M-436.285 680.563a9.17 9.17 0 0 0-6.534-2.706.7.7 0 0 0-.7.7.7.7 0 0 0 .7.7 7.827 7.827 0 0 1 7.812 7.827 7.829 7.829 0 0 1-7.821 7.813h-.006a7.8 7.8 0 0 1-5.993-2.814h-1.729a9.166 9.166 0 0 0 7.736 4.229h.251v-.006a9.169 9.169 0 0 0 6.276-2.7 9.172 9.172 0 0 0 2.706-6.523 9.172 9.172 0 0 0-2.698-6.52z" class="cls-2"/>
        <path id="패스_31502" d="M-445.737 679.819a.693.693 0 0 0 .381-.375.692.692 0 0 0 0-.534.694.694 0 0 0-.374-.382.7.7 0 0 0-.534-.005 9.163 9.163 0 0 0-4.3 3.56h1.731a7.783 7.783 0 0 1 3.096-2.264z" class="cls-2"/>
        <path id="패스_31503" d="M-440.293 690.487a.633.633 0 0 0 .395.138.636.636 0 0 0 .453-.187.638.638 0 0 0 .189-.454.633.633 0 0 0-.249-.509l-2.731-2.125v-3.327a.643.643 0 0 0-.642-.64.643.643 0 0 0-.642.642v3.641a.635.635 0 0 0 .248.505z" class="cls-2"/>
        <path id="패스_31504" d="M-448.144 684.683h-7.175a.6.6 0 0 1-.6-.6.6.6 0 0 1 .6-.6h7.175a.6.6 0 0 1 .6.6.6.6 0 0 1-.6.6z" class="cls-2"/>
        <path id="패스_31505" d="M-448.144 687.683h-6.175a.6.6 0 0 1-.6-.6.6.6 0 0 1 .6-.6h6.175a.6.6 0 0 1 .6.6.6.6 0 0 1-.6.6z" class="cls-2"/>
        <path id="패스_31506" d="M-448.144 690.683h-4a.6.6 0 0 1-.6-.6.6.6 0 0 1 .6-.6h4a.6.6 0 0 1 .6.6.6.6 0 0 1-.6.6z" class="cls-2"/>
    </g>
</svg>
