<svg xmlns="http://www.w3.org/2000/svg" width="30" height="30" viewBox="0 0 30 30">
    <path fill="#a16912" fill-rule="evenodd" d="M13.6 10.2a1.133 1.133 0 1 1 1.133-1.133A1.134 1.134 0 0 1 13.6 10.2zm1.133 7.932a1.133 1.133 0 0 1-2.266 0v-5.667a1.133 1.133 0 1 1 2.266 0zM0 13.6a13.613 13.613 0 0 0 13.6 13.6 13.145 13.145 0 0 0 6.632-1.964l1.632 1.632a1.133 1.133 0 1 0 1.6-1.6L21.2 23a1.13 1.13 0 0 0-1.42-.148 11.394 11.394 0 0 1-6.18 2.078 11.327 11.327 0 1 1 9.5-5.15 1.133 1.133 0 0 0 1.9 1.237A13.6 13.6 0 1 0 0 13.6z" opacity="0.7" transform="translate(1.403 1.402)"/>
</svg>
