<svg xmlns="http://www.w3.org/2000/svg" id="ico_key_unlock_n" width="36" height="36" viewBox="0 0 36 36">
    <defs>
        <style>
            .cls-2{fill:#eaedf0}
        </style>
    </defs>
    <g id="그룹_42043" transform="translate(228.813 -918.784)">
        <path id="패스_31481" d="M-210.813 940.784a1.251 1.251 0 0 0-1.25 1.25v3a1.252 1.252 0 0 0 1.25 1.25 1.252 1.252 0 0 0 1.25-1.25v-3a1.251 1.251 0 0 0-1.25-1.25z" class="cls-2"/>
        <path id="패스_31482" d="M-202.049 934.784h-.764v-5.5a8.009 8.009 0 0 0-8-8 8.009 8.009 0 0 0-8 8v.75a1.252 1.252 0 0 0 1.25 1.25 1.252 1.252 0 0 0 1.25-1.25v-.75a5.511 5.511 0 0 1 5.494-5.5 5.675 5.675 0 0 1 4.1 1.839 5.27 5.27 0 0 1 1.4 3.661v5.5h-14.261a3.745 3.745 0 0 0-3.733 3.736v10.03a3.744 3.744 0 0 0 3.733 3.734h17.53a3.749 3.749 0 0 0 3.737-3.735v-10.03a3.747 3.747 0 0 0-3.736-3.735zm1.236 13.764a1.242 1.242 0 0 1-1.237 1.236h-17.528a1.24 1.24 0 0 1-1.235-1.235V938.52a1.239 1.239 0 0 1 1.234-1.236h17.528a1.24 1.24 0 0 1 1.238 1.236z" class="cls-2"/>
    </g>
</svg>
