<svg xmlns="http://www.w3.org/2000/svg" width="18" height="18" viewBox="0 0 18 18">
    <path fill="none" d="M0 0H18V18H0z"/>
    <path fill="#fff" d="M-354.27 976.061l4.47-4.47a.749.749 0 0 0 0-1.06.749.749 0 0 0-1.06 0l-4.47 4.469-4.47-4.469a.749.749 0 0 0-1.06 0 .749.749 0 0 0 0 1.06l4.469 4.47-4.469 4.47a.749.749 0 0 0 0 1.06.744.744 0 0 0 .53.22.744.744 0 0 0 .53-.22l4.47-4.469 4.47 4.469a.744.744 0 0 0 .53.22.744.744 0 0 0 .53-.22.749.749 0 0 0 0-1.06z" opacity="0.5" transform="translate(364.08 -967.311)"/>
</svg>
