<svg xmlns="http://www.w3.org/2000/svg" id="ico_info_etc_a" width="18" height="18" viewBox="0 0 18 18">
    <defs>
        <style>
            .cls-2{fill:#a16912}
        </style>
    </defs>
    <path id="패스_30452" d="M10.232 8.213a.639.639 0 0 1-1.113-.629A2.233 2.233 0 0 1 11.175 6.4 2.131 2.131 0 0 1 13.3 8.528c0 1.439-1.5 2.31-1.5 2.781v.423a.635.635 0 1 1-1.271 0v-.423c0-1.234 1.488-1.85 1.488-2.781a.841.841 0 0 0-.846-.847.951.951 0 0 0-.943.532m.943 4.583a.641.641 0 1 1-.642.641.636.636 0 0 1 .642-.641" class="cls-2" transform="translate(-2.039 -1.399)"/>
    <path id="패스_31452" d="M353.96 975.075h-.008a7 7 0 0 0-5.355 11.506l-.6.6a.6.6 0 0 0 .856.854l1.01-1.01a.608.608 0 0 0 0-.854 5.783 5.783 0 1 1 1.228.938.6.6 0 0 0-.594 1.053 6.972 6.972 0 0 0 3.446.913v-.259h.005v.259h.007a7 7 0 0 0 .007-14z" class="cls-2" transform="translate(-344.953 -973.075)"/>
</svg>
