<svg xmlns="http://www.w3.org/2000/svg" id="ico_list_qr_grey" width="24" height="24" viewBox="0 0 24 24">
    <defs>
        <style>
            .cls-4{fill:#626572}
        </style>
    </defs>
    <g id="ico_list_qr_grey-2" opacity="0.8" transform="translate(.92)">
        <rect id="사각형_16704" width="9" height="9" fill="#626572" opacity="0.2" rx=".744" transform="translate(6.58 7.5)"/>
        <g id="그룹_42031" transform="translate(322.132 -954.497)">
            <path id="패스_31461" d="M-301.487 957.5h-5.69a.717.717 0 0 0-.5.234.713.713 0 0 0-.187.518.716.716 0 0 0 .234.5.7.7 0 0 0 .507.188h4.915v4.915a.721.721 0 0 0 .72.72h.007a.721.721 0 0 0 .713-.724v-5.63a.721.721 0 0 0-.719-.721z" class="cls-4" transform="translate(-1.285)"/>
            <path id="패스_31462" d="M-319.326 964.571h.006a.722.722 0 0 0 .714-.724v-4.911h4.927a.716.716 0 0 0 .685-.686.723.723 0 0 0-.7-.752h-5.635a.721.721 0 0 0-.72.72v5.634a.721.721 0 0 0 .723.719z" class="cls-4"/>
            <path id="패스_31463" d="M-313.7 975.341h-4.915v-4.971a.716.716 0 0 0-.234-.5.682.682 0 0 0-.518-.186.717.717 0 0 0-.686.741v5.634a.721.721 0 0 0 .72.72h5.645a.716.716 0 0 0 .686-.685.713.713 0 0 0-.187-.519.72.72 0 0 0-.511-.234z" class="cls-4" transform="translate(0 -1.283)"/>
            <path id="패스_31464" d="M-301.454 969.729a.723.723 0 0 0-.753.7v4.915h-4.97a.717.717 0 0 0-.5.234.712.712 0 0 0-.187.518.714.714 0 0 0 .234.5.713.713 0 0 0 .476.188h5.672a.722.722 0 0 0 .713-.724v-5.642a.716.716 0 0 0-.685-.689z" class="cls-4" transform="translate(-1.285 -1.283)"/>
            <path id="패스_31465" d="M1 0h10a1 1 0 0 1 0 2H1a1 1 0 0 1 0-2z" class="cls-4" transform="translate(-317.052 965.497)"/>
        </g>
    </g>
</svg>
