<svg xmlns="http://www.w3.org/2000/svg" id="ico_key_map_n" width="36" height="36" viewBox="0 0 36 36">
    <defs>
        <style>
            .cls-3{fill:#eaedf0}
        </style>
    </defs>
    <g id="그룹_42045" opacity="0.996" transform="translate(130.354 -921.613)">
        <path id="패스_31485" d="M-111.739 929.555a4.693 4.693 0 0 0-4.688 4.687 4.658 4.658 0 0 0 1.372 3.316 4.657 4.657 0 0 0 3.315 1.373 4.657 4.657 0 0 0 3.313-1.372 4.663 4.663 0 0 0 1.374-3.317 4.7 4.7 0 0 0-4.686-4.687zm0 7.459a2.752 2.752 0 0 1-1.958-.811 2.749 2.749 0 0 1-.812-1.959 2.774 2.774 0 0 1 2.77-2.772 2.775 2.775 0 0 1 2.771 2.77 2.78 2.78 0 0 1-2.772 2.772z" class="cls-3"/>
        <path id="패스_31486" d="M-107.261 945.65c2.458-3.373 5.57-8.059 5.645-11.247a.808.808 0 0 0 .013-.161 10.14 10.14 0 0 0-10.128-10.129 10.141 10.141 0 0 0-10.129 10.129c0 4 4.8 10.328 7.662 14.108l.835 1.109a2.034 2.034 0 0 0 .424.425 2.016 2.016 0 0 0 1.195.4 1.5 1.5 0 0 0 .3-.023 2 2 0 0 0 1.32-.8l.878-1.163.683-.9c4.484.508 6.116 1.909 6.116 2.735 0 1.223-3.3 2.916-9.5 2.916s-9.5-1.693-9.5-2.916c0-.718 1.052-1.505 2.753-2.055a.949.949 0 0 0 .546-.49.949.949 0 0 0 .039-.732.959.959 0 0 0-1.179-.6c-2.627.849-4.074 2.226-4.074 3.876 0 2.846 4.695 4.833 11.416 4.833s11.417-1.987 11.417-4.833c.004-2.181-2.446-3.802-6.732-4.482zm3.745-11.546a.818.818 0 0 0-.011.14c0 3.353-4.719 9.572-7.254 12.913l-.239.318c-.233.309-.447.591-.638.848a.176.176 0 0 1-.04.037.186.186 0 0 1-.126-.041l-.847-1.126c-2.542-3.353-7.273-9.593-7.273-12.948a8.221 8.221 0 0 1 8.213-8.189h.023a8.25 8.25 0 0 1 8.192 8.044z" class="cls-3"/>
    </g>
</svg>
