<svg xmlns="http://www.w3.org/2000/svg" id="ico_edit_btn_y" width="20" height="20" viewBox="0 0 20 20">
    <defs>
        <style>
            .cls-2{fill:#a16912}
        </style>
    </defs>
    <path id="패스_31448" d="M285.07 991.668h2.778a.831.831 0 0 0 .589-.244l7.639-7.639a.832.832 0 0 0 0-1.178l-2.778-2.777a.834.834 0 0 0-1.178 0l-7.639 7.639a.836.836 0 0 0-.244.589v2.778a.833.833 0 0 0 .833.832zm.833-3.265l6.806-6.806 1.6 1.6L287.5 990h-1.6z" class="cls-2" transform="translate(-280.904 -977.086)"/>
    <path id="패스_31449" d="M297.57 996.252h-12.5a.833.833 0 1 0 0 1.667h12.5a.833.833 0 1 0 0-1.667z" class="cls-2" transform="translate(-280.904 -979.863)"/>
</svg>
