<svg xmlns="http://www.w3.org/2000/svg" id="ico_coupon" width="18" height="18" viewBox="0 0 18 18">
    <defs>
        <style>
            .cls-3{fill:#fff}
        </style>
    </defs>
    <circle id="타원_988" cx="8" cy="8" r="8" fill="#0e3180" opacity="0.8" transform="translate(1 1)"/>
    <g id="그룹_43294" transform="translate(203.162 -336.513)">
        <path id="패스_37439" d="M-191.286 341.608a.5.5 0 0 0-.7.113l-5.1 7.067a.5.5 0 0 0 .112.7.492.492 0 0 0 .292.1.5.5 0 0 0 .406-.207l5.1-7.067a.5.5 0 0 0-.11-.706z" class="cls-3"/>
        <path id="패스_37440" d="M-194.658 343.269a1.727 1.727 0 0 0-1.752-1.7 1.727 1.727 0 0 0-1.752 1.7 1.727 1.727 0 0 0 1.752 1.695 1.727 1.727 0 0 0 1.752-1.695zm-2.5 0a.727.727 0 0 1 .752-.7.728.728 0 0 1 .752.7.727.727 0 0 1-.752.695.726.726 0 0 1-.756-.695z" class="cls-3"/>
        <path id="패스_37441" d="M-190.625 346.605a1.8 1.8 0 0 0-1.3-.476 1.744 1.744 0 0 0-1.218.569 1.747 1.747 0 0 0-.458 1.264 1.746 1.746 0 0 0 .569 1.217 1.738 1.738 0 0 0 1.182.46h.081a1.745 1.745 0 0 0 1.218-.57 1.741 1.741 0 0 0 .458-1.258 1.721 1.721 0 0 0-.532-1.206zm-.663 1.789a.754.754 0 0 1-.525.245.794.794 0 0 1-.543-.2.75.75 0 0 1-.245-.524.75.75 0 0 1 .2-.544.78.78 0 0 1 .569-.246h.017a.724.724 0 0 1 .5.2.731.731 0 0 1 .225.511v.011a.752.752 0 0 1-.198.547z" class="cls-3"/>
    </g>
</svg>
