<svg xmlns="http://www.w3.org/2000/svg" id="ico_24_time_edit" width="24" height="24" viewBox="0 0 24 24">
    <defs>
        <style>
            .cls-2{fill:#1a1a1a}
        </style>
    </defs>
    <g id="그룹_42054" transform="translate(493.591 -672.45)">
        <path id="패스_31499" d="M-481.588 674.45a.732.732 0 0 0-.731.732.732.732 0 0 0 .73.732 8.536 8.536 0 0 1 8.516 8.537 8.536 8.536 0 0 1-8.525 8.519h-.009a8.538 8.538 0 0 1-8.517-8.537 8.494 8.494 0 0 1 5.361-7.91.735.735 0 0 0 .369-.968.739.739 0 0 0-.924-.385 10.012 10.012 0 0 0-5.555 13 9.95 9.95 0 0 0 9.279 6.277 10.01 10.01 0 0 0 10-10 10.01 10.01 0 0 0-9.994-9.997z" class="cls-2"/>
        <path id="패스_31500" d="M-477.41 688.547a.731.731 0 0 0 .2.107v.046h.251a.733.733 0 0 0 .585-.292.732.732 0 0 0-.143-1.022l-4.106-3.2v-5.007a.733.733 0 0 0-.732-.732.732.732 0 0 0-.731.732v5.366a.735.735 0 0 0 .283.578z" class="cls-2" transform="translate(-.235 -.098)"/>
    </g>
</svg>
