<svg xmlns="http://www.w3.org/2000/svg" id="ico_smart_key_sound" width="30" height="30" viewBox="0 0 30 30">
    <defs>
        <style>
            .cls-2{fill:#fff}
        </style>
    </defs>
    <g id="그룹_42032" transform="translate(418.823 -937.599)">
        <path id="패스_31466" d="M-403.229 941.8h-1.756a2.61 2.61 0 0 0-1.841.767l-5.879 5.889a.877.877 0 0 1-.668.276h-.639a2.617 2.617 0 0 0-2.611 2.611v2.509a2.6 2.6 0 0 0 .764 1.848 2.6 2.6 0 0 0 1.847.766.833.833 0 0 0 .833-.833.833.833 0 0 0-.832-.833.951.951 0 0 1-.945-.949v-2.506a.954.954 0 0 1 .944-.945h.641a2.615 2.615 0 0 0 1.843-.766l5.88-5.891a.951.951 0 0 1 .668-.277h.915v18.264h-.918a.949.949 0 0 1-.665-.274l-5.267-5.255a.864.864 0 0 0-.6-.225.832.832 0 0 0-.581.264.832.832 0 0 0 .033 1.171l5.233 5.224a2.608 2.608 0 0 0 1.84.765h1.758a.823.823 0 0 0 .588-.244.826.826 0 0 0 .243-.589V942.63a.833.833 0 0 0-.828-.83z" class="cls-2"/>
        <path id="패스_31467" d="M-398.511 946.668a.827.827 0 0 0-.589-.244.826.826 0 0 0-.588.243.831.831 0 0 0-.244.589.832.832 0 0 0 .258.6 6.726 6.726 0 0 1-.014 9.5.832.832 0 0 0 0 1.177.824.824 0 0 0 .583.24.863.863 0 0 0 .607-.254 8.324 8.324 0 0 0 2.449-5.931 8.329 8.329 0 0 0-2.462-5.92z" class="cls-2"/>
        <path id="패스_31468" d="M-394.947 943.1a.833.833 0 0 0-1.178 0 .831.831 0 0 0-.244.589.853.853 0 0 0 .267.613 11.763 11.763 0 0 1 0 16.591l-.029.029a.831.831 0 0 0 0 1.175l.176-.177-.176.178a.821.821 0 0 0 .582.24.871.871 0 0 0 .614-.259 13.333 13.333 0 0 0 3.921-9.494 13.333 13.333 0 0 0-3.933-9.485z" class="cls-2"/>
    </g>
</svg>
