<svg xmlns="http://www.w3.org/2000/svg" id="ico_key_call_n" width="36" height="36" viewBox="0 0 36 36">
    <defs>
        <style>
            .cls-3{fill:#eaedf0}
        </style>
    </defs>
    <g id="ico_key_call">
        <g id="레이어_1">
            <g id="그룹_39140"/>
        </g>
        <g id="그룹_42044" opacity="0.9" transform="translate(172.783 -923.418)">
            <path id="패스_31483" d="M-144.132 950.719a14.028 14.028 0 0 0 3.465-9.258 14.073 14.073 0 0 0-14.058-14.043h-.015a13.966 13.966 0 0 0-9.936 4.129 13.968 13.968 0 0 0-4.107 9.945 14.074 14.074 0 0 0 14.058 14.043h.027a14.008 14.008 0 0 0 6.923-1.834.948.948 0 0 0 .45-.579.951.951 0 0 0-.091-.727.95.95 0 0 0-.579-.451.947.947 0 0 0-.727.091 12.164 12.164 0 0 1-14.576-1.952 12.054 12.054 0 0 1-3.563-8.576 12.051 12.051 0 0 1 3.544-8.583 12.051 12.051 0 0 1 8.575-3.564h.014a12.054 12.054 0 0 1 8.569 3.544 12.147 12.147 0 0 1 .017 17.161.958.958 0 0 0 0 1.352l2.052 2.053a.946.946 0 0 0 .1.1.975.975 0 0 0 .7.231.953.953 0 0 0 .656-.33.956.956 0 0 0-.086-1.34z" class="cls-3"/>
            <path id="패스_31484" d="M-156.259 938.534a1.019 1.019 0 0 0 .108-1.419l-1.809-2.044a1 1 0 0 0-1.4-.059h-.007a11.976 11.976 0 0 0-1.047 1.3 3.359 3.359 0 0 0-.245.791c-.372 2.1.476 4.091 2.93 6.865 3.392 3.834 6.309 3.724 6.433 3.719a3.217 3.217 0 0 0 .812-.156 12.073 12.073 0 0 0 1.4-.9 1.02 1.02 0 0 0 .1-1.411l-1.808-2.043a.994.994 0 0 0-1.4-.062l-1.022.918-.184-.122a9.616 9.616 0 0 1-2.227-1.826 9.826 9.826 0 0 1-1.551-2.447l-.093-.193.687-.612z" class="cls-3"/>
        </g>
    </g>
</svg>
