<svg xmlns="http://www.w3.org/2000/svg" id="ico_code_flashlight_n" width="24" height="24" viewBox="0 0 24 24">
    <defs>
        <style>
            .cls-2{fill:#1a1a1a}
        </style>
    </defs>
    <path id="ico_light_n" d="M18.285 12.747a.6.6 0 0 1-.172-.415V9.778a1.752 1.752 0 0 0-.513-1.246L15.245 6.18a1.764 1.764 0 0 0-2.5 0L6.18 12.747a1.763 1.763 0 0 0 0 2.5l2.352 2.352a1.777 1.777 0 0 0 1.247.516h2.554a.588.588 0 0 1 .415.172l5.193 5.191a1.986 1.986 0 0 0 2.7 0l2.84-2.84a2 2 0 0 0 0-2.695zm-11.273.831l6.569-6.567a.588.588 0 0 1 .833 0l.516.516-7.4 7.4-.516-.516a.588.588 0 0 1 0-.832zM22.646 19.8l-2.84 2.84a.842.842 0 0 1-1.033 0l-5.192-5.19a1.777 1.777 0 0 0-1.247-.516H9.779a.588.588 0 0 1-.415-.172l-1-1 7.4-7.4 1 1a.6.6 0 0 1 .172.415v2.554a1.752 1.752 0 0 0 .516 1.246l5.192 5.191a.842.842 0 0 1 .002 1.032zM5.348 6.18a.589.589 0 0 1 .833-.832l1.176 1.175a.589.589 0 0 1-.833.832zm3.945-.122v-1.47a.588.588 0 0 1 1.176 0v1.47a.588.588 0 0 1-1.176 0zM4 9.879a.588.588 0 0 1 .588-.588h1.47a.588.588 0 1 1 0 1.176h-1.47A.588.588 0 0 1 4 9.879zm12.765 6.051a.589.589 0 1 1-.833.832l-1.176-1.176a.589.589 0 0 1 .833-.832z" class="cls-2" transform="translate(-2 -2)"/>
    <path id="ico_" d="M18.285 12.747a.6.6 0 0 1-.172-.415V9.778a1.752 1.752 0 0 0-.513-1.246L15.245 6.18a1.764 1.764 0 0 0-2.5 0L6.18 12.747a1.763 1.763 0 0 0 0 2.5l2.352 2.352a1.777 1.777 0 0 0 1.247.516h2.554a.588.588 0 0 1 .415.172l5.193 5.191a1.986 1.986 0 0 0 2.7 0l2.84-2.84a2 2 0 0 0 0-2.695zm-11.273.831l6.569-6.567a.588.588 0 0 1 .833 0l.516.516-7.4 7.4-.516-.516a.588.588 0 0 1 0-.832zM22.646 19.8l-2.84 2.84a.842.842 0 0 1-1.033 0l-5.192-5.19a1.777 1.777 0 0 0-1.247-.516H9.779a.588.588 0 0 1-.415-.172l-1-1 7.4-7.4 1 1a.6.6 0 0 1 .172.415v2.554a1.752 1.752 0 0 0 .516 1.246l5.192 5.191a.842.842 0 0 1 .002 1.032zM5.348 6.18a.589.589 0 0 1 .833-.832l1.176 1.175a.589.589 0 0 1-.833.832zm3.945-.122v-1.47a.588.588 0 0 1 1.176 0v1.47a.588.588 0 0 1-1.176 0zM4 9.879a.588.588 0 0 1 .588-.588h1.47a.588.588 0 1 1 0 1.176h-1.47A.588.588 0 0 1 4 9.879zm12.765 6.051a.589.589 0 1 1-.833.832l-1.176-1.176a.589.589 0 0 1 .833-.832z" class="cls-2" transform="translate(-2 -2)"/>
</svg>
