<svg xmlns="http://www.w3.org/2000/svg" id="ico_warning" width="18" height="18" viewBox="0 0 18 18">
    <defs>
        <style>
            .cls-3{fill:#fff}
        </style>
    </defs>
    <path id="사각형_18207" fill="none" d="M0 0H18V18H0z"/>
    <path id="패스_30987" fill="#cf1f25" d="M15.8 13.139L9.583 2.179a1.707 1.707 0 0 0-2.967 0L.389 13.139a1.707 1.707 0 0 0 1.487 2.547h12.44a1.706 1.706 0 0 0 1.484-2.547z" transform="translate(.944 .562)"/>
    <path id="패스_30988" d="M12.406 18.34a.969.969 0 0 1-.667.253 1 1 0 0 1-.667-.247.886.886 0 0 1-.293-.7.939.939 0 0 1 .933-.947h.02a.939.939 0 0 1 .667.273.906.906 0 0 1 .28.667.9.9 0 0 1-.273.701z" class="cls-3" transform="translate(-2.593 -4.566)"/>
    <path id="패스_30989" d="M12.676 8.539l-.247 2.793a2.246 2.246 0 0 1-.153.78.546.546 0 0 1-.52.32.533.533 0 0 1-.513-.313 2.662 2.662 0 0 1-.18-.82l-.18-2.72c-.033-.54-.053-.913-.053-1.147a1.135 1.135 0 0 1 .273-.8.945.945 0 0 1 .72-.293.746.746 0 0 1 .72.44 2.353 2.353 0 0 1 .173 1.013 7.351 7.351 0 0 1-.04.747z" class="cls-3" transform="translate(-2.609 -1.113)"/>
</svg>
