<svg xmlns="http://www.w3.org/2000/svg" id="ico_key_lock_n" width="36" height="36" viewBox="0 0 36 36">
    <defs>
        <style>
            .cls-2{fill:#eaedf0}
        </style>
    </defs>
    <g id="그룹_42042" transform="translate(256.414 -919.209)">
        <path id="패스_31479" d="M-236.914 942.709h-3a1.251 1.251 0 0 0-1.25 1.25 1.251 1.251 0 0 0 1.25 1.25h3a1.252 1.252 0 0 0 1.25-1.25 1.252 1.252 0 0 0-1.25-1.25z" class="cls-2"/>
        <path id="패스_31480" d="M-229.65 935.209h-.764v-5.5a8.009 8.009 0 0 0-8-8 8.009 8.009 0 0 0-8 8v5.5h-.766a3.746 3.746 0 0 0-3.734 3.735v10.031a3.746 3.746 0 0 0 3.734 3.734h17.531a3.746 3.746 0 0 0 3.735-3.735v-10.031a3.747 3.747 0 0 0-3.736-3.734zm-14.264 0v-5.5a5.506 5.506 0 0 1 5.5-5.5 5.506 5.506 0 0 1 5.5 5.5v5.5zm15.5 3.735v10.03a1.239 1.239 0 0 1-1.236 1.235h-17.528a1.239 1.239 0 0 1-1.236-1.235v-10.029a1.242 1.242 0 0 1 1.235-1.236h17.529a1.239 1.239 0 0 1 1.236 1.235z" class="cls-2"/>
    </g>
</svg>
