<svg xmlns="http://www.w3.org/2000/svg" id="ico_camera_n" width="20" height="20" viewBox="0 0 20 20">
    <defs>
        <style>
            .cls-2{fill:#5d5d5d}
        </style>
    </defs>
    <g id="그룹_41996" transform="translate(1.4 2)">
        <path id="패스_31458" d="M443.772 985.939h-1.723l-.559-1.643a.665.665 0 0 0-.629-.451h-5.845a.666.666 0 0 0-.632.451l-.715 2.1a.667.667 0 0 0 1.263.427l.56-1.642h4.881l.56 1.644a.668.668 0 0 0 .63.451h2.2a1.42 1.42 0 0 1 1.417 1.417v8.333a1.422 1.422 0 0 1-1.417 1.417H432.1a1.42 1.42 0 0 1-1.417-1.417v-8.333a1.419 1.419 0 0 1 1.417-1.417h.469a.64.64 0 0 0 .481-.172.661.661 0 0 0 .218-.461.677.677 0 0 0-.687-.7h-.481a2.753 2.753 0 0 0-2.75 2.75v8.333a2.752 2.752 0 0 0 2.75 2.75h11.667a2.753 2.753 0 0 0 2.75-2.75v-8.333a2.754 2.754 0 0 0-2.745-2.754z" class="cls-2" transform="translate(-429.354 -983.845)"/>
        <path id="패스_31459" d="M441.937 992.856a4 4 0 1 0-4 4 4 4 0 0 0 4-4zm-1.333 0a2.667 2.667 0 1 1-2.667-2.667 2.671 2.671 0 0 1 2.663 2.666z" class="cls-2" transform="translate(-429.354 -983.845)"/>
    </g>
</svg>
