<svg xmlns="http://www.w3.org/2000/svg" id="ico_coupon_download" width="36" height="36" viewBox="0 0 36 36">
    <defs>
        <style>
            .cls-3{fill:#1a1a1a}
        </style>
    </defs>
    <circle id="타원_1395" cx="18" cy="18" r="18" fill="#fff" opacity="0.999"/>
    <g id="그룹_42070" transform="translate(6 5)">
        <g id="그룹_43286" transform="translate(69.255 -254.713)">
            <path id="패스_37401" d="M-57.775 274a.749.749 0 0 0 .532.22.747.747 0 0 0 .446-.147l.068-.056.015-.014 6.3-6.3a.735.735 0 0 0 .229-.526.739.739 0 0 0-.21-.534.747.747 0 0 0-.526-.229.858.858 0 0 0-.55.226l-5.019 5.022v-13.4a.752.752 0 0 0-.75-.75.751.751 0 0 0-.75.75v13.4l-5.02-5.02a.747.747 0 0 0-.527-.229.721.721 0 0 0-.533.211.737.737 0 0 0-.229.526.754.754 0 0 0 .225.549z" class="cls-3"/>
            <path id="패스_37402" d="M-49.578 272.113a.751.751 0 0 0-.75.75v2.091h-14.027v-2.091a.751.751 0 0 0-.75-.75.751.751 0 0 0-.75.75v2.837a.751.751 0 0 0 .75.75h15.527a.752.752 0 0 0 .75-.75v-2.841a.752.752 0 0 0-.75-.746z" class="cls-3"/>
        </g>
    </g>
</svg>
