<svg xmlns="http://www.w3.org/2000/svg" id="ico_floating_search_n" width="30" height="30" viewBox="0 0 30 30">
    <defs>
        <style>
            .cls-3{fill:#a16912}
        </style>
    </defs>
    <circle id="타원_986" cx="5.5" cy="5.5" r="5.5" fill="rgba(161,105,18,0.2)" transform="translate(15 13)"/>
    <path id="패스_30351" d="M1390.665 412.535a3.545 3.545 0 0 0-3.44 2.727h-.651v-3a3 3 0 0 1 3-3h17.449a.818.818 0 0 1 .818.811 7.564 7.564 0 0 1 1.637.813v-.807a2.448 2.448 0 0 0-2.182-2.426v-.846a6.277 6.277 0 0 0-6.272-6.27h-7.054a.818.818 0 0 0-.754.5l-2.76 6.543a.445.445 0 0 0-.01.046h-.874a4.642 4.642 0 0 0-4.636 4.636v3.816a.818.818 0 0 0 .818.818h1.469a3.54 3.54 0 1 0 3.44-4.363zm15-5.725v.818h-5.768v-5.452h1.132a4.64 4.64 0 0 1 4.631 4.634zm-11.146-4.634h3.743v5.452h-6.042zm-3.849 15.813a1.909 1.909 0 1 1 1.907-1.909 1.911 1.911 0 0 1-1.912 1.909z" class="cls-3" transform="translate(-1384.938 -399.04)"/>
    <path id="패스_30352" d="M1409.305 421.661l-4.543-4.543a6.33 6.33 0 0 0-.506-8.351c-.085-.085-.183-.144-.271-.222a6.272 6.272 0 0 0-2.824-1.464l-.036-.012a6.421 6.421 0 0 0-1.354-.159 6.341 6.341 0 1 0 0 12.682 6.229 6.229 0 0 0 2.976-.767 6.575 6.575 0 0 0 .892-.582l4.541 4.543a.832.832 0 0 0 .263.175.823.823 0 0 0 .3.057.795.795 0 0 0 .563-1.358zm-6.918-4.44a4.737 4.737 0 0 1-2.356.757c-.086 0-.173.025-.26.025a4.728 4.728 0 0 1-3.362-1.39 4.655 4.655 0 0 1-.608-.744 4.738 4.738 0 0 1-.7-1.708 4.851 4.851 0 0 1 0-1.817 4.753 4.753 0 1 1 8.025 4.27 4.669 4.669 0 0 1-.739.607z" class="cls-3" transform="translate(-1379.538 -394.989)"/>
    <path id="패스_30353" d="M1391.717 409.54a.818.818 0 0 0 0 1.636h1.978a7.753 7.753 0 0 1 .267-1.624c-.021 0-.039-.011-.061-.011z" class="cls-3" transform="translate(-1381.148 -393.318)"/>
</svg>
