<svg xmlns="http://www.w3.org/2000/svg" width="20" height="20" viewBox="0 0 20 20">
    <g>
        <path d="M59.234 257.957v3.992a.908.908 0 0 1-.028.221.857.857 0 0 1-.835.687H42.057a.854.854 0 0 1-.846-.761.672.672 0 0 1-.011-.153v-3.992a.852.852 0 0 1 1.7 0v3.2h14.636v-3.2a.851.851 0 0 1 1.454-.6.9.9 0 0 1 .244.606z" transform="translate(1 1) translate(-41.2 -244.858)"/>
        <path d="M118.607 50.6l-4.185 4.185c-.006.011-.017.017-.023.023a.986.986 0 0 1-.551.278c-.017 0-.034.006-.051.006a.617.617 0 0 1-.1.006l-.1-.006c-.017 0-.034-.006-.051-.006a.969.969 0 0 1-.546-.276l-.023-.023-4.187-4.187a1 1 0 0 1 1.408-1.408l2.515 2.515v-9.213a1 1 0 0 1 .994-.994 1.016 1.016 0 0 1 .7.29.982.982 0 0 1 .29.7v9.216l2.515-2.515a1 1 0 0 1 1.408 0 1.017 1.017 0 0 1-.013 1.409z" transform="translate(1 1) translate(-104.679 -41.5)"/>
    </g>
</svg>
