<svg xmlns="http://www.w3.org/2000/svg" id="ico_home_n" width="24" height="24" viewBox="0 0 24 24">
    <defs>
        <style>
            .cls-2{fill:#626572}
        </style>
    </defs>
    <g id="그룹_41983" transform="translate(-550.254 -1205.651)">
        <path id="패스_31435" d="M572.27 1215.313l-9.5-7.5a.747.747 0 0 0-.929 0l-9.5 7.5a.751.751 0 0 0 .376 1.335.736.736 0 0 0 .553-.156l9.035-7.134 9.035 7.134a.749.749 0 0 0 .464.161c.029 0 .059 0 .09-.005a.744.744 0 0 0 .5-.281.753.753 0 0 0-.124-1.054z" class="cls-2"/>
        <path id="패스_31436" d="M569.8 1216.152a.752.752 0 0 0-.75.75v8.7a.551.551 0 0 1-.551.549h-3.449v-4.75a.752.752 0 0 0-.75-.75h-4a.752.752 0 0 0-.75.75v4.75h-3.45a.551.551 0 0 1-.55-.549v-8.7a.75.75 0 0 0-1.5 0v8.7a2.053 2.053 0 0 0 2.05 2.049h12.4a2.053 2.053 0 0 0 2.05-2.049v-8.7a.752.752 0 0 0-.75-.75zm-6.25 6v4h-2.5v-4z" class="cls-2"/>
    </g>
</svg>
