<svg xmlns="http://www.w3.org/2000/svg" width="20.001" height="20.001" viewBox="0 0 20.001 20.001">
    <path fill="#9fa1a5" d="M1.121-28.049H7.3v-11.136a1.113 1.113 0 0 0-1.257-1.226H2.378a1.113 1.113 0 0 0-1.257 1.226zm-.371 0h6.964c.618 0 .618 0 .618-.5s0-.5-.618-.5H.75c-.659 0-.618-.021-.618.5 0 .5 0 .5.618.5zm3.029-2.06v-2.143H2.491l2.153-3.008v2.143h1.288zM2.151-36.29v-3.09h4.121v3.09zm6.181 4.533a1.816 1.816 0 1 0 3.605 0v-3.709h-1.03v3.709c0 1.36-1.545 1.349-1.545 0v-3.493A1.831 1.831 0 0 0 7.3-37.32v1.03c.834 0 1.03.268 1.03 1.071zm2.575-3.709h1.03V-36.5c0-.185 1.03-.6 1.03-1.288v-1.232h-.515v-1.18a.373.373 0 0 0-.391-.391.382.382 0 0 0-.381.391v1.185h-.515V-40.2a.39.39 0 0 0-.391-.391.365.365 0 0 0-.381.391v1.185h-.516v1.236c0 .69 1.03 1.1 1.03 1.288zm0 0" transform="translate(3.568 44.596)"/>
</svg>
