<svg xmlns="http://www.w3.org/2000/svg" id="ico_key_camera_n" width="36" height="36" viewBox="0 0 36 36">
    <defs>
        <style>
            .cls-4{fill:#eaedf0}
        </style>
    </defs>
    <g id="ico_camera" opacity="0.9">
        <g id="그룹_42046" transform="translate(87.677 -921.638)">
            <path id="패스_31487" d="M-59.843 929.9H-62.9l-.993-2.913a.961.961 0 0 0-.908-.647h-9.919a.963.963 0 0 0-.909.648l-1.214 3.56a.962.962 0 0 0 .6 1.219.963.963 0 0 0 1.218-.6l.992-2.912h8.548l.992 2.912a.956.956 0 0 0 .906.648h3.744a2.59 2.59 0 0 1 2.583 2.583v14.167a2.59 2.59 0 0 1-2.583 2.583h-19.834a2.59 2.59 0 0 1-2.583-2.583V934.4a2.591 2.591 0 0 1 2.583-2.583h.819a.96.96 0 0 0 .959-.959.96.96 0 0 0-.959-.958h-.819a4.513 4.513 0 0 0-4.5 4.5v14.167a4.513 4.513 0 0 0 4.5 4.5h19.834a4.512 4.512 0 0 0 4.5-4.5V934.4a4.511 4.511 0 0 0-4.5-4.5z" class="cls-4"/>
            <path id="패스_31488" d="M-63.135 941.481a6.633 6.633 0 0 0-6.625-6.625 6.633 6.633 0 0 0-6.625 6.625 6.633 6.633 0 0 0 6.626 6.625 6.643 6.643 0 0 0 6.624-6.625zm-1.917 0a4.713 4.713 0 0 1-4.707 4.708 4.722 4.722 0 0 1-4.709-4.709 4.714 4.714 0 0 1 4.708-4.707 4.713 4.713 0 0 1 4.708 4.708z" class="cls-4"/>
        </g>
    </g>
</svg>
