<svg xmlns="http://www.w3.org/2000/svg" id="ico_smart_key_go" width="30" height="30" viewBox="0 0 30 30">
    <defs>
        <style>
            .cls-2{fill:#fff}
        </style>
    </defs>
    <g id="그룹_42033" transform="translate(368.973 -933.158)">
        <path id="패스_31469" d="M-342.431 954.789a.844.844 0 0 0-.25-.577l-8.791-8.854a7.211 7.211 0 0 0-.758-5.366 7.213 7.213 0 0 0-4.4-3.383 7.215 7.215 0 0 0-5.507.722 7.21 7.21 0 0 0-3.382 4.4 7.264 7.264 0 0 0 5.126 8.89 7.238 7.238 0 0 0 4.116-.1.857.857 0 0 0 .551-1.077.856.856 0 0 0-1.077-.551 5.5 5.5 0 0 1-4.226-.339 5.5 5.5 0 0 1-2.748-3.228 5.545 5.545 0 0 1 3.566-6.974 5.549 5.549 0 0 1 6.975 3.566 5.509 5.509 0 0 1-.005 3.423.845.845 0 0 0 .206.867l8.907 8.969.089 2.9-2.762-.282-7.05-7.047a.855.855 0 0 0-1.21 0 .856.856 0 0 0 0 1.209l7.266 7.263a.858.858 0 0 0 .519.246l4.042.411h.079a.847.847 0 0 0 .6-.25.863.863 0 0 0 .251-.63z" class="cls-2"/>
        <path id="패스_31470" d="M-361.617 941.793a1.243 1.243 0 0 0 1.242 1.243 1.243 1.243 0 0 0 1.242-1.243 1.243 1.243 0 0 0-1.242-1.242 1.245 1.245 0 0 0-1.242 1.242zm1.161 0a.081.081 0 0 1 .081-.081.081.081 0 0 1 .081.081c0 .09-.162.09-.162 0z" class="cls-2"/>
    </g>
</svg>
