<svg xmlns="http://www.w3.org/2000/svg" width="16" height="16" viewBox="0 0 16 16">
    <g>
        <path fill="rgba(26,26,26,0)" d="M0 0H16V16H0z" transform="translate(45.227 -1255.986) translate(-45.227 1255.986)"/>
    </g>
    <path fill="#474747" d="M-31.037 1265.133l-5.664-5.664a.834.834 0 0 0-.588-.25.835.835 0 0 0-.587.244l-5.667 5.667a.823.823 0 0 0-.244.589.827.827 0 0 0 .244.589.835.835 0 0 0 1.178 0l5.077-5.075 5.078 5.078a.83.83 0 0 0 .589.243.835.835 0 0 0 .589-.243.833.833 0 0 0-.005-1.178z" transform="translate(45.227 -1255.986)"/>
</svg>
