<svg xmlns="http://www.w3.org/2000/svg" id="ico_key_sound_n" width="36" height="36" viewBox="0 0 36 36">
    <defs>
        <style>
            .cls-2{fill:#5891fd}
        </style>
    </defs>
    <g id="그룹_42041" transform="translate(307.073 -917.678)">
        <path id="패스_31476" d="M-288.273 921.678h-2.261a3.529 3.529 0 0 0-2.493 1.038l-7.559 7.573a1.042 1.042 0 0 1-.731.3h-.822a3.543 3.543 0 0 0-3.534 3.535v3.229a3.545 3.545 0 0 0 3.534 3.534 1.251 1.251 0 0 0 1.25-1.25 1.251 1.251 0 0 0-1.249-1.25 1.036 1.036 0 0 1-1.035-1.035v-3.228a1.038 1.038 0 0 1 1.034-1.035h.824a3.548 3.548 0 0 0 2.5-1.037l7.559-7.574a1.038 1.038 0 0 1 .73-.3h1V947.3h-1a1.02 1.02 0 0 1-.73-.3l-6.585-6.6a1.251 1.251 0 0 0-1.767.032 1.243 1.243 0 0 0-.35.891 1.231 1.231 0 0 0 .376.87l6.56 6.573a3.53 3.53 0 0 0 2.49 1.037h2.265a1.251 1.251 0 0 0 1.248-1.25v-25.625a1.251 1.251 0 0 0-1.254-1.25z" class="cls-2"/>
        <path id="패스_31477" d="M-277.548 923.354a1.236 1.236 0 0 0-.9-.335 1.245 1.245 0 0 0-.871.4 1.255 1.255 0 0 0 .071 1.776 14.836 14.836 0 0 1 4.364 10.564 14.84 14.84 0 0 1-4.39 10.561 1.248 1.248 0 0 0 .006 1.763 1.232 1.232 0 0 0 .872.358 1.3 1.3 0 0 0 .919-.385 17.466 17.466 0 0 0-.071-24.702z" class="cls-2"/>
        <path id="패스_31478" d="M-278.866 935.728a10.886 10.886 0 0 0-3.221-7.75 1.247 1.247 0 0 0-1.737 0 1.258 1.258 0 0 0-.005 1.792 8.466 8.466 0 0 1-.02 11.959 1.252 1.252 0 0 0 0 1.766 1.194 1.194 0 0 0 .854.358.692.692 0 0 0 .218-.039 1.249 1.249 0 0 0 .71-.337 10.883 10.883 0 0 0 3.201-7.749z" class="cls-2"/>
    </g>
</svg>
