<svg xmlns="http://www.w3.org/2000/svg" width="16" height="16" viewBox="0 0 16 16">
    <g opacity="0.996">
        <g>
            <path fill="rgba(123,125,129,0)" d="M0 0H16V16H0z" transform="translate(40.239 -1210.539) translate(-40.239 1210.539)"/>
        </g>
        <path fill="#aeafb2" d="M-28.195 1217.892l-5.47-5.7a.819.819 0 0 0-.579-.221.8.8 0 0 0-.568.254.847.847 0 0 0 0 1.16l4.882 5.085-4.886 5.088a.856.856 0 0 0 .034 1.186.8.8 0 0 0 .557.223h.023a.8.8 0 0 0 .564-.25l5.443-5.667a.842.842 0 0 0 .231-.58.83.83 0 0 0-.231-.578z" transform="translate(40.239 -1210.539)"/>
    </g>
</svg>
