<svg xmlns="http://www.w3.org/2000/svg" id="ico_list_distance" width="20" height="20" viewBox="0 0 20 20">
    <defs>
        <style>
            .cls-2{fill:#9fa1a5}
        </style>
    </defs>
    <g id="그룹_39570" transform="translate(-1 -1)">
        <path id="ico" d="M122.63 33.431c-.041-.806.078-1.251-1.113-3.042-.262-.393-.67-1.022-.923-1.421a15.831 15.831 0 0 1-2-4.4.141.141 0 0 0-.272 0 15.816 15.816 0 0 1-2 4.395c-.253.4-.695 1.1-.963 1.486a5.225 5.225 0 0 0-1.075 2.98 3.636 3.636 0 0 0 .365 1.809 3.768 3.768 0 0 0 1.251 1.432 4.545 4.545 0 0 0 5.1 0 3.77 3.77 0 0 0 1.261-1.428 3.637 3.637 0 0 0 .369-1.811zm-5.509-.924c-.148.547-.6.911-1 .812a.9.9 0 0 1-.472-1.17c.148-.547.6-.911 1-.812a.9.9 0 0 1 .472 1.17z" class="cls-2" transform="translate(-107.453 -19.927)"/>
        <path id="패스_29059" d="M38.916 63.394h-.069c-.2 1.443-.612 2.584-2.77 2.795v.078c2.158.211 2.572 1.352 2.77 2.795h.069c.2-1.443.612-2.584 2.77-2.795v-.078c-2.158-.211-2.572-1.352-2.77-2.795z" class="cls-2" transform="translate(-22.341 -59.664)"/>
    </g>
</svg>
