<svg xmlns="http://www.w3.org/2000/svg" id="ico_menu_n" width="24" height="24" viewBox="0 0 24 24">
    <defs>
        <style>
            .cls-2{fill:#1a1a1a}
        </style>
    </defs>
    <path id="사각형_16706" fill="rgba(26,26,26,0)" d="M0 0H24V24H0z"/>
    <g id="그룹_41979" transform="translate(-30.029 -1257.03)">
        <path id="패스_31424" d="M32.969 1269.877h11.69a.827.827 0 0 0 .525-1.436.78.78 0 0 0-.583-.217H32.943a.819.819 0 0 0-.574.265.827.827 0 0 0 .6 1.389z" class="cls-2"/>
        <path id="패스_31425" d="M32.967 1262.5H51.11a.826.826 0 0 0 .526-1.434.788.788 0 0 0-.583-.218h-18.11a.826.826 0 0 0-.526 1.434.814.814 0 0 0 .55.218z" class="cls-2"/>
        <path id="패스_31426" d="M51.053 1275.6H32.942a.827.827 0 0 0 .027 1.654h18.084v-.241l.056.241a.827.827 0 0 0-.058-1.653z" class="cls-2"/>
    </g>
</svg>
