<svg xmlns="http://www.w3.org/2000/svg" width="30" height="30" viewBox="0 0 30 30">
    <path fill="rgba(255,255,255,0)" d="M0 0H30V30H0z"/>
    <path fill="#1a1a1a" d="M-18.084 1224.388a.5.5 0 0 0 .02-.1c0-.012.007-.022.007-.034a.5.5 0 0 0-.011-.056.493.493 0 0 0-.021-.1.44.44 0 0 0-.044-.093.477.477 0 0 0-.024-.051l-6-8a.5.5 0 0 0-.7-.1.5.5 0 0 0-.1.7l5.4 7.2h-22.979a.5.5 0 0 0-.5.5.5.5 0 0 0 .5.5h23.98a.5.5 0 0 0 .268-.089c.009-.007.021 0 .031-.011s.014-.018.023-.026a.541.541 0 0 0 .068-.076.5.5 0 0 0 .052-.077.58.58 0 0 0 .03-.087z" transform="translate(44.966 -1206.753)"/>
</svg>
