<svg xmlns="http://www.w3.org/2000/svg" width="34" height="34" viewBox="0 0 34 34">
    <defs>
        <style>
            .cls-3{fill:#ffd41d}
        </style>
    </defs>
    <g id="ico_btn_call" transform="translate(-810.394 -1018.344)">
        <g id="그룹_44547" transform="translate(2807.479 1585.08)">
            <path id="패스_34218" fill="#ffd41d" d="M-1971-542.933v3.029a2.019 2.019 0 0 1-2.011 2.027 1.5 1.5 0 0 1-.19-.008 19.969 19.969 0 0 1-8.714-3.1 19.682 19.682 0 0 1-6.059-6.059 19.971 19.971 0 0 1-3.1-8.755 2.019 2.019 0 0 1 1.829-2.193c.061-.005.12-.008.181-.008h3.029a2.02 2.02 0 0 1 2.02 1.737 12.911 12.911 0 0 0 .707 2.837 2.02 2.02 0 0 1-.454 2.13l-1.282 1.282a16.144 16.144 0 0 0 6.059 6.059l1.282-1.282a2.018 2.018 0 0 1 2.131-.454 12.967 12.967 0 0 0 2.837.707 2.02 2.02 0 0 1 1.735 2.051z" opacity="0.24"/>
            <g id="그룹_44546">
                <path id="패스_38898" d="M-1973.111-536.8a2.444 2.444 0 0 1-.311-.016 20.938 20.938 0 0 1-9.086-3.238 20.676 20.676 0 0 1-6.329-6.331 20.978 20.978 0 0 1-3.236-9.142 2.909 2.909 0 0 1 .664-2.147 2.9 2.9 0 0 1 1.979-1.038c.1-.007.178-.011.263-.011h3.028a2.921 2.921 0 0 1 2.911 2.511 12.079 12.079 0 0 0 .659 2.648 2.928 2.928 0 0 1-.656 3.077l-.79.79a15.25 15.25 0 0 0 4.786 4.786l.786-.786a2.93 2.93 0 0 1 3.085-.659 12.08 12.08 0 0 0 2.637.657 2.919 2.919 0 0 1 2.517 2.953v3.019a2.921 2.921 0 0 1-2.907 2.927zm-13.007-20.123h-.011l-3.148.005a1.1 1.1 0 0 0-.749.4 1.106 1.106 0 0 0-.255.818 19.156 19.156 0 0 0 2.959 8.347 18.907 18.907 0 0 0 5.786 5.788 19.189 19.189 0 0 0 8.328 2.965 1.139 1.139 0 0 0 1.2-1.121v-3.055a1.12 1.12 0 0 0-.962-1.137 13.843 13.843 0 0 1-3.025-.755 1.124 1.124 0 0 0-1.184.251l-1.279 1.278a.9.9 0 0 1-1.081.146 17.061 17.061 0 0 1-6.4-6.4.9.9 0 0 1 .146-1.082l1.282-1.281a1.123 1.123 0 0 0 .248-1.178 13.818 13.818 0 0 1-.757-3.036 1.121 1.121 0 0 0-1.098-.958z" class="cls-3"/>
            </g>
            <path id="패스_38899" d="M-1974.134-549.908a.9.9 0 0 1-.882-.728 4.133 4.133 0 0 0-3.278-3.278.9.9 0 0 1-.711-1.056.9.9 0 0 1 1.056-.711 5.923 5.923 0 0 1 4.7 4.7.9.9 0 0 1-.71 1.055.952.952 0 0 1-.175.018zm4.039-.01a.9.9 0 0 1-.893-.8 8.145 8.145 0 0 0-7.233-7.224.9.9 0 0 1-.8-.994.9.9 0 0 1 .994-.8 9.937 9.937 0 0 1 8.823 8.812.9.9 0 0 1-.794.995.877.877 0 0 1-.097.011z" class="cls-3"/>
        </g>
    </g>
</svg>
