<svg xmlns="http://www.w3.org/2000/svg" width="19" height="19" viewBox="0 0 19 19">
    <defs>
        <style>
            .cls-2{fill:#fcfcfc}
        </style>
    </defs>
    <g id="ico_noti_cover_n" transform="translate(.5 .5)">
        <g id="그룹_41978" transform="translate(76.791 -1208.716)">
            <path id="패스_31411" d="M-60.348 1214.429a.6.6 0 0 0-.424-.186h-.368a.6.6 0 0 0-.427.179.6.6 0 0 0-.175.43.6.6 0 0 0 .36.547v7.327a.414.414 0 0 1-.392.433.4.4 0 0 1-.432-.359v-11.179a.606.606 0 0 0-.6-.6h-11.879a.606.606 0 0 0-.605.6v11.055a1.674 1.674 0 0 0 1.622 1.714h11.792c.042 0 .081 0 .065-.007h.116a1.621 1.621 0 0 0 1.516-1.686v-7.837a.6.6 0 0 0-.169-.431zm-3.012 8.75h-10.287a.45.45 0 0 1-.311-.146.466.466 0 0 1-.12-.34v-10.468h10.665v10.645a1.586 1.586 0 0 0 .053.309z" class="cls-2"/>
            <path id="패스_31412" d="M-65.284 1215.832h-7.5a.59.59 0 0 0-.589.589.59.59 0 0 0 .589.589h7.5a.589.589 0 0 0 .589-.589.589.589 0 0 0-.589-.589z" class="cls-2"/>
            <path id="패스_31413" d="M-65.284 1213.75h-7.5a.59.59 0 0 0-.589.589.59.59 0 0 0 .589.589h7.5a.589.589 0 0 0 .589-.589.589.589 0 0 0-.589-.589z" class="cls-2"/>
            <path id="패스_31414" d="M-65.284 1217.918h-7.5a.59.59 0 0 0-.589.589.591.591 0 0 0 .589.59h7.5a.59.59 0 0 0 .589-.59.589.589 0 0 0-.589-.589z" class="cls-2"/>
            <path id="패스_31415" d="M-68.036 1220h-4.749a.591.591 0 0 0-.589.589.591.591 0 0 0 .589.59h4.749a.59.59 0 0 0 .589-.59.59.59 0 0 0-.589-.589z" class="cls-2"/>
        </g>
    </g>
</svg>
