<svg xmlns="http://www.w3.org/2000/svg" width="16" height="16" viewBox="0 0 16 16">
    <g>
        <path fill="#626572" d="M-2039.469-553.578a.444.444 0 0 0 .02-.1.327.327 0 0 0 .007-.033c0-.02-.009-.037-.011-.057a.485.485 0 0 0-.02-.1.5.5 0 0 0-.045-.093.3.3 0 0 0-.024-.051l-3-4a.5.5 0 0 0-.7-.1.5.5 0 0 0-.1.7l2.4 3.2h-7a.5.5 0 0 0-.5.5.5.5 0 0 0 .5.5h8a.482.482 0 0 0 .269-.09c.01-.006.021 0 .03-.009s.014-.018.022-.026a.435.435 0 0 0 .07-.078.462.462 0 0 0 .051-.075.494.494 0 0 0 .031-.088z" opacity="0.5" transform="translate(-173 -353) translate(2225.442 916.213)"/>
    </g>
</svg>
