<svg xmlns="http://www.w3.org/2000/svg" id="ico_hide_n" width="20" height="20" viewBox="0 0 20 20">
    <defs>
        <style>
            .cls-2{fill:#757575}
        </style>
    </defs>
    <g id="그룹_41987" transform="translate(-368.547 -968.013)">
        <path id="패스_31453" d="M386.9 977.958a.262.262 0 0 0-.022-.063.618.618 0 0 0-.076-.179 13.28 13.28 0 0 0-2.742-3.084l-.106-.087-.949.968.13.1a11.615 11.615 0 0 1 2.292 2.466c-1.921 2.722-4.243 4.1-6.9 4.1a7.492 7.492 0 0 1-1.764-.211l-.083-.02-.823.839-.11-.035v.577l.2-.2a8.821 8.821 0 0 0 2.584.386c3.261 0 6.046-1.705 8.279-5.07a.484.484 0 0 0 .065-.152.545.545 0 0 0 .033-.1.311.311 0 0 0 0-.1.624.624 0 0 0-.008-.135zm-.148.225z" class="cls-2"/>
        <path id="패스_31454" d="M386.073 971.073a.666.666 0 0 0-1.141-.461l-2.789 2.839a8.541 8.541 0 0 0-3.606-.8h-.01c-3.356 0-5.986 1.61-8.28 5.075a.436.436 0 0 0-.058.139.507.507 0 0 0-.039.109.305.305 0 0 0 0 .1.607.607 0 0 0 0 .157.375.375 0 0 0 .027.07.7.7 0 0 0 .068.159 12.316 12.316 0 0 0 3.438 3.61l-2.516 2.56a.666.666 0 1 0 .951.932l13.758-14.006a.669.669 0 0 0 .197-.483zm-4.926 3.4l-.4.408a3.849 3.849 0 0 0-2.213-.706 3.922 3.922 0 0 0-3.91 3.911 3.866 3.866 0 0 0 .745 2.269l-.723.73a10.551 10.551 0 0 1-3.022-3c1.963-2.8 4.16-4.1 6.908-4.1h.017a7.1 7.1 0 0 1 2.598.487z" class="cls-2"/>
        <path id="패스_31455" d="M376.969 981.659l.214.081a3.847 3.847 0 0 0 1.344.253 3.887 3.887 0 0 0 3.637-5.323l-.085-.213z" class="cls-2"/>
    </g>
</svg>
