<svg xmlns="http://www.w3.org/2000/svg" width="12" height="12" viewBox="0 0 12 12">
    <g opacity="0.996">
        <g>
            <path fill="rgba(123,125,129,0)" d="M0 0H12V12H0z"/>
        </g>
        <path fill="#e5e7ef" d="M-29.906 1216.412l-4.1-4.273a.614.614 0 0 0-.434-.166.6.6 0 0 0-.426.191.635.635 0 0 0 0 .87l3.661 3.814-3.664 3.816a.642.642 0 0 0 .025.89.6.6 0 0 0 .418.167h.017a.6.6 0 0 0 .423-.187l4.082-4.25a.632.632 0 0 0 .173-.435.622.622 0 0 0-.175-.437z" transform="translate(38.939 -1210.898)"/>
    </g>
</svg>
