<svg xmlns="http://www.w3.org/2000/svg" id="ico_24_time_extend" width="24.004" height="24" viewBox="0 0 24.004 24">
    <defs>
        <style>
            .cls-2{fill:#1a1a1a}
        </style>
    </defs>
    <g id="그룹_42055" transform="translate(423.84 -671.551)">
        <path id="패스_31507" d="M-407.1 689.706a7.768 7.768 0 0 1-5.524 2.285h-.008a7.829 7.829 0 0 1-7.812-7.827 7.784 7.784 0 0 1 4.909-7.251.7.7 0 0 0 .382-.374.694.694 0 0 0 0-.535.7.7 0 0 0-.909-.387 9.238 9.238 0 0 0-5.122 12 9.184 9.184 0 0 0 8.561 5.788h.252v-.005a9.232 9.232 0 0 0 8.9-8.071h-1.433a7.758 7.758 0 0 1-2.196 4.377z" class="cls-2"/>
        <path id="패스_31508" d="M-412.8 680.125a.721.721 0 0 0-.713.725v3.533a.721.721 0 0 0 .278.57l2.891 2.248a.731.731 0 0 0 .433.151h.01a.725.725 0 0 0 .57-.279.715.715 0 0 0 .144-.533.711.711 0 0 0-.273-.478l-2.612-2.032v-3.193a.718.718 0 0 0-.728-.712z" class="cls-2"/>
        <path id="패스_31509" d="M-404.084 674.2a.65.65 0 0 0-.65-.65.65.65 0 0 0-.65.65v.784a5.634 5.634 0 0 1 1.3.891z" class="cls-2"/>
        <path id="패스_31510" d="M-405.384 682.7a.641.641 0 0 0 .535.627 7.763 7.763 0 0 0-.535-2.108z" class="cls-2"/>
        <path id="패스_31511" d="M-404.084 680.65v-1.55h-.829a9.2 9.2 0 0 1 .829 1.55z" class="cls-2"/>
        <path id="패스_31512" d="M-404.084 677.8v-1.922a5.634 5.634 0 0 0-1.3-.891v2.813z" class="cls-2"/>
        <path id="패스_31513" d="M-405.384 679.1v2.117a7.763 7.763 0 0 1 .535 2.108.632.632 0 0 0 .115.023.65.65 0 0 0 .65-.65v-2.048a9.2 9.2 0 0 0-.829-1.552z" class="cls-2"/>
        <path id="패스_31514" d="M-400.486 677.8h-2.173a8.632 8.632 0 0 1 .505 1.3h1.668a.65.65 0 0 0 .65-.65.65.65 0 0 0-.65-.65z" class="cls-2"/>
        <path id="패스_31515" d="M-408.1 677.8h-.877a.65.65 0 0 0-.65.65.65.65 0 0 0 .65.65h2.3a7.876 7.876 0 0 0-1.423-1.3z" class="cls-2"/>
        <path id="패스_31516" d="M-405.384 677.8h-.574q.3.315.574.656z" class="cls-2"/>
        <path id="패스_31517" d="M-404.084 677.8v1.3h1.93a8.632 8.632 0 0 0-.505-1.3z" class="cls-2"/>
        <path id="패스_31518" d="M-405.384 678.454q-.271-.342-.574-.656h-2.142a7.876 7.876 0 0 1 1.423 1.3h1.3z" class="cls-2"/>
        <path id="패스_31519" d="M-405.384 678.454c.165.208.324.421.471.644h.829v-1.3h-1.3z" class="cls-2"/>
        <path id="패스_31520" d="M-404.913 679.1c-.147-.223-.306-.436-.471-.644v.644z" class="cls-2"/>
    </g>
</svg>
