<svg xmlns="http://www.w3.org/2000/svg" width="24" height="24" viewBox="0 0 24 24">
    <g>
        <path fill="rgba(26,26,26,0)" d="M0 0H24V24H0z" transform="translate(-26.371 -1234.084) translate(26.371 1234.084)"/>
    </g>
    <path fill="#1a1a1a" d="M45.264 1249.049a.28.28 0 0 1-.28-.279v-5.836a6.621 6.621 0 0 0-5.833-6.564v-1.391a.781.781 0 1 0-1.561 0v1.391a6.62 6.62 0 0 0-5.833 6.564v5.833a.281.281 0 0 1-.28.279 2.371 2.371 0 1 0 0 4.742h8.737a1.863 1.863 0 0 1-3.37.83.778.778 0 0 0-.522-.29.765.765 0 0 0-.575.165.78.78 0 0 0-.13 1.091 3.466 3.466 0 0 0 2.754 1.385 3.432 3.432 0 0 0 3.4-3.181h3.49a2.371 2.371 0 0 0 0-4.742zm-6.893-11.169a5.067 5.067 0 0 1 5.054 5.057v5.833a1.843 1.843 0 0 0 1.833 1.84.811.811 0 0 1 .008 1.621H31.487a.811.811 0 0 1-.008-1.621 1.846 1.846 0 0 0 1.841-1.84v-5.839a5.068 5.068 0 0 1 5.05-5.051z" transform="translate(-26.371 -1234.084)"/>
</svg>
