<svg xmlns="http://www.w3.org/2000/svg" width="24" height="24" viewBox="0 0 24 24">
    <path fill="none" d="M0 0H24V24H0z"/>
    <path fill="#5d5d5d" d="M-23.274 1248.03l-4.821-5.046a7.079 7.079 0 0 0 2.088-5.024 7.11 7.11 0 0 0-7.1-7.1 7.11 7.11 0 0 0-7.1 7.1 7.111 7.111 0 0 0 7.1 7.1 7.057 7.057 0 0 0 3.838-1.136l4.912 5.14a.751.751 0 0 0 .543.232.751.751 0 0 0 .518-.208.751.751 0 0 0 .022-1.058zm-15.437-10.07a5.608 5.608 0 0 1 5.6-5.6 5.609 5.609 0 0 1 5.6 5.6 5.61 5.61 0 0 1-5.6 5.6 5.609 5.609 0 0 1-5.6-5.6z" transform="translate(43.961 -1227.434)"/>
</svg>
