<svg xmlns="http://www.w3.org/2000/svg" id="ico_time_n" width="18" height="18" viewBox="0 0 18 18">
    <defs>
        <style>
            .cls-3{fill:#1a1a1a}
        </style>
    </defs>
    <path id="icon_Guide" fill="none" d="M0 0H18V18H0z"/>
    <g id="그룹_41980" transform="translate(-69.387 -1259.531)">
        <path id="패스_31428" d="M78.387 1260.731a.675.675 0 0 0 0 1.35 6.443 6.443 0 0 1-.007 12.886h-.008a6.443 6.443 0 0 1-2.39-12.424.667.667 0 0 0 .371-.361.677.677 0 0 0-.873-.9 7.8 7.8 0 0 0 2.891 15.045h.017a7.8 7.8 0 0 0 0-15.6z" class="cls-3"/>
        <path id="패스_31429" d="M81.349 1271.689a.675.675 0 0 0 .413.142l.3-.005v-.069a.687.687 0 0 0 .232-.191.676.676 0 0 0-.118-.947l-3.114-2.423v-3.8a.675.675 0 0 0-1.35 0v4.122a.678.678 0 0 0 .261.54z" class="cls-3"/>
    </g>
</svg>
