<svg xmlns="http://www.w3.org/2000/svg" id="ico_24_time_return" width="24" height="24" viewBox="0 0 24 24">
    <defs>
        <style>
            .cls-2{fill:#1a1a1a}
        </style>
    </defs>
    <path id="사각형_18220" fill="#1a1a1a" d="M0 0H24V24H0z" opacity="0.003"/>
    <g id="그룹_42056" transform="translate(392.876 -673.711)">
        <path id="패스_31521" d="M-379.117 678.383h-9.961l2.17-2.008a.669.669 0 0 0 .215-.468.666.666 0 0 0-.178-.48.67.67 0 0 0-.948-.037l-3.344 3.094a.681.681 0 0 0-.213.483.66.66 0 0 0 .2.49l3.342 3.249a.674.674 0 0 0 .951-.011.673.673 0 0 0 .191-.478.664.664 0 0 0-.2-.473l-2.078-2.019h9.854a7.455 7.455 0 0 1 7.448 7.447 7.456 7.456 0 0 1-7.448 7.448 7.456 7.456 0 0 1-7.448-7.447.672.672 0 0 0-.666-.676.667.667 0 0 0-.472.193.673.673 0 0 0-.2.482 8.8 8.8 0 0 0 8.789 8.789 8.8 8.8 0 0 0 8.789-8.789 8.8 8.8 0 0 0-8.793-8.789z" class="cls-2"/>
        <path id="패스_31522" d="M-379.8 682.538a.663.663 0 0 0-.662.664v3.809a.661.661 0 0 0 .256.523l3.115 2.423a.658.658 0 0 0 .411.145.665.665 0 0 0 .66-.666.66.66 0 0 0-.255-.52l-2.861-2.226v-3.484a.666.666 0 0 0-.664-.668zm0 .2z" class="cls-2"/>
    </g>
</svg>
