<svg xmlns="http://www.w3.org/2000/svg" width="34" height="34" viewBox="0 0 34 34">
    <g>
        <path fill="#332c2b" d="M83.622 87.465c.239 0 .276-.2.276-.445v-.133c0-.246-.036-.445-.276-.445s-.276.2-.276.445v.133c0 .245.037.445.276.445zm-1.535-.945c-.019-.052-.053-.157-.153-.157a.171.171 0 0 0-.162.157c-.014.076-.079.63-.079.63h.472s-.059-.578-.078-.63zM80 81.009c-8.284.055-15 5.388-15 11.911 0 4.081 2.629 7.661 6.625 9.756-.18 1.857-2.752 4.951-2.845 5.025s-.614.55-.079.63a26.925 26.925 0 0 0 8.511-3.886 19.011 19.011 0 0 0 2.788.186c8.284-.055 15-5.388 15-11.911s-6.716-11.766-15-11.711zm2.874 5.826a.69.69 0 0 1 .787-.787c.435 0 .709.173.709.787v.236c0 .591-.274.787-.709.787s-.787-.139-.787-.787zm-1.339-.63c.048-.128.242-.157.394-.157s.356.043.394.157.394 1.654.394 1.654h-.472l-.079-.394h-.427l-.124.394h-.472s.345-1.526.392-1.659zm-3.543 0c.048-.128.242-.157.394-.157s.356.043.394.157.394 1.654.394 1.654H78.7l-.079-.394H78.2l-.124.394H77.6s.345-1.526.392-1.659zm-2.126-.157h.472v.787l.551-.787h.551l-.63.866.63.945h-.55l-.551-.787v.787h-.472zm-3.622 10.078a.879.879 0 0 1-.787.945c-.528 0-.787-.428-.787-.945v-5.118h-1.339a.8.8 0 0 1-.866-.787.71.71 0 0 1 .787-.709h4.409a.856.856 0 0 1 .787.787c0 .5-.579.709-.866.709h-1.338zm7.323.945c-.632.232-1.019-.523-1.1-.709s-.269-.787-.269-.787h-2.95a10.985 10.985 0 0 1-.405 1.1.86.86 0 0 1-1.1.315.936.936 0 0 1-.315-1.1c.1-.232 1.746-4.806 1.968-5.3a1.521 1.521 0 0 1 1.339-1.075c.734 0 1.057.592 1.26 1.075s1.89 5.033 1.969 5.3.236.949-.397 1.181zm.315-10v.787h-.472v-1.811h.472v.787l.551-.787h.551l-.63.866.63.945h-.551zm4.252 10h-2.441a1.074 1.074 0 0 1-.127-.009.735.735 0 0 1-.109.009c-.528 0-.787-.428-.787-.945v-5.669c0-.517.26-.945.787-.945a.879.879 0 0 1 .787.945V95.5h1.89c.517 0 .945.26.945.787a.879.879 0 0 1-.945.784zm6.665-.1a.822.822 0 0 1-1.2-.28l-1.991-2.636-.564.564v1.511a.879.879 0 0 1-.787.945c-.528 0-.787-.428-.787-.945v-5.673c0-.517.26-.945.787-.945a.879.879 0 0 1 .787.945v1.931l2.556-2.549a.822.822 0 0 1 1.225-.112.88.88 0 0 1-.111 1.225l-1.975 1.975 2.123 2.811a.88.88 0 0 1-.062 1.229zm-15.09-2.892h2.047l-1.024-2.992zm2.835-7.559c-.019-.052-.053-.157-.153-.157a.171.171 0 0 0-.162.157c-.014.076-.079.63-.079.63h.472s-.06-.578-.079-.63z" transform="translate(-63 -75.57)"/>
    </g>
</svg>
