<svg xmlns="http://www.w3.org/2000/svg" width="24" height="24" viewBox="0 0 24 24">
    <path d="M-328.34 271.386a.83.83 0 0 0-.763-.419h-4.465l1.318-7.078a.814.814 0 0 0-.157-.735.752.752 0 0 0-.536-.216.782.782 0 0 0-.627.383l-7.492 11.033a.875.875 0 0 0-.08.9.81.81 0 0 0 .763.418h4.28l-1.365 7.983a.815.815 0 0 0 .157.736.725.725 0 0 0 .515.216.978.978 0 0 0 .692-.389l7.706-11.941a.86.86 0 0 0 .054-.891zm-5.7-5.051l-.878 4.8a.908.908 0 0 0 .191.794.975.975 0 0 0 .733.334h4.043l-5.732 8.863.974-5.644a.987.987 0 0 0-.218-.766.976.976 0 0 0-.733-.335h-3.834z" transform="translate(347.53 -261.438)"/>
    <path fill="#1a1a1a" d="M18.285 12.747a.6.6 0 0 1-.172-.415V9.778a1.752 1.752 0 0 0-.513-1.246L15.245 6.18a1.764 1.764 0 0 0-2.5 0L6.18 12.747a1.763 1.763 0 0 0 0 2.5l2.352 2.352a1.777 1.777 0 0 0 1.247.516h2.554a.588.588 0 0 1 .415.172l5.193 5.191a1.986 1.986 0 0 0 2.7 0l2.84-2.84a2 2 0 0 0 0-2.695zm-11.273.831l6.569-6.567a.588.588 0 0 1 .833 0l.516.516-7.4 7.4-.516-.516a.588.588 0 0 1 0-.832zM22.646 19.8l-2.84 2.84a.842.842 0 0 1-1.033 0l-5.192-5.19a1.777 1.777 0 0 0-1.247-.516H9.779a.588.588 0 0 1-.415-.172l-1-1 7.4-7.4 1 1a.6.6 0 0 1 .172.415v2.554a1.752 1.752 0 0 0 .516 1.246l5.192 5.191a.842.842 0 0 1 .002 1.032zM5.348 6.18a.589.589 0 0 1 .833-.832l1.176 1.175a.589.589 0 0 1-.833.832zm3.945-.122v-1.47a.588.588 0 0 1 1.176 0v1.47a.588.588 0 0 1-1.176 0zM4 9.879a.588.588 0 0 1 .588-.588h1.47a.588.588 0 1 1 0 1.176h-1.47A.588.588 0 0 1 4 9.879zm12.765 6.051a.589.589 0 1 1-.833.832l-1.176-1.176a.589.589 0 0 1 .833-.832z" transform="translate(-2 -2)"/>
</svg>
