<svg xmlns="http://www.w3.org/2000/svg" width="18" height="18" viewBox="0 0 18 18">
    <path fill="#4a4d5a" fill-rule="evenodd" d="M7.252 5.439a.6.6 0 1 1 .6-.6.6.6 0 0 1-.6.6zm.6 4.231a.6.6 0 0 1-1.209 0V6.648a.6.6 0 1 1 1.209 0zM0 7.252A7.26 7.26 0 0 0 7.252 14.5a7.01 7.01 0 0 0 3.537-1.047l.87.87a.6.6 0 0 0 .855-.855l-1.209-1.209a.6.6 0 0 0-.757-.079 6.077 6.077 0 0 1-3.3 1.111 6.041 6.041 0 1 1 5.066-2.747.6.6 0 0 0 1.012.66A7.253 7.253 0 1 0 0 7.252z" transform="translate(1.8 1.8)"/>
</svg>
