<svg xmlns="http://www.w3.org/2000/svg" id="ico_alabum_thumbnail" width="30" height="30" viewBox="0 0 30 30">
    <defs>
        <style>
            .cls-3{fill:#4a4d5a}
        </style>
    </defs>
    <g id="ico_alabum_thumbnail-2" opacity="0.301" transform="translate(-1 -1)">
        <path id="패스_30304" d="M17.167 14h-10.5A4.667 4.667 0 0 0 2 18.667v15.166A4.667 4.667 0 0 0 6.667 38.5h15.166a4.667 4.667 0 0 0 4.667-4.667v-10.5a1.167 1.167 0 0 0-2.333 0v5.349l-3.841-3.841a1.167 1.167 0 0 0-1.651 0L16 27.516l-3.841-3.841a1.167 1.167 0 0 0-1.651 0l-6.175 6.174V18.667a2.333 2.333 0 0 1 2.333-2.333h10.5a1.167 1.167 0 0 0 0-2.333zm-5.834 12.151l3.844 3.841a1.167 1.167 0 0 0 1.648 0l2.675-2.674 4.667 4.667v1.849a2.333 2.333 0 0 1-2.333 2.333H6.667a2.333 2.333 0 0 1-2.333-2.333v-.682z" class="cls-3" transform="translate(0 -8.5)"/>
        <path id="패스_30305" d="M74.167 5.5h-2.334V3.167a1.167 1.167 0 1 0-2.333 0V5.5h-2.333a1.167 1.167 0 0 0 0 2.333H69.5v2.333a1.167 1.167 0 1 0 2.333 0V7.833h2.333a1.167 1.167 0 0 0 0-2.333z" class="cls-3" transform="translate(-45.333)"/>
        <ellipse id="타원_1075" cx="1.5" cy="2" class="cls-3" rx="1.5" ry="2" transform="translate(15 10)"/>
    </g>
</svg>
