<svg xmlns="http://www.w3.org/2000/svg" id="ico_delete_img" width="24" height="24" viewBox="0 0 24 24">
    <defs>
        <style>
            .cls-2{fill:#e5e7ef}
        </style>
    </defs>
    <g id="타원_961" fill="rgba(0,0,0,0.77)" stroke="rgba(255,255,255,0.4)" opacity="0.83">
        <circle cx="12" cy="12" r="12" stroke="none"/>
        <circle cx="12" cy="12" r="11.5" fill="none"/>
    </g>
    <g id="ico_remove" transform="translate(4.5 4.5)">
        <g id="그룹_42047" transform="translate(611.182 -681.124)">
            <path id="패스_31489" d="M-599.507 685.263a.65.65 0 0 0-.65.65v7.687a.122.122 0 0 1-.119.122h-6.924a.122.122 0 0 1-.12-.12v-7.691a.65.65 0 0 0-.65-.65.65.65 0 0 0-.65.65v7.694a1.424 1.424 0 0 0 1.419 1.416h6.925a1.424 1.424 0 0 0 1.417-1.419v-7.691a.65.65 0 0 0-.648-.648z" class="cls-2"/>
            <path id="패스_31490" d="M-598.943 683.412h-4.144v-.639a.65.65 0 0 0-.65-.649.65.65 0 0 0-.65.649v.639h-4.145a.65.65 0 0 0-.65.65.65.65 0 0 0 .65.649h9.589a.65.65 0 0 0 .65-.649.65.65 0 0 0-.65-.65z" class="cls-2"/>
            <path id="패스_31491" d="M-604.41 692.021v-4.526a.65.65 0 0 0-.65-.65.65.65 0 0 0-.65.65v4.526a.65.65 0 0 0 .65.65.65.65 0 0 0 .65-.65z" class="cls-2"/>
            <path id="패스_31492" d="M-601.78 692.021v-4.526a.65.65 0 0 0-.65-.65.65.65 0 0 0-.65.65v4.526a.65.65 0 0 0 .65.65.65.65 0 0 0 .65-.65z" class="cls-2"/>
        </g>
    </g>
</svg>
