<svg xmlns="http://www.w3.org/2000/svg" width="120" height="120" viewBox="0 0 120 120">
    <defs>
        <filter id="타원_1158" width="95" height="95" x="12" y="16" filterUnits="userSpaceOnUse">
            <feOffset dy="4"/>
            <feGaussianBlur result="blur" stdDeviation="2.5"/>
            <feFlood flood-opacity=".102"/>
            <feComposite in2="blur" operator="in"/>
            <feComposite in="SourceGraphic"/>
        </filter>
        <style>
            .cls-2{fill:#fff}
        </style>
    </defs>
    <g id="img_challenge_car_01" transform="translate(-10.5 -104.5)">
        <g id="_x35_0_CHECKINS" transform="translate(19.1 113.2)">
            <g id="_x35_0" transform="translate(10.9 10.8)">
                <g filter="url(#타원_1158)" transform="translate(-19.5 -19.5)">
                    <circle id="타원_1158-2" cx="40" cy="40" r="40" class="cls-2" transform="translate(19.5 19.5)"/>
                </g>
                <circle id="타원_1159" cx="35.143" cy="35.143" r="35.143" fill="#6eb0ff" transform="translate(4.857 4.857)"/>
                <g id="그룹_40474" transform="translate(42.514 50.771)"/>
                <g id="그룹_40475" transform="translate(31.743 54.6)">
                    <path id="패스_30699" fill="#e57b1c" d="M122 201.9c.2.257.457.543.714.829-.2-.258-.457-.543-.714-.829z" transform="translate(-122 -201.9)"/>
                </g>
                <g id="그룹_40476" opacity="0.15" transform="translate(23.086 30.8)">
                    <path id="패스_30700" d="M101.271 126.114a6.612 6.612 0 0 0-4.257 1.543v-3.914h9.086V119.6H92.271v11.171l3.4.829c.029-.029.057-.057.086-.057a5.31 5.31 0 0 1 3.686-1.371c1.971 0 2.971.971 2.971 2.314a2.228 2.228 0 0 1-.086.629c-.286.943-1.286 1.714-3 1.714a7.371 7.371 0 0 1-4.829-1.743c-.057-.057-.114-.086-.171-.143l-2.628 3.286A10.539 10.539 0 0 0 99.386 139c3.2 0 5.629-1.086 6.943-2.943a6.469 6.469 0 0 0 1.114-3.771 6.037 6.037 0 0 0-6.172-6.172z" transform="translate(-91.7 -119.314)"/>
                    <path id="패스_30701" d="M160.071 118.6a7.442 7.442 0 0 0-4.657 1.486c-2.371 1.8-3.514 5.029-3.514 8.343 0 5.029 2.6 9.857 8.171 9.857a7.324 7.324 0 0 0 6.057-2.886 11.464 11.464 0 0 0 2.114-6.971c.001-5.029-2.599-9.829-8.171-9.829zm-1.086 4.571a2.678 2.678 0 0 1 1.114-.2c2.286 0 3.2 2.114 3.2 5.486a9.237 9.237 0 0 1-.657 3.886 2.637 2.637 0 0 1-2.514 1.629c-2.286 0-3.2-2.143-3.2-5.514-.057-2.772.572-4.687 2.058-5.287z" transform="translate(-134.7 -118.6)"/>
                </g>
                <g id="그룹_40477" transform="translate(24.514 29.371)">
                    <path id="패스_30702" d="M106.271 121.114a6.612 6.612 0 0 0-4.257 1.543v-3.914h9.086V114.6H97.271v11.171l3.4.829a5.265 5.265 0 0 1 3.771-1.429c1.971 0 2.971.971 2.971 2.314a2.215 2.215 0 0 1-1.514 2.057 4.286 4.286 0 0 1-1.571.286 7.443 7.443 0 0 1-4.971-1.857l-.029-.029-.057.086-1.2 1.486-1.371 1.715a10.539 10.539 0 0 0 7.686 2.771 9.471 9.471 0 0 0 5.514-1.514 6.115 6.115 0 0 0 2.543-5.2 6.037 6.037 0 0 0-6.172-6.172z" class="cls-2" transform="translate(-96.7 -114.314)"/>
                    <path id="패스_30703" d="M165.071 113.6a7.323 7.323 0 0 0-6.086 2.914 11.462 11.462 0 0 0-2.086 6.914c0 5.029 2.6 9.857 8.171 9.857a7.459 7.459 0 0 0 4.629-1.457c2.4-1.8 3.543-5.057 3.543-8.4.001-5.028-2.599-9.828-8.171-9.828zm1.114 15.143a2.629 2.629 0 0 1-1.086.2c-2.286 0-3.2-2.143-3.2-5.514a9.1 9.1 0 0 1 .657-3.857 2.648 2.648 0 0 1 2.543-1.629c2.286 0 3.2 2.114 3.2 5.486-.028 2.771-.628 4.714-2.113 5.314z" class="cls-2" transform="translate(-139.7 -113.6)"/>
                </g>
                <circle id="타원_1160" cx="1.343" cy="1.343" r="1.343" class="cls-2" transform="translate(52.543 15.029)"/>
                <circle id="타원_1161" cx="1.114" cy="1.114" r="1.114" class="cls-2" transform="translate(12.743 52.371)"/>
                <path id="패스_30704" d="M79.4 63.4c0 2.371-1.057 3.4-3.4 3.4 2.371 0 3.4 1.057 3.4 3.4 0-2.371 1.057-3.4 3.4-3.4-2.343 0-3.4-1.029-3.4-3.4z" class="cls-2" transform="translate(-57.4 -48.371)"/>
                <path id="패스_30705" d="M178.686 236.4c0 1.857-.829 2.686-2.686 2.686 1.857 0 2.686.829 2.686 2.686 0-1.857.829-2.686 2.686-2.686-1.858 0-2.686-.829-2.686-2.686z" class="cls-2" transform="translate(-128.829 -171.943)"/>
                <path id="패스_30706" d="M245.5 144.5c0 1.257-.543 1.8-1.8 1.8 1.257 0 1.8.543 1.8 1.8 0-1.257.543-1.8 1.8-1.8a1.569 1.569 0 0 1-1.8-1.8z" class="cls-2" transform="translate(-177.186 -106.3)"/>
            </g>
        </g>
        <text id="challenge" fill="#fff" font-family="Roboto-Bold, Roboto" font-size="7px" font-weight="700" letter-spacing="-0.015em" transform="translate(70 184)">
            <tspan x="-19.312" y="0">CHALLENGE</tspan>
        </text>
    </g>
</svg>
