<svg xmlns="http://www.w3.org/2000/svg" id="img_smart_camera" width="48" height="48" viewBox="0 0 48 48">
    <defs>
        <style>
            .cls-4{fill:#626572}
        </style>
    </defs>
    <g id="ico_list_camera" transform="translate(9 9)">
        <g id="레이어_2" transform="translate(2.5 3.109)">
            <path id="패스_28523" d="M1288.25 399.628h-2.856l-.926-2.719a.627.627 0 0 0-.593-.422h-8.75a.627.627 0 0 0-.593.422l-1.071 3.141a.626.626 0 0 0 1.184.4l.926-2.719h7.857l.926 2.719a.626.626 0 0 0 .591.422h3.3a2.5 2.5 0 0 1 2.5 2.5v12.5a2.5 2.5 0 0 1-2.5 2.5h-17.5a2.5 2.5 0 0 1-2.5-2.5v-12.5a2.5 2.5 0 0 1 2.5-2.5h.723a.625.625 0 0 0 0-1.25h-.723a3.754 3.754 0 0 0-3.75 3.75v12.5a3.754 3.754 0 0 0 3.75 3.75h17.5a3.754 3.754 0 0 0 3.75-3.75v-12.5a3.754 3.754 0 0 0-3.745-3.744z" class="cls-4" transform="translate(-1267 -396.487)"/>
            <path id="패스_28524" d="M1283.75 408.125a5.625 5.625 0 1 0-5.625 5.625 5.632 5.632 0 0 0 5.625-5.625zm-10 0a4.375 4.375 0 1 1 4.375 4.375 4.38 4.38 0 0 1-4.375-4.375z" class="cls-4" transform="translate(-1265.625 -394.984)"/>
        </g>
    </g>
    <path id="패스_37389" d="M177.03 255.635a24 24 0 1 1 24-24 24.028 24.028 0 0 1-24 24zm0-47a23 23 0 1 0 23 23 23.026 23.026 0 0 0-23-23z" opacity="0.1" transform="translate(-153.03 -207.635)"/>
</svg>
