<svg xmlns="http://www.w3.org/2000/svg" width="260" height="200" viewBox="0 0 260 200">
    <defs>
        <clipPath id="clip-path">
            <path id="패스_30510" fill="none" d="M93.728 142.766l-19.69-26.4a15.641 15.641 0 0 0 4.546 3.944c8.814 5.289 23.406 5.436 32.592.329a16.185 16.185 0 0 0 5.248-4.39q-9.767 13.254-19.536 26.506a1.222 1.222 0 0 1-.391.328 2.686 2.686 0 0 1-2.43-.025 1.17 1.17 0 0 1-.339-.292z" transform="translate(-74.038 -116.251)"/>
        </clipPath>
        <style>
            .cls-6{fill:#fff}.cls-9{fill:#ffd0a2}.cls-10{fill:#c18e15}.cls-13{fill:#d09e17}.cls-25{mix-blend-mode:multiply}.cls-21,.cls-25{isolation:isolate}.cls-16{fill:#ffd41d}.cls-21{fill:#575757;mix-blend-mode:screen}.cls-22{fill:#c7ae81}.cls-23{fill:#424242}.cls-25{fill:#dedede}
        </style>
    </defs>
    <g id="img_slip_user" transform="translate(-24.814 -121.793)">
        <ellipse id="타원_994" cx="51.126" cy="50.932" fill="#ffeda5" opacity="0.5" rx="51.126" ry="50.932" transform="translate(144.567 182.732)"/>
        <ellipse id="타원_995" cx="51.126" cy="50.932" fill="#ffeda5" rx="51.126" ry="50.932" transform="translate(61.484 182.732)"/>
        <path id="합치기_18" fill="#7a4d4c" d="M9.452 55.032l-8.46-4.8a1.942 1.942 0 0 1-.026-3.373c3.592-2.094 9.8-5.708 14.585-8.455-3.582-3.73-5.626-8.034-5.626-12.617C9.926 11.546 29.656 0 53.994 0s44.069 11.546 44.069 25.789-19.731 25.788-44.069 25.788a68.312 68.312 0 0 1-23.6-4.006l-12.626 7.4a8.334 8.334 0 0 1-8.315.061zm122.234-8.074L118.609 40.5a2.46 2.46 0 0 1-.039-4.541c6.515-3.309 18.6-9.431 26.164-13.182a14.521 14.521 0 0 1 13.064.176l12.172 6.468a2.457 2.457 0 0 1-.045 4.5L144.54 46.877a14.55 14.55 0 0 1-12.853.081z" opacity="0.114" transform="translate(56.901 255.567)"/>
        <g id="레이어_1" transform="translate(71.729 151.793)">
            <g id="그룹_40615" transform="translate(106.188 47.16)">
                <path id="패스_30491" d="M179.65 221.444a2.634 2.634 0 0 0 .021 2.715 2.781 2.781 0 0 0 2.346 1.441c1.178.06 11.732-4.23 10.22-7.1-1.155-2.186-9.609 1.452-9.609 1.452z" class="cls-6" transform="translate(-146.957 -130.652)"/>
                <path id="패스_30492" d="M158.6 221.524a2.648 2.648 0 0 0 .353 2.7 2.879 2.879 0 0 0 2.508 1.218c1.181-.05 11.149-5.29 9.3-8-1.416-2.069-9.377 2.329-9.377 2.329z" class="cls-6" transform="translate(-156.759 -130.905)"/>
                <path id="패스_30493" fill="#73340c" d="M167.151 189.219c-1.684 4.048-2.332 18.441-3.109 19.452-5.051 3.148-4.339 13.492-5.569 20.351 1.942 1.686 3.237 1.237 4.791-.337 4.145-7.758 5.31-16.3 8.03-18.553s6.087-16.416 6.087-16.416z" transform="translate(-156.725 -138.531)"/>
                <path id="패스_30494" fill="#83460e" d="M166.36 187.6c-1.979 2.493 6.358 6.672 8.528 8.022.312 4.9 6.416 11.525 5.383 15.473s4.4 18.9 4.875 19.108c3.955 1.126 5.263-1.845 5.263-1.845-.232-4.2-2.261-16.4-1.844-21.049s-5.843-16.255-6.453-17.989-15.752-1.72-15.752-1.72z" transform="translate(-153.165 -138.977)"/>
                <path id="패스_30495" d="M184.2 157a33.3 33.3 0 0 0 3.5-1.679c.654-.209 1.8-.134 1.447-.529a1.746 1.746 0 0 0-1.471-.293c-.275.078 3.406-2.416 3.172-3.1s-4.349 2.348-3.419 1.389 3.569-2.292 3.09-2.81-1.319.005-1.319.005c.588-.885-1.8-.366-3.107.61s-1.5.936-.46-.225.36-1.072-.557-.344-2.689 2.268-2.937 3.754a2.7 2.7 0 0 1-1.186 1.977z" class="cls-9" transform="translate(-146.172 -149.483)"/>
                <path id="패스_30496" d="M166.236 177.313c-1.456-3.457-.874-7.758 3.594-11.047s13.372-9.108 18.811-12.481a3.208 3.208 0 0 1 2.849 2.586c-1.165 1.434-9.81 8.545-11.169 9.811s-6.41 6.915-6.6 7.252-3.594 4.217-3.594 4.217z" class="cls-10" transform="translate(-153.415 -148.298)"/>
                <path id="패스_30497" fill="#a16912" d="M168.946 169c-1.516 2.067-1.516 16.849-3.744 19.071s-3.785 5.317-3.673 5.608c1.669 2.9 11.579 6.186 19.149 3.286s3.341-4.447 3.118-7.154.112-14.781-1.781-17.3-3.55-3.734-4.468-3.951-8.601.44-8.601.44z" transform="translate(-155.293 -144.237)"/>
                <path id="패스_30498" d="M189.366 159.154a26.843 26.843 0 0 1 2.092-2.959c.27-.557.237-1.554.676-1.231a1.218 1.218 0 0 1 .269 1.29c-.1.233 2.937-2.843 3.714-2.609s-2.9 3.664-1.756 2.9 2.8-2.989 3.375-2.549-.068 1.143-.068 1.143c1.048-.469.338 1.582-.843 2.666s-1.147 1.26.237.411 1.249-.264.372.5-2.734 2.229-4.456 2.374a3.285 3.285 0 0 0-2.329.939z" class="cls-9" transform="translate(-142.227 -148.34)"/>
                <path id="패스_30499" d="M175.988 155.28a22.148 22.148 0 0 1 .918 10.114c-.5 2.754-1.8 4.421-3.8 4.2a3.6 3.6 0 0 0 0 2.392c-.835.653-5.6.472-5.72-.362a4.379 4.379 0 0 1-.084-1.087s-.292-10.186-.041-10.512 8.727-4.745 8.727-4.745z" class="cls-9" transform="translate(-152.648 -147.886)"/>
                <path id="패스_30500" fill="#242424" d="M172.508 152.184c3.548-.725 5.051 1.6 5.219 3.118s-1.211 4.314-1.963 4.749a2.4 2.4 0 0 0-.751 2.646c.375.689.292 2.1-.251 2.32s-.542-.8-1.46-.435-.961 1.3-.335 2.32a3.28 3.28 0 0 1 .376 3.116c-.46.871-5.26 3.372-6.765.508a32.366 32.366 0 0 1-1.878-3.988z" transform="translate(-153.802 -148.777)"/>
                <path id="패스_30501" d="M161.708 152.125c-3.238 1-3.675 20.663-4.425 22.765 4.759.217 8.767-9.715 8.767-9.715.167.8.251.508.752 1.015a9.7 9.7 0 0 1 1.17 2.175c3.088.362 8.6-4.5 9.436-8.556s.25-8.338-3.006-8.338-11.524.292-12.694.654z" class="cls-13" transform="translate(-157.283 -148.935)"/>
                <path id="패스_30502" d="M166.05 163.446c.167.8.251.508.752 1.015a9.7 9.7 0 0 1 1.17 2.175c1.389.162 3.257-.758 4.979-2.157-1.646-.9-4.979-2.754-5.231-3.245-.333-.652-.041-1.413.793-3.044s-2 1.595-2.464 3.516a25.057 25.057 0 0 1-3.632 6.96c-1.46 2.066-2.8 4.06-5.135 4.5 4.76.212 8.768-9.72 8.768-9.72z" transform="translate(-157.283 -147.207)" style="isolation:isolate;mix-blend-mode:multiply" fill="#e8e8e8"/>
                <path id="패스_30503" d="M168.335 167.823c-1.5-.29-1.587.689-1.754 1.378s.918 1.486 3.634 1.413 5.344-1.522 5.97-1.449a6.454 6.454 0 0 0-3.507-1.342z" class="cls-13" transform="translate(-152.928 -144.443)"/>
                <path id="패스_30504" d="M172.6 173.117c-1.449 2.562 1.28 9.667 5.065 9.28 2.064-.212 6.7-3.833 11.413-9.088 3.935-4.383 8.517-9.23 10.354-12.18.5-2.319-2.06-3.576-2.06-3.576-1.5 1.691-9.464 7.395-13.082 11.019-3.95 1.983-11.465 3.82-11.69 4.545z" class="cls-10" transform="translate(-150.279 -147.259)"/>
            </g>
            <path id="패스_30505" fill="#3da5f4" d="M132.16 188.521c0-.023-.009-.045-.012-.068-.017-.146-.053-.293-.075-.44-.049-.315-.091-.63-.162-.944-.013-.055-.034-.109-.047-.164-.048-.2-.112-.395-.168-.591-.067-.234-.12-.468-.2-.7-.029-.084-.071-.167-.1-.251-.079-.218-.172-.434-.263-.651-.078-.189-.14-.378-.227-.566-.049-.106-.115-.21-.167-.316-.114-.232-.238-.462-.365-.692-.088-.159-.158-.32-.253-.478q-.205-.347-.431-.691l-29.062-44.3L129.346 94.2c-.062.094-.135.185-.2.278 5.548-8.078 2.869-17.618-8.215-24.27-15.137-9.084-40.2-9.337-55.976-.565-12.112 6.735-15.221 16.828-9.17 25.265-.12-.168-.248-.334-.361-.5l28.968 43.311-28.8 44.456c-.288.444-.542.895-.781 1.347-.064.122-.126.244-.187.367-.192.387-.368.776-.523 1.167-.03.075-.065.148-.093.223-.174.456-.32.915-.445 1.374-.032.117-.058.235-.086.351q-.139.563-.227 1.129c-.017.109-.039.218-.053.327a13.53 13.53 0 0 0-.113 1.389v.287q0 .578.043 1.156c.01.124.019.246.033.369a13.626 13.626 0 0 0 .218 1.394c.01.047.025.093.036.14.1.422.215.842.35 1.261.042.125.084.252.129.377.148.415.312.829.5 1.24.023.049.04.1.063.147.213.452.455.9.717 1.346.07.118.144.237.217.355q.34.548.729 1.087c.066.093.128.186.2.277.029.04.054.079.084.119.145.191.319.376.473.564.224.272.439.545.682.813.2.221.423.436.636.655.255.26.5.522.779.778.046.042.084.087.13.129q.6.551 1.26 1.085c.065.053.139.1.2.157.354.282.712.562 1.091.837.107.078.223.152.331.228l.371.257c.555.379 1.125.754 1.73 1.117h.006l.043.025q1.164.7 2.4 1.324c.1.05.2.092.3.142.244.121.5.232.744.348.43.2.853.415 1.295.607.289.126.59.236.884.355.268.11.535.219.807.324.2.079.4.168.608.245q1.123.417 2.283.787l.038.011c.047.015.1.027.144.042.692.218 1.39.425 2.1.618.291.079.589.145.882.219.241.061.482.122.724.181.224.053.442.115.666.166q1.115.253 2.251.467c.072.014.147.023.218.037.139.025.278.046.417.07.517.092 1.034.185 1.556.264.542.083 1.09.153 1.638.221.093.013.187.027.281.038l.149.021q.982.117 1.973.2c.455.041.911.071 1.367.1l.277.021c.068 0 .136.011.2.015q.843.051 1.689.082.818.03 1.638.04h.25c.419 0 .839.005 1.259 0q.747-.008 1.493-.031c.273-.008.545-.023.818-.034l.255-.01.383-.016q.724-.038 1.448-.091.777-.058 1.552-.133c.069-.006.137-.015.206-.023l.209-.023c.388-.041.776-.08 1.163-.127q1.031-.125 2.053-.282c.069-.01.136-.026.2-.037.33-.051.652-.119.98-.175.653-.114 1.309-.218 1.953-.351.2-.042.4-.092.6-.135.218-.048.435-.1.652-.147 1.039-.238 2.072-.493 3.081-.785.018 0 .034-.011.052-.016.827-.239 1.627-.516 2.429-.791.33-.113.672-.206 1-.324l.024-.01c.066-.024.128-.053.194-.078.831-.308 1.651-.629 2.448-.977.115-.05.222-.109.337-.16.349-.155.683-.324 1.024-.488.435-.207.881-.4 1.3-.619q.52-.269 1.028-.552l.014-.009q.983-.547 1.888-1.122c.041-.026.077-.054.118-.079.139-.09.267-.182.4-.273.466-.31.919-.624 1.353-.944.181-.135.358-.27.533-.405s.337-.249.5-.376c.234-.19.451-.385.675-.578.12-.1.244-.2.36-.308.438-.392.86-.788 1.253-1.191.033-.035.062-.07.1-.1.066-.069.126-.138.19-.207q.551-.588 1.039-1.189c.067-.082.139-.164.2-.247.039-.05.083-.1.122-.149.3-.39.576-.785.838-1.184.053-.081.107-.163.159-.246.066-.106.139-.209.2-.315.108-.178.188-.359.288-.539.159-.283.318-.567.457-.853.04-.082.092-.162.13-.244.088-.19.15-.384.23-.575.105-.251.212-.5.3-.754.029-.079.069-.157.1-.237.072-.215.118-.433.18-.649s.135-.452.188-.68c.014-.064.039-.127.053-.191.057-.263.086-.525.128-.788.03-.2.072-.389.093-.584 0-.04.015-.079.02-.119.039-.379.048-.758.055-1.138 0-.1.015-.2.015-.3v-.031a13.116 13.116 0 0 0-.074-1.454zM95.014 108.9h.167c-.057 0-.112-.006-.167 0zm-10.574-.4c.431.051.866.08 1.3.122-.44-.039-.87-.069-1.3-.122zm15.2.042q1.328-.146 2.64-.345-1.31.203-2.638.349zm3.391-.452c.465-.076.92-.178 1.382-.264-.461.087-.916.188-1.382.264zm5.279-1.124c.516-.133 1.041-.251 1.55-.4-.508.154-1.032.272-1.548.404zm3.632-1.064c.464-.153.94-.291 1.4-.457-.458.17-.933.307-1.397.46zm4.261-1.617c.147-.065.3-.117.449-.183-.143.069-.296.126-.447.186zm6.488-3.556c.14-.1.273-.2.409-.293-.121.088-.241.178-.368.265zm-1.389.91l-.023.014c.134-.083.259-.169.391-.253-.118.083-.239.164-.37.242zm2.7-1.866l.364-.29c-.1.083-.2.166-.308.248-.013.017-.033.031-.051.045zm1.212-.987c.067-.058.131-.116.2-.173-.048.042-.092.086-.141.128-.015.019-.035.033-.053.048zm1.116-1.017c.1-.1.2-.191.292-.288-.054.055-.1.111-.159.165s-.083.085-.127.126zm1.019-1.046c.107-.117.214-.235.317-.353-.043.051-.082.1-.128.152-.053.07-.119.137-.183.203zm1.148-1.351c-.071.092-.149.183-.226.274.105-.131.212-.262.312-.393-.024.047-.049.083-.083.122zm-71.931.558c-.148-.18-.3-.359-.44-.541.146.184.299.364.447.544zm.885 1.012c-.168-.181-.342-.361-.5-.544.164.186.338.365.507.547zm.412.444c.179.184.374.364.563.545-.183-.178-.377-.358-.556-.542zm4.56 3.726q.661.439 1.367.863c.851.51 1.743.984 2.653 1.438-.91-.454-1.8-.928-2.653-1.438q-.7-.421-1.361-.86zm-3.556-2.757c.2.182.416.361.626.541-.204-.177-.419-.356-.619-.538zm1.095.945c.221.181.458.358.689.535-.225-.174-.462-.351-.683-.535zm1.186.92c.267.2.55.388.83.581-.278-.19-.557-.381-.824-.578zm7.232 4.079c.335.147.662.3 1 .443-.331-.142-.659-.293-.993-.442zm2.3.949c.821.31 1.644.618 2.5.888-.847-.268-1.671-.574-2.491-.885zm7.183 2.13c.614.138 1.228.276 1.851.4-.614-.122-1.228-.259-1.841-.397zm4.067.768c.651.1 1.3.216 1.956.3-.649-.081-1.296-.194-1.946-.297zm4.118 31.843c.012.011.021.023.034.033-.006-.011-.014-.022-.025-.03zm2.189 1.316l-.078-.032a8.011 8.011 0 0 1-1.131-.554l-.012-.007c-.077-.046-.144-.1-.216-.144.077.05.147.1.228.151a7.849 7.849 0 0 0 1.053.516c.109.045.22.085.331.126-.047-.019-.112-.032-.165-.053zm1.23.39c-.062-.015-.116-.04-.177-.056.113.031.224.063.339.09-.03-.006-.062-.009-.091-.016zm4.319.3a13.318 13.318 0 0 1-1.434.064h-.013a12.742 12.742 0 0 1-1.431-.094h-.024c-.32-.04-.628-.107-.938-.172.307.065.615.131.933.171.042 0 .084.005.126.01.388.044.781.069 1.176.078h.389q.494 0 .986-.044c.117-.01.233-.015.349-.028-.033 0-.066.013-.1.016zm3.967-1.165a8.47 8.47 0 0 1-1.2.545h-.01a10.494 10.494 0 0 1-1.208.351l-.141.034c.3-.068.588-.159.877-.248.149-.047.306-.079.451-.131a8.557 8.557 0 0 0 1.234-.557zm.77-.506l.082-.063a.256.256 0 0 1-.024.021c-.007.013-.029.026-.048.041zm.607-.526c-.029.031-.07.059-.1.089l.07-.068c.023-.023.055-.056.084-.083l-.009.011c-.007.016-.019.033-.035.053z" transform="translate(-52.774 -63.227)"/>
            <g id="그룹_40619" transform="translate(9.207 29.372)">
                <path id="패스_30506" d="M125.848 197.04c0-.05.007-.1.006-.149s-.007-.088-.009-.132c-.009-.345-.029-.691-.072-1.035v-.02c-.043-.347-.11-.692-.189-1.038-.009-.042-.013-.083-.023-.125s-.034-.107-.048-.16q-.106-.419-.246-.834c-.018-.051-.028-.1-.046-.156-.007-.02-.017-.038-.024-.058-.121-.338-.261-.673-.416-1.008-.012-.025-.02-.051-.032-.076-.025-.054-.059-.107-.085-.16q-.2-.408-.434-.812c-.031-.054-.054-.109-.087-.163-.02-.033-.044-.064-.064-.1-.2-.336-.422-.668-.661-1l-.024-.036c-.026-.037-.06-.072-.087-.108-.22-.3-.456-.589-.7-.879-.041-.048-.074-.1-.116-.144s-.068-.069-.1-.1c-.3-.336-.614-.668-.952-1-.013-.012-.023-.024-.035-.037-.033-.032-.072-.061-.106-.093-.332-.315-.684-.625-1.053-.93-.05-.042-.092-.085-.143-.126-.033-.027-.071-.052-.1-.079-.336-.27-.683-.537-1.048-.8l-23.284-16.7a.979.979 0 0 1 .3.322v.005a.61.61 0 0 1 .072.353.685.685 0 0 1-.149.347 1.228 1.228 0 0 1-.373.3 2.137 2.137 0 0 1-.574.211 2.835 2.835 0 0 1-.646.066 2.844 2.844 0 0 1-.643-.079 2.035 2.035 0 0 1-.56-.223 1.147 1.147 0 0 1-.338-.3l-.011-.016a.643.643 0 0 1-.116-.3c0-.018-.006-.035-.007-.053a2.017 2.017 0 0 1 .089-.339 1 1 0 0 1 .278-.3l-23.208 16.848c-.579.42-1.115.851-1.619 1.293-.167.145-.311.3-.47.444-.322.3-.642.6-.931.907-.17.181-.319.365-.477.548-.245.283-.488.567-.706.856-.149.2-.282.4-.419.6-.192.282-.378.564-.545.85-.121.208-.232.416-.34.625-.147.286-.282.572-.4.861-.091.212-.176.423-.252.637-.106.293-.194.587-.273.881-.058.211-.117.423-.161.634-.063.305-.105.61-.142.916-.024.2-.057.405-.07.609 0 .062-.019.124-.022.186a10.567 10.567 0 0 0 .017 1.148c0 .085.014.169.022.253a10.762 10.762 0 0 0 .204 1.428c0 .021.012.041.016.061.065.281.138.562.225.841.044.139.108.276.158.415.061.172.124.342.194.514.137.335.294.667.464 1 .076.147.143.294.225.441.03.052.051.107.081.159.225.387.479.769.751 1.149.064.089.135.178.2.267.135.18.262.361.407.539.2.247.417.494.641.738l.034.038q.371.4.779.8c.11.107.243.207.358.312.236.218.483.432.738.644.15.126.281.258.437.383s.325.233.483.351c.229.173.462.344.7.513.141.1.267.2.413.3q.572.383 1.187.753.234.141.472.277.816.47 1.677.9c.04.02.082.037.122.057.108.053.221.1.33.153.407.2.813.391 1.233.572.237.1.484.2.726.293.175.07.348.143.524.211.14.054.276.115.418.169q.808.3 1.642.576c.077.025.158.047.235.072.119.038.24.072.36.109.33.1.657.208.991.3q.756.214 1.529.4.657.163 1.324.306.627.135 1.262.255c.07.013.139.023.209.037l.157.027c.237.043.475.087.714.126q.526.087 1.055.163.421.061.845.115l.185.022.093.011c.19.023.38.047.571.068q.394.043.789.081l.667.06q.334.027.668.051l.2.013h.068c.133.009.266.018.4.025q.291.018.582.031l.552.023c.184.007.369.013.554.017s.369.009.554.012h1.53l.5-.008c.165 0 .33-.007.5-.012l.5-.017.324-.014h.033l.138-.006c.166-.008.33-.016.5-.026l.494-.031.494-.034.563-.046q.3-.026.6-.055l.177-.018.053-.005.366-.038.595-.068q.414-.05.826-.107c.315-.043.628-.088.942-.137l.132-.023c.087-.014.172-.031.259-.044.439-.072.878-.144 1.312-.228.386-.074.765-.159 1.146-.241.123-.027.248-.051.37-.079.07-.015.141-.028.211-.044q.674-.154 1.337-.328.488-.127.967-.264l.16-.047.065-.019.441-.13.66-.2c.209-.068.418-.136.626-.207q.265-.089.528-.182l.4-.146.033-.012.086-.031.519-.2.515-.2q.262-.106.522-.215t.516-.221c.132-.058.263-.116.392-.175l.033-.015.085-.038c.177-.081.351-.163.525-.246.2-.1.4-.192.6-.292s.392-.2.585-.3.386-.206.576-.311l.053-.029q.349-.194.684-.392c.089-.052.174-.107.261-.159s.168-.1.25-.153.145-.087.215-.131c.163-.1.318-.208.475-.312.09-.059.182-.117.271-.177l.082-.054c.148-.1.286-.2.429-.308s.3-.209.44-.314l.062-.045c.064-.049.121-.1.184-.148.272-.209.536-.419.79-.632.047-.04.1-.078.146-.116s.089-.086.138-.128c.37-.322.727-.647 1.058-.98l.024-.022v-.005c.4-.4.768-.818 1.111-1.235.029-.035.065-.069.093-.1.015-.019.026-.039.042-.057.328-.41.625-.825.9-1.245.024-.039.057-.075.081-.114s.034-.065.054-.1q.371-.592.669-1.2c.014-.03.034-.059.049-.088.022-.045.035-.092.056-.137a11.828 11.828 0 0 0 .818-2.334c.011-.047.029-.093.04-.14s.011-.081.019-.122a10.828 10.828 0 0 0 .176-1.092v-.027-.1c.03-.311.043-.633.043-.954z" class="cls-16" transform="translate(-62.943 -102.877)"/>
                <path id="패스_30507" d="M99.068 145.176a.61.61 0 0 1-.032.188v.011a.734.734 0 0 1-.091.172l-.013.019a1.015 1.015 0 0 1-.139.149c-.026.023-.058.046-.089.069a1.55 1.55 0 0 1-.163.112 2.191 2.191 0 0 1-.54.2c-.023.005-.045.012-.069.016a2.834 2.834 0 0 1-.608.062h-.014a2.843 2.843 0 0 1-.624-.077l-.024-.005a2.015 2.015 0 0 1-.55-.22.838.838 0 0 1-.478-.684l.062 22.118a.841.841 0 0 0 .479.684 1.828 1.828 0 0 0 .281.135 2.123 2.123 0 0 0 .207.069c.02.006.042.01.062.015l.025.005.093.023c.056.012.112.021.169.029s.11.014.167.017.111.007.167.009H97.521c.062 0 .126-.006.188-.013s.145-.018.215-.031c.024 0 .047-.013.072-.018l.068-.016c.055-.013.112-.023.166-.041a1.988 1.988 0 0 0 .374-.158l.082-.049c.031-.02.053-.042.082-.063s.062-.045.088-.069a.224.224 0 0 0 .028-.022.9.9 0 0 0 .1-.113l.009-.014.013-.02c.015-.023.033-.045.045-.069a.708.708 0 0 0 .043-.1v-.018a.458.458 0 0 0 .022-.079.6.6 0 0 0 .01-.1v-.012z" class="cls-16" transform="translate(-66.036 -100.563)"/>
                <path id="패스_30508" d="M111.656 99.823c-.592-.355-1.213-.683-1.853-.991-.21-.1-.432-.189-.646-.285-.442-.2-.885-.392-1.345-.569-.263-.1-.535-.191-.8-.286-.43-.151-.862-.3-1.306-.43-.291-.088-.586-.168-.882-.248q-.659-.177-1.331-.33c-.163-.037-.32-.086-.484-.12-.215-.046-.436-.082-.656-.124-.174-.033-.347-.068-.522-.1-.632-.111-1.268-.211-1.912-.29-.044-.006-.09-.009-.135-.014-.6-.072-1.213-.127-1.824-.171-.186-.014-.371-.024-.558-.035q-.8-.046-1.594-.06c-.138 0-.275-.008-.414-.009q-.979-.007-1.958.034c-.157.006-.311.018-.467.026q-.778.041-1.551.113c-.183.017-.366.033-.548.053-.649.07-1.3.15-1.936.252l-.069.013c-.617.1-1.227.219-1.831.348-.177.039-.352.079-.528.12q-.748.173-1.479.377c-.134.038-.27.072-.4.111q-.9.264-1.76.576c-.132.048-.26.1-.39.15q-.686.259-1.345.55c-.157.069-.312.136-.465.208-.546.253-1.081.516-1.594.8s-1.006.594-1.47.9c-.076.051-.154.1-.228.152-.435.3-.841.608-1.223.923-.074.061-.146.123-.218.185-.377.322-.732.651-1.056.987-.036.038-.068.076-.1.114a12.4 12.4 0 0 0-.848 1c-.032.042-.067.084-.1.125a10.748 10.748 0 0 0-.686 1.064c-.04.07-.079.138-.116.208a9.275 9.275 0 0 0-.5 1.078c-.023.06-.042.121-.063.181a8.5 8.5 0 0 0-.323 1.129l-.005.024a7.867 7.867 0 0 0-.137 1.149c0 .066-.009.131-.011.2a7.8 7.8 0 0 0 .053 1.106c.008.071.019.142.029.212.016.108.025.218.045.326.034.182.093.363.14.544.033.127.059.255.1.382a8.872 8.872 0 0 0 .422 1.1c.01.022.015.043.025.064a9.909 9.909 0 0 0 .643 1.134c.075.117.165.231.247.347.18.257.37.512.58.763.111.134.232.265.351.4q.316.349.673.688c.135.129.27.258.413.385.266.236.551.466.847.693.138.106.267.214.41.319.449.326.922.645 1.432.952 8.814 5.289 23.406 5.436 32.592.329s9.479-13.543.665-18.832z" class="cls-16" transform="translate(-63.798 -95.761)"/>
                <g id="그룹_40618" transform="translate(10.045 18.499)" style="isolation:isolate">
                    <g id="그룹_40617" clip-path="url(#clip-path)">
                        <g id="그룹_40616">
                            <path id="패스_30509" fill="#b17a13" d="M93.728 142.766l-19.69-26.4a15.641 15.641 0 0 0 4.546 3.944c8.814 5.289 23.406 5.436 32.592.329a16.185 16.185 0 0 0 5.248-4.39l-19.536 26.508a1.222 1.222 0 0 1-.391.328 2.686 2.686 0 0 1-2.43-.025 1.17 1.17 0 0 1-.339-.293" transform="translate(-74.038 -116.251)"/>
                        </g>
                    </g>
                </g>
            </g>
            <g id="그룹_40620">
                <path id="패스_30511" fill="#1d69a7" d="M120.932 70.209c15.137 9.084 14.619 23.56-1.159 32.333s-40.84 8.52-55.977-.564-14.618-23.561 1.16-32.334 40.838-8.519 55.976.565zM92.364 86.094" opacity="0.9" transform="translate(-52.774 -63.227)"/>
            </g>
            <path id="패스_30512" d="M86.282 147.075l-29.019 47.776c-1.085 5.048 3.526 12.62 7.051 14.333 1.447-2.884 21.968-62.109 21.968-62.109z" class="cls-21" transform="translate(-53.184 -71.375)"/>
            <path id="패스_30513" d="M88.213 147.274l-20.249 63.642c1.988 2.523 8.226 4.146 8.226 4.146z" class="cls-21" transform="translate(-54.211 -71.395)"/>
            <path id="패스_30514" d="M87.255 141.034l-19.391-31.776a27.843 27.843 0 0 0 6.441 2.975z" class="cls-21" transform="translate(-54.201 -67.7)"/>
        </g>
        <g id="그룹_40633" transform="translate(51.528 269.283)">
            <g id="그룹_40611" transform="translate(10.771 21.792)">
                <path id="패스_30479" d="M63.881 255.022a18.875 18.875 0 0 1 .917 8.31c-.219 1.306-.394 1.828.566 1.872s3.535-6.831 3.36-11.052-4.843.87-4.843.87z" class="cls-22" transform="translate(-63.881 -252.478)"/>
                <path id="패스_30480" d="M64.8 262.28c-.016.129-.032.263-.049.371-.219 1.306-.394 1.828.566 1.872.289.013.723-.605 1.184-1.581a1.82 1.82 0 0 1-1.701-.662z" class="cls-23" transform="translate(-63.831 -251.797)"/>
            </g>
            <g id="그룹_40612" transform="translate(21.985 25.447)">
                <path id="패스_30481" d="M74.337 258.439a18.889 18.889 0 0 1 .916 8.311c-.219 1.3-.393 1.827.567 1.871s3.534-6.831 3.359-11.051-4.842.869-4.842.869z" class="cls-22" transform="translate(-74.337 -255.896)"/>
                <path id="패스_30482" d="M75.252 265.7c-.016.129-.031.264-.049.372-.219 1.3-.393 1.827.567 1.871.287.013.722-.605 1.183-1.58a1.824 1.824 0 0 1-1.701-.663z" class="cls-23" transform="translate(-74.287 -255.215)"/>
            </g>
            <g id="그룹_40613" transform="translate(32.325 18.964)">
                <path id="패스_30483" d="M83.978 252.378a18.874 18.874 0 0 1 .917 8.31c-.219 1.306-.394 1.828.566 1.87s3.535-6.831 3.36-11.051-4.843.871-4.843.871z" class="cls-22" transform="translate(-83.978 -249.834)"/>
                <path id="패스_30484" d="M84.894 259.636c-.016.128-.032.263-.049.371-.219 1.3-.394 1.828.566 1.871.288.014.723-.6 1.184-1.58a1.822 1.822 0 0 1-1.701-.662z" class="cls-23" transform="translate(-83.928 -249.153)"/>
            </g>
            <path id="패스_30485" d="M61.223 237.495c-2.734-1.256-7.666.909-7.372 3.422s3.7 5.025 9.062 5.186c3.487-3.395-1.69-8.608-1.69-8.608z" class="cls-22" transform="translate(-53.838 -231.753)"/>
            <path id="패스_30486" fill="#faf8f0" d="M58.951 236.674c-3.5.391-4.057 6.461.721 7.179 2.487 2.186 1.865 4.014 1.865 4.014-1.407 1.566-.785 6.069 1.112 8.549s5.89 1.5 6.447.13c.131 4.046 9.915 5.939 12.01 1.957 5.5 2.35 14.4-4.176 8.508-11.356 3.861-5.09-.981-16.119-12.37-12.008-1.766-3.72-6.675-2.741-7.526-.457a3.3 3.3 0 0 0-6.48.2c-1.505-2.282-5.366-.198-4.287 1.792z" transform="translate(-53.667 -232.102)"/>
            <path id="패스_30487" d="M83.948 248.389a4.384 4.384 0 0 1 .838.7 2.532 2.532 0 0 1 .553 1.035 1.891 1.891 0 0 1-.239 1.387 1.731 1.731 0 0 1-1.228.714 1.874 1.874 0 0 1-1.157-.313 2.756 2.756 0 0 1-.729-.83 2.8 2.8 0 0 0 .87.571 1.8 1.8 0 0 0 .958.123 1.248 1.248 0 0 0 .855-.559 1.838 1.838 0 0 0-.119-1.956 6.382 6.382 0 0 0-.602-.872z" class="cls-25" transform="translate(-51.797 -230.97)"/>
            <path id="패스_30488" fill="#dedede" d="M83.74 241.107a3.136 3.136 0 0 0-.746-.957 4.031 4.031 0 0 0-1.049-.6 4.9 4.9 0 0 0-2.053-.219 3.6 3.6 0 0 0-.138-1.538 2.589 2.589 0 0 0-1.175-1.419 2.547 2.547 0 0 0-1.785-.3 2.285 2.285 0 0 0-1.439.987 2.173 2.173 0 0 1 1.474-.768 2.355 2.355 0 0 1 2.494 1.646 3.351 3.351 0 0 1 .063 1.6l-.055.314.33-.021a5.657 5.657 0 0 1 2.117.183 3.585 3.585 0 0 1 .919.492 2.735 2.735 0 0 1 .65.792 2.121 2.121 0 0 1 .038 1.991 2.642 2.642 0 0 1-.706.8 3.907 3.907 0 0 1-1 .494 2.883 2.883 0 0 0 1.942-1.158 2.48 2.48 0 0 0 .119-2.319z" transform="translate(-52.278 -231.829)"/>
            <path id="패스_30489" d="M90.715 248.541c1.386 5.573-3.991 8.286-6.555 5.6.916 2.611-4.8 4.916-5.455.522-.043 2.262-6.894 5.308-8.6-.522-1.135 2.262-4.713 2.7-5.367-.391-1.92-1.088-1.352-3.96.7-5.526.131-.174-2.4-2.611-2.4-2.611a6.377 6.377 0 0 1-2.4-3.481c-3.491-.7-2.88-5.308-1.691-5.754-3.5.391-4.057 6.461.721 7.179 2.487 2.186 1.865 4.014 1.865 4.014-1.407 1.566-.785 6.069 1.112 8.549s5.89 1.5 6.447.13c.131 4.046 9.915 5.939 12.01 1.957 5.065 2.163 12.98-3.2 9.613-9.666z" class="cls-25" transform="translate(-53.667 -231.805)"/>
            <path id="패스_30490" d="M65.311 244.957c.61 1.8.321 3.526-.647 3.852s-2.246-.869-2.857-2.671-.321-3.525.647-3.851 2.246.869 2.857 2.67z" class="cls-22" transform="translate(-53.284 -231.398)"/>
        </g>
    </g>
</svg>
