<svg xmlns="http://www.w3.org/2000/svg" width="340.001" height="172.003" viewBox="0 0 340.001 172.003">
    <defs>
        <filter id="빼기_83" width="340.001" height="172.003" x="0" y="0" filterUnits="userSpaceOnUse">
            <feOffset dy="3"/>
            <feGaussianBlur result="blur" stdDeviation="2"/>
            <feFlood flood-opacity=".051"/>
            <feComposite in2="blur" operator="in"/>
            <feComposite in="SourceGraphic"/>
        </filter>
        <style>
            .cls-4{stroke:none}
        </style>
    </defs>
    <g id="img_ticket_coupton_bg_available" transform="translate(-9.999 -149)">
        <g id="그룹_43471">
            <g filter="url(#빼기_83)" transform="translate(10 149)">
                <g id="빼기_83-2" fill="#fff">
                    <path d="M-6059.5-9798.127h-104.452c-.666-3.505-3.768-6.096-7.39-6.096s-6.724 2.591-7.39 6.095h-207.769v-159.002h207.687c.433 3.754 3.628 6.63 7.472 6.63 3.844 0 7.039-2.876 7.472-6.63h104.37v159.003z" class="cls-4" transform="translate(6393 9960.63)"/>
                    <path fill="#d6d6d9" d="M-6060-9798.627v-158.003h-103.437c-.652 3.786-3.958 6.63-7.905 6.63-3.948 0-7.253-2.844-7.906-6.63H-6386v158.002h206.865c.866-3.53 4.073-6.095 7.794-6.095 3.721 0 6.928 2.565 7.793 6.095l103.549.001m1 1h-105.378c-.45-3.476-3.443-6.096-6.964-6.096-3.52 0-6.514 2.62-6.965 6.095H-6387v-160.002h208.646c.194 3.718 3.274 6.63 7.013 6.63 3.738 0 6.819-2.912 7.012-6.63H-6059V-9797.627z" transform="translate(6393 9960.63)"/>
                </g>
            </g>
            <g id="빼기_82" fill="#ffd41d">
                <path d="M-6268.134-9798.129h-104.455c-.667-3.503-3.77-6.093-7.39-6.093l-.155.002v-146.28l.155.002c3.843 0 7.038-2.876 7.472-6.63h104.373v159z" class="cls-4" transform="translate(6611.635 10109.63)"/>
                <path fill="#efb13d" d="M-6268.634-9798.629v-157.999h-103.44c-.634 3.675-3.767 6.463-7.56 6.623v145.291c3.572.152 6.608 2.665 7.447 6.085h103.553m1 1.001h-105.381c-.451-3.475-3.445-6.094-6.964-6.094-.217 0-.438.01-.655.03v-147.336c.214.02.434.03.655.03 3.738 0 6.818-2.912 7.013-6.63h105.332v160z" transform="translate(6611.635 10109.63)"/>
            </g>
        </g>
        <path id="img_coupon_divider_v" fill="#fff" d="M-3124 2300a1 1 0 0 1 1-1 1 1 0 0 1 1 1 1 1 0 0 1-1 1 1 1 0 0 1-1-1zm0-5a1 1 0 0 1 1-1 1 1 0 0 1 1 1 1 1 0 0 1-1 1 1 1 0 0 1-1-1zm0-5a1 1 0 0 1 1-1 1 1 0 0 1 1 1 1 1 0 0 1-1 1 1 1 0 0 1-1-1zm0-5a1 1 0 0 1 1-1 1 1 0 0 1 1 1 1 1 0 0 1-1 1 1 1 0 0 1-1-1zm0-5a1 1 0 0 1 1-1 1 1 0 0 1 1 1 1 1 0 0 1-1 1 1 1 0 0 1-1-1zm0-5a1 1 0 0 1 1-1 1 1 0 0 1 1 1 1 1 0 0 1-1 1 1 1 0 0 1-1-1zm0-5a1 1 0 0 1 1-1 1 1 0 0 1 1 1 1 1 0 0 1-1 1 1 1 0 0 1-1-1zm0-5a1 1 0 0 1 1-1 1 1 0 0 1 1 1 1 1 0 0 1-1 1 1 1 0 0 1-1-1zm0-5a1 1 0 0 1 1-1 1 1 0 0 1 1 1 1 1 0 0 1-1 1 1 1 0 0 1-1-1zm0-5a1 1 0 0 1 1-1 1 1 0 0 1 1 1 1 1 0 0 1-1 1 1 1 0 0 1-1-1zm0-5a1 1 0 0 1 1-1 1 1 0 0 1 1 1 1 1 0 0 1-1 1 1 1 0 0 1-1-1zm0-5a1 1 0 0 1 1-1 1 1 0 0 1 1 1 1 1 0 0 1-1 1 1 1 0 0 1-1-1zm0-5a1 1 0 0 1 1-1 1 1 0 0 1 1 1 1 1 0 0 1-1 1 1 1 0 0 1-1-1zm0-5a1 1 0 0 1 1-1 1 1 0 0 1 1 1 1 1 0 0 1-1 1 1 1 0 0 1-1-1zm0-5a1 1 0 0 1 1-1 1 1 0 0 1 1 1 1 1 0 0 1-1 1 1 1 0 0 1-1-1zm0-5a1 1 0 0 1 1-1 1 1 0 0 1 1 1 1 1 0 0 1-1 1 1 1 0 0 1-1-1zm0-5a1 1 0 0 1 1-1 1 1 0 0 1 1 1 1 1 0 0 1-1 1 1 1 0 0 1-1-1zm0-5a1 1 0 0 1 1-1 1 1 0 0 1 1 1 1 1 0 0 1-1 1 1 1 0 0 1-1-1zm0-5a1 1 0 0 1 1-1 1 1 0 0 1 1 1 1 1 0 0 1-1 1 1 1 0 0 1-1-1zm0-5a1 1 0 0 1 1-1 1 1 0 0 1 1 1 1 1 0 0 1-1 1 1 1 0 0 1-1-1zm0-5a1 1 0 0 1 1-1 1 1 0 0 1 1 1 1 1 0 0 1-1 1 1 1 0 0 1-1-1zm0-5a1 1 0 0 1 1-1 1 1 0 0 1 1 1 1 1 0 0 1-1 1 1 1 0 0 1-1-1zm0-5a1 1 0 0 1 1-1 1 1 0 0 1 1 1 1 1 0 0 1-1 1 1 1 0 0 1-1-1zm0-5a1 1 0 0 1 1-1 1 1 0 0 1 1 1 1 1 0 0 1-1 1 1 1 0 0 1-1-1zm0-5a1 1 0 0 1 1-1 1 1 0 0 1 1 1 1 1 0 0 1-1 1 1 1 0 0 1-1-1z" transform="translate(3354 -2008)"/>
    </g>
</svg>
