<svg xmlns="http://www.w3.org/2000/svg" width="120" height="120" viewBox="0 0 120 120">
    <defs>
        <clipPath id="clip-path">
            <circle id="타원_1154" cx="35.143" cy="35.143" r="35.143" class="cls-1"/>
        </clipPath>
        <clipPath id="clip-path-2">
            <circle id="타원_1155" cx="35.143" cy="35.143" r="35.143"/>
        </clipPath>
        <filter id="타원_1151" width="95" height="95" x="12" y="16" filterUnits="userSpaceOnUse">
            <feOffset dy="4"/>
            <feGaussianBlur result="blur" stdDeviation="2.5"/>
            <feFlood flood-opacity=".102"/>
            <feComposite in2="blur" operator="in"/>
            <feComposite in="SourceGraphic"/>
        </filter>
        <style>
            .cls-1{fill:#ff9c87}.cls-4{fill:#fff}
        </style>
    </defs>
    <g id="img_challenge_car_03" opacity="0.2" transform="translate(9.7 8.7)">
        <g id="그룹_43457" transform="translate(-1)">
            <g id="_x32_00" transform="translate(10.8 10.8)">
                <g filter="url(#타원_1151)" transform="translate(-19.5 -19.5)">
                    <circle id="타원_1151-2" cx="40" cy="40" r="40" class="cls-4" transform="translate(19.5 19.5)"/>
                </g>
                <circle id="타원_1152" cx="35.143" cy="35.143" r="35.143" fill="#7ca8ff" transform="translate(4.857 4.857)"/>
                <g id="그룹_40466" transform="translate(4.857 4.857)">
                    <g id="그룹_40464" clip-path="url(#clip-path)">
                        <circle id="타원_1153" cx="35.143" cy="35.143" r="35.143" class="cls-1"/>
                    </g>
                    <g id="그룹_40465" clip-path="url(#clip-path-2)">
                        <path id="패스_30670" fill="#ff694a" d="M76.043 225.371H49.671A21.961 21.961 0 0 1 27.7 203.4h70.286a21.936 21.936 0 0 1-21.943 21.971z" transform="translate(-27.729 -153.229)"/>
                    </g>
                </g>
                <g id="그룹_40467" transform="translate(42.486 50.771)"/>
                <g id="그룹_40468" transform="translate(31.714 54.6)">
                    <path id="패스_30672" fill="#e57b1c" d="M121.8 201.9c.2.257.457.543.714.829a8.607 8.607 0 0 0-.714-.829z" transform="translate(-121.8 -201.9)"/>
                </g>
                <g id="그룹_40469" opacity="0.15" transform="translate(14.343 30.8)">
                    <path id="패스_30673" d="M69.229 133.686c.771-.486 1.457-.971 2.086-1.429a16.212 16.212 0 0 0 4.057-3.943 6.081 6.081 0 0 0 1.057-3.371c0-3.829-3.229-6.343-7.714-6.343a11.016 11.016 0 0 0-6.371 1.971 7.621 7.621 0 0 0-1.343 1.2l2.714 3.257a7.064 7.064 0 0 1 5-2.086c1.486 0 2.714.686 2.714 2a2.669 2.669 0 0 1-.314 1.286c-.714 1.371-2.857 3.086-8.343 7.029-.371.257-.743.543-1.143.829v3.829h14.942v-4.286h-7.342z" transform="translate(-61 -118.6)"/>
                    <path id="패스_30674" d="M130.271 118.6a7.409 7.409 0 0 0-5.371 2.086 10.89 10.89 0 0 0-2.8 7.743c0 5.029 2.6 9.857 8.171 9.857a7.324 7.324 0 0 0 6.486-3.514 11.768 11.768 0 0 0 1.686-6.343c0-5.029-2.6-9.829-8.172-9.829zm-1.486 4.743a2.675 2.675 0 0 1 1.486-.4c2.286 0 3.2 2.114 3.2 5.486a9.7 9.7 0 0 1-.571 3.686 2.7 2.7 0 0 1-2.629 1.829c-2.286 0-3.2-2.143-3.2-5.514 0-2.516.515-4.316 1.715-5.087z" transform="translate(-104.643 -118.6)"/>
                    <path id="패스_30675" d="M192.671 118.6a7.409 7.409 0 0 0-5.371 2.086 10.89 10.89 0 0 0-2.8 7.743c0 5.029 2.6 9.857 8.171 9.857a7.324 7.324 0 0 0 6.486-3.514 12.024 12.024 0 0 0 1.686-6.343c0-5.029-2.6-9.829-8.172-9.829zm-1.486 4.743a2.743 2.743 0 0 1 1.486-.4c2.286 0 3.2 2.114 3.2 5.486a9.038 9.038 0 0 1-.6 3.686 2.69 2.69 0 0 1-2.6 1.829c-2.286 0-3.2-2.143-3.2-5.514 0-2.516.515-4.316 1.715-5.087z" transform="translate(-149.214 -118.6)"/>
                </g>
                <g id="그룹_40470" transform="translate(15.486 29.371)">
                    <path id="패스_30676" d="M73.229 128.686a26.917 26.917 0 0 0 5-3.943 6.857 6.857 0 0 0 2.2-4.8c0-3.829-3.229-6.343-7.714-6.343A10.508 10.508 0 0 0 65 116.771l.2.229 2.514 3.029a7.064 7.064 0 0 1 5-2.086c1.486 0 2.714.686 2.714 2a3.626 3.626 0 0 1-1.457 2.714 81.328 81.328 0 0 1-8.343 6.429v3.829h14.943v-4.286h-7.342z" class="cls-4" transform="translate(-65 -113.6)"/>
                    <path id="패스_30677" d="M134.271 113.6a7.407 7.407 0 0 0-6.514 3.514 11.905 11.905 0 0 0-1.657 6.314c0 5.029 2.6 9.857 8.171 9.857a7.34 7.34 0 0 0 5.343-2.086 10.9 10.9 0 0 0 2.829-7.771c0-5.028-2.6-9.828-8.172-9.828zm1.486 14.971a2.743 2.743 0 0 1-1.486.4c-2.286 0-3.2-2.143-3.2-5.514a9.442 9.442 0 0 1 .571-3.657 2.7 2.7 0 0 1 2.629-1.829c2.286 0 3.2 2.114 3.2 5.486 0 2.514-.514 4.343-1.714 5.114z" class="cls-4" transform="translate(-108.643 -113.6)"/>
                    <path id="패스_30678" d="M196.671 113.6a7.407 7.407 0 0 0-6.514 3.514 11.905 11.905 0 0 0-1.657 6.314c0 5.029 2.6 9.857 8.171 9.857a7.34 7.34 0 0 0 5.343-2.086 10.9 10.9 0 0 0 2.829-7.771c0-5.028-2.6-9.828-8.172-9.828zm1.457 14.971a2.644 2.644 0 0 1-1.457.4c-2.286 0-3.2-2.143-3.2-5.514a9.442 9.442 0 0 1 .571-3.657 2.7 2.7 0 0 1 2.629-1.829c2.286 0 3.2 2.114 3.2 5.486 0 2.514-.514 4.343-1.742 5.114z" class="cls-4" transform="translate(-153.214 -113.6)"/>
                </g>
                <circle id="타원_1156" cx="1.343" cy="1.343" r="1.343" class="cls-4" transform="translate(52.543 15.029)"/>
                <circle id="타원_1157" cx="1.114" cy="1.114" r="1.114" class="cls-4" transform="translate(12.743 52.371)"/>
                <path id="패스_30679" d="M79.3 63.4c0 2.371-1.057 3.4-3.4 3.4 2.371 0 3.4 1.057 3.4 3.4 0-2.371 1.057-3.4 3.4-3.4-2.371 0-3.4-1.029-3.4-3.4z" class="cls-4" transform="translate(-57.3 -48.371)"/>
                <path id="패스_30680" d="M178.586 236.4c0 1.857-.829 2.686-2.686 2.686 1.857 0 2.686.829 2.686 2.686 0-1.857.829-2.686 2.686-2.686-1.858 0-2.686-.829-2.686-2.686z" class="cls-4" transform="translate(-128.729 -171.943)"/>
                <path id="패스_30681" d="M258 150.3c0 1.257-.543 1.8-1.8 1.8 1.257 0 1.8.543 1.8 1.8 0-1.257.543-1.8 1.8-1.8-1.257-.029-1.8-.571-1.8-1.8z" class="cls-4" transform="translate(-186.086 -110.443)"/>
            </g>
            <text id="challenge" fill="#fff" font-family="Roboto-Bold, Roboto" font-size="7px" font-weight="700" letter-spacing="-0.015em" transform="translate(50.8 70.8)">
                <tspan x="-19.312" y="0">CHALLENGE</tspan>
            </text>
        </g>
    </g>
</svg>
