<svg xmlns="http://www.w3.org/2000/svg" width="166" height="84.001" viewBox="0 0 166 84.001">
    <defs>
        <linearGradient id="32n46inwza" x1=".07" x2=".777" y1=".84" y2=".906" gradientUnits="objectBoundingBox">
            <stop offset="0" stop-color="#f44765"/>
            <stop offset="1" stop-color="#ffd41d"/>
        </linearGradient>
    </defs>
    <path fill="url(#32n46inwza)" d="M33.01 84h-33C0 83.619 0 83.293 0 83a83.614 83.614 0 0 1 1.686-16.728 82.545 82.545 0 0 1 12.489-29.678A83.242 83.242 0 0 1 50.692 6.523a82.583 82.583 0 0 1 15.58-4.836 83.81 83.81 0 0 1 33.455 0 82.545 82.545 0 0 1 29.679 12.489 83.241 83.241 0 0 1 30.071 36.517 82.581 82.581 0 0 1 4.836 15.58A83.614 83.614 0 0 1 166 83c0 .324 0 .66-.006 1h-33c.006-.331.01-.667.01-1A50 50 0 1 0 33 83c0 .317 0 .653.01 1z"/>
</svg>
