<svg xmlns="http://www.w3.org/2000/svg" width="52" height="55.424" viewBox="0 0 52 55.424">
    <defs>
        <style>
            .cls-4{fill:#2c7743}.cls-6,.cls-7{fill:#154e27}.cls-7{opacity:.3}
        </style>
    </defs>
    <g id="img_etiquette01" transform="translate(-13 -208)">
        <ellipse id="타원_1477" cx="18.877" cy="10.67" fill="#1e1c1e" opacity="0.2" rx="18.877" ry="10.67" transform="translate(20.688 236.934)"/>
        <g id="그룹_43256" transform="translate(21.188 211.806)">
            <path id="패스_37373" fill="#378951" d="M176.845 173.48c-12 0-14.841-7.576-14.841-7.576l2.485 25.882a4.523 4.523 0 0 0 2.564 3.858 19.552 19.552 0 0 0 18.523.546c2.534-1.269 3.283-1.664 3.8-5.375 0-.025 2.257-24.913 2.257-24.913s-2.786 7.578-14.788 7.578z" transform="translate(-161.867 -155.276)"/>
            <path id="패스_37374" d="M187.208 150.97c-5.84-3.372-15.309-3.372-21.149 0-1.1.632-4.371 2.571-4.371 2.571s-.009.911-.009 2.292c0 2.21 1.46 4.42 4.38 6.106 5.84 3.372 15.309 3.372 21.149 0 2.92-1.686 4.38-3.9 4.38-6.105v-2.035s-3.097-2.088-4.38-2.829z" class="cls-4" transform="translate(-161.679 -145.193)"/>
            <path id="패스_37375" fill="#6bcb88" d="M187.279 143.291c-5.854-3.38-15.345-3.38-21.2 0-5.753 3.322-5.753 8.915 0 12.237 5.853 3.38 15.344 3.38 21.2 0 5.752-3.322 5.752-8.916 0-12.237z" transform="translate(-161.729 -140.755)"/>
            <ellipse id="타원_1476" cx="12.519" cy="7.228" class="cls-6" rx="12.519" ry="7.228" transform="translate(2.431 1.426)"/>
            <path id="패스_37376" d="M217.917 175.1s-.829-.14-2.087-.339c-2.013-.319-4.237.693-6.194 3.11-3.915 4.835-5.28 13.462-3.05 19.27 1.115 2.9 2.918 4.553 4.931 4.871l1.855.293s2.348-2.52 3.208-3.582c3.914-4.835 5.28-13.462 3.05-19.27-.418-1.084-1.713-4.353-1.713-4.353z" class="cls-6" transform="translate(-186.99 -160.359)"/>
            <path id="패스_37377" d="M214.024 178.661c-3.915 4.835-5.281 13.463-3.05 19.271 2.192 5.708 7.277 6.512 11.124 1.761 3.915-4.835 5.281-13.463 3.05-19.271-2.191-5.708-7.276-6.513-11.124-1.761z" class="cls-4" transform="translate(-189.523 -160.851)"/>
            <path id="패스_37378" d="M233.284 200.319l-2.039-.319s-.319.06-.457.934.141 1.064.141 1.064l1.529.242-2.175 2.69a1.257 1.257 0 0 1-1.058.407l-2.04-.323s-.42.041-.572 1 .256 1 .256 1l2.04.323a3.5 3.5 0 0 0 2.946-1.131l2.5-3.089a1.651 1.651 0 0 0-1.072-2.791z" class="cls-6" transform="translate(-199.152 -174.961)"/>
            <path id="패스_37379" d="M194.106 195.181a1.85 1.85 0 0 0-1.443 1.83l-.076 14.219a1.851 1.851 0 0 0 1.424 1.845 1.809 1.809 0 0 0 2.19-1.758l.076-14.355a1.809 1.809 0 0 0-2.171-1.781z" class="cls-7" transform="translate(-179.525 -172.16)"/>
            <path id="패스_37380" d="M174.267 189.746a1.851 1.851 0 0 0-1.384 1.875l.373 14.215a1.85 1.85 0 0 0 1.481 1.8 1.809 1.809 0 0 0 2.134-1.826l-.377-14.35a1.809 1.809 0 0 0-2.227-1.714z" class="cls-7" transform="translate(-168.147 -169.014)"/>
        </g>
    </g>
</svg>
