<svg xmlns="http://www.w3.org/2000/svg" width="52" height="54.387" viewBox="0 0 52 54.387">
    <defs>
        <style>
            .cls-3{fill:#fff}.cls-11{fill:#1d3391}.cls-16{fill:#6586f5}
        </style>
    </defs>
    <g id="img_etiquette03" transform="translate(-13 -447)">
        <ellipse id="타원_1475" cx="19.515" cy="10.047" fill="#1e1c1e" opacity="0.2" rx="19.515" ry="10.047" transform="translate(19.05 476.144)"/>
        <g id="그룹_43255" transform="translate(19.065 450.314)">
            <g id="그룹_43251" transform="translate(0 7.287)">
                <ellipse id="타원_1474" cx="9.652" cy="16.718" class="cls-3" rx="9.652" ry="16.718" transform="rotate(-30 18.01 4.826)"/>
                <path id="패스_37346" fill="#fedb59" d="M834.873 132.967c0 3.769-1.323 6.418-3.462 7.653l-8.359-14.477v-13.65c6.529 3.769 11.821 12.935 11.821 20.474z" transform="translate(-806.334 -106.838)"/>
                <path id="패스_37347" fill="#211d91" d="M772.865 126.581l-1.353.781q.154.273.314.543l1.353-.781c.087-.05.087-.212 0-.362s-.228-.231-.314-.181zm18.975 2.6l-3.193-1.843c-.214-.124-.388-.024-.388.224a.857.857 0 0 0 .388.672l3.193 1.844c0-.146.007-.294.007-.444s-.003-.302-.008-.453zm-4.967 5.487c-.087.05-.087.212 0 .362l1.353 2.344q.16-.085.313-.181l-1.353-2.343c-.086-.15-.227-.232-.314-.182zm-15.08-16.613a.858.858 0 0 0-.388-.672l-3.193-1.844c0 .147-.007.294-.007.444s0 .3.007.452l3.193 1.843c.213.122.387.022.387-.223zm7.845-9.112v3.687a.858.858 0 0 0 .388.672c.214.124.388.023.388-.224v-3.688c-.129-.079-.258-.157-.388-.232s-.26-.146-.389-.215zm.388 23.372c-.214-.123-.388-.023-.388.224v3.687c.129.079.258.157.388.232s.259.146.388.216v-3.687a.858.858 0 0 0-.389-.672zm7-13.295a.157.157 0 0 0 .157.016l1.353-.781q-.154-.273-.313-.543l-1.353.781c-.087.05-.087.212 0 .362a.452.452 0 0 0 .159.165zm-15.2-10.777q-.16.086-.313.181l1.353 2.343a.452.452 0 0 0 .157.166.156.156 0 0 0 .157.016c.087-.05.087-.212 0-.362z" transform="translate(-763.308 -103.504)"/>
                <path id="패스_37348" d="M820.741 172.212c0 .559-.392.785-.876.506a1.936 1.936 0 0 1-.876-1.517c0-.559.392-.785.876-.506a1.935 1.935 0 0 1 .876 1.517z" class="cls-3" transform="translate(-803.147 -152.403)"/>
                <path id="패스_37349" fill="#d9186d" d="M814.911 164.07l5.735 9.437c.076.129.2.2.272.154s.076-.182 0-.312l-5.305-9.685a2.189 2.189 0 0 0-.284-1.881 2.383 2.383 0 0 0-1.314-1.157l-.992-1.718c-.124-.215-.326-.332-.45-.26l-.488.281c-.124.072-.124.3 0 .52l.992 1.718a2.383 2.383 0 0 0 .345 1.716 2.189 2.189 0 0 0 1.489 1.187zm-1.153-2.81c.342-.2.9.123 1.239.715s.342 1.233 0 1.43-.9-.123-1.239-.715-.342-1.232 0-1.43z" transform="translate(-797.659 -143.029)"/>
                <path id="패스_37350" d="M820.741 172.212c0 .559-.392.785-.876.506a1.936 1.936 0 0 1-.876-1.517c0-.559.392-.785.876-.506a1.935 1.935 0 0 1 .876 1.517z" class="cls-3" transform="translate(-803.147 -152.403)"/>
            </g>
            <path id="패스_37351" d="M795.238 130.808c0-7.539-5.292-16.706-11.821-20.475-3.073-1.774-5.873-2.036-7.975-1.03 2.168-1.811 5.465-1.863 9.158.269 6.529 3.769 11.821 12.936 11.821 20.475 0 3.99-1.483 6.724-3.847 7.855 1.665-1.391 2.664-3.82 2.664-7.094z" transform="translate(-768.986 -95.993)" style="mix-blend-mode:multiply;isolation:isolate" fill="#7974f2" opacity="0.15"/>
            <path id="패스_37352" fill="#5a95d9" d="M767.108 110.291c-1.82 1.35-2.924 3.857-2.924 7.3 0 7.539 5.293 16.706 11.822 20.476 2.981 1.721 5.7 2.018 7.783 1.117-2.167 1.6-5.344 1.566-8.887-.48-6.529-3.769-11.822-12.937-11.822-20.476 0-4.092 1.56-6.86 4.028-7.937z" transform="translate(-759.288 -97.824)"/>
            <path id="패스_37353" fill="#658cf5" d="M767.67 83.06c.867-.636 1.647-1.047 1.742-.917l1.131 1.6c-.1-.13-.875.281-1.742.917s-1.482 1.246-1.4 1.383l-1.131-1.6c-.082-.137.541-.752 1.4-1.383z" transform="translate(-761.785 -75.724)"/>
            <path id="패스_37354" fill="#141069" d="M771.519 91.871c.1.133.878-.277 1.745-.913s1.493-1.257 1.4-1.387-.875.281-1.742.917-1.485 1.246-1.403 1.383z" transform="translate(-765.902 -81.55)"/>
            <g id="그룹_43252" transform="translate(6.053 8.327)">
                <path id="패스_37355" d="M773.721 92.823a4.654 4.654 0 0 0 1.134-.665c.623-.457 1.073-.9 1.005-1l.686.945c.068.094-.382.54-1.005 1s-1.185.753-1.253.659l-.686-.945c.016.021.057.022.119.006z" class="cls-11" transform="translate(-773.595 -91.143)"/>
                <path id="패스_37356" d="M773.577 92.754c.068.093.63-.2 1.253-.659s1.074-.9 1.005-1-.63.2-1.253.659-1.073.906-1.005 1z" class="cls-11" transform="translate(-773.57 -91.08)"/>
            </g>
            <path id="패스_37357" fill="#6591f5" d="M796.652 111.474c0-8.623-6.053-19.108-13.521-23.419-3.734-2.156-7.114-2.36-9.561-.947l5.5-3.177c2.447-1.413 5.827-1.209 9.561.947 7.468 4.311 13.521 14.8 13.521 23.419 0 4.311-1.513 7.341-3.96 8.753l-5.5 3.177c2.446-1.413 3.96-4.442 3.96-8.753z" transform="translate(-767.517 -76.439)"/>
            <path id="패스_37358" fill="#2e54ab" d="M759.155 98.672c2.447-1.413 5.827-1.209 9.561.947 7.468 4.311 13.521 14.8 13.521 23.419 0 4.311-1.514 7.341-3.96 8.753s-5.827 1.209-9.561-.947c-7.467-4.311-13.521-14.8-13.521-23.419.005-4.311 1.514-7.34 3.96-8.753zm9.561 30.21c6.529 3.77 11.822.714 11.822-6.825s-5.293-16.706-11.822-20.476-11.822-.714-11.822 6.825 5.293 16.707 11.822 20.476z" transform="translate(-753.102 -88.003)"/>
            <g id="그룹_43253" transform="translate(17.68 7.918)">
                <path id="패스_37359" d="M828.041 97.674a.771.771 0 0 0 0 1.461 2.8 2.8 0 0 0 2.531 0 .771.771 0 0 0 0-1.461 2.8 2.8 0 0 0-2.531 0z" class="cls-11" transform="translate(-827.517 -95.606)"/>
                <path id="사각형_18732" d="M0 0H3.579V2.798H0z" class="cls-11"/>
            </g>
            <path id="패스_37360" fill="#2e4bab" d="M812.656 68.9a8.328 8.328 0 0 0 7.536 0 2.648 2.648 0 0 0 1.561-2.175v3.153a2.648 2.648 0 0 1-1.561 2.176 8.329 8.329 0 0 1-7.536 0 2.648 2.648 0 0 1-1.561-2.176V66.72a2.648 2.648 0 0 0 1.561 2.18z" transform="translate(-796.954 -63.643)"/>
            <path id="패스_37361" fill="#6597f5" d="M812.656 53.346a2.3 2.3 0 0 0 0 4.351 8.328 8.328 0 0 0 7.536 0 2.3 2.3 0 0 0 0-4.351 8.328 8.328 0 0 0-7.536 0z" transform="translate(-796.954 -52.445)"/>
            <g id="그룹_43254" transform="translate(14.714 5.148)">
                <path id="패스_37362" d="M856.556 78.328a.16.16 0 0 0 .16-.16v-1.679a.16.16 0 0 0-.32 0v1.679a.16.16 0 0 0 .16.16z" class="cls-16" transform="translate(-847.206 -76.329)"/>
                <path id="패스_37363" d="M849.45 82.561a.16.16 0 0 0 .16-.16v-2.056a.16.16 0 1 0-.32 0V82.4a.16.16 0 0 0 .16.161z" class="cls-16" transform="translate(-841.632 -79.354)"/>
                <path id="패스_37364" d="M842.344 84.483a.16.16 0 0 0 .16-.16V82.2a.16.16 0 0 0-.32 0v2.123a.16.16 0 0 0 .16.16z" class="cls-16" transform="translate(-836.058 -80.809)"/>
                <path id="패스_37365" d="M813.918 78.328a.16.16 0 0 0 .16-.16v-1.679a.16.16 0 0 0-.32 0v1.679a.16.16 0 0 0 .16.16z" class="cls-16" transform="translate(-813.758 -76.329)"/>
                <path id="패스_37366" d="M821.025 82.561a.16.16 0 0 0 .16-.16v-2.056a.16.16 0 1 0-.32 0V82.4a.16.16 0 0 0 .16.161z" class="cls-16" transform="translate(-819.333 -79.354)"/>
                <path id="패스_37367" d="M828.131 84.483a.16.16 0 0 0 .16-.16V82.2a.16.16 0 0 0-.32 0v2.123a.16.16 0 0 0 .16.16z" class="cls-16" transform="translate(-824.908 -80.809)"/>
                <path id="패스_37368" d="M835.237 85.066a.16.16 0 0 0 .16-.16v-2.137a.16.16 0 0 0-.32 0v2.138a.16.16 0 0 0 .16.159z" class="cls-16" transform="translate(-830.482 -81.256)"/>
            </g>
            <path id="패스_37369" d="M865.232 130.13a1.2 1.2 0 0 1 .107-.055l2.1-.96a1.2 1.2 0 0 0-.107.055c-1.169.68-.347 2.574.958 2.922a1.288 1.288 0 0 0 .878-.058l-2.1.96a1.286 1.286 0 0 1-.878.058c-1.305-.352-2.127-2.242-.958-2.922z" class="cls-11" transform="translate(-838.983 -112.59)"/>
            <path id="패스_37370" fill="#2e50ab" d="M871.341 122.477l.028-.016 1.613-.9-.028.016c-1.808 1.052-.537 3.982 1.482 4.522a1.966 1.966 0 0 0 1.487-.155l-1.613.9a1.965 1.965 0 0 1-1.487.155c-2.023-.54-3.291-3.469-1.482-4.522z" transform="translate(-843.534 -106.663)"/>
            <path id="패스_37371" fill="#789ef5" d="M882.25 121.655c.9 1.451.495 2.82-.455 3.351a1.965 1.965 0 0 1-1.487.155c-2.018-.539-3.29-3.469-1.482-4.521l.028-.016a2.724 2.724 0 0 1 3.396 1.031z" transform="translate(-849.407 -105.729)"/>
        </g>
    </g>
</svg>
