<svg xmlns="http://www.w3.org/2000/svg" width="102.15" height="38" viewBox="0 0 102.15 38">
    <defs>
        <style>
            .cls-2{fill:#d09e17;stroke:#d09e17;stroke-width:.3px}
        </style>
    </defs>
    <g id="img_login_logo_happycar" transform="translate(-23.85 -84.212)">
        <g id="그룹_40591" transform="translate(24 90.79)">
            <path id="패스_30454" d="M77.964 205.1H72.2c-.7-.92-3.834-5.051-4.605-6.336a5.191 5.191 0 0 0-2.43-1.96 5.744 5.744 0 0 0-2.362-.5H49.028c-3.021 0-4.11 1.745-4.332 2.171l-4.355 6.625h-5.127a3.4 3.4 0 0 0-3.392 3.391v7.557a3.4 3.4 0 0 0 3.392 3.392h3.956a6.541 6.541 0 0 0 12.8 0h8.638c.622 3.008 3.273 5.569 6.4 5.19a7.861 7.861 0 0 0 6.4-5.19h4.555a3.4 3.4 0 0 0 3.392-3.392v-7.557a3.4 3.4 0 0 0-3.391-3.391zm1.7 10.948a1.7 1.7 0 0 1-1.7 1.7h-5.283a.845.845 0 0 0-.842.771 4.849 4.849 0 0 1-9.66 0 .845.845 0 0 0-.842-.771h-10.1a.846.846 0 0 0-.843.771 4.848 4.848 0 0 1-9.659 0 .845.845 0 0 0-.842-.771h-4.679a1.7 1.7 0 0 1-1.7-1.7v-7.557a1.7 1.7 0 0 1 1.7-1.7H40.8a.844.844 0 0 0 .706-.381l4.634-7.046a1.072 1.072 0 0 0 .064-.116c.025-.051.624-1.251 2.828-1.251H62.8a4.058 4.058 0 0 1 1.672.351 3.738 3.738 0 0 1 1.671 1.288c.913 1.522 4.69 6.464 4.83 6.647l.105.149a.845.845 0 0 0 .691.36h6.194a1.7 1.7 0 0 1 1.7 1.7z" class="cls-2" transform="translate(-31.822 -196.305)"/>
            <path id="패스_30455" d="M48.958 216.709h-3.147v-3.147a.676.676 0 0 0-1.352 0v3.147h-3.148a.676.676 0 1 0 0 1.352h3.147v3.146a.676.676 0 0 0 1.352 0v-3.146h3.147a.676.676 0 1 0 0-1.352z" class="cls-2" transform="translate(-34.675 -201.673)"/>
            <path id="패스_30456" d="M63.811 218.539h-7.646a.676.676 0 1 0 0 1.352h7.646a.676.676 0 1 0 0-1.352z" class="cls-2" transform="translate(-39.484 -203.504)"/>
            <path id="패스_30457" d="M91.329 218.539h-7.646a.676.676 0 1 0 0 1.352h7.646a.676.676 0 1 0 0-1.352z" class="cls-2" transform="translate(-48.393 -203.504)"/>
            <path id="패스_30458" d="M77.007 214.905a.675.675 0 0 0-.956 0l-2.225 2.226-2.226-2.226a.676.676 0 0 0-.956.956l2.226 2.226-2.226 2.225a.676.676 0 1 0 .956.956l2.226-2.225 2.225 2.225a.676.676 0 0 0 .956-.956l-2.225-2.225 2.225-2.226a.675.675 0 0 0 0-.956z" class="cls-2" transform="translate(-44.327 -202.263)"/>
            <path id="패스_30459" d="M89.158 215.807a1.049 1.049 0 1 0-1.049-1.049 1.05 1.05 0 0 0 1.049 1.049z" class="cls-2" transform="translate(-50.045 -201.94)"/>
            <path id="패스_30460" d="M89.158 222.064a1.049 1.049 0 1 0 1.048 1.049 1.05 1.05 0 0 0-1.048-1.049z" class="cls-2" transform="translate(-50.045 -204.645)"/>
            <text id="행복카" fill="#d09e17" font-family="AppleSDGothicNeo-Regular, Apple SD Gothic Neo" font-size="13px" transform="translate(53 20.421)">
                <tspan x="0" y="0">행복카</tspan>
            </text>
        </g>
    </g>
</svg>
