<svg xmlns="http://www.w3.org/2000/svg" width="102" height="102" viewBox="0 0 102 102">
    <defs>
        <filter id="사각형_16016" width="102" height="102" x="0" y="5" filterUnits="userSpaceOnUse">
            <feOffset dy="5"/>
            <feGaussianBlur result="blur" stdDeviation="5"/>
            <feFlood flood-opacity=".161"/>
            <feComposite in2="blur" operator="in"/>
            <feComposite in="SourceGraphic"/>
        </filter>
        <filter id="사각형_17233" width="102" height="102" x="0" y="-7" filterUnits="userSpaceOnUse">
            <feOffset dy="-7"/>
            <feGaussianBlur result="blur-2" stdDeviation="5"/>
            <feFlood flood-color="#fff" flood-opacity=".969"/>
            <feComposite in2="blur-2" operator="in"/>
            <feComposite in="SourceGraphic"/>
        </filter>
        <linearGradient id="linear-gradient" x1=".5" x2=".5" y2="1" gradientUnits="objectBoundingBox">
            <stop offset="0" stop-color="#ffd41d"/>
            <stop offset="1" stop-color="#ffd41d" stop-opacity="0"/>
        </linearGradient>
        <clipPath id="clip-path">
            <path id="area" d="M0 0H102V102H0z" class="cls-1" transform="translate(116 118)"/>
        </clipPath>
        <style>
            .cls-1,.cls-3{fill:#fff}.cls-1{opacity:0}
        </style>
    </defs>
    <g id="img_find_password" transform="translate(-116 -118)">
        <path id="area-2" d="M0 0H102V102H0z" class="cls-1" transform="translate(116 118)"/>
        <g id="마스크_그룹_158" clip-path="url(#clip-path)">
            <g id="그룹_42301">
                <g filter="url(#사각형_16016)" transform="translate(116 118)">
                    <rect id="사각형_16016-2" width="72" height="72" class="cls-3" rx="36" transform="translate(15 15)"/>
                </g>
                <g filter="url(#사각형_17233)" transform="translate(116 118)">
                    <rect id="사각형_17233-2" width="72" height="72" class="cls-3" rx="36" transform="translate(15 15)"/>
                </g>
            </g>
        </g>
        <path id="사각형_18686" fill="url(#linear-gradient)" d="M0 0H24V15H0z" opacity="0.3" transform="translate(155 169)"/>
        <path id="합치기_17" fill="#ffd41d" stroke="#ffd41d" stroke-width="1.5px" d="M-1199.764 2273a3.24 3.24 0 0 1-3.236-3.235v-10.029a3.24 3.24 0 0 1 3.236-3.235h1.264v-6a7.509 7.509 0 0 1 7.5-7.5 7.509 7.509 0 0 1 7.5 7.5v6h1.264a3.24 3.24 0 0 1 3.235 3.235v10.029a3.24 3.24 0 0 1-3.235 3.235zm-1.736-13.264v10.029a1.738 1.738 0 0 0 1.736 1.735h17.529a1.738 1.738 0 0 0 1.735-1.735v-10.029a1.738 1.738 0 0 0-1.735-1.735h-17.529a1.738 1.738 0 0 0-1.736 1.734zm4.5-9.236v6h12v-6a6.006 6.006 0 0 0-6-6 6.005 6.005 0 0 0-6 6zm4.5 15a.75.75 0 0 1-.75-.75.75.75 0 0 1 .75-.75h3a.751.751 0 0 1 .75.75.751.751 0 0 1-.75.75z" transform="translate(1358 -2089)"/>
    </g>
</svg>
