<svg xmlns="http://www.w3.org/2000/svg" width="154" height="148" viewBox="0 0 154 148">
    <defs>
        <style>
            .cls-4{fill:#b9bbc1;opacity:.297}.cls-8{fill:#fff}.cls-15{fill:#f2f2f2}
        </style>
    </defs>
    <g id="img_illust_delete_account" transform="translate(4 -78)">
        <circle id="타원_1267" cx="57" cy="57" r="57" fill="#ff623c" transform="translate(16 98)"/>
        <g id="그룹_40839" transform="translate(36.604 111.809)">
            <g id="그룹_40834" transform="translate(0 8.776)">
                <path id="패스_31658" d="M1619.017 894.65l-37.124 18.566-37.124-18.566 37.124-18.566z" opacity="0.115" transform="translate(-1544.769 -820.407)"/>
                <path id="패스_31686" d="M1853.572 710.317l37.124-18.566V645.46l-37.124 13.026z" class="cls-4" transform="translate(-1853.343 -645.46)"/>
                <path id="패스_31687" d="M1581.893 710.317l-37.124-18.566V645.46l37.124 13.026z" class="cls-4" transform="translate(-1507.874 -645.46)"/>
                <path id="패스_31657" d="M1619.017 1095.323l-37.124 18.566-37.124-18.566 37.124-18.566z" opacity="0.05" transform="translate(-1544.769 -1030.672)"/>
                <path id="패스_31659" d="M1581.893 710.317l-37.124-18.566V645.46l37.124 13.026z" opacity="0.297" transform="translate(-1544.769 -627.012)"/>
                <path id="패스_31660" d="M1853.572 710.317l37.124-18.566V645.46l-37.124 13.026z" opacity="0.078" transform="translate(-1816.448 -627.012)"/>
                <g id="그룹_40833" transform="translate(24.972 18.638)">
                    <path id="패스_31524" d="M1865.49 705.219v-14.472l-.747.374v14.472z" class="cls-8" transform="translate(-1851.248 -685.493)"/>
                    <path id="패스_31525" d="M1853.061 711.435v-14.472l-.747.374v14.472z" class="cls-8" transform="translate(-1840.313 -690.961)"/>
                    <path id="패스_31526" d="M1752.493 747.086v14.472l.794-.4v-14.469z" class="cls-8" transform="translate(-1752.493 -734.71)"/>
                    <path id="패스_31527" d="M1927.635 674.14v-14.472l-.747.374v14.472z" class="cls-8" transform="translate(-1905.922 -658.15)"/>
                    <path id="패스_31528" d="M1940.063 667.924v-14.471l-.747.374V668.3z" class="cls-8" transform="translate(-1916.857 -652.682)"/>
                    <path id="패스_31529" d="M1890.348 692.788v-14.472l-.747.374v14.472z" class="cls-8" transform="translate(-1873.118 -674.556)"/>
                    <path id="패스_31530" d="M1915.206 680.356v-14.472l-.747.374v14.472z" class="cls-8" transform="translate(-1894.987 -663.619)"/>
                    <path id="패스_31531" d="M1902.777 686.572V672.1l-.747.374v14.472z" class="cls-8" transform="translate(-1884.052 -669.087)"/>
                    <path id="패스_31532" d="M1877.919 699v-14.469l-.747.374v14.472z" class="cls-8" transform="translate(-1862.183 -680.024)"/>
                    <path id="패스_31533" d="M1952.539 647.042l-.794.4v14.472l.794-.4z" class="cls-8" transform="translate(-1927.791 -647.042)"/>
                    <path id="패스_31534" d="M1778.488 748.73v-14.472l-.747.374V749.1z" class="cls-8" transform="translate(-1774.705 -723.773)"/>
                    <path id="패스_31535" d="M1815.774 730.082V715.61l-.747.374v14.472z" class="cls-8" transform="translate(-1807.509 -707.367)"/>
                    <path id="패스_31536" d="M1803.346 736.3v-14.474l-.747.374v14.472z" class="cls-8" transform="translate(-1796.574 -712.836)"/>
                    <path id="패스_31537" d="M1766.059 754.945v-14.471l-.747.374v14.472z" class="cls-8" transform="translate(-1763.771 -729.241)"/>
                    <path id="패스_31538" d="M1790.917 742.514v-14.472l-.747.374v14.472z" class="cls-8" transform="translate(-1785.64 -718.304)"/>
                    <path id="패스_31539" d="M1840.632 717.651v-14.472l-.747.374v14.472z" class="cls-8" transform="translate(-1829.379 -696.43)"/>
                    <path id="패스_31540" d="M1828.2 723.867v-14.472l-.747.374v14.471z" class="cls-8" transform="translate(-1818.444 -701.899)"/>
                    <path id="패스_31541" d="M1939.534 658.1v-.722l-.217.109v.721z" class="cls-8" transform="translate(-1916.857 -656.14)"/>
                    <path id="패스_31542" d="M1890.348 680.763v-.721l-.747.374v.721z" class="cls-8" transform="translate(-1873.118 -676.075)"/>
                    <path id="패스_31543" d="M1877.919 686.979v-.721l-.747.374v.722z" class="cls-8" transform="translate(-1862.183 -681.543)"/>
                    <path id="패스_31544" d="M1778.488 736.706v-.721l-.747.374v.721z" class="cls-8" transform="translate(-1774.705 -725.291)"/>
                    <path id="패스_31545" d="M1865.49 693.195v-.721l-.747.374v.721z" class="cls-8" transform="translate(-1851.248 -687.012)"/>
                    <path id="패스_31546" d="M1927.635 662.116v-.721l-.747.374v.722z" class="cls-8" transform="translate(-1905.922 -659.669)"/>
                    <path id="패스_31547" d="M1915.206 668.332v-.721l-.747.374v.722z" class="cls-8" transform="translate(-1894.987 -665.138)"/>
                    <path id="패스_31548" d="M1902.777 674.548v-.722l-.747.374v.722z" class="cls-8" transform="translate(-1884.052 -670.606)"/>
                    <path id="패스_31549" d="M1853.061 699.411v-.721l-.747.374v.721z" class="cls-8" transform="translate(-1840.313 -692.48)"/>
                    <path id="패스_31550" d="M1769.658 742.312v.721l.225-.112v-.721z" class="cls-8" transform="translate(-1767.594 -730.76)"/>
                    <path id="패스_31551" d="M1815.774 718.058v-.721l-.747.374v.721z" class="cls-8" transform="translate(-1807.509 -708.886)"/>
                    <path id="패스_31552" d="M1840.632 705.627v-.721l-.747.374v.72z" class="cls-8" transform="translate(-1829.379 -697.949)"/>
                    <path id="패스_31553" d="M1828.2 711.842v-.721l-.747.374v.721z" class="cls-8" transform="translate(-1818.444 -703.417)"/>
                    <path id="패스_31554" d="M1803.346 724.274v-.721l-.747.374v.721z" class="cls-8" transform="translate(-1796.574 -714.354)"/>
                    <path id="패스_31555" d="M1790.917 730.49v-.721l-.747.374v.721z" class="cls-8" transform="translate(-1785.64 -719.823)"/>
                    <path id="패스_31556" d="M1865.49 705.173v-.722l-.747.374v.721z" class="cls-8" transform="translate(-1851.248 -697.549)"/>
                    <path id="패스_31557" d="M1890.348 692.741v-.721l-.747.374v.722z" class="cls-8" transform="translate(-1873.118 -686.612)"/>
                    <path id="패스_31558" d="M1853.061 711.388v-.722l-.747.374v.722z" class="cls-8" transform="translate(-1840.313 -703.018)"/>
                    <path id="패스_31559" d="M1877.919 698.957v-.721l-.747.374v.722z" class="cls-8" transform="translate(-1862.183 -692.081)"/>
                    <path id="패스_31560" d="M1778.488 748.683v-.721l-.747.374v.721z" class="cls-8" transform="translate(-1774.705 -735.829)"/>
                    <path id="패스_31561" d="M1927.635 674.094v-.722l-.747.374v.721z" class="cls-8" transform="translate(-1905.922 -670.207)"/>
                    <path id="패스_31562" d="M1790.917 742.468v-.722l-.747.374v.721z" class="cls-8" transform="translate(-1785.64 -730.361)"/>
                    <path id="패스_31563" d="M1803.346 736.252v-.721l-.747.374v.722z" class="cls-8" transform="translate(-1796.574 -724.892)"/>
                    <path id="패스_31564" d="M1769.658 754.29v.721l.225-.112v-.722z" class="cls-8" transform="translate(-1767.594 -741.298)"/>
                    <path id="패스_31565" d="M1815.774 730.036v-.721l-.747.374v.722z" class="cls-8" transform="translate(-1807.509 -719.424)"/>
                    <path id="패스_31566" d="M1828.2 723.82v-.72l-.747.374v.722z" class="cls-8" transform="translate(-1818.444 -713.955)"/>
                    <path id="패스_31567" d="M1902.777 686.525v-.725l-.747.374v.721z" class="cls-8" transform="translate(-1884.052 -681.144)"/>
                    <path id="패스_31568" d="M1840.632 717.6v-.721l-.747.374v.721z" class="cls-8" transform="translate(-1829.379 -708.486)"/>
                    <path id="패스_31569" d="M1915.206 680.31v-.722l-.747.374v.721z" class="cls-8" transform="translate(-1894.987 -675.675)"/>
                    <path id="패스_31570" d="M1939.534 670.082v-.722l-.217.109v.722z" class="cls-8" transform="translate(-1916.857 -666.677)"/>
                    <path id="패스_31571" d="M1865.49 717.151v-.722l-.747.374v.721z" class="cls-8" transform="translate(-1851.248 -708.087)"/>
                    <path id="패스_31572" d="M1927.635 686.072v-.721l-.747.374v.722z" class="cls-8" transform="translate(-1905.922 -680.745)"/>
                    <path id="패스_31573" d="M1902.777 698.5v-.721l-.747.374v.721z" class="cls-8" transform="translate(-1884.052 -691.682)"/>
                    <path id="패스_31574" d="M1915.206 692.288v-.722l-.747.374v.722z" class="cls-8" transform="translate(-1894.987 -686.213)"/>
                    <path id="패스_31575" d="M1939.534 682.06v-.721l-.217.109v.721z" class="cls-8" transform="translate(-1916.857 -677.215)"/>
                    <path id="패스_31576" d="M1877.919 710.935v-.721l-.747.374v.721z" class="cls-8" transform="translate(-1862.183 -702.619)"/>
                    <path id="패스_31577" d="M1853.061 723.366v-.722l-.747.374v.721z" class="cls-8" transform="translate(-1840.313 -713.556)"/>
                    <path id="패스_31578" d="M1890.348 704.719V704l-.747.374v.722z" class="cls-8" transform="translate(-1873.118 -697.15)"/>
                    <path id="패스_31579" d="M1828.2 735.8v-.721l-.747.374v.721z" class="cls-8" transform="translate(-1818.444 -724.493)"/>
                    <path id="패스_31580" d="M1790.917 754.445v-.721l-.747.374v.722z" class="cls-8" transform="translate(-1785.64 -740.899)"/>
                    <path id="패스_31581" d="M1815.774 742.014v-.722l-.747.374v.721z" class="cls-8" transform="translate(-1807.509 -729.962)"/>
                    <path id="패스_31582" d="M1778.488 760.661v-.722l-.747.374v.722z" class="cls-8" transform="translate(-1774.705 -746.367)"/>
                    <path id="패스_31583" d="M1803.346 748.23v-.722l-.747.374v.721z" class="cls-8" transform="translate(-1796.574 -735.43)"/>
                    <path id="패스_31584" d="M1769.658 766.268v.721l.225-.112v-.721z" class="cls-8" transform="translate(-1767.594 -751.836)"/>
                    <path id="패스_31585" d="M1840.632 729.582v-.722l-.747.374v.721z" class="cls-8" transform="translate(-1829.379 -719.024)"/>
                    <path id="패스_31586" d="M1890.348 716.7v-.721l-.747.374v.721z" class="cls-8" transform="translate(-1873.118 -707.688)"/>
                    <path id="패스_31587" d="M1877.919 722.913v-.721l-.747.374v.722z" class="cls-8" transform="translate(-1862.183 -713.157)"/>
                    <path id="패스_31588" d="M1790.917 766.423v-.723l-.747.374v.722z" class="cls-8" transform="translate(-1785.64 -751.437)"/>
                    <path id="패스_31589" d="M1902.777 710.481v-.722l-.747.374v.721z" class="cls-8" transform="translate(-1884.052 -702.22)"/>
                    <path id="패스_31590" d="M1939.534 694.038v-.721l-.217.109v.721z" class="cls-8" transform="translate(-1916.857 -687.753)"/>
                    <path id="패스_31591" d="M1769.658 778.246v.722l.225-.112v-.722z" class="cls-8" transform="translate(-1767.594 -762.374)"/>
                    <path id="패스_31592" d="M1915.206 704.266v-.721l-.747.374v.721z" class="cls-8" transform="translate(-1894.987 -696.751)"/>
                    <path id="패스_31593" d="M1865.49 729.128v-.721l-.747.374v.721z" class="cls-8" transform="translate(-1851.248 -718.625)"/>
                    <path id="패스_31594" d="M1778.488 772.639v-.721l-.747.374v.721z" class="cls-8" transform="translate(-1774.705 -756.905)"/>
                    <path id="패스_31595" d="M1927.635 698.05v-.722l-.747.374v.721z" class="cls-8" transform="translate(-1905.922 -691.283)"/>
                    <path id="패스_31596" d="M1840.632 741.56v-.721l-.747.374v.721z" class="cls-8" transform="translate(-1829.379 -729.562)"/>
                    <path id="패스_31597" d="M1828.2 747.776v-.721l-.747.374v.722z" class="cls-8" transform="translate(-1818.444 -735.031)"/>
                    <path id="패스_31598" d="M1815.774 753.992v-.721l-.747.374v.722z" class="cls-8" transform="translate(-1807.509 -740.5)"/>
                    <path id="패스_31599" d="M1853.061 735.344v-.721l-.747.374v.721z" class="cls-8" transform="translate(-1840.313 -724.094)"/>
                    <path id="패스_31600" d="M1803.346 760.208v-.721l-.747.374v.721z" class="cls-8" transform="translate(-1796.574 -745.968)"/>
                    <path id="패스_31601" d="M1865.49 741.106v-.721l-.747.374v.721z" class="cls-8" transform="translate(-1851.248 -729.163)"/>
                    <path id="패스_31602" d="M1877.919 734.891v-.722l-.747.374v.722z" class="cls-8" transform="translate(-1862.183 -723.695)"/>
                    <path id="패스_31603" d="M1915.206 716.243v-.721l-.747.374v.721z" class="cls-8" transform="translate(-1894.987 -707.289)"/>
                    <path id="패스_31604" d="M1939.534 706.016v-.722l-.217.109v.721z" class="cls-8" transform="translate(-1916.857 -698.291)"/>
                    <path id="패스_31605" d="M1890.348 728.675v-.721l-.747.374v.721z" class="cls-8" transform="translate(-1873.118 -718.226)"/>
                    <path id="패스_31606" d="M1927.635 710.027v-.721l-.747.374v.721z" class="cls-8" transform="translate(-1905.922 -701.821)"/>
                    <path id="패스_31607" d="M1902.777 722.459v-.722l-.747.374v.721z" class="cls-8" transform="translate(-1884.052 -712.758)"/>
                    <path id="패스_31608" d="M1769.658 790.224v.721l.225-.112v-.722z" class="cls-8" transform="translate(-1767.594 -772.911)"/>
                    <path id="패스_31609" d="M1778.488 784.617v-.717l-.747.374v.721z" class="cls-8" transform="translate(-1774.705 -767.443)"/>
                    <path id="패스_31610" d="M1828.2 759.754v-.721l-.747.374v.721z" class="cls-8" transform="translate(-1818.444 -745.569)"/>
                    <path id="패스_31611" d="M1790.917 778.4v-.721l-.747.374v.722z" class="cls-8" transform="translate(-1785.64 -761.974)"/>
                    <path id="패스_31612" d="M1803.346 772.185v-.721l-.747.374v.722z" class="cls-8" transform="translate(-1796.574 -756.506)"/>
                    <path id="패스_31613" d="M1853.061 747.322v-.722l-.747.374v.721z" class="cls-8" transform="translate(-1840.313 -734.632)"/>
                    <path id="패스_31614" d="M1840.632 753.538v-.721l-.747.374v.721z" class="cls-8" transform="translate(-1829.379 -740.1)"/>
                    <path id="패스_31615" d="M1815.774 765.97v-.721l-.747.373v.721z" class="cls-8" transform="translate(-1807.509 -751.037)"/>
                    <g id="그룹_40831" opacity="0.5" transform="translate(3.391 16.508)">
                        <path id="패스_31616" d="M1792.315 804.282a.663.663 0 0 0 .489.717v-1.924a2.028 2.028 0 0 0-.489 1.207z" class="cls-8" transform="translate(-1790.919 -800.824)"/>
                        <path id="패스_31617" d="M1803.345 798.888V797.1a.965.965 0 0 0-.747.075v2.383a2.27 2.27 0 0 0 .747-.67z" class="cls-8" transform="translate(-1799.966 -795.529)"/>
                        <g id="그룹_40830">
                            <path id="패스_31618" d="M1790.17 826.461v.668a1.929 1.929 0 0 0 .747-.027v-.544a1.3 1.3 0 0 1-.747-.097z" class="cls-8" transform="translate(-1789.032 -821.399)"/>
                            <path id="패스_31619" d="M1802.6 821.315v.518a4.267 4.267 0 0 0 .747-.5v-.551a3.547 3.547 0 0 1-.747.533z" class="cls-8" transform="translate(-1799.966 -816.406)"/>
                            <path id="패스_31620" d="M1790.917 790.912v-.544a5.12 5.12 0 0 0-.747.72v.668a4.287 4.287 0 0 1 .747-.844z" class="cls-8" transform="translate(-1789.032 -789.645)"/>
                            <path id="패스_31621" d="M1815.562 786.269a3.243 3.243 0 0 1-.535 1.652v.7a5.236 5.236 0 0 0 .747-1.235v-2.436a1.272 1.272 0 0 0-.747-.488v.7a1.231 1.231 0 0 1 .535 1.107z" class="cls-8" transform="translate(-1810.901 -784.445)"/>
                            <path id="패스_31622" d="M1803.345 784.905v-.551a2.908 2.908 0 0 0-.747.252v.518a2.175 2.175 0 0 1 .747-.219z" class="cls-8" transform="translate(-1799.966 -784.354)"/>
                            <path id="패스_31623" d="M1780.7 807.524a1.7 1.7 0 0 0 .391 1.166v-2.723a3.708 3.708 0 0 0-.391 1.557z" class="cls-8" transform="translate(-1780.703 -803.369)"/>
                        </g>
                        <path id="패스_31624" d="M1802.732 793.544a.1.1 0 0 0-.135-.1v.337a.325.325 0 0 0 .135-.237z" class="cls-8" transform="translate(-1799.966 -792.346)"/>
                        <path id="패스_31625" d="M1794.313 798.551c-.085.091-.114.214-.065.274s.152.035.236-.051v-.309a.235.235 0 0 0-.171.086z" class="cls-8" transform="translate(-1792.599 -796.769)"/>
                        <path id="패스_31626" d="M1790.412 805.834c.049-.109.02-.2-.065-.21a.243.243 0 0 0-.177.092v.3a.292.292 0 0 0 .242-.182z" class="cls-8" transform="translate(-1789.032 -803.067)"/>
                        <path id="패스_31627" d="M1790.225 813.227a.1.1 0 0 0-.055-.1v.254a.285.285 0 0 0 .055-.154z" class="cls-8" transform="translate(-1789.032 -809.668)"/>
                        <path id="패스_31628" d="M1790.347 819.022c.085-.091.114-.214.065-.274s-.157-.035-.242.056v.3a.23.23 0 0 0 .177-.082z" class="cls-8" transform="translate(-1789.032 -814.584)"/>
                        <path id="패스_31629" d="M1794.248 821.306c-.049.109-.02.2.065.21a.238.238 0 0 0 .171-.086v-.309a.3.3 0 0 0-.236.185z" class="cls-8" transform="translate(-1792.599 -816.701)"/>
                        <path id="패스_31630" d="M1802.732 819.725a.1.1 0 0 0-.135-.1v.337a.326.326 0 0 0 .135-.237z" class="cls-8" transform="translate(-1799.966 -815.38)"/>
                        <path id="패스_31631" d="M1807.4 814.818c-.085.091-.114.214-.065.274.033.041.094.04.156.008v-.349a.3.3 0 0 0-.091.067z" class="cls-8" transform="translate(-1804.116 -811.097)"/>
                        <path id="패스_31632" d="M1815.027 808.269v.031a.144.144 0 0 0 0-.031z" class="cls-8" transform="translate(-1810.901 -805.394)"/>
                        <path id="패스_31633" d="M1815.064 800.328a.333.333 0 0 0 .177-.266c0-.1-.079-.138-.177-.089a.312.312 0 0 0-.037.026v.339a.179.179 0 0 0 .037-.01z" class="cls-8" transform="translate(-1810.901 -798.077)"/>
                        <path id="패스_31634" d="M1815.027 794.982v.031a.143.143 0 0 0 0-.031z" class="cls-8" transform="translate(-1810.901 -793.704)"/>
                        <path id="패스_31635" d="M1807.339 792.237c-.049.109-.02.2.065.21a.178.178 0 0 0 .092-.025v-.349a.344.344 0 0 0-.157.164z" class="cls-8" transform="translate(-1804.116 -791.145)"/>
                    </g>
                    <g id="그룹_40832" transform="translate(10.506 10.729)">
                        <path id="패스_31636" d="M1902.777 740.878v-.722l-.747.374v.721z" class="cls-8" transform="translate(-1894.559 -739.691)"/>
                        <path id="패스_31637" d="M1914.642 737.008v-.721l-.183.092v.721z" class="cls-8" transform="translate(-1905.494 -736.286)"/>
                        <path id="패스_31638" d="M1890.348 747.094v-.721l-.747.374v.721z" class="cls-8" transform="translate(-1883.624 -745.16)"/>
                        <path id="패스_31639" d="M1877.919 753.31v-.721l-.747.374v.722z" class="cls-8" transform="translate(-1872.689 -750.629)"/>
                        <path id="패스_31640" d="M1840.632 771.957v-.721l-.747.374v.721z" class="cls-8" transform="translate(-1839.885 -767.034)"/>
                        <path id="패스_31641" d="M1853.061 765.741v-.722l-.747.374v.721z" class="cls-8" transform="translate(-1850.82 -761.565)"/>
                        <path id="패스_31642" d="M1865.49 759.525v-.725l-.747.374v.722z" class="cls-8" transform="translate(-1861.755 -756.097)"/>
                        <path id="패스_31643" d="M1877.919 765.288v-.721l-.747.374v.721z" class="cls-8" transform="translate(-1872.689 -761.166)"/>
                        <path id="패스_31644" d="M1890.348 759.072v-.721l-.747.374v.722z" class="cls-8" transform="translate(-1883.624 -755.698)"/>
                        <path id="패스_31645" d="M1902.777 752.856v-.721l-.747.374v.722z" class="cls-8" transform="translate(-1894.559 -750.229)"/>
                        <path id="패스_31646" d="M1914.618 749.085v-.721l-.159.08v.721z" class="cls-8" transform="translate(-1905.494 -746.911)"/>
                        <path id="패스_31647" d="M1853.061 777.719V777l-.747.374v.722z" class="cls-8" transform="translate(-1850.82 -772.103)"/>
                        <path id="패스_31648" d="M1840.632 783.935v-.721l-.747.374v.721z" class="cls-8" transform="translate(-1839.885 -777.572)"/>
                        <path id="패스_31649" d="M1865.49 771.5v-.721l-.747.374v.721z" class="cls-8" transform="translate(-1861.755 -766.635)"/>
                        <path id="패스_31650" d="M1853.061 789.7v-.721l-.747.374v.721z" class="cls-8" transform="translate(-1850.82 -782.641)"/>
                        <path id="패스_31651" d="M1877.919 777.265v-.721l-.747.373v.721z" class="cls-8" transform="translate(-1872.689 -771.704)"/>
                        <path id="패스_31652" d="M1902.777 764.834v-.722l-.747.374v.721z" class="cls-8" transform="translate(-1894.559 -760.767)"/>
                        <path id="패스_31653" d="M1890.348 771.05v-.721l-.747.374v.722z" class="cls-8" transform="translate(-1883.624 -766.236)"/>
                        <path id="패스_31654" d="M1914.618 761.063v-.721l-.159.08v.721z" class="cls-8" transform="translate(-1905.494 -757.449)"/>
                        <path id="패스_31655" d="M1840.632 795.913v-.722l-.747.374v.722z" class="cls-8" transform="translate(-1839.885 -788.11)"/>
                        <path id="패스_31656" d="M1865.49 783.481v-.722l-.747.374v.722z" class="cls-8" transform="translate(-1861.755 -777.173)"/>
                    </g>
                </g>
            </g>
            <g id="그룹_40829" opacity="0.8" transform="translate(14.607 56.05)">
                <path id="사각형_18074" d="M0 0H1.01V19.562H0z" class="cls-8" transform="translate(31.184 .649)"/>
                <path id="사각형_18075" d="M0 0H19.562V1.01H0z" class="cls-8" transform="rotate(-57.66 31.131 -14.269)"/>
                <path id="사각형_18076" d="M0 0H19.562V1.01H0z" class="cls-8" transform="rotate(-60.827 26.611 -8.802)"/>
                <path id="사각형_18077" d="M0 0H1.01V19.562H0z" class="cls-8" transform="rotate(-16.127 15.445 -79.186)"/>
                <path id="사각형_18078" d="M0 0H1.073V19.562H0z" class="cls-8" transform="rotate(-43.572 18.206 -34.088)"/>
                <path id="사각형_18079" d="M0 0H1.01V19.562H0z" class="cls-8" transform="translate(22.986 .649)"/>
                <path id="사각형_18080" d="M0 0H19.562V1.01H0z" class="cls-8" transform="rotate(-57.646 27.041 -6.824)"/>
                <path id="사각형_18081" d="M0 0H19.562V1.01H0z" class="cls-8" transform="rotate(-60.827 22.512 -1.82)"/>
                <path id="사각형_18082" d="M0 0H1.01V19.562H0z" class="cls-8" transform="rotate(-16.127 11.346 -50.253)"/>
                <path id="사각형_18083" d="M0 0H1.073V19.562H0z" class="cls-8" transform="rotate(-43.572 14.108 -23.833)"/>
                <path id="사각형_18084" d="M0 0H19.562V1.01H0z" class="cls-8" transform="rotate(-64.163 27.301 -.223)"/>
                <path id="사각형_18085" d="M0 0H19.562V1.01H0z" class="cls-8" transform="rotate(-31.79 44.322 -9.498)"/>
                <path id="사각형_18086" d="M0 0H19.562V1.01H0z" class="cls-8" transform="rotate(-34.99 33.529 -2.298)"/>
                <path id="사각형_18087" d="M0 0H19.562V1.01H0z" class="cls-8" transform="rotate(-80.27 19.984 3.789)"/>
                <path id="사각형_18088" d="M0 0H1.073V19.562H0z" class="cls-8" transform="rotate(-17.735 35.74 -62.152)"/>
                <path id="사각형_18089" d="M0 0H19.562V1.01H0z" class="cls-8" transform="rotate(-64.163 20.762 3.875)"/>
                <path id="사각형_18090" d="M0 0H19.562V1.01H0z" class="cls-8" transform="rotate(-31.79 34.364 1.669)"/>
                <path id="사각형_18091" d="M0 0H19.562V1.01H0z" class="cls-8" transform="rotate(-34.99 24.172 7.619)"/>
                <path id="사각형_18092" d="M0 0H19.562V1.01H0z" class="cls-8" transform="rotate(-80.27 14.178 6.377)"/>
                <path id="사각형_18093" d="M0 0H1.073V19.562H0z" class="cls-8" transform="rotate(-17.735 20.602 -40.29)"/>
            </g>
            <path id="패스_31661" fill="#3e404f" d="M1619.017 509.591l-37.124 18.566-37.124-18.566v-7.941l37.124-10.625 37.124 10.625z" transform="translate(-1544.77 -482.368)"/>
            <path id="패스_31662" fill="#1a1a1a" d="M1581.893 528.157l-37.124-18.566v-7.941l37.124-10.625v37.132z" transform="translate(-1544.77 -482.368)"/>
            <path id="패스_31663" fill="#4c4f61" d="M1619.017 443.537l-37.124 18.563-37.124-18.566 37.124-18.566z" transform="translate(-1544.77 -424.253)"/>
            <path id="패스_31664" fill="#323440" d="M1759.719 518.226l-28.48 14.243-1.229-.615 28.48-14.243z" transform="translate(-1707.74 -505.757)"/>
            <path id="패스_31665" d="M1777.241 432.59v-13.583l-24.748 12.377v13.583z" class="cls-8" transform="translate(-1727.521 -419.007)"/>
            <g id="그룹_40836" transform="translate(27.035 2.923)">
                <path id="패스_31666" d="M1769.658 521.909l20.614-10.309v-.721l-20.614 10.309z" class="cls-15" transform="translate(-1769.658 -502.757)"/>
                <path id="패스_31667" d="M1769.658 533.887l20.614-10.309v-.721l-20.614 10.309z" class="cls-15" transform="translate(-1769.658 -513.295)"/>
                <path id="패스_31668" d="M1790.272 535.528v-.694l-20.614 10.309v.694z" class="cls-15" transform="translate(-1769.658 -523.833)"/>
                <path id="패스_31669" d="M1769.658 485.976l20.614-10.309v-.721l-20.614 10.309z" class="cls-15" transform="translate(-1769.658 -471.144)"/>
                <path id="패스_31670" fill="#d09e17" d="M1769.688 456.473l20.614-10.309v-2.842l-20.614 10.309z" transform="translate(-1769.685 -443.322)"/>
                <path id="패스_31671" d="M1769.658 497.954l20.614-10.309v-.721l-20.614 10.309z" class="cls-15" transform="translate(-1769.658 -481.681)"/>
                <path id="패스_31672" d="M1769.658 509.931l20.614-10.309v-.722l-20.614 10.309z" class="cls-15" transform="translate(-1769.658 -492.219)"/>
            </g>
            <ellipse id="타원_1265" cx="1.433" cy=".874" fill="#e93839" rx="1.433" ry=".874" transform="rotate(-52.03 61.188 -58.638)"/>
            <path id="패스_31685" fill="#5fba55" d="M2099.833 633.361a2.1 2.1 0 0 1-1.119 1.678c-.618.309-1.119.059-1.119-.559a2.105 2.105 0 0 1 1.119-1.678c.618-.309 1.119-.059 1.119.559z" transform="translate(-2031.134 -606.983)"/>
        </g>
    </g>
</svg>
