<svg xmlns="http://www.w3.org/2000/svg" xmlns:xlink="http://www.w3.org/1999/xlink" width="120" height="120" viewBox="0 0 120 120">
    <defs>
        <linearGradient id="linear-gradient" x2="1" y1=".499" y2=".499" gradientUnits="objectBoundingBox">
            <stop offset="0" stop-color="#25b2fa"/>
            <stop offset="1" stop-color="#5052c9"/>
        </linearGradient>
        <linearGradient id="linear-gradient-2" x1="0" x2="1" y1=".5" y2=".5" xlink:href="#linear-gradient"/>
        <clipPath id="clip-path">
            <circle id="타원_1177" cx="35.143" cy="35.143" r="35.143"/>
        </clipPath>
        <clipPath id="clip-path-2">
            <circle id="타원_1181" cx="40" cy="40" r="40"/>
        </clipPath>
        <filter id="타원_1220" width="95" height="95" x="12" y="16" filterUnits="userSpaceOnUse">
            <feOffset dy="4"/>
            <feGaussianBlur result="blur" stdDeviation="2.5"/>
            <feFlood flood-opacity=".102"/>
            <feComposite in2="blur" operator="in"/>
            <feComposite in="SourceGraphic"/>
        </filter>
        <style>
            .cls-1{opacity:.2}.cls-3{fill:#fff}.cls-5{clip-path:url(#clip-path)}.cls-12{fill:#f4b331}.cls-13{fill:#fcdc4d}.cls-14{fill:#1597ad}.cls-16{fill:none;stroke:#fff;stroke-linecap:round;stroke-linejoin:round;stroke-miterlimit:10;stroke-width:2px;opacity:.42}
        </style>
    </defs>
    <g id="img_challenge_car_12" class="cls-1" transform="translate(10 4.7)">
        <g id="그룹_43456" transform="translate(-1 5)">
            <g filter="url(#타원_1220)" transform="translate(-9 -9.7)">
                <circle id="타원_1220-2" cx="40" cy="40" r="40" class="cls-3" transform="translate(19.5 19.5)"/>
            </g>
            <g id="그룹_40493" transform="translate(10.5 9.8)">
                <g id="_x35_0_36_">
                    <circle id="타원_1175" cx="35.143" cy="35.143" r="35.143" fill="#7ca8ff" transform="translate(4.857 4.857)"/>
                    <g id="그룹_40489" transform="translate(4.857 4.857)">
                        <g id="그룹_40488" class="cls-5">
                            <circle id="타원_1176" cx="35.143" cy="35.143" r="35.143" fill="#0c3c5b"/>
                        </g>
                    </g>
                    <g id="그룹_40490" transform="translate(42.514 50.8)"/>
                </g>
            </g>
            <g id="그룹_40496" transform="translate(10.5 9.8)">
                <g id="그룹_40495" clip-path="url(#clip-path-2)">
                    <path id="패스_30739" fill="url(#linear-gradient)" d="M118.714 19.343L109.029 5 93.4 8.829 98.714 19.4l20-.057" transform="translate(-69.714 -6.371)"/>
                    <path id="패스_30740" fill="#515efc" d="M112 20.843L119.029 7.1l19.343 1.143L132 20.9l-20-.057" transform="translate(-83 -7.871)"/>
                    <path id="패스_30741" fill="url(#linear-gradient-2)" d="M120 20.057L127.171 6l18.657 2.571L140 20.114l-20-.057" transform="translate(-88.714 -7.086)"/>
                    <path id="사각형_18005" d="M0 0H22.486V8.829H0z" class="cls-12" transform="translate(28.829 16.486)"/>
                    <circle id="타원_1178" cx="22.286" cy="22.286" r="22.286" class="cls-13" transform="translate(17.771 19.8)"/>
                    <circle id="타원_1179" cx="18.086" cy="18.086" r="18.086" class="cls-12" transform="translate(21.971 24)"/>
                    <circle id="타원_1180" cx="15.629" cy="15.629" r="15.629" class="cls-13" transform="translate(24.429 26.457)"/>
                    <path id="패스_30742" d="M129.071 60.271h-21.285a2.488 2.488 0 0 1-2.486-2.486 2.488 2.488 0 0 1 2.486-2.486h21.286a2.487 2.487 0 0 1 2.486 2.486 2.452 2.452 0 0 1-2.487 2.486z" class="cls-13" transform="translate(-78.214 -42.3)"/>
                </g>
            </g>
            <g id="그룹_40499" transform="translate(15.357 14.657)">
                <g id="그룹_40498" class="cls-5">
                    <path id="패스_30743" d="M177.414 179.45c-.029.114-.057.257-.086.371a3.525 3.525 0 0 1-.371.829 2.091 2.091 0 0 1-.743.657 2.927 2.927 0 0 1-1.714.286 1.211 1.211 0 0 0-.886.2c-.029.086-.086.2-.114.314-.086.171-.143.343-.229.543l-.257.6c-.086.171-.171.371-.286.571.171-.2.343-.343.514-.514a5.16 5.16 0 0 1 .657-.514c.229-.143.457-.257.686-.371a3.169 3.169 0 0 1 1.829-.371 3.61 3.61 0 0 1-.229.971c-.029.057-.057.143-.086.2a.716.716 0 0 1-.114.2c-.086.143-.171.257-.257.4a1.653 1.653 0 0 1-.8.571 3.171 3.171 0 0 1-1.743.114 1.263 1.263 0 0 0-.857.086c-.114.2-.229.429-.343.657-.229.4-.486.829-.743 1.257a3.406 3.406 0 0 1 .514-.429 4.724 4.724 0 0 1 .714-.429 3.5 3.5 0 0 1 .686-.286 3.368 3.368 0 0 1 1.857-.2s-.029.114-.057.286a5.1 5.1 0 0 1-.257.657 2.608 2.608 0 0 1-.229.371 1.811 1.811 0 0 1-.314.371 2.152 2.152 0 0 1-.857.514 2.676 2.676 0 0 1-1.029.086 3.93 3.93 0 0 1-.714-.143 2.175 2.175 0 0 0-.6-.086.834.834 0 0 0-.257.057c-.229.343-.486.714-.743 1.057-.171.229-.343.457-.543.686a4.969 4.969 0 0 1 .514-.314.716.716 0 0 0 .2-.114 1.393 1.393 0 0 1 .2-.086c.114-.057.257-.114.371-.171a7.376 7.376 0 0 1 .743-.229 3.487 3.487 0 0 1 1.886 0 3.569 3.569 0 0 1-.429.914 3.509 3.509 0 0 1-.629.686 1.2 1.2 0 0 1-.4.257 2.415 2.415 0 0 1-.486.143 2.978 2.978 0 0 1-1.029-.029 1.415 1.415 0 0 1-.371-.114c-.114-.029-.229-.086-.314-.114a1.192 1.192 0 0 0-.829-.114c-.457.543-.943 1.057-1.457 1.571.029-.029.057-.029.086-.057.057-.029.143-.057.2-.086s.143-.057.2-.086a5.87 5.87 0 0 1 1.543-.4 4.234 4.234 0 0 1 1.229.029 1.3 1.3 0 0 1 .629.2.221.221 0 0 1-.029.086 1.636 1.636 0 0 1-.114.2 4.339 4.339 0 0 1-.4.6 3.425 3.425 0 0 1-.314.343 2.028 2.028 0 0 1-.4.286 2.172 2.172 0 0 1-.943.314 2.9 2.9 0 0 1-1.686-.457 1.586 1.586 0 0 0-.543-.2h-.229a18.781 18.781 0 0 1-1.629 1.371c.029 0 .029 0 .057-.029a2.516 2.516 0 0 1 .429-.143 2.278 2.278 0 0 1 .429-.086c.143-.029.286-.029.4-.057a3.49 3.49 0 0 1 .771-.029 5.119 5.119 0 0 1 .686.057 2.58 2.58 0 0 1 .543.114 1.757 1.757 0 0 1 .6.257 1.62 1.62 0 0 1-.171.257 1.569 1.569 0 0 1-.2.257 2.692 2.692 0 0 1-.286.286 3.74 3.74 0 0 1-.771.543 1.954 1.954 0 0 1-1 .171 2.305 2.305 0 0 1-1-.286c-.257-.143-.457-.286-.629-.4a2.317 2.317 0 0 0-.514-.286c-.057 0-.114-.029-.171-.029l-.257.171c-.486.343-1 .629-1.514.943a2.206 2.206 0 0 1 .429-.057 2.162 2.162 0 0 1 .429-.029h.4a3.547 3.547 0 0 1 .771.086c.229.057.457.086.657.143s.371.114.543.171a1.655 1.655 0 0 1 .571.343s-.086.086-.2.229a3.557 3.557 0 0 1-.571.486 4.005 4.005 0 0 1-.857.429.883.883 0 0 1-.229.057.791.791 0 0 1-.257.029 1.582 1.582 0 0 1-.514-.057 2.663 2.663 0 0 1-.943-.4c-.229-.171-.4-.343-.571-.486a1.251 1.251 0 0 0-.629-.4 11.516 11.516 0 0 1-1.229.543c-.229.086-.457.171-.657.257h.4a4.359 4.359 0 0 1 .857.086 5.639 5.639 0 0 1 .743.2 3.364 3.364 0 0 1 1.657.943 4.61 4.61 0 0 1-.886.6c-.057.029-.143.057-.2.086-.086.029-.143.057-.229.086a2.422 2.422 0 0 1-.486.114 1.71 1.71 0 0 1-1-.114 2.9 2.9 0 0 1-1.343-1.114 1.545 1.545 0 0 0-.543-.514q-1.029.3-1.971.514a4.427 4.427 0 0 1 1.314.343 4.32 4.32 0 0 1 1.029.514 4.842 4.842 0 0 1 .4.286 3.041 3.041 0 0 1 .314.257 1.139 1.139 0 0 1 .286.371l-.257.171a5.549 5.549 0 0 1-.686.286 2.443 2.443 0 0 1-1.943-.114 1.835 1.835 0 0 1-.371-.286 2.693 2.693 0 0 1-.286-.286 3.063 3.063 0 0 1-.371-.543 1.885 1.885 0 0 0-.543-.8 17.736 17.736 0 0 1-2 .171c.229.086.457.171.657.257s.4.2.571.286l.514.343.429.343a2.7 2.7 0 0 1 .829 1.029 2.4 2.4 0 0 1-.286.114 3.187 3.187 0 0 1-.743.171 3.47 3.47 0 0 1-.943 0 3.119 3.119 0 0 1-.486-.143 2.238 2.238 0 0 1-.429-.286 2.661 2.661 0 0 1-.829-1.229 2.313 2.313 0 0 0-.4-.886h-.657c-.2 0-.371-.029-.543-.029-.343-.029-.6-.057-.8-.057a5.333 5.333 0 0 1 1.114.714 2.937 2.937 0 0 1 .429.4 4.746 4.746 0 0 1 .371.4 2.862 2.862 0 0 1 .657 1.143 4.827 4.827 0 0 1-1.057.114h-.343a.172.172 0 0 1-.114-.029 3.319 3.319 0 0 1-.514-.114 3.72 3.72 0 0 1-.486-.229 1.209 1.209 0 0 1-.2-.143l-.086-.086-.086-.086a9.055 9.055 0 0 1-.857-2.2.561.561 0 0 1-.257.257.1.1 0 0 0 .029.086c0 .057.029.143.029.2s.057.143.057.229a.834.834 0 0 1 .057.257l.086.257c.057.171.143.343.229.543a1.158 1.158 0 0 0 .143.257l.171.257.171.257c.057.086.143.171.2.257.029.029.057.086.086.114l.114.114c.086.086.143.171.2.229l.229.229c.029.029.086.057.114.114.029.029.086.057.114.086a3.734 3.734 0 0 0 .429.343c.057.057.143.086.2.143a.717.717 0 0 0 .2.114 3.977 3.977 0 0 0 .371.171.483.483 0 0 0 .143.057.1.1 0 0 1 .057.029c.029 0 .029 0 .057.029a2.221 2.221 0 0 0 .257.086l-.514 1.429-.343-.171c-.029 0-.057-.029-.086-.029-.029-.029-.057-.029-.086-.057a1.243 1.243 0 0 0-.2-.114 4.089 4.089 0 0 1-.429-.314 1.431 1.431 0 0 1-.229-.2 1.634 1.634 0 0 1-.229-.2c-.143-.143-.314-.314-.457-.486-.029-.057-.086-.086-.114-.143s-.086-.086-.114-.143c-.086-.086-.143-.2-.229-.286a1.18 1.18 0 0 1-.2-.314l-.114-.143-.086-.171c-.057-.114-.114-.2-.171-.314l-.171-.343c-.057-.114-.086-.229-.143-.343a2.17 2.17 0 0 1-.114-.314c-.057-.229-.143-.429-.2-.629a1.257 1.257 0 0 1-.057-.286c-.029-.086-.029-.2-.057-.286 0-.086-.029-.171-.029-.257a.791.791 0 0 0-.029-.257v-.029a.028.028 0 0 1-.029.029c-.029.057-.057.143-.086.2l.314-1.886h.057a.878.878 0 0 1 .657.6 9.89 9.89 0 0 1 1.429-1.886l.086-.086c.029-.029.057-.057.086-.057a.6.6 0 0 1 .171-.114 1.747 1.747 0 0 1 .343-.143 1.434 1.434 0 0 1 .343-.057h.343a3.076 3.076 0 0 1 .8.171 2.336 2.336 0 0 1-.543 1.143 2.03 2.03 0 0 1-.343.371c-.143.114-.286.257-.429.371a3.311 3.311 0 0 1-1.2.514c.171.029.429.029.771.057a3.905 3.905 0 0 1 .543.057 5.282 5.282 0 0 1 .657.029 1.84 1.84 0 0 0 .429-.886 4.133 4.133 0 0 1 .229-.6 5.108 5.108 0 0 1 .429-.686 1.637 1.637 0 0 1 .314-.314 2.13 2.13 0 0 1 .343-.2 1.616 1.616 0 0 1 .686-.171h.571a.791.791 0 0 1 .229.029 2.426 2.426 0 0 1-.371 1.229 3.438 3.438 0 0 1-.657.857 3.289 3.289 0 0 1-.486.4 3.226 3.226 0 0 1-.629.314h.686c.086 0 .171-.029.257-.029a3.149 3.149 0 0 0 .514-.057c.086 0 .171-.029.257-.029a.791.791 0 0 0 .257-.029 1.932 1.932 0 0 0 .286-.943 2.807 2.807 0 0 1 .143-.629 1.747 1.747 0 0 1 .143-.343 2.363 2.363 0 0 1 .2-.371 1.817 1.817 0 0 1 1.229-.886 5.187 5.187 0 0 1 .543-.086.484.484 0 0 1 .229 0 2.044 2.044 0 0 1 .029.486 1.673 1.673 0 0 1-.057.371c-.029.143-.086.286-.114.429a3.732 3.732 0 0 1-.543.971 4.259 4.259 0 0 1-1 .857 19.751 19.751 0 0 0 1.971-.486 1.2 1.2 0 0 0 .143-.714 3.91 3.91 0 0 1 .229-1.686 2.055 2.055 0 0 1 .457-.686 1.268 1.268 0 0 1 .314-.229 1060.531 1060.531 0 0 1 .286-.171 2.717 2.717 0 0 1 .771-.2 2.9 2.9 0 0 1-.086 1.771 2.3 2.3 0 0 1-.314.657 3.444 3.444 0 0 1-.514.657 3.63 3.63 0 0 1-.343.286c.2-.086.429-.143.657-.229.4-.171.829-.343 1.229-.543a1.406 1.406 0 0 0 .057-.771c-.029-.2-.086-.457-.114-.714a3.915 3.915 0 0 1 .057-.971 2.513 2.513 0 0 1 .143-.429.6.6 0 0 1 .114-.171c.029-.057.086-.114.114-.171a2.565 2.565 0 0 1 .543-.457 4.279 4.279 0 0 1 .514-.257c.143-.057.229-.086.229-.086a2.014 2.014 0 0 1 .2.6 3.11 3.11 0 0 1 .029.543 2.344 2.344 0 0 1-.057.629 3.11 3.11 0 0 1-.2.686c-.057.114-.114.229-.171.371a2.384 2.384 0 0 1-.229.343 1.967 1.967 0 0 1-.314.371 16.393 16.393 0 0 0 1.514-.914l.257-.171a.486.486 0 0 0 .029-.2 1.362 1.362 0 0 0-.114-.571c-.057-.2-.143-.429-.2-.686a3.34 3.34 0 0 1-.057-.971 1.657 1.657 0 0 1 .257-.8 2.265 2.265 0 0 1 .486-.543 1.342 1.342 0 0 1 .257-.171 1 1 0 0 1 .229-.143.713.713 0 0 1 .229-.114 2.1 2.1 0 0 1 .257.6 2.717 2.717 0 0 1 .114.514 4.425 4.425 0 0 1 .029.629 3.1 3.1 0 0 1-.114.714c-.029.114-.086.257-.114.371-.057.114-.114.257-.171.371a1.619 1.619 0 0 1-.229.371l-.057.057a18.477 18.477 0 0 0 1.629-1.343.629.629 0 0 0 .029-.229 1.459 1.459 0 0 0-.171-.571 3.547 3.547 0 0 1-.486-1.629 1.7 1.7 0 0 1 .143-.857 2.132 2.132 0 0 1 .2-.343 1.119 1.119 0 0 1 .229-.286 2.634 2.634 0 0 1 .429-.4c.057-.057.114-.086.143-.114a.088.088 0 0 1 .057-.029 1.341 1.341 0 0 1 .343.543 4.742 4.742 0 0 1 .286 1.143 3.64 3.64 0 0 1-.2 1.514c-.029.057-.057.143-.086.2a.715.715 0 0 1-.114.2c-.029.029-.057.086-.086.114q.771-.771 1.457-1.543a1.171 1.171 0 0 0-.257-.8c-.057-.086-.114-.171-.2-.286a3.638 3.638 0 0 1-.2-.343 4.838 4.838 0 0 1-.314-.914 2.614 2.614 0 0 1-.029-.457.913.913 0 0 1 .086-.4 2.04 2.04 0 0 1 .343-.657 2.756 2.756 0 0 1 .571-.6 2.916 2.916 0 0 1 .8 1.629 5.568 5.568 0 0 1 .057.714 1.887 1.887 0 0 1-.029.4c0 .057-.029.143-.029.2a.53.53 0 0 1-.057.2c-.057.2-.114.4-.2.629.2-.229.371-.486.543-.714.257-.343.514-.686.743-1.057a.88.88 0 0 0-.029-.286 1.664 1.664 0 0 0-.314-.514c-.143-.171-.286-.343-.457-.571a3.7 3.7 0 0 1-.4-.886 1.762 1.762 0 0 1-.029-.857 1.414 1.414 0 0 1 .114-.371l.171-.343a4.467 4.467 0 0 1 .343-.486.79.79 0 0 1 .171-.171 2.945 2.945 0 0 1 .971 1.514 5.263 5.263 0 0 1 .143.714 2.719 2.719 0 0 1-.029.829 2.934 2.934 0 0 1-.143.686c.257-.429.514-.857.743-1.257.114-.229.229-.429.343-.629a1.065 1.065 0 0 0-.429-.771 3.694 3.694 0 0 1-1-1.371 1.87 1.87 0 0 1-.143-.857.791.791 0 0 1 .086-.371c.029-.057.029-.114.057-.171a.406.406 0 0 0 .057-.171 2.345 2.345 0 0 1 .457-.714 3.019 3.019 0 0 1 1.114 1.429 3.109 3.109 0 0 1 .2.686 3.692 3.692 0 0 1 .086.829 2.407 2.407 0 0 1-.114.771c.114-.229.2-.429.314-.629l.257-.6c.086-.2.171-.371.229-.543.029-.086.086-.2.114-.286a1.212 1.212 0 0 0-.514-.771 3.575 3.575 0 0 1-1.143-1.257 1.852 1.852 0 0 1-.2-.829 2.706 2.706 0 0 1 .114-.743c.029-.114.086-.2.114-.314.029-.086.086-.171.114-.257.086-.143.114-.2.114-.2a1.95 1.95 0 0 1 .543.371 2.553 2.553 0 0 1 .371.4 4.493 4.493 0 0 1 .343.543 3.361 3.361 0 0 1 .429 1.486v.457a2.024 2.024 0 0 1-.029.4.1.1 0 0 1 .029-.057c.029-.057.029-.114.057-.171.086-.257.171-.457.2-.543a2.7 2.7 0 0 0-.114-1.371 5.322 5.322 0 0 1-.143-.771 4.212 4.212 0 0 1 .057-1 2.792 2.792 0 0 1 .314-.857c.029-.057.086-.114.114-.171s.086-.114.114-.171c.086-.114.171-.2.257-.314.371-.371.714-.571.829-.543a1.859 1.859 0 0 1 .571.829c.057.114.086.257.143.4.029.057.029.143.057.229 0 .086.029.143.029.229a2.274 2.274 0 0 1-.114.971 3.391 3.391 0 0 1-.457.914l-.257.343a2.7 2.7 0 0 1-.286.286 3.843 3.843 0 0 0-.914 1.086c-.029.114-.114.314-.2.571-.029.057-.029.114-.057.171l.171-.257c.086-.114.2-.229.286-.343a4.956 4.956 0 0 1 1.257-1 2.861 2.861 0 0 1 .6-.286 2.691 2.691 0 0 1 .514-.171 1.6 1.6 0 0 1 .657-.086v.286c.317.061.317.175.288.289z" class="cls-14" transform="translate(-113.643 -132.65)"/>
                    <g id="그룹_40497" transform="translate(6.056 42.34)">
                        <path id="패스_30744" d="M48.7 179.45c.029.114.057.257.086.371a3.525 3.525 0 0 0 .371.829 2.091 2.091 0 0 0 .743.657 2.927 2.927 0 0 0 1.714.286 1.211 1.211 0 0 1 .886.2c.029.086.086.2.114.314.086.171.143.343.229.543l.257.6c.086.171.171.371.286.571-.171-.2-.343-.343-.514-.514a5.161 5.161 0 0 0-.657-.514c-.229-.143-.457-.257-.686-.371a3.169 3.169 0 0 0-1.829-.371 3.609 3.609 0 0 0 .229.971c.029.057.057.143.086.2a.716.716 0 0 0 .114.2c.086.143.171.257.257.4a1.653 1.653 0 0 0 .8.571 3.171 3.171 0 0 0 1.743.114 1.263 1.263 0 0 1 .857.086c.114.2.229.429.343.657.229.4.486.829.743 1.257a3.405 3.405 0 0 0-.514-.429 4.725 4.725 0 0 0-.714-.429 3.5 3.5 0 0 0-.686-.286 3.368 3.368 0 0 0-1.857-.2s.029.114.057.286a5.1 5.1 0 0 0 .257.657 2.608 2.608 0 0 0 .229.371 1.811 1.811 0 0 0 .314.371 2.152 2.152 0 0 0 .857.514 2.676 2.676 0 0 0 1.029.086 3.93 3.93 0 0 0 .714-.143 2.175 2.175 0 0 1 .6-.086.834.834 0 0 1 .257.057c.229.343.486.714.743 1.057.171.229.343.457.543.686a4.97 4.97 0 0 0-.514-.314.716.716 0 0 1-.2-.114 1.393 1.393 0 0 0-.2-.086c-.114-.057-.257-.114-.371-.171a7.376 7.376 0 0 0-.743-.229 3.487 3.487 0 0 0-1.886 0 3.569 3.569 0 0 0 .429.914 3.509 3.509 0 0 0 .629.686 1.2 1.2 0 0 0 .4.257 2.415 2.415 0 0 0 .486.143 2.978 2.978 0 0 0 1.029-.029 1.415 1.415 0 0 0 .371-.114c.114-.029.229-.086.314-.114a1.192 1.192 0 0 1 .829-.114c.457.543.943 1.057 1.457 1.571-.029-.029-.057-.029-.086-.057-.057-.029-.143-.057-.2-.086s-.143-.057-.2-.086a5.87 5.87 0 0 0-1.543-.4 4.234 4.234 0 0 0-1.229.029 1.3 1.3 0 0 0-.629.2.221.221 0 0 0 .029.086 1.639 1.639 0 0 0 .114.2 4.34 4.34 0 0 0 .4.6 3.426 3.426 0 0 0 .314.343 2.028 2.028 0 0 0 .4.286 2.172 2.172 0 0 0 .943.314 2.9 2.9 0 0 0 1.686-.457 1.586 1.586 0 0 1 .543-.2h.227a18.784 18.784 0 0 0 1.629 1.371c-.029 0-.029 0-.057-.029a2.516 2.516 0 0 0-.429-.143 2.278 2.278 0 0 0-.429-.086c-.143-.029-.286-.029-.4-.057a3.49 3.49 0 0 0-.771-.029 5.119 5.119 0 0 0-.686.057 2.58 2.58 0 0 0-.543.114 1.757 1.757 0 0 0-.6.257 1.62 1.62 0 0 0 .171.257 1.569 1.569 0 0 0 .2.257 2.693 2.693 0 0 0 .286.286 3.74 3.74 0 0 0 .771.543 1.954 1.954 0 0 0 1 .171 2.305 2.305 0 0 0 1-.286c.257-.143.457-.286.629-.4a2.316 2.316 0 0 1 .514-.286c.057 0 .114-.029.171-.029l.257.171c.486.343 1 .629 1.514.943a2.206 2.206 0 0 0-.429-.057 2.162 2.162 0 0 0-.429-.029h-.4a3.547 3.547 0 0 0-.771.086c-.229.057-.457.086-.657.143s-.371.114-.543.171a1.655 1.655 0 0 0-.571.343s.086.086.2.229a3.557 3.557 0 0 0 .571.486 4.005 4.005 0 0 0 .857.429.883.883 0 0 0 .229.057.791.791 0 0 0 .257.029 1.582 1.582 0 0 0 .514-.057 2.663 2.663 0 0 0 .943-.4c.229-.171.4-.343.571-.486a1.251 1.251 0 0 1 .629-.4 11.517 11.517 0 0 0 1.229.543c.229.086.457.171.657.257h-.4a4.359 4.359 0 0 0-.857.086 5.639 5.639 0 0 0-.743.2 3.364 3.364 0 0 0-1.657.943 4.61 4.61 0 0 0 .886.6c.057.029.143.057.2.086.086.029.143.057.229.086a2.422 2.422 0 0 0 .486.114 1.71 1.71 0 0 0 1-.114 2.9 2.9 0 0 0 1.343-1.114 1.545 1.545 0 0 1 .543-.514q1.029.3 1.971.514a4.427 4.427 0 0 0-1.314.343 4.32 4.32 0 0 0-1.029.514 4.843 4.843 0 0 0-.4.286 3.037 3.037 0 0 0-.314.257 1.139 1.139 0 0 0-.286.371l.257.171a5.55 5.55 0 0 0 .686.286 2.443 2.443 0 0 0 1.943-.114 1.835 1.835 0 0 0 .371-.286 2.693 2.693 0 0 0 .286-.286 3.063 3.063 0 0 0 .371-.543 1.885 1.885 0 0 1 .543-.8 17.736 17.736 0 0 0 2 .171c-.229.086-.457.171-.657.257s-.4.2-.571.286l-.514.343-.429.343a2.7 2.7 0 0 0-.829 1.029 2.4 2.4 0 0 0 .286.114 3.187 3.187 0 0 0 .743.171 3.47 3.47 0 0 0 .943 0 3.119 3.119 0 0 0 .486-.143 2.238 2.238 0 0 0 .429-.286 2.661 2.661 0 0 0 .829-1.229 2.313 2.313 0 0 1 .4-.886h.657c.2 0 .371-.029.543-.029.343-.029.6-.057.8-.057a5.333 5.333 0 0 0-1.114.714 2.937 2.937 0 0 0-.429.4 4.744 4.744 0 0 0-.371.4 2.862 2.862 0 0 0-.657 1.143 4.827 4.827 0 0 0 1.057.114h.343a.172.172 0 0 0 .114-.029 3.319 3.319 0 0 0 .514-.114 3.72 3.72 0 0 0 .486-.229 1.21 1.21 0 0 0 .2-.143l.086-.086.086-.086a9.055 9.055 0 0 0 .857-2.2.561.561 0 0 0 .257.257.1.1 0 0 1-.029.086c0 .057-.029.143-.029.2s-.057.143-.057.229a.834.834 0 0 0-.057.257l-.086.257c-.057.171-.143.343-.229.543a1.158 1.158 0 0 1-.143.257l-.171.257-.171.257c-.057.086-.143.171-.2.257-.029.029-.057.086-.086.114l-.114.114c-.086.086-.143.171-.2.229l-.229.229c-.029.029-.086.057-.114.114-.029.029-.086.057-.114.086a3.733 3.733 0 0 1-.429.343c-.057.057-.143.086-.2.143a.717.717 0 0 1-.2.114 3.977 3.977 0 0 1-.371.171.483.483 0 0 1-.143.057.1.1 0 0 0-.057.029c-.029 0-.029 0-.057.029a2.221 2.221 0 0 1-.257.086l.514 1.429.343-.171c.029 0 .057-.029.086-.029.029-.029.057-.029.086-.057a1.242 1.242 0 0 1 .2-.114 4.09 4.09 0 0 0 .429-.314 1.43 1.43 0 0 0 .229-.2 1.633 1.633 0 0 0 .229-.2c.143-.143.314-.314.457-.486.029-.057.086-.086.114-.143s.086-.086.114-.143c.086-.086.143-.2.229-.286a1.18 1.18 0 0 0 .2-.314l.114-.143.086-.171c.057-.114.114-.2.171-.314l.171-.343c.057-.114.086-.229.143-.343a2.17 2.17 0 0 0 .114-.314c.057-.229.143-.429.2-.629a1.257 1.257 0 0 0 .057-.286c.029-.086.029-.2.057-.286 0-.086.029-.171.029-.257a.791.791 0 0 1 .029-.257v-.029a.028.028 0 0 0 .029.029c.029.057.057.143.086.2l-.314-1.886h-.057a.878.878 0 0 0-.657.6 9.89 9.89 0 0 0-1.429-1.886l-.086-.086c-.029-.029-.057-.057-.086-.057a.6.6 0 0 0-.171-.114 1.747 1.747 0 0 0-.343-.143 1.434 1.434 0 0 0-.343-.057h-.343a3.076 3.076 0 0 0-.8.171 2.335 2.335 0 0 0 .543 1.143 2.03 2.03 0 0 0 .343.371c.143.114.286.257.429.371a3.311 3.311 0 0 0 1.2.514c-.171.029-.429.029-.771.057a3.905 3.905 0 0 0-.543.057 5.282 5.282 0 0 0-.657.029 1.84 1.84 0 0 1-.429-.886 4.133 4.133 0 0 0-.229-.6 5.111 5.111 0 0 0-.429-.686 1.637 1.637 0 0 0-.314-.314 2.131 2.131 0 0 0-.343-.2 1.616 1.616 0 0 0-.686-.171h-.571a.79.79 0 0 0-.229.029 2.426 2.426 0 0 0 .371 1.229 3.438 3.438 0 0 0 .657.857 3.289 3.289 0 0 0 .486.4 3.226 3.226 0 0 0 .629.314h-.686c-.086 0-.171-.029-.257-.029a3.149 3.149 0 0 1-.514-.057c-.086 0-.171-.029-.257-.029a.791.791 0 0 1-.257-.029 1.932 1.932 0 0 1-.286-.943 2.807 2.807 0 0 0-.143-.629 1.748 1.748 0 0 0-.143-.343 2.361 2.361 0 0 0-.2-.371 1.817 1.817 0 0 0-1.229-.886 5.188 5.188 0 0 0-.543-.086.484.484 0 0 0-.229 0 2.044 2.044 0 0 0-.029.486 1.672 1.672 0 0 0 .057.371c.029.143.086.286.114.429a3.733 3.733 0 0 0 .543.971 4.259 4.259 0 0 0 1 .857 19.751 19.751 0 0 1-1.971-.486 1.2 1.2 0 0 1-.143-.714 3.91 3.91 0 0 0-.229-1.686 2.055 2.055 0 0 0-.457-.686 1.268 1.268 0 0 0-.314-.229 922.238 922.238 0 0 0-.286-.171 2.716 2.716 0 0 0-.771-.2 2.9 2.9 0 0 0 .086 1.771 2.3 2.3 0 0 0 .314.657 3.444 3.444 0 0 0 .514.657 3.631 3.631 0 0 0 .343.286c-.2-.086-.429-.143-.657-.229-.4-.171-.829-.343-1.229-.543a1.406 1.406 0 0 1-.057-.771c.029-.2.086-.457.114-.714a3.916 3.916 0 0 0-.057-.971 2.513 2.513 0 0 0-.143-.429.6.6 0 0 0-.114-.171c-.029-.057-.086-.114-.114-.171a2.565 2.565 0 0 0-.543-.457 4.278 4.278 0 0 0-.514-.257c-.143-.057-.229-.086-.229-.086a2.014 2.014 0 0 0-.2.6 3.111 3.111 0 0 0-.029.543 2.344 2.344 0 0 0 .057.629 3.109 3.109 0 0 0 .2.686c.057.114.114.229.171.371a2.383 2.383 0 0 0 .229.343 1.967 1.967 0 0 0 .314.371 16.392 16.392 0 0 1-1.514-.914l-.257-.171a.486.486 0 0 1-.029-.2 1.362 1.362 0 0 1 .114-.571c.057-.2.143-.429.2-.686a3.34 3.34 0 0 0 .057-.971 1.657 1.657 0 0 0-.257-.8 2.265 2.265 0 0 0-.486-.543 1.342 1.342 0 0 0-.257-.171 1 1 0 0 0-.229-.143.713.713 0 0 0-.229-.114 2.1 2.1 0 0 0-.257.6 2.717 2.717 0 0 0-.114.514 4.423 4.423 0 0 0-.029.629 3.1 3.1 0 0 0 .114.714c.029.114.086.257.114.371.057.114.114.257.171.371a1.62 1.62 0 0 0 .229.371l.057.057a18.477 18.477 0 0 1-1.629-1.343.629.629 0 0 1-.029-.229 1.459 1.459 0 0 1 .171-.571 3.547 3.547 0 0 0 .486-1.629 1.7 1.7 0 0 0-.143-.857 2.131 2.131 0 0 0-.2-.343 1.119 1.119 0 0 0-.229-.286 2.634 2.634 0 0 0-.429-.4c-.057-.057-.114-.086-.143-.114a.088.088 0 0 0-.057-.029 1.341 1.341 0 0 0-.343.543 4.742 4.742 0 0 0-.286 1.143 3.64 3.64 0 0 0 .2 1.514c.029.057.057.143.086.2a.716.716 0 0 0 .114.2c.029.029.057.086.086.114q-.771-.771-1.457-1.543a1.171 1.171 0 0 1 .257-.8c.057-.086.114-.171.2-.286a3.642 3.642 0 0 0 .2-.343 4.839 4.839 0 0 0 .314-.914 2.614 2.614 0 0 0 .029-.457.913.913 0 0 0-.086-.4 2.04 2.04 0 0 0-.343-.657 2.756 2.756 0 0 0-.571-.6 2.916 2.916 0 0 0-.8 1.629 5.566 5.566 0 0 0-.057.714 1.886 1.886 0 0 0 .029.4c0 .057.029.143.029.2a.53.53 0 0 0 .057.2c.057.2.114.4.2.629-.2-.229-.371-.486-.543-.714-.257-.343-.514-.686-.743-1.057a.881.881 0 0 1 .029-.286 1.664 1.664 0 0 1 .314-.514c.143-.171.286-.343.457-.571a3.7 3.7 0 0 0 .4-.886 1.762 1.762 0 0 0 .029-.857 1.415 1.415 0 0 0-.114-.371l-.171-.343a4.469 4.469 0 0 0-.343-.486.79.79 0 0 0-.171-.171 2.946 2.946 0 0 0-.971 1.514 5.265 5.265 0 0 0-.143.714 2.719 2.719 0 0 0 .029.829 2.933 2.933 0 0 0 .143.686c-.257-.429-.514-.857-.743-1.257-.114-.229-.229-.429-.343-.629a1.065 1.065 0 0 1 .429-.771 3.694 3.694 0 0 0 1-1.371 1.87 1.87 0 0 0 .143-.857.791.791 0 0 0-.086-.371c-.029-.057-.029-.114-.057-.171a.406.406 0 0 1-.057-.171 2.345 2.345 0 0 0-.457-.714 3.019 3.019 0 0 0-1.114 1.429 3.11 3.11 0 0 0-.2.686 3.692 3.692 0 0 0-.086.829 2.406 2.406 0 0 0 .114.771c-.114-.229-.2-.429-.314-.629l-.257-.6c-.086-.2-.171-.371-.229-.543-.029-.086-.086-.2-.114-.286a1.212 1.212 0 0 1 .514-.771 3.575 3.575 0 0 0 1.143-1.257 1.852 1.852 0 0 0 .2-.829 2.706 2.706 0 0 0-.114-.743c-.029-.114-.086-.2-.114-.314-.029-.086-.086-.171-.114-.257-.086-.143-.114-.2-.114-.2a1.951 1.951 0 0 0-.543.371 2.553 2.553 0 0 0-.371.4 4.494 4.494 0 0 0-.343.543 3.361 3.361 0 0 0-.429 1.486v.457a2.024 2.024 0 0 0 .029.4.1.1 0 0 0-.029-.057c-.029-.057-.029-.114-.057-.171-.086-.257-.171-.457-.2-.543a2.7 2.7 0 0 1 .114-1.371 5.324 5.324 0 0 0 .143-.771 4.212 4.212 0 0 0-.057-1 2.792 2.792 0 0 0-.314-.857c-.029-.057-.086-.114-.114-.171s-.086-.114-.114-.171c-.086-.114-.171-.2-.257-.314-.371-.371-.714-.571-.829-.543a1.859 1.859 0 0 0-.571.829c-.057.114-.086.257-.143.4-.029.057-.029.143-.057.229 0 .086-.029.143-.029.229a2.274 2.274 0 0 0 .114.971 3.391 3.391 0 0 0 .457.914l.257.343a2.693 2.693 0 0 0 .286.286 3.843 3.843 0 0 1 .914 1.086c.029.114.114.314.2.571.029.057.029.114.057.171l-.171-.257c-.086-.114-.2-.229-.286-.343a4.956 4.956 0 0 0-1.257-1 2.861 2.861 0 0 0-.6-.286 2.691 2.691 0 0 0-.514-.171 1.6 1.6 0 0 0-.657-.086v.286c-.316.061-.286.175-.286.289z" class="cls-14" transform="translate(-48.698 -174.99)"/>
                    </g>
                </g>
            </g>
            <g id="그룹_40500" class="cls-1" transform="translate(37.671 46.743)">
                <path id="패스_30745" d="M109.057 139.6l-2.886 2.857-.571.571 1.457 1.543.571-.571 1.086-1.114v6.629h2.543V139.6z" transform="translate(-105.6 -139.457)"/>
                <path id="패스_30746" d="M135.457 139.1a3.768 3.768 0 0 0-2.514.857 5.455 5.455 0 0 0-1.743 4.257c0 2.629 1.343 5.114 4.257 5.114a3.8 3.8 0 0 0 3.086-1.429 5.831 5.831 0 0 0 1.171-3.714c0-2.599-1.343-5.085-4.257-5.085zm-.686 2.4a1.358 1.358 0 0 1 .686-.171c1.2 0 1.657 1.086 1.657 2.857a4.073 4.073 0 0 1-.429 2.143 1.364 1.364 0 0 1-1.257.714c-1.2 0-1.657-1.114-1.657-2.857.029-1.343.315-2.315 1-2.686z" transform="translate(-123.886 -139.1)"/>
                <path id="패스_30747" d="M169.257 139.1a3.768 3.768 0 0 0-2.514.857 5.455 5.455 0 0 0-1.743 4.257c0 2.629 1.343 5.114 4.257 5.114a3.8 3.8 0 0 0 3.086-1.429 5.831 5.831 0 0 0 1.171-3.714c-.028-2.599-1.371-5.085-4.257-5.085zm-.686 2.4a1.346 1.346 0 0 1 .686-.143c1.2 0 1.657 1.086 1.657 2.857a4.4 4.4 0 0 1-.4 2.143 1.364 1.364 0 0 1-1.257.714c-1.2 0-1.657-1.114-1.657-2.857-.029-1.371.257-2.343.971-2.714z" transform="translate(-148.029 -139.1)"/>
            </g>
            <g id="그룹_40501" transform="translate(38.243 46.171)">
                <path id="패스_30748" d="M111.057 137.529l-3.457 3.429 1.457 1.514 1.086-1.114.571-.571v6.629h2.543V137.5h-2.2z" class="cls-3" transform="translate(-107.6 -137.386)"/>
                <path id="패스_30749" d="M137.457 137.1a3.725 3.725 0 0 0-3.086 1.429 5.978 5.978 0 0 0-1.171 3.686c0 2.629 1.343 5.114 4.257 5.114a3.822 3.822 0 0 0 2.514-.857 5.476 5.476 0 0 0 1.743-4.286c0-2.6-1.343-5.086-4.257-5.086zm.686 7.829a1.345 1.345 0 0 1-.686.143c-1.2 0-1.657-1.114-1.657-2.857a4.354 4.354 0 0 1 .4-2.114 1.388 1.388 0 0 1 1.257-.743c1.2 0 1.657 1.086 1.657 2.857 0 1.371-.285 2.342-.971 2.714z" class="cls-3" transform="translate(-125.886 -137.1)"/>
                <path id="패스_30750" d="M171.257 137.1a3.725 3.725 0 0 0-3.086 1.429 5.978 5.978 0 0 0-1.171 3.685c0 2.629 1.343 5.114 4.257 5.114a3.822 3.822 0 0 0 2.514-.857 5.476 5.476 0 0 0 1.743-4.286c-.028-2.599-1.371-5.085-4.257-5.085zm.657 7.829a1.345 1.345 0 0 1-.686.143c-1.2 0-1.657-1.114-1.657-2.857a4.282 4.282 0 0 1 .4-2.114 1.364 1.364 0 0 1 1.257-.714c1.2 0 1.657 1.086 1.657 2.857.029 1.342-.256 2.313-.971 2.685z" class="cls-3" transform="translate(-150.029 -137.1)"/>
            </g>
            <g id="그룹_40502" class="cls-1" transform="translate(45.128 60.114)">
                <path id="패스_30751" d="M132.986 186.1H131.7v3.057h1.286a1.663 1.663 0 0 0 1.343-.6 1.453 1.453 0 0 0 .286-.914 1.479 1.479 0 0 0-1.629-1.543zm-.486.686h.486a.779.779 0 0 1 .829.829.838.838 0 0 1-.114.457.854.854 0 0 1-.743.4h-.486v-1.686z" transform="translate(-131.7 -186.043)"/>
                <path id="패스_30752" d="M145.2 188.771L144.143 186h-1L142 189.057h.857l.086-.286.057-.171h1.257l.143.457h.857zm-1.543-2.057l.086.286.229.686.114.286h-.857z" transform="translate(-139.057 -185.971)"/>
                <path id="패스_30753" d="M154.771 186.1l-.257.429-.171.314-.2.371-.657-1.114h-.886l1.171 1.829v1.229h.8v-1.229l1.143-1.829z" transform="translate(-146.629 -186.043)"/>
                <path id="패스_30754" d="M164.857 187.1c-.343-.057-.514-.114-.514-.286 0-.114.086-.229.286-.229h.057a1.51 1.51 0 0 1 .857.314l.229-.314.2-.257a1.789 1.789 0 0 0-1.229-.429 1.57 1.57 0 0 0-.8.2.928.928 0 0 0-.429.743c0 .714.714.857 1.2.943.314.057.486.114.514.286v.029c0 .143-.171.257-.429.257a1.408 1.408 0 0 1-.914-.343l-.057-.057-.429.6a1.913 1.913 0 0 0 1.343.486 1.352 1.352 0 0 0 1.143-.486.987.987 0 0 0 .143-.514c.001-.714-.685-.857-1.171-.943z" transform="translate(-154.343 -185.9)"/>
            </g>
            <g id="그룹_40503" transform="translate(45.414 59.829)">
                <path id="패스_30755" d="M133.986 185.1H132.7v3.057h1.286a1.722 1.722 0 0 0 1.057-.314 1.4 1.4 0 0 0 .571-1.2 1.479 1.479 0 0 0-1.628-1.543zm.429 2.229a.974.974 0 0 1-.457.114h-.486v-1.686h.486a.779.779 0 0 1 .829.829.73.73 0 0 1-.373.743z" class="cls-3" transform="translate(-132.7 -185.043)"/>
                <path id="패스_30756" d="M145.243 185.1h-1l-.114.286-1.029 2.771h.857l.057-.171.086-.286h1.257l.143.457h.857zm-.943 1.914l.229-.686.2-.571.429 1.229h-.858z" class="cls-3" transform="translate(-140.129 -185.043)"/>
                <path id="패스_30757" d="M155.771 185.029l-.171.286-.457.829-.057-.114-.6-1.029h-.886l.171.286.971 1.543v1.229h.8v-1.229l1.144-1.83h-.914z" class="cls-3" transform="translate(-147.629 -184.971)"/>
                <path id="패스_30758" d="M166.071 186.1c-.314-.057-.486-.114-.514-.229v-.057c0-.143.114-.229.371-.229a1.386 1.386 0 0 1 .829.286c.029 0 .029.029.057.029l.429-.571a1.789 1.789 0 0 0-1.229-.429 1.2 1.2 0 0 0-1.086.486.863.863 0 0 0-.143.457c0 .714.714.857 1.2.943.314.057.514.143.514.314a.306.306 0 0 1-.286.257 1.237 1.237 0 0 1-.143.029 1.328 1.328 0 0 1-.971-.4l-.229.343-.171.257a2.036 2.036 0 0 0 2.2.286.887.887 0 0 0 .429-.8c-.085-.743-.771-.886-1.257-.972z" class="cls-3" transform="translate(-155.557 -184.9)"/>
            </g>
            <g id="그룹_40504" opacity="0.25" transform="translate(43.472 24.028)">
                <path id="패스_30759" d="M126.986 60.486c-.257-.057-.4-.086-.4-.2 0-.086.086-.171.257-.171a1.062 1.062 0 0 1 .629.229l.314-.429a1.418 1.418 0 0 0-.914-.314c-.571 0-.914.343-.914.714 0 .543.543.629.914.714.257.057.4.114.4.229s-.114.2-.314.2a1.052 1.052 0 0 1-.743-.314l-.314.457a1.36 1.36 0 0 0 1.029.371c.6 0 .943-.314.943-.771.027-.515-.487-.63-.887-.715z" transform="translate(-125.9 -59.6)"/>
                <path id="패스_30760" d="M134.2 59.7v.514h.629v1.771h.6v-1.771h.629V59.7H134.2z" transform="translate(-131.829 -59.671)"/>
                <path id="패스_30761" d="M144.186 61.157a.718.718 0 0 0 .457-.686.742.742 0 0 0-.8-.771H142.7v2.286h.6v-.771h.314l.4.771h.686zm-.429-.429h-.457v-.514h.457a.263.263 0 0 1 .286.257.3.3 0 0 1-.286.258z" transform="translate(-137.9 -59.671)"/>
                <path id="패스_30762" d="M153.186 60.286V59.8H151.5v2.286h1.686v-.514H152.1v-.4h1.057v-.514H152.1v-.371z" transform="translate(-144.186 -59.743)"/>
                <path id="패스_30763" d="M160.2 59.7h-.743l-.857 2.286h.629l.114-.343h.943l.114.343h.629zm-.686 1.457l.314-.914.314.914z" transform="translate(-149.257 -59.671)"/>
                <path id="패스_30764" d="M169.843 60.857l.886-1.057h-.714l-.714.943V59.8h-.6v2.286h.6v-.657l.143-.2.6.857h.714z" transform="translate(-156.471 -59.743)"/>
            </g>
            <path id="패스_30765" d="M52.1 54.3c0 2.371-1.057 3.4-3.4 3.4 2.371 0 3.4 1.057 3.4 3.4 0-2.371 1.057-3.4 3.4-3.4-2.343 0-3.4-1.029-3.4-3.4z" class="cls-3" transform="translate(-26.286 -25.786)"/>
            <path id="패스_30766" d="M249.743 202c0 1.629-.714 2.343-2.343 2.343 1.629 0 2.343.714 2.343 2.343 0-1.629.714-2.343 2.343-2.343-1.629-.029-2.343-.743-2.343-2.343z" class="cls-3" transform="translate(-169.214 -149.286)"/>
            <path id="선_167" d="M0 0L0 7.886" class="cls-16" transform="translate(74.986 29.2)"/>
            <path id="선_168" d="M0 0L0 3.4" class="cls-16" transform="translate(76.986 36.657)"/>
        </g>
    </g>
</svg>
