<svg xmlns="http://www.w3.org/2000/svg" width="360" height="382" viewBox="0 0 360 382">
    <defs>
        <clipPath id="47ysk284oa"/>
        <filter id="hta1gntarb" width="363.001" height="374.002" x="-1.5" y="-.5" filterUnits="userSpaceOnUse">
            <feOffset dy="1"/>
            <feGaussianBlur result="blur" stdDeviation=".5"/>
            <feFlood flood-opacity=".161"/>
            <feComposite in2="blur" operator="in"/>
            <feComposite in="SourceGraphic"/>
        </filter>
    </defs>
    <g clip-path="url(#47ysk284oa)">
        <g filter="url(#hta1gntarb)">
            <path fill="#fcfcfc" d="M-7586-9808h-4a2.986 2.986 0 0 0-.879-2.122 2.978 2.978 0 0 0-2.12-.88 3.005 3.005 0 0 0-3 3h-4a2.986 2.986 0 0 0-.879-2.122 2.978 2.978 0 0 0-2.12-.88 3 3 0 0 0-3 3h-4a2.986 2.986 0 0 0-.879-2.122 2.978 2.978 0 0 0-2.12-.88 3.005 3.005 0 0 0-3 3h-4a2.986 2.986 0 0 0-.879-2.122 2.978 2.978 0 0 0-2.12-.88 3 3 0 0 0-3 3h-4a2.986 2.986 0 0 0-.879-2.122 2.978 2.978 0 0 0-2.12-.88 3.005 3.005 0 0 0-3 3h-4a2.986 2.986 0 0 0-.879-2.122 2.978 2.978 0 0 0-2.12-.88 3 3 0 0 0-3 3h-4a2.986 2.986 0 0 0-.879-2.122 2.978 2.978 0 0 0-2.12-.88 3.005 3.005 0 0 0-3 3h-4a2.986 2.986 0 0 0-.879-2.122 2.978 2.978 0 0 0-2.12-.88 3 3 0 0 0-3 3h-4a2.985 2.985 0 0 0-.88-2.122A2.981 2.981 0 0 0-7673-9811a3 3 0 0 0-3 3h-4a2.983 2.983 0 0 0-.88-2.122 2.98 2.98 0 0 0-2.12-.878 3 3 0 0 0-3 3h-4a2.986 2.986 0 0 0-.879-2.122 2.978 2.978 0 0 0-2.12-.88 3.005 3.005 0 0 0-3 3h-4a2.986 2.986 0 0 0-.879-2.122 2.978 2.978 0 0 0-2.12-.88 3 3 0 0 0-3 3h-4a2.985 2.985 0 0 0-.88-2.122A2.981 2.981 0 0 0-7713-9811a3 3 0 0 0-3 3h-4a2.986 2.986 0 0 0-.879-2.122 2.978 2.978 0 0 0-2.12-.88 3.005 3.005 0 0 0-3 3h-4a2.986 2.986 0 0 0-.879-2.122 2.978 2.978 0 0 0-2.12-.88 3.005 3.005 0 0 0-3 3h-4a2.984 2.984 0 0 0-.88-2.122 2.978 2.978 0 0 0-2.12-.88 3 3 0 0 0-3 3h-4a2.985 2.985 0 0 0-.88-2.122A2.981 2.981 0 0 0-7753-9811a3 3 0 0 0-3 3h-4a2.986 2.986 0 0 0-.879-2.122 2.978 2.978 0 0 0-2.12-.88 3 3 0 0 0-3 3h-4a2.985 2.985 0 0 0-.88-2.122A2.981 2.981 0 0 0-7773-9811a3 3 0 0 0-3 3h-4a2.986 2.986 0 0 0-.879-2.122 2.978 2.978 0 0 0-2.12-.88 3.005 3.005 0 0 0-3 3h-4a2.984 2.984 0 0 0-.88-2.122 2.978 2.978 0 0 0-2.12-.88 3 3 0 0 0-3 3h-4a2.986 2.986 0 0 0-.879-2.122 2.978 2.978 0 0 0-2.12-.88 3 3 0 0 0-3 3h-4a2.983 2.983 0 0 0-.88-2.122A2.98 2.98 0 0 0-7813-9811a3 3 0 0 0-3 3h-4a2.986 2.986 0 0 0-.879-2.122 2.978 2.978 0 0 0-2.12-.88 3.005 3.005 0 0 0-3 3h-4a2.983 2.983 0 0 0-.88-2.122A2.98 2.98 0 0 0-7833-9811a3 3 0 0 0-3 3h-4a2.984 2.984 0 0 0-.88-2.122 2.978 2.978 0 0 0-2.12-.88 3.005 3.005 0 0 0-3 3h-4a2.983 2.983 0 0 0-.88-2.122 2.98 2.98 0 0 0-2.12-.876 3 3 0 0 0-3 3h-4a2.986 2.986 0 0 0-.879-2.122 2.978 2.978 0 0 0-2.12-.88 3.005 3.005 0 0 0-3 3h-4a2.986 2.986 0 0 0-.879-2.122 2.978 2.978 0 0 0-2.12-.88 3 3 0 0 0-3 3h-4a2.986 2.986 0 0 0-.879-2.122 2.978 2.978 0 0 0-2.12-.88 3.005 3.005 0 0 0-3 3h-4a2.984 2.984 0 0 0-.88-2.122 2.978 2.978 0 0 0-2.12-.88 3 3 0 0 0-3 3h-4a2.986 2.986 0 0 0-.879-2.122 2.978 2.978 0 0 0-2.12-.88 3.005 3.005 0 0 0-3 3h-4a2.986 2.986 0 0 0-.879-2.122 2.978 2.978 0 0 0-2.12-.88 3 3 0 0 0-3 3h-4a2.986 2.986 0 0 0-.879-2.122 2.978 2.978 0 0 0-2.12-.88 3.005 3.005 0 0 0-3 3h-4a2.986 2.986 0 0 0-.879-2.122 2.978 2.978 0 0 0-2.12-.88 3 3 0 0 0-3 3h-4a2.985 2.985 0 0 0-.88-2.122A2.981 2.981 0 0 0-7943-9811a3 3 0 0 0-3 3v-371h360v371z" transform="translate(7946 10179)"/>
        </g>
    </g>
</svg>
