<svg xmlns="http://www.w3.org/2000/svg" width="190" height="140" viewBox="0 0 190 140">
    <defs>
        <linearGradient id="linear-gradient" x1=".5" x2=".5" y1="-.029" y2=".769" gradientUnits="objectBoundingBox">
            <stop offset="0" stop-color="#42b1ff"/>
            <stop offset="1" stop-color="#4a83e7"/>
        </linearGradient>
        <style>
            .cls-27,.cls-30{fill:#fff}.cls-4{opacity:.8}.cls-5{fill:#ceb598}.cls-10,.cls-11,.cls-12,.cls-13,.cls-16,.cls-17,.cls-18,.cls-21,.cls-22,.cls-23,.cls-24,.cls-26,.cls-27,.cls-28,.cls-5,.cls-6,.cls-61,.cls-8,.cls-9{fill-rule:evenodd}.cls-6{fill:#f8f5e1}.cls-8{fill:#493843}.cls-9{fill:#584350}.cls-10{fill:#847980}.cls-11{fill:#f8e9cc}.cls-12{fill:#b19785}.cls-13,.cls-15{fill:#acc260}.cls-16{fill:#b3c865}.cls-17{fill:#efe1cc}.cls-18{fill:#3c2f38}.cls-21{fill:#f4e4bd}.cls-22{fill:#f3d354}.cls-23{fill:#e7b662}.cls-24{fill:#b37d42}.cls-26{fill:#d4dc8d}.cls-28{fill:#f4d79f}.cls-31{fill:#fbfbfc}.cls-32{fill:#f7f7f8}.cls-33{fill:#f3f4f5}.cls-34{fill:#f0f0f1}.cls-35{fill:#ececee}.cls-36{fill:#e8e8ea}.cls-37{fill:#e4e4e7}.cls-38{fill:#e0e1e3}.cls-39{fill:#dcdde0}.cls-40{fill:#d8d9dc}.cls-41{fill:#d4d5d9}.cls-42{fill:#d1d1d5}.cls-43{fill:#cdcdd2}.cls-44{fill:#c9cace}.cls-45{fill:#c5c6cb}.cls-46{fill:#c1c2c7}.cls-53{fill:#d19420}.cls-55{fill:#ff623c}.cls-56{fill:#a20000}.cls-61{fill:#bf935e}.cls-64{fill:#010d37}.cls-67{fill:#f89ab5}
        </style>
    </defs>
    <g id="img_village_check" transform="translate(-93.521 -72.875)">
        <g id="그룹_42310" transform="translate(-10 2)">
            <g id="그룹_42435" opacity="0.4">
                <path id="패스_33889" fill="#ab938a" d="M144.4 138.539l14.854 8.648 15.32-8.648-15.32-8.133z" opacity="0.5"/>
                <g id="그룹_42387" class="cls-4" transform="translate(-1017.665 -1079.071)">
                    <g id="그룹_42381" transform="translate(1163.019 1173.191)">
                        <path id="패스_33721" d="M1413.6 1373.807v35.1l-13.875 8.053v-35.1z" class="cls-5" transform="translate(-1385.852 -1365.42)"/>
                        <path id="패스_33722" d="M1176.894 1381.86v35.1l-13.875-8.053v-35.1z" class="cls-6" transform="translate(-1163.019 -1365.42)"/>
                        <path id="패스_33723" fill="#ead7ba" fill-rule="evenodd" d="M1163.02 1244.471l13.875-8.053 13.875 8.053-13.875 8.054z" transform="translate(-1163.02 -1236.084)"/>
                        <g id="그룹_42349" transform="translate(0 9.925)">
                            <g id="그룹_42347">
                                <path id="패스_33724" d="M1176.894 1408.007l-13.875-7.97v5.718l13.875 7.968z" class="cls-8" transform="translate(-1163.019 -1400.037)"/>
                                <path id="패스_33725" d="M1176.894 1444.343l-10.492-6.026-3.384 1.638v1.836l11.655 6.693 2.22-.9z" class="cls-9" transform="translate(-1163.019 -1436.073)"/>
                            </g>
                            <g id="그룹_42348" transform="translate(.001 .001)">
                                <path id="패스_33726" d="M1176.907 1413.731v-5.716l-.114-.065v5.716l.114.065zm-3.424-7.683l-.114-.065v5.717l.114.065v-5.717zm-3.654-2.1l-.114-.066v5.717l.114.065v-5.717zm-3.424-1.967l-.114-.065v5.718l.114.065v-5.718zm-3.259-1.872l-.114-.065v5.718l.114.065z" class="cls-10" transform="translate(-1163.033 -1400.046)"/>
                                <path id="패스_33727" d="M1176.907 1447.666v-3.244l-.114-.065v3.356l.114-.046zm-3.424-5.211l-.114-.065v5.417l.114.066v-5.417zm-3.654-2.1l-.114-.065v5.417l.114.065v-5.417zm-3.424-1.956l-.114.055v5.286l.114.065v-5.405zm-3.259 1.577l-.114.055v1.837l.114.065z" class="cls-10" transform="translate(-1163.033 -1436.153)"/>
                            </g>
                        </g>
                        <g id="그룹_42352" transform="translate(0 18.572)">
                            <g id="그룹_42350">
                                <path id="패스_33728" d="M1176.894 1555.524l-13.875-7.97v5.718l13.875 7.968z" class="cls-8" transform="translate(-1163.019 -1547.554)"/>
                                <path id="패스_33729" d="M1176.894 1591.859l-10.492-6.026-3.384 1.638v1.836l11.655 6.693 2.22-.9z" class="cls-9" transform="translate(-1163.019 -1583.589)"/>
                            </g>
                            <g id="그룹_42351" transform="translate(.001)">
                                <path id="패스_33730" d="M1176.907 1561.246v-5.716l-.114-.066v5.716l.114.065zm-3.424-7.683l-.114-.065v5.717l.114.065v-5.717zm-3.654-2.1l-.114-.066v5.717l.114.065v-5.717zm-3.424-1.967l-.114-.065v5.718l.114.065v-5.714zm-3.259-1.872l-.114-.065v5.718l.114.065z" class="cls-10" transform="translate(-1163.033 -1547.561)"/>
                                <path id="패스_33731" d="M1176.907 1595.183v-3.244l-.114-.066v3.356l.114-.046zm-3.424-5.211l-.114-.065v5.417l.114.065v-5.417zm-3.654-2.1l-.114-.065v5.417l.114.065v-5.417zm-3.424-1.956l-.114.055v5.286l.114.065v-5.406zm-3.259 1.577l-.114.055v1.837l.114.065z" class="cls-10" transform="translate(-1163.033 -1583.67)"/>
                            </g>
                        </g>
                        <g id="그룹_42355" transform="translate(0 26.956)">
                            <g id="그룹_42353">
                                <path id="패스_33732" d="M1176.894 1698.548l-13.875-7.97v5.718l13.875 7.968z" class="cls-8" transform="translate(-1163.019 -1690.578)"/>
                                <path id="패스_33733" d="M1176.894 1734.885l-10.492-6.026-3.384 1.638v1.836l11.655 6.693 2.22-.9z" class="cls-9" transform="translate(-1163.019 -1726.615)"/>
                            </g>
                            <g id="그룹_42354" transform="translate(.001 .001)">
                                <path id="패스_33734" d="M1176.907 1704.272v-5.716l-.114-.065v5.716l.114.065zm-3.424-7.683l-.114-.065v5.717l.114.065v-5.717zm-3.654-2.1l-.114-.065v5.717l.114.066v-5.717zm-3.424-1.967l-.114-.065v5.718l.114.065v-5.718zm-3.259-1.872l-.114-.065v5.718l.114.065z" class="cls-10" transform="translate(-1163.033 -1690.587)"/>
                                <path id="패스_33735" d="M1176.907 1738.207v-3.244l-.114-.065v3.356l.114-.046zm-3.424-5.211l-.114-.066v5.417l.114.065V1733zm-3.654-2.1l-.114-.065v5.417l.114.066v-5.414zm-3.424-1.956l-.114.055v5.286l.114.065v-5.406zm-3.259 1.577l-.114.055v1.837l.114.065z" class="cls-10" transform="translate(-1163.033 -1726.694)"/>
                            </g>
                        </g>
                        <g id="그룹_42358" transform="translate(13.875 9.925)">
                            <g id="그룹_42356">
                                <path id="패스_33736" d="M1399.727 1408.007l13.875-7.97v5.718l-13.875 7.968z" class="cls-8" transform="translate(-1399.727 -1400.037)"/>
                                <path id="패스_33737" d="M1399.727 1444.343l10.492-6.026 3.384 1.638v1.836l-11.655 6.693-2.22-.9z" class="cls-9" transform="translate(-1399.727 -1436.073)"/>
                            </g>
                            <g id="그룹_42357" transform="translate(.001 .001)">
                                <path id="패스_33738" d="M1399.739 1413.731v-5.716l.114-.065v5.716l-.114.065zm3.424-7.683l.114-.065v5.717l-.114.065v-5.717zm3.654-2.1l.114-.066v5.717l-.114.065v-5.717zm3.424-1.967l.114-.065v5.718l-.114.065v-5.718zm3.259-1.872l.114-.065v5.718l-.114.065z" class="cls-10" transform="translate(-1399.739 -1400.046)"/>
                                <path id="패스_33739" d="M1399.739 1447.666v-3.244l.114-.065v3.356l-.114-.046zm3.424-5.211l.114-.065v5.417l-.114.066v-5.417zm3.654-2.1l.114-.065v5.417l-.114.065v-5.417zm3.424-1.956l.114.055v5.286l-.114.065v-5.405zm3.259 1.577l.114.055v1.837l-.114.065z" class="cls-10" transform="translate(-1399.739 -1436.153)"/>
                            </g>
                        </g>
                        <g id="그룹_42361" transform="translate(13.875 18.572)">
                            <g id="그룹_42359">
                                <path id="패스_33740" d="M1399.727 1555.524l13.875-7.97v5.718l-13.875 7.968z" class="cls-8" transform="translate(-1399.727 -1547.554)"/>
                                <path id="패스_33741" d="M1399.727 1591.859l10.492-6.026 3.384 1.638v1.836l-11.655 6.693-2.22-.9z" class="cls-9" transform="translate(-1399.727 -1583.589)"/>
                            </g>
                            <g id="그룹_42360" transform="translate(.001)">
                                <path id="패스_33742" d="M1399.739 1561.246v-5.716l.114-.066v5.716l-.114.065zm3.424-7.683l.114-.065v5.717l-.114.065v-5.717zm3.654-2.1l.114-.066v5.717l-.114.065v-5.717zm3.424-1.967l.114-.065v5.718l-.114.065v-5.714zm3.259-1.872l.114-.065v5.718l-.114.065z" class="cls-10" transform="translate(-1399.739 -1547.561)"/>
                                <path id="패스_33743" d="M1399.739 1595.183v-3.244l.114-.066v3.356l-.114-.046zm3.424-5.211l.114-.065v5.417l-.114.065v-5.417zm3.654-2.1l.114-.065v5.417l-.114.065v-5.417zm3.424-1.956l.114.055v5.286l-.114.065v-5.406zm3.259 1.577l.114.055v1.837l-.114.065z" class="cls-10" transform="translate(-1399.739 -1583.67)"/>
                            </g>
                        </g>
                        <g id="그룹_42364" transform="translate(13.875 26.956)">
                            <g id="그룹_42362">
                                <path id="패스_33744" d="M1399.727 1698.548l13.875-7.97v5.718l-13.875 7.968z" class="cls-8" transform="translate(-1399.727 -1690.578)"/>
                                <path id="패스_33745" d="M1399.727 1734.885l10.492-6.026 3.384 1.638v1.836l-11.655 6.693-2.22-.9z" class="cls-9" transform="translate(-1399.727 -1726.615)"/>
                            </g>
                            <g id="그룹_42363" transform="translate(.001 .001)">
                                <path id="패스_33746" d="M1399.739 1704.272v-5.716l.114-.065v5.716l-.114.065zm3.424-7.683l.114-.065v5.717l-.114.065v-5.717zm3.654-2.1l.114-.065v5.717l-.114.066v-5.717zm3.424-1.967l.114-.065v5.718l-.114.065v-5.718zm3.259-1.872l.114-.065v5.718l-.114.065z" class="cls-10" transform="translate(-1399.739 -1690.587)"/>
                                <path id="패스_33747" d="M1399.739 1738.207v-3.244l.114-.065v3.356l-.114-.046zm3.424-5.211l.114-.066v5.417l-.114.065V1733zm3.654-2.1l.114-.065v5.417l-.114.066v-5.414zm3.424-1.956l.114.055v5.286l-.114.065v-5.406zm3.259 1.577l.114.055v1.837l-.114.065z" class="cls-10" transform="translate(-1399.739 -1726.694)"/>
                            </g>
                        </g>
                        <path id="패스_33748" d="M1399.727 1249.465l11.3 6.556 1.43-.83-12.725-7.386z" class="cls-6" transform="translate(-1385.852 -1246.804)"/>
                        <path id="패스_33749" d="M1207.035 1282.679l11.3 6.556 11.3-6.556-11.3-6.556z" class="cls-11" transform="translate(-1204.455 -1273.462)"/>
                        <path id="패스_33750" d="M1182.641 1255.191l1.43.83 11.3-6.556v-1.66z" class="cls-12" transform="translate(-1181.49 -1246.804)"/>
                        <g id="그룹_42367" transform="translate(0 35.392)">
                            <g id="그룹_42365">
                                <path id="패스_33751" d="M1176.894 1842.479l-13.875-7.97v5.718l13.875 7.968z" class="cls-8" transform="translate(-1163.019 -1834.509)"/>
                                <path id="패스_33752" d="M1176.894 1878.817l-10.492-6.026-3.384 1.638v1.836l11.655 6.693 2.22-.9z" class="cls-9" transform="translate(-1163.019 -1870.547)"/>
                            </g>
                            <g id="그룹_42366" transform="translate(.001 .001)">
                                <path id="패스_33753" d="M1176.907 1848.2v-5.717l-.114-.065v5.716l.114.065zm-3.424-7.683l-.114-.065v5.717l.114.065v-5.717zm-3.654-2.1l-.114-.065v5.717l.114.065v-5.717zm-3.424-1.967l-.114-.065v5.718l.114.066v-5.718zm-3.259-1.872l-.114-.065v5.718l.114.065z" class="cls-10" transform="translate(-1163.033 -1834.519)"/>
                                <path id="패스_33754" d="M1176.907 1882.138v-3.244l-.114-.066v3.356l.114-.046zm-3.424-5.211l-.114-.066v5.417l.114.065v-5.417zm-3.654-2.1l-.114-.065v5.417l.114.065v-5.417zm-3.424-1.956l-.114.055v5.286l.114.066v-5.406zm-3.259 1.577l-.114.055v1.837l.114.065z" class="cls-10" transform="translate(-1163.033 -1870.625)"/>
                            </g>
                        </g>
                        <g id="그룹_42370" transform="translate(13.875 35.392)">
                            <g id="그룹_42368">
                                <path id="패스_33755" d="M1399.727 1842.479l13.875-7.97v5.718l-13.875 7.968z" class="cls-8" transform="translate(-1399.727 -1834.509)"/>
                                <path id="패스_33756" d="M1399.727 1878.817l10.492-6.026 3.384 1.638v1.836l-11.655 6.693-2.22-.9z" class="cls-9" transform="translate(-1399.727 -1870.547)"/>
                            </g>
                            <g id="그룹_42369" transform="translate(.001 .001)">
                                <path id="패스_33757" d="M1399.739 1848.2v-5.717l.114-.065v5.716l-.114.065zm3.424-7.683l.114-.065v5.717l-.114.065v-5.717zm3.654-2.1l.114-.065v5.717l-.114.065v-5.717zm3.424-1.967l.114-.065v5.718l-.114.066v-5.718zm3.259-1.872l.114-.065v5.718l-.114.065z" class="cls-10" transform="translate(-1399.739 -1834.519)"/>
                                <path id="패스_33758" d="M1399.739 1882.138v-3.244l.114-.066v3.356l-.114-.046zm3.424-5.211l.114-.066v5.417l-.114.065v-5.417zm3.654-2.1l.114-.065v5.417l-.114.065v-5.417zm3.424-1.956l.114.055v5.286l-.114.066v-5.406zm3.259 1.577l.114.055v1.837l-.114.065z" class="cls-10" transform="translate(-1399.739 -1870.625)"/>
                            </g>
                        </g>
                        <g id="그룹_42372" transform="translate(2.58 2.661)">
                            <g id="그룹_42371" transform="translate(2.556 1.497)">
                                <path id="패스_33759" d="M1250.845 1390.877l2.221-1.284v-.237l-2.426 1.4z" class="cls-13" transform="translate(-1250.64 -1384.215)"/>
                                <path id="패스_33760" d="M1283.09 1316.128v.237l7.3-4.237v-.237z" class="cls-13" transform="translate(-1281.188 -1311.292)"/>
                                <path id="패스_33761" d="M1407.625 1311.891v.237l.538.313v-.237z" class="cls-13" transform="translate(-1398.423 -1311.292)"/>
                                <path id="패스_33762" d="M1416.808 1302.574v.237l1.578-.912v-.237z" class="cls-13" transform="translate(-1407.068 -1301.662)"/>
                                <path id="패스_33763" d="M1271.16 1425.185l-4.255-2.47z" class="cls-13" transform="translate(-1265.952 -1415.619)"/>
                                <path id="패스_33764" d="M1339.491 1442.329l.2.119 2.221-1.284v-.237z" class="cls-13" transform="translate(-1334.283 -1432.763)"/>
                                <path id="패스_33765" d="M1505.659 1354.144v.237l1.578-.912v-.237z" class="cls-13" transform="translate(-1490.711 -1350.209)"/>
                                <path id="패스_33766" d="M1433.074 1326.663v.237l4.255 2.469v-.237z" class="cls-13" transform="translate(-1422.38 -1325.198)"/>
                                <path id="패스_33767" d="M1355.756 1474.286l2.577 1.5z" class="cls-13" transform="translate(-1349.594 -1464.167)"/>
                                <path id="패스_33768" d="M1399.727 1394.521l11.3-6.556z" class="cls-13" transform="translate(-1390.988 -1382.906)"/>
                                <path id="패스_33769" d="M1521.924 1378.233v.237l.6.348v-.237z" class="cls-13" transform="translate(-1506.022 -1373.744)"/>
                            </g>
                            <path id="패스_33770" fill="#bdcf7c" fill-rule="evenodd" d="M1207.035 1282.679l2.556 1.484 2.426-1.4-.523-.3 7.3-4.237.538.313 1.578-.912-2.579-1.5-11.3 6.556zm3.509 2.037l2.426-1.4 4.255 2.47-2.426 1.4-4.255-2.47zm14-3.161l-4.255-2.469 1.578-.912 4.255 2.47-1.578.912zm-8.787 6.184l2.426-1.4.615.357 7.3-4.237-.6-.348 1.578-.912 2.554 1.483-11.3 6.556z" transform="translate(-1207.035 -1276.123)"/>
                        </g>
                        <g id="그룹_42375" transform="translate(8.164)">
                            <path id="패스_33771" d="M1413.8 1291.858v5.358l-6.174 3.583v-5.358z" class="cls-5" transform="translate(-1401.45 -1288.275)"/>
                            <path id="패스_33772" d="M1308.472 1295.442v5.358l-6.174-3.583v-5.358z" class="cls-6" transform="translate(-1302.298 -1288.275)"/>
                            <path id="패스_33773" d="M1302.3 1234.309l6.174-3.583 6.174 3.583-6.174 3.583z" class="cls-11" transform="translate(-1302.298 -1230.726)"/>
                            <g id="그룹_42373" transform="translate(6.832 4.885)">
                                <path id="패스_33774" d="M1418.849 1316.873l1.619-.935v1.9l-1.619.935v-1.9zm3.239-1.871l1.619-.935v1.9l-1.619.935z" class="cls-8" transform="translate(-1418.849 -1314.067)"/>
                                <path id="패스_33775" d="M1418.849 1322.348l1.456-.841v1.671l-1.456.841v-1.671zm4.695-1.041l-1.456.841v-1.671l1.456-.841z" class="cls-9" transform="translate(-1418.849 -1319.31)"/>
                            </g>
                            <g id="그룹_42374" transform="translate(.658 4.885)">
                                <path id="패스_33776" d="M1318.381 1316.873l-1.619-.935v1.9l1.619.935v-1.9zm-3.239-1.871l-1.619-.935v1.9l1.619.935z" class="cls-8" transform="translate(-1313.523 -1314.067)"/>
                                <path id="패스_33777" d="M1321 1322.348l-1.456-.841v1.671l1.456.841v-1.671zm-4.695-1.041l1.456.841v-1.671l-1.456-.841z" class="cls-9" transform="translate(-1316.145 -1319.31)"/>
                            </g>
                        </g>
                        <g id="그룹_42376" transform="translate(17.264 9.868)">
                            <circle id="타원_1411" cx="1.21" cy="1.21" r="1.21" class="cls-15" transform="rotate(-.597 2.4 .012)"/>
                            <path id="패스_33778" d="M1462.529 1404.4a.7.7 0 1 0-.7-.7.7.7 0 0 0 .7.7z" class="cls-16" transform="translate(-1461.575 -1402.763)"/>
                        </g>
                        <g id="그룹_42377" transform="translate(20.217 6.995)">
                            <path id="패스_33779" d="M1509.585 1353.408a1.677 1.677 0 1 0-1.677-1.677 1.68 1.68 0 0 0 1.677 1.677z" class="cls-13" transform="translate(-1507.908 -1350.054)"/>
                            <path id="패스_33780" d="M1513.674 1356.965a1.141 1.141 0 1 0-1.141-1.141 1.143 1.143 0 0 0 1.141 1.141z" class="cls-16" transform="translate(-1512.262 -1354.412)"/>
                        </g>
                        <g id="그룹_42378" transform="translate(3.274 5.046)">
                            <path id="패스_33781" d="M1220.545 1316.812c.926 0 1.677 1.934 1.677 2.86a1.677 1.677 0 1 1-3.354 0c0-.926.751-2.86 1.677-2.86z" class="cls-13" transform="translate(-1218.868 -1316.812)"/>
                            <path id="패스_33782" d="M1223.879 1323.15c.646 0 1.17 1.349 1.17 1.995a1.17 1.17 0 0 1-2.339 0c-.001-.645.523-1.995 1.169-1.995z" class="cls-16" transform="translate(-1222.484 -1322.778)"/>
                        </g>
                        <g id="그룹_42379" transform="translate(8.094 9.816)">
                            <circle id="타원_1412" cx="1.21" cy="1.21" r="1.21" class="cls-15" transform="translate(0 .024)"/>
                            <path id="패스_33783" d="M1306.092 1403.5a.7.7 0 1 0-.7-.7.7.7 0 0 0 .7.7z" class="cls-16" transform="translate(-1305.138 -1401.865)"/>
                        </g>
                        <g id="그룹_42380" transform="translate(13.633 11.048)">
                            <path id="패스_33784" d="M1396.864 1419.2c.7 0 1.276 1.471 1.276 2.176a1.276 1.276 0 1 1-2.552 0c0-.708.571-2.176 1.276-2.176z" class="cls-13" transform="translate(-1395.588 -1419.197)"/>
                            <path id="패스_33785" d="M1399.543 1424.018c.491 0 .89 1.026.89 1.518a.89.89 0 0 1-1.78 0c0-.492.399-1.518.89-1.518z" class="cls-16" transform="translate(-1398.473 -1423.735)"/>
                        </g>
                    </g>
                    <g id="그룹_42386" transform="translate(1173.613 1169.608)">
                        <g id="그룹_42384" transform="translate(5.035 .949)">
                            <g id="그룹_42383" transform="translate(0 5.938)">
                                <g id="그룹_42382" transform="translate(0 .38)">
                                    <path id="패스_33786" d="M1441.468 1293.589v.132l-.655.38v-.132z" class="cls-5" transform="translate(-1440.158 -1293.589)"/>
                                    <path id="패스_33787" d="M1430.3 1293.969v.132l-.655-.38v-.132z" class="cls-6" transform="translate(-1429.643 -1293.589)"/>
                                </g>
                                <path id="패스_33788" d="M1429.643 1287.485l.655-.38.655.38-.655.38z" class="cls-17" transform="translate(-1429.643 -1287.105)"/>
                            </g>
                            <path id="패스_33789" d="M1437.135 1185.806h.171l.136 6.269c.005.047 0 .08-.085.131a.264.264 0 0 1-.273 0c-.088-.051-.091-.084-.085-.131z" class="cls-5" transform="translate(-1436.566 -1185.806)"/>
                        </g>
                        <g id="그룹_42385">
                            <path id="패스_33790" d="M1347.952 1169.608l3.416 1.956-4.2 6.925-3.415-1.956z" class="cls-5" transform="translate(-1343.751 -1169.608)"/>
                            <path id="패스_33791" d="M1353.139 1175.608l3.082 1.765-3.89 6.413-3.082-1.765z" class="cls-9" transform="translate(-1348.927 -1175.257)"/>
                            <path id="패스_33792" d="M1361.336 1187.655l-3.92 1-.364.234.975.558 2.629-.67.68-1.121zm-.133-5.031l1.142.654-2.965.757.679-1.12 1.144-.291zm2.025 1.912l-.678 1.117-4.913 1.254.505-.833.625-.4z" class="cls-18" transform="translate(-1356.272 -1181.861)"/>
                            <path id="패스_33793" d="M1352.649 1174.954l.77.441.77.441.771.441.77.441c.013.008.013.032 0 .054l-.777 1.281-.777 1.281-.777 1.281-.777 1.281-.777 1.281c-.013.022-.035.034-.048.026l-.771-.441-.771-.441-.77-.441-.771-.441c-.013-.008-.013-.032 0-.054l.777-1.281.777-1.281.777-1.281.777-1.281.777-1.281c.013-.022.035-.034.048-.026zm-.1 6.955l-.722-.414-.729 1.2.722.414.729-1.2zm.777-1.281l-.722-.414-.729 1.2.722.414.729-1.2zm.777-1.281l-.722-.414-.729 1.2.722.414.729-1.2zm.777-1.281l-.722-.414-.729 1.2.722.414.729-1.2zm.055-1.695l-.729 1.2.722.414.729-1.2-.722-.414zm-3.157 5.1l-.722-.414-.729 1.2.722.414.728-1.2zm.777-1.281l-.722-.414-.729 1.2.722.414.729-1.2zm.777-1.281l-.722-.414-.729 1.2.722.414.729-1.2zm.777-1.281l-.722-.414-.729 1.2.722.414.729-1.2zm.055-1.695l-.729 1.2.722.414.729-1.2-.722-.414zm-3.157 5.1l-.722-.414-.729 1.2.722.414.729-1.2zm.777-1.281l-.722-.414-.729 1.2.722.414.729-1.2zm.777-1.281l-.722-.414-.729 1.2.722.414.729-1.2zm.777-1.281l-.722-.414-.729 1.2.722.414.729-1.2zm.055-1.695l-.729 1.2.722.414.729-1.2-.722-.414zm-3.157 5.1l-.722-.414-.729 1.2.722.414.729-1.2zm.777-1.281l-.722-.414-.729 1.2.722.414.729-1.2zm.777-1.281l-.722-.414-.729 1.2.722.414.729-1.2zm.777-1.281l-.722-.414-.729 1.2.722.414.729-1.2zm.777-1.281l-.722-.414-.729 1.2.722.414z" class="cls-6" transform="translate(-1348.414 -1174.638)"/>
                        </g>
                        <path id="패스_33794" d="M1402.114 1209.971l-.133-.065 4.2-6.926.126.077z" class="cls-18" transform="translate(-1398.568 -1201.024)"/>
                    </g>
                </g>
            </g>
            <g id="그룹_42388" opacity="0.5" transform="translate(-3279.224 -1472.998)">
                <path id="패스_33890" fill="#ab938a" d="M144.4 139.758l14.854 9.944 15.32-9.944-15.32-9.352z" transform="translate(3347.224 1468.482)"/>
                <g id="그룹_42388-2" transform="translate(3509.716 1558.379)">
                    <path id="패스_33795" d="M3681 1562.093l14.675 8.429v-2.493L3681 1559.6z" class="cls-5" transform="translate(-3681.002 -1559.488)"/>
                    <path id="패스_33796" d="M3681.2 1558.38l14.676 8.43-.2.112-14.676-8.429z" class="cls-21" transform="translate(-3681.002 -1558.38)"/>
                    <path id="패스_33797" d="M3840.424 1649.845v2.493l-.2.112v-2.493z" class="cls-6" transform="translate(-3825.552 -1641.415)"/>
                </g>
                <g id="그룹_42389" transform="translate(3492.327 1558.379)">
                    <path id="패스_33798" d="M3511.949 1563.131l-17.491 10.156v-2.493l17.386-9.987v1.487h.1z" class="cls-6" transform="translate(-3494.261 -1560.583)"/>
                    <path id="패스_33799" d="M3509.909 1558.379l-17.582 10.1.2.112 17.473-10.039z" class="cls-21" transform="translate(-3492.327 -1558.379)"/>
                </g>
                <path id="패스_33800" d="M3506.844 2092.173l-14.415-8.275v-1.312l14.415 8.276z" class="cls-22" transform="translate(-.093 -475.895)"/>
                <path id="패스_33801" d="M3506.844 1990.264l-14.415-8.276 17.779-10.213 14.415 8.276z" class="cls-23" transform="translate(-.093 -375.296)"/>
                <path id="패스_33802" d="M3648.832 2071.781l17.778-10.213v1.312l-17.778 10.213z" class="cls-24" transform="translate(-142.081 -456.813)"/>
                <path id="패스_33803" d="M3509.523 2000.538l-14.415-8.276v-8.84l14.415 8.276z" class="cls-6" transform="translate(-2.525 -385.87)"/>
                <path id="패스_33804" d="M3651.511 1984.25l17.285-9.929v-8.84l-17.285 9.929z" class="cls-5" transform="translate(-144.513 -369.581)"/>
                <path id="패스_33805" d="M3509.523 1904.766l-14.415-8.275v-8.84l14.415 8.276z" class="cls-6" transform="translate(-2.525 -298.924)"/>
                <path id="패스_33806" d="M3651.511 1888.478l17.285-9.929v-8.84l-17.285 9.929z" class="cls-5" transform="translate(-144.513 -282.636)"/>
                <path id="패스_33807" d="M3509.523 1809.073l-14.415-8.275v-8.84l14.415 8.275z" class="cls-6" transform="translate(-2.525 -212.051)"/>
                <path id="패스_33808" d="M3651.511 1792.785l17.285-9.929v-8.84l-17.285 9.929z" class="cls-5" transform="translate(-144.513 -195.762)"/>
                <path id="패스_33809" d="M3509.523 1713.3l-14.415-8.276v-8.84l14.415 8.276z" class="cls-6" transform="translate(-2.525 -125.105)"/>
                <path id="패스_33810" d="M3651.511 1697.012l17.285-9.929v-8.84l-17.285 9.929z" class="cls-5" transform="translate(-144.513 -108.817)"/>
                <path id="패스_33811" d="M3507.9 1690.9l-14.586-8.374v-1.326l14.586 8.374z" class="cls-22" transform="translate(-.897 -111.498)"/>
                <path id="패스_33812" d="M3506.96 1589.837l-14.586-8.374 17.581-10.1 14.673 8.4z" class="cls-23" transform="translate(-.043 -11.787)"/>
                <path id="패스_33813" d="M3651.581 1672.575l17.581-10.1v1.327l-17.581 10.1z" class="cls-24" transform="translate(-144.577 -94.503)"/>
                <g id="그룹_42390" transform="translate(3506.808 1566.698)">
                    <path id="패스_33814" d="M3669.168 1652.361l-17.581 10.1v-2.493l17.581-10.1z" class="cls-12" transform="translate(-3651.391 -1649.756)"/>
                    <path id="패스_33815" d="M3667.038 1648.649l-17.582 10.1.2.112 17.581-10.1z" class="cls-21" transform="translate(-3649.456 -1648.649)"/>
                </g>
                <g id="그룹_42391" transform="translate(3492.327 1568.361)">
                    <path id="패스_33816" fill="#ebddc7" fill-rule="evenodd" d="M3492.328 1670.4l14.675 8.429v-2.493l-14.675-8.429z" transform="translate(-3492.328 -1667.79)"/>
                    <path id="패스_33817" d="M3492.523 1666.683l14.676 8.43-.2.112-14.675-8.429z" class="cls-21" transform="translate(-3492.328 -1666.683)"/>
                    <path id="패스_33818" d="M3651.75 1758.149v2.493l-.2.112v-2.493z" class="cls-12" transform="translate(-3636.878 -1749.719)"/>
                </g>
                <g id="그룹_42398" transform="translate(3493.215 1599.766)">
                    <g id="그룹_42394">
                        <g id="그룹_42392">
                            <path id="패스_33819" d="M3515.744 2015.36l-13.783-7.917v5.68l13.783 7.915z" class="cls-8" transform="translate(-3501.961 -2007.443)"/>
                            <path id="패스_33820" d="M3515.744 2037.615l-10.422-5.986-3.361 1.627v1.824l11.577 6.649 2.206-.892z" class="cls-9" transform="translate(-3501.961 -2029.4)"/>
                        </g>
                        <g id="그룹_42393" transform="translate(.001 .001)">
                            <path id="패스_33821" d="M3515.75 2021.043v-5.678l-.113-.065v5.678l.113.065zm-3.4-7.632l-.113-.065v5.679l.113.065v-5.679zm-3.629-2.084l-.113-.065v5.679l.113.065v-5.679zm-3.4-1.954l-.113-.065v5.679l.113.065v-5.679zm-3.237-1.859l-.113-.065v5.68l.113.065z" class="cls-10" transform="translate(-3501.969 -2007.449)"/>
                            <path id="패스_33822" d="M3515.75 2040.885v-3.223l-.113-.065v3.333l.113-.046zm-3.4-5.176l-.113-.065v5.381l.113.065v-5.38zm-3.629-2.085l-.113-.065v5.381l.113.065v-5.381zm-3.4-1.943l-.113.055v5.251l.113.065v-5.37zm-3.237 1.567l-.113.055v1.825l.113.065z" class="cls-10" transform="translate(-3501.969 -2029.448)"/>
                        </g>
                    </g>
                    <g id="그룹_42397" transform="translate(13.783 1.866)">
                        <g id="그룹_42395">
                            <path id="패스_33823" d="M3651.509 2033.741l10.534-6.051v5.68l-10.534 6.05z" class="cls-8" transform="translate(-3651.509 -2027.69)"/>
                            <path id="패스_33824" d="M3651.509 2037.615l10.422-5.986.112.054v5.262l-8.329 4.783-2.206-.892z" class="cls-9" transform="translate(-3651.509 -2031.266)"/>
                        </g>
                        <g id="그룹_42396" transform="translate(.001)">
                            <path id="패스_33825" d="M3651.517 2039.419v-5.678l.113-.065v5.678l-.113.065zm3.4-7.632l.113-.065v5.679l-.113.065v-5.679zm3.629-2.084l.113-.065v5.679l-.113.065v-5.682zm3.4-1.954l.1-.059v5.68l-.1.059z" class="cls-10" transform="translate(-3651.517 -2027.69)"/>
                            <path id="패스_33826" d="M3651.517 2040.885v-3.223l.113-.065v3.333l-.113-.046zm3.4-5.176l.113-.065v5.381l-.113.065v-5.38zm3.629-2.085l.113-.065v5.381l-.113.065v-5.381zm3.4-1.943l.1.05v5.262l-.1.059z" class="cls-10" transform="translate(-3651.517 -2031.313)"/>
                        </g>
                    </g>
                </g>
                <g id="그룹_42405" transform="translate(3493.215 1590.94)">
                    <g id="그룹_42401">
                        <g id="그룹_42399">
                            <path id="패스_33827" d="M3515.744 1919.588l-13.783-7.917v5.68l13.783 7.915z" class="cls-8" transform="translate(-3501.961 -1911.672)"/>
                            <path id="패스_33828" d="M3515.744 1941.843l-10.422-5.986-3.361 1.627v1.824l11.577 6.649 2.206-.892z" class="cls-9" transform="translate(-3501.961 -1933.628)"/>
                        </g>
                        <g id="그룹_42400" transform="translate(.001 .001)">
                            <path id="패스_33829" d="M3515.75 1925.271v-5.678l-.113-.065v5.678l.113.065zm-3.4-7.632l-.113-.065v5.679l.113.065v-5.679zm-3.629-2.084l-.113-.065v5.679l.113.065v-5.679zm-3.4-1.954l-.113-.065v5.68l.113.065v-5.68zm-3.237-1.859l-.113-.065v5.68l.113.065z" class="cls-10" transform="translate(-3501.969 -1911.677)"/>
                            <path id="패스_33830" d="M3515.75 1945.113v-3.223l-.113-.065v3.333l.113-.046zm-3.4-5.176l-.113-.065v5.381l.113.065v-5.38zm-3.629-2.084l-.113-.065v5.381l.113.065v-5.381zm-3.4-1.943l-.113.055v5.251l.113.065v-5.37zm-3.237 1.567l-.113.055v1.825l.113.065z" class="cls-10" transform="translate(-3501.969 -1933.676)"/>
                        </g>
                    </g>
                    <g id="그룹_42404" transform="translate(13.783 1.866)">
                        <g id="그룹_42402">
                            <path id="패스_33831" d="M3651.509 1937.969l10.534-6.051v5.68l-10.534 6.05z" class="cls-8" transform="translate(-3651.509 -1931.918)"/>
                            <path id="패스_33832" d="M3651.509 1941.843l10.422-5.986.112.055v5.262l-8.329 4.783-2.206-.892z" class="cls-9" transform="translate(-3651.509 -1935.494)"/>
                        </g>
                        <g id="그룹_42403" transform="translate(.001)">
                            <path id="패스_33833" d="M3651.517 1943.647v-5.678l.113-.065v5.678l-.113.065zm3.4-7.632l.113-.065v5.679l-.113.065v-5.679zm3.629-2.084l.113-.065v5.679l-.113.065v-5.679zm3.4-1.954l.1-.059v5.68l-.1.059z" class="cls-10" transform="translate(-3651.517 -1931.918)"/>
                            <path id="패스_33834" d="M3651.517 1945.113v-3.223l.113-.065v3.333l-.113-.046zm3.4-5.176l.113-.065v5.381l-.113.065v-5.38zm3.629-2.084l.113-.065v5.381l-.113.065v-5.381zm3.4-1.943l.1.05v5.262l-.1.059z" class="cls-10" transform="translate(-3651.517 -1935.541)"/>
                        </g>
                    </g>
                </g>
                <g id="그룹_42412" transform="translate(3493.215 1582.12)">
                    <g id="그룹_42408">
                        <g id="그룹_42406">
                            <path id="패스_33835" d="M3515.744 1823.9l-13.783-7.917v5.68l13.783 7.916z" class="cls-8" transform="translate(-3501.961 -1815.979)"/>
                            <path id="패스_33836" d="M3515.744 1846.15l-10.422-5.986-3.361 1.627v1.824l11.577 6.649 2.206-.892z" class="cls-9" transform="translate(-3501.961 -1837.935)"/>
                        </g>
                        <g id="그룹_42407" transform="translate(.001 .001)">
                            <path id="패스_33837" d="M3515.75 1829.578v-5.678l-.113-.065v5.678l.113.065zm-3.4-7.632l-.113-.065v5.679l.113.065v-5.679zm-3.629-2.084l-.113-.065v5.679l.113.065v-5.679zm-3.4-1.954l-.113-.065v5.679l.113.065v-5.68zm-3.237-1.859l-.113-.065v5.68l.113.065z" class="cls-10" transform="translate(-3501.969 -1815.984)"/>
                            <path id="패스_33838" d="M3515.75 1849.42v-3.22l-.113-.065v3.333l.113-.046zm-3.4-5.176l-.113-.065v5.381l.113.065v-5.381zm-3.629-2.084l-.113-.065v5.381l.113.065v-5.381zm-3.4-1.943l-.113.055v5.25l.113.065v-5.37zm-3.237 1.567l-.113.055v1.825l.113.065z" class="cls-10" transform="translate(-3501.969 -1837.983)"/>
                        </g>
                    </g>
                    <g id="그룹_42411" transform="translate(13.783 1.866)">
                        <g id="그룹_42409">
                            <path id="패스_33839" d="M3651.509 1842.276l10.534-6.051v5.68l-10.534 6.05z" class="cls-8" transform="translate(-3651.509 -1836.225)"/>
                            <path id="패스_33840" d="M3651.509 1846.15l10.422-5.986.112.054v5.262l-8.329 4.783-2.206-.892z" class="cls-9" transform="translate(-3651.509 -1839.801)"/>
                        </g>
                        <g id="그룹_42410" transform="translate(.001)">
                            <path id="패스_33841" d="M3651.517 1847.954v-5.678l.113-.065v5.678l-.113.065zm3.4-7.632l.113-.065v5.679l-.113.065v-5.679zm3.629-2.084l.113-.065v5.679l-.113.065v-5.679zm3.4-1.954l.1-.059v5.68l-.1.059z" class="cls-10" transform="translate(-3651.517 -1836.225)"/>
                            <path id="패스_33842" d="M3651.517 1849.42v-3.22l.113-.065v3.333l-.113-.046zm3.4-5.176l.113-.065v5.381l-.113.065v-5.381zm3.629-2.084l.113-.065v5.381l-.113.065v-5.381zm3.4-1.943l.1.05v5.262l-.1.059z" class="cls-10" transform="translate(-3651.517 -1839.848)"/>
                        </g>
                    </g>
                </g>
                <g id="그룹_42419" transform="translate(3493.215 1573.294)">
                    <g id="그룹_42415">
                        <g id="그룹_42413">
                            <path id="패스_33843" d="M3515.744 1728.123l-13.783-7.917v5.68l13.783 7.915z" class="cls-8" transform="translate(-3501.961 -1720.207)"/>
                            <path id="패스_33844" d="M3515.744 1750.378l-10.422-5.986-3.361 1.627v1.824l11.577 6.648 2.206-.892z" class="cls-9" transform="translate(-3501.961 -1742.163)"/>
                        </g>
                        <g id="그룹_42414" transform="translate(.001 .001)">
                            <path id="패스_33845" d="M3515.75 1733.807v-5.678l-.113-.065v5.678l.113.065zm-3.4-7.632l-.113-.065v5.679l.113.065v-5.679zm-3.629-2.085l-.113-.065v5.679l.113.065v-5.679zm-3.4-1.954l-.113-.065v5.679l.113.065v-5.68zm-3.237-1.859l-.113-.065v5.68l.113.065z" class="cls-10" transform="translate(-3501.969 -1720.213)"/>
                            <path id="패스_33846" d="M3515.75 1753.647v-3.223l-.113-.065v3.333l.113-.046zm-3.4-5.176l-.113-.065v5.381l.113.065v-5.381zm-3.629-2.084l-.113-.065v5.381l.113.065v-5.381zm-3.4-1.943l-.113.055v5.25l.113.065v-5.37zm-3.237 1.567l-.113.055v1.825l.113.065z" class="cls-10" transform="translate(-3501.969 -1742.211)"/>
                        </g>
                    </g>
                    <g id="그룹_42418" transform="translate(13.783 1.866)">
                        <g id="그룹_42416">
                            <path id="패스_33847" d="M3651.509 1746.5l10.534-6.051v5.68l-10.534 6.05z" class="cls-8" transform="translate(-3651.509 -1740.453)"/>
                            <path id="패스_33848" d="M3651.509 1750.378l10.422-5.986.112.054v5.262l-8.329 4.783-2.206-.892z" class="cls-9" transform="translate(-3651.509 -1744.029)"/>
                        </g>
                        <g id="그룹_42417" transform="translate(.001)">
                            <path id="패스_33849" d="M3651.517 1752.182v-5.682l.113-.065v5.678l-.113.065zm3.4-7.632l.113-.065v5.679l-.113.065v-5.679zm3.629-2.085l.113-.065v5.679l-.113.065v-5.679zm3.4-1.954l.1-.059v5.68l-.1.059z" class="cls-10" transform="translate(-3651.517 -1740.453)"/>
                            <path id="패스_33850" d="M3651.517 1753.647v-3.223l.113-.065v3.333l-.113-.046zm3.4-5.176l.113-.065v5.381l-.113.065v-5.381zm3.629-2.084l.113-.065v5.381l-.113.065v-5.381zm3.4-1.943l.1.05v5.262l-.1.059z" class="cls-10" transform="translate(-3651.517 -1744.076)"/>
                        </g>
                    </g>
                </g>
                <g id="그룹_42422" transform="translate(3519.854 1598.366)">
                    <g id="그룹_42420">
                        <path id="패스_33851" d="M3791 1994.258l3.5-2.011v5.68l-3.5 2.01z" class="cls-8" transform="translate(-3791 -1992.248)"/>
                        <path id="패스_33852" d="M3791 1998.131l3.388-1.946.113.055v5.262l-3.5 2.01z" class="cls-9" transform="translate(-3791 -1995.822)"/>
                    </g>
                    <g id="그룹_42421">
                        <path id="패스_33853" d="M3791 1994.259l.11-.063v5.679l-.11.063v-5.679zm3.4-1.952l.1-.059v5.679l-.1.059z" class="cls-10" transform="translate(-3791 -1992.248)"/>
                        <path id="패스_33854" d="M3791 1998.179l.11-.063v5.381l-.11.063v-5.381zm3.4-1.941l.1.05v5.262l-.1.059z" class="cls-10" transform="translate(-3791 -1995.87)"/>
                    </g>
                </g>
                <g id="그룹_42425" transform="translate(3519.854 1580.639)">
                    <g id="그룹_42423">
                        <path id="패스_33855" d="M3791 1801.916l3.5-2.011v5.68l-3.5 2.01z" class="cls-8" transform="translate(-3791 -1799.905)"/>
                        <path id="패스_33856" d="M3791 1805.79l3.388-1.946.113.054v5.262l-3.5 2.01z" class="cls-9" transform="translate(-3791 -1803.481)"/>
                    </g>
                    <g id="그룹_42424">
                        <path id="패스_33857" d="M3791 1801.916l.11-.063v5.679l-.11.063v-5.679zm3.4-1.952l.1-.059v5.68l-.1.059z" class="cls-10" transform="translate(-3791 -1799.905)"/>
                        <path id="패스_33858" d="M3791 1805.837l.11-.063v5.381l-.11.063v-5.381zm3.4-1.941l.1.05v5.262l-.1.059z" class="cls-10" transform="translate(-3791 -1803.528)"/>
                    </g>
                </g>
                <g id="그룹_42428" transform="translate(3519.854 1589.463)">
                    <g id="그룹_42426">
                        <path id="패스_33859" d="M3791 1897.653l3.5-2.01v5.68l-3.5 2.01z" class="cls-8" transform="translate(-3791 -1895.643)"/>
                        <path id="패스_33860" d="M3791 1901.527l3.388-1.946.113.054v5.262l-3.5 2.01z" class="cls-9" transform="translate(-3791 -1899.218)"/>
                    </g>
                    <g id="그룹_42427">
                        <path id="패스_33861" d="M3791 1897.654l.11-.063v5.679l-.11.063v-5.679zm3.4-1.952l.1-.059v5.679l-.1.059z" class="cls-10" transform="translate(-3791 -1895.643)"/>
                        <path id="패스_33862" d="M3791 1901.575l.11-.063v5.381l-.11.063v-5.381zm3.4-1.941l.1.05v5.262l-.1.059z" class="cls-10" transform="translate(-3791 -1899.266)"/>
                    </g>
                </g>
                <g id="그룹_42431" transform="translate(3519.854 1571.865)">
                    <g id="그룹_42429">
                        <path id="패스_33863" d="M3791 1706.721l3.5-2.011v5.68l-3.5 2.01z" class="cls-8" transform="translate(-3791 -1704.711)"/>
                        <path id="패스_33864" d="M3791 1710.6l3.388-1.946.113.054v5.262l-3.5 2.01z" class="cls-9" transform="translate(-3791 -1708.286)"/>
                    </g>
                    <g id="그룹_42430">
                        <path id="패스_33865" d="M3791 1706.722l.11-.063v5.679l-.11.063v-5.679zm3.4-1.952l.1-.059v5.68l-.1.059z" class="cls-10" transform="translate(-3791 -1704.711)"/>
                        <path id="패스_33866" d="M3791 1710.642l.11-.063v5.381l-.11.063v-5.381zm3.4-1.941l.1.05v5.262l-.1.059z" class="cls-10" transform="translate(-3791 -1708.333)"/>
                    </g>
                </g>
                <g id="그룹_42433" transform="translate(3494.471 1559.986)">
                    <g id="그룹_42432" transform="translate(0 1.957)">
                        <path id="패스_33867" d="M3629.708 1737.083v.326l-2.457-1.41v-.326z" class="cls-13" transform="translate(-3616.961 -1722.896)"/>
                        <path id="패스_33868" d="M3657.359 1729.6v.325l-3.454 1.97v-.325z" class="cls-13" transform="translate(-3641.158 -1717.384)"/>
                        <path id="패스_33869" d="M3590.508 1714.58v.326l-2.272-1.3v-.325z" class="cls-13" transform="translate(-3581.542 -1702.563)"/>
                        <path id="패스_33870" d="M3616.33 1706.052v.326l-3.442 1.97v-.326z" class="cls-13" transform="translate(-3603.921 -1696.006)"/>
                        <path id="패스_33871" d="M3520.969 1674.657v.326l-5.371-3.083v-.326z" class="cls-13" transform="translate(-3515.598 -1664.704)"/>
                        <path id="패스_33872" d="M3577.309 1683.689v.326l-3.437 1.967v-.326z" class="cls-13" transform="translate(-3568.502 -1675.703)"/>
                        <path id="패스_33873" d="M3631.447 1638.818v.326l-5.9 3.377v-.326z" class="cls-13" transform="translate(-3615.414 -1634.968)"/>
                        <path id="패스_33874" d="M3572.47 1645.082v.326l-5.388-3.084V1642z" class="cls-13" transform="translate(-3562.337 -1637.855)"/>
                        <path id="패스_33875" d="M3670.524 1661.181v.325l-5.9 3.377v-.326z" class="cls-13" transform="translate(-3650.889 -1655.27)"/>
                        <path id="패스_33876" d="M3642.208 1684.992v.326l-2.276-1.3v-.326z" class="cls-13" transform="translate(-3628.473 -1675.703)"/>
                        <path id="패스_33877" d="M3711.706 1684.806v.326l-5.911 3.371v-.326z" class="cls-13" transform="translate(-3688.266 -1676.718)"/>
                        <path id="패스_33878" d="M3681.478 1707.465v.326l-2.469-1.413v-.326z" class="cls-13" transform="translate(-3663.949 -1696.006)"/>
                        <path id="패스_33879" d="M3707.368 1609.394v.326l-3.413 1.953v-.326z" class="cls-13" transform="translate(-3686.595 -1608.256)"/>
                        <path id="패스_33880" d="M3650.745 1600.134v.326l-5.4-3.091v-.326z" class="cls-13" transform="translate(-3633.385 -1597.042)"/>
                        <path id="패스_33881" d="M3746.445 1631.757v.326l-3.413 1.953v-.326z" class="cls-13" transform="translate(-3722.071 -1628.558)"/>
                        <path id="패스_33882" d="M3720.618 1640.12v.326l-2.275-1.3v-.326z" class="cls-13" transform="translate(-3699.656 -1634.968)"/>
                        <path id="패스_33883" d="M3787.758 1655.434v.326l-3.418 1.95v-.326z" class="cls-13" transform="translate(-3759.572 -1650.052)"/>
                        <path id="패스_33884" d="M3759.9 1662.6v.326l-2.481-1.42v-.325z" class="cls-13" transform="translate(-3735.132 -1655.27)"/>
                    </g>
                    <path id="패스_33885" d="M3528.345 1591.955l-2.457-1.41 3.444-1.971 2.467 1.412-3.454 1.97zm-3.781-2.17l3.442-1.97-2.276-1.3-3.439 1.968 2.272 1.3zm-3.6-2.064l-5.371-3.083 3.422-1.965 5.385 3.082-3.437 1.967zm-.625-5.809l5.388 3.084 5.9-3.377-5.4-3.09-5.889 3.383zm12.615.466l2.276 1.3-5.9 3.377-2.276-1.3 5.9-3.377zm3.6 2.061l-5.9 3.377 2.469 1.413 5.911-3.371-2.479-1.419zm-9-6.67l3.406-1.957 5.408 3.1-3.413 1.953-5.4-3.091zm10.141 1.9l-3.413 1.953 2.275 1.3 3.413-1.953-2.276-1.3zm3.6 2.061l2.487 1.423-3.418 1.95-2.481-1.42z" class="cls-26" transform="translate(-3515.598 -1575.811)"/>
                </g>
                <g id="그룹_42434" transform="translate(3501.526 1561.997)">
                    <path id="패스_33886" d="M3592.14 1620.881v1.878l3.729 2.142v-1.878z" class="cls-27" transform="translate(-3592.14 -1618.739)"/>
                    <path id="패스_33887" d="M3632.6 1623.023v1.878l3.729-2.142v-1.878z" class="cls-28" transform="translate(-3628.875 -1618.739)"/>
                    <path id="패스_33888" d="M3599.6 1599.781l-3.729-2.142-3.729 2.142 3.729 2.142z" class="cls-11" transform="translate(-3592.14 -1597.639)"/>
                </g>
            </g>
            <g id="img_mapno" transform="translate(157.191 88.177)">
                <g id="그룹_21379" transform="translate(0 66.474)">
                    <g id="그룹_21370" transform="translate(0 9.801)" style="mix-blend-mode:multiply;isolation:isolate" opacity="0.4">
                        <path id="패스_28419" d="M326.5 162.662c-13.809-6.57-35.978-6.246-49.515.724s-13.32 17.947.487 24.516 35.98 6.246 49.519-.724 13.316-17.947-.491-24.516z" class="cls-30" transform="translate(-266.971 -157.939)"/>
                        <path id="패스_28420" d="M325.922 162.727c-13.613-6.477-35.468-6.157-48.814.715s-13.131 17.69.479 24.167 35.47 6.159 48.818-.713 13.129-17.691-.483-24.169z" class="cls-31" transform="translate(-266.741 -157.825)"/>
                        <path id="패스_28421" d="M325.345 162.791c-13.417-6.382-34.959-6.068-48.115.705s-12.941 17.436.474 23.82 34.961 6.07 48.116-.7 12.943-17.439-.475-23.825z" class="cls-32" transform="translate(-266.511 -157.712)"/>
                        <path id="패스_28422" d="M324.768 162.858c-13.221-6.291-34.45-5.981-47.413.692s-12.754 17.184.466 23.475 34.452 5.981 47.415-.692 12.755-17.184-.468-23.475z" class="cls-33" transform="translate(-266.281 -157.599)"/>
                        <path id="패스_28423" d="M324.191 162.923c-13.027-6.2-33.941-5.892-46.712.683s-12.566 16.929.461 23.127 33.941 5.892 46.714-.683 12.564-16.929-.463-23.127z" class="cls-34" transform="translate(-266.051 -157.485)"/>
                        <path id="패스_28424" d="M323.614 162.988c-12.831-6.1-33.431-5.8-46.01.674s-12.377 16.675.453 22.778 33.431 5.8 46.012-.672 12.376-16.675-.455-22.78z" class="cls-35" transform="translate(-265.821 -157.372)"/>
                        <path id="패스_28425" d="M323.037 163.053c-12.635-6.011-32.922-5.714-45.309.663s-12.189 16.422.446 22.433 32.922 5.715 45.311-.661 12.187-16.422-.448-22.435z" class="cls-36" transform="translate(-265.591 -157.259)"/>
                        <path id="패스_28426" d="M322.46 163.12c-12.441-5.92-32.413-5.628-44.609.652s-12 16.168.44 22.086 32.413 5.627 44.609-.652 12-16.166-.44-22.086z" class="cls-37" transform="translate(-265.361 -157.146)"/>
                        <path id="패스_28427" d="M321.883 163.185c-12.245-5.825-31.9-5.539-43.908.642s-11.81 15.912.433 21.739 31.9 5.537 43.91-.642 11.81-15.912-.435-21.739z" class="cls-38" transform="translate(-265.13 -157.033)"/>
                        <path id="패스_28428" d="M321.306 163.25c-12.049-5.732-31.394-5.45-43.207.633s-11.622 15.658.425 21.39 31.392 5.452 43.209-.629 11.622-15.66-.427-21.394z" class="cls-39" transform="translate(-264.9 -156.919)"/>
                        <path id="패스_28429" d="M320.729 163.315c-11.855-5.637-30.885-5.361-42.5.622s-11.436 15.405.418 21.045 30.883 5.363 42.507-.62 11.428-15.406-.425-21.047z" class="cls-40" transform="translate(-264.671 -156.806)"/>
                        <path id="패스_28430" d="M320.151 163.381c-11.658-5.547-30.374-5.274-41.8.611s-11.247 15.151.411 20.7 30.374 5.274 41.805-.611 11.243-15.153-.416-20.7z" class="cls-41" transform="translate(-264.441 -156.693)"/>
                        <path id="패스_28431" d="M319.573 163.447c-11.462-5.454-29.864-5.185-41.1.6s-11.057 14.9.4 20.35 29.864 5.185 41.106-.6 11.058-14.897-.406-20.35z" class="cls-42" transform="translate(-264.211 -156.579)"/>
                        <path id="패스_28432" d="M319 163.511c-11.266-5.359-29.355-5.1-40.4.592s-10.868 14.642.4 20 29.355 5.1 40.4-.588 10.864-14.643-.4-20.004z" class="cls-43" transform="translate(-263.981 -156.466)"/>
                        <path id="패스_28433" d="M318.419 163.576c-11.072-5.266-28.846-5.006-39.7.581s-10.68 14.39.392 19.656 28.844 5.008 39.7-.579 10.682-14.388-.392-19.658z" class="cls-44" transform="translate(-263.751 -156.353)"/>
                        <path id="패스_28434" d="M317.842 163.643c-10.876-5.175-28.337-4.919-39 .57s-10.492 14.134.384 19.309 28.335 4.919 39-.57 10.494-14.134-.384-19.309z" class="cls-45" transform="translate(-263.521 -156.24)"/>
                        <path id="패스_28435" d="M317.265 163.708c-10.68-5.081-27.827-4.832-38.3.561s-10.3 13.879.378 18.962 27.826 4.83 38.3-.559 10.304-13.881-.378-18.964z" class="cls-46" transform="translate(-263.291 -156.126)"/>
                    </g>
                    <path id="패스_28436" fill="#ce7436" d="M310.094 158.026c-8.214-3.783-21.4-3.6-29.454.42-5.761 2.872-7.311 6.922-4.733 10.382a11.632 11.632 0 0 1 5.276-4.542c8.054-4.015 21.241-4.2 29.456-.416a12.817 12.817 0 0 1 5.022 3.742c1.799-3.361-.055-7.044-5.567-9.586z" transform="translate(-260.279 -150.391)"/>
                    <path id="패스_28437" fill="#c4c6d0" d="M324.864 170.946l-.295-10.323-52.879-.156.3 10.948h.015c-.153 4.052 2.468 8.1 7.9 11.1 10.432 5.758 27.176 5.474 37.4-.635 5.04-3.011 7.544-6.874 7.55-10.707h.011v-.119c-.002-.038-.002-.073-.002-.108z" transform="translate(-262.887 -145.972)"/>
                    <path id="패스_28438" fill="#efeff4" d="M316.648 156.8c-10.432-5.758-27.178-5.476-37.4.633s-10.062 15.732.369 21.49 27.177 5.474 37.4-.635 10.063-15.731-.369-21.488z" transform="translate(-262.896 -152.659)"/>
                    <path id="패스_28439" fill="url(#linear-gradient)" d="M310.1 158.025c-8.212-3.783-21.393-3.6-29.45.419-6.718 3.341-7.747 8.3-3.129 12.062a16.48 16.48 0 0 0 3.416 2.068c8.221 3.783 21.408 3.6 29.463-.418a15.969 15.969 0 0 0 3.027-1.925c4.806-3.914 3.682-8.983-3.327-12.206z" transform="translate(-260.289 -150.391)"/>
                    <g id="그룹_21377" transform="translate(14.333 3.485)">
                        <path id="패스_28440" fill="#a26a00" d="M306.526 156.121c-8.3-2.7-18.842-1.843-25.555 1.734-.056.028-.114.058-.168.089a16.653 16.653 0 0 0-3.009 2.064c-6.072 5.318-3.067 12.222 6.7 15.394 8.215 2.668 18.632 1.864 25.352-1.622.063-.032.129-.063.194-.1a16.745 16.745 0 0 0 3.185-2.161c6.075-5.319 3.075-12.219-6.699-15.398z" transform="translate(-274.654 -154.536)"/>
                        <g id="그룹_21372" transform="translate(2.512 1.622)">
                            <g id="그룹_21371">
                                <path id="패스_28441" d="M284.657 172.9c-8.592-2.66-11.236-8.448-5.895-12.9s16.679-5.916 25.272-3.258 11.236 8.448 5.893 12.9-16.68 5.912-25.27 3.258zm19.319-16.111c-8.542-2.642-19.81-1.19-25.119 3.239s-2.682 10.178 5.858 12.823 19.808 1.19 25.119-3.237 2.68-10.185-5.858-12.829z" class="cls-30" transform="translate(-276.001 -155.41)"/>
                            </g>
                        </g>
                        <g id="그룹_21374" transform="translate(8.315 4.597)">
                            <g id="그룹_21373">
                                <path id="패스_28442" d="M285.029 168.967c-5.874-1.817-7.682-5.775-4.029-8.819s11.4-4.047 17.276-2.227 7.682 5.773 4.029 8.819-11.405 4.047-17.276 2.227zm13.206-11.013c-5.837-1.808-13.542-.815-17.172 2.213s-1.834 6.961 4.005 8.769 13.542.813 17.174-2.215 1.832-6.961-4.007-8.767z" class="cls-30" transform="translate(-279.112 -157.013)"/>
                            </g>
                        </g>
                        <g id="그룹_21376" transform="translate(14.109 7.57)">
                            <g id="그룹_21375">
                                <path id="패스_28443" d="M285.4 165.044c-3.162-.976-4.134-3.106-2.17-4.745s6.136-2.176 9.3-1.2 4.132 3.106 2.166 4.745-6.135 2.179-9.296 1.2zm7.1-5.925c-3.142-.971-7.287-.438-9.24 1.192s-.987 3.744 2.156 4.715 7.285.438 9.238-1.19.994-3.744-2.147-4.717z" class="cls-30" transform="translate(-282.217 -158.614)"/>
                            </g>
                        </g>
                        <path id="패스_28444" d="M278.8 171.981a.138.138 0 0 1-.076-.021.1.1 0 0 1-.052-.084v-.037l.041-.035 26.852-15.886a.125.125 0 0 1 .06-.015.143.143 0 0 1 .077.022.1.1 0 0 1 .054.082v.039l-.043.035-26.852 15.884a.107.107 0 0 1-.061.016z" class="cls-30" transform="translate(-271.182 -153.365)"/>
                        <path id="패스_28445" d="M307.189 172.154c-.065.037-.131.069-.194.1l-29.044-15.836a1.328 1.328 0 0 1 .17-.085l.031-.011z" class="cls-30" transform="translate(-271.803 -153.01)"/>
                    </g>
                    <g id="그룹_21378" transform="translate(24.457 9.079)" style="mix-blend-mode:multiply;isolation:isolate">
                        <path id="패스_28446" d="M298.674 159.024a19.646 19.646 0 0 0-15.465.227c-4.229 2.176-4.162 5.6.151 7.655a19.647 19.647 0 0 0 15.465-.226c4.228-2.18 4.16-5.604-.151-7.656z" class="cls-30" transform="translate(-280.081 -157.549)"/>
                        <path id="패스_28447" d="M298.494 159.045a19.376 19.376 0 0 0-15.247.223c-4.167 2.146-4.1 5.524.149 7.548a19.368 19.368 0 0 0 15.247-.223c4.168-2.145 4.102-5.525-.149-7.548z" class="cls-31" transform="translate(-280.009 -157.514)"/>
                        <path id="패스_28448" d="M298.314 159.065a19.09 19.09 0 0 0-15.029.221c-4.108 2.114-4.043 5.444.149 7.438a19.088 19.088 0 0 0 15.025-.219c4.11-2.114 4.041-5.446-.145-7.44z" class="cls-32" transform="translate(-279.937 -157.479)"/>
                        <path id="패스_28449" d="M298.134 159.086a18.813 18.813 0 0 0-14.808.217c-4.05 2.083-3.985 5.367.146 7.331a18.809 18.809 0 0 0 14.806-.217c4.048-2.084 3.984-5.368-.144-7.331z" class="cls-33" transform="translate(-279.865 -157.443)"/>
                        <path id="패스_28450" d="M297.952 159.106a18.539 18.539 0 0 0-14.588.213c-3.989 2.053-3.925 5.287.143 7.223a18.532 18.532 0 0 0 14.588-.214c3.989-2.053 3.925-5.286-.143-7.222z" class="cls-34" transform="translate(-279.793 -157.408)"/>
                        <path id="패스_28451" d="M297.772 159.126a18.253 18.253 0 0 0-14.37.212c-3.928 2.021-3.865 5.207.142 7.113a18.261 18.261 0 0 0 14.37-.21c3.928-2.021 3.865-5.209-.142-7.115z" class="cls-35" transform="translate(-279.721 -157.373)"/>
                        <path id="패스_28452" d="M297.592 159.146a17.983 17.983 0 0 0-14.152.208c-3.869 1.992-3.808 5.127.14 7.006a17.982 17.982 0 0 0 14.151-.208c3.869-1.99 3.807-5.127-.139-7.006z" class="cls-36" transform="translate(-279.65 -157.337)"/>
                        <path id="패스_28453" d="M297.412 159.168a17.7 17.7 0 0 0-13.931.2c-3.809 1.96-3.75 5.049.136 6.9a17.691 17.691 0 0 0 13.931-.2c3.809-1.968 3.752-5.053-.136-6.9z" class="cls-37" transform="translate(-279.578 -157.302)"/>
                        <path id="패스_28454" d="M297.232 159.188a17.421 17.421 0 0 0-13.713.2c-3.75 1.929-3.69 4.969.134 6.788a17.421 17.421 0 0 0 13.714-.2c3.749-1.93 3.689-4.97-.135-6.788z" class="cls-38" transform="translate(-279.506 -157.266)"/>
                        <path id="패스_28455" d="M297.052 159.209a17.142 17.142 0 0 0-13.5.2c-3.69 1.9-3.63 4.889.133 6.681a17.142 17.142 0 0 0 13.495-.2c3.692-1.899 3.635-4.89-.128-6.681z" class="cls-39" transform="translate(-279.434 -157.231)"/>
                        <path id="패스_28456" d="M296.872 159.229a16.871 16.871 0 0 0-13.277.193c-3.629 1.869-3.571 4.811.131 6.573A16.864 16.864 0 0 0 297 165.8c3.631-1.867 3.573-4.811-.128-6.571z" class="cls-40" transform="translate(-279.362 -157.196)"/>
                        <path id="패스_28457" d="M296.692 159.249a16.589 16.589 0 0 0-13.057.191c-3.571 1.836-3.513 4.73.127 6.464a16.593 16.593 0 0 0 13.058-.191c3.567-1.838 3.511-4.732-.128-6.464z" class="cls-41" transform="translate(-279.29 -157.16)"/>
                        <path id="패스_28458" d="M296.512 159.27a16.31 16.31 0 0 0-12.838.187c-3.511 1.806-3.453 4.652.125 6.356a16.31 16.31 0 0 0 12.838-.189c3.509-1.806 3.455-4.652-.125-6.354z" class="cls-42" transform="translate(-279.219 -157.125)"/>
                        <path id="패스_28459" d="M296.332 159.29a16.039 16.039 0 0 0-12.62.184c-3.449 1.776-3.4 4.574.123 6.248a16.04 16.04 0 0 0 12.62-.186c3.445-1.774 3.395-4.573-.123-6.246z" class="cls-43" transform="translate(-279.147 -157.089)"/>
                        <path id="패스_28460" d="M296.15 159.311a15.744 15.744 0 0 0-12.4.182c-3.392 1.745-3.337 4.492.119 6.139a15.762 15.762 0 0 0 12.4-.182c3.392-1.75 3.339-4.495-.119-6.139z" class="cls-44" transform="translate(-279.075 -157.054)"/>
                        <path id="패스_28461" d="M295.97 159.331a15.473 15.473 0 0 0-12.18.178c-3.332 1.713-3.278 4.414.119 6.031a15.486 15.486 0 0 0 12.182-.178c3.328-1.715 3.276-4.416-.121-6.031z" class="cls-45" transform="translate(-279.003 -157.019)"/>
                        <path id="패스_28462" d="M295.79 159.351a15.194 15.194 0 0 0-11.962.174c-3.27 1.684-3.218 4.334.117 5.923a15.207 15.207 0 0 0 11.964-.176c3.268-1.683 3.216-4.334-.119-5.921z" class="cls-46" transform="translate(-278.931 -156.984)"/>
                    </g>
                </g>
                <g id="그룹_21383" transform="translate(9.288)">
                    <g id="그룹_21382">
                        <g id="그룹_21380" transform="translate(6.216)">
                            <path id="패스_28463" d="M309.68 125.83c-5.443-5.634-14.538-11.8-22.526-7.594l-11.872 6.89c2.3-1.112 10.066-3.547 20.884 6.193A46.064 46.064 0 0 1 309 152.076c1.159 3.815-.2 17.739-3.412 20.945a124.711 124.711 0 0 0-14.5 18.292l12.538-7.191s15.328-17.137 16.521-19c2.845-4.437 2.884-10.132 2.029-15.16a46.872 46.872 0 0 0-12.496-24.132z" class="cls-53" transform="translate(-275.282 -116.848)"/>
                        </g>
                        <g id="그룹_21381" transform="translate(0 6.949)">
                            <path id="패스_28464" fill="#fdd83a" d="M313.468 157.408c-.478-8.5-4.048-16.916-9.135-23.66-4.586-6.079-11.643-12.383-19.625-13.1a10.836 10.836 0 0 0-9.072 3.247c-2.8 3.031-3.686 7.36-3.686 11.357 0 15.067 22.024 52.861 22.024 52.861s14.914-16.27 16.632-18.643c2.494-3.455 3.099-7.913 2.862-12.062zm-8.956-3.9c-.179 4.557-3.007 9.157-8.044 8.645-6.279-.638-13.159-8.173-15.368-16.835s1.1-15.166 7.378-14.525c9.648.989 16.416 14.252 16.034 22.713z" transform="translate(-271.95 -120.592)"/>
                        </g>
                    </g>
                    <path id="패스_28465" d="M288.741 137.833c-1.83-3.893-2.132-9.281-1.688-11.125 0 0-1.089-.347-1.162-.364a9.3 9.3 0 0 0-1.341-.239c-6.281-.637-9.583 5.866-7.376 14.527s9.087 16.2 15.368 16.833a7.677 7.677 0 0 0 1.642 0 6.314 6.314 0 0 0 2.481-.789c2.511-1.431 3.617-4.348 3.873-7.113-.002 0-6.905-1.327-11.797-11.73z" class="cls-53" transform="translate(-268.022 -108.959)"/>
                </g>
                <g id="그룹_40750" transform="translate(5.358 5.795)">
                    <ellipse id="타원_1010" cx="24.097" cy="13.913" class="cls-55" rx="24.097" ry="13.913" transform="rotate(-120 28.114 20.87)"/>
                    <ellipse id="타원_1011" cx="20.3" cy="11.72" class="cls-30" rx="20.3" ry="11.72" transform="rotate(-120 26.848 18.677)"/>
                    <g id="그룹_40748" transform="translate(12.45 13.705)">
                        <g id="그룹_40751">
                            <path id="패스_30848" d="M448.584 288.312l2.128 1.228a1.537 1.537 0 0 1 .694 1.2v7.266c0 .443-.311.622-.694.4l-2.128-1.228a1.536 1.536 0 0 1-.7-1.2v-7.266c.005-.442.316-.621.7-.4z" class="cls-56" transform="translate(-446.629 -279.869)"/>
                            <g id="그룹_40746">
                                <path id="패스_30849" d="M420.242 282.167l19.1 11.031a5.4 5.4 0 0 1 2.221 4.182V302c0 .5-.349.7-.779.45l-21.819-12.6a1.723 1.723 0 0 1-.779-1.35v-5.1c.004-2 1.626-1.482 2.056-1.233z" class="cls-56" transform="translate(-418.19 -277.515)"/>
                                <path id="패스_30850" d="M436.837 295.067l-.026-.013.026.013z" class="cls-56" transform="translate(-425.122 -282.424)"/>
                                <path id="패스_30851" d="M423.87 274.962c.044-.083.14-.1.244-.037l13.6 7.854a.6.6 0 0 1 .244.319l2.878 8.254a.338.338 0 0 1-.007.279.153.153 0 0 1-.2.043l-9.679-4.139h-.009l7.216 3.085a.113.113 0 0 0 .151-.032.252.252 0 0 0 .005-.208l-2.145-6.153a.45.45 0 0 0-.182-.239l-10.142-5.855c-.078-.045-.148-.034-.182.028l-2.145 3.676a.273.273 0 0 0 .005.214.465.465 0 0 0 .151.207l7.217 5.247.026.017-.035-.023-9.679-7.038a.619.619 0 0 1-.2-.277.368.368 0 0 1-.007-.288z" class="cls-56" transform="translate(-419.228 -274.888)"/>
                            </g>
                            <path id="패스_30852" d="M420.356 304.609l2.128 1.229a1.536 1.536 0 0 1 .695 1.2v7.266c0 .443-.311.622-.695.4l-2.128-1.229a1.536 1.536 0 0 1-.695-1.2v-7.266c0-.441.311-.621.695-.4z" class="cls-56" transform="translate(-400.722 -285.959)"/>
                        </g>
                        <path id="패스_30853" d="M449.34 287.369a3.181 3.181 0 0 1 1.439 2.493c0 .918-.644 1.29-1.439.831a3.182 3.182 0 0 1-1.44-2.493c0-.918.645-1.29 1.44-.831z" class="cls-30" transform="translate(-446.01 -279.478)"/>
                        <path id="패스_30854" d="M422.192 303.043a3.182 3.182 0 0 1 1.439 2.493c0 .918-.644 1.29-1.439.831a3.181 3.181 0 0 1-1.44-2.493c0-.918.648-1.29 1.44-.831z" class="cls-30" transform="translate(-401.858 -285.336)"/>
                    </g>
                    <path id="사각형_18031" d="M0 0H4.319V25.065H0z" class="cls-55" transform="rotate(-120 17.646 13.898)"/>
                </g>
            </g>
            <g id="그룹_42346" class="cls-4" transform="translate(-1965.702 -1722.334)">
                <path id="패스_33891" fill="#ab938a" d="M144.4 142.039l21.247 12.37 21.915-12.37-21.915-11.633z" opacity="0.907" transform="translate(2044.702 1758.112)"/>
                <g id="그룹_42329" transform="translate(2190.605 1853.17)">
                    <path id="패스_33639" d="M2190.49 2095.767l13.022-7.479v.073l19.553 11.228-13.024 7.411z" class="cls-23" transform="translate(-2190.49 -2077.049)"/>
                    <path id="패스_33640" d="M2404.538 2096.042l17.5 10.046 1.552-.883-19.048-10.938z" class="cls-22" transform="translate(-2391.58 -2082.666)"/>
                    <path id="패스_33641" d="M2412.116 1902.633l19.553 11.2-6.527 3.749-19.553-11.2z" class="cls-23" transform="translate(-2392.568 -1902.633)"/>
                    <path id="패스_33642" d="M2210.041 2343.192v9.845l-19.551-11.23v-9.845z" class="cls-22" transform="translate(-2190.49 -2305.972)"/>
                    <path id="패스_33643" d="M2210.041 2223.067v7.591l-19.551-11.23v-7.59z" class="cls-22" transform="translate(-2190.49 -2193.118)"/>
                    <path id="패스_33644" d="M2533 2122.109l-19.551 11.229v-26.922l13.024-7.409v-7.589l6.527-3.749z" class="cls-24" transform="translate(-2493.894 -2076.468)"/>
                    <path id="패스_33645" d="M2210.041 2505.142v9.845l-19.551-11.23v-9.845z" class="cls-22" transform="translate(-2190.49 -2458.117)"/>
                    <path id="패스_33646" d="M2225.092 2553.257l-17.478-10.039v7.455l17.478 10.039z" class="cls-8" transform="translate(-2206.578 -2504.438)"/>
                    <path id="패스_33647" d="M2228.135 2559.341l-11.82-6.789-5.462 3.188v.867l11.2 6.433 6.083-3.55v-.148zm-3.345 5.271l3.345-1.952v3.874l-3.345-1.921zm-11.212-13.632l-2.725 1.59v-3.155z" class="cls-9" transform="translate(-2209.621 -2510.259)"/>
                    <g id="그룹_42311" transform="translate(1.037 29.988)">
                        <path id="패스_33648" d="M2225.092 2408.033l-17.478-10.039v6.364l17.478 10.039z" class="cls-8" transform="translate(-2207.614 -2397.994)"/>
                        <path id="패스_33649" d="M2228.473 2414.263l-11.786-6.77-5.446 2.636v.319l11.167 6.414 6.065-2.451v-.148zm-3.336 4.167l3.336 1.916v-3.046l-3.336 1.128zm-11.732-12.822l-2.165-1.244v2.058z" class="cls-9" transform="translate(-2211.021 -2403.979)"/>
                    </g>
                    <g id="그룹_42312" transform="translate(3.778 31.563)">
                        <path id="패스_33650" d="M2264.89 2437.256v-6.363l-.1-.057v6.364l.1.056zm-2.96-8.064l-.1-.057v6.364l.1.056v-6.363zm-3.159-1.814l-.1-.057v6.364l.1.056v-6.363zm-2.96-1.7l-.1-.057v6.364l.1.056v-6.364zm-2.818-1.618l-.1-.056v6.364l.1.057v-6.364z" class="cls-10" transform="translate(-2252.895 -2424.002)"/>
                        <path id="패스_33651" d="M2264.89 2467.4v-.566l-.1.033v.476l.1.056zm0-3.279v-2.8l-.1-.057v2.9l.1-.04zm-2.96-4.505l-.1-.056v5.8l.1-.04v-5.7zm-3.159-1.814l-.1-.057v6.084l.1.056v-6.085zm-2.96-1.691l-.1.048v5.97l.1.056v-6.074zm-2.818 1.364l-.1.048v2.988l.1.057v-3.092z" class="cls-10" transform="translate(-2252.895 -2454.169)"/>
                    </g>
                    <g id="그룹_42315" transform="translate(1.037 21.593)">
                        <g id="그룹_42313">
                            <path id="패스_33652" d="M2225.092 2269.354l-17.478-10.039v6.364l17.478 10.039z" class="cls-8" transform="translate(-2207.614 -2259.314)"/>
                            <path id="패스_33653" d="M2228.473 2275.585l-11.786-6.769-5.446 2.636v.318l11.167 6.414 6.065-2.451v-.148zm-3.336 4.168l3.336 1.916v-3.044l-3.336 1.128zm-11.639-12.769l-2.257-1.3v2.059z" class="cls-9" transform="translate(-2211.021 -2265.301)"/>
                        </g>
                        <g id="그룹_42314" transform="translate(2.741 1.575)">
                            <path id="패스_33654" d="M2264.89 2298.578v-6.364l-.1-.057v6.364l.1.056zm-2.96-8.064l-.1-.057v6.364l.1.056v-6.363zm-3.159-1.814l-.1-.057v6.363l.1.056v-6.362zm-2.96-1.7l-.1-.056v6.363l.1.056V2287zm-2.818-1.618l-.1-.056v6.363l.1.057z" class="cls-10" transform="translate(-2252.895 -2285.324)"/>
                            <path id="패스_33655" d="M2264.89 2328.726v-.567l-.1.033v.477l.1.057zm0-3.279v-2.8l-.1-.057v2.9l.1-.04zm-2.96-4.5l-.1-.057v5.8l.1-.04v-5.7zm-3.159-1.815l-.1-.057v6.084l.1.056v-6.083zm-2.96-1.691l-.1.047v5.97l.1.056v-6.074zm-2.818 1.364l-.1.048v2.988l.1.057z" class="cls-10" transform="translate(-2252.895 -2315.492)"/>
                        </g>
                    </g>
                    <g id="그룹_42316" transform="translate(20.916 25.171)">
                        <path id="패스_33656" d="M2535.993 2325.049v6.112l11.55-6.634v-6.112z" class="cls-8" transform="translate(-2535.993 -2318.415)"/>
                        <path id="패스_33657" d="M2535.993 2326.84l.489-.281q2.6 1.52 5.191 3.043l-5.68 3.262v-6.025zm8.288 1.265l2.813-1.616q-2.6-1.522-5.191-3.043l-2.814 1.616q2.595 1.522 5.192 3.042zm.229-6.157l2.993-1.719v3.474z" class="cls-9" transform="translate(-2535.993 -2320.119)"/>
                        <path id="패스_33658" d="M2584.37 2350.9v-6.112l.1-.057v6.112l-.1.057zm-3.159 1.814l.1-.056v-6.112l-.1.057v6.112zm6.119-3.515l.1-.057v-6.112l-.1.057z" class="cls-10" transform="translate(-2578.473 -2341.543)"/>
                    </g>
                    <g id="그룹_42317" transform="translate(20.916 33.354)">
                        <path id="패스_33659" d="M2535.993 2460.232v6.112l11.55-6.634v-6.11z" class="cls-8" transform="translate(-2535.993 -2453.598)"/>
                        <path id="패스_33660" d="M2535.993 2462.024l.489-.281q2.6 1.519 5.191 3.043l-5.68 3.262v-6.025zm8.288 1.265l2.813-1.616q-2.6-1.522-5.191-3.043l-2.814 1.616q2.595 1.522 5.192 3.042zm.229-6.156l2.993-1.719v3.475z" class="cls-9" transform="translate(-2535.993 -2455.303)"/>
                        <path id="패스_33661" d="M2584.37 2486.085v-6.112l.1-.057v6.112l-.1.056zm-3.159 1.814l.1-.056v-6.112l-.1.056v6.112zm6.119-3.515l.1-.056v-6.112l-.1.057z" class="cls-10" transform="translate(-2578.473 -2476.726)"/>
                    </g>
                    <path id="패스_33662" d="M2284.757 2588.355l-7.783-4.47v7.372l7.783 4.47z" class="cls-8" transform="translate(-2271.739 -2542.643)"/>
                    <path id="패스_33663" d="M2287.823 2593.953l-1.879-1.08-5.594 3.265v.661l1.308.751 6.165-3.6zm-3.642 5.047l3.747-2.187v4.339l-3.747-2.152zm-.761-7.576l-3.071 1.792v-3.556z" class="cls-9" transform="translate(-2274.91 -2548.069)"/>
                    <g id="그룹_42318" transform="translate(5.236 41.242)">
                        <path id="패스_33664" d="M2320.268 2616.123v-7.371l-.1-.058v7.371l.1.058zm-3.023-1.736v-7.372l-.1-.058v7.372z" class="cls-10" transform="translate(-2314.713 -2605.56)"/>
                        <path id="패스_33665" d="M2284.757 2588.354l-7.783-4.47v7.372l7.783 4.47v-7.372zm-.1.058v7.139l-7.582-4.355v-7.139z" class="cls-10" transform="translate(-2276.974 -2583.884)"/>
                    </g>
                    <g id="그룹_42319" fill-rule="evenodd" transform="translate(2.546 41.241)">
                        <path id="패스_33666" fill="#42333d" d="M2235.235 2583.87l7.786 4.472-2.686 1.542-5.156-2.961-2.63-1.511z" transform="translate(-2232.549 -2583.87)"/>
                        <path id="패스_33667" fill="#32282f" d="M2361.161 2659.285l2.687-1.543v.175l-2.687 1.543z" transform="translate(-2353.375 -2653.27)"/>
                        <path id="패스_33668" fill="#695b65" d="M2240.335 2613.829l-7.786-4.472v.175l7.786 4.472z" transform="translate(-2232.549 -2607.814)"/>
                    </g>
                    <g id="그룹_42320" transform="translate(20.916 42.118)">
                        <path id="패스_33669" d="M2535.993 2604.984v6.112l11.55-6.634v-6.112z" class="cls-8" transform="translate(-2535.993 -2598.35)"/>
                        <path id="패스_33670" d="M2535.993 2606.777l.489-.281q2.6 1.52 5.191 3.043l-5.68 3.262v-6.025zm8.288 1.265l2.813-1.616q-2.6-1.522-5.191-3.043l-2.814 1.616q2.595 1.523 5.192 3.043zm.229-6.156l2.993-1.719v3.474z" class="cls-9" transform="translate(-2535.993 -2600.056)"/>
                        <path id="패스_33671" d="M2584.37 2630.837v-6.112l.1-.057v6.112l-.1.057zm-3.159 1.814l.1-.057v-6.112l-.1.057v6.112zm6.119-3.515l.1-.057v-6.112l-.1.057z" class="cls-10" transform="translate(-2578.473 -2621.478)"/>
                    </g>
                    <path id="패스_33672" d="M2425.143 1975.345v7.589l-19.553-11.228v-7.59z" class="cls-22" transform="translate(-2392.568 -1960.394)"/>
                    <g id="그룹_42323" transform="translate(14.059 5.642)">
                        <g id="그룹_42321">
                            <path id="패스_33673" d="M2440.21 2005.862l-17.478-10.039v4.944l17.478 10.037z" class="cls-8" transform="translate(-2422.732 -1995.823)"/>
                            <path id="패스_33674" d="M2443.59 2012.093l-11.785-6.77-4.426 2.142 11.577 6.648 4.634-1.873v-.148zm0 4.682v-1.643l-1.8.609 1.8 1.034zm-14.975-13.284l-2.258-1.3v2.058z" class="cls-9" transform="translate(-2426.138 -2001.809)"/>
                        </g>
                        <g id="그룹_42322" transform="translate(2.741 1.574)">
                            <path id="패스_33675" d="M2480.007 2033.664v-4.943l-.1-.056v4.942l.1.057zm-2.96-6.643l-.1-.057v4.943l.1.057v-4.943zm-3.159-1.814l-.1-.057v4.943l.1.057v-4.943zm-2.96-1.7l-.1-.057v4.943l.1.057v-4.944zm-2.818-1.618l-.1-.057v4.944l.1.057z" class="cls-10" transform="translate(-2468.012 -2021.831)"/>
                            <path id="패스_33676" d="M2480.007 2061.954v-2.805l-.1-.057v2.9l.1-.04zm-2.96-4.505l-.1-.057v4.683l.1.057v-4.683zm-3.159-1.814l-.1-.057v4.684l.1.057v-4.684zm-2.96-1.691l-.1.048v4.57l.1.057v-4.674zm-2.818 1.364l-.1.047v1.589l.1.056z" class="cls-10" transform="translate(-2468.012 -2052)"/>
                        </g>
                    </g>
                    <path id="패스_33677" d="M2199.849 2101.385l1.544.887 10.847-6.23v-1.775z" class="cls-24" transform="translate(-2199.282 -2082.666)"/>
                    <g id="그룹_42326" transform="translate(26.947 6.704)">
                        <g id="그룹_42324" transform="translate(4.615 2.647)">
                            <path id="패스_33678" d="M2753.835 2079.832v1.207l-2.4 1.376v-1.207z" class="cls-28" transform="translate(-2749.042 -2078.456)"/>
                            <path id="패스_33679" d="M2714.253 2081.209v1.207l-2.4-1.376v-1.207z" class="cls-27" transform="translate(-2711.856 -2078.456)"/>
                            <path id="패스_33680" d="M2711.856 2058.473l2.4-1.377 2.4 1.377-2.4 1.376z" class="cls-11" transform="translate(-2711.856 -2057.096)"/>
                        </g>
                        <g id="그룹_42325">
                            <path id="패스_33681" d="M2677.6 2036.107v1.207l-2.4 1.376v-1.207z" class="cls-28" transform="translate(-2672.805 -2034.73)"/>
                            <path id="패스_33682" d="M2638.015 2037.483v1.207l-2.4-1.376v-1.207z" class="cls-27" transform="translate(-2635.619 -2034.73)"/>
                            <path id="패스_33683" d="M2635.619 2014.747l2.4-1.377 2.4 1.377-2.4 1.376z" class="cls-11" transform="translate(-2635.619 -2013.37)"/>
                        </g>
                        <path id="패스_33684" d="M2657.961 2025.21a1.639 1.639 0 0 1 1.5 0 .467.467 0 0 1 0 .88 1.639 1.639 0 0 1-1.5 0 .467.467 0 0 1 0-.88zm.5.291a.158.158 0 0 0 0 .3.556.556 0 0 0 .508 0 .158.158 0 0 0 0-.3.556.556 0 0 0-.51-.001z" class="cls-61" transform="translate(-2656.316 -2024.322)"/>
                        <path id="패스_33685" d="M2734.2 2068.935a1.639 1.639 0 0 1 1.5 0 .467.467 0 0 1 0 .88 1.64 1.64 0 0 1-1.5 0 .467.467 0 0 1 0-.88zm.5.292a.158.158 0 0 0 0 .3.555.555 0 0 0 .508 0 .158.158 0 0 0 0-.3.553.553 0 0 0-.508-.001z" class="cls-61" transform="translate(-2727.94 -2065.399)"/>
                    </g>
                    <path id="패스_33686" fill="#c69a54" fill-rule="evenodd" d="M2225.448 2129.819l17.44 10.018 10.9-6.2-17.5-10.046z" transform="translate(-2223.332 -2110.212)"/>
                    <g id="그룹_42328" transform="translate(2.116 13.378)">
                        <g id="그룹_42327" transform="translate(6.845 2.296)">
                            <path id="패스_33687" d="M2342.514 2250.1l4.634-2.689v-.245l-4.846 2.813z" class="cls-13" transform="translate(-2342.073 -2241.977)"/>
                            <path id="패스_33688" d="M2518.332 2346.472l-4.84 2.753z" class="cls-13" transform="translate(-2502.899 -2335.272)"/>
                            <path id="패스_33689" d="M2625.639 2291.867l4.111-2.338z" class="cls-13" transform="translate(-2608.258 -2281.78)"/>
                            <path id="패스_33690" d="M2486.1 2247.161v.245l8.237 4.781.21-.119z" class="cls-13" transform="translate(-2477.168 -2241.977)"/>
                            <path id="패스_33691" d="M2338.521 2161.529v.241l7 4.066v-.245l-7-4.064z" class="cls-13" transform="translate(-2338.521 -2161.528)"/>
                            <path id="패스_33692" d="M2454.225 2192.51v.245l4.013-2.33v-.245z" class="cls-13" transform="translate(-2447.221 -2188.446)"/>
                        </g>
                        <path id="패스_33693" d="M2232.522 2133.9l4.846-2.813-7.012-4.07-4.908 2.819 7.074 4.063zm1.94 1.114l4.835-2.807 8.428 4.892-4.84 2.753-8.423-4.838zm1.83-11.406l7.019 4.03-4.013 2.329-7-4.064 4-2.3zm13.382 12.383l4.11-2.338-8.534-4.9-4.024 2.335z" class="cls-26" transform="translate(-2225.448 -2123.609)"/>
                    </g>
                </g>
                <g id="그룹_42345" transform="translate(2205.919 1849.983)">
                    <g id="그룹_42334">
                        <g id="그룹_42332" transform="translate(4.556 .859)">
                            <g id="그룹_42331" transform="translate(0 5.374)">
                                <g id="그룹_42330" transform="translate(0 .344)">
                                    <path id="패스_33694" d="M2529.1 1958.62v.12l-.593.344v-.12z" class="cls-5" transform="translate(-2527.915 -1958.62)"/>
                                    <path id="패스_33695" d="M2519.312 1958.964v.12l-.593-.344v-.12z" class="cls-6" transform="translate(-2518.719 -1958.62)"/>
                                </g>
                                <path id="패스_33696" d="M2518.719 1953.283l.593-.344.593.344-.593.344z" class="cls-17" transform="translate(-2518.719 -1952.939)"/>
                            </g>
                            <path id="패스_33697" d="M2525.288 1864.176h.155l.124 5.674c0 .042 0 .072-.078.118a.238.238 0 0 1-.247 0c-.08-.046-.082-.076-.077-.118z" class="cls-5" transform="translate(-2524.773 -1864.176)"/>
                        </g>
                        <g id="그룹_42333">
                            <path id="패스_33698" d="M2447.259 1849.983l3.091 1.77-3.8 6.267-3.091-1.77z" class="cls-5" transform="translate(-2443.457 -1849.983)"/>
                            <path id="패스_33699" d="M2451.8 1855.241l2.789 1.6-3.521 5.8-2.789-1.6z" class="cls-9" transform="translate(-2447.983 -1854.923)"/>
                            <path id="패스_33700" d="M2458.988 1865.94l-3.547.9-.33.212.882.505 2.379-.606.615-1.015zm-.121-4.552l1.034.592-2.684.685.614-1.013 1.036-.264zm1.833 1.731l-.613 1.011-4.447 1.135.458-.754.566-.364z" class="cls-18" transform="translate(-2454.406 -1860.697)"/>
                            <path id="패스_33701" d="M2451.367 1854.666l.7.4.7.4.7.4.7.4c.012.007.012.029 0 .049l-.7 1.159-.7 1.159-.7 1.159-.7 1.159-.7 1.159c-.012.02-.032.03-.044.023l-.7-.4-.7-.4-.7-.4-.7-.4c-.012-.007-.012-.029 0-.049l.7-1.159.7-1.159.7-1.159.7-1.159.7-1.159c.012-.02.032-.031.044-.024zm-.09 6.295l-.654-.375-.659 1.087.654.374.659-1.087zm.7-1.159l-.654-.374-.659 1.087.653.375.659-1.087zm.7-1.159l-.654-.374-.659 1.087.653.375.659-1.087zm.7-1.159l-.654-.374-.659 1.087.653.374.66-1.087zm.05-1.534l-.659 1.087.654.374.659-1.087-.654-.374zm-2.857 4.612l-.653-.374-.659 1.087.653.375.659-1.087zm.7-1.159l-.653-.374-.659 1.087.654.375.659-1.087zm.7-1.159l-.654-.374-.659 1.087.653.374.66-1.087zm.7-1.159l-.654-.374-.659 1.087.654.374.659-1.087zm.05-1.534l-.659 1.087.654.374.66-1.087-.654-.375zm-2.857 4.612l-.654-.374-.659 1.087.654.375.659-1.087zm.7-1.159l-.653-.374-.659 1.087.654.374.659-1.087zm.7-1.159l-.653-.374-.66 1.087.654.374.659-1.087zm.7-1.159l-.653-.375-.659 1.087.653.374.659-1.087zm.05-1.534l-.659 1.087.654.374.659-1.087-.654-.374zm-2.857 4.612l-.654-.374-.659 1.087.654.374.659-1.087zm.7-1.159l-.654-.375-.659 1.087.654.374.659-1.087zm.7-1.159l-.653-.374-.659 1.087.654.374.659-1.087zm.7-1.159l-.653-.375-.66 1.087.654.374.659-1.087zm.7-1.159l-.653-.374-.659 1.087.653.375z" class="cls-6" transform="translate(-2447.535 -1854.381)"/>
                        </g>
                        <path id="패스_33702" d="M2494.6 1885.552l-.12-.059 3.8-6.267.114.07z" class="cls-18" transform="translate(-2491.392 -1877.456)"/>
                    </g>
                    <g id="그룹_42339" transform="translate(3.104 1.782)">
                        <g id="그룹_42337" transform="translate(4.556 .859)">
                            <g id="그룹_42336" transform="translate(0 5.374)">
                                <g id="그룹_42335" transform="translate(0 .344)">
                                    <path id="패스_33703" d="M2580.365 1988.051v.12l-.593.344v-.12z" class="cls-5" transform="translate(-2579.18 -1988.051)"/>
                                    <path id="패스_33704" d="M2570.578 1988.4v.12l-.593-.344v-.12z" class="cls-6" transform="translate(-2569.985 -1988.051)"/>
                                </g>
                                <path id="패스_33705" d="M2569.985 1982.714l.593-.344.593.344-.593.344z" class="cls-17" transform="translate(-2569.985 -1982.37)"/>
                            </g>
                            <path id="패스_33706" d="M2576.554 1893.606h.155l.124 5.673c0 .042 0 .072-.077.118a.239.239 0 0 1-.248 0c-.08-.046-.082-.076-.077-.118z" class="cls-5" transform="translate(-2576.039 -1893.606)"/>
                        </g>
                        <g id="그룹_42338">
                            <path id="패스_33707" d="M2498.525 1879.413l3.091 1.77-3.8 6.267-3.091-1.77z" class="cls-5" transform="translate(-2494.723 -1879.413)"/>
                            <path id="패스_33708" d="M2503.061 1884.671l2.789 1.6-3.521 5.8-2.789-1.6z" class="cls-9" transform="translate(-2499.249 -1884.353)"/>
                            <path id="패스_33709" d="M2510.254 1895.372l-3.547.9-.33.212.882.505 2.379-.606.615-1.015zm-.12-4.552l1.033.592-2.684.685.615-1.013 1.036-.264zm1.832 1.731l-.614 1.011-4.446 1.135.457-.754.566-.364z" class="cls-18" transform="translate(-2505.671 -1890.129)"/>
                            <path id="패스_33710" d="M2502.633 1884.1l.7.4.7.4.7.4.7.4c.012.007.012.029 0 .049l-.7 1.159-.7 1.159-.7 1.159-.7 1.159-.7 1.159c-.012.02-.032.031-.044.024l-.7-.4-.7-.4-.7-.4-.7-.4c-.012-.007-.012-.029 0-.049l.7-1.159.7-1.159.7-1.159.7-1.159.7-1.159c.012-.02.032-.031.044-.024zm-.09 6.294l-.654-.374-.659 1.087.654.374.659-1.087zm.7-1.159l-.654-.375-.659 1.087.654.374.659-1.087zm.7-1.159l-.654-.374-.659 1.087.654.374.659-1.087zm.7-1.159l-.654-.375-.659 1.087.653.374.659-1.087zm.05-1.534l-.659 1.087.654.374.659-1.087-.654-.374zm-2.857 4.612l-.653-.374-.659 1.087.654.374.659-1.087zm.7-1.159l-.654-.374-.659 1.087.654.374.659-1.087zm.7-1.159l-.653-.374-.659 1.087.654.374.659-1.087zm.7-1.159l-.654-.374-.659 1.087.654.374.659-1.087zm.05-1.534l-.659 1.087.654.374.659-1.087-.654-.374zm-2.857 4.612l-.654-.374-.659 1.087.654.374.659-1.087zm.7-1.159l-.653-.374-.659 1.087.654.374.659-1.087zm.7-1.159l-.654-.374-.659 1.087.654.375.659-1.087zm.7-1.159l-.653-.374-.66 1.087.654.374.659-1.087zm.05-1.534l-.659 1.087.654.374.659-1.087-.654-.374zm-2.857 4.612l-.654-.375-.659 1.087.654.374.659-1.087zm.7-1.159l-.654-.374-.659 1.087.654.374.659-1.087zm.7-1.159l-.653-.374-.659 1.087.654.375.659-1.087zm.7-1.159l-.654-.374-.659 1.087.654.374.659-1.087zm.7-1.159l-.653-.374-.659 1.087.654.374z" class="cls-6" transform="translate(-2498.8 -1883.813)"/>
                        </g>
                        <path id="패스_33711" d="M2545.867 1914.983l-.121-.059 3.8-6.268.114.07z" class="cls-18" transform="translate(-2542.657 -1906.886)"/>
                    </g>
                    <g id="그룹_42344" transform="translate(6.204 3.559)">
                        <g id="그룹_42342" transform="translate(4.556 .859)">
                            <g id="그룹_42341" transform="translate(0 5.374)">
                                <g id="그룹_42340" transform="translate(0 .344)">
                                    <path id="패스_33712" d="M2631.574 2017.405v.12l-.593.344v-.12z" class="cls-5" transform="translate(-2630.389 -2017.405)"/>
                                    <path id="패스_33713" d="M2621.787 2017.749v.12l-.593-.344v-.12z" class="cls-6" transform="translate(-2621.194 -2017.405)"/>
                                </g>
                                <path id="패스_33714" d="M2621.194 2012.067l.593-.344.593.344-.593.344z" class="cls-17" transform="translate(-2621.194 -2011.723)"/>
                            </g>
                            <path id="패스_33715" d="M2627.764 1922.959h.155l.123 5.673c0 .043 0 .072-.077.118a.239.239 0 0 1-.248 0c-.08-.046-.082-.076-.077-.118z" class="cls-5" transform="translate(-2627.249 -1922.959)"/>
                        </g>
                        <g id="그룹_42343">
                            <path id="패스_33716" d="M2549.734 1908.767l3.091 1.77-3.8 6.267-3.091-1.77z" class="cls-5" transform="translate(-2545.932 -1908.767)"/>
                            <path id="패스_33717" d="M2554.27 1914.024l2.789 1.6-3.521 5.8-2.789-1.6z" class="cls-9" transform="translate(-2550.458 -1913.706)"/>
                            <path id="패스_33718" d="M2561.463 1924.725l-3.547.9-.33.212.882.505 2.379-.606.615-1.015zm-.12-4.553l1.033.592-2.684.685.615-1.013 1.036-.264zm1.833 1.731l-.614 1.011-4.446 1.135.457-.754.566-.364z" class="cls-18" transform="translate(-2556.881 -1919.481)"/>
                            <path id="패스_33719" d="M2553.842 1913.451l.7.4.7.4.7.4.7.4c.012.007.012.029 0 .049l-.7 1.159-.7 1.159-.7 1.159-.7 1.159-.7 1.159c-.012.02-.032.031-.044.024l-.7-.4-.7-.4-.7-.4-.7-.4c-.012-.007-.011-.029 0-.049l.7-1.159.7-1.159.7-1.159.7-1.159.7-1.159c.012-.02.032-.031.044-.023zm-.09 6.294l-.654-.375-.659 1.087.654.374.659-1.087zm.7-1.159l-.654-.374-.659 1.087.653.374.66-1.087zm.7-1.159l-.653-.374-.66 1.087.654.374.659-1.087zm.7-1.159l-.654-.374-.659 1.087.654.374.659-1.087zm.05-1.534l-.659 1.087.653.375.66-1.087-.654-.375zm-2.857 4.612l-.654-.375-.659 1.087.654.374.659-1.087zm.7-1.159l-.653-.374-.66 1.087.654.374.659-1.087zm.7-1.159l-.653-.374-.66 1.087.654.374.659-1.087zm.7-1.159l-.654-.374-.659 1.087.653.374.659-1.087zm.05-1.534l-.659 1.087.653.374.66-1.087-.654-.375zm-2.856 4.612l-.654-.374-.659 1.087.654.375.659-1.087zm.7-1.159l-.654-.375-.659 1.087.654.374.659-1.087zm.7-1.159l-.654-.374-.659 1.087.654.374.659-1.087zm.7-1.159l-.654-.374-.659 1.087.654.375.659-1.087zm.049-1.533l-.659 1.087.654.374.659-1.087-.654-.374zm-2.856 4.612l-.654-.374-.659 1.087.654.374.659-1.087zm.7-1.159l-.654-.374-.659 1.087.654.374.659-1.087zm.7-1.159l-.654-.374-.659 1.087.654.374.659-1.087zm.7-1.159l-.654-.374-.659 1.087.654.375.659-1.087zm.7-1.159l-.653-.374-.66 1.087.654.375z" class="cls-6" transform="translate(-2550.01 -1913.166)"/>
                        </g>
                        <path id="패스_33720" d="M2597.075 1944.337l-.12-.059 3.8-6.268.114.07z" class="cls-18" transform="translate(-2593.866 -1936.24)"/>
                    </g>
                </g>
            </g>
        </g>
        <g id="그룹_42436" transform="rotate(-3 383.015 -1470.654)">
            <path id="패스_33892" fill="#ab938a" d="M43.087 176.294a17.006 17.006 0 0 1 6.173-3.5c2.68-.923 4.924-.76 5.325.1.835 1.8-3.565 2.4-2.922 3.158.951 1.121 7.558-2.282 7.209.441-.093.727-1.473.7-7.508 3.206-5.652 2.351-11.489-.519-8.277-3.405z" opacity="0.256" transform="translate(.142 7.993)"/>
            <g id="그룹_42436-2" transform="translate(41.498 134.354)">
                <path id="패스_33893" d="M49.6 175.984l.315.629a2.7 2.7 0 0 0 1.571.079l.039-.627z" class="cls-64" transform="translate(-39.785 -125.555)"/>
                <path id="패스_33894" d="M46.453 173.615l.314.631a2.734 2.734 0 0 0 1.572.076l.039-.628z" class="cls-64" transform="translate(-40.45 -126.055)"/>
                <path id="패스_33895" d="M49.638 174.118a9.977 9.977 0 0 0-.165 1.947c.038.866 1.962.666 3.381.55a9.244 9.244 0 0 0 3.692-.746c.482-.333.275-1.3-1.255-1.337a25.474 25.474 0 0 1-2.951-.315z" class="cls-64" transform="translate(-39.813 -125.949)"/>
                <path id="패스_33896" d="M46.491 171.749a10.22 10.22 0 0 0-.167 1.947c.039.865 1.965.669 3.381.55a9.2 9.2 0 0 0 3.7-.747c.478-.332.273-1.3-1.261-1.335a26.354 26.354 0 0 1-2.945-.315z" class="cls-64" transform="translate(-40.479 -126.45)"/>
                <path id="패스_33897" fill="#805026" d="M51.079 157.259s-1.474 12.619-2 18.455a2.565 2.565 0 0 1-2.584-.471c.048-6.075-.326-12.54.225-19.554z" transform="translate(-40.459 -129.844)"/>
                <path id="패스_33898" fill="#a76a34" d="M54.36 158.7s-1.177 12.975-1.708 19.813c-.058.669-2.693.589-2.8-.413-.311-8.253-.969-15.272-1.386-22.818z" transform="translate(-40.025 -129.93)"/>
                <path id="패스_33899" d="M43.424 156.184a19.319 19.319 0 0 1 .744 2.15c.039.376-.285.643-.62-.568.085 2.084.183 2.682-.067 2.7s-.211-.388-.333-1.582c-.08 1.566-.11 1.875-.359 1.839-.2-.029-.216-.344-.116-1.847-.328 1.529-.315 1.766-.545 1.69-.206-.064-.176-.322.113-1.784-.382.972-.436 1.247-.648 1.158-.24-.105.017-.642.31-1.491a8.774 8.774 0 0 0 .092-2.265 2.359 2.359 0 0 1 1.429 0z" class="cls-67" transform="translate(-41.498 -129.764)"/>
                <path id="패스_33900" d="M52.391 145.134a23.908 23.908 0 0 0-7.014 6.493 12.837 12.837 0 0 0-1.9 7.546l-1.63-.03a19.332 19.332 0 0 1 .923-8.19c2.038-5.721 4.111-7.3 5.531-8.2 1.612-.586 4.389 1.216 4.09 2.381z" class="cls-64" transform="translate(-41.445 -132.603)"/>
                <path id="패스_33901" d="M54.034 143.3l2.291.722a.475.475 0 0 1 .429.568c-.214 1.861-1.5 9.363-2.013 16.787a12.917 12.917 0 0 1-8.076-2.924s.061-9.625.585-15.13c.008-.108.038-.734.492-.7l1.576-.035z" class="cls-64" transform="translate(-40.406 -132.612)"/>
                <path id="패스_33902" d="M49.236 141.306a7.331 7.331 0 0 1 0 1.267c-.015.166.119.443.972.59 1.534.266 2.71-.262 2.772-.558v-1.915z" class="cls-67" transform="translate(-39.862 -133.015)"/>
                <path id="패스_33903" d="M52.971 135.63s.443.739.62 1.121c.531 1.15.808 1.621.706 1.65-.2.061-.558.177-.558.177s.191.831.4 2.31c.078.551.069.9-2.053 1.5-2.323.644-2.654.382-2.832-.207-.236-1-1.119-4.482-.413-5.426 1.188-1.582 3.217-2.304 4.13-1.125z" class="cls-67" transform="translate(-40.002 -134.207)"/>
                <path id="패스_33904" d="M53.149 135.776s-1.295.384-1.473.472.119 1.09.178 1.622-.177-.081-.5 0c-.471.116-.44.761-.177 1.591.2.648.825.532.915.266s.383.884.588 1.945a15.136 15.136 0 0 1-3.243.649 12.339 12.339 0 0 1-1.651-4.539c-.44-2.331 1.982-3.041 3.54-3.334 1.413-.264 1.618-.029 1.823 1.328z" class="cls-64" transform="translate(-40.18 -134.354)"/>
                <path id="패스_33905" fill="#bfbfbf" d="M48.854 142.725s.156-.315.354-.747l3.852.354.511 1.1c-1.06.196-4.325-.158-4.717-.707z" transform="translate(-39.943 -132.742)"/>
                <path id="패스_33906" d="M57.6 142.511a18.782 18.782 0 0 1-1.895-.665c-.294-.179-.251-.5.76-.144-.678-.329-.975-.826-1.393-1-.62-.26-.951-.194-.917-.506.022-.193.436-.1 1.114.139.246.09.29.28.6.464-.443-.383-.462-.477-.3-.64.132-.132.288 0 .568.3-.227-.281-.355-.457-.164-.569.134-.079.225 0 .469.3-.177-.277-.183-.363-.057-.428.144-.075.245.1.487.363.149.161.508.452 1.468 1.509a1.438 1.438 0 0 1-.74.877z" class="cls-67" transform="translate(-38.823 -133.215)"/>
                <path id="패스_33907" d="M54.057 144.89a.893.893 0 0 1 1.231-.231c.648.415 4.544 3.8 5.593 2.64.527-.584-2.047-3.971-3.231-5.07l.815-1c2.563 2.332 6.7 7.492 3.965 8.691-2.065.9-5.846-.371-7.978-1.066-1.043.952-1.485-2.479-.395-3.964z" class="cls-64" transform="translate(-38.977 -132.9)"/>
            </g>
        </g>
    </g>
</svg>
