<svg xmlns="http://www.w3.org/2000/svg" xmlns:xlink="http://www.w3.org/1999/xlink" width="53.852" height="56.477" viewBox="0 0 53.852 56.477">
    <defs>
        <linearGradient id="linear-gradient" x1="439.339" x2="440.158" y1="300.08" y2="300.08" gradientUnits="objectBoundingBox">
            <stop offset=".01" stop-color="#c6c3d6"/>
            <stop offset=".271" stop-color="#d9d8e2"/>
            <stop offset=".451" stop-color="#e2e1e8"/>
            <stop offset=".694" stop-color="#cccad8"/>
            <stop offset=".977" stop-color="#b8b5c9"/>
        </linearGradient>
        <linearGradient id="linear-gradient-2" x1="439.911" x2="440.729" y1="302.15" y2="302.15" xlink:href="#linear-gradient"/>
        <linearGradient id="linear-gradient-3" x1="3420.048" x2="3421.203" y1="1454.945" y2="1454.945" xlink:href="#linear-gradient"/>
        <linearGradient id="linear-gradient-4" x1="665.669" x2="666.824" y1="283.648" y2="283.648" xlink:href="#linear-gradient"/>
        <style>
            .cls-3{fill:#23272e}.cls-4{fill:#434852}.cls-5{fill:#474354}.cls-6{fill:#b1b8cf}.cls-7{fill:#fafafa}
        </style>
    </defs>
    <g id="img_etiquette04" transform="translate(-11.648 -573.5)">
        <path id="패스_37426" fill="#1e1c1e" d="M933.43 197.8l12.248-7.072c1.139-.658 1-1.807-.319-2.566l-24.276-13.815a4.94 4.94 0 0 0-4.445-.184l-12.248 7.072c-1.139.658-1 1.807.319 2.566l24.276 13.814a4.94 4.94 0 0 0 4.445.185z" opacity="0.2" transform="translate(-886.823 426.588)"/>
        <g id="그룹_43261" transform="translate(19.387 576.332)">
            <g id="그룹_43257" transform="translate(1.437 19.249)">
                <path id="패스_37381" d="M734.906 186.819c0 .027 0 .053-.006.08s0 .054-.006.08 0 .053-.006.08 0 .053-.005.08 0 .054-.006.08l-.006.08c0 .027 0 .054-.006.08s0 .053-.006.08 0 .053-.006.08 0 .054-.006.08 0 .053-.006.08 0 .054-.005.08l-.006.08-.006.08c0 .027 0 .054-.006.08s0 .053-.006.08 0 .054-.006.08 0 .053-.006.08 0 .053-.005.08l-.006.08c0 .027 0 .053-.006.08s0 .053-.006.08 0 .054-.006.08 0 .053-.006.08 0 .054-.006.08 0 .053-.005.08l-.006.08-.006.08c0 .027 0 .053-.006.08s0 .054-.006.08 0 .053-.006.08 0 .053-.006.08 0 .054-.005.08l-.006.08-.006.08c0 .027 0 .053-.006.08s0 .053-.006.08 0 .054-.006.08 0 .053-.006.08 0 .053-.005.08l-.006.08-.006.08c0 .027 0 .054-.006.08s0 .053-.006.08 0 .053-.006.08 0 .053-.006.08 0 .053-.005.08l-.006.08c0 .027 0 .053-.006.08s0 .053-.006.08 0 .054-.006.08 0 .053-.006.08 0 .053-.006.08 0 .053-.005.08l-.006.08-.006.08c0 .027 0 .053-.006.08s0 .053-.006.08 0 .053-.006.08 0 .053-.006.08 0 .054-.005.08 0 .053-.006.08 0 .053-.006.08 0 .053-.006.08 0 .053-.006.08 0 .053-.006.08 0 .054-.006.08 0 .053-.005.08l-.006.08-.006.08c0 .027 0 .053-.006.08s0 .054-.006.08 0 .053-.006.08 0 .054-.006.08 0 .053-.005.08l-.006.08-.006.08c0 .027 0 .053-.006.08s0 .053-.006.08 0 .053-.006.08c-.106 1.652-1.315 3.22-3.595 4.305a17.309 17.309 0 0 1-15.614-1.241c-2.067-1.424-3.014-3.15-2.873-4.79 0-.027 0-.053.006-.08l.006-.08c0-.027 0-.053.006-.08s0-.053.006-.08 0-.054.006-.08 0-.053.006-.08 0-.053.005-.08 0-.054.006-.08l.006-.08.006-.08c0-.027 0-.053.006-.08s0-.053.006-.08 0-.054.006-.08 0-.053.005-.08 0-.053.006-.08l.006-.08c0-.027 0-.053.006-.08s0-.054.006-.08 0-.053.006-.08 0-.053.006-.08 0-.053.005-.08 0-.053.006-.08l.006-.08c0-.027 0-.053.006-.08s0-.053.006-.08 0-.054.006-.08 0-.053.006-.08 0-.054.005-.08l.006-.08.006-.08.006-.08c0-.027 0-.053.006-.08s0-.053.006-.08 0-.054.006-.08 0-.053.005-.08 0-.054.006-.08l.006-.08.006-.08c0-.027 0-.054.006-.08s0-.053.006-.08 0-.054.006-.08 0-.053.006-.08 0-.053.005-.08 0-.054.006-.08l.006-.08c0-.027 0-.053.006-.08s0-.053.006-.08 0-.053.006-.08 0-.054.006-.08 0-.053.005-.08l.006-.08.006-.08c0-.027 0-.053.006-.08s0-.054.006-.08 0-.053.006-.08 0-.053.006-.08 0-.054.005-.08l.006-.08c0-.027 0-.053.006-.08s0-.053.006-.08 0-.053.006-.08 0-.054.006-.08 0-.053.006-.08 0-.053.005-.08 0-.053.006-.08l.006-.08c0-.027 0-.054.006-.08s0-.053.006-.08 0-.053.006-.08 0-.054.006-.08 0-.053.005-.08l.006-.08.006-.08c0-.027 0-.053.006-.08s0-.054.006-.08 0-.053.006-.08 0-.053.006-.08 0-.053.005-.08l.006-.08.006-.08c.107-1.651 1.315-3.22 3.6-4.305a17.31 17.31 0 0 1 15.613 1.241c2.063 1.424 3.01 3.152 2.869 4.79z" class="cls-3" transform="translate(-712.32 -178.665)"/>
                <ellipse id="타원_1478" cx="6.395" cy="11.075" class="cls-4" rx="6.395" ry="11.075" transform="rotate(-85.456 6.901 6.375)"/>
                <ellipse id="타원_1479" cx="4.268" cy="7.393" class="cls-5" rx="4.268" ry="7.393" transform="rotate(-85.47 7.83 3.382)"/>
                <path id="패스_37382" d="M729.4 189.259l1.071 2.184 1.641.812 3.038.582 2.312-1.843-3.9.552-1.9-.4-1.524-2.084z" class="cls-6" transform="translate(-718.323 -182.038)"/>
                <path id="패스_37383" d="M729.872 187.295l3.67-.427 1.252-.886.728-1.723-3.39-1.52 1.308 2.33-.512 1.077-3.456.7z" class="cls-6" transform="translate(-718.348 -179.812)"/>
                <path id="패스_37384" d="M726.347 187.459l-1.071-2.184-1.641-.812-3.038-.582-2.312 1.843 3.9-.552 1.9.4 1.524 2.084z" class="cls-6" transform="translate(-714.409 -180.213)"/>
                <path id="패스_37385" d="M726.969 189l-3.67.427-1.252.886-.727 1.723 3.39 1.52-1.308-2.33.512-1.077 3.456-.7z" class="cls-6" transform="translate(-715.478 -182.015)"/>
                <path id="패스_37386" d="M729.614 188.56l3.352 1.243 2.046-.052 2.662-.806-.762-2.378-1.832 2.033-1.709.48-3.521-.978z" class="cls-6" transform="translate(-718.398 -181.159)"/>
                <path id="패스_37387" d="M728.322 187.129l1.837-1.846-.276-1.2-1.634-1.63-4.032.229 3.682 1.257.984 1.043-1.366 1.969z" class="cls-6" transform="translate(-716.498 -179.711)"/>
                <path id="패스_37388" d="M726.135 188.45l-3.352-1.243-2.046.052-2.663.806.762 2.378 1.832-2.038 1.708-.48 3.521.978z" class="cls-6" transform="translate(-714.336 -181.385)"/>
                <path id="패스_37389" d="M728.578 189.1l-1.837 1.846.276 1.2 1.633 1.63 4.032-.229-3.682-1.259-.984-1.043 1.366-1.969z" class="cls-6" transform="translate(-717.387 -182.05)"/>
                <path id="패스_37390" d="M730.455 188.282a2.651 2.651 0 0 0-2.39-.19.731.731 0 0 0-.11 1.381 2.652 2.652 0 0 0 2.391.19.731.731 0 0 0 .109-1.381z" class="cls-7" transform="translate(-717.658 -181.626)"/>
                <path id="패스_37391" fill="url(#linear-gradient)" d="M731.824 183.606a13.614 13.614 0 0 0-12.281-.976c-3.547 1.689-3.8 4.863-.563 7.091a13.616 13.616 0 0 0 12.281.976c3.547-1.689 3.799-4.863.563-7.091zm-.971.463c2.745 1.89 2.532 4.584-.479 6.018a11.555 11.555 0 0 1-10.422-.829c-2.746-1.89-2.532-4.584.478-6.018a11.556 11.556 0 0 1 10.422.829z" transform="translate(-713.855 -179.411)"/>
            </g>
            <g id="그룹_43258" transform="translate(0 9.337)">
                <path id="패스_37392" d="M732.689 171.522c0 .027 0 .054-.006.08s0 .053-.006.08 0 .053-.006.08 0 .054-.005.08l-.006.08-.006.08c0 .027 0 .054-.006.08s0 .053-.006.08 0 .053-.006.08 0 .054-.006.08 0 .053-.005.08 0 .054-.006.08 0 .053-.006.08 0 .053-.006.08 0 .053-.006.08 0 .053-.006.08 0 .054-.006.08 0 .053-.005.08l-.006.08c0 .027 0 .053-.006.08s0 .053-.006.08 0 .054-.006.08 0 .053-.006.08 0 .053-.006.08 0 .054-.005.08l-.006.08-.006.08c0 .027 0 .054-.006.08s0 .053-.006.08 0 .054-.006.08 0 .053-.006.08 0 .053-.005.08 0 .054-.006.08l-.006.08c0 .027 0 .054-.006.08s0 .053-.006.08 0 .053-.006.08 0 .054-.006.08 0 .053-.005.08l-.006.08c0 .027 0 .053-.006.08s0 .053-.006.08 0 .054-.006.08 0 .053-.006.08 0 .054-.006.08 0 .053-.005.08l-.006.08c0 .027 0 .054-.006.08s0 .053-.006.08 0 .053-.006.08 0 .054-.006.08 0 .053-.006.08 0 .054-.005.08l-.006.08q0 .04-.006.08c0 .027 0 .054-.006.08s0 .053-.006.08 0 .053-.006.08 0 .053-.006.08 0 .053-.005.08 0 .054-.006.08l-.006.08c0 .027 0 .053-.006.08s0 .053-.006.08 0 .053-.006.08 0 .054-.006.08 0 .053-.005.08l-.006.08-.006.08c0 .027 0 .053-.006.08s0 .053-.006.08 0 .053-.006.08 0 .053-.006.08 0 .054-.005.08l-.006.08-.006.08c0 .027 0 .054-.006.08s0 .053-.006.08 0 .054-.006.08 0 .053-.006.08c-.106 1.652-1.315 3.22-3.595 4.305a17.309 17.309 0 0 1-15.614-1.241c-2.067-1.424-3.014-3.15-2.872-4.79 0-.027 0-.053.005-.08s0-.053.006-.08l.006-.08c0-.027 0-.053.006-.08s0-.054.006-.08 0-.053.006-.08 0-.053.006-.08 0-.054.005-.08l.006-.08.006-.08c0-.027 0-.054.006-.08s0-.053.006-.08 0-.054.006-.08 0-.053.006-.08 0-.053.005-.08l.006-.08.006-.08c0-.027 0-.054.006-.08s0-.053.006-.08 0-.053.006-.08 0-.054.006-.08 0-.053.005-.08l.006-.08.006-.08c0-.027 0-.053.006-.08s0-.054.006-.08 0-.053.006-.08 0-.053.006-.08 0-.053.005-.08 0-.053.006-.08l.006-.08c0-.027 0-.053.006-.08s0-.053.006-.08 0-.054.006-.08 0-.053.006-.08 0-.053.005-.08l.006-.08.006-.08c0-.027 0-.054.006-.08s0-.053.006-.08 0-.053.006-.08 0-.053.006-.08 0-.053.005-.08 0-.054.006-.08 0-.053.006-.08l.006-.08c0-.027 0-.053.006-.08s0-.053.006-.08 0-.054.006-.08 0-.053.005-.08l.006-.08.006-.08c0-.027 0-.053.006-.08s0-.053.006-.08 0-.053.006-.08 0-.053.006-.08 0-.054.005-.08l.006-.08.006-.08.006-.08c0-.027 0-.053.006-.08s0-.054.006-.08 0-.053.006-.08 0-.053.005-.08l.006-.08q0-.04.006-.08c0-.027 0-.054.006-.08s0-.053.006-.08 0-.053.006-.08 0-.054.006-.08 0-.053.005-.08l.006-.08.006-.08.006-.08c0-.027 0-.054.006-.08s0-.053.006-.08 0-.053.006-.08 0-.054.006-.08 0-.053.005-.08l.006-.08c.107-1.651 1.315-3.22 3.6-4.305a17.31 17.31 0 0 1 15.613 1.241c2.063 1.424 3.01 3.152 2.869 4.79z" class="cls-3" transform="translate(-710.104 -163.368)"/>
                <ellipse id="타원_1480" cx="6.395" cy="11.075" class="cls-4" rx="6.395" ry="11.075" transform="rotate(-85.456 6.901 6.375)"/>
                <ellipse id="타원_1481" cx="4.268" cy="7.393" class="cls-5" rx="4.268" ry="7.393" transform="rotate(-85.47 7.83 3.382)"/>
                <path id="패스_37393" d="M727.184 173.962l1.071 2.184 1.641.812 3.038.582 2.312-1.843-3.9.552-1.9-.4-1.524-2.084z" class="cls-6" transform="translate(-716.106 -166.742)"/>
                <path id="패스_37394" d="M727.655 172l3.67-.427 1.252-.886.727-1.723-3.39-1.52 1.308 2.33-.512 1.077-3.456.7z" class="cls-6" transform="translate(-716.131 -164.515)"/>
                <path id="패스_37395" d="M724.13 172.162l-1.071-2.184-1.642-.812-3.038-.582-2.312 1.843 3.9-.552 1.9.4 1.524 2.084z" class="cls-6" transform="translate(-712.192 -164.916)"/>
                <path id="패스_37396" d="M724.752 173.7l-3.67.427-1.252.886-.727 1.723 3.39 1.52-1.308-2.33.512-1.077 3.456-.7z" class="cls-6" transform="translate(-713.261 -166.718)"/>
                <path id="패스_37397" d="M727.4 173.263l3.352 1.243 2.046-.052 2.663-.806-.762-2.378-1.832 2.038-1.709.48-3.521-.978z" class="cls-6" transform="translate(-716.181 -165.862)"/>
                <path id="패스_37398" d="M726.1 171.833l1.837-1.846-.276-1.2-1.634-1.63-4.032.229 3.682 1.257.984 1.043-1.366 1.969z" class="cls-6" transform="translate(-714.281 -164.414)"/>
                <path id="패스_37399" d="M723.918 173.153l-3.352-1.243-2.046.052-2.662.806.762 2.378 1.832-2.038 1.709-.48 3.521.978z" class="cls-6" transform="translate(-712.119 -166.088)"/>
                <path id="패스_37400" d="M726.361 173.8l-1.837 1.846.276 1.2 1.633 1.63 4.032-.229-3.682-1.257-.984-1.043 1.366-1.969z" class="cls-6" transform="translate(-715.17 -166.753)"/>
                <path id="패스_37401" d="M728.239 172.986a2.65 2.65 0 0 0-2.391-.191.731.731 0 0 0-.109 1.381 2.651 2.651 0 0 0 2.39.19.731.731 0 0 0 .11-1.38z" class="cls-7" transform="translate(-715.441 -166.329)"/>
                <path id="패스_37402" fill="url(#linear-gradient-2)" d="M729.607 168.309a13.616 13.616 0 0 0-12.281-.976c-3.547 1.689-3.8 4.864-.563 7.091a13.614 13.614 0 0 0 12.281.976c3.547-1.689 3.799-4.863.563-7.091zm-.971.463c2.746 1.89 2.531 4.584-.478 6.018a11.556 11.556 0 0 1-10.423-.829c-2.745-1.89-2.532-4.584.479-6.018a11.555 11.555 0 0 1 10.421.829z" transform="translate(-711.638 -164.114)"/>
            </g>
            <g id="그룹_43259" transform="translate(4.094)">
                <path id="패스_37403" d="M739.007 157.112c0 .027 0 .053-.006.08s0 .054-.005.08 0 .053-.006.08l-.006.08c0 .027 0 .054-.006.08s0 .053-.006.08 0 .054-.006.08 0 .053-.006.08 0 .053-.005.08l-.006.08-.006.08c0 .027 0 .054-.006.08s0 .053-.006.08 0 .053-.006.08 0 .054-.006.08 0 .053-.005.08l-.006.08-.006.08c0 .027 0 .053-.006.08s0 .054-.006.08 0 .053-.006.08 0 .053-.006.08 0 .054-.005.08 0 .053-.006.08l-.006.08c0 .027 0 .053-.006.08s0 .053-.006.08 0 .054-.006.08 0 .053-.006.08 0 .054-.005.08l-.006.08-.006.08c0 .027 0 .054-.006.08s0 .053-.006.08 0 .053-.006.08 0 .053-.006.08 0 .053-.005.08l-.006.08-.006.08c0 .027 0 .053-.006.08s0 .053-.006.08 0 .053-.006.08 0 .054-.006.08 0 .053-.005.08l-.006.08-.006.08c0 .027 0 .053-.006.08s0 .053-.006.08 0 .053-.006.08 0 .053-.006.08 0 .054-.005.08 0 .053-.006.08l-.006.08c0 .027 0 .053-.006.08s0 .053-.006.08 0 .054-.006.08 0 .053-.006.08 0 .053-.005.08l-.006.08c0 .027 0 .053-.006.08s0 .054-.006.08 0 .053-.006.08 0 .053-.006.08 0 .053-.006.08 0 .053-.005.08l-.006.08-.006.08-.006.08c0 .027 0 .054-.006.08s0 .053-.006.08 0 .053-.006.08 0 .054-.005.08l-.006.08-.006.08c0 .027 0 .053-.006.08s0 .053-.006.08 0 .054-.006.08 0 .053-.006.08 0 .053-.005.08 0 .053-.006.08c-.107 1.652-1.315 3.22-3.6 4.305a17.308 17.308 0 0 1-15.613-1.241c-2.068-1.424-3.014-3.15-2.873-4.79 0-.027 0-.053.006-.08s0-.053.006-.08 0-.053.005-.08l.006-.08c0-.027 0-.054.006-.08s0-.053.006-.08 0-.053.006-.08 0-.054.006-.08 0-.053.006-.08 0-.053.005-.08l.006-.08.006-.08c0-.027 0-.054.006-.08s0-.053.006-.08 0-.053.006-.08 0-.054.006-.08 0-.053.005-.08l.006-.08.006-.08c0-.027 0-.053.006-.08s0-.053.006-.08 0-.053.006-.08 0-.054.006-.08 0-.053.005-.08l.006-.08c0-.027 0-.054.006-.08l.006-.08c0-.027 0-.054.006-.08s0-.053.006-.08 0-.053.006-.08 0-.054.005-.08 0-.053.006-.08l.006-.08c0-.027 0-.054.006-.08s0-.053.006-.08 0-.054.006-.08 0-.053.006-.08 0-.053.005-.08l.006-.08.006-.08.006-.08c0-.027 0-.053.006-.08s0-.053.006-.08 0-.054.006-.08 0-.053.005-.08l.006-.08.006-.08.006-.08c0-.027 0-.054.006-.08s0-.053.006-.08 0-.053.006-.08 0-.053.005-.08l.006-.08c0-.027 0-.054.006-.08l.006-.08c0-.027 0-.053.006-.08s0-.054.006-.08 0-.053.006-.08 0-.053.005-.08l.006-.08.006-.08c0-.027 0-.054.006-.08s0-.053.006-.08 0-.053.006-.08 0-.053.006-.08 0-.053.005-.08l.006-.08q0-.04.006-.08l.006-.08c0-.027 0-.054.006-.08s0-.053.006-.08 0-.054.006-.08 0-.053.006-.08 0-.053.005-.08 0-.054.006-.08 0-.053.006-.08 0-.053.006-.08 0-.053.006-.08 0-.053.006-.08 0-.054.006-.08c.106-1.651 1.315-3.22 3.595-4.305a17.312 17.312 0 0 1 15.614 1.241c2.069 1.424 3.018 3.152 2.876 4.79z" class="cls-3" transform="translate(-716.422 -148.958)"/>
                <ellipse id="타원_1482" cx="6.395" cy="11.075" class="cls-4" rx="6.395" ry="11.075" transform="rotate(-85.456 6.901 6.375)"/>
                <ellipse id="타원_1483" cx="4.268" cy="7.393" fill="#4a4d5a" rx="4.268" ry="7.393" transform="rotate(-85.47 7.83 3.382)"/>
                <path id="합치기_30" fill="#d9deeb" stroke="rgba(0,0,0,0)" stroke-miterlimit="10" d="M5.891 7.353l-.275-1.2L6.8 4.965l-2.1.426-.514 1.076 1.307 2.328L2.1 7.275l.729-1.721 1.251-.887 2.361-.274L4.3 3.8l-1.7.479L.763 6.317 0 3.938l2.663-.806 2.045-.052 2.159.8-.926-1.266-1.906-.4-3.9.55L2.45.927l3.037.581 1.641.812.69 1.407.83-1.2-.983-1.042L3.982.229 8.014 0l1.634 1.631.275 1.2L8.74 4.02l2.1-.426.513-1.079L10.046.186l3.389 1.52-.729 1.724-1.251.887L9.1 4.59l2.137.595 1.708-.479 1.832-2.039.763 2.379-2.663.806-2.046.048-2.159-.8.928 1.27 1.906.4 3.9-.553-2.316 1.841-3.037-.581-1.641-.813-.69-1.406-.83 1.2.983 1.042 3.683 1.258-4.032.228z" transform="translate(3.738 2.742)"/>
                <path id="패스_37412" fill="#e6e2e2" d="M734.557 158.575a2.652 2.652 0 0 0-2.391-.19.731.731 0 0 0-.11 1.381 2.652 2.652 0 0 0 2.391.19.731.731 0 0 0 .11-1.381z" transform="translate(-721.76 -151.919)"/>
                <path id="패스_37413" fill="#edecf5" d="M735.926 153.9a13.614 13.614 0 0 0-12.281-.976c-3.547 1.689-3.8 4.863-.564 7.091a13.616 13.616 0 0 0 12.281.976c3.547-1.691 3.799-4.864.564-7.091zm-.972.463c2.746 1.89 2.532 4.584-.478 6.018a11.555 11.555 0 0 1-10.422-.829c-2.746-1.89-2.532-4.584.478-6.018a11.555 11.555 0 0 1 10.422.828z" transform="translate(-717.956 -149.704)"/>
            </g>
            <g id="그룹_43260" transform="translate(17.48 21.752)">
                <path id="패스_37414" d="M756.009 185.882l-.069-.04-.069-.041-.069-.041-.069-.04-.069-.041-.069-.041-.069-.04-.069-.041-.069-.041-.069-.04-.069-.041-.069-.041-.069-.04-.069-.041-.069-.041-.069-.04-.069-.041-.069-.041-.069-.04-.069-.041-.069-.041-.069-.04-.069-.041-.069-.041-.069-.04-.069-.041-.069-.041-.069-.04-.069-.041-.069-.041-.069-.04-.069-.041-.069-.041-.069-.04-.069-.041-.069-.041-.069-.04-.069-.041-.069-.041-.069-.04-.069-.041-.069-.041-.069-.04-.069-.041-.069-.041-.069-.04-.069-.041-.069-.041-.069-.04-.069-.041-.069-.041-.069-.04-.069-.041-.069-.041-.069-.04-.069-.041-.069-.041-.069-.04-.069-.041-.069-.041-.069-.04-.069-.041-.069-.041-.069-.04-.069-.041-.069-.041-.069-.04-.069-.041-.069-.041-.069-.04-.079-.036-.069-.041-.069-.04-.069-.041-.069-.041-.069-.04-.069-.041-.069-.041-.069-.04-.069-.041c-1.421-.849-3.4-.743-5.585.52a17.311 17.311 0 0 0-7.831 13.565c0 2.51.886 4.269 2.316 5.082l.069.041.069.04.069.041.069.041.069.04.069.041.069.041.069.04.069.041.069.041.069.04.069.041.069.041.069.04.069.041.069.041.069.04.069.041.069.041.069.04.069.041.069.041.069.04.069.041.069.041.069.04.069.041.069.041.069.04.069.041.069.041.069.041.069.04.069.041.069.04.069.041.069.041.069.04.069.041.069.041.069.041.069.04.069.041.069.041.069.04.069.041.069.04.069.041.069.041.069.04.069.041.069.041.069.04.069.041.069.041.069.041.069.04.069.041.069.041.069.04.069.041.069.041.069.04.069.041.069.041.069.04.069.041.069.041.069.04.069.041.069.041.069.04.069.041.069.041.069.04.069.041.069.041.069.04.069.041.069.041c1.421.848 3.4.743 5.585-.52a17.309 17.309 0 0 0 7.832-13.564c.01-2.517-.876-4.276-2.307-5.089z" class="cls-3" transform="translate(-737.065 -182.084)"/>
                <ellipse id="타원_1484" cx="11.075" cy="6.394" class="cls-4" rx="11.075" ry="6.394" transform="rotate(-60 18.32 7.86)"/>
                <path id="패스_37415" d="M760.177 196.081a11.555 11.555 0 0 1-5.228 9.055c-2.887 1.667-5.228.316-5.228-3.018a11.554 11.554 0 0 1 5.228-9.055c2.888-1.663 5.228-.316 5.228 3.018z" class="cls-5" transform="translate(-741.521 -185.698)"/>
                <path id="패스_37416" d="M756.772 199.248l-1.192-2.121.262-1.813 1.243-2.832 2.829-.859-2.666 2.9-.752 1.794.853 2.437z" class="cls-6" transform="translate(-743.583 -185.442)"/>
                <path id="패스_37417" d="M757.477 200.8l2.433-2.781 1.439-.529 1.832.378-.67 3.654-1.177-2.4-1.177-.189-2.537 2.449z" class="cls-6" transform="translate(-744.251 -187.506)"/>
                <path id="패스_37418" d="M756.432 202.276l1.192 2.121-.262 1.813-1.243 2.832-2.829.859 2.666-2.9.752-1.794-.852-2.437z" class="cls-6" transform="translate(-742.777 -189.193)"/>
                <path id="패스_37419" d="M754.984 202.682l-2.433 2.781-1.439.529-1.832-.378.67-3.654 1.178 2.4 1.177.189 2.537-2.449z" class="cls-6" transform="translate(-741.365 -189.081)"/>
                <path id="패스_37420" d="M757.311 199.332l.877-3.466 1.2-1.656 2.174-1.736 1.526 1.976-2.717.354-1.364 1.135-1.191 3.455z" class="cls-6" transform="translate(-744.192 -185.742)"/>
                <path id="패스_37421" d="M757.653 202.016l2.563-.466.833.908.416 2.27-2.475 3.191 1.052-3.745-.3-1.4-2.4.008z" class="cls-6" transform="translate(-744.204 -188.937)"/>
                <path id="패스_37422" d="M755.107 202.575l-.877 3.466-1.2 1.656-2.174 1.736-1.526-1.976 2.717-.354 1.364-1.135 1.191-3.455z" class="cls-6" transform="translate(-741.382 -189.276)"/>
                <path id="패스_37423" d="M755.668 200.191l-2.563.466-.833-.908-.416-2.27 2.475-3.191-1.052 3.745.3 1.4 2.4-.008z" class="cls-6" transform="translate(-742.272 -186.381)"/>
                <path id="패스_37424" fill="url(#linear-gradient-3)" d="M758.338 201.233a2.651 2.651 0 0 1-1.2 2.077c-.662.382-1.2.073-1.2-.693a2.65 2.65 0 0 1 1.2-2.077c.662-.381 1.2-.072 1.2.693z" transform="translate(-743.71 -188.524)"/>
                <path id="패스_37425" fill="url(#linear-gradient-4)" d="M754.443 191.333A13.615 13.615 0 0 0 748.284 202c0 3.929 2.758 5.521 6.159 3.557a13.614 13.614 0 0 0 6.16-10.669c-.003-3.927-2.757-5.52-6.16-3.555zm0 13.149c-2.887 1.667-5.228.316-5.228-3.018a11.554 11.554 0 0 1 5.228-9.055c2.887-1.667 5.228-.316 5.228 3.018a11.555 11.555 0 0 1-5.228 9.055z" transform="translate(-741.015 -185.044)"/>
            </g>
        </g>
    </g>
</svg>
