<svg xmlns="http://www.w3.org/2000/svg" id="img_reservation" width="140" height="116" viewBox="0 0 140 116">
    <defs>
        <linearGradient id="linear-gradient" x1=".5" x2=".5" y1="-.029" y2=".769" gradientUnits="objectBoundingBox">
            <stop offset="0" stop-color="#42b1ff"/>
            <stop offset="1" stop-color="#4a83e7"/>
        </linearGradient>
        <clipPath id="clip-path">
            <path id="mask" fill="#fff" d="M0 0H140V116H0z" opacity="0.2" transform="translate(211 108)"/>
        </clipPath>
        <style>
            .cls-5{fill:#fff}.cls-6{fill:#fbfbfc}.cls-7{fill:#f7f7f8}.cls-8{fill:#f3f4f5}.cls-9{fill:#f0f0f1}.cls-10{fill:#ececee}.cls-11{fill:#e8e8ea}.cls-12{fill:#e4e4e7}.cls-13{fill:#e0e1e3}.cls-14{fill:#dcdde0}.cls-15{fill:#d8d9dc}.cls-16{fill:#d4d5d9}.cls-17{fill:#d1d1d5}.cls-18{fill:#cdcdd2}.cls-19{fill:#c9cace}.cls-20{fill:#c5c6cb}.cls-21{fill:#c1c2c7}.cls-28{fill:#d19420}
        </style>
    </defs>
    <g id="마스크_그룹_96" clip-path="url(#clip-path)" transform="translate(-211 -108)">
        <g id="img_map" transform="translate(257.413 120.071)">
            <g id="그룹_21379" transform="translate(0 53.714)">
                <g id="그룹_21370" transform="translate(0 7.92)" style="mix-blend-mode:multiply;isolation:isolate" opacity="0.5">
                    <path id="패스_28419" d="M315.072 161.755c-11.158-5.308-29.072-5.047-40.011.585s-10.763 14.5.393 19.81 29.073 5.047 40.014-.585 10.762-14.502-.396-19.81z" class="cls-5" transform="translate(-266.971 -157.939)"/>
                    <path id="패스_28420" d="M314.657 161.833c-11-5.233-28.66-4.975-39.444.577s-10.611 14.295.387 19.528 28.662 4.977 39.447-.576 10.609-14.294-.39-19.529z" class="cls-6" transform="translate(-266.836 -157.873)"/>
                    <path id="패스_28421" d="M314.242 161.911c-10.841-5.157-28.249-4.9-38.879.57s-10.457 14.089.383 19.247 28.25 4.9 38.88-.567 10.458-14.09-.384-19.25z" class="cls-7" transform="translate(-266.701 -157.806)"/>
                    <path id="패스_28422" d="M313.827 161.99c-10.683-5.083-27.837-4.833-38.312.56s-10.306 13.885.377 18.968 27.839 4.833 38.313-.56 10.306-13.885-.378-18.968z" class="cls-8" transform="translate(-266.566 -157.74)"/>
                    <path id="패스_28423" d="M313.411 162.068c-10.526-5.008-27.426-4.761-37.745.552s-10.154 13.68.372 18.688 27.426 4.761 37.747-.552 10.152-13.68-.374-18.688z" class="cls-9" transform="translate(-266.431 -157.674)"/>
                    <path id="패스_28424" d="M313 162.146c-10.368-4.932-27.014-4.689-37.179.544s-10 13.474.366 18.406 27.014 4.69 37.18-.543 9.997-13.474-.367-18.407z" class="cls-10" transform="translate(-266.297 -157.608)"/>
                    <path id="패스_28425" d="M312.581 162.224c-10.21-4.857-26.6-4.617-36.612.535s-9.849 13.27.36 18.127 26.6 4.618 36.613-.534 9.848-13.27-.361-18.128z" class="cls-11" transform="translate(-266.162 -157.542)"/>
                    <path id="패스_28426" d="M312.166 162.3c-10.053-4.783-26.191-4.548-36.046.526s-9.7 13.065.356 17.847 26.191 4.546 36.046-.526 9.695-13.06-.356-17.847z" class="cls-12" transform="translate(-266.027 -157.476)"/>
                    <path id="패스_28427" d="M311.75 162.381c-9.895-4.707-25.78-4.476-35.48.519s-9.543 12.858.35 17.566 25.78 4.474 35.481-.519 9.544-12.858-.351-17.566z" class="cls-13" transform="translate(-265.892 -157.41)"/>
                    <path id="패스_28428" d="M311.335 162.459c-9.736-4.632-25.368-4.4-34.913.512s-9.391 12.652.344 17.284 25.366 4.405 34.914-.508 9.391-12.655-.345-17.288z" class="cls-14" transform="translate(-265.757 -157.343)"/>
                    <path id="패스_28429" d="M310.92 162.537c-9.579-4.555-24.956-4.332-34.346.5s-9.24 12.448.338 17.005 24.955 4.333 34.348-.5 9.24-12.447-.34-17.005z" class="cls-15" transform="translate(-265.622 -157.277)"/>
                    <path id="패스_28430" d="M310.5 162.616c-9.42-4.482-24.544-4.261-33.778.494s-9.088 12.243.332 16.724 24.543 4.261 33.781-.494 9.09-12.24-.335-16.724z" class="cls-16" transform="translate(-265.488 -157.211)"/>
                    <path id="패스_28431" d="M310.088 162.694c-9.262-4.407-24.132-4.189-33.212.486s-8.934 12.037.327 16.444 24.132 4.189 33.215-.484 8.933-12.04-.33-16.446z" class="cls-17" transform="translate(-265.353 -157.145)"/>
                    <path id="패스_28432" d="M309.673 162.772c-9.1-4.33-23.72-4.117-32.646.478s-8.782 11.832.321 16.162 23.72 4.119 32.649-.475 8.78-11.837-.324-16.165z" class="cls-18" transform="translate(-265.218 -157.079)"/>
                    <path id="패스_28433" d="M309.258 162.85c-8.947-4.255-23.309-4.045-32.079.469s-8.63 11.628.316 15.883 23.307 4.047 32.08-.468 8.63-11.626-.317-15.884z" class="cls-19" transform="translate(-265.083 -157.013)"/>
                    <path id="패스_28434" d="M308.842 162.929c-8.788-4.182-22.9-3.975-31.512.461s-8.478 11.421.31 15.6 22.9 3.975 31.514-.46 8.478-11.419-.312-15.601z" class="cls-20" transform="translate(-264.948 -156.947)"/>
                    <path id="패스_28435" d="M308.427 163.007c-8.63-4.105-22.486-3.9-30.947.453s-8.324 11.215.306 15.322 22.484 3.9 30.947-.451 8.325-11.217-.306-15.324z" class="cls-21" transform="translate(-264.813 -156.88)"/>
                </g>
                <path id="패스_28436" fill="#ce7436" d="M303.3 157.5c-6.637-3.057-17.291-2.907-23.8.339-4.655 2.32-5.908 5.593-3.824 8.389a9.4 9.4 0 0 1 4.263-3.67c6.508-3.244 17.163-3.394 23.8-.336a10.357 10.357 0 0 1 4.058 3.024c1.456-2.712-.043-5.688-4.497-7.746z" transform="translate(-263.048 -151.334)"/>
                <path id="패스_28437" fill="#c4c6d0" d="M314.657 168.934l-.238-8.341-42.729-.126.24 8.847h.012c-.123 3.274 1.994 6.546 6.384 8.968 8.429 4.653 21.96 4.424 30.225-.513 4.073-2.433 6.1-5.554 6.1-8.652h.009v-.1c-.003-.026-.003-.054-.003-.083z" transform="translate(-264.576 -148.755)"/>
                <path id="패스_28438" fill="#efeff4" d="M308.016 156c-8.429-4.653-21.961-4.425-30.225.511s-8.131 12.712.3 17.365 21.96 4.423 30.223-.513 8.131-12.706-.298-17.363z" transform="translate(-264.582 -152.659)"/>
                <path id="패스_28439" fill="url(#linear-gradient)" d="M303.3 157.5c-6.635-3.057-17.287-2.905-23.8.339-5.428 2.7-6.26 6.708-2.528 9.747a13.316 13.316 0 0 0 2.76 1.671c6.643 3.057 17.3 2.905 23.808-.337a12.9 12.9 0 0 0 2.446-1.555c3.889-3.165 2.98-7.258-2.686-9.865z" transform="translate(-263.054 -151.335)"/>
                <g id="그룹_21377" transform="translate(11.582 2.816)">
                    <path id="패스_28440" fill="#a26a00" d="M300.408 155.817c-6.7-2.179-15.225-1.49-20.65 1.4-.045.023-.092.047-.136.072a13.459 13.459 0 0 0-2.431 1.668c-4.907 4.3-2.478 9.876 5.415 12.439 6.638 2.156 15.056 1.506 20.485-1.311l.157-.081a13.541 13.541 0 0 0 2.573-1.746c4.909-4.295 2.479-9.876-5.413-12.441z" transform="translate(-274.654 -154.536)"/>
                    <g id="그룹_21372" transform="translate(2.03 1.311)">
                        <g id="그룹_21371">
                            <path id="패스_28441" d="M283 169.54c-6.943-2.149-9.079-6.826-4.763-10.425s13.478-4.781 20.421-2.632 9.079 6.826 4.762 10.426-13.483 4.778-20.42 2.631zm15.611-13.018c-6.9-2.134-16.007-.961-20.3 2.617s-2.168 8.224 4.733 10.362 16.005.961 20.3-2.616 2.161-8.228-4.738-10.364z" class="cls-5" transform="translate(-276.001 -155.41)"/>
                        </g>
                    </g>
                    <g id="그룹_21374" transform="translate(6.719 3.715)">
                        <g id="그룹_21373">
                            <path id="패스_28442" d="M283.893 166.673c-4.747-1.468-6.208-4.666-3.256-7.126s9.213-3.27 13.96-1.8 6.208 4.665 3.256 7.126-9.213 3.27-13.96 1.8zm10.671-8.9c-4.717-1.461-10.942-.658-13.876 1.788s-1.482 5.625 3.236 7.086 10.942.657 13.877-1.79 1.482-5.624-3.237-7.084z" class="cls-5" transform="translate(-279.112 -157.013)"/>
                        </g>
                    </g>
                    <g id="그룹_21376" transform="translate(11.401 6.117)">
                        <g id="그룹_21375">
                            <path id="패스_28443" d="M284.791 163.81c-2.555-.789-3.34-2.51-1.753-3.834s4.958-1.758 7.511-.967 3.339 2.51 1.75 3.834-4.956 1.757-7.508.967zm5.74-4.788c-2.539-.784-5.888-.354-7.466.963s-.8 3.025 1.742 3.81 5.886.354 7.465-.962.798-3.025-1.741-3.811z" class="cls-5" transform="translate(-282.217 -158.614)"/>
                        </g>
                    </g>
                    <path id="패스_28444" d="M278.771 168.9a.112.112 0 0 1-.062-.017.077.077 0 0 1-.042-.067v-.03l.033-.028 21.7-12.837a.1.1 0 0 1 .048-.012.116.116 0 0 1 .062.018.077.077 0 0 1 .044.066v.032l-.035.029-21.7 12.835a.086.086 0 0 1-.048.011z" class="cls-5" transform="translate(-272.618 -153.852)"/>
                    <path id="패스_28445" d="M301.576 169.114c-.053.03-.106.056-.157.081L277.95 156.4a1.065 1.065 0 0 1 .137-.069l.025-.009z" class="cls-5" transform="translate(-272.982 -153.645)"/>
                </g>
                <g id="그룹_21378" transform="translate(19.762 7.336)" style="mix-blend-mode:multiply;isolation:isolate">
                    <path id="패스_28446" d="M295.105 158.741a15.874 15.874 0 0 0-12.5.183c-3.417 1.758-3.363 4.528.122 6.186a15.876 15.876 0 0 0 12.5-.183c3.416-1.758 3.362-4.527-.122-6.186z" class="cls-5" transform="translate(-280.081 -157.549)"/>
                    <path id="패스_28447" d="M294.975 158.766a15.656 15.656 0 0 0-12.32.18c-3.367 1.734-3.315 4.464.121 6.1a15.65 15.65 0 0 0 12.32-.18c3.368-1.734 3.315-4.466-.121-6.1z" class="cls-6" transform="translate(-280.039 -157.529)"/>
                    <path id="패스_28448" d="M294.846 158.79a15.425 15.425 0 0 0-12.144.178c-3.319 1.708-3.267 4.4.121 6.01a15.424 15.424 0 0 0 12.141-.177c3.32-1.708 3.268-4.401-.118-6.011z" class="cls-7" transform="translate(-279.997 -157.508)"/>
                    <path id="패스_28449" d="M294.716 158.814a15.2 15.2 0 0 0-11.965.175c-3.273 1.683-3.22 4.336.118 5.923a15.2 15.2 0 0 0 11.964-.176c3.267-1.681 3.219-4.336-.117-5.922z" class="cls-8" transform="translate(-279.955 -157.488)"/>
                    <path id="패스_28450" d="M294.585 158.839a14.98 14.98 0 0 0-11.788.172c-3.223 1.659-3.172 4.272.116 5.836a14.975 14.975 0 0 0 11.788-.173c3.223-1.658 3.172-4.274-.116-5.835z" class="cls-9" transform="translate(-279.912 -157.467)"/>
                    <path id="패스_28451" d="M294.456 158.863a14.749 14.749 0 0 0-11.612.171c-3.174 1.633-3.123 4.207.115 5.748a14.755 14.755 0 0 0 11.612-.17c3.174-1.633 3.123-4.212-.115-5.749z" class="cls-10" transform="translate(-279.87 -157.446)"/>
                    <path id="패스_28452" d="M294.326 158.887a14.53 14.53 0 0 0-11.435.168c-3.126 1.609-3.077 4.143.113 5.661a14.53 14.53 0 0 0 11.435-.168c3.125-1.608 3.075-4.143-.113-5.661z" class="cls-11" transform="translate(-279.828 -157.425)"/>
                    <path id="패스_28453" d="M294.2 158.913a14.3 14.3 0 0 0-11.257.163c-3.078 1.584-3.03 4.08.11 5.574a14.3 14.3 0 0 0 11.257-.165c3.075-1.585 3.027-4.08-.11-5.572z" class="cls-12" transform="translate(-279.786 -157.405)"/>
                    <path id="패스_28454" d="M294.067 158.937a14.077 14.077 0 0 0-11.081.162c-3.03 1.558-2.982 4.015.108 5.485a14.077 14.077 0 0 0 11.081-.162c3.031-1.559 2.982-4.016-.108-5.485z" class="cls-13" transform="translate(-279.744 -157.384)"/>
                    <path id="패스_28455" d="M293.938 158.962a13.851 13.851 0 0 0-10.9.159c-2.981 1.534-2.933 3.951.107 5.4a13.852 13.852 0 0 0 10.9-.16c2.98-1.535 2.933-3.953-.107-5.399z" class="cls-14" transform="translate(-279.702 -157.363)"/>
                    <path id="패스_28456" d="M293.808 158.986a13.633 13.633 0 0 0-10.728.156c-2.932 1.51-2.885 3.888.106 5.311a13.627 13.627 0 0 0 10.728-.157c2.932-1.509 2.886-3.888-.106-5.31z" class="cls-15" transform="translate(-279.66 -157.343)"/>
                    <path id="패스_28457" d="M293.678 159.01a13.4 13.4 0 0 0-10.55.154c-2.885 1.484-2.838 3.822.1 5.223a13.408 13.408 0 0 0 10.552-.154c2.885-1.485 2.839-3.823-.102-5.223z" class="cls-16" transform="translate(-279.617 -157.322)"/>
                    <path id="패스_28458" d="M293.549 159.035a13.179 13.179 0 0 0-10.374.151c-2.837 1.459-2.79 3.759.1 5.136a13.179 13.179 0 0 0 10.374-.153c2.837-1.459 2.793-3.759-.1-5.134z" class="cls-17" transform="translate(-279.576 -157.302)"/>
                    <path id="패스_28459" d="M293.419 159.059a12.961 12.961 0 0 0-10.2.149c-2.787 1.435-2.743 3.7.1 5.049a12.961 12.961 0 0 0 10.2-.15c2.787-1.434 2.743-3.696-.1-5.048z" class="cls-18" transform="translate(-279.533 -157.281)"/>
                    <path id="패스_28460" d="M293.288 159.084a12.722 12.722 0 0 0-10.018.147c-2.741 1.41-2.7 3.63.1 4.96a12.736 12.736 0 0 0 10.021-.147c2.734-1.41 2.692-3.631-.103-4.96z" class="cls-19" transform="translate(-279.491 -157.26)"/>
                    <path id="패스_28461" d="M293.159 159.108a12.5 12.5 0 0 0-9.842.144c-2.692 1.384-2.648 3.567.1 4.873a12.514 12.514 0 0 0 9.843-.144c2.686-1.381 2.64-3.568-.101-4.873z" class="cls-20" transform="translate(-279.449 -157.24)"/>
                    <path id="패스_28462" d="M293.029 159.132a12.278 12.278 0 0 0-9.666.141c-2.642 1.36-2.6 3.5.095 4.786a12.288 12.288 0 0 0 9.667-.142c2.642-1.36 2.6-3.502-.096-4.785z" class="cls-21" transform="translate(-279.407 -157.219)"/>
                </g>
            </g>
            <g id="그룹_21383" transform="translate(7.506)">
                <g id="그룹_21382">
                    <g id="그룹_21380" transform="translate(5.023)">
                        <path id="패스_28463" d="M303.077 124.106c-4.4-4.552-11.747-9.534-18.2-6.136l-9.593 5.568c1.856-.9 8.134-2.866 16.875 5a37.224 37.224 0 0 1 10.371 16.773c.936 3.082-.158 14.334-2.757 16.924a100.776 100.776 0 0 0-11.716 14.781l10.131-5.811s12.386-13.848 13.35-15.351c2.3-3.585 2.33-8.187 1.64-12.25a37.875 37.875 0 0 0-10.101-19.498z" class="cls-28" transform="translate(-275.282 -116.848)"/>
                    </g>
                    <g id="그룹_21381" transform="translate(0 5.615)">
                        <path id="패스_28464" fill="#fdd83a" d="M305.5 150.341a35.873 35.873 0 0 0-7.382-19.119c-3.705-4.912-9.408-10.006-15.858-10.588a8.756 8.756 0 0 0-7.33 2.623c-2.26 2.449-2.979 5.947-2.979 9.177 0 12.175 17.8 42.714 17.8 42.714S301.8 162 303.186 160.085c2.014-2.785 2.504-6.392 2.314-9.744zm-7.237-3.153c-.145 3.682-2.43 7.4-6.5 6.985-5.074-.516-10.633-6.6-12.418-13.6s.887-12.255 5.962-11.737c7.793.798 13.263 11.515 12.955 18.352z" transform="translate(-271.95 -120.592)"/>
                    </g>
                </g>
                <path id="패스_28465" d="M286.389 135.573a17.44 17.44 0 0 1-1.364-8.989s-.88-.281-.939-.294a7.519 7.519 0 0 0-1.086-.19c-5.075-.514-7.744 4.74-5.96 11.739s7.343 13.089 12.418 13.6a6.213 6.213 0 0 0 1.326 0 5.1 5.1 0 0 0 2-.637c2.029-1.157 2.923-3.513 3.129-5.748.007-.002-5.571-1.075-9.524-9.481z" class="cls-28" transform="translate(-269.647 -112.242)"/>
            </g>
        </g>
    </g>
</svg>
