<svg xmlns="http://www.w3.org/2000/svg" id="img_alarm_community" width="40" height="40" viewBox="0 0 40 40">
    <defs>
        <style>
            .cls-2{fill:#911fac}
        </style>
    </defs>
    <circle id="타원_245" cx="20" cy="20" r="20" fill="rgba(145,31,172,0.14)"/>
    <g id="그룹_39599" transform="translate(-39 -6)">
        <g id="그룹_42058" transform="translate(477.463 -703.513)">
            <path id="패스_31525" d="M-422.129 729.469a3.989 3.989 0 0 0 3.977-3.978 3.982 3.982 0 0 0-3.978-3.978 3.982 3.982 0 0 0-3.978 3.978 3.983 3.983 0 0 0 3.979 3.978zm-2.478-3.978a2.481 2.481 0 0 1 2.478-2.478 2.484 2.484 0 0 1 2.478 2.478 2.481 2.481 0 0 1-2.478 2.478 2.481 2.481 0 0 1-2.478-2.478z" class="cls-2"/>
            <path id="패스_31526" d="M-422.128 730.1h-.016a7.342 7.342 0 0 0-7.319 7.349.752.752 0 0 0 .75.75.757.757 0 0 0 .75-.778 5.84 5.84 0 0 1 5.834-5.82h.013a5.792 5.792 0 0 1 4.122 1.718 5.8 5.8 0 0 1 1.7 4.13.752.752 0 0 0 .75.75.758.758 0 0 0 .75-.781 7.285 7.285 0 0 0-2.159-5.181 7.282 7.282 0 0 0-5.175-2.137z" class="cls-2"/>
            <path id="패스_31527" d="M-413.446 730.221a3.329 3.329 0 0 0 3.32-3.322 3.324 3.324 0 0 0-3.321-3.32 3.324 3.324 0 0 0-3.321 3.32 3.325 3.325 0 0 0 3.322 3.322zm0-5.142a1.826 1.826 0 0 1 1.821 1.82 1.823 1.823 0 0 1-1.821 1.822 1.823 1.823 0 0 1-1.821-1.822 1.823 1.823 0 0 1 1.821-1.82z" class="cls-2"/>
            <path id="패스_31528" d="M-413.452 730.583a6 6 0 0 0-2.659.626.746.746 0 0 0-.376.434.744.744 0 0 0 .041.572.743.743 0 0 0 .433.377.751.751 0 0 0 .573-.041 4.5 4.5 0 0 1 1.992-.473 4.525 4.525 0 0 1 4.5 4.526.751.751 0 0 0 .75.75.753.753 0 0 0 .748-.741 6.032 6.032 0 0 0-6.002-6.03z" class="cls-2"/>
        </g>
    </g>
</svg>
