<svg xmlns="http://www.w3.org/2000/svg" id="img_smart_map" width="48" height="48" viewBox="0 0 48 48">
    <defs>
        <style>
            .cls-2{fill:#626572}
        </style>
    </defs>
    <g id="ico_list_map" transform="translate(9 9)">
        <g id="그룹_39131" transform="translate(5.147 1.466)">
            <path id="패스_28519" d="M1249.926 399.014a3.916 3.916 0 1 0 3.915 3.915 3.92 3.92 0 0 0-3.915-3.915zm0 6.581a2.666 2.666 0 1 1 2.665-2.666 2.669 2.669 0 0 1-2.665 2.671z" class="cls-2" transform="translate(-1239.895 -394.213)"/>
            <path id="패스_28520" d="M1254.707 414.119c2.354-3.2 5.089-7.327 5.156-10.126a.555.555 0 0 0 .009-.1 8.717 8.717 0 0 0-17.434 0c0 3.451 4.2 9 6.716 12.315l.739.98a1.573 1.573 0 0 0 .328.329 1.551 1.551 0 0 0 .926.306 1.489 1.489 0 0 0 .235-.018 1.544 1.544 0 0 0 1.021-.615l.765-1.014.688-.912c3.925.422 5.717 1.664 5.717 2.645 0 1.344-3.289 2.794-8.6 2.794s-8.6-1.45-8.6-2.794c0-.744.964-1.5 2.578-2.021a.625.625 0 0 0-.384-1.189c-2.22.718-3.444 1.858-3.444 3.21 0 2.381 4.051 4.044 9.852 4.044s9.852-1.662 9.852-4.044c-.004-1.866-2.285-3.25-6.12-3.79zm-2.536 1.3c-.289.383-.549.726-.771 1.025a.308.308 0 0 1-.2.122.377.377 0 0 1-.3-.124l-.748-.992c-2.259-2.98-6.463-8.529-6.463-11.56a7.467 7.467 0 0 1 14.934-.091.561.561 0 0 0-.007.091c-.002 3.02-4.193 8.554-6.446 11.528z" class="cls-2" transform="translate(-1241.118 -395.173)"/>
        </g>
    </g>
    <path id="패스_37387" d="M177.03 255.635a24 24 0 1 1 24-24 24.028 24.028 0 0 1-24 24zm0-47a23 23 0 1 0 23 23 23.026 23.026 0 0 0-23-23z" opacity="0.1" transform="translate(-153.03 -207.635)"/>
</svg>
