<svg xmlns="http://www.w3.org/2000/svg" width="82" height="180" viewBox="0 0 82 180">
    <defs>
        <linearGradient id="linear-gradient" x1=".5" x2=".5" y1="-.029" y2=".769" gradientUnits="objectBoundingBox">
            <stop offset="0" stop-color="#42b1ff"/>
            <stop offset="1" stop-color="#4a83e7"/>
        </linearGradient>
        <linearGradient id="linear-gradient-2" x1=".372" x2=".679" y1=".318" y2=".704" gradientUnits="objectBoundingBox">
            <stop offset="0" stop-color="#ba7f37"/>
            <stop offset="1" stop-color="#98541e"/>
        </linearGradient>
        <style>
            .cls-15{fill:#fff}.cls-2{fill:#4d526e;opacity:.292}.cls-12{fill:#fcc2ba}.cls-9{fill:#1a1a1a}.cls-11{fill:#ffd41d}.cls-12{stroke:transparent;stroke-miterlimit:10}.cls-14{mix-blend-mode:multiply;isolation:isolate}.cls-16{fill:#fbfbfc}.cls-17{fill:#f7f7f8}.cls-18{fill:#f3f4f5}.cls-19{fill:#f0f0f1}.cls-20{fill:#ececee}.cls-21{fill:#e8e8ea}.cls-22{fill:#e4e4e7}.cls-23{fill:#e0e1e3}.cls-24{fill:#dcdde0}.cls-25{fill:#d8d9dc}.cls-26{fill:#d4d5d9}.cls-27{fill:#d1d1d5}.cls-28{fill:#cdcdd2}.cls-29{fill:#c9cace}.cls-30{fill:#c5c6cb}.cls-31{fill:#c1c2c7}.cls-37{fill:#d19420}.cls-38{fill:#4f3037}.cls-39{fill:#381a22}.cls-40{fill:#601612}.cls-41{fill:#2b151a}.cls-42{fill:#bf9692}.cls-43{fill:#93666d}.cls-44{fill:#d7b2a7}.cls-46{fill:#6b464c}.cls-49{fill:#ffc134}.cls-50{fill:#ff5d02}.cls-51{fill:#ff7308}.cls-52{fill:#df9b39}.cls-53{fill:#fff3e0}.cls-54{fill:#ffffef}.cls-55{fill:#ce4504}.cls-57{fill:#392126}.cls-62{fill:#3b5974}
        </style>
    </defs>
    <g id="img_search_find_car" transform="translate(-255 -375.862)">
        <path id="패스_30421" d="M-286.19-3703.06l29.19-23.186 17.007 14.285-30.619 18.36z" class="cls-2" transform="translate(545.906 4245.464)"/>
        <path id="패스_30422" d="M-213.144-3685.357l16.983-8.62 9.343 6.047-17.841 8.51z" class="cls-2" transform="translate(519.819 4227.854)"/>
        <g id="그룹_40432" transform="translate(259 375.862)">
            <path id="패스_30365" fill="#6c1111" d="M565.266 134.947a4.34 4.34 0 0 1-3.978-2.6l-17.6-40.335 7.525-4.636 18.029 41.5a4.341 4.341 0 0 1-3.974 6.075z" transform="translate(-510.222 -33.623)"/>
            <g id="그룹_40426">
                <path id="패스_30366" fill="#ffa53c" d="M559.211 74.244c0-14.614-8.409-31.022-20.137-37.794-5.323-3.073-9.987-3.482-13.532-1.71l-8.395 4.752 7.031.134 6.592 2.308 7.473 6.4 5.953 8.707 4.732 10.251 1.3 13.04-1.787 7.814-4.372 7.049 8.25-4.685c4.303-2.381 6.892-8.157 6.892-16.266z" transform="translate(-510.38 -33.69)"/>
                <path id="패스_30367" fill="#a25100" d="M520.386 50.4a23.241 23.241 0 0 1 2.5-11.357c-9.113 2.365-10.25 7.966-10.25 16.1 0 14.142 8.576 30.173 19.526 36.494a14.858 14.858 0 0 0 7.283 2.292c1.613 0 5.413 0 7.1-2.857a19.892 19.892 0 0 1-5.515-2.246c-11.979-6.914-20.644-23.812-20.644-38.426z" transform="translate(-510.4 -33.667)"/>
                <path id="패스_30368" fill="#ffdea8" d="M531.051 41.009c-11.977-6.915-20.642-.365-20.642 14.249s8.665 31.512 20.642 38.428c11.729 6.771 20.138-.268 20.138-14.883s-8.41-31.023-20.138-37.794zm12.7 51.631a7.573 7.573 0 0 1-4.3 1.292 14.858 14.858 0 0 1-7.283-2.292c-10.949-6.321-19.526-22.352-19.526-36.494 0-8.135 2.744-13.385 7.444-14.537a8.561 8.561 0 0 1 2.048-.243 15.942 15.942 0 0 1 7.8 2.463c10.844 6.261 19.022 21.678 19.022 35.861 0 6.816-1.922 11.746-5.209 13.949z" transform="translate(-510.409 -33.671)"/>
            </g>
            <g id="그룹_40431" transform="translate(36.02 66.412)">
                <path id="패스_30369" fill="#d09e17" d="M578.055 115.757l-3 9.776a5.429 5.429 0 0 0-2.546-2.242c-1.689-.721-4.942-1.766-6.856-2.431l-4.346-10.268 3.459 2.842a10.212 10.212 0 0 0 4.216 2.074 38.611 38.611 0 0 0 4.632.811 10.765 10.765 0 0 0 4.441-.562z" transform="translate(-546.147 -100.143)"/>
                <g id="그룹_40430">
                    <path id="패스_30370" fill="#fcc2ba" d="M546.212 103.345c-.01-1.238.167-2.758 1.013-3.118 1.109-.465 2.778 3.265 2.778 3.265a12.2 12.2 0 0 1-.246-1.333c-.008-.416.228-.9.539-.9.391 0 .548.336.558.873l.734 2.433a3.225 3.225 0 0 1-.037 1.025l-.122.663a4.062 4.062 0 0 0 .195 2.2l.9 2.363-3.075 1.335-.953-3.924a21.928 21.928 0 0 0-1.3-1.914 5.128 5.128 0 0 1-.984-2.968z" transform="translate(-546.212 -100.187)"/>
                    <g id="그룹_40429" transform="translate(1.94 .385)">
                        <path id="패스_30371" d="M573.717 193.191a3.207 3.207 0 0 0 1.51 2.341c.215.158.5.355.811.549a21.124 21.124 0 0 1 2.755 2.237 2.285 2.285 0 0 0 1.491.69c.924.046 1.737-.249 1.623-1.641-.009-.093-.018-.261-.037-.43l-.028-.224c-.018-.1-.076-2.68-.085-2.737-.111.466-.759-1.354-1.161-1.373-.606-.028-.521 1.418-.931 1.035-.737-.7-1.524-.38-3.547-1.412l-.388-.063c-1.569-.184-1.809.335-1.967.811a2.058 2.058 0 0 0-.046.217z" class="cls-9" transform="translate(-548.034 -100.181)"/>
                        <path id="패스_30372" d="M561.943 199.529s1.421-.138 1.9-.155c1.12-.042 3.565-.742 4.329-.214.871.6 2.8 1.1 2.827-.518l1.1.357c.021.344.118 2.353.126 2.48a2.872 2.872 0 0 1-.4 1.707c-.733 1.154-3.007.482-4.307.219l-3.885-.52a3.375 3.375 0 0 1-2.593-2.139 1.109 1.109 0 0 1 .903-1.217z" class="cls-9" transform="translate(-548.088 -100.153)"/>
                        <path id="패스_30373" fill="#192850" d="M582.524 144l.458 1.684a7.7 7.7 0 0 1 .233 1.271 35.628 35.628 0 0 1 .069 6.07l-.326 4.42-1.005 36.342c.1 1.461-4.777 1.608-4.76-.145l-.9-38.051-1.542.657-2.539 42.8c0 1.5-4.871 1.643-4.918-.166 0 0-1.439-43.235-1.608-50.02-.122-4.779 8.565-3.5 8.565-3.7l-4.505-3.519z" transform="translate(-548.068 -100.396)"/>
                        <path id="패스_30374" d="M582.72 135.087l1.366-14.174a5.136 5.136 0 0 0-5.166-5.471 5.852 5.852 0 0 0-.739 0 6.345 6.345 0 0 0-1.854.408c-.229.081-1.943-.933-2.173-.824l-2.995 1.591-.082.044A14.7 14.7 0 0 1 568.62 118a23.082 23.082 0 0 1-5.3.365c-2.188.051-5.086.047-6.32.042a.919.919 0 0 1-.839-.551l-4.061-9.366c-.586-.845-4.233.525-3.938 1.645 0 0 3.409 13.31 5.111 14.155 2 .989 7.807.626 9.847 1.682 1.412.731 1.02 1.31 1.384 2.858l.082.351a25.942 25.942 0 0 1 .656 7.171c-.2 4.147-.454 10.463-.2 11 1.319 2.755 17.89 1.988 18.108-2.126l-.472-8.117a13.355 13.355 0 0 1 .042-2.022z" class="cls-11" transform="translate(-548.143 -100.538)"/>
                        <path id="합치기_13" d="M4.366 16.418a.9.9 0 0 1-.453-.734s.024-.9.064-2.078c-1.7.09-3.189-.9-3.756-3.7C-.054 8.543-1.081-.45 5.679.018c2.966.205 5.221 2.542 4.974 6.12A8.961 8.961 0 0 1 8.9 10.6l-.186 5.254c-.013.366-.362.705-.988.908a4.213 4.213 0 0 1-1.3.192 3.777 3.777 0 0 1-2.06-.536z" class="cls-12" transform="translate(19.033 1.146)"/>
                        <path id="합치기_12" fill="#242839" stroke="rgba(0,0,0,0)" stroke-miterlimit="10" d="M7.138 13.444l.014-.378v-.131.131l-.014.378a5.515 5.515 0 0 1-2.72-1.684C2.606 9.847 1.77 8.224 1.631 6.26 1.3 5.89.813 5.91.613 5.732-.265 4.952-.4 2.127 1.562 1a7.6 7.6 0 0 1 5.2-.868c8.247.747 5.138 8.692 4.786 9.968a4.234 4.234 0 0 1-3.787 3.407 2.851 2.851 0 0 1-.623-.063z" transform="translate(18.665)"/>
                        <path id="패스_30380" d="M569.243 110.76c-.651.805-.754 1.8-.231 2.224s1.475.111 2.126-.694.754-1.8.231-2.224-1.475-.113-2.126.694z" class="cls-12" transform="translate(-548.056 -100.531)"/>
                    </g>
                </g>
            </g>
        </g>
        <g id="그룹_40443" transform="translate(259.716 497.272)">
            <g id="그룹_21384" transform="translate(30.127)">
                <g id="그룹_21379" transform="translate(0 14.855)">
                    <g id="그룹_21370" class="cls-14" transform="translate(0 2.19)">
                        <path id="패스_28419" d="M280.208 158.994a13.924 13.924 0 0 0-11.011.162c-3.01 1.557-2.962 4.01.108 5.479a13.926 13.926 0 0 0 11.012-.162c3.01-1.558 2.961-4.011-.109-5.479z" class="cls-15" transform="translate(-266.971 -157.939)"/>
                        <path id="패스_28420" d="M280.286 159.111a13.726 13.726 0 0 0-10.855.16c-2.968 1.535-2.92 3.953.107 5.4a13.728 13.728 0 0 0 10.856-.159c2.967-1.535 2.919-3.953-.108-5.401z" class="cls-16" transform="translate(-267.126 -158.016)"/>
                        <path id="패스_28421" d="M280.365 159.229a13.531 13.531 0 0 0-10.7.158c-2.925 1.513-2.878 3.9.105 5.323a13.532 13.532 0 0 0 10.7-.157c2.93-1.514 2.878-3.897-.105-5.324z" class="cls-17" transform="translate(-267.282 -158.094)"/>
                        <path id="패스_28422" d="M280.443 159.346a13.333 13.333 0 0 0-10.543.155c-2.883 1.491-2.836 3.84.1 5.246a13.334 13.334 0 0 0 10.544-.155c2.885-1.492 2.839-3.84-.101-5.246z" class="cls-18" transform="translate(-267.437 -158.171)"/>
                        <path id="패스_28423" d="M280.521 159.463a13.135 13.135 0 0 0-10.387.153c-2.84 1.469-2.794 3.783.1 5.168a13.138 13.138 0 0 0 10.388-.153c2.842-1.468 2.796-3.782-.101-5.168z" class="cls-19" transform="translate(-267.593 -158.248)"/>
                        <path id="패스_28424" d="M280.6 159.581a12.939 12.939 0 0 0-10.231.151c-2.8 1.447-2.752 3.726.1 5.09a12.939 12.939 0 0 0 10.232-.15c2.799-1.447 2.752-3.727-.101-5.091z" class="cls-20" transform="translate(-267.748 -158.326)"/>
                        <path id="패스_28425" d="M280.678 159.7a12.743 12.743 0 0 0-10.075.148c-2.755 1.425-2.71 3.67.1 5.013a12.743 12.743 0 0 0 10.076-.148c2.753-1.427 2.709-3.671-.101-5.013z" class="cls-21" transform="translate(-267.904 -158.403)"/>
                        <path id="패스_28426" d="M280.756 159.815a12.543 12.543 0 0 0-9.92.146c-2.712 1.4-2.668 3.613.1 4.936a12.546 12.546 0 0 0 9.92-.146c2.71-1.403 2.666-3.613-.1-4.936z" class="cls-22" transform="translate(-268.059 -158.48)"/>
                        <path id="패스_28427" d="M280.835 159.933a12.347 12.347 0 0 0-9.764.144c-2.669 1.381-2.626 3.556.1 4.858a12.35 12.35 0 0 0 9.764-.144c2.665-1.381 2.623-3.556-.1-4.858z" class="cls-23" transform="translate(-268.215 -158.558)"/>
                        <path id="패스_28428" d="M280.913 160.05a12.149 12.149 0 0 0-9.608.141c-2.627 1.359-2.584 3.5.095 4.78a12.152 12.152 0 0 0 9.608-.141c2.627-1.359 2.584-3.499-.095-4.78z" class="cls-24" transform="translate(-268.37 -158.635)"/>
                        <path id="패스_28429" d="M280.991 160.167a11.955 11.955 0 0 0-9.452.139c-2.584 1.337-2.543 3.443.093 4.7a11.954 11.954 0 0 0 9.452-.139c2.585-1.333 2.543-3.439-.093-4.7z" class="cls-25" transform="translate(-268.526 -158.713)"/>
                        <path id="패스_28430" d="M281.069 160.285a11.754 11.754 0 0 0-9.3.136c-2.542 1.315-2.5 3.386.091 4.625a11.756 11.756 0 0 0 9.3-.136c2.54-1.31 2.502-3.386-.091-4.625z" class="cls-26" transform="translate(-268.681 -158.79)"/>
                        <path id="패스_28431" d="M281.148 160.4a11.557 11.557 0 0 0-9.14.134c-2.5 1.293-2.459 3.329.09 4.548a11.563 11.563 0 0 0 9.141-.134c2.498-1.291 2.461-3.327-.091-4.548z" class="cls-27" transform="translate(-268.837 -158.867)"/>
                        <path id="패스_28432" d="M281.226 160.519a11.361 11.361 0 0 0-8.984.132c-2.457 1.271-2.417 3.272.088 4.47a11.363 11.363 0 0 0 8.985-.132c2.456-1.27 2.416-3.272-.089-4.47z" class="cls-28" transform="translate(-268.992 -158.945)"/>
                        <path id="패스_28433" d="M281.3 160.637a11.165 11.165 0 0 0-8.828.13c-2.414 1.249-2.375 3.216.087 4.393a11.165 11.165 0 0 0 8.828-.129c2.418-1.251 2.38-3.217-.087-4.394z" class="cls-29" transform="translate(-269.148 -159.022)"/>
                        <path id="패스_28434" d="M281.383 160.754a10.966 10.966 0 0 0-8.672.127c-2.372 1.227-2.333 3.158.085 4.315a10.968 10.968 0 0 0 8.672-.127c2.371-1.226 2.332-3.158-.085-4.315z" class="cls-30" transform="translate(-269.303 -159.1)"/>
                        <path id="패스_28435" d="M281.461 160.871a10.769 10.769 0 0 0-8.516.125c-2.328 1.2-2.291 3.1.084 4.237a10.773 10.773 0 0 0 8.516-.125c2.329-1.208 2.292-3.101-.084-4.237z" class="cls-31" transform="translate(-269.459 -159.177)"/>
                    </g>
                    <path id="패스_28436" fill="#ce7436" d="M282.572 155.915a8.53 8.53 0 0 0-6.55.094c-1.281.642-1.626 1.547-1.052 2.32a2.59 2.59 0 0 1 1.173-1.015 8.531 8.531 0 0 1 6.55-.093 2.851 2.851 0 0 1 1.117.836c.4-.751-.01-1.575-1.238-2.142z" transform="translate(-271.495 -154.208)"/>
                    <path id="패스_28437" fill="#c4c6d0" d="M283.514 162.809l-.066-2.307-11.759-.035.066 2.447a2.856 2.856 0 0 0 1.757 2.48 9.194 9.194 0 0 0 8.318-.142 2.939 2.939 0 0 0 1.679-2.393v-.027c.005-.008.005-.015.005-.023z" transform="translate(-269.732 -157.228)"/>
                    <path id="패스_28438" fill="#efeff4" d="M281.679 153.584a9.194 9.194 0 0 0-8.318.141c-2.274 1.365-2.238 3.516.082 4.8a9.192 9.192 0 0 0 8.317-.142c2.275-1.362 2.24-3.512-.081-4.799z" transform="translate(-269.726 -152.659)"/>
                    <path id="패스_28439" fill="url(#linear-gradient)" d="M282.565 155.914a8.53 8.53 0 0 0-6.549.094c-1.494.747-1.723 1.855-.7 2.7a3.661 3.661 0 0 0 .76.462 8.539 8.539 0 0 0 6.552-.093 3.549 3.549 0 0 0 .673-.43c1.072-.88.822-2.013-.736-2.733z" transform="translate(-271.488 -154.208)"/>
                    <g id="그룹_21377" transform="translate(3.187 .779)">
                        <path id="패스_28440" fill="#a16912" d="M281.741 154.89a7.86 7.86 0 0 0-5.683.387l-.037.02a3.7 3.7 0 0 0-.669.461c-1.35 1.188-.682 2.731 1.49 3.44a7.887 7.887 0 0 0 5.637-.363l.043-.022a3.719 3.719 0 0 0 .708-.483c1.352-1.187.684-2.73-1.489-3.44z" transform="translate(-274.654 -154.536)"/>
                        <g id="그룹_21372" transform="translate(.559 .363)">
                            <g id="그룹_21371">
                                <path id="패스_28441" d="M277.926 159.318c-1.911-.594-2.5-1.888-1.311-2.883a6.7 6.7 0 0 1 5.62-.728c1.911.594 2.5 1.888 1.31 2.883a6.7 6.7 0 0 1-5.619.728zm4.3-3.6a6.657 6.657 0 0 0-5.586.724c-1.181.989-.6 2.274 1.3 2.866a6.659 6.659 0 0 0 5.586-.723c1.174-.991.594-2.277-1.304-2.868z" class="cls-15" transform="translate(-276.001 -155.41)"/>
                            </g>
                        </g>
                        <g id="그룹_21374" transform="translate(1.849 1.027)">
                            <g id="그룹_21373">
                                <path id="패스_28442" d="M280.428 159.684c-1.306-.406-1.708-1.291-.9-1.971a4.577 4.577 0 0 1 3.842-.5c1.306.406 1.708 1.29.9 1.971a4.576 4.576 0 0 1-3.842.5zm2.937-2.461a4.55 4.55 0 0 0-3.818.494c-.808.677-.408 1.556.891 1.96a4.552 4.552 0 0 0 3.819-.495c.805-.676.406-1.555-.893-1.959z" class="cls-15" transform="translate(-279.112 -157.013)"/>
                            </g>
                        </g>
                        <g id="그룹_21376" transform="translate(3.137 1.692)">
                            <g id="그룹_21375">
                                <path id="패스_28443" d="M282.926 160.051c-.7-.218-.919-.694-.482-1.06a2.465 2.465 0 0 1 2.067-.268c.7.219.919.694.482 1.06a2.463 2.463 0 0 1-2.067.268zm1.58-1.324a2.449 2.449 0 0 0-2.055.266c-.434.364-.219.837.48 1.054a2.448 2.448 0 0 0 2.054-.266c.434-.364.215-.837-.48-1.054z" class="cls-15" transform="translate(-282.218 -158.614)"/>
                            </g>
                        </g>
                        <path id="패스_28444" d="M278.7 159.5a.031.031 0 0 1-.017 0 .021.021 0 0 1-.012-.019v-.008l.009-.008 5.971-3.55a.027.027 0 0 1 .013 0 .031.031 0 0 1 .017 0 .021.021 0 0 1 .012.018v.009l-.01.008-5.971 3.55a.024.024 0 0 1-.012 0z" class="cls-15" transform="translate(-277.002 -155.337)"/>
                        <path id="패스_28445" d="M284.451 159.857l-.043.022-6.458-3.539a.3.3 0 0 1 .038-.019h.007z" class="cls-15" transform="translate(-276.582 -155.579)"/>
                    </g>
                    <g id="그룹_21378" class="cls-14" transform="translate(5.438 2.029)">
                        <path id="패스_28446" d="M284.216 157.879a4.349 4.349 0 0 0-3.439.051c-.94.486-.925 1.252.034 1.711a4.349 4.349 0 0 0 3.439-.051c.939-.49.924-1.253-.034-1.711z" class="cls-15" transform="translate(-280.081 -157.549)"/>
                        <path id="패스_28447" d="M284.24 157.916a4.289 4.289 0 0 0-3.39.05c-.927.48-.912 1.235.033 1.687a4.287 4.287 0 0 0 3.39-.05c.927-.48.913-1.235-.033-1.687z" class="cls-16" transform="translate(-280.13 -157.574)"/>
                        <path id="패스_28448" d="M284.265 157.952a4.226 4.226 0 0 0-3.342.049c-.913.472-.9 1.217.033 1.662a4.225 4.225 0 0 0 3.341-.049c.914-.472.903-1.214-.032-1.662z" class="cls-17" transform="translate(-280.178 -157.598)"/>
                        <path id="패스_28449" d="M284.289 157.989a4.165 4.165 0 0 0-3.293.049c-.9.465-.886 1.2.032 1.638a4.164 4.164 0 0 0 3.292-.049c.901-.465.887-1.199-.031-1.638z" class="cls-18" transform="translate(-280.227 -157.622)"/>
                        <path id="패스_28450" d="M284.314 158.026a4.1 4.1 0 0 0-3.244.048c-.887.459-.873 1.181.032 1.614a4.1 4.1 0 0 0 3.244-.048c.886-.459.872-1.182-.032-1.614z" class="cls-19" transform="translate(-280.276 -157.646)"/>
                        <path id="패스_28451" d="M284.338 158.062a4.04 4.04 0 0 0-3.2.047c-.874.452-.859 1.164.032 1.59a4.042 4.042 0 0 0 3.2-.047c.873-.452.859-1.164-.032-1.59z" class="cls-20" transform="translate(-280.324 -157.67)"/>
                        <path id="패스_28452" d="M284.362 158.1a3.98 3.98 0 0 0-3.147.046c-.86.445-.847 1.146.031 1.566a3.981 3.981 0 0 0 3.147-.046c.86-.446.846-1.147-.031-1.566z" class="cls-21" transform="translate(-280.372 -157.694)"/>
                        <path id="패스_28453" d="M284.387 158.136a3.918 3.918 0 0 0-3.1.045c-.847.438-.834 1.128.03 1.541a3.916 3.916 0 0 0 3.1-.046c.847-.437.834-1.127-.03-1.54z" class="cls-22" transform="translate(-280.421 -157.719)"/>
                        <path id="패스_28454" d="M284.411 158.173a3.856 3.856 0 0 0-3.049.045c-.834.431-.82 1.11.03 1.517a3.856 3.856 0 0 0 3.049-.045c.834-.432.821-1.111-.03-1.517z" class="cls-23" transform="translate(-280.47 -157.743)"/>
                        <path id="패스_28455" d="M284.436 158.209a3.8 3.8 0 0 0-3 .044c-.82.424-.807 1.093.029 1.493a3.8 3.8 0 0 0 3-.044c.82-.424.807-1.093-.029-1.493z" class="cls-24" transform="translate(-280.518 -157.767)"/>
                        <path id="패스_28456" d="M284.46 158.246a3.735 3.735 0 0 0-2.952.043c-.807.418-.794 1.075.029 1.469a3.733 3.733 0 0 0 2.952-.044c.811-.414.794-1.075-.029-1.468z" class="cls-25" transform="translate(-280.567 -157.791)"/>
                        <path id="패스_28457" d="M284.485 158.283a3.672 3.672 0 0 0-2.9.043c-.794.41-.781 1.057.028 1.444a3.673 3.673 0 0 0 2.9-.043c.794-.411.781-1.057-.028-1.444z" class="cls-26" transform="translate(-280.615 -157.816)"/>
                        <path id="패스_28458" d="M284.509 158.319a3.61 3.61 0 0 0-2.855.042c-.781.4-.768 1.04.028 1.42a3.61 3.61 0 0 0 2.855-.042c.78-.404.768-1.039-.028-1.42z" class="cls-27" transform="translate(-280.664 -157.84)"/>
                        <path id="패스_28459" d="M284.534 158.356a3.55 3.55 0 0 0-2.806.041c-.767.4-.755 1.022.027 1.4a3.551 3.551 0 0 0 2.806-.042c.767-.4.755-1.026-.027-1.399z" class="cls-28" transform="translate(-280.712 -157.864)"/>
                        <path id="패스_28460" d="M284.558 158.392a3.485 3.485 0 0 0-2.757.041c-.754.39-.742 1 .027 1.372a3.489 3.489 0 0 0 2.758-.041c.753-.39.741-1.004-.028-1.372z" class="cls-29" transform="translate(-280.761 -157.888)"/>
                        <path id="패스_28461" d="M284.582 158.429a3.425 3.425 0 0 0-2.708.04c-.741.383-.729.986.027 1.348a3.428 3.428 0 0 0 2.709-.04c.739-.384.728-.987-.028-1.348z" class="cls-30" transform="translate(-280.81 -157.912)"/>
                        <path id="패스_28462" d="M284.607 158.465a3.364 3.364 0 0 0-2.66.039c-.727.376-.716.969.026 1.324a3.366 3.366 0 0 0 2.66-.039c.727-.377.716-.969-.026-1.324z" class="cls-31" transform="translate(-280.858 -157.936)"/>
                    </g>
                </g>
                <g id="그룹_21383" transform="translate(2.065)">
                    <g id="그룹_21382">
                        <g id="그룹_21380" transform="translate(1.382)">
                            <path id="패스_28463" d="M282.931 118.855c-1.21-1.259-3.233-2.637-5.009-1.7l-2.64 1.54c.511-.248 2.238-.793 4.644 1.384a10.3 10.3 0 0 1 2.854 4.639c.258.852-.044 3.964-.759 4.68a27.85 27.85 0 0 0-3.224 4.088l2.788-1.607s3.409-3.83 3.674-4.245a4.831 4.831 0 0 0 .451-3.388 10.493 10.493 0 0 0-2.779-5.391z" class="cls-37" transform="translate(-275.282 -116.848)"/>
                        </g>
                        <g id="그룹_21381" transform="translate(0 1.553)">
                            <path id="패스_28464" d="M281.182 128.819a9.949 9.949 0 0 0-2.031-5.287c-1.02-1.359-2.589-2.767-4.364-2.928a2.4 2.4 0 0 0-2.017.726 3.726 3.726 0 0 0-.82 2.538c0 3.367 4.9 11.813 4.9 11.813s3.317-3.636 3.7-4.166a4.194 4.194 0 0 0 .632-2.696zm-1.992-.872c-.04 1.018-.669 2.046-1.789 1.932-1.4-.143-2.926-1.826-3.417-3.762s.244-3.389 1.641-3.246c2.146.221 3.651 3.185 3.566 5.076z" class="cls-11" transform="translate(-271.95 -120.592)"/>
                        </g>
                    </g>
                    <path id="패스_28465" d="M279.212 128.692a4.846 4.846 0 0 1-.375-2.486s-.242-.078-.258-.081a2.059 2.059 0 0 0-.3-.054c-1.4-.142-2.131 1.311-1.64 3.246s2.021 3.62 3.417 3.762a1.7 1.7 0 0 0 .365 0 1.4 1.4 0 0 0 .552-.176 1.978 1.978 0 0 0 .861-1.59s-1.534-.296-2.622-2.621z" class="cls-37" transform="translate(-274.605 -122.24)"/>
                </g>
            </g>
            <g id="YELLOW_HATCHBACK" transform="translate(0 13.432)">
                <path id="패스_1" d="M24 135.372l-1.266-1.266v-1.219l1.469 1.156.2.838z" class="cls-38" transform="translate(-15.343 -116.332)"/>
                <path id="패스_2" d="M29.491 139.5v-1.14l.431.09v1.029z" class="cls-39" transform="translate(-20.861 -120.805)"/>
                <path id="패스_4" d="M207.3 156.965l.457-2.674-2.4.336 1.53 2.1z" class="cls-40" transform="translate(-164.58 -133.824)"/>
                <g id="그룹_1" transform="translate(36.798 20.474)">
                    <path id="패스_5" d="M187.308 154.473a1.526 1.526 0 0 0-1.543.15 4.808 4.808 0 0 0-2.175 3.768 1.527 1.527 0 0 0 .639 1.409l1.16.67a1.523 1.523 0 0 0 1.545-.148 4.808 4.808 0 0 0 2.175-3.768 1.526 1.526 0 0 0-.642-1.411z" class="cls-41" transform="translate(-183.59 -154.326)"/>
                    <path id="패스_6" d="M194.335 159.57a4.809 4.809 0 0 1-2.175 3.768c-1.2.694-2.175.132-2.175-1.256a4.809 4.809 0 0 1 2.175-3.768c1.2-.694 2.175-.132 2.175 1.256z" class="cls-39" transform="translate(-188.815 -157.342)"/>
                    <path id="패스_7" d="M196.483 165.013a2.67 2.67 0 0 0-1.209 2.093c0 .771.541 1.083 1.209.7a2.672 2.672 0 0 0 1.209-2.094c-.001-.772-.543-1.084-1.209-.699z" class="cls-42" transform="translate(-193.138 -162.925)"/>
                    <path id="패스_8" d="M196.449 168.031a2.52 2.52 0 0 0 1.14-1.974.871.871 0 0 0-.245-.673.871.871 0 0 0-.706.124 2.519 2.519 0 0 0-1.14 1.974.558.558 0 0 0 .951.548z" class="cls-43" transform="translate(-193.294 -163.34)"/>
                    <path id="패스_9" d="M198.509 168.517a.453.453 0 0 0-.393.06 1.347 1.347 0 0 0-.609 1.055.428.428 0 0 0 .177.393c.032.018.173.1.214.122a.442.442 0 0 0 .407-.055 1.347 1.347 0 0 0 .609-1.055.427.427 0 0 0-.179-.394c-.035-.017-.179-.107-.226-.126z" class="cls-42" transform="translate(-194.961 -165.906)"/>
                    <path id="패스_10" d="M199.768 169.516a1.347 1.347 0 0 1-.609 1.055c-.337.194-.609.037-.609-.352a1.346 1.346 0 0 1 .609-1.055c.336-.194.609-.036.609.352z" class="cls-44" transform="translate(-195.815 -166.384)"/>
                    <path id="패스_11" d="M197.248 164.914a2.949 2.949 0 0 1-1.334 2.311c-.737.425-1.334.08-1.334-.77a2.949 2.949 0 0 1 1.334-2.311c.737-.426 1.334-.081 1.334.77zm-1.334-.546a2.519 2.519 0 0 0-1.14 1.974c0 .727.51 1.022 1.14.658a2.519 2.519 0 0 0 1.14-1.974c0-.727-.51-1.022-1.139-.658z" class="cls-44" transform="translate(-192.57 -162.2)"/>
                </g>
                <path id="패스_12" d="M107.447 215.14l.469-2.654-2.248.327 1.361 2.085z" class="cls-40" transform="translate(-83.113 -181.381)"/>
                <g id="그룹_2" transform="translate(18.433 31.008)">
                    <path id="패스_13" d="M86.838 212.479a1.526 1.526 0 0 0-1.543.15 4.808 4.808 0 0 0-2.175 3.771 1.528 1.528 0 0 0 .639 1.409l1.16.67a1.523 1.523 0 0 0 1.545-.149 4.808 4.808 0 0 0 2.175-3.768 1.526 1.526 0 0 0-.639-1.414z" class="cls-41" transform="translate(-83.12 -212.262)"/>
                    <ellipse id="타원_1" cx="3.077" cy="1.776" class="cls-39" rx="3.077" ry="1.776" transform="rotate(-59.999 4.748 2.434)"/>
                    <path id="패스_14" d="M96.013 223.018a2.67 2.67 0 0 0-1.209 2.093c0 .771.541 1.083 1.209.7a2.672 2.672 0 0 0 1.209-2.093c-.002-.773-.543-1.085-1.209-.7z" class="cls-42" transform="translate(-92.668 -220.861)"/>
                    <path id="패스_15" d="M95.979 226.037a2.521 2.521 0 0 0 1.14-1.974.872.872 0 0 0-.245-.673.871.871 0 0 0-.706.124 2.52 2.52 0 0 0-1.14 1.974.558.558 0 0 0 .951.548z" class="cls-43" transform="translate(-92.824 -221.277)"/>
                    <path id="패스_16" d="M98.038 226.523a.452.452 0 0 0-.393.06 1.347 1.347 0 0 0-.609 1.055.427.427 0 0 0 .177.393c.032.018.173.1.214.122a.443.443 0 0 0 .407-.055 1.347 1.347 0 0 0 .609-1.055.426.426 0 0 0-.179-.394c-.032-.017-.179-.107-.226-.126z" class="cls-42" transform="translate(-94.49 -223.843)"/>
                    <path id="패스_17" d="M99.3 227.521a1.347 1.347 0 0 1-.609 1.055c-.337.194-.609.037-.609-.352a1.346 1.346 0 0 1 .609-1.055c.332-.194.609-.036.609.352z" class="cls-44" transform="translate(-95.343 -224.32)"/>
                    <path id="패스_18" d="M96.777 222.92a2.95 2.95 0 0 1-1.334 2.311c-.737.425-1.334.081-1.334-.77a2.949 2.949 0 0 1 1.334-2.311c.736-.426 1.334-.081 1.334.77zm-1.334-.546a2.519 2.519 0 0 0-1.14 1.974c0 .727.51 1.022 1.14.658a2.52 2.52 0 0 0 1.14-1.974c0-.727-.51-1.022-1.139-.659z" class="cls-44" transform="translate(-92.099 -220.137)"/>
                </g>
                <path id="패스_19" fill="url(#linear-gradient-2)" d="M85.638 136.325l-13.267 7.664a4.01 4.01 0 0 0 .033-.442c0-1.65-1.158-2.319-2.587-1.494a5.719 5.719 0 0 0-2.587 4.481 3.265 3.265 0 0 0 .023.41l-3.5 1.981-1-2.086 1.011-3.965 7.62-6.515 20.912-10.94v7.066l-1.527.885a3.872 3.872 0 0 0 .025-.434c0-1.65-1.158-2.319-2.587-1.494a5.719 5.719 0 0 0-2.587 4.481 3.108 3.108 0 0 0 .018.402z" transform="translate(-48.037 -110.229)"/>
                <path id="패스_20" d="M29.708 144.376l-.217-.217.48-.095z" class="cls-43" transform="translate(-20.861 -125.467)"/>
                <path id="패스_21" d="M23.973 133.48l-1.235-1.234.431-.144 1.234 1.234z" class="cls-43" transform="translate(-15.343 -115.691)"/>
                <path id="패스_22" d="M29.491 143.943l.431-.144.073.073z" class="cls-46" transform="translate(-20.861 -125.25)"/>
                <path id="패스_23" fill="#cc8b2d" d="M109.762 99.67l3.5-15.24 13.114-5.321 4.331 8.466z" transform="translate(-86.459 -72.385)"/>
                <path id="패스_24" fill="#ffc855" d="M42.718 84.034l-5.005 16.89-16.113-5.49L29.481 81.2a1.285 1.285 0 0 1 .926-.556" transform="translate(-14.41 -73.639)"/>
                <path id="패스_25" d="M64.234 240.164l-.491-2.36 2.97-1.22v2.149z" class="cls-39" transform="translate(-48.852 -201.074)"/>
                <path id="패스_26" d="M-17.719 197.978v-2.149l15.382 8.671v2.358z" class="cls-38" transform="translate(17.719 -167.769)"/>
                <path id="패스_27" d="M-17.719 194.276l.6-.347 14.707 8.778.223-.1.315.282-.464.268z" class="cls-43" transform="translate(17.719 -166.216)"/>
                <path id="패스_28" d="M1.52 183.048l-.449 4.2-14.53-8.389.411-3.848z" class="cls-49" transform="translate(14.238 -150.758)"/>
                <path id="패스_29" d="M68.153 235.24l.426.246-2.015 1.163-.368-.213-.169.031z" class="cls-46" transform="translate(-50.719 -199.976)"/>
                <path id="패스_30" d="M-15.606 180.489l.655.1-.494 2.486-.411-.238z" class="cls-50" transform="translate(16.197 -155.233)"/>
                <path id="패스_31" d="M-13.994 179.139l.165.095-.121.212-.534-.309.523-.3z" class="cls-51" transform="translate(15.075 -153.882)"/>
                <path id="패스_32" d="M2.544 188.778l8.623 4.978-.466 2.22-7.744-4.471z" class="cls-38" transform="translate(1.16 -162.007)"/>
                <path id="패스_33" d="M52.027 231.595l-.123.925-3.159-1.82-.02-.095z" class="cls-52" transform="translate(-36.579 -196.185)"/>
                <path id="패스_34" d="M47.261 216.785l3.365 1.661-.494 2.486-3.121-1.8z" class="cls-53" transform="translate(-35.179 -184.894)"/>
                <path id="패스_35" d="M48.624 216.013l3.121 1.8-.116.215-3.249-1.875z" class="cls-54" transform="translate(-36.297 -184.263)"/>
                <path id="패스_36" d="M67.688 225.328l.411-.238.246.142z" class="cls-55" transform="translate(-52.076 -191.681)"/>
                <path id="패스_37" d="M65.09 226.681l-.595 2.543-.411-.238.249-2.344z" class="cls-50" transform="translate(-49.132 -192.95)"/>
                <path id="패스_38" fill="#9d3501" d="M67.236 228.07l-.905.523.271-2.543.634-.179z" transform="translate(-50.967 -192.318)"/>
                <path id="패스_39" d="M66.519 225.781l-.655.378-.411-.238.244-.141.165.095.623-.114z" class="cls-51" transform="translate(-50.249 -192.229)"/>
                <path id="패스_40" d="M-9.922 195.49l-.037.344-3.412-1.97.032-.3z" class="cls-52" transform="translate(14.165 -165.919)"/>
                <path id="패스_41" d="M2.391 192.976l.691-2.108.09.417-.214 2z" class="cls-57" transform="translate(1.285 -163.715)"/>
                <path id="패스_42" d="M-13.609 184.131l.25-2.344 3.365 1.661-.494 2.486z" class="cls-53" transform="translate(14.36 -156.294)"/>
                <path id="패스_43" d="M3.464 193.258l.267-2.507.227.022-.25 2.344z" class="cls-44" transform="translate(.408 -163.619)"/>
                <path id="패스_44" d="M-8.876 182.815l-.244.141-3.121-1.8.244-.141z" class="cls-54" transform="translate(13.242 -155.661)"/>
                <path id="패스_45" d="M218.309 154.152l-.229 2.443-.426-.246V154.2z" class="cls-57" transform="translate(-174.63 -133.71)"/>
                <path id="패스_46" d="M221.561 152.924l-1.578.911v-2.341l1.578-.719z" class="cls-39" transform="translate(-176.532 -130.95)"/>
                <path id="패스_47" d="M218.081 150.95l-.426-.246.816-.471.9-.359.285.165z" class="cls-46" transform="translate(-174.63 -130.214)"/>
                <path id="패스_48" fill="#7f2000" d="M223.019 142.058l-.657.379-.246-2.039.9-.238z" transform="translate(-178.275 -122.277)"/>
                <path id="패스_49" fill="#ce3801" d="M222.116 143.359v-1.9h.246v2.041z" transform="translate(-178.275 -123.34)"/>
                <path id="패스_50" d="M222.116 139.129l.411-.238v-.284l.494.284-.657.379z" class="cls-55" transform="translate(-178.275 -121.007)"/>
                <path id="패스_51" fill="#ffd752" d="M79.457 42.462l11.16 6.443a.259.259 0 0 1 0 .449l-12.15 7.015a1.036 1.036 0 0 1-1.036 0L66.27 49.926a.259.259 0 0 1 0-.449l12.151-7.015a1.036 1.036 0 0 1 1.036 0z" transform="translate(-50.811 -42.323)"/>
                <path id="패스_52" fill="#7fabcc" d="M37.018 100l10.951 6.323a1.408 1.408 0 0 0 2.054-.819l2.714-9.158a1.408 1.408 0 0 0-.646-1.62l-9.207-5.316a1.408 1.408 0 0 0-1.94.544L36.486 98.1a1.408 1.408 0 0 0 .532 1.9z" transform="translate(-26.436 -80.645)"/>
                <path id="패스_53" d="M115.767 122.319l6.047-3.491a1.8 1.8 0 0 0 .894-1.444l.5-8.188a.518.518 0 0 0-.776-.481l-3.687 2.128a1.794 1.794 0 0 0-.823 1.044l-2.915 9.835a.518.518 0 0 0 .76.597z" class="cls-62" transform="translate(-90.73 -96.522)"/>
                <path id="패스_54" d="M164.915 91.639l-3.379 1.951a1.329 1.329 0 0 0-.662 1.069l-.52 8.438a.518.518 0 0 0 .776.481l5.731-3.309a1.329 1.329 0 0 0 .62-1.491l-1.807-6.822a.518.518 0 0 0-.759-.317z" class="cls-62" transform="translate(-127.802 -82.568)"/>
                <path id="패스_55" d="M-3.634 145.693l14.53 8.389-7.584 5.36-14.531-8.389z" class="cls-49" transform="translate(12.406 -126.797)"/>
                <path id="패스_56" d="M114.146 189.2l-.249 1.468-2.512-.838-.245-.348.619-.174v-.572z" class="cls-38" transform="translate(-87.585 -161.97)"/>
                <path id="패스_57" d="M111.011 192.823v-.315h.105l.163.4z" class="cls-57" transform="translate(-87.48 -165.055)"/>
                <path id="패스_58" d="M111.011 191.567l.364-.21.278.093-.521.158z" class="cls-46" transform="translate(-87.48 -164.114)"/>
                <path id="패스_59" d="M126.473 191.272v1.219l-.249.249v-1.405z" class="cls-39" transform="translate(-99.912 -164.045)"/>
                <path id="패스_60" d="M116.911 188.087l-.249.249-2.139-.713.249-.249z" class="cls-43" transform="translate(-90.35 -160.859)"/>
                <path id="패스_61" d="M111.676 191.822l.386-.2.135.045V192z" class="cls-43" transform="translate(-88.023 -164.328)"/>
            </g>
        </g>
    </g>
</svg>
