<svg xmlns="http://www.w3.org/2000/svg" width="91.5" height="12.5" viewBox="0 0 91.5 12.5">
    <defs>
        <filter id="선_172" width="53" height="8" x="0" y="4.5" filterUnits="userSpaceOnUse">
            <feOffset dy="2"/>
            <feGaussianBlur result="blur" stdDeviation="1"/>
            <feFlood flood-opacity=".224"/>
            <feComposite in2="blur" operator="in"/>
            <feComposite in="SourceGraphic"/>
        </filter>
        <style>
            .cls-1{fill:#e4e5ee}
        </style>
    </defs>
    <g id="img_focus_graph" transform="translate(-101.5 -277)">
        <circle id="타원_1170" cx="5.5" cy="5.5" r="5.5" class="cls-1" transform="translate(182 277)"/>
        <path id="패스_30735" d="M1099.708-149.861a2.94 2.94 0 0 1-3 2.877 2.94 2.94 0 0 1-3-2.877c0-1.288 1.97-14.7 2.717-15.734a.353.353 0 0 1 .566 0c.747 1.036 2.717 14.446 2.717 15.734z" transform="rotate(-90 858.723 520.985)"/>
        <circle id="타원_1171" cx="1" cy="1" r="1" class="cls-1" transform="translate(187 282)"/>
        <g filter="url(#선_172)" transform="translate(101.5 277)">
            <path id="선_172-2" fill="none" stroke="#000" stroke-linecap="round" stroke-width="2px" d="M0 0L45 0" transform="translate(4 6.5)"/>
        </g>
    </g>
</svg>
