<svg xmlns="http://www.w3.org/2000/svg" width="100" height="30" viewBox="0 0 100 30">
    <defs>
        <style>
            .cls-2{isolation:isolate}.cls-3{fill:#1a1a1a}
        </style>
    </defs>
    <g id="img_cyber_signature_mini_before" transform="translate(-284 -154)">
        <g id="서명하기" class="cls-2" transform="translate(635.703 -545.175)">
            <g id="그룹_42123" class="cls-2">
                <path id="패스_31537" d="M-333.116 723.1a.729.729 0 0 1-.989-.72c-.42-3.27-.811-6.21-1.291-9.329a3.285 3.285 0 0 1-.03-.571 26.239 26.239 0 0 0-2.429 4.77.772.772 0 0 1-.96.39c-.81-.15-.99-.57-.84-.959a25.148 25.148 0 0 1 5.309-8.43 1.054 1.054 0 0 1 1.23-.271.894.894 0 0 1 .09 1.411 23.835 23.835 0 0 0-1.71 2.1 1.277 1.277 0 0 1 1.111 1.08c.6 3.031.959 6.24 1.259 9.39a1.041 1.041 0 0 1-.75 1.139zm9.09-3.69c-.45.06-.96-.54-.93-.93l-.48-4.98a43.951 43.951 0 0 0-4.74 2.4c-.51.3-1.08.3-1.26 0-.21-.42.3-1.11.57-1.41.9-.93 3.75-2.309 5.25-3.03l-.15-1.65a.72.72 0 0 1 .3-.75c.66-.33 1.38.39 1.47.871a41.015 41.015 0 0 1 .78 8.429c0 .663-.24.963-.81 1.053z" class="cls-3"/>
                <path id="패스_31538" d="M-318.445 717.433c.029.45-.6.84-.841.84a1.066 1.066 0 0 1-.989-.78 14.986 14.986 0 0 1 .27-6.87.928.928 0 0 1 .87-.3c.36.061.719.3.69 1.14a1.414 1.414 0 0 0-.031.36.441.441 0 0 1 .121-.09 6.133 6.133 0 0 1 2.52-.809 1.591 1.591 0 0 1 1.649 1.92 17.481 17.481 0 0 1-1.41 4.769 16.664 16.664 0 0 1 3.45-.929c.51-.061.84.179.78.6a1.381 1.381 0 0 1-1.05 1.14c-1.56.51-2.28.75-3.36 1.17-.99.39-2.189-.33-1.89-1.32.42-1.47 1.141-3.21 1.621-5.219 0-.3-.96.09-1.411.239a1.315 1.315 0 0 1-1.08-.06c-.029 1.439 0 3.149.091 4.199zm11.639-6.36a32.748 32.748 0 0 0-4.11.3c-.57.09-1.89.33-2.19-.39-.21-.54.39-.809 1.08-1.08a10.01 10.01 0 0 1 5.16-.45c.78.24 1.08.57 1.08.87 0 .39-.514.75-1.02.75zm5.55 5.37c-.54 0-.96-1.2-.99-2.31-.03-.69-.03-1.2-.03-1.71a18.354 18.354 0 0 1-7.71 3.27c-1.05.12-1.65-.3-1.71-.66-.09-.66.72-.9 1.29-1.05 2.73-.719 6.09-1.65 8.13-3.509v-1.38a.7.7 0 0 1 .39-.691c.69-.269 1.26.51 1.32 1.021a34.255 34.255 0 0 1 .21 4.8c0 1.259-.33 2.219-.9 2.219zm.06 1.98c.72.36.69 1.68.09 2.97-.63 1.379-2.16 3-4.11 2.79-1.35-.15-1.59-1.62-1.47-2.58a6.29 6.29 0 0 1 2.1-3.66 2.3 2.3 0 0 1 2.07-.63.694.694 0 0 1 .39 1.05 1.262 1.262 0 0 1 .926.06zm-3.45 3.84a2.842 2.842 0 0 0 1.68-1.38 4.319 4.319 0 0 0 .63-2.22 5.565 5.565 0 0 0-1.68 1.77 4.921 4.921 0 0 0-.63 1.83z" class="cls-3"/>
                <path id="패스_31539" d="M-291.836 713.054c-.36 1.17-.75 2.34-1.11 3.509a2.559 2.559 0 0 1 2.46 1.53c.45 1.35-.45 3.06-1.74 4.05a3.4 3.4 0 0 1-2.129.66c-1.17-.21-1.5-1.531-1.321-2.82a36.552 36.552 0 0 1 1.86-6.69 8.639 8.639 0 0 0-3.18 1.141.824.824 0 0 1-1.319-.661c-.15-1.32 3.569-2.46 5.159-2.28a1.289 1.289 0 0 1 1.32 1.561zm.12-3.9c.21.66.6 2.191-.6 1.89-.36-.119-.48-.449-.66-.779a18.847 18.847 0 0 0-3.089-4.321c-.631-.569-.841-1.17-.3-1.62a1.275 1.275 0 0 1 1.531.33 13.02 13.02 0 0 1 3.118 4.499zm-2.159 11.73c.9-.45 1.979-1.35 1.679-2.31a1.385 1.385 0 0 0-1.05-.84 22.371 22.371 0 0 0-.629 3.149zm9.089-7.86a6.47 6.47 0 0 1 4.92-.48.651.651 0 0 1 .449.9.981.981 0 0 1-.779.54 9.235 9.235 0 0 0-3.42.42c-.72.21-.84-.36-1.08-.24-.06.03-.06.15-.06.33 0 1.861.18 3.45.3 4.95.03.51-.27 1.26-.84 1.17a1.573 1.573 0 0 1-1.02-1.17 40.811 40.811 0 0 1-.03-11.309c.12-.811 1.11-.63 1.5-.33a1.089 1.089 0 0 1 .42.84 26.676 26.676 0 0 0-.36 4.378z" class="cls-3"/>
                <path id="패스_31540" d="M-271.106 713.773a18.8 18.8 0 0 0-.811 6.15c0 .78-.569 1.11-.9 1.05a1.652 1.652 0 0 1-1.02-1.23c-.33-1.11.12-4.44.57-6.42a12.223 12.223 0 0 0-3.87 1.41 1.446 1.446 0 0 1-1.53-.509c-.27-.421.3-.9.72-1.2a10.291 10.291 0 0 1 4.8-1.62c1.561.059 2.341 1.049 2.041 2.369zm6.39 4.77c0 .66-.241.84-.721.84a1.34 1.34 0 0 1-1.14-.99 60.618 60.618 0 0 1 0-9.36.856.856 0 0 1 .87-.779c.63 0 1.05.84 1.02 1.38a80.018 80.018 0 0 0-.029 8.909z" class="cls-3"/>
            </g>
        </g>
    </g>
</svg>
