<svg xmlns="http://www.w3.org/2000/svg" width="30" height="30" viewBox="0 0 30 30">
    <defs>
        <linearGradient id="1xlshin89b" x1=".158" x2=".653" y1="-.153" y2="1" gradientUnits="objectBoundingBox">
            <stop offset="0" stop-color="#aaefa4"/>
            <stop offset=".276" stop-color="#b1f7b4"/>
            <stop offset=".892" stop-color="#32c42c"/>
            <stop offset="1" stop-color="#8be37a"/>
        </linearGradient>
        <filter id="2t24qtlopa" width="30" height="30" x="0" y="0" filterUnits="userSpaceOnUse">
            <feOffset dy="1"/>
            <feGaussianBlur result="blur" stdDeviation="1"/>
            <feFlood flood-color="#007e27" flood-opacity=".302"/>
            <feComposite in2="blur" operator="in"/>
            <feComposite in="SourceGraphic"/>
        </filter>
    </defs>
    <g>
        <g>
            <g filter="url(#2t24qtlopa)" transform="translate(3 2) translate(-3 -2)">
                <circle cx="12" cy="12" r="12" fill="url(#1xlshin89b)" transform="translate(3 2)"/>
            </g>
            <path d="M291.821 418.435a3.832 3.832 0 0 1-3.256-1.9.955.955 0 0 1 1.588-1.059 1.848 1.848 0 0 0 3.336 0 .954.954 0 0 1 1.588 1.059 3.832 3.832 0 0 1-3.256 1.9z" transform="translate(3 2) translate(-279.813 -401.821)"/>
            <path d="M25.537 27.655a1.064 1.064 0 0 0-.677-.24 1.082 1.082 0 0 0-.765.315 1.093 1.093 0 0 0-.1.117 1.075 1.075 0 0 0-1.049-.415 1.115 1.115 0 0 0-.777.543 1.13 1.13 0 0 0-.062 1.213 3.155 3.155 0 0 0 .459.608 8.777 8.777 0 0 0 1.318 1.124.189.189 0 0 0 .111.037.2.2 0 0 0 .12-.045 9.054 9.054 0 0 0 1.216-1.02 3.169 3.169 0 0 0 .559-.723 1 1 0 0 0 .139-.49 1.314 1.314 0 0 0-.492-1.024z" transform="translate(3 2) translate(-15.141 -18.549)"/>
            <path d="M25.537 27.655a1.064 1.064 0 0 0-.677-.24 1.082 1.082 0 0 0-.765.315 1.093 1.093 0 0 0-.1.117 1.075 1.075 0 0 0-1.049-.415 1.115 1.115 0 0 0-.777.543 1.13 1.13 0 0 0-.062 1.213 3.155 3.155 0 0 0 .459.608 8.777 8.777 0 0 0 1.318 1.124.189.189 0 0 0 .111.037.2.2 0 0 0 .12-.045 9.054 9.054 0 0 0 1.216-1.02 3.169 3.169 0 0 0 .559-.723 1 1 0 0 0 .139-.49 1.314 1.314 0 0 0-.492-1.024z" transform="translate(3 2) translate(-8.868 -18.549)"/>
        </g>
    </g>
</svg>
