<svg xmlns="http://www.w3.org/2000/svg" width="60" height="60" viewBox="0 0 60 60">
    <g transform="translate(-193 -182)">
        <circle cx="30" cy="30" r="30" fill="#ffec9d" opacity="0.8" transform="translate(193 182)"/>
        <g>
            <path fill="#d09e17" d="M800.746 1030.667a1.772 1.772 0 0 0-1.266-.511 2.23 2.23 0 0 0-1.52.634l-1.812 1.471-.071.065a1.715 1.715 0 0 0-.462 1.528l-4.226 4.1-.709-.614c.509-1.988.446-4.636-1.269-6.35a6.4 6.4 0 0 0-4.522-1.946 5.928 5.928 0 0 0-1.94.327.924.924 0 0 0-.406 1.467l2.277 2.722-.112 1.75-1.893.216-2.7-2.26a.924.924 0 0 0-1.467.406 6 6 0 0 0 1.785 6.3 5.772 5.772 0 0 0 4.2 1.543c.127 0 .255-.006.384-.012-.065.056-.129.112-.191.172l-5.191 5.191a3.7 3.7 0 0 0 0 5.228l.872.871a3.7 3.7 0 0 0 5.228 0l5.191-5.191a3.64 3.64 0 0 0 .685-.956l4.611 5.328.046.049a3.046 3.046 0 0 0 2.185.8 4.18 4.18 0 0 0 2.873-1.113c1.208-1.208 1.589-3.779.312-5.057-.016-.016-.032-.031-.049-.045l-6.713-5.809 3.873-3.989a1.851 1.851 0 0 0 .321.027 1.69 1.69 0 0 0 1.206-.487l1.535-1.884a2.253 2.253 0 0 0 .623-1.309 1.8 1.8 0 0 0-.5-1.475zm-11.129 15.8l-5.191 5.191a1.85 1.85 0 0 1-2.614 0l-.87-.87a1.852 1.852 0 0 1 0-2.614l5.191-5.191a1.836 1.836 0 0 1 1.307-.541 1.907 1.907 0 0 1 .424.05l2.291 2.648a1.836 1.836 0 0 1-.538 1.326zm10.4 4.108a2.339 2.339 0 0 1-1.566.572 1.329 1.329 0 0 1-.861-.243l-9.8-11.322a.924.924 0 0 0-.993-.271 6.868 6.868 0 0 1-2.166.356 4.034 4.034 0 0 1-2.892-1 4.978 4.978 0 0 1-1.527-2.905l1.722 1.441a.92.92 0 0 0 .7.209l3.054-.349a.924.924 0 0 0 .817-.859l.185-2.891a.92.92 0 0 0-.214-.651L785 1030.9a4.584 4.584 0 0 1 3.1 1.4c1.207 1.207 1.181 3.468.645 5.059a.924.924 0 0 0 .271.993l11.323 9.8a2.134 2.134 0 0 1-.323 2.422zm.448-17.2l-1.45 1.778a.4.4 0 0 1-.051-.025l-.627-.372-4.864 5.009-.68-.589 5.055-4.909-.372-.626a.564.564 0 0 1-.025-.051l1.707-1.385.071-.064a.417.417 0 0 1 .242-.128l1.123 1.124a.415.415 0 0 1-.13.232z" transform="translate(-567.352 -828.047)"/>
        </g>
    </g>
</svg>
