<svg xmlns="http://www.w3.org/2000/svg" xmlns:xlink="http://www.w3.org/1999/xlink" width="120" height="120" viewBox="0 0 120 120">
    <defs>
        <linearGradient id="linear-gradient" x1="-.007" x2=".994" y1=".502" y2=".502" gradientUnits="objectBoundingBox">
            <stop offset="0" stop-color="#25b2fa"/>
            <stop offset="1" stop-color="#5052c9"/>
        </linearGradient>
        <linearGradient id="linear-gradient-2" x2="1" y1=".5" y2=".5" gradientUnits="objectBoundingBox">
            <stop offset="0" stop-color="#c93adf"/>
            <stop offset="1" stop-color="#7949ff"/>
        </linearGradient>
        <linearGradient id="linear-gradient-3" x1="0" x2="1" y1=".5" y2=".5" xlink:href="#linear-gradient-2"/>
        <clipPath id="clip-path">
            <ellipse id="타원_1204" cx="35.089" cy="35.086" rx="35.089" ry="35.086"/>
        </clipPath>
        <clipPath id="clip-path-3">
            <circle id="타원_1209" cx="39.943" cy="39.943" r="39.943"/>
        </clipPath>
        <filter id="타원_1217" width="94.943" height="94.886" x="13" y="16" filterUnits="userSpaceOnUse">
            <feOffset dy="4"/>
            <feGaussianBlur result="blur" stdDeviation="2.5"/>
            <feFlood flood-opacity=".102"/>
            <feComposite in2="blur" operator="in"/>
            <feComposite in="SourceGraphic"/>
        </filter>
        <style>
            .cls-2{fill:#fff}.cls-4{clip-path:url(#clip-path)}.cls-12{fill:#f4b331}.cls-13{fill:#fcdc4d}.cls-14{opacity:.2}.cls-18{fill:none}.cls-17{opacity:.4}
        </style>
    </defs>
    <g id="img_challenge_car_09" transform="translate(9.643 12.1)">
        <g id="그룹_40584" transform="translate(10.857 7.4)">
            <g id="_x35_0_32_">
                <g filter="url(#타원_1217)" transform="translate(-20.5 -19.5)">
                    <ellipse id="타원_1217-2" cx="39.971" cy="39.943" class="cls-2" rx="39.971" ry="39.943" transform="translate(20.5 19.5)"/>
                </g>
                <ellipse id="타원_1202" cx="35.089" cy="35.086" fill="#7ca8ff" rx="35.089" ry="35.086" transform="translate(4.854 4.857)"/>
                <g id="그룹_40580" transform="translate(4.854 4.857)">
                    <g id="그룹_40579" class="cls-4">
                        <ellipse id="타원_1203" cx="35.089" cy="35.086" fill="url(#linear-gradient)" rx="35.089" ry="35.086"/>
                    </g>
                </g>
                <g id="그룹_40581" transform="translate(42.454 50.727)"/>
            </g>
        </g>
        <g id="그룹_40587" transform="translate(15.711 12.257)">
            <g id="그룹_40586" class="cls-4">
                <path id="패스_30884" fill="#0e489b" d="M94.492 127.171l.057.086s-5.848 17-15.6 18.37C68.76 150.333 37.351 160.2 23.8 124.518L36.466 100.3l24.192 36.512 17.773-26.871 6.9 10.326 6.932-13.549 4.707 10.126s-.253 7.018-2.478 10.327z" opacity="0.25" transform="translate(-24.998 -78.65)"/>
            </g>
        </g>
        <g id="그룹_40589" transform="translate(9.857 7.401)">
            <g id="그룹_40588" clip-path="url(#clip-path-3)">
                <path id="패스_30885" fill="url(#linear-gradient-2)" d="M119.193 15.893L109.292 1 94 5.565l5.221 10.357 19.971-.029" transform="translate(-70.263 -2.94)"/>
                <path id="패스_30886" fill="#6f27d6" d="M112.3 18.966L119.261 5.3l19.116.913-6.106 12.782-19.971-.029" transform="translate(-83.341 -6.013)"/>
                <path id="패스_30887" fill="url(#linear-gradient-3)" d="M120.3 18.609L127.347 4.8l18.745 2.282-5.82 11.555-19.972-.028" transform="translate(-89.059 -5.656)"/>
                <path id="사각형_18008" d="M0 0H22.454V8.816H0z" class="cls-12" transform="translate(28.759 16.462)"/>
                <circle id="타원_1206" cx="22.254" cy="22.254" r="22.254" class="cls-13" transform="translate(17.746 19.772)"/>
                <circle id="타원_1207" cx="18.06" cy="18.06" r="18.06" class="cls-12" transform="translate(21.94 23.966)"/>
                <circle id="타원_1208" cx="15.606" cy="15.606" r="15.606" class="cls-13" transform="translate(24.394 26.419)"/>
                <path id="패스_30888" d="M129.338 58.264h-21.256a2.484 2.484 0 0 1-2.482-2.482 2.484 2.484 0 0 1 2.482-2.482h21.255a2.484 2.484 0 0 1 2.482 2.482 2.466 2.466 0 0 1-2.481 2.482z" class="cls-13" transform="translate(-78.553 -40.319)"/>
            </g>
        </g>
        <g id="그룹_40591" class="cls-14" transform="translate(46.946 44.539)">
            <path id="패스_30889" d="M137.5 137.6v2.229h4.825l-3.369 7.686h2.8l.257-.571 3.255-7.571V137.6z" transform="translate(-137.5 -137.6)"/>
        </g>
        <g id="그룹_40592" transform="translate(47.516 43.969)">
            <path id="패스_30890" d="M139.5 135.6v2.229h4.825l-3.369 7.686h2.8l3.483-8.143V135.6z" class="cls-2" transform="translate(-139.5 -135.6)"/>
        </g>
        <g id="그룹_40593" class="cls-14" transform="translate(44.519 57.725)">
            <path id="패스_30891" d="M130.256 184H129v3.057h1.285a1.622 1.622 0 0 0 1.342-.6 1.4 1.4 0 0 0 .286-.914 1.516 1.516 0 0 0-1.657-1.543zm-.485.686h.485a.787.787 0 0 1 .857.829.689.689 0 0 1-.114.429.854.854 0 0 1-.742.4h-.485z" transform="translate(-129 -183.943)"/>
            <path id="패스_30892" d="M142.5 186.771L141.441 184h-1l-1.142 3.057h.857l.086-.286.057-.171h1.256l.143.457h.857zm-1.542-2.086l.086.286.228.686.114.286h-.857z" transform="translate(-136.359 -183.943)"/>
            <path id="패스_30893" d="M152 184l-.428.743-.228.4-.657-1.114h-.887l1.171 1.829v1.229h.8v-1.229l.942-1.486.2-.314H152z" transform="translate(-143.861 -183.943)"/>
            <path id="패스_30894" d="M162.056 185c-.343-.057-.514-.114-.514-.286 0-.114.086-.229.286-.229h.057a1.44 1.44 0 0 1 .857.314l.228-.314.2-.257a1.787 1.787 0 0 0-1.228-.429 1.568 1.568 0 0 0-.8.2.928.928 0 0 0-.428.743c0 .714.714.857 1.2.943.286.057.485.114.514.257v.029c0 .143-.171.257-.428.257a1.407 1.407 0 0 1-.914-.343l-.057-.057-.428.6a1.91 1.91 0 0 0 1.342.486 1.35 1.35 0 0 0 1.142-.486.987.987 0 0 0 .143-.514c.027-.657-.658-.8-1.172-.914z" transform="translate(-151.578 -183.8)"/>
        </g>
        <g id="그룹_40594" transform="translate(44.804 57.44)">
            <path id="패스_30895" d="M131.256 183H130v3.057h1.285a1.72 1.72 0 0 0 1.056-.314 1.4 1.4 0 0 0 .571-1.2 1.516 1.516 0 0 0-1.656-1.543zm.457 2.257a.973.973 0 0 1-.457.114h-.485v-1.686h.485a.787.787 0 0 1 .857.829.829.829 0 0 1-.4.743z" class="cls-2" transform="translate(-130 -182.943)"/>
            <path id="패스_30896" d="M142.441 183h-1l-.114.286-1.028 2.771h.857l.057-.171.086-.286h1.256l.143.457h.857zm-.914 1.943l.228-.686.2-.571.428 1.229h-.857z" class="cls-2" transform="translate(-137.359 -182.943)"/>
            <path id="패스_30897" d="M153 182.929l-.171.286-.485.829-.057-.114-.6-1.029h-.887l.171.286.971 1.543v1.229h.8v-1.229l1.142-1.829H153z" class="cls-2" transform="translate(-144.861 -182.871)"/>
            <path id="패스_30898" d="M163.27 184c-.314-.057-.485-.114-.514-.229v-.057c0-.143.086-.229.371-.229a1.384 1.384 0 0 1 .828.286c.029 0 .029.029.057.029l.428-.571a1.787 1.787 0 0 0-1.228-.429 1.2 1.2 0 0 0-1.085.486.864.864 0 0 0-.143.457c0 .714.714.857 1.2.943.314.057.514.143.514.314a.305.305 0 0 1-.286.257c-.057 0-.086.029-.143.029a1.326 1.326 0 0 1-.971-.4l-.228.343-.171.257a2.033 2.033 0 0 0 2.2.286.887.887 0 0 0 .428-.8c-.057-.715-.743-.858-1.257-.972z" class="cls-2" transform="translate(-152.792 -182.8)"/>
        </g>
        <g id="그룹_40595" opacity="0.25" transform="translate(43.776 21.722)">
            <path id="패스_30899" d="M127.428 58.486c-.257-.057-.4-.086-.4-.2 0-.086.086-.171.286-.171a1.061 1.061 0 0 1 .628.229l.314-.429a1.416 1.416 0 0 0-.914-.314c-.571 0-.914.343-.914.714 0 .543.514.629.914.714.257.057.4.114.4.229s-.114.2-.314.2a.934.934 0 0 1-.714-.314l-.314.457a1.358 1.358 0 0 0 1.028.371c.6 0 .942-.314.942-.771-.057-.515-.57-.63-.942-.715z" transform="translate(-126.4 -57.6)"/>
            <path id="패스_30900" d="M134.5 57.7v.514h.628v1.771h.6v-1.771h.628V57.7z" transform="translate(-132.187 -57.671)"/>
            <path id="패스_30901" d="M144.385 59.157a.718.718 0 0 0 .457-.686.742.742 0 0 0-.8-.771H142.9v2.286h.6v-.771h.314l.371.771h.685zm-.428-.429h-.457v-.514h.457a.263.263 0 0 1 .286.257c-.001.172-.115.258-.287.258z" transform="translate(-138.189 -57.671)"/>
            <path id="패스_30902" d="M153.385 58.286V57.8H151.7v2.286h1.685v-.514H152.3v-.4h1.056v-.514H152.3v-.371z" transform="translate(-144.477 -57.743)"/>
            <path id="패스_30903" d="M160.5 57.7h-.742l-.857 2.286h.628l.114-.343h.942l.114.343h.628zm-.685 1.457l.314-.914.314.914z" transform="translate(-149.621 -57.671)"/>
            <path id="패스_30904" d="M170.114 58.786L171 57.7h-.714l-.714.943V57.7H169v2.286h.6v-.657l.143-.2.6.857h.714z" transform="translate(-156.837 -57.671)"/>
        </g>
        <g id="그룹_40596" class="cls-17" transform="translate(67.942 25.286)">
            <path id="패스_30906" d="M219.237 70.157l-1.937 1.972-1.97 1.943c-.657.657-1.285 1.343-2 1.943a24.917 24.917 0 0 1-2.2 1.686l-.029-.029a21.5 21.5 0 0 1 1.856-2.086c.657-.657 1.37-1.229 2.056-1.857L217.1 71.9l2.113-1.8z" class="cls-2" transform="translate(-211.1 -70.1)"/>
        </g>
        <g id="그룹_40597" class="cls-17" transform="translate(71.539 26.428)">
            <path id="패스_30907" d="M228.639 74.1c-.8.8-1.6 1.571-2.4 2.371-.4.4-.8.8-1.2 1.171-.428.371-.857.714-1.313 1.057l-.029-.029a15.318 15.318 0 0 1 1.142-1.229c.4-.4.828-.743 1.256-1.114.828-.771 1.656-1.514 2.541-2.229z" class="cls-2" transform="translate(-223.7 -74.1)"/>
        </g>
        <g id="그룹_40598" class="cls-17" transform="translate(27.177 71.337)"/>
        <g id="그룹_40599" class="cls-17" transform="translate(35.279 63.777)"/>
        <g id="그룹_40600" class="cls-17" transform="translate(30.771 69.454)"/>
        <g id="그룹_40601" class="cls-17" transform="translate(35.679 64.889)"/>
        <path id="패스_30912" d="M215.87 213.3c0 1.771-.8 2.571-2.57 2.571 1.77 0 2.57.8 2.57 2.571 0-1.771.8-2.571 2.57-2.571-1.771 0-2.57-.8-2.57-2.571z" class="cls-2" transform="translate(-144.728 -147.161)"/>
        <circle id="타원_1210" cx=".371" cy=".371" r=".371" class="cls-2" transform="translate(72.968 63.776)"/>
        <ellipse id="타원_1211" cx="1.028" cy="1.029" fill="#fff" opacity="0.38" rx="1.028" ry="1.029" transform="translate(64.351 69.452)"/>
        <path id="패스_30913" d="M68.37 72.1c0 1.514-.657 2.171-2.17 2.171 1.513 0 2.17.657 2.17 2.171 0-1.514.657-2.171 2.17-2.171-1.513 0-2.17-.657-2.17-2.171z" class="cls-2" transform="translate(-39.595 -46.242)"/>
    </g>
</svg>
