<svg xmlns="http://www.w3.org/2000/svg" width="120" height="120" viewBox="0 0 120 120">
    <defs>
        <linearGradient id="linear-gradient" x1=".012" x2="1.012" y1=".502" y2=".502" gradientUnits="objectBoundingBox">
            <stop offset="0" stop-color="#70bfff"/>
            <stop offset="1" stop-color="#6e89ff"/>
        </linearGradient>
        <linearGradient id="linear-gradient-2" x2="1" y1=".5" y2=".5" gradientUnits="objectBoundingBox">
            <stop offset="0" stop-color="#ffa546"/>
            <stop offset=".058" stop-color="#ff9850"/>
            <stop offset=".207" stop-color="#ff7b66"/>
            <stop offset=".366" stop-color="#ff6477"/>
            <stop offset=".539" stop-color="#ff5483"/>
            <stop offset=".734" stop-color="#ff4b8a"/>
            <stop offset=".999" stop-color="#ff488c"/>
        </linearGradient>
        <linearGradient id="linear-gradient-3" x2="1" y1=".5" y2=".5" gradientUnits="objectBoundingBox">
            <stop offset="0" stop-color="#ffa546"/>
            <stop offset=".999" stop-color="#ff488c"/>
        </linearGradient>
        <clipPath id="clip-path">
            <ellipse id="타원_1186" cx="35.089" cy="35.086" rx="35.089" ry="35.086"/>
        </clipPath>
        <clipPath id="clip-path-2">
            <circle id="타원_1190" cx="39.943" cy="39.943" r="39.943"/>
        </clipPath>
        <filter id="타원_1183" width="94.943" height="94.886" x="13" y="16" filterUnits="userSpaceOnUse">
            <feOffset dy="4"/>
            <feGaussianBlur result="blur" stdDeviation="2.5"/>
            <feFlood flood-opacity=".102"/>
            <feComposite in2="blur" operator="in"/>
            <feComposite in="SourceGraphic"/>
        </filter>
        <style>
            .cls-2{fill:#fff}.cls-4{clip-path:url(#clip-path)}.cls-11{fill:#f4b331}.cls-12{fill:#fcdc4d}.cls-13{opacity:.2}.cls-17{fill:none}.cls-16{opacity:.4}
        </style>
    </defs>
    <g id="img_challenge_car_08" transform="translate(10.943 12.4)">
        <g id="그룹_40510" transform="translate(9.557 7.1)">
            <g id="_x35_0_17_">
                <g filter="url(#타원_1183)" transform="translate(-20.5 -19.5)">
                    <ellipse id="타원_1183-2" cx="39.971" cy="39.943" class="cls-2" rx="39.971" ry="39.943" transform="translate(20.5 19.5)"/>
                </g>
                <ellipse id="타원_1184" cx="35.089" cy="35.086" fill="#7ca8ff" rx="35.089" ry="35.086" transform="translate(4.854 4.857)"/>
                <g id="그룹_40506" transform="translate(4.854 4.857)">
                    <g id="그룹_40505" class="cls-4">
                        <ellipse id="타원_1185" cx="35.089" cy="35.086" fill="url(#linear-gradient)" rx="35.089" ry="35.086"/>
                    </g>
                </g>
                <g id="그룹_40507" transform="translate(42.454 50.727)"/>
            </g>
        </g>
        <g id="그룹_40514" transform="translate(8.557 7.214)">
            <g id="그룹_40513" clip-path="url(#clip-path-2)">
                <path id="패스_30768" fill="url(#linear-gradient-2)" d="M117.535 13.806L108.263-1.8 92.2 3.193l5.364 10.67 19.971-.057" transform="translate(-68.605 -.853)"/>
                <path id="패스_30769" fill="#f23b63" d="M111 18.881L117.933 5.3l19.173.514-6.134 13.124L111 18.881" transform="translate(-82.041 -5.928)"/>
                <path id="패스_30770" fill="url(#linear-gradient-3)" d="M119 18.309L126.047 4.5l19.287 1.255-6.362 12.611L119 18.309" transform="translate(-87.759 -5.356)"/>
                <path id="사각형_18006" d="M0 0H22.454V8.816H0z" class="cls-11" transform="translate(28.787 16.491)"/>
                <circle id="타원_1187" cx="22.254" cy="22.254" r="22.254" class="cls-12" transform="translate(17.746 19.8)"/>
                <circle id="타원_1188" cx="18.06" cy="18.06" r="18.06" class="cls-11" transform="translate(21.94 23.994)"/>
                <circle id="타원_1189" cx="15.606" cy="15.606" r="15.606" class="cls-12" transform="translate(24.394 26.448)"/>
                <path id="패스_30771" d="M128.038 57.964h-21.256a2.484 2.484 0 0 1-2.482-2.482A2.484 2.484 0 0 1 106.782 53h21.255a2.484 2.484 0 0 1 2.482 2.482 2.448 2.448 0 0 1-2.481 2.482z" class="cls-12" transform="translate(-77.253 -40.019)"/>
            </g>
        </g>
        <g id="그룹_40516" class="cls-13" transform="translate(44.531 44.268)">
            <path id="패스_30772" d="M140.768 140.771a3.281 3.281 0 0 0-2.2.8v-2.029h4.711V137.4h-7.195v5.8l1.77.429a2.69 2.69 0 0 1 1.97-.743c1.028 0 1.542.514 1.542 1.2a1.185 1.185 0 0 1-.086.457 1.565 1.565 0 0 1-1.513.771 3.907 3.907 0 0 1-2.541-.914c-.029-.029-.057-.029-.057-.057l-1.37 1.714a5.4 5.4 0 0 0 4 1.429 4.309 4.309 0 0 0 3.54-1.429 3.283 3.283 0 0 0 .657-2.057 3.168 3.168 0 0 0-3.228-3.229z" transform="translate(-135.8 -137.4)"/>
        </g>
        <g id="그룹_40517" transform="translate(45.102 43.697)">
            <path id="패스_30773" d="M142.768 138.771a3.281 3.281 0 0 0-2.2.8v-2.029h4.711V135.4h-7.195v5.8l1.77.429a2.69 2.69 0 0 1 1.97-.743c1.028 0 1.542.514 1.542 1.2a1.178 1.178 0 0 1-.657 1.029 2.3 2.3 0 0 1-.942.2 3.906 3.906 0 0 1-2.6-.971l-.514.629-.857 1.086a5.4 5.4 0 0 0 4 1.429 4.887 4.887 0 0 0 2.969-.857 3.231 3.231 0 0 0 1.229-2.631 3.168 3.168 0 0 0-3.226-3.229z" class="cls-2" transform="translate(-137.8 -135.4)"/>
        </g>
        <g id="그룹_40518" class="cls-13" transform="translate(43.219 57.454)">
            <path id="패스_30774" d="M128.985 183.8H127.7v3.057h1.285a1.662 1.662 0 0 0 1.342-.6 1.582 1.582 0 0 0 .286-.914 1.492 1.492 0 0 0-1.628-1.543zm-.514.686h.485a.764.764 0 0 1 .828.829.689.689 0 0 1-.114.429.854.854 0 0 1-.742.4h-.485v-1.657z" transform="translate(-127.7 -183.743)"/>
            <path id="패스_30775" d="M141.2 186.571l-1.056-2.771h-1L138 186.857h.857l.086-.286.057-.171h1.256l.171.457h.857zm-1.542-2.086l.086.286.228.686.086.286h-.858z" transform="translate(-135.059 -183.743)"/>
            <path id="패스_30776" d="M150.7 183.8l-.428.743-.228.4-.657-1.114h-.887l1.171 1.829v1.229h.8v-1.229l.942-1.486.2-.314h-.913z" transform="translate(-142.561 -183.743)"/>
            <path id="패스_30777" d="M160.828 184.8c-.343-.057-.514-.114-.514-.286 0-.114.086-.229.286-.229h.057a1.509 1.509 0 0 1 .857.314l.228-.314.2-.257a1.787 1.787 0 0 0-1.228-.429 1.568 1.568 0 0 0-.8.2.861.861 0 0 0-.428.743c0 .714.714.857 1.2.943.286.057.485.114.514.257v.029c0 .143-.171.257-.428.257a1.472 1.472 0 0 1-.914-.343l-.057-.057-.4.6a1.91 1.91 0 0 0 1.342.486 1.35 1.35 0 0 0 1.142-.486.987.987 0 0 0 .143-.514c-.001-.657-.687-.8-1.2-.914z" transform="translate(-150.349 -183.6)"/>
        </g>
        <g id="그룹_40519" transform="translate(43.504 57.168)">
            <path id="패스_30778" d="M129.985 182.8H128.7v3.057h1.285a1.72 1.72 0 0 0 1.056-.314 1.4 1.4 0 0 0 .571-1.2 1.492 1.492 0 0 0-1.627-1.543zm.428 2.257a1.075 1.075 0 0 1-.457.114h-.485v-1.686h.485a.764.764 0 0 1 .828.829.754.754 0 0 1-.371.743z" class="cls-2" transform="translate(-128.7 -182.743)"/>
            <path id="패스_30779" d="M141.141 182.8h-1l-.114.286-1.027 2.771h.857l.057-.171.086-.286h1.256l.171.457h.857zm-.914 1.914l.228-.686.2-.571.428 1.229h-.857z" class="cls-2" transform="translate(-136.059 -182.743)"/>
            <path id="패스_30780" d="M151.7 182.729l-.171.286-.485.829-.057-.114-.6-1.029h-.887l.171.286.971 1.543v1.229h.8v-1.229l1.142-1.829h-.884z" class="cls-2" transform="translate(-143.561 -182.671)"/>
            <path id="패스_30781" d="M161.97 183.8c-.286-.057-.485-.114-.514-.229v-.057c0-.143.114-.229.371-.229a1.384 1.384 0 0 1 .828.286.1.1 0 0 0 .057.029l.428-.571a1.787 1.787 0 0 0-1.228-.429 1.2 1.2 0 0 0-1.085.486.864.864 0 0 0-.143.457c0 .714.714.857 1.2.943.314.057.514.143.514.314a.305.305 0 0 1-.285.257 1.237 1.237 0 0 1-.143.029 1.377 1.377 0 0 1-.971-.4l-.228.343-.171.257a2.033 2.033 0 0 0 2.2.286.887.887 0 0 0 .428-.8c-.058-.715-.744-.858-1.258-.972z" class="cls-2" transform="translate(-151.492 -182.6)"/>
        </g>
        <g id="그룹_40520" opacity="0.25" transform="translate(42.448 21.45)">
            <path id="패스_30782" d="M126.056 58.286c-.257-.057-.4-.086-.4-.2 0-.086.086-.171.257-.171a1.217 1.217 0 0 1 .657.229l.314-.429a1.474 1.474 0 0 0-.914-.314c-.6 0-.914.343-.914.714 0 .543.514.629.914.714.228.057.4.114.4.229s-.114.2-.314.2a1.051 1.051 0 0 1-.742-.314L125 59.4a1.334 1.334 0 0 0 1 .371c.628 0 .942-.314.942-.771.028-.543-.514-.657-.886-.714z" transform="translate(-125 -57.4)"/>
            <path id="패스_30783" d="M133.2 57.5v.514h.628v1.771h.6v-1.771h.628V57.5z" transform="translate(-130.859 -57.471)"/>
            <path id="패스_30784" d="M143.085 58.857a.718.718 0 0 0 .457-.686.742.742 0 0 0-.8-.771H141.6v2.286h.6v-.771h.314l.371.771h.685zm-.428-.429h-.457v-.514h.457a.263.263 0 0 1 .286.257c-.001.172-.115.258-.287.258z" transform="translate(-136.861 -57.4)"/>
            <path id="패스_30785" d="M152.085 57.986V57.5H150.4v2.286h1.685V59.3H151v-.4h1.056v-.514H151v-.371h1.085z" transform="translate(-143.148 -57.471)"/>
            <path id="패스_30786" d="M159.2 57.5h-.742l-.857 2.286h.628l.114-.343h.942l.114.343h.628zm-.685 1.429l.314-.914.314.914z" transform="translate(-148.292 -57.471)"/>
            <path id="패스_30787" d="M168.842 58.486l.885-1.086h-.714l-.714.943V57.4h-.6v2.286h.6v-.657l.143-.2.6.857h.714z" transform="translate(-155.509 -57.4)"/>
        </g>
        <g id="그룹_40521" class="cls-16" transform="translate(66.642 25.015)">
            <path id="패스_30789" d="M217.937 69.957L216 71.929l-1.97 1.943c-.657.657-1.285 1.343-2 1.943a24.915 24.915 0 0 1-2.2 1.686l-.029-.029a21.5 21.5 0 0 1 1.856-2.086c.657-.657 1.37-1.229 2.056-1.857L215.8 71.7l2.113-1.8z" class="cls-2" transform="translate(-209.8 -69.9)"/>
        </g>
        <g id="그룹_40522" class="cls-16" transform="translate(70.239 26.157)">
            <path id="패스_30790" d="M227.339 73.9c-.8.8-1.6 1.571-2.4 2.371-.4.4-.8.8-1.2 1.171-.428.371-.857.714-1.313 1.057l-.029-.029a15.317 15.317 0 0 1 1.142-1.229c.4-.4.828-.743 1.256-1.114.828-.771 1.685-1.514 2.541-2.229z" class="cls-2" transform="translate(-222.4 -73.9)"/>
        </g>
        <g id="그룹_40523" class="cls-16" transform="translate(25.877 71.037)"/>
        <g id="그룹_40524" class="cls-16" transform="translate(33.979 63.505)"/>
        <g id="그룹_40525" class="cls-16" transform="translate(29.471 69.154)"/>
        <g id="그룹_40526" class="cls-16" transform="translate(34.379 64.589)"/>
        <path id="패스_30795" d="M67.07 71.8c0 1.514-.657 2.171-2.17 2.171 1.513 0 2.17.657 2.17 2.171 0-1.514.657-2.171 2.17-2.171-1.513 0-2.17-.657-2.17-2.171z" class="cls-2" transform="translate(-39.595 -46.242)"/>
        <path id="패스_30796" d="M236.713 203.4c0 1.029-.457 1.514-1.513 1.514 1.028 0 1.513.457 1.513 1.514 0-1.029.457-1.514 1.513-1.514-1.056-.028-1.513-.485-1.513-1.514z" class="cls-2" transform="translate(-161.317 -140.297)"/>
        <g id="그룹_40528" transform="translate(14.411 11.957)">
            <g id="그룹_40527" class="cls-4">
                <path id="패스_30797" fill="#fff" d="M129.784 207.585a10.566 10.566 0 0 1-8.815 12.095 11.342 11.342 0 0 1-2.4.114 12.617 12.617 0 0 1-7.046 9.67c-1.2 3.138-8.216 6.475-17.031 7.844-10.042 1.569-18.629.057-19.171-3.423v-.057a11.97 11.97 0 1 1 8.416-17.942 11.485 11.485 0 0 1 4.479-1.8 10.77 10.77 0 0 1 5.649.628 12.643 12.643 0 0 1 15.377-8.843 10.613 10.613 0 0 1 20.54 1.712z" opacity="0.15" transform="translate(-51.561 -148.852)"/>
            </g>
        </g>
    </g>
</svg>
