<svg xmlns="http://www.w3.org/2000/svg" id="img_alarm_notice" width="40" height="40" viewBox="0 0 40 40">
    <defs>
        <style>
            .cls-3{fill:#113a95}
        </style>
    </defs>
    <circle id="타원_238" cx="20" cy="20" r="20" fill="#e2e7f2"/>
    <g id="그룹_42072" transform="translate(-1104.18 -415)">
        <g id="그룹_42074" transform="translate(164.837 -104.962)">
            <path id="패스_33293" d="M963.982 530.5a.782.782 0 0 0-.878.315c-1.156 1.724-6.214 4.47-8.138 5.419h-4.124a3.517 3.517 0 0 0-.666 6.967l1.069 5.7a.784.784 0 0 0 .771.641h2.351a.784.784 0 0 0 .778-.881l-.74-5.9a.78.78 0 0 0 .4.449c1.9.926 7.111 3.718 8.3 5.5a.81.81 0 0 0 .881.315.793.793 0 0 0 .558-.752v-17.02a.789.789 0 0 0-.562-.753zm-11.095 12.785l.587 4.691h-.807l-.878-4.691zm-.1-5.476v3.9h-1.95a1.951 1.951 0 0 1 0-3.9zm1.653 4.35a.817.817 0 0 0-.073.247v-4.6h.778a.98.98 0 0 0 .345-.079 46.047 46.047 0 0 0 7.481-4.544v13.153a46.083 46.083 0 0 0-7.479-4.544.789.789 0 0 0-1.052.363z" class="cls-3"/>
            <path id="패스_33294" d="M966.775 535.816a.787.787 0 0 0-1.348.81 7.221 7.221 0 0 1 0 7.024.787.787 0 1 0 1.353.8 8.823 8.823 0 0 0-.005-8.634z" class="cls-3"/>
            <path id="패스_33295" d="M968.756 533.083a.786.786 0 0 0-1.345.813c.151.259 3.649 6.423 0 12.5a.786.786 0 0 0 1.348.808c4.177-6.955.174-13.825-.003-14.121z" class="cls-3"/>
        </g>
    </g>
</svg>
