<svg xmlns="http://www.w3.org/2000/svg" id="img_alarm_return" width="40" height="40" viewBox="0 0 40 40">
    <defs>
        <style>
            .cls-2{fill:#a16912}
        </style>
    </defs>
    <circle id="타원_241" cx="20" cy="20" r="20" fill="#ffd41d" opacity="0.402"/>
    <g id="그룹_42057" transform="translate(418.326 -676.295)">
        <path id="패스_31523" d="M-388.122 692.2a10.947 10.947 0 0 0-10.2-6.9.781.781 0 0 0-.78.781.781.781 0 0 0 .78.782 9.432 9.432 0 0 1 9.412 9.43 9.361 9.361 0 0 1-2.766 6.658 9.36 9.36 0 0 1-6.655 2.753h-.01a9.355 9.355 0 0 1-6.659-2.771 9.356 9.356 0 0 1-2.752-6.664 9.379 9.379 0 0 1 5.909-8.734.782.782 0 0 0 .457-1.006.788.788 0 0 0-1.035-.445 11.011 11.011 0 0 0-6.111 14.3 11.017 11.017 0 0 0 10.22 6.9 10.942 10.942 0 0 0 4.082-.792 10.924 10.924 0 0 0 6.017-5.884 10.924 10.924 0 0 0 .091-8.408z" class="cls-2"/>
        <path id="패스_31524" d="M-398.07 689.7a.843.843 0 0 0-.554.225.777.777 0 0 0-.232.56v5.91a.787.787 0 0 0 .3.618l4.834 3.76a.778.778 0 0 0 .489.173.782.782 0 0 0 .609-.29.788.788 0 0 0-.137-1.116l-4.534-3.527v-5.527a.782.782 0 0 0-.775-.786z" class="cls-2" transform="translate(-.248 -.104)"/>
    </g>
</svg>
