<svg xmlns="http://www.w3.org/2000/svg" width="48" height="48" viewBox="0 0 48 48">
    <g>
        <g fill="#626572">
            <path d="M954.115 415.7h.03l3.1-14.464a.622.622 0 0 1 .413-.46l3.738-1.246a.623.623 0 1 1 .394 1.181l-3.4 1.134L956.214 412a.613.613 0 0 1 .223.187l4.233 6.008h9.086a5.6 5.6 0 0 1 5.544-4.985.623.623 0 1 1 0 1.246 4.354 4.354 0 0 0-4.3 3.738h1.246a3.115 3.115 0 1 1 .679 2.642.623.623 0 1 1 .948-.807 1.875 1.875 0 1 0-.33-1.834h1.757a.623.623 0 1 1 0 1.246h-14.954a.623.623 0 0 1-.51-.264l-3.957-5.616-1.155 5.388a.625.625 0 0 1-.608.492.583.583 0 0 1-.131-.014.623.623 0 0 1-.48-.74l.365-1.707a1.9 1.9 0 0 0-1.625 1.838 1.869 1.869 0 1 0 3.368-1.117.623.623 0 1 1 1-.744 3.116 3.116 0 1 1-2.5-1.255z" transform="translate(9 9) translate(-949.754 -395.76)"/>
        </g>
    </g>
    <path d="M177.03 255.635a24 24 0 1 1 24-24 24.028 24.028 0 0 1-24 24zm0-47a23 23 0 1 0 23 23 23.026 23.026 0 0 0-23-23z" opacity="0.1" transform="translate(-153.03 -207.635)"/>
</svg>
