<svg xmlns="http://www.w3.org/2000/svg" id="img_smart_car" width="48" height="48" viewBox="0 0 48 48">
    <defs>
        <style>
            .cls-2{fill:#626572}
        </style>
    </defs>
    <g id="ico_list_car" transform="translate(9 9)">
        <g id="그룹_21329">
            <g id="그룹_21328" transform="translate(1.419 4.971)">
                <path id="패스_28376" d="M992.97 408.576h1.243a.612.612 0 0 1 .048-.241l3.145-7.456a.623.623 0 0 1 .573-.38h8.039a6.843 6.843 0 0 1 6.834 6.835v1.243a2.488 2.488 0 0 1 2.485 2.485v6.838a.622.622 0 0 1-.621.621h-1.927a3.728 3.728 0 1 1 0-1.243h1.306v-6.213a1.244 1.244 0 0 0-1.243-1.243H992.97a3.733 3.733 0 0 0-3.728 3.728v3.728h1.306a3.728 3.728 0 1 1 0 1.243h-1.927a.622.622 0 0 1-.621-.621v-4.349a4.976 4.976 0 0 1 4.97-4.975zm16.154 6.835a2.485 2.485 0 1 0 2.485 2.485 2.488 2.488 0 0 0-2.484-2.485zm2.485-6.835v-1.243a5.6 5.6 0 0 0-5.592-5.592h-1.6v6.835zm-8.437-6.835h-4.781l-2.883 6.835h7.664zm-8.959 18.64a2.485 2.485 0 1 0-2.485-2.485 2.488 2.488 0 0 0 2.485 2.485z" class="cls-2" transform="translate(-988 -400.499)"/>
                <path id="패스_28377" d="M997.017 414h5.028a.621.621 0 1 1 0 1.243h-5.028a.621.621 0 1 1 0-1.243z" class="cls-2" transform="translate(-985.761 -397.223)"/>
            </g>
        </g>
    </g>
    <path id="패스_37384" d="M177.03 255.635a24 24 0 1 1 24-24 24.028 24.028 0 0 1-24 24zm0-47a23 23 0 1 0 23 23 23.026 23.026 0 0 0-23-23z" opacity="0.1" transform="translate(-153.03 -207.635)"/>
</svg>
