<svg xmlns="http://www.w3.org/2000/svg" xmlns:xlink="http://www.w3.org/1999/xlink" width="120" height="120" viewBox="0 0 120 120">
    <defs>
        <linearGradient id="linear-gradient" x1="-.004" x2=".997" y1=".498" y2=".498" gradientUnits="objectBoundingBox">
            <stop offset="0" stop-color="#70bfff"/>
            <stop offset="1" stop-color="#6e89ff"/>
        </linearGradient>
        <linearGradient id="linear-gradient-2" x1="1" x2="0" y1=".5" y2=".5" gradientUnits="objectBoundingBox">
            <stop offset="0" stop-color="#f1f2f2"/>
            <stop offset="1" stop-color="#a7a9ac"/>
        </linearGradient>
        <linearGradient id="linear-gradient-3" x2="1" y1=".5" y2=".5" gradientUnits="objectBoundingBox">
            <stop offset="0" stop-color="#f1f2f2"/>
            <stop offset="1" stop-color="#939598"/>
        </linearGradient>
        <linearGradient id="linear-gradient-4" x1=".5" x2=".5" y2="1" gradientUnits="objectBoundingBox">
            <stop offset="0" stop-color="#fff"/>
            <stop offset="1" stop-color="#d1d3d4"/>
        </linearGradient>
        <linearGradient id="linear-gradient-5" x2="1" y1=".5" y2=".5" gradientUnits="objectBoundingBox">
            <stop offset="0" stop-color="#e6e7e8"/>
            <stop offset=".293" stop-color="#b1b3b5"/>
            <stop offset=".483" stop-color="#939598"/>
            <stop offset=".808" stop-color="#d1d2d3"/>
            <stop offset="1" stop-color="#f1f2f2"/>
        </linearGradient>
        <linearGradient id="linear-gradient-6" x1=".236" x2=".677" y1="1.129" y2="-.106" gradientUnits="objectBoundingBox">
            <stop offset="0" stop-color="#fff" stop-opacity=".2"/>
            <stop offset="1" stop-color="#fff" stop-opacity=".502"/>
        </linearGradient>
        <linearGradient id="linear-gradient-7" x1=".226" x2=".732" y1="1.213" y2="-.22" xlink:href="#linear-gradient-6"/>
        <clipPath id="clip-path">
            <circle id="타원_1133" cx="35.865" cy="35.865" r="35.865"/>
        </clipPath>
        <filter id="타원_1215" width="95" height="95" x="12" y="16" filterUnits="userSpaceOnUse">
            <feOffset dy="4"/>
            <feGaussianBlur result="blur" stdDeviation="2.5"/>
            <feFlood flood-opacity=".102"/>
            <feComposite in2="blur" operator="in"/>
            <feComposite in="SourceGraphic"/>
        </filter>
        <style>
            .cls-17,.cls-3{fill:#fff}.cls-17{fill-rule:evenodd;opacity:.8}
        </style>
    </defs>
    <g id="img_challenge_car_05" opacity="0.2" transform="translate(-1.424 -5.428)">
        <g id="그룹_43453" transform="translate(-1 4)">
            <g filter="url(#타원_1215)" transform="translate(2.42 1.43)">
                <circle id="타원_1215-2" cx="40" cy="40" r="40" class="cls-3" transform="translate(19.5 19.5)"/>
            </g>
            <g id="그룹_40604" transform="translate(26.116 25.949)">
                <g id="그룹_40411" clip-path="url(#clip-path)">
                    <circle id="타원_1132" cx="35.865" cy="35.865" r="35.865" fill="url(#linear-gradient)"/>
                </g>
            </g>
            <g id="Layer_5" transform="translate(32.452 33.803)">
                <g id="그룹_40563" transform="translate(5.154 1.83)">
                    <g id="그룹_40562">
                        <g id="그룹_40552" transform="translate(.805 16.38)">
                            <path id="패스_30828" fill="#83722c" d="M130.158 208.454v5.081l-11.758-10.47v-5.08z" transform="translate(-118.402 -197.985)"/>
                        </g>
                        <g id="그룹_40553" transform="translate(36.076 16.38)">
                            <path id="패스_30829" fill="#8e7c2f" d="M336.56 197.985v5.08l-11.76 10.469v-5.081z" transform="translate(-324.804 -197.985)"/>
                        </g>
                        <g id="그룹_40554" transform="translate(36.478 16.142)">
                            <path id="패스_30830" fill="url(#linear-gradient-2)" d="M339.317 196.591v5.08L327.158 212.5v-5.08z" transform="translate(-327.158 -196.591)"/>
                        </g>
                        <g id="그룹_40555" transform="translate(0 16.142)">
                            <path id="패스_30831" fill="url(#linear-gradient-3)" d="M125.851 207.417v5.08l-12.159-10.826v-5.08z" transform="translate(-113.692 -196.591)"/>
                        </g>
                        <g id="그룹_40556" transform="translate(36.076 26.848)">
                            <path id="패스_30832" fill="#7c7457" d="M327.578 274.03v5.08l-2.778-14.783v-5.081z" transform="translate(-324.804 -259.246)"/>
                        </g>
                        <g id="그룹_40557" transform="translate(9.787 26.848)">
                            <path id="패스_30833" fill="#807859" d="M173.737 259.246v5.081l-2.774 14.784v-5.08z" transform="translate(-170.963 -259.246)"/>
                        </g>
                        <g id="그룹_40558" transform="translate(24.317 34.653)">
                            <path id="패스_30834" fill="#8b792e" d="M270.527 311.9v5.08L255.994 310v-5.08z" transform="translate(-255.994 -304.92)"/>
                        </g>
                        <g id="그룹_40559" transform="translate(9.787 34.653)">
                            <path id="패스_30835" fill="#948031" d="M185.493 304.92V310l-14.531 6.979V311.9z" transform="translate(-170.963 -304.92)"/>
                        </g>
                        <g id="그룹_40560" transform="translate(.805 .772)">
                            <path id="패스_30836" fill="url(#linear-gradient-4)" d="M141.914 106.651l7.224 13.371 16.291 2.237-11.756 10.469 2.774 14.784-14.533-6.979-14.531 6.979 2.774-14.784-11.757-10.469 16.25-2.159z" transform="translate(-118.402 -106.651)"/>
                        </g>
                        <g id="그룹_40561">
                            <path id="패스_30837" d="M162.329 118.274L150.171 129.1l2.871 15.291-15.032-7.22-15.03 7.22 2.871-15.291-12.159-10.826 16.8-2.231 7.514-13.911 7.516 13.911zm-9.787 25.491l-2.774-14.784 11.756-10.469-16.248-2.157-7.266-13.455-7.264 13.451-16.246 2.161 11.756 10.469-2.774 14.784 14.531-6.979 14.533 6.979" class="cls-3" transform="translate(-113.693 -102.132)"/>
                        </g>
                        <path id="패스_30838" fill="url(#linear-gradient-5)" d="M183.072 307.179l-15.03 7.22v5.08l15.03-7.22 15.032 7.22V314.4z" transform="translate(-158.754 -272.14)"/>
                    </g>
                </g>
                <path id="패스_30839" fill="url(#linear-gradient-6)" d="M165.355 188.628l29.8-16.388-9.674-1.119-1.474-2.887-21.9 11.88 4.136 3.831z" transform="translate(-148.684 -155.109)"/>
                <path id="패스_30840" d="M274.142 145.564c-.626.52-.865 6.255-.865 6.255s-.417-5.814-1.028-6.245-4.417-.89-4.417-.89 4.09-.448 4.534-.97.911-7.362.911-7.362.452 6.68.9 7.4 6.311.928 6.311.928-5.719.363-6.346.884z" class="cls-17" transform="translate(-226.909 -133.531)"/>
                <path id="패스_30841" d="M166.991 304.478c-.484.4-.669 4.836-.669 4.836s-.323-4.495-.794-4.828a17.108 17.108 0 0 0-3.414-.688s3.162-.346 3.5-.75.7-5.69.7-5.69.349 5.163.7 5.723 4.879.717 4.879.717-4.418.276-4.902.68z" class="cls-17" transform="translate(-162.113 -261.88)"/>
                <path id="패스_30842" fill="url(#linear-gradient-7)" d="M212.042 193.186l-5.6-.749-31.392 17.929-.916 5.277z" transform="translate(-158.654 -175.174)"/>
                <path id="패스_30843" d="M315.353 246.208c-.3.252-.419 3.03-.419 3.03s-.2-2.817-.5-3.026a10.7 10.7 0 0 0-2.14-.431 8.285 8.285 0 0 0 2.2-.47 23.568 23.568 0 0 0 .441-3.566 24.765 24.765 0 0 0 .438 3.586c.219.351 3.057.449 3.057.449a15.338 15.338 0 0 0-3.077.428z" class="cls-17" transform="translate(-273.203 -216.058)"/>
                <path id="패스_30846" d="M325.769 355.845a10.25 10.25 0 0 0-.367 2.653 10.654 10.654 0 0 0-.436-2.649 9.381 9.381 0 0 0-1.874-.378 7.247 7.247 0 0 0 1.923-.411 20.63 20.63 0 0 0 .387-3.122 21.668 21.668 0 0 0 .384 3.14c.192.307 2.677.394 2.677.394a13.422 13.422 0 0 0-2.694.373z" class="cls-17" transform="translate(-282.155 -307.42)"/>
                <path id="패스_30848" d="M105.415 179.027a10.249 10.249 0 0 0-.367 2.653 10.653 10.653 0 0 0-.436-2.649 9.381 9.381 0 0 0-1.874-.378 7.247 7.247 0 0 0 1.923-.411 20.626 20.626 0 0 0 .387-3.122 21.671 21.671 0 0 0 .384 3.14c.192.307 2.677.394 2.677.394a13.422 13.422 0 0 0-2.694.373z" class="cls-17" transform="translate(-94.599 -167.96)"/>
                <path id="패스_30849" d="M344.314 287.46c-.3.252-.419 3.03-.419 3.03s-.2-2.817-.5-3.026a10.7 10.7 0 0 0-2.14-.431 8.285 8.285 0 0 0 2.2-.47 23.566 23.566 0 0 0 .441-3.566 24.76 24.76 0 0 0 .438 3.586c.219.351 3.057.449 3.057.449a15.339 15.339 0 0 0-3.077.428z" class="cls-17" transform="translate(-292.644 -245.689)"/>
                <path id="패스_30850" d="M128.565 259.669a9.328 9.328 0 0 0-.334 2.413 9.685 9.685 0 0 0-.4-2.409 8.522 8.522 0 0 0-1.7-.343 6.6 6.6 0 0 0 1.749-.374 18.775 18.775 0 0 0 .351-2.839 19.7 19.7 0 0 0 .349 2.855c.174.28 2.434.358 2.434.358a12.219 12.219 0 0 0-2.449.339z" class="cls-17" transform="translate(-118.851 -227.973)"/>
                <path id="패스_30851" d="M267.412 94.973a9.327 9.327 0 0 0-.334 2.413 9.685 9.685 0 0 0-.4-2.409 8.524 8.524 0 0 0-1.7-.343 6.6 6.6 0 0 0 1.749-.374 18.776 18.776 0 0 0 .351-2.839 19.706 19.706 0 0 0 .349 2.855c.174.28 2.434.358 2.434.358a12.216 12.216 0 0 0-2.449.339z" class="cls-17" transform="translate(-233.971 -91.421)"/>
                <path id="패스_30852" d="M258.436 337a7.432 7.432 0 0 0-.266 1.923 7.717 7.717 0 0 0-.316-1.919 6.791 6.791 0 0 0-1.357-.274 5.257 5.257 0 0 0 1.393-.3 14.954 14.954 0 0 0 .28-2.262 15.688 15.688 0 0 0 .278 2.275c.139.223 1.94.285 1.94.285a9.733 9.733 0 0 0-1.952.272z" class="cls-17" transform="translate(-226.939 -292.688)"/>
            </g>
        </g>
    </g>
</svg>
