<svg xmlns="http://www.w3.org/2000/svg" width="52" height="52" viewBox="0 0 52 52">
    <defs>
        <style>
            .cls-3{fill:#9dd955}.cls-4{fill:#676d69}.cls-5{fill:#3f4541}.cls-7{fill:#c6de32}.cls-8{fill:#62bb47}
        </style>
    </defs>
    <g id="img_etiquette05" transform="translate(-13 -695)">
        <g id="그룹_42363" transform="translate(-882.62 646.25)">
            <path id="패스_33741" fill="#1e1c1e" d="M914.876 194.537l-10.591-6.115c-.985-.569-.862-1.562.276-2.219l20.991-11.945a4.271 4.271 0 0 1 3.843-.159l10.591 6.115c.985.569.862 1.562-.276 2.219l-20.991 11.945a4.271 4.271 0 0 1-3.843.159z" opacity="0.2" transform="translate(-1.711 -101.83)"/>
            <path id="패스_33743" d="M1018.329 186.669l-2.817 1.652-11.7 6.859a.446.446 0 0 1-.445-.046l-.732-.422-1.027 5.568a1.319 1.319 0 0 1-.591.949l18.906-11.085a1.312 1.312 0 0 0 .6-.956l.787-4.27z" class="cls-4" transform="translate(-83.978 -110.51)"/>
            <path id="패스_33745" d="M919.486 195.553l-7.459-4.306-8.218-4.745v.179a1.4 1.4 0 0 0 .633 1.1l.732.422 1.027 6.754a4.853 4.853 0 0 0 2.125 3.254l7.342 4.239a1.522 1.522 0 0 0 1.534.149 1.318 1.318 0 0 0 .591-.949l1.027-5.568.732.422a.446.446 0 0 0 .445.046.445.445 0 0 0 .185-.409v-.179z" class="cls-5" transform="translate(-.163 -111.875)"/>
            <path id="패스_33746" fill="#909692" d="M1040.041 174.84l-.4.232-.723.424-3.257 1.91-3.056 1.791-11.1 6.509v.179a.445.445 0 0 1-.185.409l11.7-6.859 2.816-1.652 2.985-1.75 1.406-.824a.436.436 0 0 0 .2-.416v-.179z" transform="translate(-101.487 -101.625)"/>
            <path id="패스_33747" d="M907.06 176.517l-1.331.755 1.1.5z" class="cls-7" transform="translate(-1.818 -103.266)"/>
            <path id="패스_33748" d="M955.594 64.538a4.853 4.853 0 0 0-2.125-3.254l-7.342-4.239a1.506 1.506 0 0 0-1.557-.135l-18.86 11.059a1.545 1.545 0 0 1 1.5.168l3.3 1.906 4.041 2.333a4.853 4.853 0 0 1 2.125 3.254l1.027 6.754 10.319-6.05 4.3-2.521 3.519-2.063.782-.458z" class="cls-3" transform="translate(-19.046)"/>
            <path id="패스_33749" d="M919.552 152.223l-.732-.422-1.027-6.754a4.852 4.852 0 0 0-2.125-3.254l-4.041-2.333-3.3-1.906a1.545 1.545 0 0 0-1.5-.168 1.3 1.3 0 0 0-.626.968l-.887 4.808-.14.761-.583-.337-.149-.086c-.349-.2-.633-.038-.633.366v.179l8.218 4.744 7.459 4.306.7.4v-.179a1.4 1.4 0 0 0-.634-1.093z" class="cls-8" transform="translate(-.163 -69.417)"/>
            <g id="그룹_42356" transform="translate(905.931 70.604)">
                <path id="패스_33750" d="M923.362 158.572l-1.683 5.3 1.5 7.145 7.854 4.726.5-.648 1.069-5-1.352-6.7z" class="cls-4" transform="translate(-921.501 -158.396)"/>
                <path id="패스_33751" fill="#eae9ef" d="M931.734 168.951l-.264-1.371-.165-.857-.114-.593-.018-.093-.286-1.49-.368-1.915a1.571 1.571 0 0 0-.1-.32l.018-.008-.132-.215-.107-.175-.011.005a1.4 1.4 0 0 0-.387-.345l-.411-.237-.316-.182-1.261-.728-.315-.182-1.261-.728-.315-.182-1.261-.728-.315-.182-1.261-.728-.315-.182-.174-.1a.811.811 0 0 0-.375-.116.444.444 0 0 0-.268.087l-.09.063a.588.588 0 0 0-.175.194.7.7 0 0 0-.039.113l-.215.868-.088.357-.293 1.184-.06.243-.054.217-.323 1.3-.006.025-.053.216-.06.242-.073.295a.979.979 0 0 0-.021.311l-.011-.014.1.5.082.425.006.033.417 2.156.3 1.572.095.491.254 1.312a1.456 1.456 0 0 0 .038.149v.005l.046.116.152.387.031-.042a1.454 1.454 0 0 0 .458.442l.174.1.316.183 1.261.728.315.182 1.261.728.315.182 1.261.728.315.182 1.261.728.315.182.411.237a.781.781 0 0 0 .421.116H930l.118-.03a.4.4 0 0 0 .16-.08l.077-.064a.392.392 0 0 0 .095-.112.69.69 0 0 0 .066-.172l.313-1.276.264-1.079.089-.361.2-.831.346-1.414a1.064 1.064 0 0 0 .006-.452zm-.921 1.02l.013.01a.939.939 0 0 1 .073.065l.014.014c.024.025.047.05.07.078l.007.009c.022.027.042.056.062.086l.006.008-.248 1.014-.162-.093a1.161 1.161 0 0 1-.517-.895v-.367a.25.25 0 0 1 .071-.211.094.094 0 0 1 .036-.01h.007a.184.184 0 0 1 .047 0h.006a.362.362 0 0 1 .049.015l.014.006a.523.523 0 0 1 .06.029l.315.182a.705.705 0 0 1 .077.061zm-.117 1.744l-.265 1.083-.009-.01-.047-.058-.01-.013q-.027-.036-.051-.074l-.011-.019-.037-.064-.01-.018-.039-.081-.007-.017c-.01-.023-.018-.046-.026-.069l-.007-.021c-.009-.028-.017-.056-.023-.083v-.011c-.005-.024-.01-.048-.013-.072v-.021a.722.722 0 0 1-.005-.08v-.364a.25.25 0 0 1 .071-.211.089.089 0 0 1 .036-.01h.008a.2.2 0 0 1 .046 0h.009a.345.345 0 0 1 .046.014l.016.006a.528.528 0 0 1 .059.029zm-.56 2.272a.7.7 0 0 1-.006-.081v-.364-.038a.218.218 0 0 1 .07-.173.092.092 0 0 1 .035-.01h.009a.209.209 0 0 1 .031 0h.021l-.16.671zm-8.736-8.164l-.282-1.457.162.093a1.161 1.161 0 0 1 .516.895v.364a.168.168 0 0 1-.289.167zm-.535-3.009l.089-.361.01.005.316.182a1.161 1.161 0 0 1 .517.895v.364a.168.168 0 0 1-.289.167l-.315-.182c-.019-.011-.037-.023-.056-.037l-.019-.014-.037-.03-.021-.019-.034-.033-.021-.021-.011-.013-.125-.648a.613.613 0 0 1-.003-.255zm1.387-2.918v-.038a.217.217 0 0 1 .069-.173.1.1 0 0 1 .036-.01h.008a.2.2 0 0 1 .046 0h.008a.34.34 0 0 1 .047.014l.015.006a.5.5 0 0 1 .059.029l.315.182a1.161 1.161 0 0 1 .517.895v.364a.168.168 0 0 1-.289.167l-.315-.182a1.161 1.161 0 0 1-.516-.895zm7.424 10.371a.168.168 0 0 1-.289.167l-.315-.182a1.161 1.161 0 0 1-.517-.895v-.364a.249.249 0 0 1 .071-.211.093.093 0 0 1 .036-.01h.007a.194.194 0 0 1 .047 0h.006a.353.353 0 0 1 .048.015l.014.006a.528.528 0 0 1 .059.029l.315.182a1.161 1.161 0 0 1 .517.895zm-7.879-2.729a.507.507 0 0 1 0 .061v.016a.4.4 0 0 1-.008.041v.012a.242.242 0 0 1-.016.037l-.233-1.2.008.011c.014.017.027.036.04.054l.015.021.037.059.009.014c.014.025.028.05.04.075l.009.019.027.06.009.023.025.07v.01l.021.078v.021c0 .007.007.039.01.058v.097zm.455-1.82v-.364a.251.251 0 0 1 .071-.211.09.09 0 0 1 .036-.01h.008a.2.2 0 0 1 .047 0h.006a.339.339 0 0 1 .048.015l.014.006a.522.522 0 0 1 .059.029l.315.182a1.161 1.161 0 0 1 .517.895v.364a.168.168 0 0 1-.289.167l-.315-.182a1.161 1.161 0 0 1-.516-.891zm0-4a.251.251 0 0 1 .071-.211.094.094 0 0 1 .036-.01h.009a.192.192 0 0 1 .046 0h.008a.337.337 0 0 1 .046.014l.015.006a.528.528 0 0 1 .059.029l.315.182a1.161 1.161 0 0 1 .517.895V163.025a.218.218 0 0 1-.07.173.092.092 0 0 1-.04.011.338.338 0 0 1-.178-.055l-.315-.182a1.161 1.161 0 0 1-.516-.895zm7.424 4.549v.364a.25.25 0 0 1-.071.211.093.093 0 0 1-.04.011.339.339 0 0 1-.179-.055l-.315-.182a1.161 1.161 0 0 1-.517-.895v-.364a.25.25 0 0 1 .071-.211.091.091 0 0 1 .036-.01h.008a.2.2 0 0 1 .046 0h.008a.335.335 0 0 1 .047.014l.015.006a.516.516 0 0 1 .059.029l.315.182a1.161 1.161 0 0 1 .517.897zm0 2.183a.168.168 0 0 1-.289.167l-.315-.182a1.161 1.161 0 0 1-.517-.895v-.364a.249.249 0 0 1 .071-.211.088.088 0 0 1 .036-.01h.008a.189.189 0 0 1 .046 0h.008a.359.359 0 0 1 .047.014l.015.006a.537.537 0 0 1 .059.029l.315.182a1.161 1.161 0 0 1 .517.895zm-5.848-3.639v-.364a.168.168 0 0 1 .289-.167l.315.182a1.161 1.161 0 0 1 .517.895v.364a.168.168 0 0 1-.289.167l-.315-.182a1.161 1.161 0 0 1-.517-.897zm1.576.91v-.364a.25.25 0 0 1 .071-.211.091.091 0 0 1 .035-.01h.009a.2.2 0 0 1 .046 0h.008a.344.344 0 0 1 .046.014l.015.006a.545.545 0 0 1 .059.029l.315.182a1.161 1.161 0 0 1 .517.895v.364a.168.168 0 0 1-.289.167l-.315-.182a1.161 1.161 0 0 1-.521-.892zm1.576.91v-.364a.251.251 0 0 1 .071-.211.092.092 0 0 1 .036-.01h.008a.2.2 0 0 1 .046 0h.009a.343.343 0 0 1 .045.014l.016.006a.519.519 0 0 1 .059.029l.315.182a1.16 1.16 0 0 1 .517.895v.364a.168.168 0 0 1-.289.167l-.315-.182a1.161 1.161 0 0 1-.518-.893zm1.121-1.274v.364a.251.251 0 0 1-.071.211.1.1 0 0 1-.04.011.264.264 0 0 1-.112-.023.524.524 0 0 1-.066-.033l-.315-.182a1.161 1.161 0 0 1-.517-.895v-.364a.251.251 0 0 1 .071-.211.093.093 0 0 1 .036-.01h.008a.185.185 0 0 1 .046 0h.009a.357.357 0 0 1 .045.014l.016.006a.57.57 0 0 1 .059.029l.315.182a1.161 1.161 0 0 1 .515.899zm-1.576-.91V164.849a.218.218 0 0 1-.07.173.093.093 0 0 1-.04.011.265.265 0 0 1-.112-.023.513.513 0 0 1-.066-.033l-.315-.182a1.161 1.161 0 0 1-.517-.895v-.364a.25.25 0 0 1 .071-.211.091.091 0 0 1 .035-.01h.009a.184.184 0 0 1 .046 0h.008a.372.372 0 0 1 .046.014l.015.006a.543.543 0 0 1 .059.029l.315.182a1.161 1.161 0 0 1 .516.899zm-1.576-.91v.364a.249.249 0 0 1-.071.211.091.091 0 0 1-.04.011.338.338 0 0 1-.178-.055l-.315-.182a1.161 1.161 0 0 1-.517-.895v-.364a.168.168 0 0 1 .289-.167l.315.182a1.161 1.161 0 0 1 .517.893zm-2.7 0a.251.251 0 0 1 .071-.211.093.093 0 0 1 .035-.01h.009a.189.189 0 0 1 .045 0h.009a.35.35 0 0 1 .045.014l.015.006a.532.532 0 0 1 .059.029l.315.182a1.161 1.161 0 0 1 .517.895v.364a.168.168 0 0 1-.289.167l-.315-.182a1.161 1.161 0 0 1-.516-.895zm1.575 3.093v-.364a.25.25 0 0 1 .071-.211.092.092 0 0 1 .036-.01h.008a.192.192 0 0 1 .047 0h.007a.336.336 0 0 1 .047.015l.015.006a.521.521 0 0 1 .059.029l.315.182a1.161 1.161 0 0 1 .517.895v.364a.168.168 0 0 1-.289.167l-.315-.182a1.161 1.161 0 0 1-.514-.893zm1.576.91v-.364a.25.25 0 0 1 .071-.211.09.09 0 0 1 .036-.01h.008a.194.194 0 0 1 .047 0h.007a.37.37 0 0 1 .048.015l.014.006a.5.5 0 0 1 .059.029l.315.182a1.161 1.161 0 0 1 .517.895v.364a.168.168 0 0 1-.289.167l-.315-.182a1.16 1.16 0 0 1-.518-.893zm1.576.91v-.364a.25.25 0 0 1 .071-.211.1.1 0 0 1 .036-.01h.008a.191.191 0 0 1 .047 0h.007a.354.354 0 0 1 .047.015l.015.006a.555.555 0 0 1 .059.029l.315.182a1.161 1.161 0 0 1 .517.895v.364a.168.168 0 0 1-.289.167l-.315-.182a1.161 1.161 0 0 1-.514-.893zm3.151 0v-.364a.25.25 0 0 1 .071-.211.091.091 0 0 1 .035-.01h.009a.2.2 0 0 1 .045 0h.009a.342.342 0 0 1 .045.014l.016.006a.578.578 0 0 1 .059.029l.315.182a1.161 1.161 0 0 1 .517.895v.364a.168.168 0 0 1-.289.167l-.315-.182a1.161 1.161 0 0 1-.513-.892zm.9-.708a.525.525 0 0 1-.072-.034l-.315-.182a1.161 1.161 0 0 1-.517-.895v-.364a.25.25 0 0 1 .071-.211.091.091 0 0 1 .036-.01h.008a.191.191 0 0 1 .046 0h.009a.341.341 0 0 1 .046.014l.016.006a.555.555 0 0 1 .059.029l.315.182.025.016s.284 1.447.281 1.446zm-.422-2.058l-.017-.011-.033-.025-.018-.014-.033-.029-.016-.014-.033-.033-.014-.015-.031-.036-.014-.016-.027-.034-.016-.021-.022-.032-.018-.026-.02-.032-.017-.028-.017-.032-.016-.03-.016-.033-.015-.031-.011-.028c0-.012-.01-.024-.015-.036l-.008-.024-.014-.041-.009-.032-.009-.032c-.003-.01 0-.023-.007-.035s0-.02-.006-.029-.006-.041-.008-.062 0-.043 0-.063v-.364-.038a.218.218 0 0 1 .07-.173.092.092 0 0 1 .035-.01h.009a.187.187 0 0 1 .027 0h.027l.03.009.031.011h.007l.279 1.451zm-.438-2.432a.967.967 0 0 1-.026-.1v-.017a.818.818 0 0 1-.012-.1l.046.214zm-.5 1.2v.364a.168.168 0 0 1-.289.167l-.315-.182a1.161 1.161 0 0 1-.517-.895v-.364a.249.249 0 0 1 .071-.211.09.09 0 0 1 .036-.01h.008a.193.193 0 0 1 .046 0h.008a.355.355 0 0 1 .046.014l.015.006a.527.527 0 0 1 .059.029l.315.182a1.16 1.16 0 0 1 .526.893zm-1.576-.91v.364a.168.168 0 0 1-.289.167l-.315-.182a1.161 1.161 0 0 1-.517-.895v-.364a.25.25 0 0 1 .071-.211.091.091 0 0 1 .036-.01h.008a.192.192 0 0 1 .046 0h.009a.353.353 0 0 1 .045.014l.016.006a.531.531 0 0 1 .059.029l.315.182a1.161 1.161 0 0 1 .525.893zm-1.576-.91v.364a.168.168 0 0 1-.289.167l-.315-.182a1.161 1.161 0 0 1-.517-.895v-.364-.038a.217.217 0 0 1 .07-.173.093.093 0 0 1 .036-.01h.008a.187.187 0 0 1 .046 0h.008a.34.34 0 0 1 .046.014l.015.006a.519.519 0 0 1 .059.029l.315.182a1.161 1.161 0 0 1 .528.893zm-1.576-.91v.364a.168.168 0 0 1-.289.167l-.315-.182a1.161 1.161 0 0 1-.517-.895v-.364a.25.25 0 0 1 .071-.211.093.093 0 0 1 .036-.01h.008a.2.2 0 0 1 .046 0h.009a.356.356 0 0 1 .045.014l.015.006a.52.52 0 0 1 .059.029l.315.182a1.161 1.161 0 0 1 .527.894zm-3.593-.844a.917.917 0 0 1 .081.069l.007.007a1.065 1.065 0 0 1 .078.084 1.205 1.205 0 0 1 .072.1l.008.011c.021.032.04.065.058.1l.009.016c.017.033.033.067.047.1l.007.018q.021.051.036.1v.016a.931.931 0 0 1 .023.105.108.108 0 0 1 0 .011.755.755 0 0 1 .009.107v.364a.168.168 0 0 1-.289.167l-.157-.091-.158-.091a.647.647 0 0 1-.057-.037l-.018-.014-.037-.03-.008-.007.275-1.111zm.9 6.667v-.364a.251.251 0 0 1 .071-.211.094.094 0 0 1 .036-.01h.009a.185.185 0 0 1 .046 0h.008a.342.342 0 0 1 .046.014l.015.006a.542.542 0 0 1 .059.029l.315.182a1.161 1.161 0 0 1 .517.895v.364a.168.168 0 0 1-.289.167l-.315-.182a1.161 1.161 0 0 1-.511-.897zm1.575.91v-.364a.251.251 0 0 1 .071-.211.093.093 0 0 1 .036-.01h.008a.2.2 0 0 1 .046 0h.008a.356.356 0 0 1 .046.014l.015.006a.528.528 0 0 1 .059.029l.315.182a1.162 1.162 0 0 1 .517.895v.364a.168.168 0 0 1-.289.167l-.315-.182a1.162 1.162 0 0 1-.51-.897zm1.576.91v-.364a.25.25 0 0 1 .071-.211.092.092 0 0 1 .035-.01h.009a.192.192 0 0 1 .046 0h.008a.349.349 0 0 1 .046.014l.015.006a.534.534 0 0 1 .059.029l.315.182a1.161 1.161 0 0 1 .517.895v.364a.168.168 0 0 1-.289.167l-.315-.182a1.161 1.161 0 0 1-.514-.897zm1.576.91v-.375a.251.251 0 0 1 .071-.211.093.093 0 0 1 .036-.01h.008a.191.191 0 0 1 .046 0h.008a.335.335 0 0 1 .046.014l.015.006a.531.531 0 0 1 .059.029l.315.182a1.16 1.16 0 0 1 .517.895v.364a.168.168 0 0 1-.289.167l-.315-.182a1.161 1.161 0 0 1-.51-.887zm1.576.91v-.364a.249.249 0 0 1 .071-.211.091.091 0 0 1 .035-.01h.009a.2.2 0 0 1 .046 0h.009a.343.343 0 0 1 .046.014l.015.006a.528.528 0 0 1 .059.029l.315.182a1.161 1.161 0 0 1 .517.895v.364a.168.168 0 0 1-.289.167l-.315-.182a1.161 1.161 0 0 1-.512-.898zm.6-9.446a1.161 1.161 0 0 1 .517.895v.364a.168.168 0 0 1-.289.167l-.315-.182a1.161 1.161 0 0 1-.517-.895v-.364a.25.25 0 0 1 .071-.211.094.094 0 0 1 .035-.01h.009a.193.193 0 0 1 .045 0h.01a.322.322 0 0 1 .044.014l.016.006a.514.514 0 0 1 .059.029zm-1.576-.91a1.161 1.161 0 0 1 .517.895v.364a.168.168 0 0 1-.289.167l-.315-.182a1.161 1.161 0 0 1-.517-.895v-.364a.251.251 0 0 1 .071-.211.093.093 0 0 1 .036-.01h.008a.194.194 0 0 1 .046 0h.008a.352.352 0 0 1 .046.014l.015.006a.539.539 0 0 1 .058.029zm-1.576-.91a.75.75 0 0 1 .092.064l.01.008.018.016a1.228 1.228 0 0 1 .385.683v.02a.768.768 0 0 1 .008.1v.364a.168.168 0 0 1-.289.167l-.315-.182a1.161 1.161 0 0 1-.517-.895v-.364a.25.25 0 0 1 .071-.211.092.092 0 0 1 .035-.01h.009a.182.182 0 0 1 .045 0h.009a.371.371 0 0 1 .045.014l.016.006a.5.5 0 0 1 .058.028zm-1.576-.91l.033.021.019.012.031.023.02.015.026.023.023.021.028.028.019.019.027.032.018.02.032.041.011.014.024.035.016.023.017.027.02.033.012.021.022.04v.009l.026.055.006.016a1.1 1.1 0 0 1 .042.113.974.974 0 0 1 .027.11v.019a.759.759 0 0 1 .011.125v.364a.168.168 0 0 1-.289.167l-.315-.182a1.162 1.162 0 0 1-.517-.895v-.364a.251.251 0 0 1 .071-.211.092.092 0 0 1 .035-.01h.009a.187.187 0 0 1 .046 0h.008a.34.34 0 0 1 .046.014l.016.006a.531.531 0 0 1 .058.029zm-1.576-.91a.764.764 0 0 1 .092.064l.011.008.018.016a1.229 1.229 0 0 1 .385.683v.02a.769.769 0 0 1 .008.1v.364a.168.168 0 0 1-.289.167l-.315-.182a1.161 1.161 0 0 1-.516-.895v-.364a.251.251 0 0 1 .071-.211.092.092 0 0 1 .035-.01h.009a.2.2 0 0 1 .045 0h.01a.347.347 0 0 1 .044.014l.016.006a.524.524 0 0 1 .059.029zm-1.166 1.388c.011.023.019.044.027.064l.019.045c.006.015.014.042.02.064l.013.042c.004.014.01.047.014.07l.006.034a.733.733 0 0 1 .007.1v.364a.168.168 0 0 1-.289.167l-.045-.026zm1.078 10.773l-.033-.021-.019-.012-.008-.006a1.212 1.212 0 0 1-.446-.731v-.02a.788.788 0 0 1-.008-.1v-.364a.251.251 0 0 1 .071-.211.092.092 0 0 1 .036-.01h.008a.194.194 0 0 1 .046 0h.008a.322.322 0 0 1 .046.014l.016.006a.532.532 0 0 1 .059.029l.315.182a1.161 1.161 0 0 1 .517.895v.364a.168.168 0 0 1-.289.167zm1.576.91l-.033-.021-.019-.012-.031-.023-.02-.015-.026-.023-.023-.021-.028-.028-.019-.02-.027-.032-.018-.02-.031-.041-.011-.014-.024-.035-.016-.023-.017-.027-.02-.033-.012-.021-.022-.04v-.009l-.026-.055-.007-.016c-.016-.037-.03-.075-.042-.113a.991.991 0 0 1-.027-.11v-.019a.759.759 0 0 1-.011-.125v-.374a.25.25 0 0 1 .071-.211.094.094 0 0 1 .036-.01h.008a.2.2 0 0 1 .046 0h.008a.362.362 0 0 1 .046.014l.015.006a.527.527 0 0 1 .059.029l.315.182a1.161 1.161 0 0 1 .517.895v.364a.249.249 0 0 1-.071.211.091.091 0 0 1-.04.011h-.012a.356.356 0 0 1-.166-.054zm1.576.91a.75.75 0 0 1-.092-.064l-.01-.008-.018-.016a1.231 1.231 0 0 1-.385-.683v-.02a.75.75 0 0 1-.008-.1v-.364a.25.25 0 0 1 .071-.211.09.09 0 0 1 .036-.01h.008a.191.191 0 0 1 .046 0h.008a.344.344 0 0 1 .047.014l.015.006a.527.527 0 0 1 .059.029l.315.182a1.16 1.16 0 0 1 .517.895v.364a.168.168 0 0 1-.289.167zm1.576.91l-.034-.021-.018-.012-.031-.023-.02-.015-.026-.023-.023-.021-.028-.028-.019-.02-.028-.031-.017-.02-.032-.041-.011-.014-.024-.035-.016-.023-.017-.027-.02-.033-.012-.022-.022-.041v-.009l-.026-.055-.006-.016a1.132 1.132 0 0 1-.042-.113.968.968 0 0 1-.027-.11v-.019a.746.746 0 0 1-.011-.125v-.364a.25.25 0 0 1 .071-.211.092.092 0 0 1 .036-.01h.008a.2.2 0 0 1 .046 0h.008a.356.356 0 0 1 .047.014l.015.006a.539.539 0 0 1 .059.029l.315.182a1.16 1.16 0 0 1 .517.895V173a.25.25 0 0 1-.071.211.091.091 0 0 1-.04.011h-.015a.2.2 0 0 1-.037 0 .336.336 0 0 1-.056-.017.507.507 0 0 1-.049-.024l-.018-.009zm1.576.91a1.161 1.161 0 0 1-.517-.895v-.364a.25.25 0 0 1 .071-.211.09.09 0 0 1 .035-.01h.008a.186.186 0 0 1 .046 0h.009a.342.342 0 0 1 .045.014l.015.006a.521.521 0 0 1 .059.029l.315.182a1.16 1.16 0 0 1 .517.895v.364a.168.168 0 0 1-.289.167z" transform="translate(-920.392 -157.299)"/>
            </g>
            <g id="그룹_42357" transform="translate(920.98 68.692)">
                <path id="패스_33752" d="M1029.952 194.144a1.082 1.082 0 0 0-.326.918l.821 5.778c.047.329.268.452.5.274a1.082 1.082 0 0 0 .326-.918l-.821-5.778c-.052-.328-.273-.451-.5-.274z" class="cls-5" transform="translate(-1029.618 -187.086)"/>
                <path id="패스_33753" d="M1042.389 186.91a1.081 1.081 0 0 0-.326.918l.821 5.778c.047.329.268.452.5.274a1.082 1.082 0 0 0 .326-.918l-.821-5.778c-.051-.328-.273-.451-.5-.274z" class="cls-5" transform="translate(-1040.341 -180.849)"/>
                <path id="패스_33754" d="M1054.826 179.676a1.081 1.081 0 0 0-.326.918l.821 5.778c.047.329.268.452.495.274a1.081 1.081 0 0 0 .326-.918l-.821-5.778c-.047-.329-.268-.45-.495-.274z" class="cls-5" transform="translate(-1051.064 -174.611)"/>
                <path id="패스_33755" d="M1067.263 172.442a1.081 1.081 0 0 0-.326.918l.821 5.778c.047.329.268.452.495.275a1.081 1.081 0 0 0 .326-.918l-.821-5.778c-.047-.33-.268-.453-.495-.275z" class="cls-5" transform="translate(-1061.788 -168.374)"/>
                <path id="패스_33756" d="M1079.7 165.207a1.081 1.081 0 0 0-.326.918l.821 5.778c.047.329.268.452.495.274a1.081 1.081 0 0 0 .326-.918l-.821-5.778c-.047-.328-.268-.451-.495-.274z" class="cls-5" transform="translate(-1072.511 -162.136)"/>
                <path id="패스_33757" d="M1092.137 157.973a1.081 1.081 0 0 0-.326.918l.821 5.778c.047.329.268.452.5.274a1.082 1.082 0 0 0 .326-.918l-.821-5.778c-.052-.328-.273-.447-.5-.274z" class="cls-5" transform="translate(-1083.235 -155.898)"/>
                <path id="패스_33758" d="M1104.573 150.739a1.082 1.082 0 0 0-.326.918l.821 5.778c.047.329.269.452.5.274a1.082 1.082 0 0 0 .326-.918l-.821-5.778c-.051-.329-.273-.452-.5-.274z" class="cls-5" transform="translate(-1093.958 -149.661)"/>
                <path id="패스_33759" d="M1117.01 143.5a1.082 1.082 0 0 0-.326.918l.821 5.778c.047.329.269.452.5.274a1.081 1.081 0 0 0 .326-.918l-.821-5.778c-.051-.324-.273-.447-.5-.274z" class="cls-5" transform="translate(-1104.681 -143.423)"/>
            </g>
            <path id="패스_33760" d="M1032.41 162.715l-.732-.423-.782.458-3.518 2.063-4.3 2.521-10.319 6.05.732.422a1.4 1.4 0 0 1 .633 1.1v.179l11.1-6.509 3.056-1.791 3.257-1.91.723-.424.4-.232.386-.226v-.179a1.4 1.4 0 0 0-.636-1.099z" class="cls-7" transform="translate(-94.103 -91.001)"/>
            <g id="그룹_42358" transform="translate(918.235 62.105)">
                <path id="패스_33761" d="M1011 97.76a6.969 6.969 0 0 1 6.306 0 2.738 2.738 0 0 1 1.14 1.125c.42-.866.04-1.835-1.14-2.516a6.97 6.97 0 0 0-6.306 0c-1.18.681-1.559 1.65-1.14 2.516a2.737 2.737 0 0 1 1.14-1.125z" class="cls-8" transform="translate(-1009.698 -95.615)"/>
                <path id="패스_33762" fill="#92d23e" d="M1012.037 108.714a6.969 6.969 0 0 0 6.306 0 2.737 2.737 0 0 0 1.14-1.125 2.738 2.738 0 0 0-1.14-1.125 6.969 6.969 0 0 0-6.306 0 2.738 2.738 0 0 0-1.14 1.125 2.739 2.739 0 0 0 1.14 1.125z" transform="translate(-1010.732 -104.32)"/>
            </g>
            <g id="그룹_42360" transform="translate(919.559 63.46)">
                <g id="그룹_42359">
                    <path id="패스_33763" d="M1024.986 106.213l-.43-.248a4.622 4.622 0 0 0-4.239 0 1.59 1.59 0 0 0 0 2.959l.873-.519-.43-.248c-.359-.207-.565-.467-.565-.712s.206-.505.565-.712a3.769 3.769 0 0 1 3.353 0z" class="cls-8" transform="translate(-1019.309 -105.45)"/>
                </g>
            </g>
            <g id="그룹_42362" transform="translate(920.078 62.105)">
                <path id="패스_33764" d="M1027.4 96.179l.209.015-.52-.321c-.035-.025-.072-.049-.11-.072l-.039-.021-.012-.008a1.773 1.773 0 0 0-1.733.161 4.621 4.621 0 0 0-2.12 3.671v.5l.548.341a5.935 5.935 0 0 1 2.015-3.742.732.732 0 0 1 1.234.712v.5l.548.341.338-.838a2.041 2.041 0 0 0-.358-1.239z" class="cls-4" transform="translate(-1023.075 -95.615)"/>
                <g id="그룹_42361" transform="translate(.548 .34)">
                    <path id="패스_33765" d="M1027.052 102.573v-.5a4.621 4.621 0 0 1 2.12-3.671 1.59 1.59 0 0 1 2.563 1.479l-.886.5v-.5a.731.731 0 0 0-1.234-.712 3.768 3.768 0 0 0-1.677 2.9z" class="cls-5" transform="translate(-1027.052 -98.085)"/>
                </g>
            </g>
        </g>
    </g>
</svg>
