<svg xmlns="http://www.w3.org/2000/svg" width="48" height="48" viewBox="0 0 48 48">
    <g>
        <path fill="#626572" d="M1322.551 406.664a1.013 1.013 0 0 0-.6-1.856l-6.75-.736a1.3 1.3 0 0 1-.924-.646l-2.8-6.189a1.014 1.014 0 0 0-1.951 0l-2.785 6.155a1.292 1.292 0 0 1-.9.674l-6.783.741a1.011 1.011 0 0 0-.6 1.854l5.049 4.565a.625.625 0 1 0 .838-.927l-4.738-4.294 6.407-.7a2.578 2.578 0 0 0 1.858-1.364l2.641-5.82 2.653 5.853a2.573 2.573 0 0 0 1.875 1.336l6.377.7-4.767 4.311a2.555 2.555 0 0 0-.7 2.191l1.3 6.25-5.6-3.181a2.575 2.575 0 0 0-2.305.016l-5.578 3.16.914-4.383a.625.625 0 1 0-1.224-.255l-1 4.783a1.074 1.074 0 0 0 .352 1.17.94.94 0 0 0 .555.175 1.343 1.343 0 0 0 .669-.2l5.9-3.35a1.3 1.3 0 0 1 1.13-.016l5.926 3.366a1.012 1.012 0 0 0 1.576-1.146l-1.381-6.611a1.28 1.28 0 0 1 .333-1.069z" transform="translate(9 9) translate(-1295.5 -393.375)"/>
    </g>
    <path d="M177.03 255.635a24 24 0 1 1 24-24 24.028 24.028 0 0 1-24 24zm0-47a23 23 0 1 0 23 23 23.026 23.026 0 0 0-23-23z" opacity="0.1" transform="translate(-153.03 -207.635)"/>
</svg>
