<svg xmlns="http://www.w3.org/2000/svg" width="96" height="96" viewBox="0 0 96 96">
    <defs>
        <linearGradient id="linear-gradient" x1="-3.44" x2="-3.438" y1="-2.028" y2="-2.031" gradientUnits="objectBoundingBox">
            <stop offset="0" stop-color="#ba7f37"/>
            <stop offset="1" stop-color="#98541e"/>
        </linearGradient>
        <style>
            .cls-2{fill:#c49222}.cls-9{fill:#bcbec0}.cls-10{fill:#d1d3d4}.cls-11{fill:#4f3037}.cls-12{fill:#381a22}.cls-13{fill:#601612}.cls-14{fill:#2b151a}.cls-15{fill:#bf9692}.cls-16{fill:#93666d}.cls-17{fill:#d7b2a7}.cls-19{fill:#6b464c}.cls-22{fill:#ffc134}.cls-23{fill:#ff5d02}.cls-24{fill:#ff7308}.cls-25{fill:#df9b39}.cls-26{fill:#fff3e0}.cls-27{fill:#ffffef}.cls-28{fill:#ce4504}.cls-30{fill:#392126}.cls-35{fill:#3b5974}
        </style>
    </defs>
    <g id="img_login_illust_car" transform="translate(-253 -101)">
        <g id="그룹_40317" transform="translate(294.296 106.39)">
            <path id="패스_30263" d="M1639.036 1151.268l-23.9-13.754c-5.157-2.969-9.338-.719-9.338 5.027v19.786c0 5.746 4.182 12.809 9.338 15.778l22.834 13.142-1.295 6.482 8.607-4.945c1.9-.812 3.091-2.883 3.091-5.952v-19.785c.002-5.747-4.179-12.811-9.337-15.779z" class="cls-2" transform="translate(-1596.67 -1114.914)"/>
            <path id="패스_30264" fill="#f7a60f" d="M1605.8 1215.085l1.438 29.126 1.341.772-1.045 5.229.053 1.078 8.3-4.77c1.9-.812 3.091-2.884 3.091-5.951v-19.786a18.981 18.981 0 0 0-3.6-10.277z" transform="translate(-1567.277 -1168.652)"/>
            <path id="패스_30265" fill="#ffd96e" d="M1647.047 1151.268l-23.9-13.754c-5.158-2.969-9.338-.719-9.338 5.027v2.66l26.46 21.831 13.889-8a19.671 19.671 0 0 0-7.111-7.764z" transform="translate(-1604.682 -1114.914)"/>
            <path id="패스_30266" fill="#ffde55" d="M1759.551 1139.146l-8.727 4.961 1.1 3.9 4.837 1.4.479-.114v-4.622z" transform="translate(-1748.108 -1117.043)"/>
            <g id="그룹_40313" transform="translate(0 26.5)">
                <path id="패스_30267" fill="#fc3" d="M1681.26 1205.656c0 5.746-4.181 8-9.339 5.028l-23.9-13.755c-5.158-2.968-9.339-10.032-9.34-15.778v-19.786c0-5.745 4.182-8 9.339-5.027l23.9 13.754c5.158 2.969 9.339 10.033 9.339 15.778z" transform="translate(-1638.686 -1155.03)"/>
                <path id="패스_30268" fill="#fdd248" d="M1653.384 1201.5c-4.014-2.31-7.278-7.792-7.278-12.22v-19.79c0-4.429 3.266-6.152 7.278-3.842l23.9 13.755c4.014 2.309 7.279 7.792 7.279 12.221v19.784c0 4.428-3.265 6.152-7.279 3.842z" transform="translate(-1644.045 -1161.967)"/>
                <path id="패스_30269" fill="#a16912" d="M1709.169 1249.546l-2.638-7.88c.821-.033 1.381-.708 1.381-1.855a5.748 5.748 0 0 0-2.609-4.506c-1.441-.83-2.609-.158-2.609 1.5a5.714 5.714 0 0 0 1.381 3.445l-2.639 4.842z" transform="translate(-1684.014 -1212.831)"/>
                <path id="패스_30270" d="M1701.58 1270.65l7.417 4.269.173.446-7.734-4.45z" class="cls-2" transform="translate(-1684.015 -1238.65)"/>
            </g>
            <g id="그룹_40316" transform="translate(7.081)">
                <g id="그룹_40314" transform="translate(3.607 .035)">
                    <path id="패스_30271" d="M1635.966 1084.977l-4.12-2.372v-14.649c0-7.628 5.392-10.731 12.018-6.917l9.751 5.613c6.626 3.813 12.017 13.122 12.017 20.75v14.11l-4.12-2.371v-14.11c0-5.013-3.542-11.129-7.9-13.635l-9.751-5.613c-4.354-2.507-7.9-.467-7.9 4.546z" class="cls-9" transform="translate(-1631.846 -1059.408)"/>
                </g>
                <path id="패스_30272" d="M1644.392 1060.948l9.751 5.614c6.626 3.813 12.017 13.121 12.017 20.749v14.11l-3.608 2.069v-4.143l-.515-.3-1.037-13.81c0-5.012-3.172-9-6.853-13.934l-9.751-5.612c-2.716-1.563-5.115-1.358-6.537.234l-3.559-4.449-2.45.992c3.772-2.718 7.492-4.768 12.542-1.52z" class="cls-10" transform="translate(-1628.767 -1059.282)"/>
                <g id="그룹_40315" transform="translate(0 2.103)">
                    <path id="패스_30273" d="M1648.962 1092.45l-4.12-2.371v-14.65c0-7.628 5.391-10.731 12.017-6.917l9.751 5.612c6.626 3.815 12.017 13.123 12.017 20.75v14.111l-4.12-2.371V1092.5c0-5.012-3.542-11.128-7.9-13.635l-9.751-5.613c-4.354-2.506-7.9-.468-7.9 4.545z" class="cls-10" transform="translate(-1644.842 -1066.881)"/>
                </g>
                <path id="패스_30274" d="M1738.7 1142.386l3.607-2.069v-3.733l-3.607-.659z" class="cls-9" transform="translate(-1734.584 -1114.712)"/>
            </g>
        </g>
        <g id="YELLOW_HATCHBACK" transform="translate(262.115 152.776)">
            <path id="패스_1" d="M2146.626 1530.687l-1.207-1.2v-1.158l1.4 1.1.188.8z" class="cls-11" transform="translate(-2138.37 -1512.597)"/>
            <path id="패스_2" d="M2155.147 1537.292v-1.082l.411.086v.978z" class="cls-12" transform="translate(-2146.922 -1519.53)"/>
            <path id="패스_4" d="M2410.343 1561.7l.436-2.541-2.292.319 1.458 1.991z" class="cls-13" transform="translate(-2369.623 -1539.712)"/>
            <g id="그룹_1" transform="translate(35.072 19.453)">
                <path id="패스_5" d="M2380.674 1559.349a1.457 1.457 0 0 0-1.47.142 4.567 4.567 0 0 0-2.073 3.58 1.449 1.449 0 0 0 .609 1.339l1.106.637a1.454 1.454 0 0 0 1.472-.141 4.567 4.567 0 0 0 2.073-3.581 1.45 1.45 0 0 0-.611-1.341z" class="cls-14" transform="translate(-2377.131 -1559.209)"/>
                <path id="패스_6" d="M2390.488 1566a4.567 4.567 0 0 1-2.073 3.581c-1.145.659-2.073.125-2.073-1.194a4.567 4.567 0 0 1 2.073-3.58c1.145-.658 2.073-.124 2.073 1.193z" class="cls-12" transform="translate(-2385.228 -1563.885)"/>
                <path id="패스_7" d="M2395.115 1574.524a2.533 2.533 0 0 0-1.152 1.989c0 .732.515 1.029 1.152.663a2.536 2.536 0 0 0 1.152-1.99c-.001-.732-.517-1.028-1.152-.662z" class="cls-15" transform="translate(-2391.927 -1572.539)"/>
                <path id="패스_8" d="M2395.176 1577.64a2.394 2.394 0 0 0 1.086-1.875.826.826 0 0 0-.234-.64.831.831 0 0 0-.673.118 2.391 2.391 0 0 0-1.086 1.876.531.531 0 0 0 .905.521z" class="cls-16" transform="translate(-2392.169 -1573.183)"/>
                <path id="패스_9" d="M2398.131 1579.642a.434.434 0 0 0-.375.057 1.282 1.282 0 0 0-.58 1 .407.407 0 0 0 .168.373c.031.017.165.1.2.116a.424.424 0 0 0 .389-.052 1.279 1.279 0 0 0 .581-1 .405.405 0 0 0-.171-.374c-.027-.017-.166-.102-.212-.12z" class="cls-15" transform="translate(-2394.75 -1577.161)"/>
                <path id="패스_10" d="M2399.841 1580.878a1.278 1.278 0 0 1-.581 1c-.321.185-.581.035-.581-.334a1.277 1.277 0 0 1 .581-1c.322-.185.581-.035.581.334z" class="cls-17" transform="translate(-2396.074 -1577.902)"/>
                <path id="패스_11" d="M2395.5 1573.994a2.8 2.8 0 0 1-1.272 2.2c-.7.4-1.272.077-1.272-.732a2.8 2.8 0 0 1 1.272-2.2c.708-.403 1.272-.075 1.272.732zm-1.272-.519a2.391 2.391 0 0 0-1.086 1.877c0 .69.486.971 1.086.625a2.394 2.394 0 0 0 1.087-1.876c0-.691-.487-.971-1.086-.626z" class="cls-17" transform="translate(-2391.046 -1571.416)"/>
            </g>
            <path id="패스_12" d="M2266.574 1645.509l.447-2.522-2.143.311 1.3 1.981z" class="cls-13" transform="translate(-2243.383 -1613.432)"/>
            <g id="그룹_2" transform="translate(17.568 29.46)">
                <path id="패스_13" d="M2235.944 1642.908a1.459 1.459 0 0 0-1.47.142 4.567 4.567 0 0 0-2.073 3.58 1.45 1.45 0 0 0 .609 1.339l1.105.637a1.457 1.457 0 0 0 1.473-.141 4.567 4.567 0 0 0 2.073-3.581 1.448 1.448 0 0 0-.612-1.341z" class="cls-14" transform="translate(-2232.401 -1642.7)"/>
                <path id="타원_1" d="M2.922 0C4.537 0 5.848.762 5.85 1.7S4.543 3.384 2.928 3.381 0 2.619 0 1.685 1.307 0 2.922 0z" class="cls-12" transform="rotate(-59.999 4.517 2.308)"/>
                <path id="패스_14" d="M2250.379 1658.081a2.536 2.536 0 0 0-1.153 1.989c0 .732.516 1.029 1.152.663a2.538 2.538 0 0 0 1.152-1.989c0-.732-.516-1.029-1.151-.663z" class="cls-15" transform="translate(-2247.191 -1656.029)"/>
                <path id="패스_15" d="M2250.445 1661.2a2.392 2.392 0 0 0 1.087-1.875.829.829 0 0 0-.234-.64.831.831 0 0 0-.673.118 2.4 2.4 0 0 0-1.086 1.876.531.531 0 0 0 .906.521z" class="cls-16" transform="translate(-2247.439 -1656.675)"/>
                <path id="패스_16" d="M2253.4 1663.2a.431.431 0 0 0-.375.057 1.278 1.278 0 0 0-.581 1 .4.4 0 0 0 .168.374c.031.017.165.1.2.116a.425.425 0 0 0 .389-.052 1.278 1.278 0 0 0 .581-1 .4.4 0 0 0-.17-.374c-.026-.021-.167-.102-.212-.121z" class="cls-15" transform="translate(-2250.019 -1660.652)"/>
                <path id="패스_17" d="M2255.108 1664.437a1.278 1.278 0 0 1-.581 1c-.321.185-.581.035-.581-.334a1.281 1.281 0 0 1 .581-1c.321-.185.581-.035.581.334z" class="cls-17" transform="translate(-2251.341 -1661.392)"/>
                <path id="패스_18" d="M2250.773 1657.554a2.8 2.8 0 0 1-1.272 2.195c-.7.4-1.272.077-1.272-.732a2.8 2.8 0 0 1 1.272-2.2c.699-.399 1.272-.072 1.272.737zm-1.272-.519a2.393 2.393 0 0 0-1.087 1.876c0 .69.487.97 1.087.625a2.393 2.393 0 0 0 1.086-1.876c0-.691-.486-.971-1.085-.625z" class="cls-17" transform="translate(-2246.315 -1654.907)"/>
            </g>
            <path id="패스_19" fill="url(#linear-gradient)" d="M2224.87 1527.93l-12.645 7.281a3.784 3.784 0 0 0 .032-.42c0-1.568-1.1-2.2-2.466-1.419a5.43 5.43 0 0 0-2.466 4.259 3.092 3.092 0 0 0 .022.389l-3.339 1.883-.956-1.981.963-3.768 7.262-6.19 19.931-10.395v6.714l-1.455.841a3.524 3.524 0 0 0 .024-.413c0-1.568-1.1-2.2-2.466-1.419a5.429 5.429 0 0 0-2.466 4.258 2.929 2.929 0 0 0 .025.38z" transform="translate(-2189.032 -1503.136)"/>
            <path id="패스_20" d="M2155.354 1544.724l-.207-.207.458-.09z" class="cls-16" transform="translate(-2146.922 -1526.757)"/>
            <path id="패스_21" d="M2146.6 1528.5l-1.177-1.173.412-.137 1.177 1.173z" class="cls-16" transform="translate(-2138.37 -1511.599)"/>
            <path id="패스_22" d="M2155.147 1544.181l.411-.136.07.069z" class="cls-19" transform="translate(-2146.922 -1526.42)"/>
            <path id="패스_23" fill="#cc8b2d" d="M2270.78 1470.393l3.34-14.48 12.5-5.056 4.128 8.044z" transform="translate(-2248.57 -1444.468)"/>
            <path id="패스_24" fill="#ffc855" d="M2163.909 1456.288l-4.771 16.048-15.359-5.216 7.514-13.524a1.225 1.225 0 0 1 .883-.528" transform="translate(-2136.929 -1446.412)"/>
            <path id="패스_25" d="M2204.956 1681.106l-.468-2.242 2.83-1.159v2.042z" class="cls-12" transform="translate(-2190.295 -1643.964)"/>
            <path id="패스_26" d="M2087.139 1621.038V1619l14.661 8.239v2.241z" class="cls-11" transform="translate(-2087.139 -1592.334)"/>
            <path id="패스_27" d="M2087.139 1616.589l.573-.33 14.017 8.341.212-.1.3.268-.441.254z" class="cls-16" transform="translate(-2087.139 -1589.927)"/>
            <path id="패스_28" d="M2107.552 1596.645l-.428 3.992-13.848-7.971.391-3.656z" class="cls-22" transform="translate(-2092.533 -1565.964)"/>
            <path id="패스_29" d="M2209.8 1675.769l.406.234-1.92 1.105-.351-.2-.161.03z" class="cls-19" transform="translate(-2193.188 -1642.262)"/>
            <path id="패스_30" d="M2090.068 1596.9l.624.091-.47 2.362-.392-.226z" class="cls-23" transform="translate(-2089.505 -1572.901)"/>
            <path id="패스_31" d="M2092.269 1594.805l.157.09-.115.2-.509-.293.5-.287z" class="cls-24" transform="translate(-2091.238 -1570.807)"/>
            <path id="패스_32" d="M2116.328 1608.839l8.218 4.73-.444 2.109-7.381-4.248z" class="cls-11" transform="translate(-2112.797 -1583.402)"/>
            <path id="패스_33" d="M2186 1670.03l-.117.879-3.011-1.733-.019-.09z" class="cls-25" transform="translate(-2171.278 -1636.385)"/>
            <path id="패스_34" d="M2180.624 1649.184l3.208 1.578-.472 2.362-2.975-1.712z" class="cls-26" transform="translate(-2169.107 -1618.882)"/>
            <path id="패스_35" d="M2182.59 1648.072l2.974 1.712-.11.2-3.1-1.782z" class="cls-27" transform="translate(-2170.841 -1617.904)"/>
            <path id="패스_36" d="M2210.171 1661.373l.391-.226.235.135z" class="cls-28" transform="translate(-2195.291 -1629.403)"/>
            <path id="패스_37" d="M2205.938 1663.421l-.567 2.417-.391-.226.237-2.228z" class="cls-23" transform="translate(-2190.728 -1631.371)"/>
            <path id="패스_38" fill="#9d3501" d="M2209.079 1664.354l-.862.5.259-2.417.6-.17z" transform="translate(-2193.573 -1630.385)"/>
            <path id="패스_39" d="M2207.967 1662.133l-.625.359-.391-.226.232-.134.157.09.593-.109z" class="cls-24" transform="translate(-2192.461 -1630.253)"/>
            <path id="패스_40" d="M2096.691 1617.561l-.035.326-3.251-1.872.03-.284z" class="cls-25" transform="translate(-2092.647 -1589.462)"/>
            <path id="패스_41" d="M2116.107 1613.855l.658-2 .086.4-.2 1.9z" class="cls-30" transform="translate(-2112.604 -1586.052)"/>
            <path id="패스_42" d="M2093.06 1601l.239-2.228 3.207 1.578-.472 2.362z" class="cls-26" transform="translate(-2092.344 -1574.545)"/>
            <path id="패스_43" d="M2117.654 1614.064l.254-2.383.217.021-.238 2.229z" class="cls-17" transform="translate(-2113.964 -1585.901)"/>
            <path id="패스_44" d="M2098.237 1599.365l-.232.134-2.975-1.712.233-.134z" class="cls-27" transform="translate(-2094.076 -1573.564)"/>
            <path id="패스_45" d="M2426.826 1558.959l-.217 2.321-.407-.233V1559z" class="cls-30" transform="translate(-2385.195 -1539.536)"/>
            <path id="패스_46" d="M2431.062 1556.136l-1.505.866v-2.224l1.505-.683z" class="cls-12" transform="translate(-2388.144 -1535.257)"/>
            <path id="패스_47" d="M2426.609 1553.818l-.407-.234.778-.447.861-.341.272.156z" class="cls-19" transform="translate(-2385.195 -1534.116)"/>
            <path id="패스_48" fill="#7f2000" d="M2433.49 1540.607l-.626.36-.235-1.937.861-.226z" transform="translate(-2390.845 -1521.81)"/>
            <path id="패스_49" fill="#ce3801" d="M2432.629 1542.48v-1.8h.235v1.937z" transform="translate(-2390.845 -1523.459)"/>
            <path id="패스_50" d="M2432.629 1537.062l.391-.226v-.27l.471.27-.626.361z" class="cls-28" transform="translate(-2390.845 -1519.843)"/>
            <path id="패스_51" fill="#ffd752" d="M2220.632 1398l10.637 6.122a.246.246 0 0 1 0 .426l-11.58 6.666a.991.991 0 0 1-.988 0l-10.637-6.122a.245.245 0 0 1-.091-.336.243.243 0 0 1 .091-.09l11.581-6.665a.991.991 0 0 1 .987-.001z" transform="translate(-2193.33 -1397.866)"/>
            <path id="패스_52" fill="#7fabcc" d="M2165.644 1475.659l10.437 6.007a1.344 1.344 0 0 0 1.833-.488 1.33 1.33 0 0 0 .125-.29l2.587-8.7a1.335 1.335 0 0 0-.616-1.539l-8.775-5.051a1.344 1.344 0 0 0-1.832.488l-.017.029-4.248 7.745a1.335 1.335 0 0 0 .506 1.799z" transform="translate(-2155.559 -1457.272)"/>
            <path id="패스_53" d="M2279.058 1506.4l5.763-3.318a1.7 1.7 0 0 0 .852-1.372l.481-7.78a.494.494 0 0 0-.74-.457l-3.514 2.023a1.705 1.705 0 0 0-.784.992l-2.779 9.345a.494.494 0 0 0 .72.568z" class="cls-35" transform="translate(-2255.196 -1481.884)"/>
            <path id="패스_54" d="M2348.006 1468.874l-3.22 1.854a1.265 1.265 0 0 0-.631 1.016l-.5 8.017a.494.494 0 0 0 .74.456l5.462-3.143a1.263 1.263 0 0 0 .592-1.418l-1.723-6.482a.494.494 0 0 0-.6-.35.516.516 0 0 0-.12.05z" class="cls-35" transform="translate(-2312.635 -1460.254)"/>
            <path id="패스_55" d="M2103.732 1546.773l13.849 7.971-7.228 5.092-13.85-7.971z" class="cls-22" transform="translate(-2095.372 -1528.819)"/>
            <path id="패스_56" d="M2275.63 1609.215l-.237 1.395-2.394-.8-.233-.331.59-.165v-.543z" class="cls-11" transform="translate(-2250.315 -1583.345)"/>
            <path id="패스_57" d="M2272.579 1614.511v-.3h.1l.156.384z" class="cls-30" transform="translate(-2250.152 -1588.128)"/>
            <path id="패스_58" d="M2272.579 1612.754l.347-.2.265.088-.5.151z" class="cls-19" transform="translate(-2250.152 -1586.669)"/>
            <path id="패스_59" d="M2294.731 1612.431v1.158l-.238.236v-1.335z" class="cls-12" transform="translate(-2269.416 -1586.561)"/>
            <path id="패스_60" d="M2279.914 1607.493l-.238.237-2.038-.677.237-.237z" class="cls-16" transform="translate(-2254.599 -1581.623)"/>
            <path id="패스_61" d="M2273.538 1613.124l.367-.193.129.042v.315z" class="cls-16" transform="translate(-2250.993 -1587.001)"/>
        </g>
    </g>
</svg>
