<svg xmlns="http://www.w3.org/2000/svg" width="120" height="120" viewBox="0 0 120 120">
    <defs>
        <linearGradient id="linear-gradient" x1="-.001" x2=".999" y1=".508" y2=".508" gradientUnits="objectBoundingBox">
            <stop offset="0" stop-color="#ffba83"/>
            <stop offset=".999" stop-color="#ff828b"/>
        </linearGradient>
        <linearGradient id="linear-gradient-2" x2="1" y1=".5" y2=".5" gradientUnits="objectBoundingBox">
            <stop offset="0" stop-color="#25b2fa"/>
            <stop offset="1" stop-color="#5052c9"/>
        </linearGradient>
        <clipPath id="clip-path">
            <circle id="타원_1195" cx="35.143" cy="35.143" r="35.143"/>
        </clipPath>
        <clipPath id="clip-path-3">
            <circle id="타원_1200" cx="40" cy="40" r="40"/>
        </clipPath>
        <filter id="타원_1192" width="95" height="95" x="12" y="16" filterUnits="userSpaceOnUse">
            <feOffset dy="4"/>
            <feGaussianBlur result="blur" stdDeviation="2.5"/>
            <feFlood flood-opacity=".102"/>
            <feComposite in2="blur" operator="in"/>
            <feComposite in="SourceGraphic"/>
        </filter>
        <style>
            .cls-2{fill:#fff}.cls-4{clip-path:url(#clip-path)}.cls-9{fill:url(#linear-gradient-2)}.cls-11{fill:#f4b331}.cls-12{fill:#fcdc4d}.cls-13{opacity:.2}.cls-15{opacity:.4}
        </style>
    </defs>
    <g id="img_challenge_car_10" transform="translate(11.4 6)">
        <g id="그룹_43454" transform="translate(0 5)">
            <g id="그룹_40534" transform="translate(8.271 8.528)">
                <g id="_x35_0_15_">
                    <g filter="url(#타원_1192)" transform="translate(-19.67 -19.53)">
                        <circle id="타원_1192-2" cx="40" cy="40" r="40" class="cls-2" transform="translate(19.5 19.5)"/>
                    </g>
                    <circle id="타원_1193" cx="35.143" cy="35.143" r="35.143" fill="#7ca8ff" transform="translate(4.743 4.743)"/>
                    <g id="그룹_40530" transform="translate(4.743 4.743)">
                        <g id="그룹_40529" class="cls-4">
                            <circle id="타원_1194" cx="35.143" cy="35.143" r="35.143" fill="url(#linear-gradient)"/>
                        </g>
                    </g>
                    <g id="그룹_40531" transform="translate(42.4 50.657)"/>
                </g>
            </g>
            <g id="그룹_40537" transform="translate(13.014 13.271)">
                <g id="그룹_40536" class="cls-4">
                    <path id="패스_30799" fill="#fff" d="M122.788 208.4a10.583 10.583 0 0 1-8.829 12.114 11.359 11.359 0 0 1-2.4.114 12.637 12.637 0 0 1-7.057 9.686c-1.2 3.143-8.229 6.486-17.057 7.857-10.057 1.571-18.657.057-19.2-3.429v-.057a11.99 11.99 0 1 1 8.429-17.971 11.5 11.5 0 0 1 4.486-1.8 10.785 10.785 0 0 1 5.657.629 12.662 12.662 0 0 1 15.4-8.857 10.629 10.629 0 0 1 20.571 1.714z" opacity="0.3" transform="translate(-46.074 -149.656)"/>
                </g>
            </g>
            <g id="그룹_40539" transform="translate(8.1 8.5)">
                <g id="그룹_40538" clip-path="url(#clip-path-3)">
                    <path id="패스_30800" d="M102.457-10.5L89.314-36.3 71.6-32.014l10.857 21.543 20-.029" class="cls-9" transform="translate(-53.457 23.5)"/>
                    <path id="패스_30801" fill="#515efc" d="M109.6-10.5l13.143-25.8 17.714 4.286L129.6-10.471l-20-.029" transform="translate(-80.6 23.5)"/>
                    <path id="패스_30802" d="M117.6-10.5l13.143-25.8 17.714 4.286L137.6-10.471l-20-.029" class="cls-9" transform="translate(-86.314 23.5)"/>
                    <path id="사각형_18007" d="M0 0H22.486V8.829H0z" class="cls-11" transform="translate(28.8 16.514)"/>
                    <circle id="타원_1197" cx="22.286" cy="22.286" r="22.286" class="cls-12" transform="translate(17.771 19.829)"/>
                    <circle id="타원_1198" cx="18.086" cy="18.086" r="18.086" class="cls-11" transform="translate(21.971 24.029)"/>
                    <circle id="타원_1199" cx="15.629" cy="15.629" r="15.629" class="cls-12" transform="translate(24.429 26.486)"/>
                    <path id="패스_30803" d="M126.671 59.071h-21.285a2.488 2.488 0 0 1-2.486-2.486 2.488 2.488 0 0 1 2.486-2.486h21.286a2.487 2.487 0 0 1 2.486 2.486 2.487 2.487 0 0 1-2.487 2.486z" class="cls-12" transform="translate(-75.814 -41.071)"/>
                </g>
            </g>
            <g id="그룹_40541" class="cls-13" transform="translate(39.271 45.586)">
                <path id="패스_30804" d="M120.657 138.329l-2.886 2.857-.571.571 1.457 1.543.571-.571 1.086-1.114v6.6h2.543V138.3h-2.2z" transform="translate(-117.2 -138.3)"/>
                <path id="패스_30805" d="M148.6 141.771a3.418 3.418 0 0 0-2.229.8v-2.029h4.714V138.4h-7.2v5.8l1.771.429a2.693 2.693 0 0 1 1.971-.743c1.029 0 1.543.514 1.543 1.2a1.184 1.184 0 0 1-.086.457 1.566 1.566 0 0 1-1.514.771 3.912 3.912 0 0 1-2.543-.914l-.057-.057-1.371 1.714a5.422 5.422 0 0 0 4 1.457 4.313 4.313 0 0 0 3.543-1.429 3.282 3.282 0 0 0 .657-2.057 3.153 3.153 0 0 0-3.199-3.257z" transform="translate(-136.057 -138.371)"/>
            </g>
            <g id="그룹_40542" transform="translate(39.843 45.014)">
                <path id="패스_30806" d="M122.657 136.329l-3.457 3.429 1.457 1.514 1.086-1.114.571-.571v6.629h2.543V136.3h-2.2z" class="cls-2" transform="translate(-119.2 -136.3)"/>
                <path id="패스_30807" d="M150.6 139.771a3.418 3.418 0 0 0-2.229.8v-2.029h4.714V136.4h-7.2v5.8l1.771.429a2.693 2.693 0 0 1 1.971-.743c1.029 0 1.543.514 1.543 1.2a1.178 1.178 0 0 1-.657 1.029 2.3 2.3 0 0 1-.943.2 3.91 3.91 0 0 1-2.6-.971l-.514.629-.857 1.086a5.422 5.422 0 0 0 4 1.457 4.893 4.893 0 0 0 2.971-.857 3.23 3.23 0 0 0 1.229-2.629 3.153 3.153 0 0 0-3.199-3.259z" class="cls-2" transform="translate(-138.057 -136.371)"/>
            </g>
            <g id="그룹_40543" class="cls-13" transform="translate(41.843 58.814)">
                <path id="패스_30808" d="M127.486 184.8H126.2v3.057h1.286a1.682 1.682 0 0 0 1.371-.6 1.56 1.56 0 0 0-1.371-2.457zm-.486.686h.486a.779.779 0 0 1 .829.829.838.838 0 0 1-.114.457.82.82 0 0 1-.743.4H127z" transform="translate(-126.2 -184.743)"/>
                <path id="패스_30809" d="M139.8 187.571l-1.057-2.771h-1l-1.143 3.057h.857l.086-.286.057-.171h1.257l.143.457h.857zm-1.543-2.086l.086.286.229.686.114.286h-.857z" transform="translate(-133.629 -184.743)"/>
                <path id="패스_30810" d="M149.3 184.8l-.429.743-.229.4-.657-1.114h-.885l1.171 1.829v1.229h.8v-1.229l.943-1.486.2-.314h-.914z" transform="translate(-141.129 -184.743)"/>
                <path id="패스_30811" d="M159.429 185.8c-.343-.057-.514-.114-.514-.286 0-.114.086-.229.286-.229h.057a1.51 1.51 0 0 1 .857.314l.229-.314.2-.257a1.789 1.789 0 0 0-1.229-.429 1.57 1.57 0 0 0-.8.2.861.861 0 0 0-.429.743c0 .714.714.857 1.2.943.314.057.486.114.514.257v.029c0 .143-.171.257-.429.257a1.408 1.408 0 0 1-.914-.343l-.057-.057-.4.657a1.912 1.912 0 0 0 1.343.486 1.257 1.257 0 0 0 1.114-.486.987.987 0 0 0 .143-.514c.029-.714-.657-.857-1.171-.971z" transform="translate(-148.914 -184.6)"/>
            </g>
            <g id="그룹_40544" transform="translate(42.128 58.528)">
                <path id="패스_30812" d="M128.486 183.8H127.2v3.057h1.286a1.875 1.875 0 0 0 1.086-.314 1.478 1.478 0 0 0 .571-1.2 1.5 1.5 0 0 0-1.657-1.543zm.457 2.257a.974.974 0 0 1-.457.114H128v-1.686h.486a.779.779 0 0 1 .829.829.754.754 0 0 1-.372.743z" class="cls-2" transform="translate(-127.2 -183.743)"/>
                <path id="패스_30813" d="M139.743 183.8h-1l-.114.286-1.029 2.771h.857l.057-.171.086-.286h1.257l.143.457h.857zm-.914 1.943l.229-.686.2-.571.429 1.229h-.857z" class="cls-2" transform="translate(-134.629 -183.743)"/>
                <path id="패스_30814" d="M150.3 183.729l-.171.286-.486.829-.057-.114-.6-1.029h-.886l.171.286.971 1.543v1.229h.8v-1.229l1.143-1.829h-.885z" class="cls-2" transform="translate(-142.129 -183.671)"/>
                <path id="패스_30815" d="M160.429 184.8c-.314-.057-.486-.114-.514-.229v-.057c0-.143.086-.229.371-.229a1.386 1.386 0 0 1 .829.286c.029 0 .029.029.057.029l.429-.571a1.789 1.789 0 0 0-1.229-.429 1.2 1.2 0 0 0-1.086.486.863.863 0 0 0-.143.457c0 .714.714.857 1.2.943.314.057.514.143.514.314a.306.306 0 0 1-.286.257c-.057 0-.086.029-.143.029a1.328 1.328 0 0 1-.971-.4l-.229.343-.229.257a1.913 1.913 0 0 0 1.343.486 1.686 1.686 0 0 0 .829-.2.887.887 0 0 0 .429-.8c.029-.715-.657-.858-1.171-.972z" class="cls-2" transform="translate(-149.914 -183.6)"/>
            </g>
            <path id="패스_30816" d="M37.325 137.986l.943 1.886c.029.029.057.057.086.057l2.086.314a.144.144 0 0 1 .086.229l-1.514 1.457c-.029.029-.057.086-.029.114l.343 2.057a.132.132 0 0 1-.2.143l-1.857-.971a.087.087 0 0 0-.114 0l-1.857.971c-.086.057-.2-.029-.2-.143l.343-2.057a.172.172 0 0 0-.029-.114l-1.512-1.458c-.086-.086-.029-.2.086-.229l2.086-.314c.029 0 .086-.029.086-.057l.943-1.886c.024-.114.167-.114.224.001z" class="cls-2" transform="translate(-18.397 -92.429)"/>
            <path id="패스_30817" d="M240.325 136.986l.943 1.886c.029.029.057.057.086.057l2.086.314a.144.144 0 0 1 .086.229l-1.514 1.457c-.029.029-.057.086-.029.114l.343 2.057a.132.132 0 0 1-.2.143l-1.857-.971a.087.087 0 0 0-.114 0l-1.857.971c-.086.057-.2-.029-.2-.143l.343-2.057a.172.172 0 0 0-.029-.114l-1.514-1.457c-.086-.086-.029-.2.086-.229l2.086-.314c.029 0 .086-.029.086-.057l.943-1.886c.026-.115.169-.115.226 0z" class="cls-2" transform="translate(-163.397 -91.714)"/>
            <g id="그룹_40545" class="cls-15" transform="translate(65.3 26.329)">
                <path id="패스_30819" d="M216.471 70.957l-1.971 1.972-1.971 1.943c-.657.657-1.286 1.343-2 1.943a24.927 24.927 0 0 1-2.2 1.686l-.029-.029a21.5 21.5 0 0 1 1.857-2.086c.657-.657 1.371-1.229 2.057-1.857L214.3 72.7l2.114-1.8z" class="cls-2" transform="translate(-208.3 -70.9)"/>
            </g>
            <g id="그룹_40546" class="cls-15" transform="translate(68.929 27.472)">
                <path id="패스_30820" d="M225.943 74.9c-.8.8-1.6 1.571-2.4 2.371-.4.4-.8.8-1.2 1.171-.429.371-.857.714-1.314 1.057l-.029-.028a15.322 15.322 0 0 1 1.143-1.229c.4-.4.829-.743 1.257-1.114.829-.771 1.657-1.514 2.543-2.229z" class="cls-2" transform="translate(-221 -74.9)"/>
            </g>
            <g id="그룹_40547" class="cls-15" transform="translate(24.5 64.843)">
                <path id="패스_30821" d="M73.643 205.757l-1.943 1.972-1.971 1.943c-.657.657-1.286 1.343-2 1.943a24.927 24.927 0 0 1-2.2 1.686l-.029-.029a21.5 21.5 0 0 1 1.857-2.086c.657-.657 1.371-1.229 2.057-1.857L71.5 207.5l2.114-1.8z" class="cls-2" transform="translate(-65.5 -205.7)"/>
            </g>
            <g id="그룹_40548" class="cls-15" transform="translate(28.1 65.986)">
                <path id="패스_30822" d="M83.043 209.7c-.8.8-1.6 1.571-2.4 2.371-.4.4-.8.8-1.2 1.171-.429.371-.857.714-1.314 1.057l-.029-.029a15.323 15.323 0 0 1 1.143-1.229c.4-.4.829-.743 1.257-1.114.829-.771 1.657-1.514 2.543-2.229z" class="cls-2" transform="translate(-78.1 -209.7)"/>
            </g>
        </g>
    </g>
</svg>
