<svg xmlns="http://www.w3.org/2000/svg" width="60" height="60" viewBox="0 0 60 60">
    <defs>
        <style>
            .cls-2{fill:#d09e17}
        </style>
    </defs>
    <g id="img_accident01" transform="translate(-21 -182)">
        <circle id="타원_1435" cx="30" cy="30" r="30" fill="#ffec9d" opacity="0.4" transform="translate(21 182)"/>
        <g id="그룹_44544" transform="translate(1910.187 692.192)">
            <path id="패스_38889" d="M-1853.609-481.262a1 1 0 0 0 .981.808.968.968 0 0 0 .192-.019 1 1 0 0 0 .79-1.173 6.475 6.475 0 0 0-5.13-5.13 1 1 0 0 0-1.174.789 1 1 0 0 0 .79 1.174 4.481 4.481 0 0 1 3.551 3.551z" class="cls-2"/>
            <path id="패스_38890" d="M-1856.858-491.185a1 1 0 0 0-1.1.884 1 1 0 0 0 .883 1.1 8.846 8.846 0 0 1 7.854 7.844 1 1 0 0 0 .992.888 1.069 1.069 0 0 0 .113-.006 1 1 0 0 0 .882-1.106 10.835 10.835 0 0 0-9.624-9.604z" class="cls-2"/>
            <path id="패스_38891" d="M-1851.083-475.915a13.143 13.143 0 0 1-2.869-.714 3.209 3.209 0 0 0-3.377.724l-.848.848a16.578 16.578 0 0 1-5.18-5.179l.853-.853a3.206 3.206 0 0 0 .72-3.372 13.079 13.079 0 0 1-.715-2.879 3.208 3.208 0 0 0-3.158-2.749h-3.332c-.095 0-.184 0-.292.013a3.209 3.209 0 0 0-2.893 3.489 22.861 22.861 0 0 0 3.524 9.958 22.551 22.551 0 0 0 6.9 6.9 22.814 22.814 0 0 0 9.9 3.527 2.52 2.52 0 0 0 .338.017 3.2 3.2 0 0 0 3.184-3.207v-3.276a3.2 3.2 0 0 0-2.755-3.247zm.751 3.22v3.3a1.22 1.22 0 0 1-1.288 1.2 20.851 20.851 0 0 1-9.055-3.224 20.562 20.562 0 0 1-6.291-6.293 20.847 20.847 0 0 1-3.218-9.074 1.2 1.2 0 0 1 1.068-1.3l3.437-.006h.012a1.2 1.2 0 0 1 1.186 1.02 15.072 15.072 0 0 0 .824 3.31 1.2 1.2 0 0 1-.265 1.26l-1.4 1.4a1 1 0 0 0-.162 1.2 18.583 18.583 0 0 0 6.969 6.969 1 1 0 0 0 1.2-.162l1.4-1.4a1.2 1.2 0 0 1 1.266-.269 15.119 15.119 0 0 0 3.294.822 1.2 1.2 0 0 1 1.027 1.215z" class="cls-2"/>
        </g>
    </g>
</svg>
