<svg xmlns="http://www.w3.org/2000/svg" width="190" height="140" viewBox="0 0 190 140">
    <defs>
        <linearGradient id="linear-gradient" x1=".5" x2=".5" y1="-.029" y2=".769" gradientUnits="objectBoundingBox">
            <stop offset="0" stop-color="#42b1ff"/>
            <stop offset="1" stop-color="#4a83e7"/>
        </linearGradient>
        <clipPath id="clip-path"/>
        <style>
            .cls-31,.cls-34{fill:#fff}.cls-3,.cls-4{fill:#ffd41d;stroke:#ffd41d}.cls-3{opacity:.2}.cls-8{opacity:.8}.cls-9{fill:#ceb598}.cls-10,.cls-12,.cls-13,.cls-14,.cls-15,.cls-16,.cls-17,.cls-20,.cls-21,.cls-22,.cls-25,.cls-26,.cls-27,.cls-28,.cls-30,.cls-31,.cls-32,.cls-63,.cls-9{fill-rule:evenodd}.cls-10{fill:#f8f5e1}.cls-12{fill:#493843}.cls-13{fill:#584350}.cls-14{fill:#847980}.cls-15{fill:#f8e9cc}.cls-16{fill:#b19785}.cls-17,.cls-19{fill:#acc260}.cls-20{fill:#b3c865}.cls-21{fill:#efe1cc}.cls-22{fill:#3c2f38}.cls-25{fill:#f4e4bd}.cls-26{fill:#f3d354}.cls-27{fill:#e7b662}.cls-28{fill:#b37d42}.cls-30{fill:#d4dc8d}.cls-32{fill:#f4d79f}.cls-35{fill:#fbfbfc}.cls-36{fill:#f7f7f8}.cls-37{fill:#f3f4f5}.cls-38{fill:#f0f0f1}.cls-39{fill:#ececee}.cls-40{fill:#e8e8ea}.cls-41{fill:#e4e4e7}.cls-42{fill:#e0e1e3}.cls-43{fill:#dcdde0}.cls-44{fill:#d8d9dc}.cls-45{fill:#d4d5d9}.cls-46{fill:#d1d1d5}.cls-47{fill:#cdcdd2}.cls-48{fill:#c9cace}.cls-49{fill:#c5c6cb}.cls-50{fill:#c1c2c7}.cls-57{fill:#d19420}.cls-63{fill:#bf935e}.cls-66{fill:#010d37}.cls-69{fill:#f89ab5}
        </style>
    </defs>
    <g id="img_village_check" transform="translate(-93.521 -72.875)">
        <g id="마스크_그룹_172" clip-path="url(#clip-path)">
            <g id="그룹_42440" transform="translate(7 8)">
                <g id="그룹_42144" transform="translate(98.018 142.827)">
                    <path id="패스_33293" d="M280.733 157.384c11.906-6.572 31.02-6.25 42.692.722s11.485 17.956-.422 24.528-31.018 6.248-42.69-.725-11.486-17.953.42-24.525z" class="cls-3" transform="translate(-271.679 -125.245)"/>
                    <path id="패스_33294" d="M281.094 157.572c12.381-6.834 32.256-6.5 44.393.751s11.942 18.671-.438 25.5-32.253 6.5-44.39-.753-11.946-18.664.435-25.498z" class="cls-3" transform="translate(-209.3 -152.659)"/>
                    <path id="패스_33295" d="M278.92 156.438c9.522-5.256 24.809-5 34.144.578s9.185 14.361-.337 19.617-24.807 5-34.143-.58-9.184-14.359.336-19.615z" class="cls-4" transform="translate(-202.053 -148.493)"/>
                    <path id="패스_33296" d="M279.335 156.654c10.067-5.557 26.228-5.285 36.1.611s9.71 15.182-.356 20.739-26.226 5.283-36.1-.613-9.712-15.18.356-20.737z" class="cls-4" transform="translate(-267.016 -122.565)"/>
                    <path id="선_176" fill="none" stroke="#ffd41d" stroke-width="8px" d="M0 11.979L31.33 0" transform="translate(47.758 24.104)"/>
                </g>
                <g id="그룹_42310" transform="translate(149.676 78.38)">
                    <g id="그룹_42435" opacity="0.4" transform="translate(0 4.486)">
                        <path id="패스_33889" fill="#ab938a" d="M144.4 137.48l12.925 7.52 13.327-7.522-13.327-7.074z" opacity="0.5" transform="translate(-144.404 -95.725)"/>
                        <g id="그룹_42387" class="cls-8" transform="translate(.826)">
                            <g id="그룹_42381" transform="translate(0 3.116)">
                                <path id="패스_33721" d="M1411.8 1373.807v30.536l-12.07 7.005v-30.536z" class="cls-9" transform="translate(-1387.658 -1366.511)"/>
                                <path id="패스_33722" d="M1175.089 1380.812v30.536l-12.07-7.005v-30.536z" class="cls-10" transform="translate(-1163.019 -1366.511)"/>
                                <path id="패스_33723" fill="#ead7ba" fill-rule="evenodd" d="M1163.02 1243.423l12.07-7.005 12.07 7.005-12.07 7.006z" transform="translate(-1163.02 -1236.127)"/>
                                <g id="그룹_42349" transform="translate(0 8.633)">
                                    <g id="그룹_42347">
                                        <path id="패스_33724" d="M1175.089 1406.969l-12.07-6.933v4.974l12.07 6.931z" class="cls-12" transform="translate(-1163.019 -1400.037)"/>
                                        <path id="패스_33725" d="M1175.089 1443.558l-9.126-5.242-2.943 1.425v1.6l10.138 5.822 1.931-.781z" class="cls-13" transform="translate(-1163.019 -1436.365)"/>
                                    </g>
                                    <g id="그룹_42348" transform="translate(.001)">
                                        <path id="패스_33726" d="M1175.1 1411.95v-4.972l-.1-.057v4.973l.1.057zm-2.978-6.683l-.1-.057v4.973l.1.057v-4.973zm-3.178-1.825l-.1-.057v4.973l.1.057v-4.973zm-2.978-1.711l-.1-.057v4.974l.1.057v-4.974zm-2.835-1.628l-.1-.057v4.974l.1.057z" class="cls-14" transform="translate(-1163.033 -1400.046)"/>
                                        <path id="패스_33727" d="M1175.1 1446.46v-2.822l-.1-.057v2.919l.1-.04zm-2.978-4.533l-.1-.057v4.712l.1.057v-4.712zm-3.178-1.825l-.1-.057v4.712l.1.057v-4.714zm-2.978-1.7l-.1.048v4.6l.1.057v-4.7zm-2.835 1.372l-.1.048v1.6l.1.057z" class="cls-14" transform="translate(-1163.033 -1436.445)"/>
                                    </g>
                                </g>
                                <g id="그룹_42352" transform="translate(0 16.155)">
                                    <g id="그룹_42350">
                                        <path id="패스_33728" d="M1175.089 1554.487l-12.07-6.933v4.974l12.07 6.931z" class="cls-12" transform="translate(-1163.019 -1547.554)"/>
                                        <path id="패스_33729" d="M1175.089 1591.075l-9.126-5.242-2.943 1.425v1.6l10.138 5.822 1.931-.781z" class="cls-13" transform="translate(-1163.019 -1583.881)"/>
                                    </g>
                                    <g id="그룹_42351" transform="translate(.001)">
                                        <path id="패스_33730" d="M1175.1 1559.465v-4.972l-.1-.057v4.973l.1.057zm-2.978-6.683l-.1-.057v4.973l.1.057v-4.973zm-3.178-1.825l-.1-.057v4.973l.1.057v-4.973zm-2.978-1.711l-.1-.057v4.974l.1.057v-4.974zm-2.835-1.628l-.1-.057v4.974l.1.057z" class="cls-14" transform="translate(-1163.033 -1547.561)"/>
                                        <path id="패스_33731" d="M1175.1 1593.978v-2.822l-.1-.057v2.919l.1-.04zm-2.978-4.533l-.1-.057v4.712l.1.057v-4.712zm-3.178-1.826l-.1-.057v4.712l.1.057v-4.712zm-2.978-1.7l-.1.048v4.6l.1.057v-4.7zm-2.835 1.372l-.1.048v1.6l.1.057z" class="cls-14" transform="translate(-1163.033 -1583.962)"/>
                                    </g>
                                </g>
                                <g id="그룹_42355" transform="translate(0 23.448)">
                                    <g id="그룹_42353">
                                        <path id="패스_33732" d="M1175.089 1697.511l-12.07-6.933v4.974l12.07 6.932z" class="cls-12" transform="translate(-1163.019 -1690.579)"/>
                                        <path id="패스_33733" d="M1175.089 1734.1l-9.126-5.242-2.943 1.425v1.6l10.138 5.822 1.931-.781z" class="cls-13" transform="translate(-1163.019 -1726.907)"/>
                                    </g>
                                    <g id="그룹_42354" transform="translate(.001)">
                                        <path id="패스_33734" d="M1175.1 1702.492v-4.973l-.1-.057v4.973l.1.057zm-2.978-6.683l-.1-.057v4.973l.1.057v-4.973zm-3.178-1.826l-.1-.057v4.973l.1.057v-4.973zm-2.978-1.711l-.1-.057v4.974l.1.057v-4.974zm-2.835-1.628l-.1-.057v4.974l.1.057z" class="cls-14" transform="translate(-1163.033 -1690.587)"/>
                                        <path id="패스_33735" d="M1175.1 1737v-2.822l-.1-.057v2.919l.1-.04zm-2.978-4.533l-.1-.057v4.712l.1.057v-4.712zm-3.178-1.826l-.1-.057v4.712l.1.057v-4.712zm-2.978-1.7l-.1.048v4.6l.1.057v-4.7zm-2.835 1.372l-.1.048v1.6l.1.057z" class="cls-14" transform="translate(-1163.033 -1726.986)"/>
                                    </g>
                                </g>
                                <g id="그룹_42358" transform="translate(12.07 8.633)">
                                    <g id="그룹_42356">
                                        <path id="패스_33736" d="M1399.727 1406.969l12.07-6.933v4.974l-12.07 6.931z" class="cls-12" transform="translate(-1399.727 -1400.037)"/>
                                        <path id="패스_33737" d="M1399.727 1443.558l9.126-5.242 2.943 1.425v1.6l-10.138 5.822-1.931-.781z" class="cls-13" transform="translate(-1399.727 -1436.365)"/>
                                    </g>
                                    <g id="그룹_42357" transform="translate(.001)">
                                        <path id="패스_33738" d="M1399.739 1411.95v-4.972l.1-.057v4.973l-.1.057zm2.978-6.683l.1-.057v4.973l-.1.057v-4.973zm3.178-1.825l.1-.057v4.973l-.1.057v-4.973zm2.978-1.711l.1-.057v4.974l-.1.057v-4.974zm2.834-1.628l.1-.057v4.974l-.1.057z" class="cls-14" transform="translate(-1399.739 -1400.046)"/>
                                        <path id="패스_33739" d="M1399.739 1446.46v-2.822l.1-.057v2.919l-.1-.04zm2.978-4.533l.1-.057v4.712l-.1.057v-4.712zm3.178-1.825l.1-.057v4.712l-.1.057v-4.714zm2.978-1.7l.1.048v4.6l-.1.057v-4.7zm2.834 1.372l.1.048v1.6l-.1.057z" class="cls-14" transform="translate(-1399.739 -1436.445)"/>
                                    </g>
                                </g>
                                <g id="그룹_42361" transform="translate(12.07 16.155)">
                                    <g id="그룹_42359">
                                        <path id="패스_33740" d="M1399.727 1554.487l12.07-6.933v4.974l-12.07 6.931z" class="cls-12" transform="translate(-1399.727 -1547.554)"/>
                                        <path id="패스_33741" d="M1399.727 1591.075l9.126-5.242 2.943 1.425v1.6l-10.138 5.822-1.931-.781z" class="cls-13" transform="translate(-1399.727 -1583.881)"/>
                                    </g>
                                    <g id="그룹_42360" transform="translate(.001)">
                                        <path id="패스_33742" d="M1399.739 1559.465v-4.972l.1-.057v4.973l-.1.057zm2.978-6.683l.1-.057v4.973l-.1.057v-4.973zm3.178-1.825l.1-.057v4.973l-.1.057v-4.973zm2.978-1.711l.1-.057v4.974l-.1.057v-4.974zm2.834-1.628l.1-.057v4.974l-.1.057z" class="cls-14" transform="translate(-1399.739 -1547.561)"/>
                                        <path id="패스_33743" d="M1399.739 1593.978v-2.822l.1-.057v2.919l-.1-.04zm2.978-4.533l.1-.057v4.712l-.1.057v-4.712zm3.178-1.826l.1-.057v4.712l-.1.057v-4.712zm2.978-1.7l.1.048v4.6l-.1.057v-4.7zm2.834 1.372l.1.048v1.6l-.1.057z" class="cls-14" transform="translate(-1399.739 -1583.962)"/>
                                    </g>
                                </g>
                                <g id="그룹_42364" transform="translate(12.07 23.448)">
                                    <g id="그룹_42362">
                                        <path id="패스_33744" d="M1399.727 1697.511l12.07-6.933v4.974l-12.07 6.932z" class="cls-12" transform="translate(-1399.727 -1690.579)"/>
                                        <path id="패스_33745" d="M1399.727 1734.1l9.126-5.242 2.943 1.425v1.6l-10.138 5.822-1.931-.781z" class="cls-13" transform="translate(-1399.727 -1726.907)"/>
                                    </g>
                                    <g id="그룹_42363" transform="translate(.001)">
                                        <path id="패스_33746" d="M1399.739 1702.492v-4.973l.1-.057v4.973l-.1.057zm2.978-6.683l.1-.057v4.973l-.1.057v-4.973zm3.178-1.826l.1-.057v4.973l-.1.057v-4.973zm2.978-1.711l.1-.057v4.974l-.1.057v-4.974zm2.834-1.628l.1-.057v4.974l-.1.057z" class="cls-14" transform="translate(-1399.739 -1690.587)"/>
                                        <path id="패스_33747" d="M1399.739 1737v-2.822l.1-.057v2.919l-.1-.04zm2.978-4.533l.1-.057v4.712l-.1.057v-4.712zm3.178-1.826l.1-.057v4.712l-.1.057v-4.712zm2.978-1.7l.1.048v4.6l-.1.057v-4.7zm2.834 1.372l.1.048v1.6l-.1.057z" class="cls-14" transform="translate(-1399.739 -1726.986)"/>
                                    </g>
                                </g>
                                <path id="패스_33748" d="M1399.727 1249.249l9.825 5.7 1.244-.722-11.069-6.425z" class="cls-10" transform="translate(-1387.658 -1246.935)"/>
                                <path id="패스_33749" d="M1207.035 1281.826l9.825 5.7 9.825-5.7-9.825-5.7z" class="cls-15" transform="translate(-1204.791 -1273.808)"/>
                                <path id="패스_33750" d="M1182.641 1254.23l1.244.722 9.825-5.7v-1.444z" class="cls-16" transform="translate(-1181.64 -1246.935)"/>
                                <g id="그룹_42367" transform="translate(0 30.787)">
                                    <g id="그룹_42365">
                                        <path id="패스_33751" d="M1175.089 1841.442l-12.07-6.933v4.974l12.07 6.931z" class="cls-12" transform="translate(-1163.019 -1834.509)"/>
                                        <path id="패스_33752" d="M1175.089 1878.033l-9.126-5.242-2.943 1.425v1.6l10.138 5.822 1.931-.781z" class="cls-13" transform="translate(-1163.019 -1870.839)"/>
                                    </g>
                                    <g id="그룹_42366" transform="translate(.001 .001)">
                                        <path id="패스_33753" d="M1175.1 1846.424v-4.973l-.1-.057v4.973l.1.057zm-2.978-6.683l-.1-.057v4.973l.1.057v-4.973zm-3.178-1.825l-.1-.057v4.973l.1.057v-4.973zm-2.978-1.711l-.1-.057v4.974l.1.057v-4.979zm-2.835-1.628l-.1-.057v4.974l.1.057z" class="cls-14" transform="translate(-1163.033 -1834.519)"/>
                                        <path id="패스_33754" d="M1175.1 1880.932v-2.822l-.1-.057v2.919l.1-.04zm-2.978-4.533l-.1-.057v4.712l.1.057v-4.711zm-3.178-1.825l-.1-.057v4.712l.1.057v-4.712zm-2.978-1.7l-.1.048v4.6l.1.057v-4.7zm-2.835 1.372l-.1.048v1.6l.1.057z" class="cls-14" transform="translate(-1163.033 -1870.917)"/>
                                    </g>
                                </g>
                                <g id="그룹_42370" transform="translate(12.07 30.787)">
                                    <g id="그룹_42368">
                                        <path id="패스_33755" d="M1399.727 1841.442l12.07-6.933v4.974l-12.07 6.931z" class="cls-12" transform="translate(-1399.727 -1834.509)"/>
                                        <path id="패스_33756" d="M1399.727 1878.033l9.126-5.242 2.943 1.425v1.6l-10.138 5.822-1.931-.781z" class="cls-13" transform="translate(-1399.727 -1870.839)"/>
                                    </g>
                                    <g id="그룹_42369" transform="translate(.001 .001)">
                                        <path id="패스_33757" d="M1399.739 1846.424v-4.973l.1-.057v4.973l-.1.057zm2.978-6.683l.1-.057v4.973l-.1.057v-4.973zm3.178-1.825l.1-.057v4.973l-.1.057v-4.973zm2.978-1.711l.1-.057v4.974l-.1.057v-4.979zm2.834-1.628l.1-.057v4.974l-.1.057z" class="cls-14" transform="translate(-1399.739 -1834.519)"/>
                                        <path id="패스_33758" d="M1399.739 1880.932v-2.822l.1-.057v2.919l-.1-.04zm2.978-4.533l.1-.057v4.712l-.1.057v-4.711zm3.178-1.825l.1-.057v4.712l-.1.057v-4.712zm2.978-1.7l.1.048v4.6l-.1.057v-4.7zm2.834 1.372l.1.048v1.6l-.1.057z" class="cls-14" transform="translate(-1399.739 -1870.917)"/>
                                    </g>
                                </g>
                                <g id="그룹_42372" transform="translate(2.244 2.315)">
                                    <g id="그룹_42371" transform="translate(2.223 1.302)">
                                        <path id="패스_33759" d="M1250.818 1390.679l1.932-1.117v-.206l-2.11 1.22z" class="cls-17" transform="translate(-1250.64 -1384.885)"/>
                                        <path id="패스_33760" d="M1283.09 1315.577v.206l6.35-3.686v-.206z" class="cls-17" transform="translate(-1281.435 -1311.37)"/>
                                        <path id="패스_33761" d="M1407.625 1311.891v.206l.468.272v-.206z" class="cls-17" transform="translate(-1399.62 -1311.37)"/>
                                        <path id="패스_33762" d="M1416.808 1302.455v.206l1.373-.793v-.206z" class="cls-17" transform="translate(-1408.336 -1301.662)"/>
                                        <path id="패스_33763" d="M1270.606 1424.864l-3.7-2.148z" class="cls-17" transform="translate(-1266.076 -1416.543)"/>
                                        <path id="패스_33764" d="M1339.491 1442.146l.178.1 1.932-1.117v-.206z" class="cls-17" transform="translate(-1334.96 -1433.826)"/>
                                        <path id="패스_33765" d="M1505.659 1354.026v.206l1.373-.793v-.206z" class="cls-17" transform="translate(-1492.656 -1350.603)"/>
                                        <path id="패스_33766" d="M1433.074 1326.663v.206l3.7 2.148v-.206z" class="cls-17" transform="translate(-1423.772 -1325.388)"/>
                                        <path id="패스_33767" d="M1355.756 1474.286l2.242 1.3z" class="cls-17" transform="translate(-1350.396 -1465.484)"/>
                                        <path id="패스_33768" d="M1399.727 1393.668l9.825-5.7z" class="cls-17" transform="translate(-1392.125 -1383.564)"/>
                                        <path id="패스_33769" d="M1521.924 1378.233v.206l.522.3v-.206z" class="cls-17" transform="translate(-1508.091 -1374.328)"/>
                                    </g>
                                    <path id="패스_33770" fill="#bdcf7c" fill-rule="evenodd" d="M1207.035 1281.826l2.223 1.291 2.11-1.22-.455-.264 6.35-3.686.468.272 1.373-.793-2.244-1.3-9.825 5.7zm3.053 1.772l2.11-1.22 3.7 2.148-2.11 1.22-3.7-2.148zm12.174-2.75l-3.7-2.148 1.373-.794 3.7 2.148-1.373.793zm-7.643 5.379l2.11-1.219.535.31 6.35-3.686-.522-.3 1.373-.793 2.222 1.29-9.825 5.7z" transform="translate(-1207.035 -1276.123)"/>
                                </g>
                                <g id="그룹_42375" transform="translate(7.102)">
                                    <path id="패스_33771" d="M1412.994 1291.859v4.661l-5.37 3.117v-4.661z" class="cls-9" transform="translate(-1402.253 -1288.741)"/>
                                    <path id="패스_33772" d="M1307.668 1294.976v4.661l-5.37-3.117v-4.661z" class="cls-10" transform="translate(-1302.298 -1288.741)"/>
                                    <path id="패스_33773" d="M1302.3 1233.843l5.37-3.117 5.371 3.117-5.371 3.117z" class="cls-15" transform="translate(-1302.298 -1230.726)"/>
                                    <g id="그룹_42373" transform="translate(5.943 4.25)">
                                        <path id="패스_33774" d="M1418.849 1316.508l1.409-.814v1.655l-1.409.814v-1.655zm2.817-1.627l1.409-.814v1.655l-1.409.814z" class="cls-12" transform="translate(-1418.849 -1314.067)"/>
                                        <path id="패스_33775" d="M1418.849 1322l1.267-.732v1.453l-1.267.732V1322zm4.084-.906l-1.266.732v-1.454l1.266-.732z" class="cls-13" transform="translate(-1418.849 -1319.352)"/>
                                    </g>
                                    <g id="그룹_42374" transform="translate(.572 4.25)">
                                        <path id="패스_33776" d="M1317.749 1316.508l-1.409-.814v1.655l1.409.814v-1.655zm-2.817-1.627l-1.409-.814v1.655l1.409.814z" class="cls-12" transform="translate(-1313.523 -1314.067)"/>
                                        <path id="패스_33777" d="M1320.392 1322l-1.267-.732v1.453l1.267.732V1322zm-4.084-.906l1.267.732v-1.454l-1.267-.732z" class="cls-13" transform="translate(-1316.166 -1319.352)"/>
                                    </g>
                                </g>
                                <g id="그룹_42376" transform="translate(15.017 8.584)">
                                    <circle id="타원_1411" cx="1.053" cy="1.053" r="1.053" class="cls-19" transform="rotate(-.597 2.111 .011)"/>
                                    <path id="패스_33778" d="M1462.438 1404.216a.611.611 0 1 0-.611-.611.613.613 0 0 0 .611.611z" class="cls-20" transform="translate(-1461.607 -1402.793)"/>
                                </g>
                                <g id="그룹_42377" transform="translate(17.586 6.085)">
                                    <path id="패스_33779" d="M1509.367 1352.972a1.459 1.459 0 1 0-1.459-1.459 1.462 1.462 0 0 0 1.459 1.459z" class="cls-17" transform="translate(-1507.908 -1350.054)"/>
                                    <path id="패스_33780" d="M1513.526 1356.668a.993.993 0 1 0-.993-.993.995.995 0 0 0 .993.993z" class="cls-20" transform="translate(-1512.297 -1354.447)"/>
                                </g>
                                <g id="그룹_42378" transform="translate(2.848 4.39)">
                                    <path id="패스_33781" d="M1220.327 1316.812c.806 0 1.459 1.682 1.459 2.488a1.459 1.459 0 1 1-2.918 0c0-.805.653-2.488 1.459-2.488z" class="cls-17" transform="translate(-1218.868 -1316.812)"/>
                                    <path id="패스_33782" d="M1223.726 1323.15c.562 0 1.017 1.173 1.017 1.735a1.017 1.017 0 0 1-2.035 0c.001-.562.457-1.735 1.018-1.735z" class="cls-20" transform="translate(-1222.513 -1322.827)"/>
                                </g>
                                <g id="그룹_42379" transform="translate(7.041 8.539)">
                                    <circle id="타원_1412" cx="1.053" cy="1.053" r="1.053" class="cls-19" transform="translate(0 .021)"/>
                                    <path id="패스_33783" d="M1306 1403.317a.611.611 0 1 0-.611-.611.612.612 0 0 0 .611.611z" class="cls-20" transform="translate(-1305.171 -1401.895)"/>
                                </g>
                                <g id="그룹_42380" transform="translate(11.859 9.61)">
                                    <path id="패스_33784" d="M1396.7 1419.2c.613 0 1.11 1.28 1.11 1.893a1.11 1.11 0 0 1-2.22 0c-.002-.616.495-1.893 1.11-1.893z" class="cls-17" transform="translate(-1395.588 -1419.197)"/>
                                    <path id="패스_33785" d="M1399.427 1424.018c.427 0 .774.893.774 1.32a.774.774 0 1 1-1.548 0c0-.427.347-1.32.774-1.32z" class="cls-20" transform="translate(-1398.497 -1423.772)"/>
                                </g>
                            </g>
                            <g id="그룹_42386" transform="translate(9.215)">
                                <g id="그룹_42384" transform="translate(4.38 .826)">
                                    <g id="그룹_42383" transform="translate(0 5.165)">
                                        <g id="그룹_42382" transform="translate(0 .331)">
                                            <path id="패스_33786" d="M1441.383 1293.589v.115l-.57.33v-.115z" class="cls-9" transform="translate(-1440.243 -1293.589)"/>
                                            <path id="패스_33787" d="M1430.213 1293.919v.115l-.57-.33v-.115z" class="cls-10" transform="translate(-1429.643 -1293.589)"/>
                                        </g>
                                        <path id="패스_33788" d="M1429.643 1287.435l.57-.331.57.331-.57.33z" class="cls-21" transform="translate(-1429.643 -1287.105)"/>
                                    </g>
                                    <path id="패스_33789" d="M1437.117 1185.806h.149l.119 5.453c0 .041 0 .07-.074.114a.23.23 0 0 1-.238 0c-.077-.044-.079-.073-.074-.114z" class="cls-9" transform="translate(-1436.622 -1185.806)"/>
                                </g>
                                <g id="그룹_42385">
                                    <path id="패스_33790" d="M1347.406 1169.608l2.971 1.7-3.655 6.024-2.971-1.7z" class="cls-9" transform="translate(-1343.751 -1169.608)"/>
                                    <path id="패스_33791" d="M1352.633 1175.608l2.681 1.536-3.384 5.578-2.681-1.536z" class="cls-13" transform="translate(-1348.969 -1175.302)"/>
                                    <path id="패스_33792" d="M1360.779 1187l-3.41.868-.317.2.848.485 2.287-.582.592-.975zm-.116-4.376l.993.569-2.58.658.591-.974 1-.253zm1.761 1.663l-.59.972-4.274 1.091.44-.724.544-.35z" class="cls-22" transform="translate(-1356.374 -1181.96)"/>
                                    <path id="패스_33793" d="M1352.135 1174.953l.67.384.67.384.67.384.67.384c.012.007.012.027 0 .047l-.676 1.114-.676 1.114-.676 1.115-.676 1.114-.676 1.115c-.012.019-.031.029-.042.023l-.67-.384-.67-.384-.67-.384-.67-.384c-.012-.007-.011-.028 0-.047l.676-1.114.676-1.114.676-1.114.676-1.114.676-1.114c.012-.019.03-.029.042-.023zm-.087 6.05l-.628-.36-.634 1.045.628.36.634-1.045zm.676-1.114l-.628-.36-.634 1.045.628.36.634-1.045zm.676-1.114l-.628-.36-.634 1.045.628.36.634-1.045zm.676-1.114l-.628-.36-.634 1.045.628.36.634-1.045zm.048-1.474l-.634 1.045.628.36.634-1.045-.628-.36zm-2.746 4.433l-.628-.36-.634 1.045.628.36.634-1.045zm.676-1.114l-.628-.36-.634 1.045.628.36.634-1.045zm.676-1.114l-.628-.36-.634 1.045.628.36.634-1.045zm.676-1.114l-.628-.36-.634 1.045.628.36.634-1.045zm.048-1.474l-.634 1.045.628.36.634-1.045-.628-.36zm-2.746 4.433l-.628-.36-.634 1.045.628.36.634-1.045zm.676-1.114l-.628-.36-.634 1.045.628.36.634-1.045zm.676-1.114l-.628-.36-.634 1.045.628.36.634-1.045zm.676-1.114l-.628-.36-.634 1.045.628.36.634-1.045zm.048-1.474l-.634 1.045.628.36.634-1.045-.628-.36zm-2.746 4.433l-.628-.36-.634 1.045.628.36.634-1.045zm.676-1.114l-.628-.36-.634 1.045.628.36.634-1.045zm.676-1.115l-.628-.36-.634 1.045.628.36.634-1.045zm.676-1.114l-.628-.36-.634 1.045.628.36.634-1.045zm.676-1.114l-.628-.36-.634 1.045.628.36z" class="cls-10" transform="translate(-1348.452 -1174.679)"/>
                                </g>
                                <path id="패스_33794" d="M1402.1 1209.061l-.115-.057 3.656-6.025.11.067z" class="cls-22" transform="translate(-1399.012 -1201.278)"/>
                            </g>
                        </g>
                    </g>
                    <g id="그룹_42388" opacity="0.5" transform="translate(59.151)">
                        <path id="패스_33890" fill="#ab938a" d="M144.4 138.541l12.921 8.65 13.327-8.65-13.327-8.135z" transform="translate(-144.404 -95.168)"/>
                        <g id="그룹_42388-2" transform="translate(15.734)">
                            <path id="패스_33795" d="M3681 1561.769l12.765 7.332v-2.168L3681 1559.6z" class="cls-9" transform="translate(-3681.002 -1559.502)"/>
                            <path id="패스_33796" d="M3681.172 1558.38l12.766 7.333-.171.1-12.767-7.335z" class="cls-25" transform="translate(-3681.002 -1558.38)"/>
                            <path id="패스_33797" d="M3840.4 1649.845v2.168l-.171.1v-2.168z" class="cls-10" transform="translate(-3827.462 -1642.512)"/>
                        </g>
                        <g id="그룹_42389" transform="translate(.608)">
                            <path id="패스_33798" d="M3509.673 1562.829l-15.215 8.834v-2.168l15.124-8.687v1.293h.091z" class="cls-10" transform="translate(-3494.287 -1560.613)"/>
                            <path id="패스_33799" d="M3507.621 1558.379l-15.294 8.785.171.1 15.2-8.732z" class="cls-25" transform="translate(-3492.327 -1558.379)"/>
                        </g>
                        <path id="패스_33800" d="M3504.968 2090.926l-12.539-7.2v-1.141l12.539 7.2z" class="cls-26" transform="translate(-3491.813 -2040.56)"/>
                        <path id="패스_33801" d="M3504.968 1987.858l-12.539-7.2 15.465-8.884 12.539 7.2z" class="cls-27" transform="translate(-3491.813 -1938.633)"/>
                        <path id="패스_33802" d="M3648.832 2070.452l15.465-8.884v1.141l-15.465 8.884z" class="cls-28" transform="translate(-3635.677 -2021.227)"/>
                        <path id="패스_33803" d="M3507.647 1998.311l-12.539-7.2v-7.69l12.539 7.2z" class="cls-10" transform="translate(-3494.277 -1949.346)"/>
                        <path id="패스_33804" d="M3651.511 1981.807l15.035-8.637v-7.69l-15.035 8.637z" class="cls-9" transform="translate(-3638.141 -1932.843)"/>
                        <path id="패스_33805" d="M3507.647 1902.539l-12.539-7.2v-7.69l12.539 7.2z" class="cls-10" transform="translate(-3494.277 -1861.252)"/>
                        <path id="패스_33806" d="M3651.511 1886.035l15.035-8.637v-7.69l-15.035 8.637z" class="cls-9" transform="translate(-3638.141 -1844.749)"/>
                        <path id="패스_33807" d="M3507.647 1806.845l-12.539-7.2v-7.69l12.539 7.2z" class="cls-10" transform="translate(-3494.277 -1773.231)"/>
                        <path id="패스_33808" d="M3651.511 1790.342l15.035-8.637v-7.69l-15.035 8.637z" class="cls-9" transform="translate(-3638.141 -1756.728)"/>
                        <path id="패스_33809" d="M3507.647 1711.073l-12.539-7.2v-7.69l12.539 7.2z" class="cls-10" transform="translate(-3494.277 -1685.137)"/>
                        <path id="패스_33810" d="M3651.511 1694.57l15.035-8.637v-7.69l-15.035 8.637z" class="cls-9" transform="translate(-3638.141 -1668.634)"/>
                        <path id="패스_33811" d="M3506 1689.635l-12.688-7.284v-1.151l12.688 7.28z" class="cls-26" transform="translate(-3492.628 -1671.35)"/>
                        <path id="패스_33812" d="M3505.062 1587.433l-12.688-7.284 15.293-8.785 12.764 7.3z" class="cls-27" transform="translate(-3491.762 -1570.322)"/>
                        <path id="패스_33813" d="M3651.581 1671.261l15.293-8.785v1.154l-15.293 8.785z" class="cls-28" transform="translate(-3638.206 -1654.13)"/>
                        <g id="그룹_42390" transform="translate(13.205 7.237)">
                            <path id="패스_33814" d="M3666.881 1652.037l-15.293 8.784v-2.168l15.293-8.784z" class="cls-16" transform="translate(-3651.417 -1649.771)"/>
                            <path id="패스_33815" d="M3664.75 1648.649l-15.294 8.784.171.1 15.293-8.784z" class="cls-25" transform="translate(-3649.456 -1648.649)"/>
                        </g>
                        <g id="그룹_42391" transform="translate(.608 8.683)">
                            <path id="패스_33816" fill="#ebddc7" fill-rule="evenodd" d="M3492.328 1670.071l12.765 7.332v-2.169l-12.765-7.332z" transform="translate(-3492.328 -1667.805)"/>
                            <path id="패스_33817" d="M3492.5 1666.683l12.766 7.333-.17.1-12.765-7.332z" class="cls-25" transform="translate(-3492.328 -1666.683)"/>
                            <path id="패스_33818" d="M3651.724 1758.149v2.168l-.171.1v-2.168z" class="cls-16" transform="translate(-3638.788 -1750.816)"/>
                        </g>
                        <g id="그룹_42398" transform="translate(1.38 36.002)">
                            <g id="그룹_42394">
                                <g id="그룹_42392">
                                    <path id="패스_33819" d="M3513.95 2014.33l-11.989-6.887v4.941l11.989 6.885z" class="cls-12" transform="translate(-3501.961 -2007.443)"/>
                                    <path id="패스_33820" d="M3513.95 2036.836l-9.066-5.207-2.924 1.415v1.587l10.071 5.783 1.918-.776z" class="cls-13" transform="translate(-3501.961 -2029.69)"/>
                                </g>
                                <g id="그룹_42393" transform="translate(.001)">
                                    <path id="패스_33821" d="M3513.957 2019.274v-4.939l-.1-.057v4.939l.1.057zm-2.958-6.639l-.1-.056v4.94l.1.057v-4.94zm-3.157-1.813l-.1-.057v4.94l.1.057v-4.94zm-2.959-1.7l-.1-.057v4.94l.1.057v-4.94zm-2.816-1.617l-.1-.057v4.941l.1.056z" class="cls-14" transform="translate(-3501.969 -2007.449)"/>
                                    <path id="패스_33822" d="M3513.957 2039.687v-2.8l-.1-.057v2.9l.1-.04zm-2.958-4.5l-.1-.057v4.68l.1.056v-4.68zm-3.157-1.813l-.1-.056V2038l.1.057v-4.681zm-2.959-1.69l-.1.048v4.567l.1.056v-4.672zm-2.816 1.363l-.1.047v1.588l.1.057z" class="cls-14" transform="translate(-3501.969 -2029.738)"/>
                                </g>
                            </g>
                            <g id="그룹_42397" transform="translate(11.989 1.623)">
                                <g id="그룹_42395">
                                    <path id="패스_33823" d="M3651.509 2032.954l9.163-5.263v4.94l-9.163 5.262z" class="cls-12" transform="translate(-3651.509 -2027.69)"/>
                                    <path id="패스_33824" d="M3651.509 2036.836l9.066-5.207.1.047v4.577l-7.245 4.161-1.919-.776z" class="cls-13" transform="translate(-3651.509 -2031.313)"/>
                                </g>
                                <g id="그룹_42396" transform="translate(.001)">
                                    <path id="패스_33825" d="M3651.517 2037.893v-4.939l.1-.057v4.939l-.1.057zm2.958-6.639l.1-.056v4.94l-.1.057v-4.94zm3.157-1.813l.1-.057v4.94l-.1.057v-4.94zm2.958-1.7l.089-.051v4.941l-.089.051z" class="cls-14" transform="translate(-3651.517 -2027.69)"/>
                                    <path id="패스_33826" d="M3651.517 2039.687v-2.8l.1-.057v2.9l-.1-.04zm2.958-4.5l.1-.057v4.68l-.1.056v-4.68zm3.157-1.813l.1-.056V2038l-.1.057v-4.681zm2.958-1.69l.089.043v4.577l-.089.051z" class="cls-14" transform="translate(-3651.517 -2031.361)"/>
                                </g>
                            </g>
                        </g>
                        <g id="그룹_42405" transform="translate(1.38 28.324)">
                            <g id="그룹_42401">
                                <g id="그룹_42399">
                                    <path id="패스_33827" d="M3513.95 1918.558l-11.989-6.887v4.941l11.989 6.885z" class="cls-12" transform="translate(-3501.961 -1911.672)"/>
                                    <path id="패스_33828" d="M3513.95 1941.064l-9.066-5.207-2.924 1.415v1.587l10.071 5.783 1.918-.776z" class="cls-13" transform="translate(-3501.961 -1933.918)"/>
                                </g>
                                <g id="그룹_42400" transform="translate(.001)">
                                    <path id="패스_33829" d="M3513.957 1923.5v-4.939l-.1-.057v4.939l.1.057zm-2.958-6.639l-.1-.057v4.94l.1.056v-4.94zm-3.157-1.813l-.1-.057v4.94l.1.057v-4.94zm-2.959-1.7l-.1-.057v4.941l.1.056v-4.94zm-2.816-1.617l-.1-.057v4.941l.1.056z" class="cls-14" transform="translate(-3501.969 -1911.677)"/>
                                    <path id="패스_33830" d="M3513.957 1943.915v-2.8l-.1-.057v2.9l.1-.04zm-2.958-4.5l-.1-.057v4.68l.1.057v-4.68zm-3.157-1.813l-.1-.057v4.681l.1.057v-4.683zm-2.959-1.69l-.1.048v4.567l.1.057v-4.672zm-2.816 1.363l-.1.048v1.588l.1.056z" class="cls-14" transform="translate(-3501.969 -1933.966)"/>
                                </g>
                            </g>
                            <g id="그룹_42404" transform="translate(11.989 1.623)">
                                <g id="그룹_42402">
                                    <path id="패스_33831" d="M3651.509 1937.182l9.163-5.263v4.94l-9.163 5.262z" class="cls-12" transform="translate(-3651.509 -1931.918)"/>
                                    <path id="패스_33832" d="M3651.509 1941.064l9.066-5.207.1.047v4.577l-7.245 4.161-1.919-.776z" class="cls-13" transform="translate(-3651.509 -1935.541)"/>
                                </g>
                                <g id="그룹_42403" transform="translate(.001)">
                                    <path id="패스_33833" d="M3651.517 1942.121v-4.939l.1-.057v4.939l-.1.057zm2.958-6.639l.1-.056v4.94l-.1.056v-4.94zm3.157-1.813l.1-.057v4.94l-.1.057v-4.94zm2.958-1.7l.089-.051v4.941l-.089.051z" class="cls-14" transform="translate(-3651.517 -1931.918)"/>
                                    <path id="패스_33834" d="M3651.517 1943.915v-2.8l.1-.057v2.9l-.1-.04zm2.958-4.5l.1-.057v4.68l-.1.057v-4.68zm3.157-1.813l.1-.057v4.681l-.1.057v-4.683zm2.958-1.69l.089.043v4.577l-.089.051z" class="cls-14" transform="translate(-3651.517 -1935.589)"/>
                                </g>
                            </g>
                        </g>
                        <g id="그룹_42412" transform="translate(1.38 20.652)">
                            <g id="그룹_42408">
                                <g id="그룹_42406">
                                    <path id="패스_33835" d="M3513.95 1822.865l-11.989-6.887v4.941l11.989 6.885z" class="cls-12" transform="translate(-3501.961 -1815.979)"/>
                                    <path id="패스_33836" d="M3513.95 1845.371l-9.066-5.207-2.924 1.415v1.587l10.071 5.784 1.918-.776z" class="cls-13" transform="translate(-3501.961 -1838.225)"/>
                                </g>
                                <g id="그룹_42407" transform="translate(.001)">
                                    <path id="패스_33837" d="M3513.957 1827.809v-4.939l-.1-.057v4.939l.1.057zm-2.958-6.639l-.1-.057v4.94l.1.057v-4.94zm-3.157-1.813l-.1-.057v4.94l.1.057v-4.94zm-2.959-1.7l-.1-.056v4.94l.1.057v-4.941zm-2.816-1.617l-.1-.057v4.941l.1.057z" class="cls-14" transform="translate(-3501.969 -1815.984)"/>
                                    <path id="패스_33838" d="M3513.957 1848.222v-2.8l-.1-.057v2.9l.1-.04zm-2.958-4.5l-.1-.057v4.68l.1.057v-4.68zm-3.157-1.813l-.1-.057v4.681l.1.056v-4.681zm-2.959-1.69l-.1.048v4.567l.1.057v-4.672zm-2.816 1.363l-.1.048v1.588l.1.056z" class="cls-14" transform="translate(-3501.969 -1838.273)"/>
                                </g>
                            </g>
                            <g id="그룹_42411" transform="translate(11.989 1.623)">
                                <g id="그룹_42409">
                                    <path id="패스_33839" d="M3651.509 1841.489l9.163-5.264v4.94l-9.163 5.262z" class="cls-12" transform="translate(-3651.509 -1836.225)"/>
                                    <path id="패스_33840" d="M3651.509 1845.371l9.066-5.207.1.047v4.578l-7.245 4.161-1.919-.776z" class="cls-13" transform="translate(-3651.509 -1839.848)"/>
                                </g>
                                <g id="그룹_42410" transform="translate(.001)">
                                    <path id="패스_33841" d="M3651.517 1846.427v-4.939l.1-.057v4.939l-.1.057zm2.958-6.639l.1-.057v4.94l-.1.057v-4.94zm3.157-1.813l.1-.057v4.94l-.1.057v-4.94zm2.958-1.7l.089-.051v4.941l-.089.051z" class="cls-14" transform="translate(-3651.517 -1836.225)"/>
                                    <path id="패스_33842" d="M3651.517 1848.222v-2.8l.1-.057v2.9l-.1-.04zm2.958-4.5l.1-.057v4.68l-.1.057v-4.68zm3.157-1.813l.1-.057v4.681l-.1.056v-4.681zm2.958-1.69l.089.043v4.577l-.089.051z" class="cls-14" transform="translate(-3651.517 -1839.896)"/>
                                </g>
                            </g>
                        </g>
                        <g id="그룹_42419" transform="translate(1.38 12.974)">
                            <g id="그룹_42415">
                                <g id="그룹_42413">
                                    <path id="패스_33843" d="M3513.95 1727.093l-11.989-6.887v4.941l11.989 6.885z" class="cls-12" transform="translate(-3501.961 -1720.207)"/>
                                    <path id="패스_33844" d="M3513.95 1749.6l-9.066-5.207-2.924 1.415v1.587l10.071 5.783 1.918-.776z" class="cls-13" transform="translate(-3501.961 -1742.453)"/>
                                </g>
                                <g id="그룹_42414" transform="translate(.001 .001)">
                                    <path id="패스_33845" d="M3513.957 1732.038v-4.938l-.1-.057v4.94l.1.057zM3511 1725.4l-.1-.056v4.94l.1.057v-4.94zm-3.157-1.813l-.1-.057v4.94l.1.057v-4.94zm-2.959-1.7l-.1-.056v4.94l.1.057v-4.941zm-2.816-1.617l-.1-.056v4.941l.1.056z" class="cls-14" transform="translate(-3501.969 -1720.213)"/>
                                    <path id="패스_33846" d="M3513.957 1752.45v-2.8l-.1-.057v2.9l.1-.04zm-2.958-4.5l-.1-.056v4.68l.1.057v-4.681zm-3.157-1.813l-.1-.057v4.681l.1.056v-4.681zm-2.959-1.69l-.1.048v4.567l.1.057v-4.672zm-2.816 1.363l-.1.048v1.587l.1.057z" class="cls-14" transform="translate(-3501.969 -1742.501)"/>
                                </g>
                            </g>
                            <g id="그룹_42418" transform="translate(11.989 1.623)">
                                <g id="그룹_42416">
                                    <path id="패스_33847" d="M3651.509 1745.717l9.163-5.263v4.94l-9.163 5.262z" class="cls-12" transform="translate(-3651.509 -1740.453)"/>
                                    <path id="패스_33848" d="M3651.509 1749.6l9.066-5.207.1.047v4.577l-7.245 4.161-1.919-.776z" class="cls-13" transform="translate(-3651.509 -1744.076)"/>
                                </g>
                                <g id="그룹_42417" transform="translate(.001)">
                                    <path id="패스_33849" d="M3651.517 1750.656v-4.939l.1-.057v4.939l-.1.057zm2.958-6.639l.1-.057v4.94l-.1.057v-4.94zm3.157-1.813l.1-.057v4.94l-.1.057v-4.94zm2.958-1.7l.089-.051v4.94l-.089.051z" class="cls-14" transform="translate(-3651.517 -1740.453)"/>
                                    <path id="패스_33850" d="M3651.517 1752.45v-2.8l.1-.057v2.9l-.1-.04zm2.958-4.5l.1-.056v4.68l-.1.057v-4.681zm3.157-1.813l.1-.057v4.681l-.1.056v-4.681zm2.958-1.69l.089.043v4.577l-.089.051z" class="cls-14" transform="translate(-3651.517 -1744.124)"/>
                                </g>
                            </g>
                        </g>
                        <g id="그룹_42422" transform="translate(24.553 34.784)">
                            <g id="그룹_42420">
                                <path id="패스_33851" d="M3791 1994l3.045-1.749v4.94l-3.045 1.749z" class="cls-12" transform="translate(-3791 -1992.248)"/>
                                <path id="패스_33852" d="M3791 1997.878l2.947-1.693.1.047v4.577l-3.045 1.749z" class="cls-13" transform="translate(-3791 -1995.87)"/>
                            </g>
                            <g id="그룹_42421">
                                <path id="패스_33853" d="M3791 1994l.1-.055v4.94l-.1.055V1994zm2.956-1.7l.089-.051v4.94l-.089.051z" class="cls-14" transform="translate(-3791 -1992.248)"/>
                                <path id="패스_33854" d="M3791 1997.927l.1-.055v4.681l-.1.055v-4.681zm2.956-1.688l.089.043v4.577l-.089.051z" class="cls-14" transform="translate(-3791 -1995.918)"/>
                            </g>
                        </g>
                        <g id="그룹_42425" transform="translate(24.553 19.363)">
                            <g id="그룹_42423">
                                <path id="패스_33855" d="M3791 1801.654l3.045-1.749v4.941l-3.045 1.749z" class="cls-12" transform="translate(-3791 -1799.905)"/>
                                <path id="패스_33856" d="M3791 1805.537l2.947-1.693.1.047v4.578l-3.045 1.749z" class="cls-13" transform="translate(-3791 -1803.528)"/>
                            </g>
                            <g id="그룹_42424">
                                <path id="패스_33857" d="M3791 1801.654l.1-.055v4.94l-.1.055v-4.94zm2.956-1.7l.089-.051v4.941l-.089.051z" class="cls-14" transform="translate(-3791 -1799.905)"/>
                                <path id="패스_33858" d="M3791 1805.585l.1-.055v4.681l-.1.055v-4.681zm2.956-1.689l.089.043v4.577l-.089.051z" class="cls-14" transform="translate(-3791 -1803.576)"/>
                            </g>
                        </g>
                        <g id="그룹_42428" transform="translate(24.553 27.039)">
                            <g id="그룹_42426">
                                <path id="패스_33859" d="M3791 1897.392l3.045-1.749v4.941l-3.045 1.749z" class="cls-12" transform="translate(-3791 -1895.643)"/>
                                <path id="패스_33860" d="M3791 1901.273l2.947-1.693.1.047v4.578l-3.045 1.749z" class="cls-13" transform="translate(-3791 -1899.265)"/>
                            </g>
                            <g id="그룹_42427">
                                <path id="패스_33861" d="M3791 1897.392l.1-.055v4.94l-.1.055v-4.94zm2.956-1.7l.089-.051v4.94l-.089.051z" class="cls-14" transform="translate(-3791 -1895.643)"/>
                                <path id="패스_33862" d="M3791 1901.322l.1-.055v4.681l-.1.055v-4.681zm2.956-1.688l.089.043v4.577l-.089.051z" class="cls-14" transform="translate(-3791 -1899.314)"/>
                            </g>
                        </g>
                        <g id="그룹_42431" transform="translate(24.553 11.731)">
                            <g id="그룹_42429">
                                <path id="패스_33863" d="M3791 1706.46l3.045-1.749v4.941L3791 1711.4z" class="cls-12" transform="translate(-3791 -1704.711)"/>
                                <path id="패스_33864" d="M3791 1710.342l2.947-1.693.1.047v4.578l-3.045 1.749z" class="cls-13" transform="translate(-3791 -1708.334)"/>
                            </g>
                            <g id="그룹_42430">
                                <path id="패스_33865" d="M3791 1706.46l.1-.055v4.94l-.1.055v-4.94zm2.956-1.7l.089-.051v4.94l-.089.051z" class="cls-14" transform="translate(-3791 -1704.711)"/>
                                <path id="패스_33866" d="M3791 1710.39l.1-.055v4.681l-.1.055v-4.681zm2.956-1.689l.089.043v4.578l-.089.051z" class="cls-14" transform="translate(-3791 -1708.381)"/>
                            </g>
                        </g>
                        <g id="그룹_42433" transform="translate(2.473 1.398)">
                            <g id="그룹_42432" transform="translate(0 1.702)">
                                <path id="패스_33867" d="M3629.388 1736.9v.283l-2.137-1.227v-.284z" class="cls-17" transform="translate(-3618.3 -1724.559)"/>
                                <path id="패스_33868" d="M3656.91 1729.6v.283l-3 1.714v-.283z" class="cls-17" transform="translate(-3642.817 -1718.974)"/>
                                <path id="패스_33869" d="M3590.212 1714.41v.284l-1.976-1.135v-.283z" class="cls-17" transform="translate(-3582.413 -1703.958)"/>
                                <path id="패스_33870" d="M3615.882 1706.052v.283l-2.994 1.714v-.283z" class="cls-17" transform="translate(-3605.088 -1697.313)"/>
                                <path id="패스_33871" d="M3520.27 1674.256v.283l-4.672-2.682v-.283z" class="cls-17" transform="translate(-3515.598 -1665.599)"/>
                                <path id="패스_33872" d="M3576.862 1683.689v.283l-2.99 1.711v-.283z" class="cls-17" transform="translate(-3569.201 -1676.743)"/>
                                <path id="패스_33873" d="M3630.679 1638.818v.283l-5.133 2.937v-.283z" class="cls-17" transform="translate(-3616.732 -1635.469)"/>
                                <path id="패스_33874" d="M3571.77 1644.681v.283l-4.687-2.682V1642z" class="cls-17" transform="translate(-3562.954 -1638.394)"/>
                                <path id="패스_33875" d="M3669.757 1661.181v.283l-5.133 2.938v-.283z" class="cls-17" transform="translate(-3652.677 -1656.039)"/>
                                <path id="패스_33876" d="M3641.912 1684.822v.283l-1.98-1.133v-.283z" class="cls-17" transform="translate(-3629.964 -1676.743)"/>
                                <path id="패스_33877" d="M3710.937 1684.806v.283l-5.142 2.932v-.283z" class="cls-17" transform="translate(-3690.547 -1677.77)"/>
                                <path id="패스_33878" d="M3681.157 1707.281v.283l-2.147-1.229v-.283z" class="cls-17" transform="translate(-3665.909 -1697.313)"/>
                                <path id="패스_33879" d="M3706.924 1609.394v.283l-2.969 1.7v-.283z" class="cls-17" transform="translate(-3688.854 -1608.404)"/>
                                <path id="패스_33880" d="M3650.042 1599.731v.283l-4.7-2.689v-.283z" class="cls-17" transform="translate(-3634.942 -1597.042)"/>
                                <path id="패스_33881" d="M3746 1631.757v.283l-2.969 1.7v-.283z" class="cls-17" transform="translate(-3724.799 -1628.974)"/>
                                <path id="패스_33882" d="M3720.322 1639.951v.283l-1.979-1.133v-.283z" class="cls-17" transform="translate(-3702.088 -1635.469)"/>
                                <path id="패스_33883" d="M3787.313 1655.434v.283l-2.974 1.7v-.283z" class="cls-17" transform="translate(-3762.795 -1650.753)"/>
                                <path id="패스_33884" d="M3759.578 1662.416v.283l-2.158-1.235v-.283z" class="cls-17" transform="translate(-3738.032 -1656.039)"/>
                            </g>
                            <path id="패스_33885" d="M3526.686 1589.854l-2.137-1.227 3-1.715 2.146 1.228-3 1.714zm-3.289-1.888l2.995-1.714-1.98-1.133-2.991 1.712 1.976 1.135zm-3.128-1.8l-4.672-2.682 2.976-1.71 4.685 2.681-2.989 1.711zm-.544-5.053l4.687 2.682 5.133-2.937-4.7-2.688-5.123 2.943zm10.973.405l1.979 1.133-5.133 2.938-1.979-1.133 5.133-2.937zm3.133 1.793l-5.133 2.937 2.147 1.229 5.142-2.932-2.156-1.234zm-7.832-5.8l2.963-1.7 4.7 2.692-2.969 1.7-4.7-2.689zm8.821 1.65l-2.969 1.7 1.979 1.133 2.969-1.7-1.979-1.133zm3.133 1.793l2.164 1.238-2.974 1.7-2.158-1.235z" class="cls-30" transform="translate(-3515.598 -1575.811)"/>
                        </g>
                        <g id="그룹_42434" transform="translate(8.61 3.147)">
                            <path id="패스_33886" d="M3592.14 1620.881v1.634l3.244 1.863v-1.634z" class="cls-31" transform="translate(-3592.14 -1619.017)"/>
                            <path id="패스_33887" d="M3632.6 1622.744v1.634l3.244-1.863v-1.634z" class="cls-32" transform="translate(-3629.361 -1619.017)"/>
                            <path id="패스_33888" d="M3598.629 1599.5l-3.244-1.863-3.244 1.863 3.244 1.864z" class="cls-15" transform="translate(-3592.14 -1597.639)"/>
                        </g>
                    </g>
                    <g id="img_mapno" transform="translate(11.123 2.432)">
                        <g id="그룹_21379" transform="translate(0 57.824)">
                            <g id="그룹_21370" transform="translate(0 8.526)" style="mix-blend-mode:multiply;isolation:isolate" opacity="0.4">
                                <path id="패스_28419" d="M318.752 162.047c-12.012-5.715-31.3-5.434-43.072.63s-11.586 15.611.42 21.323 31.3 5.434 43.075-.63 11.589-15.608-.423-21.323z" class="cls-34" transform="translate(-266.971 -157.939)"/>
                                <path id="패스_28420" d="M318.285 162.121c-11.841-5.634-30.853-5.356-42.462.622s-11.423 15.388.417 21.022 30.855 5.358 42.465-.62 11.421-15.389-.42-21.024z" class="cls-35" transform="translate(-266.805 -157.857)"/>
                                <path id="패스_28421" d="M317.818 162.194c-11.671-5.551-30.41-5.279-41.853.614s-11.257 15.167.412 20.72 30.412 5.28 41.855-.61 11.258-15.169-.414-20.724z" class="cls-36" transform="translate(-266.64 -157.776)"/>
                                <path id="패스_28422" d="M317.351 162.27c-11.5-5.472-29.967-5.2-41.243.6s-11.095 14.947.406 20.42 29.969 5.2 41.245-.6 11.094-14.948-.408-20.42z" class="cls-37" transform="translate(-266.475 -157.695)"/>
                                <path id="패스_28423" d="M316.883 162.343c-11.332-5.392-29.524-5.125-40.633.594s-10.931 14.726.4 20.118 29.524 5.125 40.635-.594 10.93-14.726-.402-20.118z" class="cls-38" transform="translate(-266.309 -157.613)"/>
                                <path id="패스_28424" d="M316.416 162.417c-11.161-5.309-29.081-5.048-40.023.586s-10.767 14.505.394 19.814 29.081 5.049 40.025-.584 10.765-14.505-.396-19.816z" class="cls-39" transform="translate(-266.143 -157.532)"/>
                                <path id="패스_28425" d="M315.948 162.491c-10.991-5.229-28.638-4.97-39.413.576s-10.6 14.285.388 19.514 28.638 4.972 39.415-.575 10.601-14.285-.39-19.515z" class="cls-40" transform="translate(-265.978 -157.451)"/>
                                <path id="패스_28426" d="M315.481 162.566c-10.822-5.149-28.2-4.9-38.8.567s-10.437 14.064.383 19.212 28.195 4.894 38.8-.567 10.436-14.062-.383-19.212z" class="cls-41" transform="translate(-265.813 -157.37)"/>
                                <path id="패스_28427" d="M315.014 162.64c-10.652-5.067-27.752-4.818-38.194.559s-10.273 13.841.376 18.91 27.752 4.817 38.2-.559 10.269-13.842-.382-18.91z" class="cls-42" transform="translate(-265.647 -157.288)"/>
                                <path id="패스_28428" d="M314.546 162.714c-10.481-4.986-27.309-4.741-37.584.551s-10.11 13.62.37 18.607 27.307 4.742 37.586-.547 10.11-13.625-.372-18.611z" class="cls-43" transform="translate(-265.481 -157.207)"/>
                                <path id="패스_28429" d="M314.079 162.787c-10.312-4.9-26.866-4.663-36.974.541s-9.947 13.4.363 18.306 26.864 4.665 36.976-.539 9.946-13.401-.365-18.308z" class="cls-44" transform="translate(-265.316 -157.125)"/>
                                <path id="패스_28430" d="M313.611 162.863c-10.141-4.825-26.422-4.587-36.363.531s-9.783 13.179.357 18 26.421 4.587 36.365-.531 9.783-13.176-.359-18z" class="cls-45" transform="translate(-265.151 -157.044)"/>
                                <path id="패스_28431" d="M313.143 162.936c-9.97-4.744-25.978-4.51-35.753.523s-9.618 12.958.352 17.7 25.978 4.51 35.757-.522 9.616-12.957-.356-17.701z" class="cls-46" transform="translate(-264.985 -156.963)"/>
                                <path id="패스_28432" d="M312.676 163.01c-9.8-4.662-25.535-4.432-35.143.515s-9.454 12.737.346 17.4 25.535 4.434 35.147-.512 9.451-12.74-.35-17.403z" class="cls-47" transform="translate(-264.819 -156.881)"/>
                                <path id="패스_28433" d="M312.208 163.084c-9.631-4.581-25.092-4.355-34.533.505s-9.29 12.517.341 17.1 25.091 4.357 34.535-.5 9.29-12.521-.343-17.105z" class="cls-48" transform="translate(-264.654 -156.8)"/>
                                <path id="패스_28434" d="M311.741 163.159c-9.461-4.5-24.649-4.279-33.923.5s-9.126 12.295.334 16.8 24.648 4.279 33.925-.5 9.123-12.298-.336-16.8z" class="cls-49" transform="translate(-264.488 -156.719)"/>
                                <path id="패스_28435" d="M311.274 163.233c-9.29-4.419-24.206-4.2-33.315.488s-8.961 12.073.329 16.494 24.2 4.2 33.315-.486 8.962-12.075-.329-16.496z" class="cls-50" transform="translate(-264.323 -156.638)"/>
                            </g>
                            <path id="패스_28436" fill="#ce7436" d="M305.488 157.673c-7.145-3.291-18.615-3.129-25.621.365-5.011 2.5-6.36 6.021-4.117 9.031a10.119 10.119 0 0 1 4.589-3.951c7.006-3.493 18.476-3.654 25.623-.362a11.149 11.149 0 0 1 4.368 3.255c1.57-2.924-.047-6.128-4.842-8.338z" transform="translate(-262.156 -151.031)"/>
                            <path id="패스_28437" fill="#c4c6d0" d="M317.944 169.582l-.256-8.98-46-.136.258 9.524h.013c-.133 3.525 2.147 7.047 6.872 9.654 9.074 5.009 23.64 4.762 32.537-.552 4.385-2.619 6.563-5.979 6.567-9.314h.01v-.1l-.001-.096z" transform="translate(-264.032 -147.858)"/>
                            <path id="패스_28438" fill="#efeff4" d="M310.8 156.26c-9.074-5.009-23.642-4.763-32.537.551s-8.753 13.685.321 18.694 23.64 4.762 32.536-.552 8.751-13.684-.32-18.693z" transform="translate(-264.039 -152.659)"/>
                            <path id="패스_28439" fill="url(#linear-gradient)" d="M305.492 157.671c-7.143-3.291-18.609-3.128-25.618.365-5.843 2.906-6.739 7.221-2.721 10.493a14.336 14.336 0 0 0 2.972 1.8c7.151 3.291 18.622 3.128 25.629-.363a13.89 13.89 0 0 0 2.634-1.674c4.179-3.408 3.201-7.817-2.896-10.621z" transform="translate(-262.163 -151.031)"/>
                            <g id="그룹_21377" transform="translate(12.468 3.032)">
                                <path id="패스_28440" fill="#a26a00" d="M302.378 155.915c-7.217-2.346-16.39-1.6-22.23 1.508-.049.024-.1.05-.146.078a14.485 14.485 0 0 0-2.617 1.8c-5.282 4.626-2.668 10.631 5.829 13.391 7.146 2.32 16.207 1.621 22.053-1.411.055-.028.112-.055.169-.087a14.565 14.565 0 0 0 2.77-1.88c5.284-4.629 2.672-10.638-5.828-13.399z" transform="translate(-274.654 -154.536)"/>
                                <g id="그룹_21372" transform="translate(2.185 1.411)">
                                    <g id="그룹_21371">
                                        <path id="패스_28441" d="M283.53 170.621c-7.474-2.314-9.774-7.349-5.128-11.222s14.509-5.146 21.983-2.834 9.774 7.349 5.126 11.224-14.511 5.144-21.981 2.832zm16.805-14.014c-7.431-2.3-17.232-1.035-21.85 2.818s-2.333 8.854 5.1 11.154 17.23 1.035 21.85-2.816 2.328-8.857-5.099-11.157z" class="cls-34" transform="translate(-276.001 -155.41)"/>
                                    </g>
                                </g>
                                <g id="그룹_21374" transform="translate(7.233 3.999)">
                                    <g id="그룹_21373">
                                        <path id="패스_28442" d="M284.259 167.412c-5.11-1.581-6.682-5.023-3.505-7.671s9.918-3.52 15.028-1.938 6.683 5.022 3.5 7.671-9.913 3.52-15.023 1.938zm11.487-9.58c-5.077-1.573-11.779-.709-14.937 1.925s-1.6 6.055 3.484 7.628 11.779.707 14.939-1.926 1.594-6.059-3.485-7.627z" class="cls-34" transform="translate(-279.112 -157.013)"/>
                                    </g>
                                </g>
                                <g id="그룹_21376" transform="translate(12.273 6.585)">
                                    <g id="그룹_21375">
                                        <path id="패스_28443" d="M284.988 164.208c-2.751-.849-3.6-2.7-1.887-4.127s5.337-1.892 8.086-1.041 3.594 2.7 1.884 4.127-5.335 1.891-8.083 1.041zm6.179-5.154c-2.733-.844-6.339-.381-8.037 1.037s-.859 3.257 1.876 4.1 6.337.381 8.036-1.035.858-3.256-1.874-4.103z" class="cls-34" transform="translate(-282.217 -158.614)"/>
                                    </g>
                                </g>
                                <path id="패스_28444" d="M278.779 169.889a.12.12 0 0 1-.066-.018.083.083 0 0 1-.045-.073v-.032l.035-.031 23.357-13.819a.109.109 0 0 1 .052-.013.124.124 0 0 1 .067.019.083.083 0 0 1 .047.071v.034l-.037.031-23.357 13.817a.093.093 0 0 1-.053.014z" class="cls-34" transform="translate(-272.156 -153.695)"/>
                                <path id="패스_28445" d="M303.384 170.093c-.057.032-.114.06-.169.087l-25.264-13.775a1.158 1.158 0 0 1 .148-.074l.027-.01z" class="cls-34" transform="translate(-272.602 -153.441)"/>
                            </g>
                            <g id="그룹_21378" transform="translate(21.274 7.897)" style="mix-blend-mode:multiply;isolation:isolate">
                                <path id="패스_28446" d="M296.255 158.832a17.089 17.089 0 0 0-13.452.2c-3.679 1.892-3.62 4.875.131 6.659a17.09 17.09 0 0 0 13.452-.2c3.677-1.891 3.614-4.874-.131-6.659z" class="cls-34" transform="translate(-280.081 -157.549)"/>
                                <path id="패스_28447" d="M296.109 158.855a16.854 16.854 0 0 0-13.262.194c-3.625 1.867-3.568 4.805.13 6.565a16.847 16.847 0 0 0 13.263-.194c3.624-1.864 3.567-4.805-.131-6.565z" class="cls-35" transform="translate(-280.029 -157.524)"/>
                                <path id="패스_28448" d="M295.963 158.879a16.606 16.606 0 0 0-13.073.192c-3.573 1.839-3.517 4.736.13 6.47a16.6 16.6 0 0 0 13.07-.191c3.574-1.839 3.518-4.737-.127-6.471z" class="cls-36" transform="translate(-279.977 -157.499)"/>
                                <path id="패스_28449" d="M295.817 158.9a16.365 16.365 0 0 0-12.881.189c-3.523 1.812-3.466 4.668.127 6.377a16.362 16.362 0 0 0 12.88-.189c3.521-1.811 3.465-4.667-.126-6.377z" class="cls-37" transform="translate(-279.926 -157.473)"/>
                                <path id="패스_28450" d="M295.67 158.925a16.126 16.126 0 0 0-12.69.186c-3.47 1.786-3.414 4.6.125 6.283a16.12 16.12 0 0 0 12.69-.186c3.469-1.786 3.414-4.599-.125-6.283z" class="cls-38" transform="translate(-279.874 -157.448)"/>
                                <path id="패스_28451" d="M295.524 158.948a15.878 15.878 0 0 0-12.5.184c-3.417 1.758-3.362 4.529.124 6.188a15.885 15.885 0 0 0 12.5-.182c3.417-1.759 3.361-4.532-.124-6.19z" class="cls-39" transform="translate(-279.822 -157.423)"/>
                                <path id="패스_28452" d="M295.378 158.97a15.643 15.643 0 0 0-12.31.181c-3.366 1.733-3.312 4.46.122 6.094a15.642 15.642 0 0 0 12.31-.181c3.364-1.731 3.31-4.464-.122-6.094z" class="cls-40" transform="translate(-279.771 -157.397)"/>
                                <path id="패스_28453" d="M295.232 159a15.4 15.4 0 0 0-12.118.176c-3.314 1.705-3.262 4.392.119 6a15.389 15.389 0 0 0 12.118-.177c3.313-1.71 3.261-4.399-.119-5.999z" class="cls-41" transform="translate(-279.719 -157.372)"/>
                                <path id="패스_28454" d="M295.087 159.018a15.154 15.154 0 0 0-11.929.174c-3.262 1.678-3.21 4.323.117 5.9a15.154 15.154 0 0 0 11.929-.174c3.261-1.674 3.209-4.318-.117-5.9z" class="cls-42" transform="translate(-279.668 -157.346)"/>
                                <path id="패스_28455" d="M294.941 159.041a14.911 14.911 0 0 0-11.739.171c-3.21 1.652-3.158 4.253.115 5.811a14.911 14.911 0 0 0 11.739-.173c3.208-1.65 3.158-4.25-.115-5.809z" class="cls-43" transform="translate(-279.616 -157.321)"/>
                                <path id="패스_28456" d="M294.795 159.064a14.676 14.676 0 0 0-11.549.168c-3.156 1.626-3.106 4.185.114 5.718a14.669 14.669 0 0 0 11.549-.169c3.156-1.625 3.105-4.181-.114-5.717z" class="cls-44" transform="translate(-279.564 -157.295)"/>
                                <path id="패스_28457" d="M294.649 159.087a14.43 14.43 0 0 0-11.358.166c-3.106 1.6-3.056 4.114.11 5.622a14.433 14.433 0 0 0 11.359-.166c3.103-1.598 3.055-4.115-.111-5.622z" class="cls-45" transform="translate(-279.512 -157.27)"/>
                                <path id="패스_28458" d="M294.5 159.111a14.187 14.187 0 0 0-11.168.163c-3.054 1.571-3 4.046.109 5.529a14.188 14.188 0 0 0 11.168-.165c3.055-1.571 3.008-4.047-.109-5.527z" class="cls-46" transform="translate(-279.461 -157.245)"/>
                                <path id="패스_28459" d="M294.357 159.134a13.952 13.952 0 0 0-10.978.16c-3 1.545-2.953 3.979.107 5.435a13.953 13.953 0 0 0 10.978-.162c3.001-1.543 2.954-3.978-.107-5.433z" class="cls-47" transform="translate(-279.409 -157.219)"/>
                                <path id="패스_28460" d="M294.21 159.157a13.7 13.7 0 0 0-10.785.158c-2.95 1.518-2.9 3.908.1 5.34a13.71 13.71 0 0 0 10.788-.158c2.951-1.518 2.906-3.91-.103-5.34z" class="cls-48" transform="translate(-279.357 -157.194)"/>
                                <path id="패스_28461" d="M294.064 159.18a13.46 13.46 0 0 0-10.595.155c-2.9 1.49-2.851 3.84.1 5.246a13.471 13.471 0 0 0 10.6-.155c2.896-1.492 2.85-3.842-.105-5.246z" class="cls-49" transform="translate(-279.306 -157.168)"/>
                                <path id="패스_28462" d="M293.918 159.2a13.217 13.217 0 0 0-10.405.152c-2.845 1.464-2.8 3.77.1 5.152a13.228 13.228 0 0 0 10.407-.153c2.845-1.462 2.8-3.768-.102-5.151z" class="cls-50" transform="translate(-279.254 -157.143)"/>
                            </g>
                        </g>
                        <g id="그룹_21383" transform="translate(8.08)">
                            <g id="그룹_21382">
                                <g id="그룹_21380" transform="translate(5.407)">
                                    <path id="패스_28463" d="M305.2 124.662c-4.735-4.9-12.646-10.263-19.594-6.606l-10.327 5.994c2-.967 8.756-3.086 18.166 5.387a40.07 40.07 0 0 1 11.165 18.056c1.008 3.318-.171 15.43-2.968 18.219a108.483 108.483 0 0 0-12.612 15.911l10.906-6.255s13.334-14.907 14.371-16.525c2.475-3.859 2.509-8.813 1.765-13.187a40.772 40.772 0 0 0-10.872-20.994z" class="cls-57" transform="translate(-275.282 -116.848)"/>
                                </g>
                                <g id="그룹_21381" transform="translate(0 6.045)">
                                    <path id="패스_28464" fill="#fdd83a" d="M308.066 152.617a38.619 38.619 0 0 0-7.946-20.581c-3.989-5.288-10.128-10.772-17.071-11.4a9.426 9.426 0 0 0-7.891 2.824c-2.433 2.637-3.207 6.4-3.207 9.879 0 13.107 19.158 45.983 19.158 45.983s12.973-14.153 14.468-16.217c2.169-3.005 2.694-6.879 2.489-10.488zm-7.791-3.394c-.156 3.964-2.616 7.965-7 7.52-5.462-.555-11.447-7.11-13.368-14.644s.954-13.192 6.418-12.635c8.395.862 14.282 12.399 13.95 19.759z" transform="translate(-271.95 -120.592)"/>
                                </g>
                            </g>
                            <path id="패스_28465" d="M287.146 136.3a18.775 18.775 0 0 1-1.469-9.677s-.948-.3-1.011-.317a8.089 8.089 0 0 0-1.167-.208c-5.464-.554-8.336 5.1-6.416 12.637s7.9 14.09 13.368 14.642a6.677 6.677 0 0 0 1.428 0 5.493 5.493 0 0 0 2.158-.686c2.184-1.245 3.146-3.782 3.369-6.188.001-.003-6.006-1.153-10.26-10.203z" class="cls-57" transform="translate(-269.124 -111.184)"/>
                        </g>
                    </g>
                    <g id="그룹_42346" class="cls-8" transform="translate(68.719 36.767)">
                        <path id="패스_33891" fill="#ab938a" d="M144.4 140.525l18.482 10.76 19.063-10.76-19.063-10.119z" opacity="0.907" transform="translate(-144.404 -96.886)"/>
                        <g id="그룹_42329" transform="translate(1.304 2.773)">
                            <path id="패스_33639" d="M2190.49 2094.794l11.327-6.506v.064l17.008 9.767-11.329 6.445z" class="cls-27" transform="translate(-2190.49 -2078.511)"/>
                            <path id="패스_33640" d="M2404.538 2095.812l15.219 8.739 1.351-.768-16.569-9.514z" class="cls-26" transform="translate(-2393.267 -2084.176)"/>
                            <path id="패스_33641" d="M2411.267 1902.633l17.009 9.745-5.677 3.261-17.009-9.744z" class="cls-27" transform="translate(-2394.262 -1902.633)"/>
                            <path id="패스_33642" d="M2207.5 2341.731v8.564l-17.007-9.769v-8.564z" class="cls-26" transform="translate(-2190.49 -2309.354)"/>
                            <path id="패스_33643" d="M2207.5 2221.605v6.6l-17.007-9.769v-6.6z" class="cls-26" transform="translate(-2190.49 -2195.554)"/>
                            <path id="패스_33644" d="M2530.452 2117.627l-17.007 9.768v-23.418l11.329-6.445v-6.6l5.677-3.261z" class="cls-28" transform="translate(-2496.438 -2077.926)"/>
                            <path id="패스_33645" d="M2207.5 2503.68v8.564l-17.007-9.769v-8.564z" class="cls-26" transform="translate(-2190.49 -2462.775)"/>
                            <path id="패스_33646" d="M2222.818 2551.951l-15.2-8.733v6.485l15.2 8.733z" class="cls-12" transform="translate(-2206.713 -2509.484)"/>
                            <path id="패스_33647" d="M2225.886 2558.049l-10.281-5.906-4.751 2.773v.754l9.741 5.6 5.292-3.088v-.129zm-2.91 4.585l2.91-1.7v3.37l-2.91-1.671zm-9.753-11.858l-2.37 1.383v-2.745z" class="cls-13" transform="translate(-2209.781 -2515.354)"/>
                            <g id="그룹_42311" transform="translate(.902 26.086)">
                                <path id="패스_33648" d="M2222.818 2406.727l-15.2-8.733v5.535l15.2 8.733z" class="cls-12" transform="translate(-2207.614 -2397.994)"/>
                                <path id="패스_33649" d="M2226.23 2412.975l-10.252-5.889-4.738 2.293v.277l9.714 5.579 5.276-2.132v-.129zm-2.9 3.625l2.9 1.667v-2.648l-2.9.981zm-10.205-11.154l-1.883-1.082v1.791z" class="cls-13" transform="translate(-2211.049 -2404.03)"/>
                            </g>
                            <g id="그룹_42312" transform="translate(3.286 27.455)">
                                <path id="패스_33650" d="M2263.33 2435.531V2430l-.085-.049v5.535l.085.049zm-2.575-7.014l-.085-.049V2434l.085.049v-5.535zm-2.748-1.578l-.086-.049v5.535l.086.049v-5.535zm-2.575-1.479l-.086-.049v5.536l.086.049v-5.535zm-2.451-1.408l-.086-.049v5.535l.086.049v-5.536z" class="cls-14" transform="translate(-2252.895 -2424.002)"/>
                                <path id="패스_33651" d="M2263.33 2465.933v-.492l-.085.029v.414l.085.049zm0-2.852v-2.44l-.085-.049v2.524l.085-.035zm-2.575-3.919l-.085-.049v5.043l.085-.034v-4.96zm-2.748-1.578l-.086-.05v5.292l.086.049v-5.292zm-2.575-1.471l-.086.042v5.193l.086.049v-5.284zm-2.451 1.187l-.086.042v2.6l.086.049v-2.69z" class="cls-14" transform="translate(-2252.895 -2454.422)"/>
                            </g>
                            <g id="그룹_42315" transform="translate(.902 18.783)">
                                <g id="그룹_42313">
                                    <path id="패스_33652" d="M2222.818 2268.047l-15.2-8.733v5.535l15.2 8.733z" class="cls-12" transform="translate(-2207.614 -2259.314)"/>
                                    <path id="패스_33653" d="M2226.23 2274.3l-10.252-5.888-4.738 2.293v.277l9.714 5.579 5.276-2.132v-.129zm-2.9 3.625l2.9 1.666v-2.648l-2.9.981zm-10.125-11.107l-1.964-1.128v1.791z" class="cls-13" transform="translate(-2211.049 -2265.351)"/>
                                </g>
                                <g id="그룹_42314" transform="translate(2.385 1.37)">
                                    <path id="패스_33654" d="M2263.33 2296.853v-5.535l-.085-.049v5.536l.085.049zm-2.575-7.014l-.085-.049v5.535l.085.049v-5.535zm-2.748-1.578l-.086-.049v5.535l.086.049v-5.535zm-2.575-1.479l-.086-.049v5.535l.086.049v-5.535zm-2.451-1.408l-.086-.049v5.535l.086.049z" class="cls-14" transform="translate(-2252.895 -2285.324)"/>
                                    <path id="패스_33655" d="M2263.33 2327.257v-.493l-.085.029v.415l.085.049zm0-2.852v-2.44l-.085-.049v2.524l.085-.035zm-2.575-3.919l-.085-.049v5.044l.085-.034v-4.96zm-2.748-1.579l-.086-.049v5.292l.086.049v-5.292zm-2.575-1.471l-.086.041v5.193l.086.049v-5.283zm-2.451 1.186l-.086.041v2.6l.086.049z" class="cls-14" transform="translate(-2252.895 -2315.745)"/>
                                </g>
                            </g>
                            <g id="그룹_42316" transform="translate(18.194 21.895)">
                                <path id="패스_33656" d="M2535.993 2324.186v5.317l10.047-5.771v-5.317z" class="cls-12" transform="translate(-2535.993 -2318.415)"/>
                                <path id="패스_33657" d="M2535.993 2325.98l.426-.244q2.259 1.322 4.515 2.647l-4.941 2.838v-5.241zm7.209 1.1l2.447-1.406-4.516-2.647-2.448 1.406q2.257 1.324 4.517 2.646zm.2-5.355l2.6-1.5v3.022z" class="cls-13" transform="translate(-2535.993 -2320.134)"/>
                                <path id="패스_33658" d="M2583.959 2349.878v-5.316l.085-.049v5.316l-.085.049zm-2.748 1.578l.086-.049v-5.317l-.086.049v5.316zm5.323-3.057l.086-.049v-5.317l-.086.05z" class="cls-14" transform="translate(-2578.83 -2341.737)"/>
                            </g>
                            <g id="그룹_42317" transform="translate(18.194 29.014)">
                                <path id="패스_33659" d="M2535.993 2459.369v5.316l10.047-5.771v-5.314z" class="cls-12" transform="translate(-2535.993 -2453.598)"/>
                                <path id="패스_33660" d="M2535.993 2461.164l.426-.244q2.259 1.322 4.515 2.647l-4.941 2.838v-5.241zm7.209 1.1l2.447-1.406-4.516-2.647-2.448 1.406q2.257 1.324 4.517 2.647zm.2-5.355l2.6-1.5v3.023z" class="cls-13" transform="translate(-2535.993 -2455.318)"/>
                                <path id="패스_33661" d="M2583.959 2485.061v-5.316l.085-.049v5.316l-.085.049zm-2.748 1.578l.086-.049v-5.317l-.086.049v5.316zm5.323-3.057l.086-.049v-5.317l-.086.05z" class="cls-14" transform="translate(-2578.83 -2476.92)"/>
                            </g>
                            <path id="패스_33662" d="M2283.745 2587.774l-6.77-3.888v6.412l6.77 3.889z" class="cls-12" transform="translate(-2272.42 -2548.01)"/>
                            <path id="패스_33663" d="M2286.851 2593.394l-1.635-.939-4.866 2.84v.575l1.138.653 5.363-3.13zm-3.168 4.391l3.259-1.9v3.774l-3.259-1.872zm-.662-6.59l-2.671 1.559v-3.093z" class="cls-13" transform="translate(-2275.618 -2553.481)"/>
                            <g id="그룹_42318" transform="translate(4.554 35.875)">
                                <path id="패스_33664" d="M2319.862 2614.93v-6.412l-.087-.05v6.412l.087.05zm-2.629-1.51v-6.412l-.087-.05v6.412z" class="cls-14" transform="translate(-2315.03 -2605.742)"/>
                                <path id="패스_33665" d="M2283.744 2587.773l-6.77-3.889v6.412l6.77 3.889v-6.412zm-.087.051v6.21l-6.595-3.788v-6.21z" class="cls-14" transform="translate(-2276.974 -2583.884)"/>
                            </g>
                            <g id="그룹_42319" fill-rule="evenodd" transform="translate(2.215 35.874)">
                                <path id="패스_33666" fill="#42333d" d="M2234.885 2583.87l6.773 3.89-2.336 1.342-4.485-2.575-2.288-1.314z" transform="translate(-2232.549 -2583.87)"/>
                                <path id="패스_33667" fill="#32282f" d="M2361.161 2659.084l2.337-1.342v.153l-2.337 1.342z" transform="translate(-2354.388 -2653.852)"/>
                                <path id="패스_33668" fill="#695b65" d="M2239.322 2613.247l-6.773-3.89v.153l6.773 3.89z" transform="translate(-2232.549 -2608.015)"/>
                            </g>
                            <g id="그룹_42320" transform="translate(18.194 36.637)">
                                <path id="패스_33669" d="M2535.993 2604.121v5.316l10.047-5.771v-5.317z" class="cls-12" transform="translate(-2535.993 -2598.35)"/>
                                <path id="패스_33670" d="M2535.993 2605.917l.426-.244q2.259 1.322 4.515 2.647l-4.941 2.838v-5.241zm7.209 1.1l2.447-1.406q-2.258-1.325-4.516-2.647l-2.448 1.406q2.257 1.325 4.517 2.647zm.2-5.355l2.6-1.5v3.022z" class="cls-13" transform="translate(-2535.993 -2600.071)"/>
                                <path id="패스_33671" d="M2583.959 2629.813v-5.313l.085-.049v5.316l-.085.05zm-2.748 1.578l.086-.049v-5.317l-.086.049v5.317zm5.323-3.058l.086-.049v-5.317l-.086.05z" class="cls-14" transform="translate(-2578.83 -2621.672)"/>
                            </g>
                            <path id="패스_33672" d="M2422.6 1973.884v6.6l-17.008-9.767v-6.6z" class="cls-26" transform="translate(-2394.262 -1960.878)"/>
                            <g id="그룹_42323" transform="translate(12.23 4.907)">
                                <g id="그룹_42321">
                                    <path id="패스_33673" d="M2437.936 2004.556l-15.2-8.733v4.3l15.2 8.731z" class="cls-12" transform="translate(-2422.732 -1995.823)"/>
                                    <path id="패스_33674" d="M2441.348 2010.805l-10.252-5.889-3.85 1.864 10.071 5.783 4.031-1.63v-.128zm0 4.073v-1.429l-1.566.53 1.566.9zm-13.026-11.555l-1.964-1.128v1.79z" class="cls-13" transform="translate(-2426.167 -2001.859)"/>
                                </g>
                                <g id="그룹_42322" transform="translate(2.384 1.37)">
                                    <path id="패스_33675" d="M2478.446 2032.124v-4.3l-.085-.049v4.3l.085.049zm-2.575-5.778l-.086-.049v4.3l.086.049v-4.3zm-2.748-1.578l-.086-.049v4.3l.086.049v-4.3zm-2.575-1.479l-.086-.049v4.3l.086.049v-4.3zm-2.451-1.408l-.086-.049v4.3l.086.049z" class="cls-14" transform="translate(-2468.012 -2021.831)"/>
                                    <path id="패스_33676" d="M2478.446 2060.912v-2.44l-.085-.049v2.524l.085-.034zm-2.575-3.919l-.086-.049v4.074l.086.049v-4.074zm-2.748-1.578l-.086-.05v4.074l.086.049v-4.074zm-2.575-1.471l-.086.042v3.975l.086.049v-4.066zm-2.451 1.186l-.086.041v1.382l.086.049z" class="cls-14" transform="translate(-2468.012 -2052.252)"/>
                                </g>
                            </g>
                            <path id="패스_33677" d="M2199.849 2100.459l1.344.772 9.436-5.419v-1.544z" class="cls-28" transform="translate(-2199.356 -2084.176)"/>
                            <g id="그룹_42326" transform="translate(23.441 5.831)">
                                <g id="그룹_42324" transform="translate(4.015 2.303)">
                                    <path id="패스_33678" d="M2753.523 2079.832v1.05l-2.084 1.2v-1.05z" class="cls-32" transform="translate(-2749.354 -2078.635)"/>
                                    <path id="패스_33679" d="M2713.941 2081.03v1.05l-2.085-1.2v-1.05z" class="cls-31" transform="translate(-2711.856 -2078.635)"/>
                                    <path id="패스_33680" d="M2711.856 2058.293l2.085-1.2 2.084 1.2-2.084 1.2z" class="cls-15" transform="translate(-2711.856 -2057.096)"/>
                                </g>
                                <g id="그룹_42325">
                                    <path id="패스_33681" d="M2677.286 2036.107v1.05l-2.084 1.2v-1.05z" class="cls-32" transform="translate(-2673.117 -2034.909)"/>
                                    <path id="패스_33682" d="M2637.7 2037.3v1.05l-2.085-1.2v-1.05z" class="cls-31" transform="translate(-2635.619 -2034.909)"/>
                                    <path id="패스_33683" d="M2635.619 2014.568l2.085-1.2 2.084 1.2-2.084 1.2z" class="cls-15" transform="translate(-2635.619 -2013.37)"/>
                                </g>
                                <path id="패스_33684" d="M2657.921 2025.187a1.426 1.426 0 0 1 1.307 0 .406.406 0 0 1 0 .766 1.425 1.425 0 0 1-1.307 0 .406.406 0 0 1 0-.766zm.433.253a.137.137 0 0 0 0 .259.484.484 0 0 0 .442 0 .137.137 0 0 0 0-.259.484.484 0 0 0-.442 0z" class="cls-63" transform="translate(-2656.49 -2024.414)"/>
                                <path id="패스_33685" d="M2734.16 2068.911a1.425 1.425 0 0 1 1.307 0 .406.406 0 0 1 0 .766 1.426 1.426 0 0 1-1.307 0 .406.406 0 0 1 0-.766zm.433.254a.137.137 0 0 0 0 .259.483.483 0 0 0 .442 0 .137.137 0 0 0 0-.259.48.48 0 0 0-.443 0z" class="cls-63" transform="translate(-2728.714 -2065.836)"/>
                            </g>
                            <path id="패스_33686" fill="#c69a54" fill-rule="evenodd" d="M2225.448 2129.008l15.171 8.714 9.483-5.394-15.219-8.739z" transform="translate(-2223.607 -2111.953)"/>
                            <g id="그룹_42328" transform="translate(1.841 11.637)">
                                <g id="그룹_42327" transform="translate(5.954 1.997)">
                                    <path id="패스_33687" d="M2342.487 2249.714l4.031-2.339v-.213l-4.215 2.447z" class="cls-17" transform="translate(-2342.103 -2242.652)"/>
                                    <path id="패스_33688" d="M2517.7 2346.471l-4.21 2.4z" class="cls-17" transform="translate(-2504.278 -2336.729)"/>
                                    <path id="패스_33689" d="M2625.639 2291.563l3.576-2.034z" class="cls-17" transform="translate(-2610.52 -2282.788)"/>
                                    <path id="패스_33690" d="M2486.1 2247.161v.213l7.166 4.159.183-.1z" class="cls-17" transform="translate(-2478.331 -2242.652)"/>
                                    <path id="패스_33691" d="M2338.521 2161.529v.21l6.093 3.537v-.213l-6.09-3.535z" class="cls-17" transform="translate(-2338.521 -2161.528)"/>
                                    <path id="패스_33692" d="M2454.225 2192.207v.213l3.491-2.026v-.213z" class="cls-17" transform="translate(-2448.132 -2188.671)"/>
                                </g>
                                <path id="패스_33693" d="M2231.6 2132.562l4.215-2.447-6.1-3.54-4.269 2.452 6.154 3.535zm1.688.969l4.206-2.441 7.331 4.255-4.21 2.395-7.327-4.208zm1.592-9.922l6.105 3.506-3.491 2.026-6.09-3.535 3.476-2zm11.641 10.771l3.575-2.034-7.423-4.263-3.5 2.031z" class="cls-30" transform="translate(-2225.448 -2123.609)"/>
                            </g>
                        </g>
                        <g id="그룹_42345" transform="translate(14.625)">
                            <g id="그룹_42334">
                                <g id="그룹_42332" transform="translate(3.963 .747)">
                                    <g id="그룹_42331" transform="translate(0 4.674)">
                                        <g id="그룹_42330" transform="translate(0 .299)">
                                            <path id="패스_33694" d="M2529.022 1958.62v.1l-.515.3v-.1z" class="cls-9" transform="translate(-2527.992 -1958.62)"/>
                                            <path id="패스_33695" d="M2519.235 1958.92v.1l-.516-.3v-.1z" class="cls-10" transform="translate(-2518.719 -1958.62)"/>
                                        </g>
                                        <path id="패스_33696" d="M2518.719 1953.239l.516-.3.516.3-.516.3z" class="cls-21" transform="translate(-2518.719 -1952.939)"/>
                                    </g>
                                    <path id="패스_33697" d="M2525.272 1864.176h.135l.108 4.935c0 .037 0 .063-.068.1a.207.207 0 0 1-.215 0c-.07-.04-.071-.066-.067-.1z" class="cls-9" transform="translate(-2524.824 -1864.176)"/>
                                </g>
                                <g id="그룹_42333">
                                    <path id="패스_33698" d="M2446.764 1849.983l2.688 1.54-3.307 5.451-2.689-1.54z" class="cls-9" transform="translate(-2443.457 -1849.983)"/>
                                    <path id="패스_33699" d="M2451.337 1855.241l2.426 1.39-3.062 5.048-2.426-1.39z" class="cls-13" transform="translate(-2448.021 -1854.964)"/>
                                    <path id="패스_33700" d="M2458.484 1865.347l-3.085.786-.287.185.767.439 2.07-.527.535-.883zm-.1-3.96l.9.515-2.334.6.534-.881.9-.229zm1.594 1.505l-.533.88-3.868.987.4-.656.492-.317z" class="cls-22" transform="translate(-2454.497 -1860.787)"/>
                                    <path id="패스_33701" d="M2450.9 1854.666l.606.348.606.347.606.347.606.347c.01.006.01.025 0 .043l-.612 1.008-.612 1.009-.612 1.008-.612 1.009-.612 1.009c-.011.017-.028.026-.038.02l-.606-.347-.606-.348-.606-.347-.606-.347c-.01-.006-.01-.025 0-.043l.612-1.008.612-1.009.612-1.009.612-1.008.612-1.009c.011-.017.028-.027.038-.021zm-.078 5.476l-.569-.326-.573.946.568.326.574-.945zm.612-1.009l-.568-.326-.573.945.568.326.573-.946zm.612-1.008l-.568-.326-.573.945.568.326.573-.945zm.612-1.008l-.569-.326-.573.945.568.326.574-.945zm.043-1.334l-.573.946.569.326.573-.946-.569-.326zm-2.485 4.012l-.568-.326-.573.945.568.326.573-.945zm.612-1.009l-.568-.326-.573.945.568.326.573-.946zm.612-1.008l-.569-.326-.573.946.568.326.574-.945zm.612-1.008l-.569-.326-.573.946.569.325.573-.945zm.043-1.334l-.574.946.569.326.574-.945-.569-.326zm-2.485 4.012l-.568-.326-.574.945.569.326.573-.945zm.612-1.009l-.568-.326-.574.945.569.326.573-.946zm.612-1.008l-.568-.326-.574.945.569.326.573-.945zm.612-1.008l-.568-.326-.573.945.568.326.573-.945zm.043-1.334l-.573.945.568.326.574-.945-.569-.326zM2449 1859.1l-.569-.326-.573.946.568.326.573-.946zm.612-1.008l-.569-.326-.573.946.569.326.573-.945zm.612-1.009l-.568-.326-.574.945.569.326.573-.945zm.612-1.008l-.568-.326-.574.945.569.326.573-.945zm.612-1.008l-.568-.326-.573.945.568.326z" class="cls-10" transform="translate(-2447.57 -1854.418)"/>
                                </g>
                                <path id="패스_33702" d="M2494.586 1884.729l-.1-.051 3.309-5.452.1.061z" class="cls-22" transform="translate(-2491.794 -1877.686)"/>
                            </g>
                            <g id="그룹_42339" transform="translate(2.7 1.55)">
                                <g id="그룹_42337" transform="translate(3.963 .747)">
                                    <g id="그룹_42336" transform="translate(0 4.674)">
                                        <g id="그룹_42335" transform="translate(0 .299)">
                                            <path id="패스_33703" d="M2580.289 1988.051v.1l-.516.3v-.1z" class="cls-9" transform="translate(-2579.258 -1988.051)"/>
                                            <path id="패스_33704" d="M2570.5 1988.35v.1l-.516-.3v-.1z" class="cls-10" transform="translate(-2569.985 -1988.051)"/>
                                        </g>
                                        <path id="패스_33705" d="M2569.985 1982.669l.516-.3.515.3-.515.3z" class="cls-21" transform="translate(-2569.985 -1982.371)"/>
                                    </g>
                                    <path id="패스_33706" d="M2576.538 1893.606h.135l.107 4.935c0 .037 0 .063-.067.1a.207.207 0 0 1-.215 0c-.069-.04-.071-.066-.067-.1z" class="cls-9" transform="translate(-2576.09 -1893.606)"/>
                                </g>
                                <g id="그룹_42338">
                                    <path id="패스_33707" d="M2498.03 1879.413l2.689 1.54-3.307 5.451-2.688-1.54z" class="cls-9" transform="translate(-2494.723 -1879.413)"/>
                                    <path id="패스_33708" d="M2502.6 1884.671l2.426 1.39-3.062 5.048-2.426-1.39z" class="cls-13" transform="translate(-2499.287 -1884.394)"/>
                                    <path id="패스_33709" d="M2509.75 1894.779l-3.086.786-.287.184.767.439 2.07-.527.535-.883zm-.1-3.96l.9.515-2.334.6.535-.881.9-.229zm1.594 1.505l-.534.88-3.867.987.4-.656.492-.317z" class="cls-22" transform="translate(-2505.763 -1890.219)"/>
                                    <path id="패스_33710" d="M2502.168 1884.1l.606.347.607.347.606.347.606.347c.01.006.01.025 0 .042l-.612 1.009-.612 1.008-.611 1.009-.612 1.008-.612 1.008c-.011.018-.028.027-.038.021l-.606-.347-.606-.347-.606-.347-.606-.347c-.01-.006-.01-.025 0-.042l.612-1.008.612-1.009.612-1.008.612-1.008.612-1.008c.01-.018.028-.027.038-.021zm-.079 5.475l-.569-.326-.573.945.568.326.573-.946zm.612-1.008l-.569-.326-.573.946.569.326.573-.945zm.612-1.008l-.569-.326-.573.945.569.326.573-.945zm.612-1.008l-.568-.326-.573.945.568.326.573-.945zm.043-1.334l-.573.945.569.326.573-.945-.569-.326zm-2.485 4.012l-.568-.326-.574.945.569.326.573-.945zm.612-1.008l-.569-.326-.573.945.569.326.573-.945zm.612-1.008l-.568-.326-.573.945.568.326.573-.945zm.612-1.008l-.569-.326-.573.945.568.326.574-.945zm.043-1.334l-.573.945.569.326.573-.945-.569-.326zm-2.485 4.012l-.569-.326-.573.945.569.326.573-.945zm.612-1.008l-.568-.326-.574.945.569.325.573-.945zm.612-1.008l-.568-.326-.574.945.569.326.573-.946zm.612-1.008l-.568-.326-.574.945.569.326.573-.945zm.043-1.334l-.573.945.569.326.573-.945-.569-.326zm-2.485 4.012l-.569-.326-.573.946.569.325.573-.945zm.612-1.009l-.569-.326-.573.945.569.326.573-.945zm.612-1.008l-.568-.326-.573.945.568.326.573-.946zm.612-1.008l-.568-.326-.574.945.569.326.573-.945zm.612-1.008l-.568-.326-.574.945.569.326z" class="cls-10" transform="translate(-2498.835 -1883.849)"/>
                                </g>
                                <path id="패스_33711" d="M2545.851 1914.159l-.1-.051 3.309-5.452.1.061z" class="cls-22" transform="translate(-2543.059 -1907.116)"/>
                            </g>
                            <g id="그룹_42344" transform="translate(5.396 3.096)">
                                <g id="그룹_42342" transform="translate(3.963 .747)">
                                    <g id="그룹_42341" transform="translate(0 4.674)">
                                        <g id="그룹_42340" transform="translate(0 .299)">
                                            <path id="패스_33712" d="M2631.5 2017.405v.1l-.516.3v-.1z" class="cls-9" transform="translate(-2630.466 -2017.405)"/>
                                            <path id="패스_33713" d="M2621.709 2017.7v.1l-.515-.3v-.1z" class="cls-10" transform="translate(-2621.194 -2017.405)"/>
                                        </g>
                                        <path id="패스_33714" d="M2621.194 2012.022l.515-.3.516.3-.516.3z" class="cls-21" transform="translate(-2621.194 -2011.723)"/>
                                    </g>
                                    <path id="패스_33715" d="M2627.748 1922.959h.135l.107 4.935c0 .037 0 .063-.067.1a.207.207 0 0 1-.215 0c-.07-.04-.071-.066-.067-.1z" class="cls-9" transform="translate(-2627.3 -1922.959)"/>
                                </g>
                                <g id="그룹_42343">
                                    <path id="패스_33716" d="M2549.239 1908.768l2.689 1.54-3.308 5.451-2.688-1.54z" class="cls-9" transform="translate(-2545.932 -1908.768)"/>
                                    <path id="패스_33717" d="M2553.812 1914.025l2.426 1.389-3.062 5.048-2.426-1.39z" class="cls-13" transform="translate(-2550.496 -1913.748)"/>
                                    <path id="패스_33718" d="M2560.958 1924.132l-3.085.786-.287.185.767.439 2.07-.527.535-.883zm-.1-3.96l.9.515-2.334.6.535-.881.9-.23zm1.594 1.505l-.534.88-3.868.987.4-.656.492-.317z" class="cls-22" transform="translate(-2556.973 -1919.571)"/>
                                    <path id="패스_33719" d="M2553.377 1913.451l.606.347.606.348.607.347.606.347c.011.006.01.025 0 .042l-.612 1.008-.612 1.009-.612 1.008-.612 1.009-.612 1.009c-.011.017-.028.027-.038.021l-.606-.348-.607-.347-.606-.347-.607-.347c-.01-.006-.01-.025 0-.043l.612-1.008.612-1.009.612-1.008.612-1.009.612-1.009c.01-.017.028-.027.038-.02zm-.078 5.475l-.569-.326-.573.945.568.326.574-.945zm.612-1.009l-.569-.326-.573.945.568.326.574-.945zm.611-1.009l-.568-.326-.574.945.568.326.573-.945zm.612-1.008l-.569-.326-.573.945.569.326.573-.945zm.043-1.334l-.573.945.568.326.574-.946-.569-.326zm-2.485 4.012l-.568-.326-.574.945.569.326.573-.945zm.612-1.009l-.568-.326-.574.945.569.326.573-.945zm.612-1.009l-.568-.325-.574.945.569.326.573-.945zm.612-1.008l-.569-.326-.573.945.568.326.574-.945zm.043-1.334l-.573.946.568.326.574-.945-.569-.326zm-2.485 4.012l-.569-.326-.573.945.569.326.574-.946zm.612-1.008l-.569-.326-.573.946.569.326.573-.945zm.612-1.009l-.568-.326-.574.945.569.326.573-.945zm.612-1.009l-.569-.326-.574.945.569.326.573-.946zm.043-1.334l-.574.945.569.326.573-.945-.569-.326zm-2.485 4.012l-.569-.326-.573.946.569.326.574-.946zm.612-1.008l-.569-.326-.573.945.569.326.573-.945zm.612-1.009l-.569-.326-.573.945.568.326.574-.945zm.612-1.008l-.569-.326-.573.945.569.326.574-.945zm.612-1.008l-.568-.326-.574.945.569.326z" class="cls-10" transform="translate(-2550.044 -1913.203)"/>
                                </g>
                                <path id="패스_33720" d="M2597.06 1943.513l-.1-.051 3.309-5.452.1.061z" class="cls-22" transform="translate(-2594.268 -1936.47)"/>
                            </g>
                        </g>
                    </g>
                </g>
                <g id="그룹_42436" transform="rotate(-3 2861.038 -2146.116)">
                    <path id="패스_33892" fill="#ab938a" d="M.8 3.586A14.793 14.793 0 0 1 6.166.541C8.5-.262 10.449-.12 10.8.63c.724 1.57-3.1 2.084-2.544 2.747.827.975 6.574-1.985 6.271.384-.081.632-1.281.606-6.531 2.789C3.079 8.593-2 6.1.8 3.586z" opacity="0.256" transform="translate(.71 39.85)"/>
                    <g id="그룹_42436-2">
                        <path id="패스_33893" d="M0 0l.274.547a2.35 2.35 0 0 0 1.367.068L1.674.07z" class="cls-66" transform="translate(8.539 43.867)"/>
                        <path id="패스_33894" d="M0 0l.273.549a2.378 2.378 0 0 0 1.368.066L1.674.07z" class="cls-66" transform="translate(5.221 41.371)"/>
                        <path id="패스_33895" d="M.148 0A8.678 8.678 0 0 0 0 1.693c.033.753 1.707.58 2.941.478a8.042 8.042 0 0 0 3.212-.649C6.577 1.233 6.4.394 5.066.359A22.159 22.159 0 0 1 2.5.085z" class="cls-66" transform="translate(8.398 41.901)"/>
                        <path id="패스_33896" d="M.149 0A8.89 8.89 0 0 0 0 1.693c.034.752 1.709.582 2.941.478a8 8 0 0 0 3.215-.65C6.576 1.233 6.4.394 5.063.36A22.924 22.924 0 0 1 2.5.086z" class="cls-66" transform="translate(5.08 39.404)"/>
                        <path id="패스_33897" fill="#805026" d="M4.06 1.366S2.777 12.342 2.317 17.419a2.231 2.231 0 0 1-2.248-.41C.111 11.725-.214 6.1.265 0z" transform="translate(5.179 22.482)"/>
                        <path id="패스_33898" fill="#a76a34" d="M5.128 2.974S4.1 14.26 3.643 20.208c-.051.582-2.342.512-2.437-.359C.935 12.67.362 6.565 0 0z" transform="translate(7.341 22.052)"/>
                        <path id="패스_33899" d="M1.676.1a16.805 16.805 0 0 1 .647 1.87c.034.327-.248.56-.54-.494.074 1.812.159 2.333-.058 2.349s-.183-.337-.29-1.376c-.07 1.362-.1 1.631-.312 1.6-.177-.025-.188-.3-.1-1.607C.737 3.771.748 3.978.548 3.911c-.179-.056-.153-.28.1-1.552C.314 3.2.267 3.444.082 3.367c-.209-.092.015-.559.27-1.3A7.632 7.632 0 0 0 .432.1a2.052 2.052 0 0 1 1.244 0z" class="cls-69" transform="translate(0 22.882)"/>
                        <path id="패스_33900" d="M9.258 2.173a20.8 20.8 0 0 0-6.1 5.648 11.166 11.166 0 0 0-1.649 6.564l-1.42-.026a16.816 16.816 0 0 1 .8-7.124C2.665 2.258 4.469.885 5.7.1c1.4-.507 3.818 1.06 3.558 2.073z" class="cls-66" transform="translate(.264 8.727)"/>
                        <path id="패스_33901" d="M6.411.616l1.989.628a.413.413 0 0 1 .373.494c-.187 1.619-1.3 8.144-1.751 14.6A11.236 11.236 0 0 1 0 13.8S.053 5.425.509.636C.516.543.542 0 .937.031L2.308 0z" class="cls-66" transform="translate(5.444 8.684)"/>
                        <path id="패스_33902" d="M0 .536a6.376 6.376 0 0 1 0 1.1c-.013.144.1.386.845.513 1.334.232 2.357-.228 2.411-.486V0z" class="cls-69" transform="translate(8.153 6.676)"/>
                        <path id="패스_33903" d="M3.825.508s.386.643.54.975c.462 1 .7 1.41.614 1.435-.178.053-.486.154-.486.154s.166.723.35 2.009c.067.479.06.787-1.786 1.3C1.036 6.943.748 6.715.593 6.2.387 5.329-.381 2.3.234 1.483 1.265.111 3.03-.517 3.825.508z" class="cls-69" transform="translate(7.457 .729)"/>
                        <path id="패스_33904" d="M4.714 1.237s-1.126.334-1.281.411.1.948.155 1.411-.154-.071-.437 0c-.41.1-.383.662-.154 1.384.178.564.718.463.8.232s.333.769.511 1.692a13.167 13.167 0 0 1-2.821.565A10.734 10.734 0 0 1 .046 2.983C-.337.956 1.77.339 3.125.084c1.231-.231 1.41-.027 1.589 1.153z" class="cls-66" transform="translate(6.568)"/>
                        <path id="패스_33905" fill="#bfbfbf" d="M0 .65S.136.376.308 0l3.351.308.445.959C3.181 1.435.341 1.128 0 .65z" transform="translate(7.751 8.034)"/>
                        <path id="패스_33906" d="M3 2.408a16.339 16.339 0 0 1-1.649-.578c-.256-.156-.218-.436.661-.125C1.421 1.418 1.163.986.8.833.26.606-.027.664 0 .393.021.225.381.3.972.514c.214.078.252.243.518.4C1.1.584 1.088.5 1.23.361c.115-.115.251 0 .494.258-.2-.244-.309-.4-.142-.5.117-.068.2 0 .408.263-.154-.236-.16-.311-.05-.367.125-.065.213.086.424.316.13.14.442.393 1.277 1.313A1.25 1.25 0 0 1 3 2.408z" class="cls-69" transform="translate(13.336 5.678)"/>
                        <path id="패스_33907" d="M.55 3.183a.777.777 0 0 1 1.071-.2c.564.361 3.953 3.308 4.865 2.3.458-.508-1.781-3.454-2.81-4.41L4.385 0c2.23 2.028 5.832 6.517 3.449 7.56-1.8.787-5.085-.322-6.94-.927C-.014 7.46-.4 4.475.55 3.183z" class="cls-66" transform="translate(12.568 7.246)"/>
                    </g>
                </g>
            </g>
        </g>
    </g>
</svg>
