<svg xmlns="http://www.w3.org/2000/svg" width="60" height="60" viewBox="0 0 60 60">
    <defs>
        <style>
            .cls-2{fill:#d09e17}
        </style>
    </defs>
    <g id="img_accident04" transform="translate(-279 -182)">
        <circle id="타원_1430" cx="30" cy="30" r="30" fill="#ffec9d" transform="translate(279 182)"/>
        <g id="그룹_44545" transform="translate(2168.5 691.277)">
            <path id="패스_38892" d="M-1854.552-475.147h-6.556a.892.892 0 0 0-.851.929.89.89 0 0 0 .876.852h6.506a.9.9 0 0 0 .881-.878.881.881 0 0 0-.856-.903z" class="cls-2"/>
            <path id="패스_38893" d="M-1848.151-491.677h-16.163a3.679 3.679 0 0 0-3.633 3.538 7.748 7.748 0 0 0-6.944 8.062 7.712 7.712 0 0 0 6.906 7.33v2.514h-3.209a.9.9 0 0 0-.881.894 3.674 3.674 0 0 0 3.639 3.637h14.78a3.675 3.675 0 0 0 3.637-3.64v-17.839h4.618a.9.9 0 0 0 .88-.893 3.639 3.639 0 0 0-3.63-3.603zm1.618 2.75h-3.253a1.846 1.846 0 0 1 .65-.69 1.846 1.846 0 0 1 1.4-.23 1.833 1.833 0 0 1 1.203.92zm-10.6 21.444h-11.309a1.852 1.852 0 0 1-1.628-.969h12.529a3.644 3.644 0 0 0 .413.969zm-10-18.941a5.989 5.989 0 0 1 5.982 5.982 5.989 5.989 0 0 1-5.982 5.982 6.035 6.035 0 0 1-5.993-5.982h.01a5.99 5.99 0 0 1 5.987-5.982zm13.124 18.941a1.862 1.862 0 0 1-1.856-1.868.906.906 0 0 0-.89-.882h-9.419v-2.52a7.757 7.757 0 0 0 6.784-8.215 7.777 7.777 0 0 0-6.782-7.162 1.833 1.833 0 0 1 .539-1.22 1.846 1.846 0 0 1 1.317-.546h13.029a3.617 3.617 0 0 0-.516 1.859v18.7a1.842 1.842 0 0 1-.54 1.312 1.85 1.85 0 0 1-1.319.546h-.346z" class="cls-2"/>
            <path id="패스_38894" d="M-1854.476-485.457l-4.375.005a.9.9 0 0 0-.733.734.891.891 0 0 0 .151.67.916.916 0 0 0 .645.372h4.328a.869.869 0 0 0 .765-.874.853.853 0 0 0-.781-.907z" class="cls-2"/>
            <path id="패스_38895" d="M-1854.586-482.02H-1858a.887.887 0 0 0-.851.852.894.894 0 0 0 .867.929h3.41a.9.9 0 0 0 .881-.882v-.036a.889.889 0 0 0-.893-.863z" class="cls-2"/>
            <path id="패스_38896" d="M-1854.586-478.583H-1858a.887.887 0 0 0-.851.852.884.884 0 0 0 .233.641.892.892 0 0 0 .634.288h3.41a.9.9 0 0 0 .881-.882v-.036a.906.906 0 0 0-.893-.863z" class="cls-2"/>
            <path id="패스_38897" d="M-1870.878-479.616h.668l.652 1.781a1 1 0 0 0 .974.765 1.026 1.026 0 0 0 .238-.029 1.008 1.008 0 0 0 .742-.772l.493-1.745h.154l.651 1.773a1 1 0 0 0 .444.623 1 1 0 0 0 .528.152 1.026 1.026 0 0 0 .227-.026 1 1 0 0 0 .756-.781l.493-1.741h.709a.75.75 0 0 0 .75-.75.75.75 0 0 0-.75-.75h-.284l.251-.889a.75.75 0 0 0-.517-.926.749.749 0 0 0-.926.518l-.367 1.3h-.919l-.527-1.442a.752.752 0 0 0-.962-.447.74.74 0 0 0-.469.573c0 .007-.007.012-.009.019l-.367 1.3h-.919l-.527-1.442a.751.751 0 0 0-.962-.447.75.75 0 0 0-.447.962l.34.927h-.118a.75.75 0 0 0-.75.75.75.75 0 0 0 .75.744z" class="cls-2"/>
        </g>
    </g>
</svg>
