<svg xmlns="http://www.w3.org/2000/svg" id="img_inuse_car" width="140" height="116" viewBox="0 0 140 116">
    <defs>
        <linearGradient id="linear-gradient" x1=".372" x2=".679" y1=".318" y2=".704" gradientUnits="objectBoundingBox">
            <stop offset="0" stop-color="#ba7f37"/>
            <stop offset="1" stop-color="#98541e"/>
        </linearGradient>
        <clipPath id="clip-path">
            <path id="mask" fill="#fff" d="M0 0H140V116H0z" opacity="0.2" transform="translate(211 108)"/>
        </clipPath>
        <style>
            .cls-5{fill:#4f3037}.cls-6{fill:#381a22}.cls-7{fill:#601612}.cls-8{fill:#2b151a}.cls-9{fill:#bf9692}.cls-10{fill:#93666d}.cls-11{fill:#d7b2a7}.cls-13{fill:#6b464c}.cls-16{fill:#ffc134}.cls-17{fill:#ff5d02}.cls-18{fill:#ff7308}.cls-19{fill:#df9b39}.cls-20{fill:#fff3e0}.cls-21{fill:#ffffef}.cls-22{fill:#ce4504}.cls-24{fill:#392126}.cls-29{fill:#3b5974}
        </style>
    </defs>
    <g id="마스크_그룹_96" clip-path="url(#clip-path)" transform="translate(-211 -108)">
        <g id="그룹_40604">
            <path id="패스_118" d="M865.778 283.339l5.389.665 25.333 14.625-27.411 15.826L842 324.493l.528.176 1.963-.276 4.489 1.5-.523.522-2.648.372-5.21-1.737-17.824 9.371-.959.176.071.041-1.375.794-5.3.974-.01-.006-.973.562-4.667.656-32.293-18.644.864-.5z" opacity="0.239" transform="translate(-553.269 -118.63)"/>
            <g id="img_car" transform="translate(243.719 76.677)">
                <path id="패스_1" d="M25.912 139.117l-3.174-3.174v-3.055l3.682 2.9.493 2.1z" class="cls-5" transform="translate(-21.898 -49.06)"/>
                <path id="패스_2" d="M29.491 141.212v-2.852l1.08.226v2.579z" class="cls-6" transform="translate(-25.554 -52.025)"/>
                <path id="패스_4" d="M210.239 160.993l1.146-6.7-6.028.842 3.835 5.254z" class="cls-7" transform="translate(-120.736 -60.655)"/>
                <g id="그룹_1" transform="translate(74.647 93.652)">
                    <path id="패스_5" d="M192.909 154.695a3.825 3.825 0 0 0-3.867.376 12.053 12.053 0 0 0-5.453 9.445 3.829 3.829 0 0 0 1.6 3.532l2.908 1.68a3.817 3.817 0 0 0 3.873-.372 12.052 12.052 0 0 0 5.453-9.445 3.826 3.826 0 0 0-1.609-3.537z" class="cls-8" transform="translate(-183.59 -154.326)"/>
                    <path id="패스_6" d="M200.889 161.91a12.054 12.054 0 0 1-5.453 9.446c-3.011 1.738-5.453.33-5.453-3.148a12.054 12.054 0 0 1 5.453-9.445c3.012-1.74 5.453-.332 5.453 3.147z" class="cls-6" transform="translate(-187.054 -156.325)"/>
                    <path id="패스_7" d="M198.3 165.262a6.694 6.694 0 0 0-3.03 5.247c0 1.932 1.356 2.714 3.03 1.749a6.7 6.7 0 0 0 3.03-5.248c.002-1.931-1.355-2.71-3.03-1.748z" class="cls-9" transform="translate(-189.92 -160.027)"/>
                    <path id="패스_8" d="M197.932 172.061a6.317 6.317 0 0 0 2.857-4.949 2.184 2.184 0 0 0-.614-1.688 2.183 2.183 0 0 0-1.77.311 6.315 6.315 0 0 0-2.857 4.949 1.4 1.4 0 0 0 2.383 1.375z" class="cls-10" transform="translate(-190.024 -160.302)"/>
                    <path id="패스_9" d="M200.023 168.548a1.134 1.134 0 0 0-.986.151 3.376 3.376 0 0 0-1.527 2.646 1.073 1.073 0 0 0 .443.984c.081.046.433.258.536.307a1.108 1.108 0 0 0 1.021-.137 3.376 3.376 0 0 0 1.527-2.646 1.071 1.071 0 0 0-.449-.987c-.079-.045-.447-.266-.565-.318z" class="cls-9" transform="translate(-191.129 -162.003)"/>
                    <path id="패스_10" d="M201.6 170.171a3.376 3.376 0 0 1-1.527 2.646c-.844.487-1.527.092-1.527-.882a3.374 3.374 0 0 1 1.527-2.645c.847-.49 1.527-.09 1.527.881z" class="cls-11" transform="translate(-191.695 -162.32)"/>
                    <path id="패스_11" d="M201.269 166.348a7.392 7.392 0 0 1-3.345 5.792c-1.847 1.066-3.345.2-3.345-1.93a7.391 7.391 0 0 1 3.345-5.792c1.848-1.066 3.345-.202 3.345 1.93zm-3.345-1.368a6.315 6.315 0 0 0-2.857 4.949c0 1.822 1.279 2.561 2.857 1.65a6.314 6.314 0 0 0 2.857-4.948c0-1.822-1.277-2.561-2.856-1.65z" class="cls-11" transform="translate(-189.544 -159.546)"/>
                </g>
                <path id="패스_12" d="M110.128 219.138l1.176-6.652-5.636.82 3.412 5.227z" class="cls-7" transform="translate(-66.784 -92.179)"/>
                <g id="그룹_2" transform="translate(28.546 120.064)">
                    <path id="패스_13" d="M92.439 212.7a3.825 3.825 0 0 0-3.867.376 12.053 12.053 0 0 0-5.453 9.445 3.829 3.829 0 0 0 1.6 3.532l2.908 1.68a3.817 3.817 0 0 0 3.873-.373 12.053 12.053 0 0 0 5.453-9.446 3.824 3.824 0 0 0-1.609-3.536z" class="cls-8" transform="translate(-83.12 -212.158)"/>
                    <ellipse id="타원_1" cx="7.713" cy="4.453" class="cls-6" rx="7.713" ry="4.453" transform="rotate(-59.999 11.903 6.1)"/>
                    <path id="패스_14" d="M97.834 223.267a6.694 6.694 0 0 0-3.03 5.247c0 1.932 1.356 2.715 3.03 1.749a6.7 6.7 0 0 0 3.03-5.247c-.003-1.933-1.364-2.716-3.03-1.749z" class="cls-9" transform="translate(-89.45 -217.859)"/>
                    <path id="패스_15" d="M97.462 230.067a6.318 6.318 0 0 0 2.857-4.949 2.186 2.186 0 0 0-.614-1.688 2.183 2.183 0 0 0-1.77.311 6.317 6.317 0 0 0-2.857 4.949 1.4 1.4 0 0 0 2.383 1.375z" class="cls-10" transform="translate(-89.554 -218.135)"/>
                    <path id="패스_16" d="M99.552 226.554a1.134 1.134 0 0 0-.986.151 3.375 3.375 0 0 0-1.527 2.645 1.071 1.071 0 0 0 .443.984c.081.046.433.259.536.307a1.111 1.111 0 0 0 1.021-.137 3.377 3.377 0 0 0 1.527-2.646 1.069 1.069 0 0 0-.449-.987c-.079-.043-.448-.271-.565-.317z" class="cls-9" transform="translate(-90.658 -219.836)"/>
                    <path id="패스_17" d="M101.131 228.176a3.376 3.376 0 0 1-1.527 2.646c-.844.487-1.527.092-1.527-.882a3.375 3.375 0 0 1 1.523-2.64c.848-.492 1.531-.1 1.531.876z" class="cls-11" transform="translate(-91.224 -220.153)"/>
                    <path id="패스_18" d="M100.8 224.355a7.394 7.394 0 0 1-3.345 5.792c-1.847 1.066-3.345.2-3.345-1.93a7.392 7.392 0 0 1 3.345-5.792c1.845-1.068 3.345-.203 3.345 1.93zm-3.345-1.369a6.314 6.314 0 0 0-2.857 4.948c0 1.822 1.279 2.561 2.857 1.65a6.316 6.316 0 0 0 2.857-4.949c0-1.823-1.277-2.562-2.856-1.651z" class="cls-11" transform="translate(-89.073 -217.379)"/>
                </g>
                <path id="패스_19" fill="url(#linear-gradient)" d="M120.128 152.756l-33.255 19.21a10.067 10.067 0 0 0 .083-1.108c0-4.136-2.9-5.812-6.485-3.744a14.335 14.335 0 0 0-6.485 11.233 8.182 8.182 0 0 0 .057 1.027l-8.783 4.966-2.514-5.228 2.533-9.94 19.1-16.331 52.421-27.422v17.713l-3.827 2.217a9.723 9.723 0 0 0 .064-1.089c0-4.136-2.9-5.812-6.485-3.744a14.335 14.335 0 0 0-6.485 11.233 7.8 7.8 0 0 0 .061 1.007z" transform="translate(-43.47 -45.006)"/>
                <path id="패스_20" d="M30.034 144.846l-.543-.543 1.2-.237z" class="cls-10" transform="translate(-25.554 -55.116)"/>
                <path id="패스_21" d="M25.833 135.556l-3.095-3.094 1.081-.36 3.094 3.094z" class="cls-10" transform="translate(-21.898 -48.635)"/>
                <path id="패스_22" d="M29.491 144.159l1.08-.36.183.183z" class="cls-13" transform="translate(-25.554 -54.972)"/>
                <path id="패스_23" fill="#cc8b2d" d="M109.762 130.647l8.784-38.2 32.872-13.338 10.857 21.221z" transform="translate(-68.943 -19.925)"/>
                <path id="패스_24" fill="#ffc855" d="M74.541 89.14l-12.546 42.339L21.6 117.718l19.76-35.68a3.221 3.221 0 0 1 2.32-1.393" transform="translate(-21.264 -20.757)"/>
                <path id="패스_25" d="M64.974 245.558l-1.231-5.916 7.444-3.058v5.387z" class="cls-6" transform="translate(-44.091 -105.235)"/>
                <path id="패스_26" d="M-17.719 201.216v-5.387l38.558 21.736v5.911z" class="cls-5" transform="translate(0 -83.154)"/>
                <path id="패스_27" d="M-17.719 194.8l1.508-.871 36.865 22 .559-.252.789.707-1.162.671z" class="cls-10" transform="translate(0 -82.125)"/>
                <path id="패스_28" d="M24.087 195.154l-1.125 10.532-36.421-21.029 1.03-9.645z" class="cls-16" transform="translate(-2.308 -71.876)"/>
                <path id="패스_29" d="M71.357 235.24l1.068.616-5.051 2.916-.923-.533-.424.078z" class="cls-13" transform="translate(-45.328 -104.507)"/>
                <path id="패스_30" d="M-15.229 180.489l1.642.24-1.239 6.232-1.03-.6z" class="cls-17" transform="translate(-1.009 -74.847)"/>
                <path id="패스_31" d="M-13.255 179.6l.412.238-.3.532-1.339-.773 1.311-.757z" class="cls-18" transform="translate(-1.753 -73.952)"/>
                <path id="패스_32" d="M2.544 188.778l21.614 12.479-1.168 5.564-19.412-11.207z" class="cls-5" transform="translate(-10.978 -79.334)"/>
                <path id="패스_33" d="M57 233.092l-.307 2.319-7.918-4.572-.051-.238z" class="cls-19" transform="translate(-35.962 -101.993)"/>
                <path id="패스_34" d="M47.638 216.785l8.436 4.163-1.239 6.232-7.823-4.517z" class="cls-20" transform="translate(-35.034 -94.508)"/>
                <path id="패스_35" d="M48.992 216.013l7.823 4.517-.291.539-8.144-4.7z" class="cls-21" transform="translate(-35.776 -94.09)"/>
                <path id="패스_36" d="M67.688 225.686l1.03-.6.618.356z" class="cls-22" transform="translate(-46.229 -99.007)"/>
                <path id="패스_37" d="M66.6 226.739l-1.491 6.376-1.029-.6.625-5.876z" class="cls-17" transform="translate(-44.278 -99.849)"/>
                <path id="패스_38" fill="#9d3501" d="M68.6 231.385l-2.269 1.31.68-6.376 1.589-.45z" transform="translate(-45.494 -99.43)"/>
                <path id="패스_39" d="M68.124 225.811l-1.642.948-1.03-.6.612-.354.412.238 1.562-.287z" class="cls-18" transform="translate(-45.019 -99.371)"/>
                <path id="패스_40" d="M-4.727 198.39l-.092.862-8.552-4.937.08-.751z" class="cls-19" transform="translate(-2.356 -81.931)"/>
                <path id="패스_41" d="M2.391 196.151l1.731-5.283.225 1.045-.535 5.015z" class="cls-24" transform="translate(-10.895 -80.47)"/>
                <path id="패스_42" d="M-13.609 187.664l.627-5.877 8.436 4.163-1.239 6.232z" class="cls-20" transform="translate(-2.227 -75.55)"/>
                <path id="패스_43" d="M3.464 197.036l.67-6.285.57.055-.627 5.877z" class="cls-11" transform="translate(-11.477 -80.406)"/>
                <path id="패스_44" d="M-3.805 185.53l-.612.353-7.823-4.516.612-.354z" class="cls-21" transform="translate(-2.968 -75.131)"/>
                <path id="패스_45" d="M219.3 154.152l-.573 6.123-1.068-.616v-5.387z" class="cls-24" transform="translate(-127.399 -60.58)"/>
                <path id="패스_46" d="M223.94 156.161l-3.957 2.285v-5.868l3.957-1.8z" class="cls-6" transform="translate(-128.66 -58.75)"/>
                <path id="패스_47" d="M218.723 152.571l-1.068-.616 2.045-1.18 2.264-.9.715.412z" class="cls-13" transform="translate(-127.399 -58.263)"/>
                <path id="패스_48" fill="#7f2000" d="M224.38 144.917l-1.647.951-.618-5.111 2.264-.6z" transform="translate(-129.816 -53.001)"/>
                <path id="패스_49" fill="#ce3801" d="M222.116 146.216v-4.754h.618v5.111z" transform="translate(-129.816 -53.706)"/>
                <path id="패스_50" d="M222.116 139.915l1.029-.6v-.712l1.237.713-1.647.951z" class="cls-22" transform="translate(-129.816 -52.159)"/>
                <path id="패스_51" fill="#ffd752" d="M99.521 42.671l27.974 16.15a.649.649 0 0 1 0 1.125L97.038 77.53a2.6 2.6 0 0 1-2.6 0L66.465 61.38a.649.649 0 0 1 0-1.125l30.458-17.584a2.6 2.6 0 0 1 2.598 0z" transform="translate(-45.309)"/>
                <path id="패스_52" fill="#7fabcc" d="M38.079 116.237l27.45 15.849a3.53 3.53 0 0 0 5.15-2.054l6.8-22.956a3.53 3.53 0 0 0-1.62-4.06L52.782 89.691a3.53 3.53 0 0 0-4.862 1.363l-11.173 20.433a3.53 3.53 0 0 0 1.332 4.75z" transform="translate(-29.231 -25.401)"/>
                <path id="패스_53" d="M116.94 142.92l15.158-8.75a4.5 4.5 0 0 0 2.24-3.618l1.265-20.525a1.3 1.3 0 0 0-1.946-1.2l-9.241 5.335a4.5 4.5 0 0 0-2.063 2.617l-7.307 24.653a1.3 1.3 0 0 0 1.894 1.488z" class="cls-29" transform="translate(-71.818 -35.926)"/>
                <path id="패스_54" d="M171.788 91.744l-8.47 4.89a3.331 3.331 0 0 0-1.659 2.681l-1.3 21.15a1.3 1.3 0 0 0 1.946 1.2l14.366-8.294a3.332 3.332 0 0 0 1.555-3.738l-4.529-17.1a1.3 1.3 0 0 0-1.909-.789z" class="cls-29" transform="translate(-96.353 -26.677)"/>
                <path id="패스_55" d="M7.793 145.693l36.423 21.029-19.01 13.435-36.423-21.029z" class="cls-16" transform="translate(-3.522 -55.994)"/>
                <path id="패스_56" d="M118.676 189.9l-.624 3.679-6.3-2.1-.614-.873 1.552-.436v-1.434z" class="cls-5" transform="translate(-69.745 -79.313)"/>
                <path id="패스_57" d="M111.011 193.3v-.789h.264l.409 1.014z" class="cls-24" transform="translate(-69.679 -81.359)"/>
                <path id="패스_58" d="M111.011 191.884l.914-.527.7.232-1.3.4z" class="cls-13" transform="translate(-69.679 -80.735)"/>
                <path id="패스_59" d="M126.848 191.272v3.055l-.624.624v-3.522z" class="cls-6" transform="translate(-77.914 -80.689)"/>
                <path id="패스_60" d="M120.508 189.161l-.624.624-5.361-1.785.624-.624z" class="cls-10" transform="translate(-71.577 -78.577)"/>
                <path id="패스_61" d="M111.676 192.129l.967-.51.338.113v.832z" class="cls-10" transform="translate(-70.039 -80.877)"/>
            </g>
        </g>
    </g>
</svg>
