<svg xmlns="http://www.w3.org/2000/svg" xmlns:xlink="http://www.w3.org/1999/xlink" width="120" height="120" viewBox="0 0 120 120">
    <defs>
        <linearGradient id="j7hm2u6h4a" x1="-.001" x2=".999" y1=".495" y2=".495" gradientUnits="objectBoundingBox">
            <stop offset="0" stop-color="#ffe88c"/>
            <stop offset=".999" stop-color="#ffb943"/>
        </linearGradient>
        <linearGradient id="w7tpk0hcce" x1=".454" x2=".57" y1=".117" y2=".984" xlink:href="#j7hm2u6h4a"/>
        <linearGradient id="py2t3lzi6b" x1="1" x2="0" y1=".5" y2=".5" gradientUnits="objectBoundingBox">
            <stop offset="0" stop-color="#ff9c7b"/>
            <stop offset="1" stop-color="#a3482f"/>
        </linearGradient>
        <linearGradient id="10in1syvaf" x1="0" x2="1" y1=".5" y2=".5" xlink:href="#py2t3lzi6b"/>
        <linearGradient id="9srmdpiitg" x1=".5" x2=".5" y1="0" y2="1" xlink:href="#py2t3lzi6b"/>
        <linearGradient id="rhwpa0cckh" x1=".236" x2=".677" y1="1.129" y2="-.106" gradientUnits="objectBoundingBox">
            <stop offset="0" stop-color="#fff" stop-opacity=".102"/>
            <stop offset=".996" stop-color="#fff" stop-opacity=".4"/>
        </linearGradient>
        <linearGradient id="50du02qm3i" x1=".226" x2=".732" y1="1.213" y2="-.22" gradientUnits="objectBoundingBox">
            <stop offset="0" stop-color="#fff" stop-opacity=".102"/>
            <stop offset="1" stop-color="#fff" stop-opacity=".302"/>
        </linearGradient>
        <clipPath id="pzwwpw4d8d">
            <circle cx="36" cy="36" r="36"/>
        </clipPath>
        <filter id="c2yrhbsk7c" width="95" height="95" x="12" y="16" filterUnits="userSpaceOnUse">
            <feOffset dy="4"/>
            <feGaussianBlur result="blur" stdDeviation="2.5"/>
            <feFlood flood-opacity=".102"/>
            <feComposite in2="blur" operator="in"/>
            <feComposite in="SourceGraphic"/>
        </filter>
    </defs>
    <g>
        <g>
            <g filter="url(#c2yrhbsk7c)" transform="translate(-2.424 -5.428) translate(0 4) translate(2.42 1.43)">
                <path fill="#fff" d="M40 0A40 40 0 1 1 0 40 40 40 0 0 1 40 0z" transform="translate(19.5 19.5)"/>
            </g>
            <g transform="translate(-2.424 -5.428) translate(0 4) translate(25.924 25.356)">
                <circle cx="36" cy="36" r="36" fill="url(#j7hm2u6h4a)"/>
                <g>
                    <g clip-path="url(#pzwwpw4d8d)">
                        <path fill="url(#w7tpk0hcce)" d="M48.5 138.686l19.447-10.642 14.986 10.642 30.76-37.786s3.79 9.184 2.537 13.7 2.682 12.508-12.508 28.252S61.533 154.4 48.5 138.686z" transform="translate(-42.356 -79.333)"/>
                    </g>
                </g>
            </g>
            <g>
                <g>
                    <g>
                        <g>
                            <path fill="#83722c" d="M130.158 208.454v5.081l-11.758-10.47v-5.08z" transform="translate(-2.424 -5.428) translate(0 4) translate(37.606 35.634) translate(.805 16.38) translate(-118.402 -197.985)"/>
                        </g>
                        <g>
                            <path fill="#8e7c2f" d="M336.56 197.985v5.08l-11.76 10.469v-5.081z" transform="translate(-2.424 -5.428) translate(0 4) translate(37.606 35.634) translate(36.076 16.38) translate(-324.804 -197.985)"/>
                        </g>
                        <g>
                            <path fill="url(#py2t3lzi6b)" d="M339.317 196.591v5.08L327.158 212.5v-5.08z" transform="translate(-2.424 -5.428) translate(0 4) translate(37.606 35.634) translate(36.478 16.142) translate(-327.158 -196.591)"/>
                        </g>
                        <g>
                            <path fill="url(#10in1syvaf)" d="M125.851 207.417v5.08l-12.159-10.826v-5.08z" transform="translate(-2.424 -5.428) translate(0 4) translate(37.606 35.634) translate(0 16.142) translate(-113.692 -196.591)"/>
                        </g>
                        <g>
                            <path fill="#7c7457" d="M327.578 274.03v5.08l-2.778-14.783v-5.081z" transform="translate(-2.424 -5.428) translate(0 4) translate(37.606 35.634) translate(36.076 26.848) translate(-324.804 -259.246)"/>
                        </g>
                        <g>
                            <path fill="#807859" d="M173.737 259.246v5.081l-2.774 14.784v-5.08z" transform="translate(-2.424 -5.428) translate(0 4) translate(37.606 35.634) translate(9.787 26.848) translate(-170.963 -259.246)"/>
                        </g>
                        <g>
                            <path fill="#8b792e" d="M270.527 311.9v5.08L255.994 310v-5.08z" transform="translate(-2.424 -5.428) translate(0 4) translate(37.606 35.634) translate(24.317 34.653) translate(-255.994 -304.92)"/>
                        </g>
                        <g>
                            <path fill="#948031" d="M185.493 304.92V310l-14.531 6.979V311.9z" transform="translate(-2.424 -5.428) translate(0 4) translate(37.606 35.634) translate(9.787 34.653) translate(-170.963 -304.92)"/>
                        </g>
                        <g>
                            <path fill="url(#9srmdpiitg)" d="M141.914 106.651l7.224 13.371 16.291 2.237-11.756 10.469 2.774 14.784-14.533-6.979-14.531 6.979 2.774-14.784-11.757-10.469 16.25-2.159z" transform="translate(-2.424 -5.428) translate(0 4) translate(37.606 35.634) translate(.805 .772) translate(-118.402 -106.651)"/>
                        </g>
                        <g>
                            <path fill="#e69d80" d="M162.329 118.274L150.171 129.1l2.871 15.291-15.032-7.22-15.03 7.22 2.871-15.291-12.159-10.826 16.8-2.231 7.514-13.911 7.516 13.911zm-9.787 25.491l-2.774-14.784 11.756-10.469-16.248-2.157-7.266-13.455-7.264 13.451-16.246 2.161 11.756 10.469-2.774 14.784 14.531-6.979 14.533 6.979" transform="translate(-2.424 -5.428) translate(0 4) translate(37.606 35.634) translate(-113.693 -102.132)"/>
                        </g>
                        <path fill="#884d35" d="M183.072 307.179l-15.03 7.22v5.08l15.03-7.22 15.032 7.22V314.4z" transform="translate(-2.424 -5.428) translate(0 4) translate(37.606 35.634) translate(-158.754 -272.14)"/>
                    </g>
                </g>
                <path fill="url(#rhwpa0cckh)" d="M165.355 188.628l29.8-16.388-9.674-1.119-1.474-2.887-21.9 11.88 4.136 3.831z" transform="translate(-2.424 -5.428) translate(0 4) translate(37.606 35.634) translate(-153.839 -156.939)"/>
                <path fill="url(#50du02qm3i)" d="M212.042 193.186l-5.6-.749-31.392 17.929-.916 5.277z" transform="translate(-2.424 -5.428) translate(0 4) translate(37.606 35.634) translate(-163.808 -177.004)"/>
            </g>
        </g>
    </g>
</svg>
