<svg xmlns="http://www.w3.org/2000/svg" xmlns:xlink="http://www.w3.org/1999/xlink" width="190" height="140" viewBox="0 0 190 140">
    <defs>
        <linearGradient id="linear-gradient" x2="1" y1=".5" y2=".5" gradientUnits="objectBoundingBox">
            <stop offset="0" stop-color="#775ca7"/>
            <stop offset="1" stop-color="#57a0d7"/>
        </linearGradient>
        <linearGradient id="linear-gradient-2" x2="1" y1=".5" y2=".5" gradientUnits="objectBoundingBox">
            <stop offset="0" stop-color="#ffc533"/>
            <stop offset="1" stop-color="#f8ba26"/>
        </linearGradient>
        <linearGradient id="linear-gradient-3" x2="1" y1=".5" y2=".5" gradientUnits="objectBoundingBox">
            <stop offset="0" stop-color="#ff6660"/>
            <stop offset=".219" stop-color="#fe6f60"/>
            <stop offset=".579" stop-color="#fe8761"/>
            <stop offset="1" stop-color="#fdad64"/>
        </linearGradient>
        <linearGradient id="linear-gradient-8" x1="-.001" x2=".98" y1=".506" y2=".506" xlink:href="#linear-gradient-3"/>
        <linearGradient id="linear-gradient-10" x1="0" x2="1.05" y1=".5" y2=".5" xlink:href="#linear-gradient"/>
        <linearGradient id="linear-gradient-14" x2="1.05" y1=".5" y2=".5" gradientUnits="objectBoundingBox">
            <stop offset="0" stop-color="#775ca7"/>
            <stop offset=".12" stop-color="#6c71b6"/>
            <stop offset=".277" stop-color="#6386c4"/>
            <stop offset=".455" stop-color="#5c94cf"/>
            <stop offset=".666" stop-color="#589dd5"/>
            <stop offset="1" stop-color="#57a0d7"/>
        </linearGradient>
        <linearGradient id="linear-gradient-16" x1=".5" x2=".5" y1="-.029" y2=".769" gradientUnits="objectBoundingBox">
            <stop offset="0" stop-color="#42b1ff"/>
            <stop offset="1" stop-color="#4a83e7"/>
        </linearGradient>
        <clipPath id="clip-path">
            <path id="패스_30618" fill="none" d="M1056.256 562.858c-.009-.012 0 0 0-.005l.006.007.016.019.038.047c.026.034.054.07.081.108.054.076.108.156.16.24a5.9 5.9 0 0 1 .292.528 7.721 7.721 0 0 1 .454 1.162 10.226 10.226 0 0 1 .416 2.536 4.824 4.824 0 0 1-.079 1.2 3.458 3.458 0 0 1-.413 1.078 6.375 6.375 0 0 1-1.78 1.783.572.572 0 0 0 .638.949 10.879 10.879 0 0 0 1.209-.847 5.863 5.863 0 0 0 1.076-1.135 4.881 4.881 0 0 0 .7-1.463 6.332 6.332 0 0 0 .236-1.568 11.9 11.9 0 0 0-.282-2.984 9.578 9.578 0 0 0-.461-1.469 7.828 7.828 0 0 0-.333-.718c-.062-.119-.13-.237-.2-.356-.036-.06-.075-.119-.116-.18l-.065-.094-.037-.05-.021-.027-.031-.039a.987.987 0 1 0-1.5 1.281z" transform="translate(-1055.207 -561.23)"/>
        </clipPath>
        <style>
            .cls-27{fill:#fff}.cls-3,.cls-4{fill:#ffd41d;stroke:#ffd41d}.cls-3{opacity:.2}.cls-6{fill:#f89ab5}.cls-8{fill:#e6e6e6}.cls-16,.cls-8{mix-blend-mode:multiply;isolation:isolate}.cls-9{fill:#5f4b8b}.cls-10{fill:#666}.cls-11{fill:#333}.cls-12{fill:#f7b75d}.cls-13{fill:#ffc988}.cls-14{fill:#0353fe}.cls-15{fill:#febe40}.cls-16{opacity:.1}.cls-16,.cls-29{fill:url(#linear-gradient)}.cls-17{fill:#ea8cac}.cls-18{fill:#0a1a4e}.cls-21{fill:url(#linear-gradient-3)}.cls-22{fill:#55b66a}.cls-28{fill:#7fcbca}.cls-33{fill:#c8da52}.cls-34{fill:#34b2cc}.cls-36{fill:#89ceea}.cls-37{fill:#da1c4b}.cls-38{fill:#b11e48}.cls-40{fill:#4e9b5c}.cls-42{fill:#fbfbfc}.cls-43{fill:#f7f7f8}.cls-44{fill:#f3f4f5}.cls-45{fill:#f0f0f1}.cls-46{fill:#ececee}.cls-47{fill:#e8e8ea}.cls-48{fill:#e4e4e7}.cls-49{fill:#e0e1e3}.cls-50{fill:#dcdde0}.cls-51{fill:#d8d9dc}.cls-52{fill:#d4d5d9}.cls-53{fill:#d1d1d5}.cls-54{fill:#cdcdd2}.cls-55{fill:#c9cace}.cls-56{fill:#c5c6cb}.cls-57{fill:#c1c2c7}.cls-64{fill:#d19420}
        </style>
    </defs>
    <g id="img_village_add" transform="translate(-84.171 -8.392)">
        <g id="그룹_42144" transform="translate(114.32 78.793)">
            <path id="패스_33293" d="M324.335 157.507c-12.215-6.743-31.824-6.412-43.8.741s-11.782 18.421.433 25.164 31.822 6.41 43.8-.743 11.782-18.42-.433-25.162z" class="cls-3" transform="translate(-205.216 -124.534)"/>
            <path id="패스_33294" d="M326.432 157.7c-12.7-7.011-33.092-6.668-45.543.771s-12.251 19.155.45 26.166 33.089 6.665 45.541-.773 12.254-19.153-.448-26.164z" class="cls-3" transform="translate(-271.679 -152.659)"/>
            <path id="패스_33295" d="M313.792 156.536c-9.769-5.393-25.452-5.128-35.029.593s-9.423 14.733.346 20.125 25.45 5.127 35.027-.595 9.425-14.731-.344-20.123z" class="cls-4" transform="translate(-264.244 -148.386)"/>
            <path id="패스_33296" d="M316.2 156.758c-10.328-5.7-26.908-5.422-37.033.627s-9.962 15.576.366 21.277 26.906 5.42 37.031-.629 9.965-15.574-.364-21.275z" class="cls-4" transform="translate(-200.432 -121.785)"/>
            <path id="선_176" fill="none" stroke="#ffd41d" stroke-width="8px" d="M32.142 12.29L0 0" transform="translate(47.269 24.729)"/>
        </g>
        <g id="그룹_42140" transform="translate(178.376 55.373)">
            <g id="그룹_40695">
                <g id="그룹_40650" transform="translate(54.802)">
                    <g id="그룹_40649">
                        <path id="패스_30586" d="M1165.995 404.733c-.321.139-.774.175-.691.609a6.131 6.131 0 0 0 .283.963c.31.719.7 1.161 1.188.95a1.11 1.11 0 0 0 .429-1.549c-.311-.719-.72-1.185-1.209-.973z" class="cls-6" transform="translate(-1165.201 -404.681)"/>
                        <path id="패스_30587" d="M1164.765 407.674a.924.924 0 0 0 .173.8l.529.669.063-.8-.682-1z" class="cls-6" transform="translate(-1164.738 -406.893)"/>
                    </g>
                    <path id="패스_30588" fill="#e8ac42" d="M1172.816 420.161c-.07-.631-.157-1.262-.275-1.89a16.213 16.213 0 0 0-1.1-3.714.694.694 0 0 0-1.287.519l.006.016a14.756 14.756 0 0 1 .76 3.423c.07.589.111 1.185.136 1.783s.032 1.2.024 1.8c-.014 1.2-.091 2.407-.206 3.608q-.088.9-.208 1.8-.06.448-.129.893l-.071.443c-.024.144-.051.3-.076.428a1.2 1.2 0 0 0 2.354.453q.008-.04.012-.079v-.007c.021-.175.036-.326.052-.487l.043-.474q.04-.473.071-.945.062-.944.089-1.888c.034-1.259.029-2.52-.042-3.783-.033-.636-.082-1.267-.153-1.899z" transform="translate(-1169.212 -412.561)"/>
                </g>
                <ellipse id="타원_996" cx="6.328" cy="3.653" class="cls-8" rx="6.328" ry="3.653" transform="translate(47.84 45.442)"/>
                <path id="패스_30589" d="M1148.292 569.079a2.528 2.528 0 1 0 2.592 2.461 2.527 2.527 0 0 0-2.592-2.461z" class="cls-9" transform="translate(-1094.193 -541.56)"/>
                <g id="그룹_40651" transform="translate(53.992 46.193)">
                    <path id="패스_30590" d="M1159.985 683.721a.969.969 0 0 0 .319 1.2 20.254 20.254 0 0 0 2.138 1.419 1.6 1.6 0 0 0 .716-.17.494.494 0 0 0 .276-.291.516.516 0 0 0-.085-.4z" class="cls-10" transform="translate(-1159.899 -683.205)"/>
                    <path id="패스_30591" d="M1162.506 686.272a20.227 20.227 0 0 1-2.138-1.419.967.967 0 0 1-.346-1.113l-.036-.018a.969.969 0 0 0 .319 1.2 20.254 20.254 0 0 0 2.138 1.419.953.953 0 0 0 .711-.123.686.686 0 0 0 .18-.17.576.576 0 0 1-.124.1c-.262.087-.503.206-.704.124z" class="cls-11" transform="translate(-1159.899 -683.205)"/>
                    <path id="패스_30592" d="M1163.409 681.929l-1.026-.733a6.318 6.318 0 0 0-1.562-.55.669.669 0 0 0-.409.488.9.9 0 0 0 .343.7c.246.184.7.483 1.382.911 1.135.714 1.639.165 1.639.165l-.082-.632z" class="cls-12" transform="translate(-1160.325 -680.64)"/>
                    <path id="패스_30593" d="M1160.842 680.647a.678.678 0 0 0-.406.47c.1.229.5.632 1.995 1.194l.591-.158-.658-.975a5.7 5.7 0 0 0-1.522-.531z" class="cls-13" transform="translate(-1160.346 -680.64)"/>
                    <path id="패스_30594" d="M1168.788 682.933s-.379.427-.2.679a2.17 2.17 0 0 0 .588.476l.1-1.232-.289-.082z" class="cls-12" transform="translate(-1167.095 -682.417)"/>
                </g>
                <path id="패스_30595" d="M1178.16 631.486l.006-.043-.007-.172z" class="cls-14" transform="translate(-1121.11 -593.342)"/>
                <path id="패스_30596" d="M1165.456 570.461a1.706 1.706 0 0 0-1.918 1.463 1.8 1.8 0 0 0-.015.182l-.23 8.536v.174l.006.042 1.391 9.593a.749.749 0 0 0 1.49-.138l-.391-9.513-.006.043v-.215l.007.173 1.134-8.42a1.706 1.706 0 0 0-1.468-1.92z" class="cls-14" transform="translate(-1108.729 -542.698)"/>
                <g id="그룹_40652" transform="translate(49.591 47.782)">
                    <path id="패스_30597" d="M1133.69 693.215a.97.97 0 0 0 .319 1.2 20.255 20.255 0 0 0 2.138 1.419 1.6 1.6 0 0 0 .716-.17.494.494 0 0 0 .276-.291.517.517 0 0 0-.085-.4z" class="cls-10" transform="translate(-1133.603 -692.699)"/>
                    <path id="패스_30598" d="M1136.211 695.766a20.2 20.2 0 0 1-2.138-1.419.967.967 0 0 1-.346-1.113l-.037-.018a.97.97 0 0 0 .319 1.2 20.255 20.255 0 0 0 2.138 1.419.952.952 0 0 0 .711-.123.676.676 0 0 0 .18-.17.58.58 0 0 1-.124.1c-.261.087-.502.206-.703.124z" class="cls-11" transform="translate(-1133.603 -692.699)"/>
                    <path id="패스_30599" d="M1137.114 691.424l-1.026-.733a6.314 6.314 0 0 0-1.563-.549.668.668 0 0 0-.409.488.9.9 0 0 0 .342.7c.246.185.7.483 1.382.911 1.135.714 1.639.165 1.639.165l-.082-.632z" class="cls-12" transform="translate(-1134.03 -690.135)"/>
                    <path id="패스_30600" d="M1134.546 690.142a.679.679 0 0 0-.406.47c.1.229.5.632 1.995 1.194l.591-.158-.658-.975a5.686 5.686 0 0 0-1.522-.531z" class="cls-13" transform="translate(-1134.05 -690.135)"/>
                    <path id="패스_30601" d="M1142.493 692.426s-.379.428-.2.68a2.167 2.167 0 0 0 .588.476l.1-1.232-.288-.082z" class="cls-12" transform="translate(-1140.8 -691.911)"/>
                </g>
                <path id="패스_30602" d="M1144.626 578.8a1.65 1.65 0 0 0-1.869 1.4 1.594 1.594 0 0 0-.015.164l-.381 8.784-.005.11.468 9.745a.725.725 0 0 0 1.449 0l.5-9.743-.005.11 1.253-8.7a1.651 1.651 0 0 0-1.395-1.87z" class="cls-14" transform="translate(-1091.3 -549.643)"/>
                <path id="패스_30603" d="M1146.417 495.266l-.719-1.578-3.83.9-2.733 1.743.833 2.98.088 1.43-.142 6.775.021.4.036 1.957a.626.626 0 0 0 .722.605 9.943 9.943 0 0 0 5.786-2.816 1 1 0 0 0 .268-.646l.106-2.914a8.66 8.66 0 0 1 .182-1.665 27.819 27.819 0 0 0-.17-5.588 5.464 5.464 0 0 0-.448-1.583z" class="cls-15" transform="translate(-1088.619 -478.789)"/>
                <path id="패스_30604" d="M1141.868 494.584l-2.733 1.743.361 3.289.393 1.462.025 6.434.021.4.036 1.953a.624.624 0 0 0 .721.606c.24-.038.448-.074.537-.092l.484-2.841.142-6.775-.088-1.43-.833-2.98 1.58-.24a6.842 6.842 0 0 0 3.285-1.454l.25-.2-.351-.77z" class="cls-16" transform="translate(-1088.619 -478.789)"/>
                <path id="패스_30605" d="M1158.338 483.495l.015 2.259a4.006 4.006 0 0 0 2.38-.843l-.389-1.984z" class="cls-6" transform="translate(-1104.607 -469.829)"/>
                <path id="패스_30606" d="M1158.284 484.317a2.78 2.78 0 0 0 1.991-1.492l-2.01.669z" class="cls-8" transform="translate(-1104.547 -469.745)"/>
                <g id="그룹_40653" transform="translate(51.634 7.871)">
                    <path id="패스_30607" d="M1148.414 454.634c-1.1-.5-1.863.524-2.277 2.045-.06.218-.29.41-.327.647.1 1.405 1.21 2.922 2.583 2.928 1.008-.143 2.039-1.348 2.5-2.8a2.557 2.557 0 0 0-2.479-2.82z" class="cls-6" transform="translate(-1145.81 -454.038)"/>
                    <path id="패스_30608" d="M1146.154 457.353c.036-.237.267-.429.327-.647.33-1.209.882-2.1 1.646-2.166-.944-.211-1.612.758-1.99 2.142-.06.218-.29.41-.327.647.1 1.405 1.21 2.923 2.583 2.928l.025-.005a3.192 3.192 0 0 1-2.264-2.899z" class="cls-17" transform="translate(-1145.81 -454.041)"/>
                    <path id="패스_30609" d="M1148.149 451.968a1.325 1.325 0 0 0-.3 1.075 8.082 8.082 0 0 0 4.724 2.076s-.204-4.54-4.424-3.151z" class="cls-18" transform="translate(-1147.489 -451.704)"/>
                    <path id="패스_30610" d="M1157.19 455.466l-1.208 1.681-.115 1.286s.54.11.538.542a1.347 1.347 0 0 1-.348.8l1.159 1.145a4.363 4.363 0 0 0 2.046-2.668 2.6 2.6 0 0 0-2.072-2.786z" class="cls-18" transform="translate(-1154.183 -454.836)"/>
                </g>
                <path id="패스_30611" fill="url(#linear-gradient-2)" d="M1158.421 493.685v.2a3.261 3.261 0 0 0 2.427-.74l-.116-.453a2.477 2.477 0 0 1-2.311.993z" transform="translate(-1104.677 -477.957)"/>
                <g id="그룹_40667" transform="translate(22.915 20.202)">
                    <ellipse id="타원_997" cx="6.371" cy="3.679" class="cls-8" rx="6.371" ry="3.679" transform="translate(6.474 35.836)"/>
                    <g id="그룹_40666">
                        <path id="패스_30612" d="M1048.756 748.16a.977.977 0 0 0 .321 1.2 20.4 20.4 0 0 0 2.153 1.429 1.617 1.617 0 0 0 .721-.171.5.5 0 0 0 .278-.293.52.52 0 0 0-.086-.4z" class="cls-10" transform="translate(-1036.21 -710.867)"/>
                        <path id="패스_30613" d="M1051.294 750.729a20.377 20.377 0 0 1-2.153-1.429.974.974 0 0 1-.348-1.121l-.037-.019a.977.977 0 0 0 .321 1.2 20.4 20.4 0 0 0 2.153 1.429.958.958 0 0 0 .716-.124.691.691 0 0 0 .181-.172.578.578 0 0 1-.125.1c-.263.098-.502.218-.708.136z" class="cls-11" transform="translate(-1036.21 -710.867)"/>
                        <path id="패스_30614" d="M1052.2 746.357l-1.033-.738a6.356 6.356 0 0 0-1.573-.553.673.673 0 0 0-.411.491.908.908 0 0 0 .345.7c.248.186.706.487 1.391.917 1.144.719 1.651.166 1.651.166l-.083-.636z" class="cls-12" transform="translate(-1036.64 -708.285)"/>
                        <path id="패스_30615" d="M1049.618 745.066a.683.683 0 0 0-.409.473c.105.23.506.636 2.009 1.2l.6-.159-.662-.982a5.731 5.731 0 0 0-1.538-.532z" class="cls-13" transform="translate(-1036.66 -708.285)"/>
                        <g id="그룹_40661" transform="translate(12.495 6.003)">
                            <g id="그룹_40654" transform="translate(0 10.218)">
                                <path id="패스_30616" d="M1049.7 622.41a4.592 4.592 0 0 0-.671.337c-.28.176-.069.443.019.689.134.375.6.362 1.149.165a.83.83 0 0 0 .629-1.025c-.138-.376-.577-.363-1.126-.166z" class="cls-6" transform="translate(-1048.885 -622.274)"/>
                                <path id="패스_30617" d="M1049.181 622.678l-.141.217.9-.139.4-.441-.636.052a.692.692 0 0 0-.523.311z" class="cls-6" transform="translate(-1049.014 -622.308)"/>
                            </g>
                            <g id="그룹_40660" transform="translate(1.058)">
                                <g id="그룹_40659">
                                    <g id="그룹_40658">
                                        <g id="그룹_40657" clip-path="url(#clip-path)">
                                            <g id="그룹_40655" transform="translate(-1.246 -7.921)">
                                                <path id="사각형_18028" d="M0 0H13.604V13.604H0z" class="cls-21"/>
                                            </g>
                                            <g id="그룹_40656" transform="translate(-1.246 5.683)">
                                                <path id="사각형_18029" d="M0 0H13.604V13.604H0z" class="cls-21"/>
                                            </g>
                                        </g>
                                    </g>
                                </g>
                            </g>
                        </g>
                        <path id="패스_30619" d="M1033.027 576.672l-1.485-.145.481 2.159s-.832.59-.5 1.1.921 1.307.921 1.307a9.6 9.6 0 0 1-.058 2.273c-.188.835-.805 3.307-.805 3.307l.806.526 2.653-5.422-1.047-5.017z" class="cls-21" transform="translate(-1021.868 -567.964)"/>
                        <path id="패스_30620" d="M1027.19 758.534a.977.977 0 0 0 .321 1.2 20.36 20.36 0 0 0 2.153 1.429 1.615 1.615 0 0 0 .72-.171.5.5 0 0 0 .278-.293.521.521 0 0 0-.086-.4z" class="cls-10" transform="translate(-1018.254 -719.504)"/>
                        <path id="패스_30621" d="M1029.728 761.1a20.391 20.391 0 0 1-2.153-1.429.974.974 0 0 1-.348-1.121l-.037-.019a.977.977 0 0 0 .321 1.2 20.36 20.36 0 0 0 2.153 1.429.958.958 0 0 0 .716-.124.687.687 0 0 0 .181-.171.58.58 0 0 1-.125.1c-.263.1-.505.22-.708.135z" class="cls-11" transform="translate(-1018.254 -719.504)"/>
                        <path id="패스_30622" d="M1030.638 756.731l-1.033-.738a6.361 6.361 0 0 0-1.573-.553.672.672 0 0 0-.411.491.909.909 0 0 0 .345.7c.248.186.706.486 1.391.917 1.143.719 1.65.166 1.65.166l-.083-.636z" class="cls-12" transform="translate(-1018.684 -716.922)"/>
                        <path id="패스_30623" d="M1028.053 755.44a.683.683 0 0 0-.409.473c.1.23.506.636 2.008 1.2l.595-.159-.662-.982a5.722 5.722 0 0 0-1.532-.532z" class="cls-13" transform="translate(-1018.705 -716.922)"/>
                        <path id="패스_30624" d="M1058.407 637.4a1.558 1.558 0 0 0-1.664 1.443v.14l.171 9.058c0 .754.058 1.509.09 2.264l.112 2.264.223 4.525a.685.685 0 0 0 1.368 0l.248-4.512.124-2.255c.043-.752.076-1.5.135-2.254l.64-9.012a1.557 1.557 0 0 0-1.447-1.661z" class="cls-6" transform="translate(-1042.929 -618.64)"/>
                        <path id="패스_30625" d="M1036.169 642.477a1.558 1.558 0 0 0-1.673 1.433v.13l.038 4.705.019 2.35.01 1.175v.587c0 .1 0 .2.005.294l.022.293.69 9.38a.685.685 0 0 0 1.367-.032l.251-9.338.008-.291c0-.1.014-.194.02-.291l.045-.582.09-1.164.18-2.328.359-4.651a1.558 1.558 0 0 0-1.431-1.67z" class="cls-6" transform="translate(-1024.406 -622.87)"/>
                        <path id="패스_30626" d="M1042.186 573.723l.531-3.97c.562-1.445-.059-1.709-.11-2.368l-.44-2.139-4.472 2.033.037.11a.354.354 0 0 1-.026.285 3.414 3.414 0 0 0-.336 1.218c-.152 1.286.3.87.285 2.334 0 .479.018 2.166.024 2.71l-.622 3.256a.834.834 0 0 0 .446.829c.671.38 2.434.233 4.775-.841a6.628 6.628 0 0 0 .589-.518.491.491 0 0 0 .219-.389l.052-.211-.07-.257c-.102-.248-.882-2.082-.882-2.082z" class="cls-21" transform="translate(-1026.536 -558.571)"/>
                        <path id="패스_30627" d="M1032.247 630.348a7.149 7.149 0 0 1 .634 3.482c-.009.64-.092 1.383-.137 2.238-.27 5.137 6.5.23 6.5.23s.9-5.876-.274-7.317c-.327 1.888-5.153 2.25-6.723 1.367z" class="cls-22" transform="translate(-1022.537 -611.638)"/>
                        <path id="패스_30628" fill="#4d9e5c" d="M1033.75 637.593a6.712 6.712 0 0 1-2.729-.448s-.084 1.134-.233 3.227c-.045.639.043 1.607 0 2.462-.121 2.3 1.906 2.618 3.37 2.23l-.406-7.037z" transform="translate(-1021.311 -618.435)"/>
                        <path id="패스_30629" d="M1035.038 564.18l1.236.852 4.475-2.126-1.047-.668z" class="cls-21" transform="translate(-1024.861 -556.067)"/>
                        <g id="그룹_40663" transform="translate(0 8.056)">
                            <g id="그룹_40662" transform="translate(0 3.245)">
                                <path id="패스_30630" d="M975.564 593.359a4.628 4.628 0 0 0-.619-.425c-.289-.16-.421.154-.594.35-.264.3-.028.7.41 1.086a.83.83 0 0 0 1.2.056c.266-.3.039-.679-.397-1.067z" class="cls-6" transform="translate(-974.24 -592.888)"/>
                                <path id="패스_30631" d="M977.783 592.9l-.258-.019.555.719.581.14-.352-.532a.692.692 0 0 0-.526-.308z" class="cls-6" transform="translate(-976.975 -592.884)"/>
                            </g>
                            <path id="패스_30632" fill="url(#linear-gradient-8)" d="M1031.546 577.273v-.007s.003-.001 0 .007z" transform="translate(-1021.954 -576.634)"/>
                            <path id="패스_30633" d="M988.916 573.56a.987.987 0 0 0-1.269.567v.009l-.009.024-.023.056c-.017.039-.035.081-.056.123-.04.084-.084.17-.133.256a5.9 5.9 0 0 1-.322.51 7.771 7.771 0 0 1-.8.959 10.224 10.224 0 0 1-2.021 1.588 4.829 4.829 0 0 1-1.086.508 3.454 3.454 0 0 1-1.143.158 6.372 6.372 0 0 1-2.421-.7.572.572 0 0 0-.523 1.017 10.894 10.894 0 0 0 1.326.649 5.861 5.861 0 0 0 1.513.4 4.886 4.886 0 0 0 1.621-.09 6.345 6.345 0 0 0 1.487-.55 11.909 11.909 0 0 0 2.477-1.687 9.56 9.56 0 0 0 1.064-1.113 7.849 7.849 0 0 0 .468-.638q.111-.168.214-.349c.035-.06.069-.123.1-.188l.051-.1.026-.056.014-.031.019-.046a.987.987 0 0 0-.574-1.276z" class="cls-21" transform="translate(-978.052 -573.497)"/>
                        </g>
                        <g id="그룹_40665" transform="translate(10.482)">
                            <path id="패스_30634" d="M1046.233 559.366a3.354 3.354 0 0 0 2.263-.454l.068-2.2-2.053.439z" class="cls-6" transform="translate(-1044.665 -551.465)"/>
                            <path id="패스_30635" d="M1047.574 557.974a2.8 2.8 0 0 0 2.1-1.369l-2.063.541z" class="cls-8" transform="translate(-1045.781 -551.376)"/>
                            <g id="그룹_40664" transform="translate(0 .03)">
                                <path id="패스_30636" d="M1039.378 526.546c-1.123-.456-1.853.6-2.211 2.146-.051.222-.276.424-.3.664.158 1.41 1.331 2.893 2.712 2.845 1.008-.183 2-1.436 2.4-2.914a2.575 2.575 0 0 0-2.601-2.741z" class="cls-6" transform="translate(-1036.863 -526.29)"/>
                                <path id="패스_30637" d="M1037.211 529.369c.027-.24.252-.442.3-.664.285-1.229.805-2.148 1.571-2.244-.958-.176-1.593.825-1.919 2.232-.051.222-.276.424-.3.664.158 1.41 1.331 2.893 2.712 2.845l.025-.006a3.213 3.213 0 0 1-2.389-2.827z" class="cls-17" transform="translate(-1036.863 -526.292)"/>
                                <path id="패스_30638" d="M1040.267 525.738a1.272 1.272 0 0 0-.863.868 1.077 1.077 0 0 0-.027.513 8.594 8.594 0 0 0 4.678 1.571s-.032-4.057-3.788-2.952z" class="cls-18" transform="translate(-1038.94 -525.547)"/>
                            </g>
                            <path id="패스_30639" d="M1042.425 525.37c-.318 0-1.637.627-1.527 1.291s1.623 3.061 1.841 4.367-1.015 5.173-1.02 6.058.59 1.051 2.508 1 3.8-2.489 4.107-3.947-2.817-6.307-2.817-6.307a2.971 2.971 0 0 0-3.092-2.462z" class="cls-18" transform="translate(-1040.217 -525.369)"/>
                        </g>
                        <path id="패스_30640" d="M1035.982 757.795a.505.505 0 0 0-.441.13s-.341.464-.135.7a2.185 2.185 0 0 0 .634.423l-.016-1.244z" class="cls-12" transform="translate(-1025.112 -718.882)"/>
                        <path id="패스_30641" d="M1057.548 747.421a.5.5 0 0 0-.441.13s-.34.464-.135.7a2.184 2.184 0 0 0 .634.423l-.015-1.244z" class="cls-12" transform="translate(-1043.068 -710.244)"/>
                    </g>
                </g>
                <g id="그룹_40677" transform="translate(0 30.787)">
                    <g id="그룹_40669" transform="translate(8.07 6.87)">
                        <g id="그룹_40668" transform="translate(0 2.761)">
                            <path id="패스_30642" d="M886.5 646.213c-.35-.225-.542.159-.776.391-.356.354-.092.875.428 1.4a1.046 1.046 0 0 0 1.506.167c.356-.354.106-.849-.415-1.373a5.782 5.782 0 0 0-.743-.585z" class="cls-6" transform="translate(-885.559 -646.144)"/>
                            <path id="패스_30643" d="M890.348 646.184l-.323-.045.64.949.719.223-.4-.7a.872.872 0 0 0-.636-.427z" class="cls-6" transform="translate(-889.277 -646.139)"/>
                        </g>
                        <path id="패스_30644" fill="url(#linear-gradient-10)" d="M901.743 629.646a1.139 1.139 0 0 0-1.171 1.106 1.188 1.188 0 0 0 .011.195v.331c0 .119-.009.24-.017.362-.016.242-.04.486-.072.727a9.126 9.126 0 0 1-.3 1.41 4.577 4.577 0 0 1-1.341 2.246c-.039.033-.08.064-.121.095l-.021.016-.012.01-.027.018a.536.536 0 0 1-.149.063 1.374 1.374 0 0 1-.5.016 4.252 4.252 0 0 1-1.276-.417 7.647 7.647 0 0 1-1.246-.766 6.425 6.425 0 0 1-.554-.467 3.311 3.311 0 0 1-.434-.49l-.013-.02a.656.656 0 0 0-1.11.7 4.5 4.5 0 0 0 .567.766 7.824 7.824 0 0 0 .63.622 9.132 9.132 0 0 0 1.417 1.033 5.851 5.851 0 0 0 1.726.7 3.117 3.117 0 0 0 1.1.044 2.362 2.362 0 0 0 .615-.181c.051-.023.1-.049.151-.075l.074-.043.036-.022.027-.017c.07-.045.139-.09.207-.139a5.447 5.447 0 0 0 1.34-1.393 7.912 7.912 0 0 0 .837-1.637 11.179 11.179 0 0 0 .49-1.706q.089-.431.149-.867c.02-.145.037-.292.052-.44l.02-.225.008-.116c0-.042 0-.073.006-.132v-.138a1.139 1.139 0 0 0-1.099-1.169z" transform="translate(-892.01 -629.645)"/>
                    </g>
                    <g id="그룹_40671" transform="translate(0 7.335)">
                        <path id="패스_30645" fill="#ffd41d" d="M837.346 634.4l6.571 5.567 5.513-1.977-6.571-5.567z" transform="translate(-837.346 -632.423)"/>
                        <g id="그룹_40670" transform="translate(1.864 .84)">
                            <path id="패스_30646" d="M859.2 643.563a3.515 3.515 0 0 0-2.092-.37c-.684.1-1.149.431-1.222.862s.259.9.87 1.233a3.516 3.516 0 0 0 2.092.37 2.4 2.4 0 0 0 .432-.1l-1.3-1.129 1.693-.532a2.34 2.34 0 0 0-.473-.334z" class="cls-27" transform="translate(-854.641 -642.203)"/>
                            <path id="패스_30647" d="M848.48 638.33l.292.247 2.486-.891-.292-.247z" class="cls-27" transform="translate(-848.48 -637.439)"/>
                            <path id="패스_30648" d="M864.615 655.933l.292.247 4.648-1.667-.292-.247z" class="cls-27" transform="translate(-861.914 -651.449)"/>
                            <path id="패스_30649" d="M867.406 658.3l.292.247 4.648-1.667-.292-.247z" class="cls-27" transform="translate(-864.238 -653.419)"/>
                            <path id="패스_30650" d="M870.2 660.663l.292.247 4.648-1.666-.292-.247z" class="cls-27" transform="translate(-866.562 -655.388)"/>
                            <path id="패스_30651" d="M872.989 663.028l.292.247 4.648-1.666-.292-.247z" class="cls-27" transform="translate(-868.886 -657.357)"/>
                        </g>
                    </g>
                    <ellipse id="타원_998" cx="6.328" cy="3.653" class="cls-8" rx="6.328" ry="3.653" transform="translate(8.392 37.484)"/>
                    <circle id="타원_999" cx="2.528" cy="2.528" r="2.528" class="cls-9" transform="rotate(-50.57 29.326 -.594)"/>
                    <g id="그룹_40672" transform="translate(14.544 38.235)">
                        <path id="패스_30652" d="M924.32 820.1a.97.97 0 0 0 .319 1.2 20.193 20.193 0 0 0 2.138 1.42 1.6 1.6 0 0 0 .716-.17.5.5 0 0 0 .276-.291.517.517 0 0 0-.085-.4z" class="cls-10" transform="translate(-924.233 -819.584)"/>
                        <path id="패스_30653" d="M926.841 822.651a20.26 20.26 0 0 1-2.138-1.419.968.968 0 0 1-.346-1.113l-.037-.018a.97.97 0 0 0 .319 1.2 20.193 20.193 0 0 0 2.138 1.42.951.951 0 0 0 .711-.123.68.68 0 0 0 .18-.17.563.563 0 0 1-.124.1c-.261.086-.502.205-.703.123z" class="cls-11" transform="translate(-924.233 -819.584)"/>
                        <path id="패스_30654" d="M927.744 818.309l-1.026-.733a6.311 6.311 0 0 0-1.562-.549.668.668 0 0 0-.409.488.9.9 0 0 0 .342.7c.246.185.7.483 1.381.911 1.136.714 1.639.165 1.639.165l-.083-.632z" class="cls-12" transform="translate(-924.66 -817.02)"/>
                        <path id="패스_30655" d="M925.177 817.027a.677.677 0 0 0-.406.47c.1.229.5.632 1.995 1.194l.591-.158-.658-.975a5.681 5.681 0 0 0-1.522-.531z" class="cls-13" transform="translate(-924.681 -817.02)"/>
                        <path id="패스_30656" d="M933.123 819.312s-.379.427-.2.679a2.169 2.169 0 0 0 .588.476l.1-1.232-.288-.082z" class="cls-12" transform="translate(-931.43 -818.796)"/>
                    </g>
                    <path id="패스_30657" d="M942.495 767.865l.006-.043-.007-.173z" class="cls-28" transform="translate(-924.893 -737.679)"/>
                    <path id="패스_30658" d="M929.792 706.84a1.706 1.706 0 0 0-1.918 1.463 1.8 1.8 0 0 0-.015.182l-.23 8.537v.174l.006.041 1.391 9.593a.749.749 0 0 0 1.49-.138l-.391-9.513-.006.043v-.215l.007.172 1.134-8.42a1.706 1.706 0 0 0-1.468-1.919z" class="cls-28" transform="translate(-912.512 -687.036)"/>
                    <g id="그룹_40673" transform="translate(10.143 39.824)">
                        <path id="패스_30659" d="M898.025 829.594a.97.97 0 0 0 .319 1.2 20.288 20.288 0 0 0 2.138 1.419 1.6 1.6 0 0 0 .716-.17.494.494 0 0 0 .276-.291.517.517 0 0 0-.085-.4z" class="cls-10" transform="translate(-897.938 -829.078)"/>
                        <path id="패스_30660" d="M900.546 832.145a20.224 20.224 0 0 1-2.138-1.419.968.968 0 0 1-.346-1.113l-.037-.018a.97.97 0 0 0 .319 1.2 20.288 20.288 0 0 0 2.138 1.419.952.952 0 0 0 .711-.123.679.679 0 0 0 .18-.17.576.576 0 0 1-.124.1c-.261.087-.502.206-.703.124z" class="cls-11" transform="translate(-897.938 -829.078)"/>
                        <path id="패스_30661" d="M901.449 827.8l-1.026-.733a6.311 6.311 0 0 0-1.563-.549.668.668 0 0 0-.409.487.9.9 0 0 0 .343.7c.246.185.7.483 1.381.911 1.135.714 1.639.165 1.639.165l-.082-.632z" class="cls-12" transform="translate(-898.365 -826.514)"/>
                        <path id="패스_30662" d="M898.881 826.521a.679.679 0 0 0-.406.47c.1.229.5.632 1.995 1.194l.591-.158-.658-.975a5.687 5.687 0 0 0-1.522-.531z" class="cls-13" transform="translate(-898.385 -826.514)"/>
                        <path id="패스_30663" d="M906.828 828.806s-.379.427-.2.679a2.17 2.17 0 0 0 .588.476l.1-1.232-.288-.082z" class="cls-12" transform="translate(-905.135 -828.29)"/>
                    </g>
                    <path id="패스_30664" d="M908.961 715.182a1.65 1.65 0 0 0-1.869 1.4 1.628 1.628 0 0 0-.015.164l-.381 8.784-.005.11.468 9.745a.725.725 0 0 0 1.449 0l.5-9.743-.005.11 1.253-8.7a1.651 1.651 0 0 0-1.395-1.87z" class="cls-28" transform="translate(-895.083 -693.98)"/>
                    <path id="패스_30665" d="M910.752 631.645l-.719-1.578-3.83.9-2.734 1.743.833 2.98.088 1.43-.142 6.775.02.4.036 1.957a.626.626 0 0 0 .722.605 9.943 9.943 0 0 0 5.786-2.816 1 1 0 0 0 .268-.646l.106-2.914a8.646 8.646 0 0 1 .182-1.665 27.805 27.805 0 0 0-.17-5.588 5.467 5.467 0 0 0-.446-1.583z" class="cls-29" transform="translate(-892.401 -623.126)"/>
                    <path id="패스_30666" fill="url(#linear-gradient)" d="M906.2 630.963l-2.734 1.743.361 3.289.392 1.462.025 6.434.02.4.036 1.953a.625.625 0 0 0 .721.606c.24-.038.448-.075.537-.092l.484-2.841.142-6.775-.088-1.43-.833-2.981 1.226-.186a6.837 6.837 0 0 0 3.774-1.892l.382-.377-.618-.212z" transform="translate(-892.401 -623.126)" style="mix-blend-mode:multiply;isolation:isolate" opacity="0.25"/>
                    <path id="패스_30667" d="M922.673 619.874l.015 2.259a4.007 4.007 0 0 0 2.381-.843l-.389-1.984z" class="cls-6" transform="translate(-908.39 -614.167)"/>
                    <path id="패스_30668" d="M922.619 620.7a2.781 2.781 0 0 0 1.991-1.492l-2.01.669z" class="cls-8" transform="translate(-908.33 -614.082)"/>
                    <g id="그룹_40674" transform="translate(11.726)">
                        <path id="패스_30669" d="M911.176 591.466c-1.193-.163-1.636 1.033-1.6 2.609.005.226-.161.476-.129.713.5 1.318 1.993 2.456 3.31 2.07.925-.424 1.571-1.874 1.594-3.4a2.557 2.557 0 0 0-3.175-1.992z" class="cls-6" transform="translate(-909.101 -590.902)"/>
                        <path id="패스_30670" d="M909.784 595.164c-.033-.238.134-.488.129-.714-.028-1.253.247-2.265.96-2.545-.965.067-1.33 1.186-1.3 2.62.005.226-.161.476-.129.713.5 1.318 1.993 2.456 3.31 2.07l.022-.012a3.192 3.192 0 0 1-2.992-2.132z" class="cls-17" transform="translate(-909.101 -591.352)"/>
                        <path id="패스_30671" d="M907.517 589.4a1.325 1.325 0 0 0 .014 1.117 8.082 8.082 0 0 0 5.12.644s-1.484-4.292-5.134-1.761z" class="cls-18" transform="translate(-907.401 -588.603)"/>
                        <path id="패스_30672" d="M918.781 591.385l-.679 1.956.256 1.266s.549-.048.671.366a1.347 1.347 0 0 1-.106.865l1.437.767a4.363 4.363 0 0 0 1.2-3.141 2.6 2.6 0 0 0-2.779-2.079z" class="cls-18" transform="translate(-916.311 -590.904)"/>
                    </g>
                    <path id="패스_30673" d="M922.756 630.064v.2a3.261 3.261 0 0 0 2.427-.74l-.116-.453a2.478 2.478 0 0 1-2.311.993z" class="cls-29" transform="translate(-908.459 -622.294)"/>
                    <g id="그룹_40676" transform="translate(2.222 9.005)">
                        <g id="그룹_40675" transform="translate(0 2.761)">
                            <path id="패스_30674" d="M851.557 658.965c-.35-.225-.542.159-.776.391-.356.354-.092.875.428 1.4a1.047 1.047 0 0 0 1.506.167c.356-.354.106-.849-.415-1.373a5.771 5.771 0 0 0-.743-.585z" class="cls-6" transform="translate(-850.618 -658.896)"/>
                            <path id="패스_30675" d="M855.407 658.935l-.323-.045.64.949.719.223-.4-.7a.872.872 0 0 0-.636-.427z" class="cls-6" transform="translate(-854.336 -658.89)"/>
                        </g>
                        <path id="패스_30676" fill="url(#linear-gradient-14)" d="M866.8 642.4a1.139 1.139 0 0 0-1.171 1.106 1.219 1.219 0 0 0 .011.2v.331c0 .12-.009.241-.017.362-.016.242-.04.486-.072.727a9.126 9.126 0 0 1-.3 1.41 4.58 4.58 0 0 1-1.341 2.246c-.039.033-.08.064-.121.095l-.021.016-.012.01-.027.019a.544.544 0 0 1-.149.063 1.375 1.375 0 0 1-.5.017 4.261 4.261 0 0 1-1.276-.417 7.634 7.634 0 0 1-1.246-.766 6.47 6.47 0 0 1-.554-.466 3.3 3.3 0 0 1-.434-.49l-.013-.02a.655.655 0 0 0-1.109.7 4.49 4.49 0 0 0 .567.766 7.856 7.856 0 0 0 .63.622 9.135 9.135 0 0 0 1.417 1.033 5.85 5.85 0 0 0 1.726.7 3.114 3.114 0 0 0 1.1.044 2.353 2.353 0 0 0 .615-.181c.051-.023.1-.049.151-.076l.074-.043.036-.022.027-.017c.07-.045.14-.09.207-.139a5.45 5.45 0 0 0 1.34-1.393 7.916 7.916 0 0 0 .837-1.637 11.194 11.194 0 0 0 .491-1.706c.059-.287.109-.576.148-.867.02-.146.037-.292.052-.44l.02-.225.008-.116c0-.042 0-.073.006-.132v-.139a1.139 1.139 0 0 0-1.1-1.175z" transform="translate(-857.068 -642.396)"/>
                    </g>
                </g>
                <g id="그룹_40685" transform="translate(41.436 28.911)">
                    <g id="그룹_40679" transform="translate(7.758 7.166)">
                        <g id="그룹_40678" transform="translate(0 14.957)">
                            <path id="패스_30677" d="M1133.22 709.6c-.48-.182-.834.259-1.1.964a5.917 5.917 0 0 0-.23.939c-.062.421.376.437.691.556.48.182.853-.283 1.12-.987a1.068 1.068 0 0 0-.481-1.472z" class="cls-6" transform="translate(-1131.773 -709.559)"/>
                            <path id="패스_30678" d="M1131.4 712.572a.891.891 0 0 0-.132.773l.094.319.613-1-.1-.763z" class="cls-6" transform="translate(-1131.232 -711.513)"/>
                        </g>
                        <path id="패스_30679" fill="#2e75bc" d="M1136.337 623q-.05-.453-.109-.906l-.062-.454c-.022-.154-.043-.3-.071-.467v-.007c0-.025-.01-.051-.016-.076a1.154 1.154 0 1 0-2.244.537c.03.124.061.271.091.409l.087.423q.085.425.162.854.155.856.277 1.72c.161 1.15.287 2.306.352 3.462.034.578.054 1.156.054 1.731s-.013 1.151-.054 1.721a14.208 14.208 0 0 1-.585 3.325v.015a.669.669 0 0 0 1.26.444 15.631 15.631 0 0 0 .9-3.62c.087-.61.143-1.22.183-1.83s.062-1.219.068-1.828c.015-1.218-.034-2.43-.121-3.64q-.072-.907-.172-1.813z" transform="translate(-1133.372 -620.206)"/>
                    </g>
                    <ellipse id="타원_1000" cx="6.452" cy="3.725" class="cls-8" rx="6.452" ry="3.725" transform="translate(0 38.309)"/>
                    <circle id="타원_1001" cx="2.577" cy="2.577" r="2.577" class="cls-9" transform="rotate(-17.827 68.38 .249)"/>
                    <g id="그룹_40680" transform="translate(6.091 39.02)">
                        <path id="패스_30680" d="M1121.362 813.647a.989.989 0 0 0 .325 1.219 20.631 20.631 0 0 0 2.18 1.447 1.636 1.636 0 0 0 .73-.174.5.5 0 0 0 .282-.3.527.527 0 0 0-.087-.408z" class="cls-10" transform="translate(-1121.274 -813.121)"/>
                        <path id="패스_30681" d="M1123.932 816.248a20.624 20.624 0 0 1-2.18-1.447.986.986 0 0 1-.353-1.135l-.037-.019a.989.989 0 0 0 .325 1.219 20.631 20.631 0 0 0 2.18 1.447.971.971 0 0 0 .725-.125.692.692 0 0 0 .183-.174.579.579 0 0 1-.127.1c-.265.096-.51.218-.716.134z" class="cls-11" transform="translate(-1121.274 -813.121)"/>
                        <path id="패스_30682" d="M1124.853 811.821l-1.046-.747a6.442 6.442 0 0 0-1.593-.56.682.682 0 0 0-.417.5.921.921 0 0 0 .349.713c.251.188.715.492 1.409.928 1.158.728 1.671.168 1.671.168l-.084-.644z" class="cls-12" transform="translate(-1121.708 -810.506)"/>
                        <path id="패스_30683" d="M1122.235 810.513a.692.692 0 0 0-.414.479c.107.233.512.644 2.034 1.217l.6-.161-.671-.994a5.809 5.809 0 0 0-1.549-.541z" class="cls-13" transform="translate(-1121.729 -810.506)"/>
                        <path id="패스_30684" d="M1130.338 812.844s-.387.436-.2.693a2.21 2.21 0 0 0 .6.486l.1-1.256-.294-.084z" class="cls-12" transform="translate(-1128.611 -812.318)"/>
                    </g>
                    <path id="패스_30685" d="M1139.72 759.7l.006-.044-.007-.176z" class="cls-33" transform="translate(-1130.54 -728.999)"/>
                    <path id="패스_30686" d="M1126.767 697.473a1.739 1.739 0 0 0-1.956 1.492 1.8 1.8 0 0 0-.015.185l-.234 8.7v.177l.006.042 1.419 9.781a.764.764 0 0 0 1.52-.141l-.4-9.7-.006.044v-.22l.007.176 1.156-8.586a1.74 1.74 0 0 0-1.497-1.95z" class="cls-33" transform="translate(-1117.917 -677.36)"/>
                    <g id="그룹_40681" transform="translate(1.728 40.879)">
                        <path id="패스_30687" d="M1095.295 824.754a.989.989 0 0 0 .325 1.218 20.618 20.618 0 0 0 2.18 1.448 1.633 1.633 0 0 0 .73-.174.5.5 0 0 0 .282-.3.528.528 0 0 0-.087-.408z" class="cls-10" transform="translate(-1095.207 -824.228)"/>
                        <path id="패스_30688" d="M1097.865 827.355a20.6 20.6 0 0 1-2.18-1.447.985.985 0 0 1-.353-1.135l-.038-.019a.989.989 0 0 0 .325 1.218 20.618 20.618 0 0 0 2.18 1.448.97.97 0 0 0 .725-.125.7.7 0 0 0 .183-.174.6.6 0 0 1-.127.1c-.264.096-.509.218-.715.134z" class="cls-11" transform="translate(-1095.207 -824.228)"/>
                        <path id="패스_30689" d="M1098.786 822.928l-1.046-.747a6.443 6.443 0 0 0-1.593-.56.682.682 0 0 0-.417.5.921.921 0 0 0 .349.713c.251.188.716.493 1.409.928 1.158.728 1.672.168 1.672.168l-.084-.644z" class="cls-12" transform="translate(-1095.641 -821.613)"/>
                        <path id="패스_30690" d="M1096.168 821.62a.692.692 0 0 0-.414.479c.107.233.512.644 2.034 1.217l.6-.161-.671-.995a5.8 5.8 0 0 0-1.549-.54z" class="cls-13" transform="translate(-1095.662 -821.613)"/>
                        <path id="패스_30691" d="M1104.271 823.95s-.386.436-.2.693a2.208 2.208 0 0 0 .6.485l.1-1.256-.294-.084z" class="cls-12" transform="translate(-1102.545 -823.424)"/>
                    </g>
                    <path id="패스_30692" d="M1106.789 706.994a1.683 1.683 0 0 0-1.906 1.426c-.008.055-.013.112-.015.167l-.388 8.956-.005.112.477 9.936a.74.74 0 0 0 1.477 0l.514-9.934-.005.112 1.277-8.873a1.683 1.683 0 0 0-1.426-1.902z" class="cls-33" transform="translate(-1101.195 -685.286)"/>
                    <path id="패스_30693" d="M1108.615 621.815l-.733-1.609-3.9.913-2.787 1.778.85 3.039.089 1.458-.145 6.908.021.411.037 2a.638.638 0 0 0 .736.617 10.142 10.142 0 0 0 5.9-2.871 1.02 1.02 0 0 0 .273-.658l.108-2.971a8.805 8.805 0 0 1 .186-1.7 28.339 28.339 0 0 0-.174-5.7 5.558 5.558 0 0 0-.461-1.615z" class="cls-34" transform="translate(-1098.461 -613.04)"/>
                    <path id="패스_30694" d="M1103.977 621.119l-2.787 1.778.368 3.354.4 1.491.026 6.561.021.411.037 1.991a.637.637 0 0 0 .736.618c.245-.039.457-.076.548-.094l.494-2.9.145-6.908-.089-1.458-.85-3.039 1.25-.19a6.975 6.975 0 0 0 3.848-1.929l.389-.384-.631-.216z" class="cls-16" transform="translate(-1098.461 -613.04)"/>
                    <path id="패스_30695" d="M1120.771 609.813l.015 2.3a4.083 4.083 0 0 0 2.427-.859l-.4-2.023z" class="cls-6" transform="translate(-1114.764 -603.905)"/>
                    <path id="패스_30696" d="M1120.715 610.651a2.835 2.835 0 0 0 2.03-1.521l-2.049.682z" class="cls-8" transform="translate(-1114.702 -603.818)"/>
                    <g id="그룹_40682" transform="translate(3.868)">
                        <path id="패스_30697" d="M1110.651 580.385c-1.119-.505-1.9.535-2.322 2.085-.061.222-.3.418-.333.66.1 1.433 1.234 2.98 2.633 2.985 1.028-.146 2.079-1.375 2.545-2.856a2.607 2.607 0 0 0-2.523-2.874z" class="cls-6" transform="translate(-1107.996 -579.777)"/>
                        <path id="패스_30698" d="M1108.347 583.157c.037-.242.273-.438.333-.66.336-1.233.9-2.142 1.678-2.209-.963-.215-1.644.773-2.029 2.184-.061.222-.3.418-.333.66.1 1.433 1.234 2.98 2.633 2.985l.026-.005a3.255 3.255 0 0 1-2.308-2.955z" class="cls-17" transform="translate(-1107.996 -579.78)"/>
                        <path id="패스_30699" d="M1110.381 577.667a1.351 1.351 0 0 0-.311 1.1 8.241 8.241 0 0 0 4.817 2.117s-.203-4.633-4.506-3.217z" class="cls-18" transform="translate(-1109.708 -577.398)"/>
                        <path id="패스_30700" d="M1119.6 581.233l-1.232 1.714-.117 1.311s.551.112.549.553a1.373 1.373 0 0 1-.355.814l1.182 1.168a4.45 4.45 0 0 0 2.086-2.72 2.647 2.647 0 0 0-2.113-2.84z" class="cls-18" transform="translate(-1116.534 -580.591)"/>
                    </g>
                    <path id="패스_30701" d="M1120.854 620.2v.2a3.324 3.324 0 0 0 2.475-.754l-.118-.462a2.526 2.526 0 0 1-2.357 1.016z" class="cls-34" transform="translate(-1114.833 -612.192)"/>
                    <g id="그룹_40684" transform="translate(2.144 9.275)">
                        <g id="그룹_40683" transform="translate(0 14.957)">
                            <path id="패스_30702" d="M1099.684 722.2c-.48-.182-.834.259-1.1.964a5.916 5.916 0 0 0-.23.939c-.062.421.376.437.691.556.48.182.853-.283 1.121-.987a1.069 1.069 0 0 0-.482-1.472z" class="cls-6" transform="translate(-1098.237 -722.158)"/>
                            <path id="패스_30703" d="M1097.865 725.171a.891.891 0 0 0-.132.773l.094.319.614-1-.095-.763z" class="cls-6" transform="translate(-1097.697 -724.112)"/>
                        </g>
                        <path id="패스_30704" d="M1102.8 635.6q-.05-.453-.109-.906l-.062-.454c-.022-.155-.043-.3-.071-.467v-.007l-.016-.076a1.154 1.154 0 0 0-2.245.537c.029.124.061.271.091.409l.087.423q.085.425.162.853.154.856.277 1.72c.162 1.15.287 2.306.352 3.462.034.578.054 1.156.054 1.731s-.013 1.151-.054 1.721a14.226 14.226 0 0 1-.585 3.325v.015a.668.668 0 0 0 1.26.444 15.627 15.627 0 0 0 .9-3.62c.086-.61.143-1.22.183-1.83s.062-1.22.068-1.828c.015-1.218-.034-2.43-.121-3.64q-.071-.907-.171-1.812z" class="cls-34" transform="translate(-1099.836 -632.805)"/>
                    </g>
                </g>
                <g id="그룹_40692" transform="translate(25.187 32.605)">
                    <g id="그룹_40687" transform="translate(7.871)">
                        <g id="그룹_40686" transform="translate(1.411)">
                            <path id="패스_30705" d="M1044.768 599.482c-.277.064-.645.027-.641.386a4.966 4.966 0 0 0 .084.811c.143.62.388 1.029.81.932a.9.9 0 0 0 .569-1.175c-.142-.619-.4-1.051-.822-.954z" class="cls-6" transform="translate(-1043.982 -599.469)"/>
                            <path id="패스_30706" d="M1043.329 601.086a.751.751 0 0 0 .021.661l.325.612.167-.627-.4-.9z" class="cls-6" transform="translate(-1043.263 -600.602)"/>
                        </g>
                        <path id="패스_30707" fill="#7fbfd3" d="M1037.211 607.525a.564.564 0 0 0-.423.641v.013a11.983 11.983 0 0 1 .107 2.845c-.031.481-.085.963-.152 1.444s-.15.961-.244 1.44c-.187.958-.425 1.909-.692 2.852q-.2.707-.429 1.405-.114.349-.234.694l-.121.343c-.04.112-.084.231-.123.331a.973.973 0 0 0 1.813.706l.022-.062v-.006c.043-.137.077-.255.113-.382l.1-.373.2-.744q.188-.745.347-1.495c.211-1 .391-2.008.52-3.027.065-.509.118-1.021.154-1.535s.059-1.031.057-1.55a13.177 13.177 0 0 0-.336-3.128.563.563 0 0 0-.679-.412z" transform="translate(-1034.834 -606.163)"/>
                    </g>
                    <ellipse id="타원_1002" cx="6.371" cy="3.679" class="cls-8" rx="6.371" ry="3.679" transform="translate(0 41.887)"/>
                    <path id="패스_30708" d="M1023.657 858.406a.976.976 0 0 0 .321 1.2 20.4 20.4 0 0 0 2.153 1.429 1.615 1.615 0 0 0 .72-.171.5.5 0 0 0 .278-.293.521.521 0 0 0-.085-.4z" class="cls-10" transform="translate(-1017.585 -815.062)"/>
                    <path id="패스_30709" d="M1026.195 860.975a20.419 20.419 0 0 1-2.153-1.429.974.974 0 0 1-.349-1.121l-.037-.019a.977.977 0 0 0 .321 1.2 20.4 20.4 0 0 0 2.153 1.429.958.958 0 0 0 .716-.124.686.686 0 0 0 .181-.172.587.587 0 0 1-.125.1c-.262.098-.502.218-.707.136z" class="cls-11" transform="translate(-1017.585 -815.062)"/>
                    <path id="패스_30710" d="M1027.1 856.6l-1.033-.738a6.354 6.354 0 0 0-1.573-.553.673.673 0 0 0-.411.491.908.908 0 0 0 .345.7c.248.186.707.487 1.391.917 1.143.719 1.651.166 1.651.166l-.083-.636z" class="cls-12" transform="translate(-1018.014 -812.48)"/>
                    <path id="패스_30711" d="M1024.519 855.312a.683.683 0 0 0-.409.473c.105.23.506.636 2.009 1.2l.595-.159-.662-.982a5.731 5.731 0 0 0-1.533-.532z" class="cls-13" transform="translate(-1018.035 -812.48)"/>
                    <path id="패스_30712" d="M1007.9 686.918l-1.485-.145.407 1.21s-.758 1.539-.429 2.051.921 1.307.921 1.307a9.6 9.6 0 0 1-.058 2.272c-.188.835-.805 3.307-.805 3.307l.806.526 2.653-5.422-1.047-5.017z" class="cls-34" transform="translate(-1003.214 -672.159)"/>
                    <path id="패스_30713" d="M1002.091 868.78a.977.977 0 0 0 .321 1.2 20.4 20.4 0 0 0 2.153 1.429 1.615 1.615 0 0 0 .721-.171.5.5 0 0 0 .278-.293.521.521 0 0 0-.086-.4z" class="cls-10" transform="translate(-999.628 -823.7)"/>
                    <path id="패스_30714" d="M1004.629 871.349a20.387 20.387 0 0 1-2.153-1.429.974.974 0 0 1-.348-1.121l-.037-.019a.977.977 0 0 0 .321 1.2 20.4 20.4 0 0 0 2.153 1.429.957.957 0 0 0 .716-.123.7.7 0 0 0 .181-.172.577.577 0 0 1-.125.1c-.263.097-.505.217-.708.135z" class="cls-11" transform="translate(-999.628 -823.7)"/>
                    <path id="패스_30715" d="M1005.539 866.977l-1.033-.738a6.366 6.366 0 0 0-1.573-.553.673.673 0 0 0-.411.491.909.909 0 0 0 .345.7c.248.186.707.486 1.391.917 1.143.719 1.651.166 1.651.166l-.083-.636z" class="cls-12" transform="translate(-1000.058 -821.117)"/>
                    <path id="패스_30716" d="M1002.954 865.686a.683.683 0 0 0-.409.473c.105.23.506.636 2.008 1.2l.595-.159-.662-.982a5.737 5.737 0 0 0-1.532-.532z" class="cls-13" transform="translate(-1000.08 -821.117)"/>
                    <path id="패스_30717" d="M1033.308 747.641a1.558 1.558 0 0 0-1.664 1.443v.14l.171 9.058c0 .754.058 1.509.091 2.264l.112 2.264.224 4.525a.685.685 0 0 0 1.368 0l.248-4.512.124-2.255c.044-.751.076-1.5.135-2.254l.64-9.012a1.558 1.558 0 0 0-1.449-1.661z" class="cls-6" transform="translate(-1024.304 -722.835)"/>
                    <path id="패스_30718" d="M1011.07 752.723a1.558 1.558 0 0 0-1.673 1.433v.13l.038 4.705.019 2.35.01 1.175v.587c0 .1 0 .2.005.293l.021.294.69 9.38a.685.685 0 0 0 1.367-.032l.251-9.338.008-.291c0-.1.014-.194.02-.291l.045-.582.09-1.164.18-2.328.359-4.651a1.558 1.558 0 0 0-1.43-1.67z" class="cls-6" transform="translate(-1005.78 -727.066)"/>
                    <path id="패스_30719" d="M1017.086 683.969l.531-3.97c.562-1.445-.059-1.709-.11-2.368l-.439-2.139-4.472 2.033.037.109a.356.356 0 0 1-.026.286 3.416 3.416 0 0 0-.336 1.218c-.152 1.286.3.871.285 2.333 0 .479.018 2.166.024 2.71l-.622 3.256a.834.834 0 0 0 .446.828c.671.38 2.434.233 4.775-.841a6.685 6.685 0 0 0 .589-.518.49.49 0 0 0 .219-.389l.052-.211-.07-.257c-.102-.249-.883-2.08-.883-2.08z" class="cls-36" transform="translate(-1007.911 -662.767)"/>
                    <path id="패스_30720" d="M1007.148 740.595a7.151 7.151 0 0 1 .634 3.482c-.009.64-.092 1.383-.137 2.238-.27 5.136 6.5.23 6.5.23s.9-5.876-.274-7.317c-.326 1.887-5.153 2.249-6.723 1.367z" class="cls-37" transform="translate(-1003.912 -715.834)"/>
                    <path id="패스_30721" d="M1008.651 747.839a6.706 6.706 0 0 1-2.729-.448s-.084 1.134-.233 3.227c-.046.639.043 1.607 0 2.462-.121 2.3 1.905 2.618 3.37 2.23l-.406-7.036z" class="cls-38" transform="translate(-1002.685 -722.63)"/>
                    <path id="패스_30722" fill="#82c4d8" d="M1009.939 674.426l1.236.852 4.475-2.125-1.046-.668z" transform="translate(-1006.236 -660.263)"/>
                    <g id="그룹_40689" transform="translate(4.009 6.05)">
                        <path id="패스_30723" d="M1021.134 669.613a3.356 3.356 0 0 0 2.263-.455l.068-2.2-2.053.439z" class="cls-6" transform="translate(-1019.566 -661.711)"/>
                        <path id="패스_30724" d="M1022.475 668.22a2.8 2.8 0 0 0 2.1-1.369l-2.063.541z" class="cls-8" transform="translate(-1020.682 -661.622)"/>
                        <g id="그룹_40688" transform="translate(0 .03)">
                            <path id="패스_30725" d="M1014.279 636.792c-1.123-.456-1.853.6-2.212 2.146-.051.222-.276.424-.3.664.158 1.41 1.331 2.893 2.712 2.845 1.009-.183 2-1.436 2.4-2.915a2.575 2.575 0 0 0-2.6-2.74z" class="cls-6" transform="translate(-1011.764 -636.536)"/>
                            <path id="패스_30726" d="M1012.111 639.615c.027-.24.252-.442.3-.664.285-1.229.805-2.148 1.571-2.244-.958-.176-1.593.825-1.919 2.232-.051.222-.276.424-.3.664.158 1.41 1.331 2.893 2.712 2.845l.025-.006a3.214 3.214 0 0 1-2.389-2.827z" class="cls-17" transform="translate(-1011.764 -636.538)"/>
                            <path id="패스_30727" d="M1015.168 635.984a1.272 1.272 0 0 0-.863.868 1.078 1.078 0 0 0-.028.513 8.6 8.6 0 0 0 4.678 1.571s-.031-4.057-3.787-2.952z" class="cls-18" transform="translate(-1013.841 -635.793)"/>
                        </g>
                        <path id="패스_30728" d="M1020.419 638.074a2.971 2.971 0 0 0-3.093-2.458c-.318 0-1.637.627-1.527 1.291s.206 1.594.423 2.9.939.866.934 1.751.344 1.173 2.262 1.118 1.257-1.152 1.562-2.61a1.8 1.8 0 0 0-.561-1.992z" class="cls-18" transform="translate(-1015.118 -635.615)"/>
                    </g>
                    <path id="패스_30729" d="M1010.883 868.041a.506.506 0 0 0-.441.13s-.34.464-.134.7a2.185 2.185 0 0 0 .634.423l-.016-1.244z" class="cls-12" transform="translate(-1006.487 -823.077)"/>
                    <path id="패스_30730" d="M1032.449 857.668a.505.505 0 0 0-.441.13s-.341.464-.134.7a2.184 2.184 0 0 0 .634.423l-.016-1.244z" class="cls-12" transform="translate(-1024.443 -814.44)"/>
                    <g id="그룹_40691" transform="translate(1.72 1.11)">
                        <g id="그룹_40690" transform="translate(.338)">
                            <path id="패스_30731" d="M1000.965 606.113c-.422-.1-.68.334-.823.954a.9.9 0 0 0 .569 1.175c.422.1.667-.313.81-.932a5.018 5.018 0 0 0 .085-.81c.003-.36-.364-.323-.641-.387z" class="cls-6" transform="translate(-1000.106 -606.099)"/>
                            <path id="패스_30732" d="M1006.865 607.46l-.4.9.167.627.325-.611a.751.751 0 0 0 .021-.661z" class="cls-6" transform="translate(-1005.402 -607.232)"/>
                        </g>
                        <path id="패스_30733" d="M1001.292 625.833l-.121-.343q-.12-.345-.234-.694-.227-.7-.429-1.405c-.267-.942-.505-1.894-.692-2.852-.095-.479-.178-.959-.244-1.44s-.122-.963-.153-1.444a11.983 11.983 0 0 1 .107-2.845v-.013a.564.564 0 0 0-1.1-.226 13.164 13.164 0 0 0-.336 3.128c0 .519.021 1.036.057 1.55s.089 1.026.153 1.535c.128 1.019.308 2.027.52 3.027q.159.75.347 1.495.094.372.195.744l.1.373c.037.127.071.245.113.382v.005c.006.021.014.041.021.062a.973.973 0 0 0 1.814-.706c-.034-.102-.077-.221-.118-.333z" class="cls-36" transform="translate(-998.088 -612.793)"/>
                    </g>
                </g>
                <g id="그룹_40694" transform="translate(49.052 1.868)">
                    <g id="그룹_40693" transform="translate(.416)">
                        <path id="패스_30734" d="M1133.927 415.855c-.519-.12-.837.412-1.013 1.175a1.109 1.109 0 0 0 .7 1.446c.519.12.822-.385 1-1.148a6.143 6.143 0 0 0 .1-1c.007-.44-.446-.394-.787-.473z" class="cls-6" transform="translate(-1132.869 -415.839)"/>
                        <path id="패스_30735" d="M1141.193 417.515l-.49 1.111.206.772.4-.753a.925.925 0 0 0 .026-.814z" class="cls-6" transform="translate(-1139.392 -417.234)"/>
                    </g>
                    <path id="패스_30736" d="M1134.33 440.141l-.15-.423q-.147-.425-.287-.855-.28-.859-.529-1.73c-.329-1.16-.622-2.332-.853-3.512-.117-.59-.219-1.181-.3-1.774s-.15-1.186-.188-1.778a14.747 14.747 0 0 1 .131-3.5v-.016a.694.694 0 0 0-1.359-.279 16.24 16.24 0 0 0-.414 3.852c0 .64.025 1.276.071 1.909s.109 1.263.189 1.89c.157 1.255.379 2.5.64 3.728q.2.924.428 1.841.116.459.24.916l.128.459c.045.156.086.3.139.47v.007c.008.025.017.051.027.076a1.2 1.2 0 0 0 2.234-.87c-.044-.127-.097-.274-.147-.411z" class="cls-15" transform="translate(-1130.384 -424.082)"/>
                </g>
            </g>
            <g id="그룹_40702" transform="translate(.603 45.643)">
                <g id="그룹_40697" transform="translate(5.092 7.098)">
                    <g id="그룹_40696" transform="translate(0 12.31)">
                        <path id="패스_30737" d="M871.549 795.3c.365.231.752-.09 1.093-.627a.9.9 0 0 0-.147-1.3c-.365-.232-.733.073-1.073.611a5 5 0 0 0-.349.737c-.123.341.236.428.476.579z" class="cls-6" transform="translate(-871.024 -793.299)"/>
                        <path id="패스_30738" d="M870.933 796.063l.675-.719.05-.647-.509.469a.75.75 0 0 0-.24.616z" class="cls-6" transform="translate(-870.906 -794.464)"/>
                    </g>
                    <path id="패스_30739" d="M880.208 720.771c-.005.143-.013.266-.02.4l-.025.386q-.028.385-.063.767-.07.765-.169 1.525c-.133 1.014-.3 2.024-.515 3.028-.108.5-.227 1-.365 1.5s-.286.992-.461 1.481a13.161 13.161 0 0 1-1.356 2.839.564.564 0 0 1-.966-.58l.007-.012a11.985 11.985 0 0 0 1.045-2.649c.131-.464.24-.936.336-1.413s.178-.956.248-1.439c.142-.966.233-1.942.294-2.92q.044-.733.062-1.468.008-.367.01-.732v-.364c0-.119 0-.246-.006-.353a.973.973 0 1 1 1.945-.064v.065z" class="cls-40" transform="translate(-875.312 -719.759)"/>
                </g>
                <ellipse id="타원_1003" cx="6.371" cy="3.679" class="cls-8" rx="6.371" ry="3.679" transform="translate(0 35.836)"/>
                <path id="패스_30740" d="M879.714 901.911a.521.521 0 0 1 .086.4.5.5 0 0 1-.278.293 1.609 1.609 0 0 1-.72.171 20.347 20.347 0 0 1-2.153-1.429.977.977 0 0 1-.321-1.2z" class="cls-10" transform="translate(-870.255 -862.852)"/>
                <path id="패스_30741" d="M876.327 900.145l.037.019a.974.974 0 0 0 .349 1.121 20.367 20.367 0 0 0 2.153 1.429c.2.082.445-.037.708-.134a.594.594 0 0 0 .125-.1.688.688 0 0 1-.181.171.957.957 0 0 1-.716.123 20.347 20.347 0 0 1-2.153-1.429.977.977 0 0 1-.322-1.2z" class="cls-11" transform="translate(-870.255 -862.852)"/>
                <path id="패스_30742" d="M879.775 898.341l.286.35.083.636s-.507.553-1.65-.166c-.684-.431-1.143-.731-1.391-.917a.909.909 0 0 1-.345-.7.674.674 0 0 1 .411-.491 6.365 6.365 0 0 1 1.573.553z" class="cls-12" transform="translate(-870.685 -860.269)"/>
                <path id="패스_30743" d="M876.781 897.523a.683.683 0 0 1 .409-.473 5.722 5.722 0 0 1 1.532.534l.662.982-.595.159c-1.502-.565-1.903-.971-2.008-1.202z" class="cls-13" transform="translate(-870.705 -860.269)"/>
                <path id="패스_30744" d="M859.084 728.512l.407 1.21s-.758 1.539-.429 2.051.921 1.307.921 1.307a9.608 9.608 0 0 1-.058 2.272c-.188.835-.805 3.307-.805 3.307l.806.526 2.652-5.422-1.047-5.017-.963-.088z" class="cls-40" transform="translate(-855.884 -719.949)"/>
                <path id="패스_30745" d="M858.149 912.285a.519.519 0 0 1 .086.4.5.5 0 0 1-.278.293 1.61 1.61 0 0 1-.721.172 20.348 20.348 0 0 1-2.153-1.429.976.976 0 0 1-.321-1.2z" class="cls-10" transform="translate(-852.299 -871.49)"/>
                <path id="패스_30746" d="M854.762 910.519l.037.019a.973.973 0 0 0 .348 1.121 20.4 20.4 0 0 0 2.153 1.429c.2.083.445-.037.708-.135a.583.583 0 0 0 .125-.1.685.685 0 0 1-.181.172.958.958 0 0 1-.716.124 20.348 20.348 0 0 1-2.153-1.429.976.976 0 0 1-.321-1.201z" class="cls-11" transform="translate(-852.299 -871.49)"/>
                <path id="패스_30747" d="M858.21 908.715l.286.35.083.636s-.507.553-1.65-.166c-.684-.431-1.143-.731-1.391-.917a.908.908 0 0 1-.345-.7.673.673 0 0 1 .411-.491 6.366 6.366 0 0 1 1.573.553z" class="cls-12" transform="translate(-852.729 -868.906)"/>
                <path id="패스_30748" d="M855.215 907.9a.683.683 0 0 1 .409-.473 5.729 5.729 0 0 1 1.532.534l.662.982-.595.159c-1.502-.569-1.903-.974-2.008-1.202z" class="cls-13" transform="translate(-852.749 -868.906)"/>
                <path id="패스_30749" d="M884.311 790.963l.171 9.058c0 .754.058 1.509.091 2.264l.112 2.264.223 4.525a.685.685 0 0 0 1.368 0l.248-4.513.124-2.255c.044-.752.076-1.5.135-2.255l.64-9.011a1.558 1.558 0 1 0-3.108-.221c-.004.051-.005.099-.004.144z" class="cls-6" transform="translate(-876.975 -770.625)"/>
                <path id="패스_30750" d="M862.063 796.028l.038 4.705.019 2.351.01 1.174v.587c0 .1 0 .2.005.293l.022.294.69 9.38a.685.685 0 0 0 1.367-.032l.251-9.338.008-.291c0-.1.014-.194.021-.291l.045-.582.09-1.164.18-2.328.36-4.651a1.558 1.558 0 0 0-3.106-.24v.13z" class="cls-6" transform="translate(-858.451 -774.855)"/>
                <path id="패스_30751" d="M870.71 728.046l-.07-.257c-.1-.247-.883-2.081-.883-2.081l.531-3.97a8.652 8.652 0 0 1-.11-2.368l-.439-2.139-4.472 2.033.037.109a.355.355 0 0 1-.026.286 3.418 3.418 0 0 0-.336 1.218c-.152 1.286.3.871.285 2.334 0 .479.018 2.166.024 2.71l-.621 3.256a.834.834 0 0 0 .446.829c.671.38 2.434.233 4.775-.841a6.694 6.694 0 0 0 .589-.518.49.49 0 0 0 .219-.389z" class="cls-22" transform="translate(-860.581 -710.556)"/>
                <path id="패스_30752" d="M859.818 782.333a7.149 7.149 0 0 1 .634 3.482c-.009.641-.092 1.383-.137 2.238-.27 5.136 6.5.23 6.5.23s.9-5.876-.274-7.317c-.327 1.888-5.153 2.25-6.723 1.367z" class="cls-37" transform="translate(-856.582 -763.623)"/>
                <path id="패스_30753" d="M861.321 790.011v-.435a6.709 6.709 0 0 1-2.729-.448s-.084 1.135-.233 3.227c-.045.639.043 1.607 0 2.462-.121 2.3 1.905 2.618 3.37 2.23z" class="cls-38" transform="translate(-855.356 -770.419)"/>
                <path id="패스_30754" d="M863.845 717.016l-1.236-.852 4.665-1.941 1.046.668z" class="cls-40" transform="translate(-858.906 -708.052)"/>
                <g id="그룹_40699" transform="translate(4.009)">
                    <path id="패스_30755" d="M876.135 708.7l-.068 2.2a3.356 3.356 0 0 1-2.263.454l.278-2.217z" class="cls-6" transform="translate(-872.236 -703.449)"/>
                    <path id="패스_30756" d="M877.243 708.59a2.8 2.8 0 0 1-2.1 1.368l.036-.828z" class="cls-8" transform="translate(-873.352 -703.361)"/>
                    <g id="그룹_40698" transform="translate(0 .03)">
                        <path id="패스_30757" d="M864.435 681.34c.158 1.41 1.331 2.893 2.712 2.845 1.009-.183 2-1.435 2.4-2.914a2.574 2.574 0 0 0-2.6-2.74c-1.123-.456-1.854.6-2.212 2.146-.048.223-.273.423-.3.663z" class="cls-6" transform="translate(-864.435 -678.274)"/>
                        <path id="패스_30758" d="M864.739 680.679c.326-1.407.961-2.408 1.919-2.232-.766.1-1.287 1.014-1.572 2.244-.052.222-.276.424-.3.664a3.214 3.214 0 0 0 2.39 2.828l-.025.006c-1.382.048-2.554-1.435-2.712-2.845.023-.244.248-.444.3-.665z" class="cls-17" transform="translate(-864.435 -678.277)"/>
                        <path id="패스_30759" d="M866.948 679.1a8.593 8.593 0 0 0 4.678 1.571s-.032-4.057-3.788-2.952a1.272 1.272 0 0 0-.863.868 1.074 1.074 0 0 0-.027.513z" class="cls-18" transform="translate(-866.511 -677.531)"/>
                    </g>
                    <path id="패스_30760" d="M873.09 679.813s.105.459.562 1.991c.426 1.427.355 2.555-1.562 2.61s-3.144.5-3.139-.385a5.13 5.13 0 0 0-.077-1.793c-.218-1.305-.292-2.926-.4-3.59s1.209-1.291 1.527-1.291a2.971 2.971 0 0 1 3.089 2.458z" class="cls-18" transform="translate(-867.789 -677.354)"/>
                </g>
                <path id="패스_30761" d="M863.554 909.78a.5.5 0 0 0-.441.13s-.341.464-.134.7a2.182 2.182 0 0 0 .634.423l-.016-1.244z" class="cls-12" transform="translate(-859.158 -870.867)"/>
                <path id="패스_30762" d="M885.119 899.406a.505.505 0 0 0-.441.13s-.341.464-.134.7a2.184 2.184 0 0 0 .634.423l-.016-1.244z" class="cls-12" transform="translate(-877.114 -862.229)"/>
                <g id="그룹_40701" transform="translate(.017 7.92)">
                    <g id="그룹_40700" transform="translate(0 12.31)">
                        <path id="패스_30763" d="M841.232 800.208c.366.231.752-.089 1.093-.627a.9.9 0 0 0-.147-1.3c-.366-.232-.733.073-1.073.611a4.993 4.993 0 0 0-.349.736c-.123.341.236.428.476.58z" class="cls-6" transform="translate(-840.707 -798.206)"/>
                        <path id="패스_30764" d="M840.616 800.97l.675-.719.05-.647-.509.469a.75.75 0 0 0-.24.617z" class="cls-6" transform="translate(-840.59 -799.371)"/>
                    </g>
                    <path id="패스_30765" d="M849.892 725.678c-.005.143-.012.266-.02.4l-.026.386q-.028.385-.063.767-.07.765-.169 1.525c-.133 1.014-.3 2.025-.515 3.028-.108.5-.227 1-.365 1.5s-.286.992-.461 1.481a13.161 13.161 0 0 1-1.356 2.839.564.564 0 0 1-.966-.58l.006-.012A11.983 11.983 0 0 0 847 734.36c.131-.464.24-.937.336-1.413s.178-.957.248-1.44c.142-.966.233-1.942.294-2.92q.045-.733.062-1.468.009-.367.01-.732v-.364c0-.119 0-.246-.006-.353a.973.973 0 0 1 1.945-.064v.065z" class="cls-40" transform="translate(-844.996 -724.666)"/>
                </g>
            </g>
        </g>
        <g id="img_map" transform="translate(115.322 15.514)">
            <g id="그룹_21370" transform="translate(-.001 67.552)" style="mix-blend-mode:multiply;isolation:isolate" opacity="0.5">
                <path id="패스_28419" d="M319.691 162.122c-12.229-5.818-31.863-5.532-43.853.641s-11.8 15.894.431 21.712 31.865 5.532 43.856-.641 11.795-15.894-.434-21.712z" class="cls-27" transform="translate(-266.971 -157.939)"/>
                <path id="패스_28420" d="M319.211 162.194c-12.056-5.736-31.412-5.453-43.232.633s-11.63 15.667.424 21.4 31.414 5.455 43.235-.631 11.628-15.664-.427-21.402z" class="cls-42" transform="translate(-266.798 -157.854)"/>
                <path id="패스_28421" d="M318.73 162.267c-11.882-5.652-30.961-5.374-42.612.625s-11.461 15.442.42 21.1 30.963 5.376 42.613-.621 11.463-15.449-.421-21.104z" class="cls-43" transform="translate(-266.624 -157.768)"/>
                <path id="패스_28422" d="M318.249 162.341c-11.709-5.571-30.51-5.3-41.991.613s-11.3 15.218.413 20.79 30.512 5.3 41.992-.613 11.297-15.219-.414-20.79z" class="cls-44" transform="translate(-266.451 -157.683)"/>
                <path id="패스_28423" d="M317.769 162.414c-11.537-5.489-30.059-5.218-41.37.605s-11.129 14.993.408 20.482 30.059 5.218 41.371-.6 11.127-15.001-.409-20.487z" class="cls-45" transform="translate(-266.278 -157.598)"/>
                <path id="패스_28424" d="M317.288 162.486c-11.363-5.405-29.608-5.139-40.749.6s-10.962 14.768.4 20.173 29.608 5.141 40.75-.6 10.962-14.766-.401-20.173z" class="cls-46" transform="translate(-266.104 -157.512)"/>
                <path id="패스_28425" d="M316.807 162.559c-11.19-5.323-29.157-5.06-40.127.587s-10.8 14.544.395 19.868 29.157 5.062 40.129-.585 10.796-14.545-.397-19.87z" class="cls-47" transform="translate(-265.931 -157.427)"/>
                <path id="패스_28426" d="M316.327 162.634c-11.018-5.243-28.706-4.985-39.508.577s-10.626 14.319.39 19.56 28.706 4.983 39.508-.577 10.626-14.318-.39-19.56z" class="cls-48" transform="translate(-265.758 -157.343)"/>
                <path id="패스_28427" d="M315.846 162.706c-10.845-5.159-28.255-4.906-38.886.569s-10.46 14.092.383 19.253 28.255 4.9 38.888-.569 10.46-14.093-.385-19.253z" class="cls-49" transform="translate(-265.584 -157.257)"/>
                <path id="패스_28428" d="M315.365 162.779c-10.671-5.077-27.8-4.827-38.265.561s-10.293 13.867.377 18.944 27.8 4.828 38.267-.557 10.292-13.87-.379-18.948z" class="cls-50" transform="translate(-265.411 -157.172)"/>
                <path id="패스_28429" d="M314.885 162.851c-10.5-4.993-27.353-4.748-37.644.551s-10.128 13.643.37 18.638 27.351 4.75 37.646-.549 10.126-13.644-.372-18.64z" class="cls-51" transform="translate(-265.238 -157.087)"/>
                <path id="패스_28430" d="M314.4 162.925c-10.324-4.912-26.9-4.671-37.021.541s-9.961 13.418.364 18.33 26.9 4.671 37.024-.541 9.962-13.417-.367-18.33z" class="cls-52" transform="translate(-265.065 -157.001)"/>
                <path id="패스_28431" d="M313.922 163c-10.151-4.83-26.449-4.592-36.4.533s-9.792 13.193.358 18.023 26.449 4.592 36.4-.531 9.795-13.197-.358-18.025z" class="cls-53" transform="translate(-264.891 -156.916)"/>
                <path id="패스_28432" d="M313.441 163.071c-9.977-4.746-26-4.513-35.78.524s-9.625 12.968.352 17.714 26 4.514 35.784-.521 9.623-12.97-.356-17.717z" class="cls-54" transform="translate(-264.718 -156.831)"/>
                <path id="패스_28433" d="M312.961 163.143c-9.806-4.664-25.547-4.434-35.159.515s-9.458 12.744.347 17.408 25.545 4.436 35.161-.513 9.458-12.742-.349-17.41z" class="cls-55" transform="translate(-264.545 -156.746)"/>
                <path id="패스_28434" d="M312.48 163.218c-9.632-4.583-25.1-4.356-34.538.5s-9.292 12.517.34 17.1 25.094 4.357 34.54-.5 9.292-12.518-.342-17.1z" class="cls-56" transform="translate(-264.371 -156.661)"/>
                <path id="패스_28435" d="M312 163.29c-9.458-4.5-24.645-4.279-33.918.5s-9.123 12.292.335 16.793 24.644 4.278 33.919-.495 9.124-12.296-.336-16.798z" class="cls-57" transform="translate(-264.198 -156.576)"/>
            </g>
            <path id="패스_28436" fill="#ce7436" d="M306.046 157.715c-7.274-3.35-18.952-3.186-26.086.372-5.1 2.543-6.475 6.13-4.192 9.195a10.3 10.3 0 0 1 4.672-4.023c7.132-3.556 18.811-3.72 26.087-.368a11.352 11.352 0 0 1 4.448 3.314c1.595-2.977-.047-6.239-4.929-8.49z" transform="translate(-261.929 -92.081)"/>
            <path id="패스_28437" fill="#c4c6d0" d="M318.783 169.747l-.261-9.142-46.832-.138.263 9.7h.013c-.135 3.589 2.186 7.174 7 9.829 9.239 5.1 24.068 4.848 33.127-.562 4.464-2.666 6.681-6.088 6.686-9.483h.01v-.105c-.006-.036-.006-.067-.006-.099z" transform="translate(-263.894 -88.758)"/>
            <path id="패스_28438" fill="#efeff4" d="M311.505 156.325c-9.239-5.1-24.07-4.85-33.127.56s-8.911 13.933.327 19.033 24.068 4.848 33.125-.562 8.914-13.931-.325-19.031z" transform="translate(-263.901 -93.787)"/>
            <path id="패스_28439" fill="url(#linear-gradient-16)" d="M306.05 157.714c-7.273-3.35-18.947-3.184-26.082.372-5.949 2.959-6.861 7.352-2.771 10.683a14.59 14.59 0 0 0 3.025 1.831c7.281 3.351 18.96 3.184 26.094-.37a14.142 14.142 0 0 0 2.681-1.7c4.257-3.472 3.26-7.962-2.947-10.816z" transform="translate(-261.937 -92.082)"/>
            <g id="그룹_21377" transform="translate(12.693 61.959)">
                <path id="패스_28440" fill="#a26a00" d="M302.881 155.94c-7.347-2.389-16.687-1.633-22.633 1.535-.05.025-.1.051-.149.079a14.752 14.752 0 0 0-2.665 1.828c-5.378 4.71-2.716 10.824 5.935 13.634 7.276 2.362 16.5 1.651 22.453-1.437.056-.028.114-.056.172-.089a14.84 14.84 0 0 0 2.82-1.914c5.38-4.707 2.72-10.825-5.933-13.636z" transform="translate(-274.654 -154.536)"/>
                <g id="그룹_21372" transform="translate(2.225 1.437)">
                    <g id="그룹_21371">
                        <path id="패스_28441" d="M283.667 170.9c-7.61-2.356-9.951-7.482-5.221-11.426s14.772-5.24 22.382-2.885 9.951 7.482 5.219 11.427-14.772 5.235-22.38 2.884zm17.11-14.268c-7.565-2.339-17.544-1.054-22.246 2.869s-2.376 9.014 5.188 11.357 17.542 1.054 22.246-2.867 2.373-9.022-5.188-11.363z" class="cls-27" transform="translate(-276.001 -155.41)"/>
                    </g>
                </g>
                <g id="그룹_21374" transform="translate(7.364 4.072)">
                    <g id="그룹_21373">
                        <path id="패스_28442" d="M284.353 167.6c-5.2-1.609-6.8-5.114-3.568-7.811s10.1-3.584 15.3-1.973 6.8 5.113 3.568 7.81-10.098 3.585-15.3 1.974zm11.7-9.754c-5.169-1.6-11.993-.722-15.208 1.96s-1.624 6.165 3.547 7.766 11.993.72 15.21-1.961 1.617-6.165-3.554-7.764z" class="cls-27" transform="translate(-279.112 -157.013)"/>
                    </g>
                </g>
                <g id="그룹_21376" transform="translate(12.496 6.704)">
                    <g id="그룹_21375">
                        <path id="패스_28443" d="M285.038 164.309c-2.8-.865-3.661-2.75-1.922-4.2s5.434-1.927 8.233-1.06 3.66 2.75 1.918 4.2-5.431 1.926-8.229 1.06zm6.292-5.248c-2.782-.86-6.454-.388-8.183 1.056s-.874 3.316 1.91 4.176 6.452.388 8.182-1.054.873-3.316-1.909-4.178z" class="cls-27" transform="translate(-282.218 -158.614)"/>
                    </g>
                </g>
                <path id="패스_28444" d="M278.781 170.143a.122.122 0 0 1-.068-.018.085.085 0 0 1-.046-.074v-.033l.036-.031 23.781-14.069a.109.109 0 0 1 .053-.013.127.127 0 0 1 .068.02.084.084 0 0 1 .048.072v.035l-.038.031-23.781 14.068a.1.1 0 0 1-.053.012z" class="cls-27" transform="translate(-272.038 -153.655)"/>
                <path id="패스_28445" d="M303.845 170.343c-.058.033-.116.061-.172.089l-25.722-14.025a1.175 1.175 0 0 1 .15-.076l.028-.01z" class="cls-27" transform="translate(-272.506 -153.389)"/>
            </g>
            <g id="그룹_21378" transform="translate(21.66 66.913)" style="mix-blend-mode:multiply;isolation:isolate">
                <path id="패스_28446" d="M296.548 158.856a17.4 17.4 0 0 0-13.7.2c-3.746 1.927-3.686 4.963.134 6.78a17.4 17.4 0 0 0 13.7-.2c3.744-1.927 3.684-4.964-.134-6.78z" class="cls-27" transform="translate(-280.081 -157.549)"/>
                <path id="패스_28447" d="M296.4 158.878a17.159 17.159 0 0 0-13.5.2c-3.691 1.9-3.633 4.893.132 6.685a17.153 17.153 0 0 0 13.5-.2c3.689-1.899 3.631-4.893-.132-6.685z" class="cls-42" transform="translate(-280.027 -157.523)"/>
                <path id="패스_28448" d="M296.248 158.9a16.907 16.907 0 0 0-13.31.2c-3.638 1.872-3.58 4.822.132 6.587a16.9 16.9 0 0 0 13.306-.194c3.64-1.875 3.583-4.826-.128-6.593z" class="cls-43" transform="translate(-279.973 -157.496)"/>
                <path id="패스_28449" d="M296.1 158.924a16.661 16.661 0 0 0-13.114.192c-3.587 1.845-3.529 4.753.129 6.492a16.658 16.658 0 0 0 13.113-.192c3.582-1.844 3.526-4.753-.128-6.492z" class="cls-44" transform="translate(-279.918 -157.47)"/>
                <path id="패스_28450" d="M295.946 158.947a16.418 16.418 0 0 0-12.92.189c-3.532 1.818-3.476 4.682.127 6.4a16.412 16.412 0 0 0 12.92-.189c3.532-1.822 3.476-4.686-.127-6.4z" class="cls-45" transform="translate(-279.864 -157.443)"/>
                <path id="패스_28451" d="M295.8 158.969a16.165 16.165 0 0 0-12.727.187c-3.479 1.79-3.423 4.611.126 6.3a16.172 16.172 0 0 0 12.727-.186c3.474-1.789 3.419-4.612-.126-6.301z" class="cls-46" transform="translate(-279.81 -157.417)"/>
                <path id="패스_28452" d="M295.647 158.992a15.926 15.926 0 0 0-12.533.184c-3.427 1.764-3.372 4.541.124 6.2a15.925 15.925 0 0 0 12.533-.184c3.429-1.758 3.37-4.537-.124-6.2z" class="cls-47" transform="translate(-279.757 -157.39)"/>
                <path id="패스_28453" d="M295.5 159.016a15.675 15.675 0 0 0-12.338.179c-3.374 1.736-3.321 4.471.121 6.109a15.668 15.668 0 0 0 12.338-.181c3.37-1.736 3.317-4.471-.121-6.107z" class="cls-48" transform="translate(-279.702 -157.363)"/>
                <path id="패스_28454" d="M295.347 159.039a15.429 15.429 0 0 0-12.145.178c-3.321 1.708-3.268 4.4.119 6.012a15.429 15.429 0 0 0 12.145-.177c3.32-1.711 3.267-4.404-.119-6.013z" class="cls-49" transform="translate(-279.648 -157.336)"/>
                <path id="패스_28455" d="M295.2 159.062a15.181 15.181 0 0 0-11.952.174c-3.268 1.682-3.215 4.33.117 5.917a15.182 15.182 0 0 0 11.952-.176c3.263-1.677 3.212-4.331-.117-5.915z" class="cls-50" transform="translate(-279.594 -157.31)"/>
                <path id="패스_28456" d="M295.046 159.084a14.942 14.942 0 0 0-11.758.171c-3.214 1.655-3.162 4.261.116 5.821a14.935 14.935 0 0 0 11.758-.173c3.214-1.653 3.162-4.26-.116-5.819z" class="cls-51" transform="translate(-279.539 -157.283)"/>
                <path id="패스_28457" d="M294.9 159.107a14.691 14.691 0 0 0-11.563.169c-3.162 1.626-3.111 4.189.112 5.724a14.7 14.7 0 0 0 11.565-.169c3.155-1.631 3.106-4.19-.114-5.724z" class="cls-52" transform="translate(-279.485 -157.257)"/>
                <path id="패스_28458" d="M294.747 159.13a14.444 14.444 0 0 0-11.37.166c-3.109 1.6-3.058 4.12.111 5.629a14.445 14.445 0 0 0 11.37-.168c3.107-1.599 3.059-4.12-.111-5.627z" class="cls-53" transform="translate(-279.431 -157.23)"/>
                <path id="패스_28459" d="M294.6 159.153a14.205 14.205 0 0 0-11.177.163c-3.055 1.573-3.007 4.051.109 5.534a14.206 14.206 0 0 0 11.177-.164c3.052-1.573 3.003-4.052-.109-5.533z" class="cls-54" transform="translate(-279.377 -157.204)"/>
                <path id="패스_28460" d="M294.445 159.175a13.944 13.944 0 0 0-10.98.161c-3 1.545-2.956 3.978.106 5.437a13.959 13.959 0 0 0 10.983-.161c3-1.545 2.954-3.98-.109-5.437z" class="cls-55" transform="translate(-279.323 -157.177)"/>
                <path id="패스_28461" d="M294.3 159.2a13.7 13.7 0 0 0-10.787.158c-2.951 1.517-2.9 3.909.106 5.341a13.715 13.715 0 0 0 10.789-.158c2.942-1.521 2.892-3.913-.108-5.341z" class="cls-56" transform="translate(-279.269 -157.15)"/>
                <path id="패스_28462" d="M294.145 159.221a13.457 13.457 0 0 0-10.594.154c-2.9 1.491-2.85 3.839.1 5.246a13.469 13.469 0 0 0 10.6-.156c2.894-1.491 2.849-3.839-.106-5.244z" class="cls-57" transform="translate(-279.215 -157.124)"/>
            </g>
            <g id="그룹_21382" transform="translate(8.226)">
                <g id="그룹_21380" transform="translate(5.505)">
                    <path id="패스_28463" d="M305.746 124.8c-4.821-4.989-12.875-10.449-19.95-6.726l-10.514 6.1c2.034-.985 8.915-3.142 18.5 5.484a40.8 40.8 0 0 1 11.367 18.383c1.026 3.378-.174 15.71-3.022 18.549a110.454 110.454 0 0 0-12.84 16.2l11.1-6.369s13.575-15.177 14.631-16.825c2.519-3.929 2.554-8.973 1.8-13.426a41.512 41.512 0 0 0-11.072-21.37z" class="cls-64" transform="translate(-275.282 -116.848)"/>
                </g>
                <g id="그룹_21381" transform="translate(0 6.155)">
                    <path id="패스_28464" fill="#fdd83a" d="M308.72 153.2a39.317 39.317 0 0 0-8.09-20.954c-4.061-5.384-10.311-10.967-17.381-11.6a9.6 9.6 0 0 0-8.034 2.875c-2.477 2.685-3.265 6.518-3.265 10.058 0 13.344 19.505 46.816 19.505 46.816s13.209-14.41 14.73-16.511c2.21-3.063 2.745-7.012 2.535-10.684zm-7.932-3.456c-.159 4.036-2.663 8.11-7.124 7.656-5.561-.566-11.654-7.238-13.61-14.909s.972-13.431 6.534-12.864c8.545.873 14.539 12.621 14.2 20.115z" transform="translate(-271.95 -120.592)"/>
                </g>
            </g>
            <path id="패스_28465" d="M287.339 136.487a19.115 19.115 0 0 1-1.5-9.852s-.965-.307-1.029-.322a8.238 8.238 0 0 0-1.188-.212c-5.563-.564-8.487 5.195-6.533 12.866s8.048 14.345 13.61 14.908a6.808 6.808 0 0 0 1.454 0 5.592 5.592 0 0 0 2.2-.7c2.224-1.268 3.2-3.85 3.43-6.3.003 0-6.11-1.175-10.444-10.388z" class="cls-64" transform="translate(-260.765 -110.915)"/>
        </g>
    </g>
</svg>
