<svg xmlns="http://www.w3.org/2000/svg" xmlns:xlink="http://www.w3.org/1999/xlink" width="120" height="120" viewBox="0 0 120 120">
    <defs>
        <linearGradient id="linear-gradient" x1="-.004" x2=".997" y1=".498" y2=".498" gradientUnits="objectBoundingBox">
            <stop offset="0" stop-color="#70bfff"/>
            <stop offset="1" stop-color="#6e89ff"/>
        </linearGradient>
        <linearGradient id="linear-gradient-2" x1="1" x2="0" y1=".5" y2=".5" gradientUnits="objectBoundingBox">
            <stop offset="0" stop-color="#ffdd40"/>
            <stop offset=".999" stop-color="#ffa814"/>
        </linearGradient>
        <linearGradient id="linear-gradient-3" x1="0" x2="1" y1=".5" y2=".5" xlink:href="#linear-gradient-2"/>
        <clipPath id="clip-path">
            <circle id="타원_1133" cx="35.043" cy="35.043" r="35.043"/>
        </clipPath>
        <clipPath id="clip-path-2">
            <circle id="타원_1137" cx="40" cy="40" r="40"/>
        </clipPath>
        <filter id="타원_1219" width="95" height="95" x="13" y="16" filterUnits="userSpaceOnUse">
            <feOffset dy="4"/>
            <feGaussianBlur result="blur" stdDeviation="2.5"/>
            <feFlood flood-opacity=".102"/>
            <feComposite in2="blur" operator="in"/>
            <feComposite in="SourceGraphic"/>
        </filter>
        <style>
            .cls-1{opacity:.2}.cls-3{fill:#fff}.cls-10{fill:#f4b331}.cls-12{fill:#fcdc4d}
        </style>
    </defs>
    <g id="img_challenge_car_11" class="cls-1" transform="translate(9.9 4.9)">
        <g id="그룹_43455" transform="translate(0 5)">
            <g id="그룹_40416" transform="translate(10.771 9.6)">
                <g id="_x35_0_13_">
                    <g filter="url(#타원_1219)" transform="translate(-20.67 -19.5)">
                        <circle id="타원_1219-2" cx="40" cy="40" r="40" class="cls-3" transform="translate(20.5 19.5)"/>
                    </g>
                    <circle id="타원_1131" cx="35.043" cy="35.043" r="35.043" fill="#7ca8ff" transform="translate(4.843 4.843)"/>
                    <g id="그룹_40412" transform="translate(4.843 4.843)">
                        <g id="그룹_40411" clip-path="url(#clip-path)">
                            <circle id="타원_1132" cx="35.043" cy="35.043" r="35.043" fill="url(#linear-gradient)"/>
                        </g>
                    </g>
                    <g id="그룹_40413" transform="translate(42.393 50.655)"/>
                </g>
            </g>
            <g id="그룹_40419" transform="translate(10.6 9.6)">
                <g id="그룹_40418" clip-path="url(#clip-path-2)">
                    <path id="패스_30569" fill="url(#linear-gradient-2)" d="M105.269-9.1L92.164-34.8 74.5-30.526 85.326-9.045l19.943-.055" transform="translate(-56.295 22.15)"/>
                    <path id="패스_30570" d="M112.5-9.1l13.105-25.7 17.664 4.274-10.826 21.481L112.5-9.1" class="cls-10" transform="translate(-83.469 22.15)"/>
                    <path id="패스_30571" fill="url(#linear-gradient-3)" d="M120.5-9.1l13.105-25.7 17.664 4.274-10.826 21.481L120.5-9.1" transform="translate(-89.189 22.15)"/>
                    <path id="사각형_17976" d="M0 0H22.422V8.803H0z" class="cls-10" transform="translate(28.86 16.581)"/>
                    <circle id="타원_1134" cx="22.222" cy="22.222" r="22.222" class="cls-12" transform="translate(17.835 19.886)"/>
                    <circle id="타원_1135" cx="18.034" cy="18.034" r="18.034" class="cls-10" transform="translate(22.023 24.074)"/>
                    <circle id="타원_1136" cx="15.584" cy="15.584" r="15.584" class="cls-12" transform="translate(24.473 26.524)"/>
                    <path id="패스_30572" d="M129.5 60.457h-21.221a2.48 2.48 0 0 1-2.479-2.479 2.48 2.48 0 0 1 2.479-2.479H129.5a2.5 2.5 0 0 1 2.507 2.479 2.487 2.487 0 0 1-2.507 2.479z" class="cls-12" transform="translate(-78.677 -42.423)"/>
                </g>
            </g>
            <g id="그룹_40421" class="cls-1" transform="translate(41.654 46.552)">
                <path id="패스_30573" d="M124.614 142.9a3.088 3.088 0 0 0-2.422 1.14v-.114a2.415 2.415 0 0 1 1-1.994 2.3 2.3 0 0 1 1.311-.4 2.615 2.615 0 0 1 1.88.655l.4-.684.712-1.168a5.016 5.016 0 0 0-3.02-.94 4.924 4.924 0 0 0-3.191 1.026 5.031 5.031 0 0 0-1.684 4.079c0 2.82 1.368 5.1 4.473 5.1a4.021 4.021 0 0 0 3.248-1.424 3.351 3.351 0 0 0 .684-2.051 3.153 3.153 0 0 0-3.391-3.225zm-1.823 2.336a2.251 2.251 0 0 1 1.083-.256c.826 0 1.624.342 1.624 1.225a.9.9 0 0 1-.114.456 1.4 1.4 0 0 1-1.368.741 1.759 1.759 0 0 1-1.795-1.766 1.7 1.7 0 0 1 .57-.396z" transform="translate(-119.6 -139.372)"/>
                <path id="패스_30574" d="M157.317 139.3a3.757 3.757 0 0 0-2.507.855 5.419 5.419 0 0 0-1.71 4.245c0 2.621 1.339 5.1 4.245 5.1a3.794 3.794 0 0 0 3.077-1.425 5.814 5.814 0 0 0 1.168-3.7c-.028-2.596-1.396-5.075-4.273-5.075zm-.684 2.393a1.342 1.342 0 0 1 .684-.142c1.2 0 1.652 1.083 1.652 2.849a4.061 4.061 0 0 1-.427 2.137 1.36 1.36 0 0 1-1.254.712c-1.2 0-1.652-1.111-1.652-2.849.028-1.368.313-2.336.997-2.707z" transform="translate(-143.556 -139.3)"/>
            </g>
            <g id="그룹_40422" transform="translate(42.252 45.982)">
                <path id="패스_30575" d="M126.686 140.9a3.088 3.088 0 0 0-2.422 1.14v-.114a2.624 2.624 0 0 1 .427-1.424 2.22 2.22 0 0 1 1.88-.969 2.642 2.642 0 0 1 1.738.541c.057.028.114.085.171.114l1.111-1.852a5.016 5.016 0 0 0-3.02-.94 4.65 4.65 0 0 0-3.761 1.6 5.43 5.43 0 0 0-1.111 3.5c0 2.821 1.368 5.1 4.473 5.1a4.242 4.242 0 0 0 2.678-.855 3.242 3.242 0 0 0 1.254-2.621 3.191 3.191 0 0 0-3.418-3.22zm.171 4.33a1.735 1.735 0 0 1-.8.171 1.714 1.714 0 0 1-1.766-1.624 1.234 1.234 0 0 0-.028-.142 2.375 2.375 0 0 1 1.652-.655c.826 0 1.624.342 1.624 1.225a1.153 1.153 0 0 1-.682 1.03z" class="cls-3" transform="translate(-121.7 -137.372)"/>
                <path id="패스_30576" d="M159.317 137.3a3.714 3.714 0 0 0-3.077 1.424 5.942 5.942 0 0 0-1.14 3.675c0 2.621 1.339 5.1 4.245 5.1a3.811 3.811 0 0 0 2.507-.855 5.46 5.46 0 0 0 1.738-4.273c-.028-2.592-1.396-5.071-4.273-5.071zm.655 7.806a1.342 1.342 0 0 1-.684.142c-1.2 0-1.652-1.111-1.652-2.849a4.27 4.27 0 0 1 .4-2.108 1.36 1.36 0 0 1 1.254-.712c1.2 0 1.652 1.083 1.652 2.849.027 1.339-.258 2.308-.97 2.678z" class="cls-3" transform="translate(-145.584 -137.3)"/>
            </g>
            <g id="그룹_40423" class="cls-1" transform="translate(45.244 59.885)">
                <path id="패스_30577" d="M133.482 186.3H132.2v3.048h1.282a1.659 1.659 0 0 0 1.339-.6 1.449 1.449 0 0 0 .285-.912 1.489 1.489 0 0 0-1.624-1.536zm-.513.684h.484a.762.762 0 0 1 .826.826.836.836 0 0 1-.114.456.852.852 0 0 1-.741.4h-.484v-1.681z" transform="translate(-132.2 -186.243)"/>
                <path id="패스_30578" d="M145.691 189.064l-1.054-2.764h-1l-1.14 3.048h.855l.085-.285.057-.171h1.254l.142.456h.855zm-1.538-2.08l.085.285.228.684.085.285h-.851z" transform="translate(-139.566 -186.243)"/>
                <path id="패스_30579" d="M155.194 186.3l-.2.313-.228.4-.228.4-.655-1.111H153l1.14 1.823v1.225h.8v-1.225l1.14-1.823z" transform="translate(-147.074 -186.243)"/>
                <path id="패스_30580" d="M165.324 187.3c-.342-.057-.513-.114-.513-.285 0-.114.085-.228.285-.228h.057a1.437 1.437 0 0 1 .855.313l.256-.313.2-.256a1.784 1.784 0 0 0-1.225-.427 1.565 1.565 0 0 0-.8.2.925.925 0 0 0-.427.741c0 .712.712.855 1.2.94.285.057.484.114.513.256v.029c0 .142-.171.256-.427.256a1.4 1.4 0 0 1-.912-.342l-.057-.057-.427.6a1.907 1.907 0 0 0 1.339.484 1.348 1.348 0 0 0 1.14-.484.984.984 0 0 0 .142-.513c-.002-.661-.686-.832-1.199-.914z" transform="translate(-154.869 -186.1)"/>
            </g>
            <g id="그룹_40424" transform="translate(45.529 59.6)">
                <path id="패스_30581" d="M134.482 185.3H133.2v3.048h1.282a1.717 1.717 0 0 0 1.054-.313 1.4 1.4 0 0 0 .57-1.2 1.489 1.489 0 0 0-1.624-1.535zm.427 2.251a.971.971 0 0 1-.456.114h-.484v-1.681h.484a.762.762 0 0 1 .826.826.777.777 0 0 1-.37.741z" class="cls-3" transform="translate(-133.2 -185.243)"/>
                <path id="패스_30582" d="M145.637 185.3h-1l-.114.285-1.026 2.764h.855l.057-.171.085-.285h1.254l.142.456h.855zm-.912 1.909l.228-.684.2-.57.427 1.225h-.855z" class="cls-3" transform="translate(-140.566 -185.243)"/>
                <path id="패스_30583" d="M156.194 185.228l-.171.285-.484.826-.057-.114-.6-1.026H154l.171.285.969 1.538v1.225h.8v-1.225l1.14-1.823h-.883z" class="cls-3" transform="translate(-148.074 -185.172)"/>
                <path id="패스_30584" d="M166.4 186.3c-.313-.057-.484-.114-.513-.228v-.057c0-.142.085-.228.37-.228a1.382 1.382 0 0 1 .826.285.028.028 0 0 1 .028.029l.427-.57a1.784 1.784 0 0 0-1.225-.427 1.2 1.2 0 0 0-1.083.484.861.861 0 0 0-.142.456c0 .712.712.855 1.2.94.313.057.513.142.513.313a.3.3 0 0 1-.285.256c-.057 0-.085.028-.142.028a1.324 1.324 0 0 1-.969-.4l-.228.342-.171.256a2.03 2.03 0 0 0 2.194.285.885.885 0 0 0 .427-.8c-.034-.711-.718-.882-1.227-.964z" class="cls-3" transform="translate(-155.94 -185.1)"/>
            </g>
            <path id="패스_30600" d="M145.9 247.793l.513 1.054c0 .028.028.028.057.028l1.168.171a.061.061 0 0 1 .028.114l-.826.826c-.029.029-.029.029-.029.057l.2 1.14c0 .057-.057.114-.114.085l-1.026-.541h-.057l-1.026.541c-.057.028-.114-.028-.114-.085l.2-1.14c0-.028 0-.057-.028-.057l-.826-.826a.061.061 0 0 1 .029-.114l1.168-.171a.1.1 0 0 0 .057-.028l.513-1.054a.059.059 0 0 1 .113 0z" class="cls-3" transform="translate(-95.388 -170.301)"/>
            <path id="패스_30607" d="M72.69 63.4c0 2.365-1.054 3.39-3.39 3.39 2.365 0 3.39 1.054 3.39 3.39 0-2.365 1.054-3.39 3.39-3.39-2.336 0-3.39-1.054-3.39-3.39z" class="cls-3" transform="translate(-41.977 -38.472)"/>
            <path id="패스_30608" d="M193.882 197.7c0 .883-.4 1.282-1.282 1.282.883 0 1.282.4 1.282 1.282 0-.883.4-1.282 1.282-1.282-.883 0-1.282-.399-1.282-1.282z" class="cls-3" transform="translate(-130.148 -134.51)"/>
            <circle id="타원_1172" cx="1.2" cy="1.2" r="1.2" class="cls-3" transform="translate(73.5 29.282)"/>
            <circle id="타원_1173" cx="1.7" cy="1.7" r="1.7" class="cls-3" transform="translate(22.5 56.979)"/>
        </g>
    </g>
</svg>
