<svg xmlns="http://www.w3.org/2000/svg" width="216" height="178" viewBox="0 0 216 178">
    <defs>
        <radialGradient id="radial-gradient" cx=".5" cy=".5" r=".875" gradientTransform="matrix(.577 0 0 .517 .211 58.755)" gradientUnits="objectBoundingBox">
            <stop offset=".091" stop-color="#8197fb"/>
            <stop offset=".159" stop-color="#8ea1fb"/>
            <stop offset=".433" stop-color="#bec9fc"/>
            <stop offset=".675" stop-color="#e1e6fe"/>
            <stop offset=".872" stop-color="#f7f8fe"/>
            <stop offset="1" stop-color="#fff"/>
        </radialGradient>
        <radialGradient id="radial-gradient-2" cx=".5" cy=".5" r=".657" gradientTransform="matrix(.769 0 0 .689 .116 33.345)" gradientUnits="objectBoundingBox">
            <stop offset="0" stop-color="#8197fb"/>
            <stop offset=".18" stop-color="#a2b2fc"/>
            <stop offset=".429" stop-color="#cad3fd"/>
            <stop offset=".658" stop-color="#e7ebfe"/>
            <stop offset=".856" stop-color="#f8f9fe"/>
            <stop offset="1" stop-color="#fff"/>
        </radialGradient>
        <linearGradient id="linear-gradient" x2="1" y1=".5" y2=".5" gradientUnits="objectBoundingBox">
            <stop offset=".004" stop-color="#bac5ff"/>
            <stop offset=".264" stop-color="#c7d0ff"/>
            <stop offset=".747" stop-color="#eaedff"/>
            <stop offset="1" stop-color="#fff"/>
        </linearGradient>
        <linearGradient id="linear-gradient-2" x1=".628" x2=".321" y1=".318" y2=".704" gradientUnits="objectBoundingBox">
            <stop offset="0" stop-color="#ba7f37"/>
            <stop offset="1" stop-color="#98541e"/>
        </linearGradient>
        <clipPath id="clip-path">
            <path id="mask" fill="#fff" d="M0 0H41V34H0z" opacity="0.2"/>
        </clipPath>
        <style>
            .cls-2,.cls-21{fill:#fff}.cls-2{opacity:0}.cls-3{fill:#7a4d4c;opacity:.1}.cls-4{fill:#cdd5fe}.cls-5{fill:#ebeefe}.cls-6{fill:#9bacfc}.cls-11{fill:#ff623c}.cls-12{fill:#d94521}.cls-16{fill:#b17a13}.cls-17{fill:#925710}.cls-23{fill:#64230b}.cls-22{fill:rgba(255,212,29,.45)}.cls-23{stroke:transparent}.cls-30{fill:#707cb1}.cls-33{fill:#4f3037}.cls-34{fill:#381a22}.cls-35{fill:#601612}.cls-36{fill:#2b151a}.cls-37{fill:#bf9692}.cls-38{fill:#93666d}.cls-39{fill:#d7b2a7}.cls-41{fill:#6b464c}.cls-44{fill:#ffc134}.cls-45{fill:#ff5d02}.cls-46{fill:#ff7308}.cls-47{fill:#df9b39}.cls-48{fill:#fff3e0}.cls-49{fill:#ffffef}.cls-50{fill:#ce4504}.cls-52{fill:#392126}.cls-57{fill:#3b5974}
        </style>
    </defs>
    <g id="img_popup_helpcall" transform="translate(-4132.621 -7.386)">
        <path id="area" d="M0 0H216V178H0z" class="cls-2" transform="translate(4132.621 7.386)"/>
        <g id="그룹_42609" transform="translate(-10 17)">
            <path id="패스_31325" d="M4210.9 326.278l-16.12-9.267a1.729 1.729 0 0 0-1.723 0l-16.12 9.267a1.079 1.079 0 0 0-.547.944v2.1a1.079 1.079 0 0 0 .547.944l16.12 9.267a1.729 1.729 0 0 0 1.723 0l16.12-9.267a1.078 1.078 0 0 0 .547-.944v-2.1a1.078 1.078 0 0 0-.547-.944z" class="cls-3" transform="translate(-1.346 -245.793)"/>
            <path id="패스_31404" d="M4766.238 616.87l-53.557-30.79a5.748 5.748 0 0 0-5.726 0l-53.555 30.79a3.581 3.581 0 0 0-1.819 3.137V627a3.581 3.581 0 0 0 1.819 3.136l53.557 30.791a5.749 5.749 0 0 0 5.726 0l53.557-30.791a3.585 3.585 0 0 0 1.819-3.136v-6.987a3.585 3.585 0 0 0-1.821-3.143z" class="cls-3" transform="translate(-461.391 -500.299)"/>
            <g id="그룹_41943" transform="translate(4174.62 57.494)">
                <path id="패스_31326" d="M4207.114 277.647l-14.1-8.108a1.731 1.731 0 0 0-1.724 0l-14.1 8.108h-2.563v2.1a1.078 1.078 0 0 0 .547.944l16.119 9.267a1.731 1.731 0 0 0 1.724 0l16.119-9.267a1.08 1.08 0 0 0 .547-.944v-2.1z" class="cls-4" transform="translate(-4174.62 -267.206)"/>
                <path id="패스_31327" d="M4193.01 281.2l16.119-9.267a1.088 1.088 0 0 0 0-1.888l-16.119-9.267a1.732 1.732 0 0 0-1.724 0l-16.119 9.267a1.088 1.088 0 0 0 0 1.888l16.119 9.267a1.731 1.731 0 0 0 1.724 0z" class="cls-5" transform="translate(-4174.62 -260.545)"/>
                <path id="패스_31328" d="M4194.367 282.946a1.024 1.024 0 0 1-.51-.136l-16.12-9.267a.389.389 0 0 1 0-.674l16.12-9.267a1.024 1.024 0 0 1 1.019 0L4211 272.87a.388.388 0 0 1 0 .674l-16.12 9.267a1.021 1.021 0 0 1-.513.135z" class="cls-6" transform="translate(-4176.838 -262.766)"/>
            </g>
            <g id="그룹_41944" transform="translate(4182.759 50.248)">
                <path id="패스_31329" d="M4211.913 280.834c4.694-2.7 12.375-2.7 17.068 0s4.694 7.114 0 9.812-12.374 2.7-17.068 0-4.694-7.113 0-9.812z" transform="translate(-4208.392 -267.182)" style="mix-blend-mode:multiply;isolation:isolate" fill="url(#radial-gradient)"/>
                <path id="패스_31330" fill="url(#linear-gradient)" d="M4238.321 260.98h-1.046a6.8 6.8 0 0 0-1.683-1.323 14.736 14.736 0 0 0-13.234 0 6.816 6.816 0 0 0-1.684 1.323h-1.046v2.462c-.009 1.385.9 2.773 2.729 3.824a14.736 14.736 0 0 0 13.234 0c1.829-1.051 2.738-2.438 2.729-3.824z" transform="translate(-4216.92 -251.432)"/>
                <path id="패스_31331" fill="#fefeff" d="M4222.357 249.316a14.736 14.736 0 0 1 13.234 0c3.64 2.092 3.64 5.516 0 7.608a14.734 14.734 0 0 1-13.234 0c-3.639-2.092-3.639-5.516 0-7.608z" transform="translate(-4216.92 -243.572)"/>
                <path id="패스_31332" fill="#f90093" d="M4284.33 257.374v-2.138h-.726a6.332 6.332 0 0 0-2-1.717c-2.571-1.478-.845 4.167 0 7.608v2.48c1.783-1.025 2.69-2.369 2.727-3.719z" transform="translate(-4262.931 -247.777)"/>
                <path id="패스_31333" d="M4244.188 231.919a14.737 14.737 0 0 0-13.234 0l6.618 4.5z" class="cls-11" transform="translate(-4225.517 -230.35)"/>
                <path id="패스_31334" d="M4230.954 236.889v4.174l6.618 4.5v-4.175z" class="cls-12" transform="translate(-4225.516 -235.32)"/>
                <path id="패스_31335" d="M4258.412 241.389l6.617-4.5v4.174l-6.617 4.5z" class="cls-12" transform="translate(-4246.357 -235.32)"/>
                <path id="패스_31336" fill="#fa33a9" d="M4265.029 245.588c3.64 2.092 3.64 5.516 0 7.608l-6.617-3.108z" transform="translate(-4246.357 -241.931)"/>
                <path id="패스_31337" fill="#fa199e" d="M4258.412 264.34v2.087l6.617 3.108v-2.087z" transform="translate(-4246.357 -256.183)"/>
            </g>
            <g id="그룹_41947" transform="translate(4189.939 -6.614)">
                <path id="패스_31338" fill="#e0b119" d="M4299.332 143.9l40.8 23.454a22.467 22.467 0 0 1 11.291 19.472V232.4a11.328 11.328 0 0 1-5.692 9.817l-46.776 26.89a8.245 8.245 0 0 1-8.278-.037l-3.643-2.139s-9.367-5.223-16.354-9.239l-21.261-12.357a22.04 22.04 0 0 1-10.985-18.928l-.247-43.966v-5.576a5.221 5.221 0 0 1 2.625-4.526l49.466-28.436a9.088 9.088 0 0 1 9.054-.003z" transform="translate(-4238.187 -106.868)"/>
                <path id="패스_31339" d="M4238.188 270.738v49.232a23.242 23.242 0 0 0 11.68 20.143l41.611 23.776a6.111 6.111 0 0 0 9.167-5.27V313.6a23.242 23.242 0 0 0-11.679-20.143l-45.277-25.884a3.667 3.667 0 0 0-5.502 3.165z" class="cls-16" transform="translate(-4238.187 -201.405)"/>
                <path id="패스_31340" d="M4297.96 367.069a5.031 5.031 0 0 0 5.03-5.007v-45.018a22.218 22.218 0 0 0-11.134-19.2l-45.274-25.882a2.547 2.547 0 0 0-1.284-.35 2.582 2.582 0 0 0-2.582 2.57v49.232a22.218 22.218 0 0 0 11.134 19.2l41.608 23.775a4.964 4.964 0 0 0 2.502.68z" class="cls-17" transform="translate(-4241.625 -204.847)"/>
                <path id="패스_31341" fill="#64230b" d="M4514.088 434.043a3.659 3.659 0 0 1-3.658-3.642V406.96a16.162 16.162 0 0 1 8.1-13.968l32.934-18.828a1.851 1.851 0 0 1 .934-.255 1.878 1.878 0 0 1 1.878 1.87v26.507a16.162 16.162 0 0 1-8.1 13.968l-30.267 17.295a3.612 3.612 0 0 1-1.821.494z" transform="translate(-4444.822 -282.598)"/>
                <path id="패스_31342" fill="#84461f" d="M4512.462 479.171a16.011 16.011 0 0 0-1.448 6.628v23.441c0 3.472 1.191 3.643 3.659 3.643a3.613 3.613 0 0 0 1.821-.495l30.268-17.295a16.159 16.159 0 0 0 6.067-6.176 16.165 16.165 0 0 1-6.652 7.339l-30.267 17.295a3.612 3.612 0 0 1-1.821.494 3.659 3.659 0 0 1-3.658-3.642v-23.44a16.057 16.057 0 0 1 2.031-7.792z" transform="translate(-4444.822 -362.601)"/>
                <g id="그룹_41962" opacity="0.5" transform="translate(6.578 80.443)">
                    <path id="패스_31346" d="M4301.108 340.07l18.988 10.987v1.833l-18.988-10.9z" class="cls-21" transform="translate(-4291.511 -340.07)"/>
                    <path id="패스_31347" d="M4297.742 433.5l18.988 10.987v1.833l-18.988-10.9z" class="cls-21" transform="translate(-4289.011 -409.486)"/>
                    <path id="패스_31364" d="M4281.43 360.451l12.149 6.967v1.833l-12.149-6.882z" class="cls-21" transform="translate(-4276.892 -355.212)"/>
                    <path id="패스_31366" d="M4263.773 382.315l3.68 2.115v1.833l-3.68-2.029z" class="cls-21" transform="translate(-4263.773 -371.456)"/>
                    <path id="패스_31367" d="M4307.337 422.447l3.68 2.115v1.838l-3.68-2.029z" class="cls-21" transform="translate(-4296.139 -401.271)"/>
                    <path id="패스_31368" d="M4348.042 540.318l3.681 2.115v1.833l-3.681-2.029z" class="cls-21" transform="translate(-4326.381 -488.843)"/>
                    <path id="패스_31369" d="M4312.8 489.107l3.681 2.115v1.833l-3.681-2.029z" class="cls-21" transform="translate(-4300.202 -450.796)"/>
                    <path id="패스_31375" d="M4269.921 449.194l5.059 2.921v1.833l-5.059-2.835z" class="cls-21" transform="translate(-4268.341 -421.143)"/>
                    <path id="패스_31376" d="M4279.76 518.117l5.059 2.921v1.833l-5.059-2.835z" class="cls-21" transform="translate(-4275.65 -472.348)"/>
                </g>
                <g id="그룹_41961" transform="translate(5.199 70.428)">
                    <path id="패스_31343" d="M4258.412 299.92l5.059 2.921v1.833l-5.059-2.835z" class="cls-22" transform="translate(-4258.412 -299.92)"/>
                    <path id="패스_31348" d="M4293.779 335.965l1.261.775v1.833l-1.261-.69z" class="cls-22" transform="translate(-4284.688 -326.699)"/>
                    <path id="패스_31349" d="M4343.741 380.974l1.261.775v1.833l-1.261-.69z" class="cls-22" transform="translate(-4321.807 -360.138)"/>
                    <path id="패스_31350" d="M4317.51 412.3l1.262.775v1.833l-1.262-.69z" class="cls-22" transform="translate(-4302.319 -383.412)"/>
                    <path id="패스_31351" d="M4325.294 416.589l1.262.775v1.836l-1.262-.69z" class="cls-22" transform="translate(-4308.102 -386.598)"/>
                    <path id="패스_31352" d="M4289.784 539.93l1.261.775v1.833l-1.261-.69z" class="cls-22" transform="translate(-4281.72 -478.233)"/>
                    <path id="패스_31353" d="M4297.568 544.219l1.261.775v1.833l-1.261-.69z" class="cls-22" transform="translate(-4287.503 -481.42)"/>
                    <path id="패스_31361" d="M4317.789 507.79l1.261.775v1.835l-1.261-.69z" class="cls-22" transform="translate(-4302.526 -454.355)"/>
                    <path id="패스_31363" d="M4258.412 347.476l5.059 2.921v1.833l-5.059-2.835z" class="cls-22" transform="translate(-4258.412 -335.251)"/>
                    <path id="패스_31365" d="M4271.15 370.594l5.059 2.92v1.833l-5.059-2.835z" class="cls-22" transform="translate(-4267.876 -352.426)"/>
                    <path id="패스_31373" d="M4328.691 465.99l5.059 2.921v1.833l-5.059-2.835z" class="cls-22" transform="translate(-4310.625 -423.3)"/>
                    <path id="패스_31377" d="M4268.25 464.243l10.589 6.075v1.833l-10.589-5.99z" class="cls-22" transform="translate(-4265.722 -422.002)"/>
                    <path id="패스_31381" d="M4258.412 506l5.059 2.92v1.833l-5.059-2.835z" class="cls-22" transform="translate(-4258.412 -453.023)"/>
                </g>
                <g id="그룹_41960" transform="translate(5.199 70.943)">
                    <path id="패스_31344" d="M4283.94 314.639l5.06 2.921v1.833l-5.059-2.835z" class="cls-23" transform="translate(-4277.378 -314.639)"/>
                    <path id="패스_31345" d="M4270.112 322.378l5.059 2.921v1.833l-5.059-2.835z" class="cls-23" transform="translate(-4267.104 -320.388)"/>
                    <path id="패스_31354" d="M4270.112 338.23l8.613 5.05v1.833l-8.613-4.964z" class="cls-23" transform="translate(-4267.104 -332.165)"/>
                    <path id="패스_31355" d="M4280.989 391.862l8.613 5.05v1.833l-8.613-4.964z" class="cls-23" transform="translate(-4275.186 -372.011)"/>
                    <path id="패스_31356" d="M4326.988 433.523l8.613 5.05v1.833l-8.613-4.964z" class="cls-23" transform="translate(-4309.361 -402.963)"/>
                    <path id="패스_31357" d="M4301.036 530.311l8.613 5.05v1.833l-8.613-4.964z" class="cls-23" transform="translate(-4290.079 -474.871)"/>
                    <path id="패스_31358" d="M4293.779 383.238l16.2 9.483v1.833l-16.2-9.4z" class="cls-23" transform="translate(-4284.688 -365.604)"/>
                    <path id="패스_31359" d="M4292.17 461.364l16.2 9.483v1.833l-16.2-9.4z" class="cls-23" transform="translate(-4283.493 -423.647)"/>
                    <path id="패스_31360" d="M4307.931 360.451l8.613 5.05v1.833l-8.613-4.964z" class="cls-23" transform="translate(-4295.202 -348.675)"/>
                    <path id="패스_31362" d="M4281.979 487.267l8.613 5.05v1.833l-8.613-4.964z" class="cls-23" transform="translate(-4275.921 -442.892)"/>
                    <path id="패스_31370" d="M4258.412 395.032l10.976 6.131V403l-10.976-6.045z" class="cls-23" transform="translate(-4258.412 -374.367)"/>
                    <path id="패스_31371" d="M4280.989 439.534l10.976 6.131v1.835l-10.976-6.045z" class="cls-23" transform="translate(-4275.186 -407.429)"/>
                    <path id="패스_31372" d="M4374.974 478.065l10.976 6.131v1.833l-10.976-6.045z" class="cls-23" transform="translate(-4345.011 -436.055)"/>
                    <path id="패스_31374" d="M4258.412 426.736l5.059 2.92v1.833l-5.059-2.835z" class="cls-23" transform="translate(-4258.412 -397.921)"/>
                    <path id="패스_31378" d="M4258.412 474.292l5.059 2.92v1.833l-5.059-2.835z" class="cls-23" transform="translate(-4258.412 -433.252)"/>
                    <path id="패스_31379" d="M4276.245 500.292l16.755 9.325v1.833l-16.758-9.24z" class="cls-23" transform="translate(-4271.661 -452.568)"/>
                    <path id="패스_31380" d="M4305.934 549.292l16.758 9.325v1.833l-16.758-9.24z" class="cls-23" transform="translate(-4293.719 -488.973)"/>
                    <path id="패스_31382" d="M4268.25 527.363l4.913 2.9v1.837l-4.913-2.814z" class="cls-23" transform="translate(-4265.722 -472.681)"/>
                </g>
                <g id="그룹_41946" transform="translate(25.111)">
                    <ellipse id="타원_1081" cx="14.017" cy="8.058" class="cls-16" rx="14.017" ry="8.058" transform="translate(18.76 59.895)"/>
                    <path id="패스_31383" fill="#73340c" d="M4424.392 246.2c5.452-3.134 14.372-3.134 19.823 0 2.546 1.464 3.9 3.363 4.071 5.29.191-2.2-1.165-4.435-4.071-6.106-5.451-3.134-14.371-3.134-19.823 0-2.9 1.67-4.261 3.907-4.07 6.106.168-1.932 1.524-3.831 4.07-5.29z" transform="translate(-4401.527 -183.125)"/>
                    <g id="그룹_41945">
                        <path id="패스_31384" d="M4435.219 247.016c-1.377-1.921-1.682-4.44-1.682-6.851v-4.153h21.883v3.729a11.182 11.182 0 0 1-2.236 7.207c-1.322 1.673-16.362 2.303-17.965.068z" class="cls-17" transform="translate(-4411.57 -177.791)"/>
                        <path id="패스_31385" fill="#efc11b" d="M4435.219 247.016c-1.377-1.921-1.682-4.44-1.682-6.851v-4.153h21.883v3.729a14.3 14.3 0 0 1-2.155 7.426c-.108.174-16.443 2.084-18.046-.151z" transform="translate(-4411.57 -177.791)"/>
                        <path id="패스_31386" fill="#2842a2" d="M4452.173 211.76a17.2 17.2 0 0 0-15.45 0c-4.249 2.443-4.249 6.439 0 8.882a17.2 17.2 0 0 0 15.45 0c4.249-2.442 4.249-6.442 0-8.882z" transform="translate(-4411.57 -157.966)"/>
                        <path id="패스_31387" fill="#ff623c" d="M4415.944 65.655a19.9 19.9 0 0 0-10.937 36.588v4.5c.062 1.548 1.214 3.113 3.256 4.287 4.213 2.422 11.187 2.393 15.4-.029 2.042-1.174 3.085-2.71 3.147-4.258h.07v-4.5a19.9 19.9 0 0 0-10.937-36.587z" opacity="0.9" transform="translate(-4383.033 -48.313)"/>
                        <path id="패스_31388" d="M4417.706 98.876a13.053 13.053 0 0 1 13.081-13.026c6.688 0 6.171-5.553-2.354-5.553A15.4 15.4 0 0 0 4413 95.668c0 5.385 4.706 7.772 4.706 3.208z" class="cls-21" transform="translate(-4395.979 -59.442)"/>
                        <path id="패스_31389" d="M4452.224 248.408c-4.213 2.422-11.187 2.451-15.4.029-2.042-1.174-3.194-2.739-3.257-4.286v1.492c.063 1.547 1.215 3.113 3.257 4.287 4.213 2.422 11.186 2.393 15.4-.029 2.042-1.174 3.085-2.711 3.147-4.258h.071v-1.493h-.071c-.062 1.55-1.105 3.084-3.147 4.258z" class="cls-17" transform="translate(-4411.593 -183.976)"/>
                        <path id="패스_31390" d="M4453.244 271.387c-4.279 2.46-11.362 2.489-15.642.029a7.447 7.447 0 0 1-2.67-2.432 14.984 14.984 0 0 0 1.125 2.833 9.033 9.033 0 0 0 1.545 1.115c4.279 2.46 11.362 2.431 15.642-.029a8.848 8.848 0 0 0 1.28-.891 15.06 15.06 0 0 0 1.356-3.1 6.928 6.928 0 0 1-2.636 2.475z" class="cls-17" transform="translate(-4412.629 -202.799)"/>
                        <path id="패스_31391" d="M4375.227 9.076h-.008a1.627 1.627 0 0 1-1.623-1.631L4373.657-5a1.627 1.627 0 0 1 1.63-1.615h.008a1.628 1.628 0 0 1 1.623 1.631l-.061 12.444a1.627 1.627 0 0 1-1.63 1.616zm13.356 2.359L4394.9.695a1.622 1.622 0 0 0-.584-2.221 1.635 1.635 0 0 0-2.23.582L4385.768 9.8a1.629 1.629 0 0 0 2.815 1.639zm8.149 9.289l10.866-6.147a1.625 1.625 0 1 0-1.611-2.823l-10.866 6.146a1.623 1.623 0 0 0 .807 3.035 1.636 1.636 0 0 0 .804-.211zm-40.589-.738a1.62 1.62 0 0 0-.562-2.226l-10.726-6.388a1.626 1.626 0 1 0-1.675 2.787l10.726 6.388a1.637 1.637 0 0 0 2.237-.56zm8.209-8.043a1.619 1.619 0 0 0 .633-2.207l-6.07-10.879a1.634 1.634 0 0 0-2.216-.63 1.618 1.618 0 0 0-.634 2.207l6.07 10.879a1.634 1.634 0 0 0 2.216.63z" class="cls-11" transform="translate(-4342.386 6.614)"/>
                    </g>
                </g>
            </g>
            <path id="패스_31392" fill="#02187c" d="M4567.623 526.924l-16.12-9.267a1.729 1.729 0 0 0-1.723 0l-16.12 9.267a1.079 1.079 0 0 0-.547.944v2.1a1.079 1.079 0 0 0 .547.944l14.58 8.382 19.928-11.456a1.077 1.077 0 0 0-.545-.914z" opacity="0.3" transform="translate(-272.098 -398.292)"/>
            <path id="패스_31393" d="M4686.087 594.814l-16.119-9.267a1.731 1.731 0 0 0-1.724 0l-16.119 9.267a1.078 1.078 0 0 0-.547.944v2.1a1.078 1.078 0 0 0 .547.944l16.119 9.267a1.731 1.731 0 0 0 1.724 0l16.119-9.267a1.08 1.08 0 0 0 .548-.944v-2.1a1.08 1.08 0 0 0-.548-.944z" class="cls-3" transform="translate(-362.016 -449.891)"/>
            <g id="그룹_41948" transform="translate(4261.015 106.557)">
                <path id="패스_31394" d="M4565.606 482.111L4551.5 474a1.73 1.73 0 0 0-1.723 0l-14.1 8.108h-2.563v2.1a1.079 1.079 0 0 0 .547.944l16.12 9.267a1.73 1.73 0 0 0 1.723 0l16.12-9.267a1.078 1.078 0 0 0 .547-.944v-2.1z" class="cls-4" transform="translate(-4533.113 -471.67)"/>
                <path id="패스_31395" d="M4551.5 485.661l16.12-9.267a1.088 1.088 0 0 0 0-1.888l-16.12-9.267a1.729 1.729 0 0 0-1.723 0l-16.119 9.267a1.087 1.087 0 0 0 0 1.888l16.119 9.267a1.729 1.729 0 0 0 1.723 0z" class="cls-5" transform="translate(-4533.113 -465.009)"/>
                <path id="패스_31396" d="M4552.859 487.411a1.025 1.025 0 0 1-.51-.136l-16.119-9.267a.388.388 0 0 1 0-.674l16.119-9.267a1.023 1.023 0 0 1 1.019 0l16.12 9.267a.388.388 0 0 1 0 .674l-16.12 9.267a1.019 1.019 0 0 1-.509.136z" class="cls-6" transform="translate(-4535.331 -467.231)"/>
            </g>
            <g id="그룹_41949" transform="translate(4289.563 122.848)">
                <path id="패스_31397" d="M4684.072 550l-14.1-8.108a1.731 1.731 0 0 0-1.724 0l-14.1 8.108h-2.563v2.1a1.078 1.078 0 0 0 .547.944l16.119 9.267a1.731 1.731 0 0 0 1.724 0l16.119-9.267a1.08 1.08 0 0 0 .548-.944V550z" class="cls-4" transform="translate(-4651.578 -539.561)"/>
                <path id="패스_31398" d="M4669.968 553.551l16.119-9.267a1.088 1.088 0 0 0 0-1.888l-16.119-9.267a1.731 1.731 0 0 0-1.724 0l-16.119 9.267a1.088 1.088 0 0 0 0 1.888l16.119 9.267a1.731 1.731 0 0 0 1.724 0z" class="cls-5" transform="translate(-4651.578 -532.899)"/>
                <path id="패스_31399" d="M4671.325 555.3a1.022 1.022 0 0 1-.51-.136l-16.12-9.267a.389.389 0 0 1 0-.674l16.12-9.267a1.024 1.024 0 0 1 1.019 0l16.12 9.267a.388.388 0 0 1 0 .674l-16.12 9.267a1.021 1.021 0 0 1-.509.136z" class="cls-6" transform="translate(-4653.796 -535.121)"/>
            </g>
            <g id="그룹_41952" transform="translate(4295.83 119.71)">
                <path id="패스_31400" d="M4564.042 475.589a13.358 13.358 0 0 1 15.345 0c4.22 3.231 4.22 8.517 0 11.748a13.358 13.358 0 0 1-15.345 0c-4.219-3.23-4.219-8.517 0-11.748z" transform="translate(-4560.878 -465.691)" style="mix-blend-mode:multiply;isolation:isolate" fill="url(#radial-gradient-2)"/>
                <g id="그룹_41951" transform="translate(1.452)">
                    <path id="패스_31401" d="M4585.977 454.638c0-.237-.336-.429-.75-.429h-1.6c-.265 0-.7.278-.77.194-.11-.138-.07-.3.117-.407l1.132-.649c.292-.168-1.568-.09-1.861-.257l.016-1.406a1.18 1.18 0 0 0-1.061 0l-1.14.653a.981.981 0 0 1-.683.075c-.163-.04-.338-.08-.49-.114-.237-.053-.392-.184-.392-.33v-.926c0-.237-.335-.43-.75-.43h-2.608c-.414 0-.75.192-.75.43v.917c0 .152-.17.281-.417.335-.158.034-.312.071-.464.111a1 1 0 0 1-.711-.066l-1.136-.647a1.18 1.18 0 0 0-1.06 0l-.135 1.529c-.291.168-1.995-.029-1.7.138l1.145.652c.18.1.231.257.132.391-.068.093-.518-.182-.772-.182h-1.617c-.414 0-.749.193-.748.43l.007 2.182c0 .237.337.429.751.428h.938l-.022 1.8a.261.261 0 0 0 0 .093.391.391 0 0 0 .213.261l1.848 1.054a1.136 1.136 0 0 0 .657.111l.012.007v-.008a1.006 1.006 0 0 0 .39-.111l1.139-.655a.981.981 0 0 1 .682-.076c.163.04.339.08.49.114.238.053.393.184.394.33v.926c0 .237.337.429.751.429h2.608c.414 0 .749-.193.748-.43v-.917c0-.152.17-.282.418-.336q.224-.049.442-.106a1 1 0 0 1 .711.067l1.133.648a1.02 1.02 0 0 0 .389.11v.013l.02-.01a1.135 1.135 0 0 0 .651-.113l1.842-1.058a.4.4 0 0 0 .21-.248h.008v-.042-.019l-.023-1.843h.922c.414 0 .749-.193.749-.43zm-5.9 1.821c-.434 1.321-2.822 2.067-4.969 1.593-1.631-.36-2.625-1.371-2.3-2.355.434-1.321 2.822-2.067 4.969-1.593 1.63.359 2.623 1.371 2.301 2.355z" class="cls-30" transform="translate(-4566.903 -448.551)"/>
                    <path id="패스_31402" d="M4589.5 449.25l-.008-1.172h-1.692l-.376-.215a1.179 1.179 0 0 0-1.06 0l-.375.215h-2.33v-.856c0-.238-.335-.43-.75-.43h-2.608c-.414 0-.749.192-.749.43v.856h-2.368l-.361-.206a1.18 1.18 0 0 0-1.06 0l-.354.2h-1.7v1.146a.359.359 0 0 0 .219.317l1.144.652 13.066-.017 1.131-.649a.385.385 0 0 0 .215-.277z" class="cls-30" transform="translate(-4572.072 -445.647)"/>
                    <g id="그룹_41950">
                        <path id="패스_31403" d="M4583.186 448.653h2.045c.414 0 .749-.192.749-.43v-1.494c0-.237-.336-.429-.75-.429h-1.6a.707.707 0 0 1-.586-.24c-.056-.086-.118-.17-.184-.253-.11-.138-.07-.3.117-.408l1.132-.649a.32.32 0 0 0 0-.608l-1.845-1.056a1.18 1.18 0 0 0-1.061 0l-1.14.654a.981.981 0 0 1-.683.075c-.163-.04-.338-.08-.49-.114-.237-.053-.392-.184-.392-.33v-.926c0-.237-.335-.43-.75-.43h-2.608c-.414 0-.75.192-.75.43v.917c0 .151-.17.282-.417.335-.158.034-.312.071-.464.111a1 1 0 0 1-.711-.066l-1.136-.647a1.179 1.179 0 0 0-1.06 0l-1.839 1.06a.32.32 0 0 0 0 .607l1.145.652c.18.1.231.257.132.391-.068.093-.139.194-.2.281a.709.709 0 0 1-.575.225h-1.617c-.414 0-.749.193-.748.431l.007 1.494c0 .237.337.429.751.429h1.6a.712.712 0 0 1 .587.239q.084.129.185.253c.11.138.071.3-.116.408l-1.13.65a.32.32 0 0 0 0 .607l1.848 1.054a1.179 1.179 0 0 0 1.06 0l1.139-.655a.979.979 0 0 1 .682-.076c.163.04.339.08.49.113.238.053.393.184.394.329v.926c0 .237.337.429.751.429h2.608c.414 0 .749-.193.748-.43v-.917c0-.152.17-.282.418-.336q.224-.048.442-.105a1.006 1.006 0 0 1 .711.067l1.133.648a1.179 1.179 0 0 0 1.06 0l1.842-1.058a.32.32 0 0 0 0-.607l-1.142-.653c-.18-.1-.231-.257-.131-.391.169-.225.34-.491.349-.507zm-10.378-1.555c.434-1.321 2.822-2.067 4.969-1.593 1.631.36 2.625 1.371 2.3 2.355-.434 1.321-2.822 2.067-4.969 1.593-1.631-.359-2.624-1.37-2.301-2.353z" class="cls-21" transform="translate(-4566.903 -442.016)"/>
                    </g>
                </g>
            </g>
            <g id="img_inuse" transform="translate(4257.915 94.667)">
                <path id="area-2" d="M0 0H41V34H0z" class="cls-2"/>
                <g id="마스크_그룹_96" clip-path="url(#clip-path)">
                    <g id="그룹_40604" transform="translate(2.089 3.06)">
                        <path id="패스_118" d="M786.349 283.339l-1.593.2-7.488 4.323 8.1 4.678 8.006 2.967-.156.052-.58-.081-1.327.442.154.154.783.11 1.54-.513 5.268 2.77.283.052-.021.012.406.235 1.568.288.288.166 1.38.194 9.545-5.511-.255-.147z" opacity="0.239" transform="translate(-777.269 -269.828)"/>
                        <g id="img_car" transform="translate(1.25)">
                            <path id="패스_1" d="M23.034 134.728l.938-.938v-.9l-1.088.857-.146.621z" class="cls-33" transform="translate(3.943 -120.619)"/>
                            <path id="패스_2" d="M29.81 139.2v-.843l-.319.067v.762z" class="cls-34" transform="translate(-2.811 -125.351)"/>
                            <path id="패스_4" d="M205.7 156.272l-.339-1.981 1.782.249-1.133 1.553z" class="cls-35" transform="translate(-203.988 -139.124)"/>
                            <g id="그룹_1" transform="translate(2.009 15.172)">
                                <path id="패스_5" d="M184.925 154.435a1.131 1.131 0 0 1 1.143.111 3.562 3.562 0 0 1 1.612 2.792 1.132 1.132 0 0 1-.473 1.044l-.86.5a1.128 1.128 0 0 1-1.145-.11 3.562 3.562 0 0 1-1.612-2.792 1.131 1.131 0 0 1 .476-1.045z" class="cls-36" transform="translate(-183.59 -154.326)"/>
                                <path id="패스_6" d="M189.984 159.167a3.563 3.563 0 0 0 1.612 2.792c.89.514 1.612.1 1.612-.931a3.563 3.563 0 0 0-1.612-2.792c-.89-.513-1.612-.097-1.612.931z" class="cls-34" transform="translate(-189.984 -157.517)"/>
                                <path id="패스_7" d="M196.17 164.971a1.978 1.978 0 0 1 .9 1.551c0 .571-.4.8-.9.517a1.98 1.98 0 0 1-.9-1.551c.005-.572.406-.803.9-.517z" class="cls-37" transform="translate(-194.558 -163.423)"/>
                                <path id="패스_8" d="M196.311 167.338a1.867 1.867 0 0 1-.844-1.463.645.645 0 0 1 .182-.5.645.645 0 0 1 .523.092 1.867 1.867 0 0 1 .845 1.463.413.413 0 0 1-.7.406z" class="cls-38" transform="translate(-194.56 -163.863)"/>
                                <path id="패스_9" d="M197.806 168.511a.335.335 0 0 1 .291.045 1 1 0 0 1 .451.782.317.317 0 0 1-.131.291c-.024.014-.128.076-.158.091a.327.327 0 0 1-.3-.04 1 1 0 0 1-.451-.782.316.316 0 0 1 .133-.292c.021-.014.13-.081.165-.095z" class="cls-37" transform="translate(-196.345 -166.577)"/>
                                <path id="패스_10" d="M198.549 169.4a1 1 0 0 0 .451.782c.249.144.451.027.451-.261a1 1 0 0 0-.451-.782c-.249-.139-.451-.023-.451.261z" class="cls-39" transform="translate(-197.388 -167.083)"/>
                                <path id="패스_11" d="M194.579 164.667a2.185 2.185 0 0 0 .989 1.712c.546.315.989.06.989-.571a2.185 2.185 0 0 0-.989-1.712c-.547-.315-.989-.059-.989.571zm.989-.4a1.867 1.867 0 0 1 .845 1.463c0 .539-.378.757-.845.488a1.866 1.866 0 0 1-.844-1.463c0-.539.378-.757.844-.488z" class="cls-39" transform="translate(-193.955 -162.656)"/>
                            </g>
                            <path id="패스_12" d="M106.016 214.452l-.348-1.966 1.666.242-1.009 1.545z" class="cls-35" transform="translate(-90.664 -189.436)"/>
                            <g id="그룹_2" transform="translate(14.969 22.978)">
                                <path id="패스_13" d="M84.454 212.441a1.13 1.13 0 0 1 1.143.111 3.563 3.563 0 0 1 1.612 2.792 1.132 1.132 0 0 1-.473 1.044l-.859.5a1.128 1.128 0 0 1-1.145-.11 3.563 3.563 0 0 1-1.612-2.792 1.13 1.13 0 0 1 .476-1.045z" class="cls-36" transform="translate(-82.452 -212.28)"/>
                                <ellipse id="타원_1" cx="2.28" cy="1.316" class="cls-34" rx="2.28" ry="1.316" transform="rotate(-120 2.66 1.974)"/>
                                <path id="패스_14" d="M95.7 222.975a1.978 1.978 0 0 1 .9 1.551c0 .571-.4.8-.9.517a1.98 1.98 0 0 1-.9-1.551c0-.571.406-.802.9-.517z" class="cls-37" transform="translate(-93.421 -221.377)"/>
                                <path id="패스_15" d="M95.841 225.344a1.868 1.868 0 0 1-.841-1.463.646.646 0 0 1 .182-.5.645.645 0 0 1 .523.092 1.867 1.867 0 0 1 .845 1.463.413.413 0 0 1-.7.406z" class="cls-38" transform="translate(-93.422 -221.817)"/>
                                <path id="패스_16" d="M97.335 226.517a.335.335 0 0 1 .291.045 1 1 0 0 1 .451.782.316.316 0 0 1-.131.291c-.024.014-.128.077-.158.091a.328.328 0 0 1-.3-.04 1 1 0 0 1-.451-.782.316.316 0 0 1 .133-.292c.021-.012.13-.08.165-.095z" class="cls-37" transform="translate(-95.207 -224.532)"/>
                                <path id="패스_17" d="M98.077 227.409a1 1 0 0 0 .451.782c.249.144.451.027.451-.261a1 1 0 0 0-.451-.782c-.249-.148-.451-.027-.451.261z" class="cls-39" transform="translate(-96.249 -225.037)"/>
                                <path id="패스_18" d="M94.108 222.673a2.186 2.186 0 0 0 .989 1.712c.546.315.989.06.989-.571a2.185 2.185 0 0 0-.986-1.714c-.549-.313-.992-.058-.992.573zm.989-.4a1.866 1.866 0 0 1 .845 1.463c0 .539-.378.757-.845.488a1.867 1.867 0 0 1-.844-1.463c0-.539.378-.757.844-.488z" class="cls-39" transform="translate(-92.817 -220.611)"/>
                            </g>
                            <path id="패스_19" fill="url(#linear-gradient-2)" d="M67.673 133.5l9.829 5.678a2.975 2.975 0 0 1-.025-.328c0-1.222.858-1.718 1.917-1.107a4.237 4.237 0 0 1 1.917 3.32 2.42 2.42 0 0 1-.017.3l2.6 1.468.743-1.545-.749-2.938-5.646-4.827-15.494-8.105v5.235l1.131.655a2.873 2.873 0 0 1-.019-.322c0-1.222.858-1.718 1.917-1.107a4.237 4.237 0 0 1 1.917 3.32 2.305 2.305 0 0 1-.021.303z" transform="translate(-62.169 -114.161)"/>
                            <path id="패스_20" d="M29.686 144.3l.161-.161-.356-.07z" class="cls-38" transform="translate(-2.847 -130.283)"/>
                            <path id="패스_21" d="M23.057 133.123l.915-.915-.319-.106-.915.915z" class="cls-38" transform="translate(3.943 -119.941)"/>
                            <path id="패스_22" d="M29.865 143.905l-.319-.106-.054.054z" class="cls-41" transform="translate(-2.865 -130.053)"/>
                            <path id="패스_23" fill="#cc8b2d" d="M125.284 94.343l-2.6-11.291-9.716-3.942-3.209 6.272z" transform="translate(-109.186 -74.125)"/>
                            <path id="패스_24" fill="#ffc855" d="M21.6 83.155l3.705 12.515 11.941-4.07L31.4 81.056a.952.952 0 0 0-.686-.412" transform="translate(-9.182 -75.453)"/>
                            <path id="패스_25" d="M65.579 239.237l.364-1.749-2.2-.9v1.592z" class="cls-34" transform="translate(-43.589 -210.27)"/>
                            <path id="패스_26" d="M-6.322 197.421v-1.592l-11.4 6.425V204z" class="cls-33" transform="translate(39.722 -175.034)"/>
                            <path id="패스_27" d="M-5.979 194.186l-.446-.257-10.9 6.5-.165-.074-.233.209.343.2z" class="cls-38" transform="translate(39.379 -173.392)"/>
                            <path id="패스_28" d="M-13.459 180.966l.333 3.113 10.765-6.216-.3-2.851z" class="cls-44" transform="translate(35.185 -157.038)"/>
                            <path id="패스_29" d="M66.343 235.24l-.316.182 1.493.862.273-.158.125.023z" class="cls-41" transform="translate(-45.873 -209.108)"/>
                            <path id="패스_30" d="M-15.371 180.489l-.485.071.366 1.842.3-.176z" class="cls-45" transform="translate(48.333 -161.773)"/>
                            <path id="패스_31" d="M-14.362 179.061l-.122.07.089.157.4-.229-.388-.224z" class="cls-46" transform="translate(46.961 -160.344)"/>
                            <path id="패스_32" d="M8.933 188.778l-6.389 3.689.345 1.645 5.738-3.312z" class="cls-33" transform="translate(21.723 -168.938)"/>
                            <path id="패스_33" d="M48.725 231.337l.091.685 2.34-1.351.015-.07z" class="cls-47" transform="translate(-26.781 -205.097)"/>
                            <path id="패스_34" d="M49.5 216.785l-2.493 1.231.366 1.842 2.312-1.335z" class="cls-48" transform="translate(-25.067 -193.152)"/>
                            <path id="패스_35" d="M50.692 216.013l-2.312 1.335.086.159 2.407-1.389z" class="cls-49" transform="translate(-26.436 -192.485)"/>
                            <path id="패스_36" d="M68.175 225.266l-.3-.176-.183.105z" class="cls-50" transform="translate(-46.355 -200.332)"/>
                            <path id="패스_37" d="M64.085 226.671l.441 1.884.3-.176-.185-1.737z" class="cls-45" transform="translate(-42.521 -201.675)"/>
                            <path id="패스_38" fill="#9d3501" d="M66.331 227.5l.671.387L66.8 226l-.47-.133z" transform="translate(-44.998 -201.007)"/>
                            <path id="패스_39" d="M65.453 225.776l.485.28.3-.176-.181-.1-.122.07-.462-.085z" class="cls-46" transform="translate(-44.119 -200.913)"/>
                            <path id="패스_40" d="M-13.37 194.991l.027.255 2.528-1.459-.024-.222z" class="cls-47" transform="translate(43.627 -173.078)"/>
                            <path id="패스_41" d="M2.969 192.43l-.512-1.562-.066.309.158 1.482z" class="cls-52" transform="translate(27.708 -170.746)"/>
                            <path id="패스_42" d="M-10.93 183.524l-.185-1.737-2.493 1.231.366 1.842z" class="cls-48" transform="translate(43.774 -162.895)"/>
                            <path id="패스_43" d="M3.83 192.609l-.2-1.858-.168.016.185 1.737z" class="cls-39" transform="translate(26.701 -170.645)"/>
                            <path id="패스_44" d="M-12.241 182.348l.181.1 2.312-1.335-.181-.1z" class="cls-49" transform="translate(42.406 -162.226)"/>
                            <path id="패스_45" d="M217.655 154.152l.169 1.81.316-.182v-1.592z" class="cls-52" transform="translate(-216.655 -139.004)"/>
                            <path id="패스_46" d="M219.983 152.367l1.169.675v-1.734l-1.169-.533z" class="cls-34" transform="translate(-219.983 -136.084)"/>
                            <path id="패스_47" d="M218.825 150.671l.316-.182-.6-.349-.669-.266-.211.122z" class="cls-41" transform="translate(-217.655 -135.305)"/>
                            <path id="패스_48" fill="#7f2000" d="M222.116 141.567l.487.281.183-1.511-.669-.176z" transform="translate(-221.904 -126.908)"/>
                            <path id="패스_49" fill="#ce3801" d="M222.3 142.867v-1.405h-.183v1.511z" transform="translate(-221.418 -128.033)"/>
                            <path id="패스_50" d="M222.786 138.994l-.3-.176v-.21l-.366.211.487.281z" class="cls-50" transform="translate(-221.905 -125.565)"/>
                            <path id="패스_51" fill="#ffd752" d="M74.5 42.426L66.236 47.2a.192.192 0 0 0 0 .333l9 5.2a.768.768 0 0 0 .768 0l8.269-4.774a.192.192 0 0 0 0-.332l-9-5.2a.768.768 0 0 0-.773-.001z" transform="translate(-62.365 -42.323)"/>
                            <path id="패스_52" fill="#7fabcc" d="M48 97.2l-8.114 4.684a1.044 1.044 0 0 1-1.522-.607L36.356 94.5a1.043 1.043 0 0 1 .479-1.2l6.822-3.938a1.043 1.043 0 0 1 1.437.4L48.4 95.8a1.043 1.043 0 0 1-.4 1.4z" transform="translate(-22.455 -82.865)"/>
                            <path id="패스_53" d="M120.506 118.776l-4.48-2.586a1.33 1.33 0 0 1-.662-1.07l-.374-6.067a.384.384 0 0 1 .575-.356l2.731 1.577a1.329 1.329 0 0 1 .61.773l2.16 7.287a.384.384 0 0 1-.56.442z" class="cls-57" transform="translate(-105.68 -99.661)"/>
                            <path id="패스_54" d="M162.288 91.621l2.5 1.445a.985.985 0 0 1 .49.792l.385 6.252a.384.384 0 0 1-.575.356l-4.246-2.452a.985.985 0 0 1-.46-1.1l1.339-5.055a.384.384 0 0 1 .567-.238z" class="cls-57" transform="translate(-156.422 -84.899)"/>
                            <path id="패스_55" d="M-.452 145.693l-10.766 6.216 5.618 3.971 10.766-6.216z" class="cls-44" transform="translate(27.353 -131.69)"/>
                            <path id="패스_56" d="M111.14 189.077l.184 1.088 1.861-.621.181-.258-.459-.129v-.424z" class="cls-33" transform="translate(-97.44 -168.901)"/>
                            <path id="패스_57" d="M111.21 192.741v-.233h-.078l-.121.3z" class="cls-52" transform="translate(-95.264 -172.164)"/>
                            <path id="패스_58" d="M111.487 191.513l-.27-.156-.206.069.386.117z" class="cls-41" transform="translate(-95.541 -171.169)"/>
                            <path id="패스_59" d="M126.224 191.272v.9l.184.184v-1.041z" class="cls-34" transform="translate(-112.525 -171.096)"/>
                            <path id="패스_60" d="M114.523 187.9l.184.184 1.585-.528-.184-.184z" class="cls-38" transform="translate(-100.823 -167.726)"/>
                            <path id="패스_61" d="M112.062 191.77l-.286-.151-.1.033v.246z" class="cls-38" transform="translate(-96.206 -171.396)"/>
                        </g>
                    </g>
                </g>
            </g>
        </g>
    </g>
</svg>
