<svg xmlns="http://www.w3.org/2000/svg" width="30" height="30" viewBox="0 0 30 30">
    <defs>
        <linearGradient id="linear-gradient" x1=".158" x2=".653" y1="-.153" y2="1" gradientUnits="objectBoundingBox">
            <stop offset="0" stop-color="#c7ff7b"/>
            <stop offset=".271" stop-color="#deff9f"/>
            <stop offset=".892" stop-color="#96dd37"/>
            <stop offset="1" stop-color="#b5ea52"/>
        </linearGradient>
        <filter id="타원_1442" width="30" height="30" x="0" y="0" filterUnits="userSpaceOnUse">
            <feOffset dy="2"/>
            <feGaussianBlur result="blur" stdDeviation="1"/>
            <feFlood flood-color="#689f00" flood-opacity=".2"/>
            <feComposite in2="blur" operator="in"/>
            <feComposite in="SourceGraphic"/>
        </filter>
        <style>
            .cls-2{fill:#1a1a1a}
        </style>
    </defs>
    <g id="img_emoji_good_mini" transform="translate(3 1)">
        <g id="그룹_43221">
            <g filter="url(#타원_1442)" transform="translate(-3 -1)">
                <circle id="타원_1442-2" cx="12" cy="12" r="12" fill="url(#linear-gradient)" transform="translate(3 1)"/>
            </g>
            <circle id="타원_1439" cx="1.227" cy="1.227" r="1.227" class="cls-2" transform="translate(7.636 9.546)"/>
            <circle id="타원_1440" cx="1.227" cy="1.227" r="1.227" class="cls-2" transform="translate(13.909 9.546)"/>
            <path id="패스_35527" d="M291.821 418.435a3.832 3.832 0 0 1-3.256-1.9.955.955 0 0 1 1.588-1.059 1.848 1.848 0 0 0 3.336 0 .954.954 0 0 1 1.588 1.059 3.832 3.832 0 0 1-3.256 1.9z" transform="translate(-279.813 -401.821)"/>
        </g>
    </g>
</svg>
