<svg xmlns="http://www.w3.org/2000/svg" width="260" height="248.714" viewBox="0 0 260 248.714">
    <defs>
        <linearGradient id="linear-gradient" x1=".372" x2=".679" y1=".318" y2=".704" gradientUnits="objectBoundingBox">
            <stop offset="0" stop-color="#ba7f37"/>
            <stop offset="1" stop-color="#98541e"/>
        </linearGradient>
        <style>
            .cls-71{fill:#fff}.cls-74{fill:#4f3037}.cls-75{fill:#381a22}.cls-76{fill:#601612}.cls-77{fill:#2b151a}.cls-78{fill:#bf9692}.cls-79{fill:#93666d}.cls-80{fill:#d7b2a7}.cls-82{fill:#6b464c}.cls-85{fill:#ffc134}.cls-86{fill:#ff5d02}.cls-87{fill:#ff7308}.cls-88{fill:#df9b39}.cls-89{fill:#fff3e0}.cls-90{fill:#ffffef}.cls-91{fill:#ce4504}.cls-93{fill:#392126}.cls-98{fill:#3b5974}
        </style>
    </defs>
    <g id="img_illust_car_return" transform="translate(0 -80)">
        <g id="그룹_42058" transform="translate(20 110)">
            <g id="그룹_42293">
                <path id="패스_33263" d="M1100.2 613.293L992.144 673.8a9.7 9.7 0 0 1-9.408.018L888.2 621.369a8.861 8.861 0 0 1-.032-15.624l108.053-60.511a9.7 9.7 0 0 1 9.407-.018l94.532 52.453a8.86 8.86 0 0 1 .04 15.624z" transform="translate(-881.51 -460.852)" style="mix-blend-mode:multiply;isolation:isolate" opacity="0.054"/>
                <path id="패스_33263-2" d="M1100.2 616.019l-108.056 62.892a9.381 9.381 0 0 1-9.408.019L888.2 624.413a9.384 9.384 0 0 1-.032-16.238l108.053-62.891a9.384 9.384 0 0 1 9.407-.019l94.532 54.516a9.384 9.384 0 0 1 .04 16.238z" transform="translate(-881.51 -466.007)" style="mix-blend-mode:multiply;isolation:isolate" fill="#e6e6e6"/>
            </g>
            <g id="그룹_42153" transform="translate(-878.51 -474.007)">
                <path id="패스_33263-3" fill="#434345" d="M1091.677 621.723l-103.639 60.323a9 9 0 0 1-9.023.018l-90.67-52.29a9 9 0 0 1-.031-15.575l103.639-60.321a9 9 0 0 1 9.024-.019l90.669 52.289a9 9 0 0 1 .031 15.575z"/>
                <path id="패스_33300" fill="#444446" d="M1091.677 621.595l-103.639 60.324a9 9 0 0 1-9.023.018l-90.67-52.291a9 9 0 0 1-.031-15.575l103.639-60.321a9 9 0 0 1 9.024-.018l90.669 52.288a9 9 0 0 1 .031 15.575z"/>
                <path id="패스_33301" fill="#454547" d="M1091.677 621.467l-103.639 60.324a9 9 0 0 1-9.023.018l-90.67-52.291a9 9 0 0 1-.031-15.574l103.639-60.322a9 9 0 0 1 9.024-.018l90.669 52.288a9 9 0 0 1 .031 15.575z"/>
                <path id="패스_33302" fill="#464648" d="M1091.677 621.339l-103.639 60.324a9 9 0 0 1-9.023.018l-90.67-52.291a9 9 0 0 1-.031-15.574l103.639-60.322a9 9 0 0 1 9.024-.018l90.669 52.288a9 9 0 0 1 .031 15.575z"/>
                <path id="패스_33303" fill="#474749" d="M1091.677 621.211l-103.639 60.324a9 9 0 0 1-9.023.018l-90.67-52.29a9 9 0 0 1-.031-15.575l103.639-60.322a9 9 0 0 1 9.024-.018l90.669 52.289a9 9 0 0 1 .031 15.574z"/>
                <path id="패스_33304" fill="#48484a" d="M1091.677 621.083l-103.639 60.324a9 9 0 0 1-9.023.018l-90.67-52.29a9 9 0 0 1-.031-15.575l103.639-60.322a9 9 0 0 1 9.024-.018l90.669 52.289a9 9 0 0 1 .031 15.574z"/>
                <path id="패스_33305" fill="#49494a" d="M1091.677 620.956l-103.639 60.323a9 9 0 0 1-9.023.018l-90.67-52.29a9 9 0 0 1-.031-15.575l103.639-60.322a9 9 0 0 1 9.024-.018l90.669 52.289a9 9 0 0 1 .031 15.575z"/>
                <path id="패스_33306" fill="#494a4b" d="M1091.677 620.828l-103.639 60.323a9 9 0 0 1-9.023.018l-90.67-52.29a9 9 0 0 1-.031-15.575l103.639-60.322a9 9 0 0 1 9.024-.018l90.669 52.289a9 9 0 0 1 .031 15.575z"/>
                <path id="패스_33307" fill="#4a4b4c" d="M1091.677 620.7l-103.639 60.323a9 9 0 0 1-9.023.018l-90.67-52.29a9 9 0 0 1-.031-15.575l103.639-60.322a9 9 0 0 1 9.024-.018l90.669 52.289a9 9 0 0 1 .031 15.575z"/>
                <path id="패스_33308" fill="#4b4c4d" d="M1091.677 620.572L988.038 680.9a9 9 0 0 1-9.023.018l-90.67-52.29a9 9 0 0 1-.031-15.575l103.639-60.322a9 9 0 0 1 9.024-.018L1091.646 605a9 9 0 0 1 .031 15.572z"/>
                <path id="패스_33309" fill="#4c4d4e" d="M1091.677 620.444l-103.639 60.323a9 9 0 0 1-9.023.018l-90.67-52.29a9 9 0 0 1-.031-15.575l103.639-60.32a9 9 0 0 1 9.024-.019l90.669 52.289a9 9 0 0 1 .031 15.574z"/>
                <path id="패스_33310" fill="#4d4e4f" d="M1091.677 620.316L988.038 680.64a9 9 0 0 1-9.023.018l-90.67-52.291a9 9 0 0 1-.031-15.575l103.639-60.321a9 9 0 0 1 9.024-.018l90.669 52.288a9 9 0 0 1 .031 15.575z"/>
                <path id="패스_33311" fill="#4e4f50" d="M1091.677 620.188l-103.639 60.324a9 9 0 0 1-9.023.018l-90.67-52.291a9 9 0 0 1-.031-15.574l103.639-60.322a9 9 0 0 1 9.024-.018l90.669 52.288a9 9 0 0 1 .031 15.575z"/>
                <path id="패스_33312" fill="#4f5051" d="M1091.677 620.06l-103.639 60.324a9 9 0 0 1-9.023.018l-90.67-52.291a9 9 0 0 1-.031-15.574l103.639-60.322a9 9 0 0 1 9.024-.018l90.669 52.288a9 9 0 0 1 .031 15.575z"/>
                <path id="패스_33313" fill="#505152" d="M1091.677 619.932l-103.639 60.324a9 9 0 0 1-9.023.018l-90.67-52.29a9 9 0 0 1-.031-15.575l103.639-60.322a9 9 0 0 1 9.024-.018l90.669 52.289a9 9 0 0 1 .031 15.574z"/>
                <path id="패스_33314" fill="#515253" d="M1091.677 619.8l-103.639 60.328a9 9 0 0 1-9.023.018l-90.67-52.29a9 9 0 0 1-.031-15.575l103.639-60.322a9 9 0 0 1 9.024-.018l90.669 52.289a9 9 0 0 1 .031 15.57z"/>
                <path id="패스_33315" fill="#525354" d="M1091.677 619.677L988.038 680a9 9 0 0 1-9.023.018l-90.67-52.29a9 9 0 0 1-.031-15.575l103.639-60.322a9 9 0 0 1 9.024-.018l90.669 52.289a9 9 0 0 1 .031 15.575z"/>
                <path id="패스_33316" fill="#535454" d="M1091.677 619.549l-103.639 60.323a9 9 0 0 1-9.023.018l-90.67-52.29a9 9 0 0 1-.031-15.575L991.953 551.7a9 9 0 0 1 9.024-.018l90.669 52.289a9 9 0 0 1 .031 15.578z"/>
                <path id="패스_33317" fill="#545555" d="M1091.677 619.421l-103.639 60.323a9 9 0 0 1-9.023.018l-90.67-52.29a9 9 0 0 1-.031-15.575l103.639-60.322a9 9 0 0 1 9.024-.018l90.669 52.289a9 9 0 0 1 .031 15.575z"/>
                <path id="패스_33318" fill="#555656" d="M1091.677 619.293l-103.639 60.323a9 9 0 0 1-9.023.018l-90.67-52.29a9 9 0 0 1-.031-15.575l103.639-60.322a9 9 0 0 1 9.024-.018l90.669 52.289a9 9 0 0 1 .031 15.575z"/>
                <path id="패스_33319" fill="#555757" d="M1091.677 619.165l-103.639 60.323a9 9 0 0 1-9.023.018l-90.67-52.29a9 9 0 0 1-.031-15.575l103.639-60.321a9 9 0 0 1 9.024-.019l90.669 52.289a9 9 0 0 1 .031 15.575z"/>
                <path id="패스_33320" fill="#565858" d="M1091.677 619.037l-103.639 60.324a9 9 0 0 1-9.023.018l-90.67-52.291a9 9 0 0 1-.031-15.575l103.639-60.321a9 9 0 0 1 9.024-.018l90.669 52.288a9 9 0 0 1 .031 15.575z"/>
                <path id="패스_33321" fill="#575959" d="M1091.677 618.909l-103.639 60.324a9 9 0 0 1-9.023.018l-90.67-52.291a9 9 0 0 1-.031-15.574l103.639-60.322a9 9 0 0 1 9.024-.018l90.669 52.288a9 9 0 0 1 .031 15.575z"/>
                <path id="패스_33322" fill="#585a5a" d="M1091.677 618.781L988.038 679.1a9 9 0 0 1-9.023.018l-90.67-52.291a9 9 0 0 1-.031-15.574l103.639-60.322a9 9 0 0 1 9.024-.018l90.669 52.288a9 9 0 0 1 .031 15.58z"/>
                <path id="패스_33323" fill="#595b5b" d="M1091.677 618.653l-103.639 60.324a9 9 0 0 1-9.023.018l-90.67-52.29a9 9 0 0 1-.031-15.575l103.639-60.322a9 9 0 0 1 9.024-.018l90.669 52.289a9 9 0 0 1 .031 15.574z"/>
                <path id="패스_33324" fill="#5a5c5c" d="M1091.677 618.525l-103.639 60.324a9 9 0 0 1-9.023.018l-90.67-52.29a9 9 0 0 1-.031-15.577l103.639-60.32a9 9 0 0 1 9.024-.018l90.669 52.289a9 9 0 0 1 .031 15.574z"/>
                <path id="패스_33325" fill="#5b5d5d" d="M1091.677 618.4l-103.639 60.321a9 9 0 0 1-9.023.018l-90.67-52.29a9 9 0 0 1-.031-15.575l103.639-60.322a9 9 0 0 1 9.024-.018l90.669 52.289a9 9 0 0 1 .031 15.577z"/>
                <path id="패스_33326" fill="#5c5e5e" d="M1091.677 618.27l-103.639 60.323a9 9 0 0 1-9.023.018l-90.67-52.29a9 9 0 0 1-.031-15.575l103.639-60.322a9 9 0 0 1 9.024-.018l90.669 52.289a9 9 0 0 1 .031 15.575z"/>
                <path id="패스_33327" fill="#5d5f5e" d="M1091.677 618.142l-103.639 60.323a9 9 0 0 1-9.023.018l-90.67-52.29a9 9 0 0 1-.031-15.575L991.953 550.3a9 9 0 0 1 9.024-.018l90.669 52.289a9 9 0 0 1 .031 15.571z"/>
                <path id="패스_33328" fill="#5e605f" d="M1091.677 618.014l-103.639 60.323a9 9 0 0 1-9.023.018l-90.67-52.29a9 9 0 0 1-.031-15.575l103.639-60.322a9 9 0 0 1 9.024-.018l90.669 52.289a9 9 0 0 1 .031 15.575z"/>
                <path id="패스_33329" fill="#5f6160" d="M1091.677 617.886l-103.639 60.323a9 9 0 0 1-9.023.018l-90.67-52.29a9 9 0 0 1-.031-15.575l103.639-60.321a9 9 0 0 1 9.024-.019l90.669 52.289a9 9 0 0 1 .031 15.575z"/>
                <path id="패스_33330" fill="#606261" d="M1091.677 617.758l-103.639 60.324a9 9 0 0 1-9.023.018l-90.67-52.291a9 9 0 0 1-.031-15.575l103.639-60.321a9 9 0 0 1 9.024-.018l90.669 52.288a9 9 0 0 1 .031 15.575z"/>
                <path id="패스_33331" fill="#616362" d="M1091.677 617.63l-103.639 60.324a9 9 0 0 1-9.023.018l-90.67-52.291a9 9 0 0 1-.031-15.574l103.639-60.322a9 9 0 0 1 9.024-.018l90.669 52.288a9 9 0 0 1 .031 15.575z"/>
                <path id="패스_33332" fill="#616363" d="M1091.677 617.5l-103.639 60.326a9 9 0 0 1-9.023.018l-90.67-52.291a9 9 0 0 1-.031-15.574l103.639-60.322a9 9 0 0 1 9.024-.018l90.669 52.288a9 9 0 0 1 .031 15.573z"/>
                <path id="패스_33333" fill="#626464" d="M1091.677 617.374L988.038 677.7a9 9 0 0 1-9.023.018l-90.67-52.29a9 9 0 0 1-.031-15.575l103.639-60.322a9 9 0 0 1 9.024-.018l90.669 52.289a9 9 0 0 1 .031 15.572z"/>
                <path id="패스_33334" fill="#636565" d="M1091.677 617.246L988.038 677.57a9 9 0 0 1-9.023.018l-90.67-52.29a9 9 0 0 1-.031-15.575L991.953 549.4a9 9 0 0 1 9.024-.018l90.669 52.289a9 9 0 0 1 .031 15.575z"/>
                <path id="패스_33335" fill="#646666" d="M1091.677 617.119l-103.639 60.323a9 9 0 0 1-9.023.018l-90.67-52.29a9 9 0 0 1-.031-15.575l103.639-60.322a9 9 0 0 1 9.024-.018l90.669 52.289a9 9 0 0 1 .031 15.575z"/>
                <path id="패스_33336" fill="#656767" d="M1091.677 616.991l-103.639 60.323a9 9 0 0 1-9.023.018l-90.67-52.29a9 9 0 0 1-.031-15.575l103.639-60.322a9 9 0 0 1 9.024-.018l90.669 52.289a9 9 0 0 1 .031 15.575z"/>
                <path id="패스_33337" fill="#666867" d="M1091.677 616.863l-103.639 60.323a9 9 0 0 1-9.023.018l-90.67-52.29a9 9 0 0 1-.031-15.575l103.639-60.322a9 9 0 0 1 9.024-.018l90.669 52.289a9 9 0 0 1 .031 15.575z"/>
                <path id="패스_33338" fill="#676968" d="M1091.677 616.735l-103.639 60.323a9 9 0 0 1-9.023.018l-90.67-52.29a9 9 0 0 1-.031-15.575l103.639-60.322a9 9 0 0 1 9.024-.018l90.669 52.289a9 9 0 0 1 .031 15.575z"/>
                <path id="패스_33339" fill="#686a69" d="M1091.677 616.607L988.038 676.93a9 9 0 0 1-9.023.018l-90.67-52.29a9 9 0 0 1-.031-15.575l103.639-60.321a9 9 0 0 1 9.024-.019l90.669 52.289a9 9 0 0 1 .031 15.575z"/>
                <path id="패스_33340" fill="#696b6a" d="M1091.677 616.479L988.038 676.8a9 9 0 0 1-9.023.018l-90.67-52.291a9 9 0 0 1-.031-15.575l103.639-60.321a9 9 0 0 1 9.024-.018l90.669 52.288a9 9 0 0 1 .031 15.578z"/>
                <path id="패스_33341" fill="#6a6c6b" d="M1091.677 616.351l-103.639 60.324a9 9 0 0 1-9.023.018l-90.67-52.293a9 9 0 0 1-.031-15.574l103.639-60.322a9 9 0 0 1 9.024-.018l90.669 52.288a9 9 0 0 1 .031 15.577z"/>
                <path id="패스_33342" fill="#6b6d6c" d="M1091.677 616.223l-103.639 60.324a9 9 0 0 1-9.023.018l-90.67-52.291a9 9 0 0 1-.031-15.574l103.639-60.322a9 9 0 0 1 9.024-.018l90.669 52.288a9 9 0 0 1 .031 15.575z"/>
                <path id="패스_33343" fill="#6c6e6d" d="M1091.677 616.095l-103.639 60.324a9 9 0 0 1-9.023.018l-90.67-52.29a9 9 0 0 1-.031-15.575l103.639-60.322a9 9 0 0 1 9.024-.018l90.669 52.289a9 9 0 0 1 .031 15.574z"/>
                <path id="패스_33344" fill="#6d6f6e" d="M1091.677 615.967l-103.639 60.324a9 9 0 0 1-9.023.018l-90.67-52.29a9 9 0 0 1-.031-15.575l103.639-60.322a9 9 0 0 1 9.024-.018l90.669 52.289a9 9 0 0 1 .031 15.574z"/>
                <path id="패스_33345" fill="#6d706f" d="M1091.677 615.839l-103.639 60.324a9 9 0 0 1-9.023.018l-90.67-52.29a9 9 0 0 1-.031-15.575l103.639-60.322a9 9 0 0 1 9.024-.018l90.669 52.289a9 9 0 0 1 .031 15.574z"/>
                <path id="패스_33346" fill="#6e7170" d="M1091.677 615.712l-103.639 60.323a9 9 0 0 1-9.023.018l-90.67-52.29a9 9 0 0 1-.031-15.575l103.639-60.322a9 9 0 0 1 9.024-.018l90.669 52.289a9 9 0 0 1 .031 15.575z"/>
                <path id="패스_33347" fill="#6f7271" d="M1091.677 615.584l-103.639 60.323a9 9 0 0 1-9.023.018l-90.67-52.29a9 9 0 0 1-.031-15.575l103.639-60.322a9 9 0 0 1 9.024-.018l90.669 52.289a9 9 0 0 1 .031 15.575z"/>
                <path id="패스_33348" fill="#707371" d="M1091.677 615.456l-103.639 60.323a9 9 0 0 1-9.023.018l-90.67-52.29a9 9 0 0 1-.031-15.575l103.639-60.322a9 9 0 0 1 9.024-.018l90.669 52.289a9 9 0 0 1 .031 15.575z"/>
                <path id="패스_33349" fill="#717472" d="M1091.677 615.328l-103.639 60.323a9 9 0 0 1-9.023.018l-90.67-52.29a9 9 0 0 1-.031-15.575l103.639-60.321a9 9 0 0 1 9.024-.019l90.669 52.289a9 9 0 0 1 .031 15.575z"/>
                <path id="패스_33350" fill="#727573" d="M1091.677 615.2l-103.639 60.324a9 9 0 0 1-9.023.018l-90.67-52.291a9 9 0 0 1-.031-15.575l103.639-60.321a9 9 0 0 1 9.024-.018l90.669 52.288a9 9 0 0 1 .031 15.575z"/>
                <path id="패스_33351" fill="#737674" d="M1091.677 615.072L988.038 675.4a9 9 0 0 1-9.023.018l-90.67-52.291a9 9 0 0 1-.031-15.574l103.639-60.322a9 9 0 0 1 9.024-.018l90.669 52.288a9 9 0 0 1 .031 15.571z"/>
                <path id="패스_33352" fill="#747775" d="M1091.677 614.944l-103.639 60.324a9 9 0 0 1-9.023.018l-90.67-52.291a9 9 0 0 1-.031-15.574L991.953 547.1a9 9 0 0 1 9.024-.018l90.669 52.288a9 9 0 0 1 .031 15.574z"/>
                <path id="패스_33353" fill="#757876" d="M1091.677 614.816L988.038 675.14a9 9 0 0 1-9.023.018l-90.67-52.29a9 9 0 0 1-.031-15.575l103.639-60.322a9 9 0 0 1 9.024-.018l90.669 52.289a9 9 0 0 1 .031 15.574z"/>
                <path id="패스_33354" fill="#767977" d="M1091.677 614.688l-103.639 60.324a9 9 0 0 1-9.023.018l-90.67-52.29a9 9 0 0 1-.031-15.575l103.639-60.322a9 9 0 0 1 9.024-.018l90.669 52.289a9 9 0 0 1 .031 15.574z"/>
                <path id="패스_33355" fill="#777a78" d="M1091.677 614.56l-103.639 60.324a9 9 0 0 1-9.023.018l-90.67-52.29a9 9 0 0 1-.031-15.575l103.639-60.322a9 9 0 0 1 9.024-.018l90.669 52.289a9 9 0 0 1 .031 15.574z"/>
                <path id="패스_33356" fill="#787b79" d="M1091.677 614.433l-103.639 60.323a9 9 0 0 1-9.023.018l-90.67-52.29a9 9 0 0 1-.031-15.575l103.639-60.322a9 9 0 0 1 9.024-.018l90.669 52.289a9 9 0 0 1 .031 15.575z"/>
                <path id="패스_33357" fill="#797c7a" d="M1091.677 614.3l-103.639 60.328a9 9 0 0 1-9.023.018l-90.67-52.29a9 9 0 0 1-.031-15.575l103.639-60.322a9 9 0 0 1 9.024-.018l90.669 52.289a9 9 0 0 1 .031 15.57z"/>
                <path id="패스_33358" fill="#797d7b" d="M1091.677 614.177L988.038 674.5a9 9 0 0 1-9.023.018l-90.67-52.29a9 9 0 0 1-.031-15.575l103.639-60.322a9 9 0 0 1 9.024-.018l90.669 52.289a9 9 0 0 1 .031 15.575z"/>
                <path id="패스_33359" fill="#7a7e7b" d="M1091.677 614.049l-103.639 60.323a9 9 0 0 1-9.023.018l-90.67-52.29a9 9 0 0 1-.031-15.575L991.953 546.2a9 9 0 0 1 9.024-.019l90.669 52.289a9 9 0 0 1 .031 15.579z"/>
                <path id="패스_33360" fill="#7b7f7c" d="M1091.677 613.921l-103.639 60.324a9 9 0 0 1-9.023.018l-90.67-52.291a9 9 0 0 1-.031-15.575l103.639-60.321a9 9 0 0 1 9.024-.018l90.669 52.288a9 9 0 0 1 .031 15.575z"/>
                <path id="패스_33361" fill="#7c807d" d="M1091.677 613.793l-103.639 60.324a9 9 0 0 1-9.023.018l-90.67-52.291a9 9 0 0 1-.031-15.574l103.639-60.322a9 9 0 0 1 9.024-.018l90.669 52.288a9 9 0 0 1 .031 15.575z"/>
                <path id="패스_33362" fill="#7d817e" d="M1091.677 613.665l-103.639 60.324a9 9 0 0 1-9.023.018l-90.67-52.291a9 9 0 0 1-.031-15.574l103.639-60.322a9 9 0 0 1 9.024-.018l90.669 52.288a9 9 0 0 1 .031 15.575z"/>
                <path id="패스_33363" fill="#7e827f" d="M1091.677 613.537l-103.639 60.324a9 9 0 0 1-9.023.018l-90.67-52.29a9 9 0 0 1-.031-15.575l103.639-60.322a9 9 0 0 1 9.024-.018l90.669 52.289a9 9 0 0 1 .031 15.574z"/>
                <path id="패스_33263-4" fill="#7f8380" d="M1091.677 613.409l-103.639 60.324a9 9 0 0 1-9.023.018l-90.67-52.29a9 9 0 0 1-.031-15.575l103.639-60.322a9 9 0 0 1 9.024-.018l90.669 52.289a9 9 0 0 1 .031 15.574z"/>
            </g>
            <g id="그룹_42294">
                <path id="패스_33263-5" fill="#929396" d="M1091.345 613.077L987.706 673.4a9 9 0 0 1-9.024.018l-90.669-52.29a9 9 0 0 1-.031-15.575l103.639-60.322a9 9 0 0 1 9.023-.018l90.67 52.289a9 9 0 0 1 .031 15.575z" transform="translate(-878.51 -474.007)"/>
                <path id="패스_33266" d="M1084.544 617.034l-2.832 1.649-108.661-62.644 2.842-1.654z" class="cls-71" transform="translate(-878.51 -474.007)"/>
                <path id="패스_33267" d="M974.955 662.843l-2.875 1.624-12.494-7.3 2.875-1.623z" class="cls-71" transform="translate(-878.51 -474.007)"/>
                <path id="패스_33268" d="M908.3 624.569l-2.875 1.624-12.494-7.3 2.875-1.623z" class="cls-71" transform="translate(-878.51 -474.007)"/>
                <path id="패스_33269" d="M968.433 660.954l95.342-54.627-2.686-1.546-95.341 54.627z" class="cls-71" transform="translate(-878.51 -474.007)"/>
                <path id="패스_33270" d="M901.567 622.785l95.763-55.25-2.685-1.546-95.768 55.251z" class="cls-71" transform="translate(-878.51 -474.007)"/>
                <path id="패스_33271" fill="#90bf4f" d="M1092.838 612.208l-8.294 4.827-108.65-62.653 15.727-9.153a9 9 0 0 1 9.023-.018l92.166 53.153a8 8 0 0 1 .028 13.844z" transform="translate(-878.51 -474.007)"/>
            </g>
        </g>
        <g id="그룹_40710" transform="translate(59.021 181.769)">
            <path id="패스_30766" fill="#1a1a1a" d="M629.518 424.949l-82.435 47.042-42.43-24.122 80.756-48.759z" transform="translate(-503.617 -363.741)" style="mix-blend-mode:multiply;isolation:isolate" opacity="0.331"/>
            <g id="YELLOW_HATCHBACK">
                <path id="패스_1" d="M26.152 139.548l-3.414-3.394v-3.267l3.96 3.1.531 2.247z" class="cls-74" transform="translate(-2.799 -88.517)"/>
                <path id="패스_2" d="M29.491 141.41v-3.05l1.162.242v2.758z" class="cls-75" transform="translate(-6.224 -91.309)"/>
                <path id="패스_4" d="M210.608 161.457l1.232-7.166-6.483.9 4.125 5.618z" class="cls-76" transform="translate(-95.415 -99.435)"/>
                <g id="그룹_1" transform="translate(99.214 54.873)">
                    <path id="패스_5" d="M193.614 154.72c-1.063-.616-2.533-.532-4.159.4a12.872 12.872 0 0 0-5.865 10.1c0 1.862.658 3.168 1.721 3.776l3.128 1.8c1.064.621 2.537.539 4.166-.4a12.871 12.871 0 0 0 5.865-10.1c0-1.866-.662-3.175-1.73-3.782z" class="cls-77" transform="translate(-183.59 -154.326)"/>
                    <path id="패스_6" d="M201.714 162.179a12.874 12.874 0 0 1-5.865 10.1c-3.238 1.859-5.865.353-5.865-3.366a12.874 12.874 0 0 1 5.865-10.1c3.238-1.859 5.865-.353 5.865 3.366z" class="cls-75" transform="translate(-186.833 -156.208)"/>
                    <path id="패스_7" d="M198.533 165.291a7.149 7.149 0 0 0-3.259 5.611c0 2.066 1.459 2.9 3.259 1.87a7.154 7.154 0 0 0 3.259-5.611c-.003-2.066-1.462-2.903-3.259-1.87z" class="cls-78" transform="translate(-189.516 -159.693)"/>
                    <path id="패스_8" d="M198.119 172.525a6.746 6.746 0 0 0 3.073-5.291 2.327 2.327 0 0 0-.661-1.8 2.36 2.36 0 0 0-1.9.333 6.745 6.745 0 0 0-3.073 5.291 1.492 1.492 0 0 0 .91 1.911 1.509 1.509 0 0 0 1.653-.441z" class="cls-79" transform="translate(-189.613 -159.952)"/>
                    <path id="패스_9" d="M200.213 168.551a1.226 1.226 0 0 0-1.06.161 3.606 3.606 0 0 0-1.643 2.829 1.144 1.144 0 0 0 .476 1.052c.087.049.466.276.577.328a1.2 1.2 0 0 0 1.1-.147 3.606 3.606 0 0 0 1.643-2.829 1.142 1.142 0 0 0-.483-1.056c-.086-.046-.483-.289-.61-.338z" class="cls-78" transform="translate(-190.647 -161.554)"/>
                    <path id="패스_10" d="M201.834 170.247a3.606 3.606 0 0 1-1.643 2.829c-.907.52-1.643.1-1.643-.943a3.6 3.6 0 0 1 1.643-2.828c.909-.522 1.643-.098 1.643.942z" class="cls-80" transform="translate(-191.177 -161.852)"/>
                    <path id="패스_11" d="M201.775 166.513a7.9 7.9 0 0 1-3.6 6.193c-1.987 1.14-3.6.216-3.6-2.064a7.894 7.894 0 0 1 3.6-6.193c1.989-1.139 3.6-.215 3.6 2.064zm-3.6-1.463a6.745 6.745 0 0 0-3.073 5.291c0 1.948 1.376 2.738 3.073 1.764a6.744 6.744 0 0 0 3.073-5.291c0-1.948-1.374-2.738-3.071-1.764z" class="cls-80" transform="translate(-189.163 -159.241)"/>
                </g>
                <path id="패스_12" d="M110.465 219.6l1.265-7.112-6.062.876 3.67 5.589z" class="cls-76" transform="translate(-44.858 -129.119)"/>
                <g id="그룹_2" transform="translate(49.698 83.085)">
                    <path id="패스_13" d="M93.144 212.726c-1.062-.616-2.533-.532-4.159.4a12.873 12.873 0 0 0-5.865 10.1c0 1.862.658 3.168 1.721 3.776l3.128 1.8c1.064.621 2.537.539 4.166-.4A12.872 12.872 0 0 0 98 218.3c0-1.866-.662-3.175-1.73-3.781z" class="cls-77" transform="translate(-83.12 -212.125)"/>
                    <path id="타원_1" d="M8.246 0c4.561.012 8.264 2.162 8.271 4.8s-3.685 4.777-8.246 4.765S.007 7.4 0 4.761 3.685-.012 8.246 0z" class="cls-75" transform="rotate(-59.999 12.76 6.509)"/>
                    <path id="패스_14" d="M98.063 223.3a7.149 7.149 0 0 0-3.259 5.611c0 2.066 1.459 2.9 3.259 1.87a7.154 7.154 0 0 0 3.259-5.611c-.003-2.07-1.462-2.907-3.259-1.87z" class="cls-78" transform="translate(-89.046 -217.492)"/>
                    <path id="패스_15" d="M97.649 230.531a6.748 6.748 0 0 0 3.073-5.291 2.33 2.33 0 0 0-.661-1.8 2.36 2.36 0 0 0-1.9.333 6.747 6.747 0 0 0-3.073 5.291 1.492 1.492 0 0 0 .91 1.911 1.509 1.509 0 0 0 1.653-.441z" class="cls-79" transform="translate(-89.143 -217.752)"/>
                    <path id="패스_16" d="M99.742 226.557a1.226 1.226 0 0 0-1.06.161 3.6 3.6 0 0 0-1.643 2.828 1.142 1.142 0 0 0 .476 1.052c.087.049.466.277.577.328a1.2 1.2 0 0 0 1.1-.146 3.607 3.607 0 0 0 1.643-2.829 1.14 1.14 0 0 0-.482-1.055c-.088-.046-.484-.287-.611-.339z" class="cls-78" transform="translate(-90.176 -219.353)"/>
                    <path id="패스_17" d="M101.362 228.252a3.606 3.606 0 0 1-1.643 2.829c-.907.52-1.643.1-1.643-.943a3.6 3.6 0 0 1 1.643-2.828c.908-.522 1.643-.098 1.643.942z" class="cls-80" transform="translate(-90.706 -219.651)"/>
                    <path id="패스_18" d="M101.3 224.521a7.9 7.9 0 0 1-3.6 6.193c-1.987 1.14-3.6.216-3.6-2.064a7.894 7.894 0 0 1 3.6-6.193c1.991-1.142 3.6-.218 3.6 2.064zm-3.6-1.463a6.744 6.744 0 0 0-3.073 5.291c0 1.948 1.376 2.738 3.073 1.764a6.746 6.746 0 0 0 3.073-5.291c0-1.949-1.374-2.739-3.071-1.765z" class="cls-80" transform="translate(-88.693 -217.04)"/>
                </g>
                <path id="패스_19" fill="url(#linear-gradient)" d="M124.466 154.648L88.7 175.188a10.706 10.706 0 0 0 .086-1.188c0-4.422-3.123-6.215-6.976-4a15.31 15.31 0 0 0-6.976 12.011 8.7 8.7 0 0 0 .061 1.1l-9.446 5.31-2.7-5.59L65.47 172.2l20.545-17.46 56.385-29.321v18.939l-4.116 2.371a10.321 10.321 0 0 0 .068-1.164c0-4.422-3.123-6.214-6.976-4a15.31 15.31 0 0 0-6.976 12.01 8.287 8.287 0 0 0 .066 1.073z" transform="translate(-23.089 -84.708)"/>
                <path id="패스_20" d="M30.076 144.9l-.585-.581 1.295-.254z" class="cls-79" transform="translate(-6.224 -94.219)"/>
                <path id="패스_21" d="M26.067 135.8l-3.329-3.308 1.162-.392 3.328 3.308z" class="cls-79" transform="translate(-2.799 -88.117)"/>
                <path id="패스_22" d="M29.491 144.184l1.162-.385.2.2z" class="cls-82" transform="translate(-6.224 -94.083)"/>
                <path id="패스_23" fill="#cc8b2d" d="M109.762 134.215l9.448-40.845 35.357-14.261 11.677 22.69z" transform="translate(-46.934 -61.087)"/>
                <path id="패스_24" fill="#ffc855" d="M78.543 89.728L65.049 135 21.6 120.284l21.256-38.15a3.465 3.465 0 0 1 2.5-1.489" transform="translate(-2.22 -61.87)"/>
                <path id="패스_25" d="M65.067 246.179l-1.324-6.325 8.006-3.27v5.76z" class="cls-75" transform="translate(-23.595 -141.41)"/>
                <path id="패스_26" d="M-17.719 201.589v-5.76l41.473 23.24v6.32z" class="cls-74" transform="translate(17.719 -120.622)"/>
                <path id="패스_27" d="M-17.719 194.86l1.622-.931 39.652 23.528.6-.269.848.755-1.25.717z" class="cls-79" transform="translate(17.719 -119.653)"/>
                <path id="패스_28" d="M26.926 196.549l-1.21 11.261-39.174-22.484 1.107-10.312z" class="cls-85" transform="translate(15.559 -110.005)"/>
                <path id="패스_29" d="M71.76 235.24l1.148.659-5.433 3.118-.993-.57-.456.083z" class="cls-82" transform="translate(-24.753 -140.725)"/>
                <path id="패스_30" d="M-15.181 180.489l1.766.257-1.333 6.663-1.107-.637z" class="cls-86" transform="translate(16.774 -112.798)"/>
                <path id="패스_31" d="M-13.162 179.649l.444.254-.325.569-1.44-.827 1.411-.809z" class="cls-87" transform="translate(16.078 -111.955)"/>
                <path id="패스_32" d="M2.544 188.778l23.248 13.343-1.257 5.95-20.879-11.983z" class="cls-74" transform="translate(7.442 -117.026)"/>
                <path id="패스_33" d="M57.628 233.264l-.331 2.479-8.517-4.888-.055-.254z" class="cls-88" transform="translate(-15.979 -138.359)"/>
                <path id="패스_34" d="M47.686 216.785l9.073 4.451-1.333 6.664-8.415-4.829z" class="cls-89" transform="translate(-15.109 -131.312)"/>
                <path id="패스_35" d="M49.038 216.013l8.415 4.829-.313.576-8.76-5.026z" class="cls-90" transform="translate(-15.804 -130.918)"/>
                <path id="패스_36" d="M67.688 225.727l1.107-.637.664.381z" class="cls-91" transform="translate(-25.596 -135.548)"/>
                <path id="패스_37" d="M66.8 226.745l-1.6 6.817-1.107-.637.672-6.282z" class="cls-86" transform="translate(-23.768 -136.34)"/>
                <path id="패스_38" fill="#9d3501" d="M68.772 231.766l-2.441 1.4.732-6.817 1.709-.481z" transform="translate(-24.908 -135.946)"/>
                <path id="패스_39" d="M68.326 225.815l-1.766 1.014-1.107-.637.658-.378.444.254 1.68-.307z" class="cls-87" transform="translate(-24.462 -135.89)"/>
                <path id="패스_40" d="M-4.073 198.724l-.1.922-9.2-5.279.086-.8z" class="cls-88" transform="translate(15.513 -119.468)"/>
                <path id="패스_41" d="M2.391 196.517l1.862-5.649.242 1.118-.576 5.362z" class="cls-93" transform="translate(7.52 -118.092)"/>
                <path id="패스_42" d="M-13.609 188.07l.675-6.283 9.073 4.451-1.333 6.662z" class="cls-89" transform="translate(15.635 -113.46)"/>
                <path id="패스_43" d="M3.464 197.471l.721-6.72.613.059-.675 6.283z" class="cls-80" transform="translate(6.976 -118.032)"/>
                <path id="패스_44" d="M-3.168 185.843l-.658.378-8.415-4.829.658-.379z" class="cls-90" transform="translate(14.941 -113.065)"/>
                <path id="패스_45" d="M219.419 154.152l-.619 6.548-1.148-.659v-5.76z" class="cls-93" transform="translate(-101.653 -99.364)"/>
                <path id="패스_46" d="M224.239 156.534l-4.256 2.443V152.7l4.256-1.928z" class="cls-75" transform="translate(-102.833 -97.642)"/>
                <path id="패스_47" d="M218.8 152.757l-1.148-.659 2.2-1.262 2.436-.962.769.441z" class="cls-82" transform="translate(-101.653 -97.182)"/>
                <path id="패스_48" fill="#7f2000" d="M224.552 145.246l-1.771 1.017-.664-5.465 2.436-.637z" transform="translate(-103.915 -92.228)"/>
                <path id="패스_49" fill="#ce3801" d="M222.116 146.545v-5.083h.664v5.465z" transform="translate(-103.915 -92.891)"/>
                <path id="패스_50" d="M222.116 140.005l1.107-.637v-.761l1.331.762-1.771 1.017z" class="cls-91" transform="translate(-103.915 -91.435)"/>
                <path id="패스_51" fill="#ffd752" d="M102.044 42.7l30.089 17.268a.692.692 0 0 1 0 1.2l-32.759 18.8a2.808 2.808 0 0 1-2.794 0L66.49 62.7a.692.692 0 0 1 0-1.2l32.76-18.8a2.808 2.808 0 0 1 2.794 0z" transform="translate(-24.811 -42.323)"/>
                <path id="패스_52" fill="#7fabcc" d="M38.212 118.108l29.525 16.946a3.8 3.8 0 0 0 5.539-2.2l7.317-24.545a3.765 3.765 0 0 0-1.742-4.341L54.027 89.724a3.809 3.809 0 0 0-5.23 1.458l-12.018 21.846a3.762 3.762 0 0 0 1.433 5.08z" transform="translate(-9.684 -66.243)"/>
                <path id="패스_53" d="M117.087 145.293l16.3-9.356a4.807 4.807 0 0 0 2.41-3.869l1.36-21.946a1.4 1.4 0 0 0-2.093-1.288l-9.94 5.7a4.813 4.813 0 0 0-2.219 2.8L115.05 143.7a1.394 1.394 0 0 0 2.037 1.593z" class="cls-98" transform="translate(-49.585 -76.152)"/>
                <path id="패스_54" d="M172.653 91.757l-9.11 5.229a3.559 3.559 0 0 0-1.785 2.866l-1.4 22.615a1.4 1.4 0 0 0 2.093 1.288l15.452-8.868a3.554 3.554 0 0 0 1.672-4L174.7 92.6a1.4 1.4 0 0 0-2.047-.843z" class="cls-98" transform="translate(-72.592 -67.443)"/>
                <path id="패스_55" d="M9.23 145.693l39.176 22.485-20.447 14.365-39.177-22.485z" class="cls-85" transform="translate(14.422 -95.049)"/>
                <path id="패스_56" d="M119.245 189.977l-.671 3.934-6.774-2.245-.66-.934 1.669-.466v-1.533z" class="cls-74" transform="translate(-47.633 -117.003)"/>
                <path id="패스_57" d="M111.011 193.352v-.844h.284l.44 1.084z" class="cls-93" transform="translate(-47.567 -118.928)"/>
                <path id="패스_58" d="M111.011 191.921l.983-.564.751.248-1.4.424z" class="cls-82" transform="translate(-47.567 -118.341)"/>
                <path id="패스_59" d="M126.9 191.272v3.267l-.671.667v-3.766z" class="cls-75" transform="translate(-55.283 -118.298)"/>
                <path id="패스_60" d="M120.961 189.284l-.671.667-5.766-1.911.671-.667z" class="cls-79" transform="translate(-49.348 -116.31)"/>
                <path id="패스_61" d="M111.676 192.164l1.04-.545.364.121v.889z" class="cls-79" transform="translate(-47.905 -118.475)"/>
            </g>
        </g>
        <g id="그룹_42051" transform="translate(55.252 110)">
            <path id="패스_33260" fill="#a26a00" d="M121.625 104.487a3.437 3.437 0 0 0-3.547.288l-49.067 28.356a10.833 10.833 0 0 0-4.937 8.482v38.837c0 1.681.652 2.822 1.675 3.281l6.448 3.275 54.911-31.458.938-47.812z" transform="translate(-64.074 -104.117)"/>
            <path id="패스_33261" fill="#a26a00" d="M117.55 104.775l-49.067 28.356a10.351 10.351 0 0 0-3.841 4.315l6.788 2.837 56.088-32.544-6.421-3.252a3.437 3.437 0 0 0-3.547.288z" transform="translate(-63.546 -104.117)" style="mix-blend-mode:multiply;isolation:isolate" opacity="0.3"/>
            <path id="패스_33262" fill="#ffd41d" d="M121.463 106.5L72.4 134.86a10.83 10.83 0 0 0-4.939 8.482v38.837c0 3.114 2.225 4.4 4.946 2.857l37.748-21.653 5.273 4.127 1.11-7.745 4.918-2.788a10.788 10.788 0 0 0 4.946-8.465v-39.167c-.002-3.114-2.224-4.392-4.939-2.845z" transform="translate(-60.926 -102.531)"/>
            <path id="합치기_27" fill="#1a1a1a" stroke="rgba(0,0,0,0)" stroke-miterlimit="10" d="M11123.009-806.881l2.661-1.531c1.023-.589 1.783-.743 2.271-.457s.734.939.734 1.968a6.486 6.486 0 0 1-.292 1.873 5.916 5.916 0 0 1-.967 1.853 6.081 6.081 0 0 1-1.831 1.548l-.673.387v3.544l-1.91 1.1zm2.591.51l-.684.393v2.737l.5-.289a2.886 2.886 0 0 0 .956-.88 2.278 2.278 0 0 0 .37-1.307q0-.875-.506-.875a1.363 1.363 0 0 0-.636.222zm5.706-5.325l2.445-1.408 2.757 8.74-2.087 1.2-.5-1.918-2.771 1.6-.5 2.487-2.089 1.2zm1.088 1.8c-.062.345-.12.684-.182 1.009s-.109.586-.146.771l-.474 2.327 1.91-1.1-.472-1.786c-.036-.154-.087-.359-.148-.614s-.129-.519-.193-.791-.112-.5-.151-.69c-.038.239-.085.527-.144.875zm5.064-5.294l2.468-1.422c2.159-1.242 3.235-.836 3.232 1.206a4.534 4.534 0 0 1-.409 1.907 7.549 7.549 0 0 1-1.029 1.657l2.345 3.129-2.146 1.237-1.806-2.824-.751.435v3.858l-1.907 1.1zm2.389.552l-.482.278v2.58l.484-.278a3 3 0 0 0 1.026-.917 2.185 2.185 0 0 0 .345-1.225c0-.412-.109-.656-.325-.735a.475.475 0 0 0-.162-.026 1.98 1.98 0 0 0-.886.325zm5.109-4.865l1.921-1.1v4.593c.1-.266.2-.541.319-.816s.232-.55.345-.819l1.955-4.464 2.1-1.208-2.675 6.118 2.667 4.167-2.179 1.253-1.849-3.084-.684.97-.006 3.572-1.918 1.1zm7 4.857l.987-1.1.006-6.424-.987.036v-1.4l3.9-2.24v1.394l-.986 1.1v6.421l.987-.034v1.4l-3.9 2.24zm5.216-11.881l2.459-1.416 3.22 5.594.03-.02-.028-.69c-.011-.29-.022-.608-.03-.953s-.017-.676-.017-.99v-4.77l1.717-.987-.009 10.282-2.468 1.422-3.23-5.675-.044.028c.008.179.017.418.027.718s.025.628.037.979.027.693.036 1.026l-.006 4.753-1.705.981zm9.924 3.382q-1.014-.744-1.013-3.382a9.708 9.708 0 0 1 .485-3.073 8.635 8.635 0 0 1 1.422-2.647 7.953 7.953 0 0 1 2.3-1.968 6.471 6.471 0 0 1 1.329-.589 3.773 3.773 0 0 1 1.139-.2l-.617 2.3a2.911 2.911 0 0 0-.86.1 4 4 0 0 0-.993.421 3.888 3.888 0 0 0-1.23 1.13 5.24 5.24 0 0 0-.743 1.6 6.672 6.672 0 0 0-.25 1.837 3.427 3.427 0 0 0 .475 2.081c.319.4.813.4 1.488.017.186-.109.367-.227.544-.356s.323-.244.443-.345v-1.9l-1.483.85v-1.971l3.314-1.9-.006 5.429a15.249 15.249 0 0 1-1.362 1.223 12.727 12.727 0 0 1-1.6 1.085 3.7 3.7 0 0 1-1.782.584 1.629 1.629 0 0 1-.996-.325z" transform="translate(-11111.355 860.375)"/>
        </g>
    </g>
</svg>
