<svg xmlns="http://www.w3.org/2000/svg" width="48" height="48" viewBox="0 0 48 48">
    <g>
        <g fill="#626572">
            <path d="M921.585 410.668a5.619 5.619 0 0 1 1.145.133l3.23-9.638a.622.622 0 0 1 .31-.357l2.482-1.241a.621.621 0 0 1 .556 1.11l-2.254 1.127-2.163 6.456 7.524.01 1.322-1.322h-.984a.621.621 0 1 1 0-1.241h3.723a.621.621 0 1 1 0 1.241h-.984l-1.65 1.651a7.114 7.114 0 0 1 4.416 6.846.976.976 0 0 1 .453.812.993.993 0 1 1-1.986 0 .972.972 0 0 1 .433-.8 6.942 6.942 0 0 0-.822-3.309 4.322 4.322 0 1 0 2.257-.149.621.621 0 1 1 .248-1.216 5.614 5.614 0 1 1-3.248.321 6 6 0 0 0-2.841-1.746h-8.231l-.782 2.333c0 .015 0 .03-.006.045a.42.42 0 0 1-.022.041l-1.319 3.935a.962.962 0 0 1 .184.542.993.993 0 1 1-1.366-.917l1.124-3.357a4.332 4.332 0 1 0 2.177 1.065.62.62 0 1 1 .836-.916 5.584 5.584 0 1 1-3.764-1.459z" transform="translate(9 9) translate(-914.759 -395.776)"/>
        </g>
    </g>
    <path d="M177.03 255.635a24 24 0 1 1 24-24 24.028 24.028 0 0 1-24 24zm0-47a23 23 0 1 0 23 23 23.026 23.026 0 0 0-23-23z" opacity="0.1" transform="translate(-153.03 -207.635)"/>
</svg>
