<svg xmlns="http://www.w3.org/2000/svg" width="360" height="328" viewBox="0 0 360 328">
    <defs>
        <style>
            .cls-2{fill:#e6e6e6}.cls-6{opacity:.3}.cls-10,.cls-20,.cls-24,.cls-25,.cls-6,.cls-8{mix-blend-mode:overlay;isolation:isolate}.cls-7{fill:#ededef}.cls-10{opacity:.5}.cls-11{fill:#fff;opacity:.7}.cls-12{fill:#d09e17}.cls-15{fill:#ffd41d}.cls-18{fill:#ffbd99}.cls-20{opacity:.2}.cls-21{fill:#4a4a4a}.cls-22{fill:#315271}.cls-23{fill:#ff8879}.cls-24{opacity:.1}.cls-25{opacity:.4}.cls-26{fill:#0a1a4e}
        </style>
    </defs>
    <g id="img_creditcard_add_complete" transform="translate(6 -53)">
        <path id="패스_30979" d="M404.7 281.5c-5.827 3.364-5.826 8.822.009 12.191l55.022 31.769c5.835 3.366 15.293 3.371 21.117 0l69.9-40.186c5.825-3.365 5.823-8.822-.012-12.192l-55.024-31.764c-5.835-3.37-15.287-3.373-21.115-.008z" class="cls-2" transform="translate(-271.45 -17.546)"/>
        <path id="패스_30980" d="M359.67 380.741c-4.575-6.1-13.933-8.227-11.65-12.464 1.566-4.138 11.769-8.384 20.305-9.589 8.836-1.221 12.236 4.922 20.03 3.957 9.525-1.179 16.568 6.619 21.012 10.4 9.941 7.518-7.314 19.581-17.141 16.293-10.65-3.566-24.626 1.924-32.556-8.597z" class="cls-2" transform="translate(-263.179 -36.35)"/>
        <path id="패스_30981" d="M334.526 306.979c4.575-6.1 13.932-8.227 11.647-12.466-1.565-4.136-11.767-8.382-20.305-9.586-8.836-1.221-12.235 4.921-20.028 3.956-9.526-1.178-16.568 6.62-21.012 10.4-9.941 7.519 7.313 19.583 17.142 16.294 10.649-3.566 24.63 1.923 32.556-8.598z" class="cls-2" transform="translate(-252.843 -24.767)"/>
        <path id="패스_30982" d="M508.307 349.074l-68.92 18.237 19.363 6.306 3.523 6.859 6.513.269 7.932 8.12z" class="cls-2" transform="translate(-277.583 -34.866)"/>
        <g id="그룹_40776" transform="translate(38.289 96)">
            <path id="패스_30856" fill="#192850" d="M402.572 91.886c-3.042 1.756-4.984 4.391-5.13 6.613a12.066 12.066 0 0 0-.228 2.386v155.173c-.005 6.732 4.726 14.917 10.561 18.286l55.025 31.768a11.969 11.969 0 0 0 2.306 1.032c2.012.85 5.132.45 8.058-1.242a12.341 12.341 0 0 0 3.648-3.126 8.538 8.538 0 0 0 1.837-5.8V141.802c0-6.729-4.728-14.915-10.563-18.285L413.06 91.751a11.927 11.927 0 0 0-2.209-1c-1.998-.984-5.251-.617-8.279 1.135z" transform="translate(-309.25 -90.214)"/>
            <path id="패스_30858" fill="#2e3f6c" d="M473.366 300.611c0 6.729-4.729 9.452-10.567 6.086l-55.022-31.768c-5.835-3.369-10.566-11.554-10.561-18.286V101.47c0-6.726 4.73-9.454 10.565-6.084l55.019 31.769c5.835 3.368 10.565 11.554 10.565 18.283z" transform="translate(-309.25 -90.8)"/>
            <path id="패스_30860" fill="#37466e" d="M397.086 103.136v155.172c0 6.046 4.263 13.428 9.509 16.459l55.022 31.768c5.239 3.023 9.5.566 9.5-5.48V145.881c0-6.047-4.264-13.428-9.506-16.454l-55.019-31.769c-5.243-3.027-9.506-.569-9.506 5.478z" transform="translate(-309.229 -91.18)"/>
            <path id="패스_30861" d="M470.869 207.076c0 8.3 5.075 18.153 11.839 23.725v-33.776c-6.764-2.241-11.837 1.757-11.839 10.051z" class="cls-6" transform="translate(-320.817 -106.891)"/>
            <path id="패스_30862" d="M462.107 133.107l-4.619-2.665c-.937-.541-44.85-25.9-45.786-26.438l-4.619-2.665c-3.783-2.184-6.865-.411-6.863 3.958v155.17a15.172 15.172 0 0 0 6.865 11.885l55.02 31.767c3.787 2.188 6.868.413 6.868-3.952V144.992a15.2 15.2 0 0 0-6.866-11.885z" class="cls-7" transform="translate(-309.722 -91.814)"/>
            <path id="패스_30863" d="M470.869 207.075c0 7.177 3.8 15.522 9.2 21.251V196.45c-5.403-.511-9.198 3.45-9.2 10.625z" class="cls-8" transform="translate(-320.817 -106.891)"/>
            <path id="패스_30864" d="M461.11 291.094c0 2.017-1.42 2.835-3.17 1.825l-31.347-18.1a6.993 6.993 0 0 1-3.17-5.483v-46.678c0-2.021 1.418-2.836 3.17-1.825l31.345 18.1a7 7 0 0 1 3.171 5.484z" class="cls-8" transform="translate(-313.365 -110.659)"/>
            <g id="그룹_40756" opacity="0.3" transform="translate(95.78 26.646)">
                <path id="패스_30865" d="M454.226 315.441c0 2.268-1.593 3.186-3.559 2.052l-25.387-14.657a7.852 7.852 0 0 1-3.557-6.16v-2.051c0-2.266 1.59-3.186 3.557-2.052l25.387 14.658a7.86 7.86 0 0 1 3.559 6.159z" class="cls-8" transform="translate(-408.879 -148.563)"/>
                <path id="패스_30866" d="M464.676 180.48c0 2.019-1.42 2.836-3.169 1.825l-51.852-29.936a7 7 0 0 1-3.168-5.485v-22.8c0-2.018 1.42-2.835 3.168-1.825l51.852 29.935a7 7 0 0 1 3.169 5.484z" class="cls-8" transform="translate(-406.486 -121.824)"/>
                <path id="패스_30867" d="M415.257 146.977a13.357 13.357 0 0 1-1.448-5.681c0-4.357 3.065-6.123 6.844-3.941A15.115 15.115 0 0 1 427.5 149.2a5.228 5.228 0 0 1-1.447 4.008 13.6 13.6 0 0 0-3.823-6.291c.67-.176 1.108-.825 1.108-1.852a5.917 5.917 0 0 0-2.68-4.638c-1.479-.856-2.681-.164-2.681 1.543a5.728 5.728 0 0 0 1.11 3.133 3.023 3.023 0 0 0-3.83 1.874z" class="cls-10" transform="translate(-407.636 -124.117)"/>
                <path id="패스_30868" d="M420.923 153.818c2.194 1.265 4.142 1.194 5.395.066a13.6 13.6 0 0 0-3.823-6.291c.67-.176 1.108-.825 1.108-1.852a5.917 5.917 0 0 0-2.68-4.638c-1.479-.856-2.681-.164-2.681 1.543a5.728 5.728 0 0 0 1.11 3.133 3.023 3.023 0 0 0-3.825 1.876 14.539 14.539 0 0 0 5.396 6.163zm39 11.114c0 .486-.339.682-.76.438L434.7 151.249a1.683 1.683 0 0 1-.762-1.319c0-.481.341-.679.762-.436l24.459 14.121a1.68 1.68 0 0 1 .76 1.316zm-2.6-5.011a1.68 1.68 0 0 0-.763-1.315l-21.86-12.619c-.421-.243-.762-.046-.762.436a1.678 1.678 0 0 0 .762 1.318l21.855 12.618c.421.244.763.048.763-.438zm-4.793 4.25c0 .486-.341.682-.759.439l-17.071-9.852a1.682 1.682 0 0 1-.762-1.319c0-.483.341-.679.762-.436l17.066 9.852a1.686 1.686 0 0 1 .759 1.316zm-4.225 4.575c0 .487-.339.682-.762.439l-12.843-7.414a1.678 1.678 0 0 1-.762-1.318c0-.482.341-.679.762-.436l12.837 7.412a1.672 1.672 0 0 1 .762 1.315zm8.423 1.356a1.68 1.68 0 0 0-.762-1.316L434.7 156.511c-.421-.244-.762-.048-.762.436a1.679 1.679 0 0 0 .762 1.318l21.26 12.275c.422.243.762.047.762-.438z" class="cls-11" transform="translate(-407.906 -124.794)"/>
                <path id="패스_30869" d="M464.676 235.635c0 2.019-1.418 2.836-3.169 1.825l-51.85-29.935a7 7 0 0 1-3.17-5.486v-35.006c0-2.02 1.42-2.837 3.168-1.828l51.852 29.936a7 7 0 0 1 3.169 5.487z" class="cls-8" transform="translate(-406.486 -128.569)"/>
                <path id="패스_30870" d="M454.37 203.654c0 .486-.341.682-.761.44l-8.849-5.11a1.681 1.681 0 0 1-.76-1.318c0-.483.341-.679.76-.436l8.849 5.11a1.677 1.677 0 0 1 .761 1.313zm-5.282-6.557a1.679 1.679 0 0 0-.759-1.314l-3.57-2.061c-.42-.243-.76-.046-.76.436a1.683 1.683 0 0 0 .76 1.318l3.568 2.061c.42.242.76.045.76-.44zm10.563 13.115c0 .486-.339.682-.759.44l-14.133-8.161a1.68 1.68 0 0 1-.76-1.318c0-.482.341-.679.76-.436l14.133 8.161a1.673 1.673 0 0 1 .759 1.313zm-5.281 3.966c0 .486-.341.682-.759.439l-8.851-5.11a1.682 1.682 0 0 1-.76-1.318c0-.483.341-.679.762-.436l8.849 5.11a1.68 1.68 0 0 1 .759 1.314zm-5.282-6.558a1.681 1.681 0 0 0-.76-1.314l-3.568-2.059c-.42-.244-.76-.048-.76.436a1.683 1.683 0 0 0 .76 1.318l3.568 2.06c.42.242.76.046.76-.44zm10.563 14.869c0 .486-.339.683-.759.441l-44.321-25.59a1.679 1.679 0 0 1-.762-1.318c0-.482.341-.679.762-.436l44.321 25.589a1.677 1.677 0 0 1 .759 1.314zm-5.281 3.966c0 .486-.341.683-.759.441l-39.039-22.54a1.682 1.682 0 0 1-.762-1.318c0-.483.341-.679.762-.437l39.037 22.54a1.679 1.679 0 0 1 .761 1.314zm-5.282-6.557a1.681 1.681 0 0 0-.76-1.314l-33.756-19.489c-.422-.244-.761-.046-.761.436a1.677 1.677 0 0 0 .761 1.318l33.756 19.49c.42.242.76.045.76-.44zm-8.888-28.809l-25.626-14.795c-.422-.244-.762-.046-.761.436v14.032a1.682 1.682 0 0 0 .761 1.317l25.626 14.795c.418.242.759.048.759-.438V192.4a1.677 1.677 0 0 0-.759-1.311z" class="cls-11" transform="translate(-407.636 -130.362)"/>
                <path id="패스_30871" d="M464.676 291.454c0 2.021-1.418 2.838-3.169 1.826l-51.852-29.935a7 7 0 0 1-3.168-5.484v-33.4c0-2.02 1.42-2.837 3.17-1.827l51.85 29.935a7 7 0 0 1 3.169 5.484z" class="cls-8" transform="translate(-406.486 -137.588)"/>
                <path id="패스_30872" d="M459.5 285.532c-2.133-1.232-3.151-3.955-4.139-6.594-.917-2.444-1.782-4.752-3.439-5.71a5.165 5.165 0 0 0-3.608-.7 5.736 5.736 0 0 1-3.974-.8c-2.183-1.261-3.191-5.39-4.168-9.385-.886-3.633-1.8-7.388-3.406-8.314s-2.524 1.769-3.411 4.378c-.974 2.869-1.982 5.835-4.165 4.575-2.076-1.2-3.145-3.243-4.088-5.047-.914-1.747-1.776-3.393-3.487-4.382-1.631-.942-2.5.877-3.419 2.8-.983 2.053-2 4.179-4.154 2.935v-.919c1.632.941 2.5-.88 3.422-2.805.981-2.054 2-4.179 4.152-2.936 2.076 1.2 3.147 3.246 4.09 5.048.912 1.747 1.775 3.4 3.486 4.384 1.6.926 2.522-1.773 3.41-4.379.974-2.871 1.983-5.837 4.167-4.576s3.191 5.391 4.166 9.384c.885 3.633 1.8 7.391 3.408 8.317a5.135 5.135 0 0 0 3.572.694 5.779 5.779 0 0 1 4.009.813c2.128 1.23 3.149 3.953 4.137 6.588.917 2.447 1.783 4.756 3.443 5.714z" class="cls-11" transform="translate(-407.672 -142.308)"/>
                <path id="패스_30873" d="M425.2 253.8v-13.83l.8.46v14.87c-.1-.191-.2-.379-.3-.572-.159-.297-.326-.612-.5-.928zm-4.787-4.483v-12.106l-.8-.459v12.771a1.688 1.688 0 0 1 .804-.201zm11.166 8.116v-13.774l-.8-.461v15.564a5.375 5.375 0 0 0 .804-1.324zm5.179-7.276a3.277 3.277 0 0 1 .4.277v-3.554l-.8-.46v3.554a2.549 2.549 0 0 1 .404.188zm-22.725 6.184v3.513l.8.459v-3.652a2.763 2.763 0 0 1-.796-.315zm39.876 14.972v-14.761l-.8-.46v14.25a7.43 7.43 0 0 1 .804.976zm-6-2.761c.14-.015.28-.029.421-.039v-15.186l-.8-.459v15.72c.128-.01.253-.019.379-.031zm-5.16-2.866V250.1l-.8-.46v13.812a19.154 19.154 0 0 0 .8 2.239zm-27.915-31.7l-.8-.46v21.9a1.725 1.725 0 0 0 .8.25zm38.282 37.373v11.06l.8.46v-10.3a8.005 8.005 0 0 0-.8-1.218zm5.584 14.282l.8.462v-3.514a5.172 5.172 0 0 1-.8-.577zm-10.39-16.059c-.255.025-.51.046-.777.056v9.562l.8.46v-10.078zm-28.69-18.634v12.134l.8.459v-13.134a1.816 1.816 0 0 0-.8.541zm39.08 8.365v21.725a3.931 3.931 0 0 0 .8.634v-21.9zm-33.5-4.124v11.117l.8.459v-10.133c-.286-.484-.548-.967-.8-1.443zm5.58 4.984v9.353l.8.463V259.48a2.313 2.313 0 0 1-.796.693zm5.978-9.091a1.4 1.4 0 0 0-.394-.153v21.824l.8.459v-21.818a2.192 2.192 0 0 0-.402-.312zm5.189 14.4v10.488l.8.46v-9.34a11.166 11.166 0 0 1-.795-1.604z" class="cls-10" transform="translate(-407.672 -139.366)"/>
            </g>
            <path id="패스_30874" d="M441.967 123.7c0 .407-.288.569-.641.367l-8.848-5.107a1.424 1.424 0 0 1-.641-1.106c0-.407.292-.572.641-.369l8.844 5.107a1.431 1.431 0 0 1 .644 1.108zm2.752.851c-.356-.2-.642-.04-.639.369a1.389 1.389 0 0 0 .636 1.1c.354.2.641.04.639-.368a1.406 1.406 0 0 0-.636-1.1zm2.335 1.346c-.356-.2-.642-.04-.642.368a1.405 1.405 0 0 0 .642 1.107c.352.207.636.04.636-.368a1.413 1.413 0 0 0-.636-1.104z" class="cls-6" transform="translate(-314.687 -94.484)"/>
            <path id="패스_30879" d="M412.294 229.4l31.346 18.1a6.994 6.994 0 0 1 3.171 5.485v46.677c0 1.263-.553 2.054-1.4 2.224a1.491 1.491 0 0 0 .47-.174l1.05-.607a2.22 2.22 0 0 0 .933-2.052v-46.677a6.985 6.985 0 0 0-3.171-5.485l-31.345-18.1a2.192 2.192 0 0 0-2.27-.2l-.005-.008-1.019.59a2.228 2.228 0 0 1 2.24.227z" class="cls-12" transform="translate(-311.266 -111.909)"/>
            <path id="패스_30880" fill="#a16912" d="M412.294 229.4l31.346 18.1a6.994 6.994 0 0 1 3.171 5.485v46.677c0 1.263-.553 2.054-1.4 2.224a1.491 1.491 0 0 0 .47-.174l1.05-.607a2.22 2.22 0 0 0 .933-2.052v-46.677a6.985 6.985 0 0 0-3.171-5.485l-31.345-18.1a2.192 2.192 0 0 0-2.27-.2l-.005-.008-1.019.59a2.228 2.228 0 0 1 2.24.227z" transform="translate(-311.266 -111.909)"/>
            <path id="패스_30881" d="M446.637 299.776c0 2.019-1.417 2.836-3.169 1.825l-31.347-18.1a7 7 0 0 1-3.17-5.483v-46.677c0-2.021 1.42-2.836 3.17-1.825l31.345 18.1a6.994 6.994 0 0 1 3.171 5.485z" class="cls-12" transform="translate(-311.093 -112.022)"/>
            <path id="패스_30882" fill="#b17923" d="M415.379 262.186a.332.332 0 0 1 .132-.073.338.338 0 0 1 .133-.077.321.321 0 0 1 .131-.077.347.347 0 0 1 .132-.076.361.361 0 0 1 .133-.077 17.45 17.45 0 0 1 .266-.152.478.478 0 0 1 .593-.008l5.489 3.17a1.68 1.68 0 0 1 .76 1.312v6.333a.475.475 0 0 1-.3.508.328.328 0 0 1-.132.075.318.318 0 0 1-.132.077 59.835 59.835 0 0 0-.266.153.347.347 0 0 1-.133.076 26.135 26.135 0 0 0-.261.152.543.543 0 0 0 .168-.431v-6.333a1.673 1.673 0 0 0-.757-1.312l-5.489-3.169a.564.564 0 0 0-.467-.071zm7.766 20.8v-6.332a1.685 1.685 0 0 0-.76-1.317l-5.49-3.169a.476.476 0 0 0-.591.008 84.52 84.52 0 0 0-.266.153.354.354 0 0 0-.13.076.369.369 0 0 0-.135.077.351.351 0 0 0-.131.076.345.345 0 0 0-.133.077.349.349 0 0 0-.132.076.552.552 0 0 1 .461.069l5.489 3.172a1.671 1.671 0 0 1 .759 1.312v6.334a.543.543 0 0 1-.166.429 31.184 31.184 0 0 0 .395-.228 19.239 19.239 0 0 0 .266-.152.369.369 0 0 0 .132-.076.378.378 0 0 0 .132-.077.478.478 0 0 0 .3-.508zm9.124 5.268v-6.332a1.679 1.679 0 0 0-.757-1.316l-5.491-3.169a.479.479 0 0 0-.593 0 .428.428 0 0 0-.131.077.363.363 0 0 0-.134.077.379.379 0 0 0-.13.076.394.394 0 0 0-.133.076.369.369 0 0 0-.132.076.405.405 0 0 0-.131.077.382.382 0 0 0-.133.077.544.544 0 0 1 .459.068l5.489 3.17a1.681 1.681 0 0 1 .76 1.314v6.334a.544.544 0 0 1-.169.429.353.353 0 0 0 .132-.074.372.372 0 0 0 .133-.077.309.309 0 0 0 .131-.079.3.3 0 0 0 .131-.073.375.375 0 0 0 .133-.075.328.328 0 0 0 .13-.079.36.36 0 0 0 .134-.074.483.483 0 0 0 .302-.503zm0-10.524v-6.33a1.665 1.665 0 0 0-.76-1.312l-5.488-3.171a.48.48 0 0 0-.593.007.358.358 0 0 0-.131.077.367.367 0 0 0-.134.076.343.343 0 0 0-.13.076.338.338 0 0 0-.132.077.349.349 0 0 0-.133.076.365.365 0 0 0-.131.077.347.347 0 0 0-.133.077.549.549 0 0 1 .459.068l5.489 3.171a1.67 1.67 0 0 1 .759 1.313v6.333a.551.551 0 0 1-.169.431.334.334 0 0 0 .132-.076.339.339 0 0 0 .133-.077.32.32 0 0 0 .131-.076.329.329 0 0 0 .131-.077.3.3 0 0 0 .133-.077 11.172 11.172 0 0 1 .264-.152.474.474 0 0 0 .302-.512zm-16.429-25.994l5.489 3.171a1.668 1.668 0 0 1 .759 1.311v6.332a.56.56 0 0 1-.166.434.4.4 0 0 0 .13-.077.388.388 0 0 0 .133-.077.346.346 0 0 0 .132-.076.408.408 0 0 0 .134-.076.439.439 0 0 0 .132-.076.43.43 0 0 0 .132-.077.407.407 0 0 0 .132-.077.48.48 0 0 0 .3-.509v-6.333a1.683 1.683 0 0 0-.76-1.313l-5.489-3.17a.484.484 0 0 0-.593.005.4.4 0 0 0-.134.077.374.374 0 0 0-.131.077.415.415 0 0 0-.133.077.394.394 0 0 0-.132.076.4.4 0 0 0-.133.077.41.41 0 0 0-.131.076.386.386 0 0 0-.132.076.552.552 0 0 1 .461.072zm9.123 5.264l5.489 3.17a1.675 1.675 0 0 1 .76 1.313v6.332a.559.559 0 0 1-.169.432.335.335 0 0 0 .132-.076.349.349 0 0 0 .133-.077.3.3 0 0 0 .131-.076.317.317 0 0 0 .131-.076.366.366 0 0 0 .133-.077.3.3 0 0 0 .13-.077.324.324 0 0 0 .134-.077.472.472 0 0 0 .3-.506v-6.334a1.68 1.68 0 0 0-.757-1.313l-5.493-3.169a.477.477 0 0 0-.591.005.37.37 0 0 0-.131.077.365.365 0 0 0-.134.076.345.345 0 0 0-.13.077 39.113 39.113 0 0 1-.265.152.382.382 0 0 0-.134.077.355.355 0 0 0-.13.076.556.556 0 0 1 .461.071zm9.587 15.185a.351.351 0 0 0-.132.076.354.354 0 0 0-.133.077.338.338 0 0 0-.131.075.369.369 0 0 0-.133.077.338.338 0 0 0-.131.077.36.36 0 0 0-.133.076.34.34 0 0 0-.131.076.556.556 0 0 1 .459.073l5.489 3.168a1.674 1.674 0 0 1 .76 1.313v6.333a.552.552 0 0 1-.169.431.348.348 0 0 0 .132-.076.357.357 0 0 0 .133-.077.353.353 0 0 0 .13-.076.362.362 0 0 0 .133-.077.33.33 0 0 0 .132-.076.369.369 0 0 0 .134-.077.353.353 0 0 0 .13-.075.476.476 0 0 0 .3-.508v-6.333a1.669 1.669 0 0 0-.757-1.312l-5.493-3.171a.477.477 0 0 0-.589.009zm-18.713-30.977l23.738 13.706a1.675 1.675 0 0 1 .76 1.314v6.333a.542.542 0 0 1-.169.429.355.355 0 0 0 .132-.074.359.359 0 0 0 .133-.078.34.34 0 0 0 .13-.074.386.386 0 0 0 .133-.076.365.365 0 0 0 .132-.077.374.374 0 0 0 .131-.076.363.363 0 0 0 .133-.076.48.48 0 0 0 .3-.507v-6.333a1.688 1.688 0 0 0-.759-1.315L416.9 240.6a.478.478 0 0 0-.591.007.364.364 0 0 0-.134.076.387.387 0 0 0-.131.077.429.429 0 0 0-.133.076.357.357 0 0 0-.132.077.35.35 0 0 0-.131.076.425.425 0 0 0-.133.076.353.353 0 0 0-.132.078.559.559 0 0 1 .454.068zm18.713 41.5a.375.375 0 0 0-.132.076 45.649 45.649 0 0 0-.264.153.37.37 0 0 0-.133.077.347.347 0 0 0-.131.076.338.338 0 0 0-.13.077.364.364 0 0 0-.134.076.563.563 0 0 1 .459.069l5.489 3.172a1.673 1.673 0 0 1 .76 1.314v6.333a.562.562 0 0 1-.169.432.353.353 0 0 0 .132-.074.388.388 0 0 0 .133-.078.314.314 0 0 0 .13-.077 4.51 4.51 0 0 0 .265-.152.312.312 0 0 0 .131-.077.362.362 0 0 0 .133-.073.484.484 0 0 0 .3-.51v-6.331a1.687 1.687 0 0 0-.759-1.316l-5.491-3.169a.479.479 0 0 0-.589.003zm0-21.044a.414.414 0 0 0-.133.077.367.367 0 0 0-.132.076.352.352 0 0 0-.131.077 36.778 36.778 0 0 1-.265.152.362.362 0 0 0-.133.077.341.341 0 0 0-.131.077.55.55 0 0 1 .459.069l5.489 3.169a1.679 1.679 0 0 1 .76 1.315v6.331a.555.555 0 0 1-.169.434.384.384 0 0 0 .133-.077.345.345 0 0 0 .132-.076.353.353 0 0 0 .13-.076.348.348 0 0 0 .133-.077.341.341 0 0 0 .132-.076.383.383 0 0 0 .134-.077.343.343 0 0 0 .13-.077.48.48 0 0 0 .3-.509v-6.331a1.687 1.687 0 0 0-.757-1.316l-5.491-3.168a.482.482 0 0 0-.59.008z" transform="translate(-312.102 -113.816)"/>
            <path id="패스_30884" d="M421.273 255.019l-5.489-3.171c-.42-.244-.763-.047-.763.436v6.331a1.69 1.69 0 0 0 .76 1.318l5.493 3.169c.419.244.759.048.757-.438v-6.332a1.668 1.668 0 0 0-.758-1.313zm9.122 5.266l-5.489-3.17c-.42-.243-.762-.047-.76.437v6.33a1.681 1.681 0 0 0 .76 1.318l5.489 3.169c.416.24.76.047.76-.439v-6.33a1.675 1.675 0 0 0-.755-1.315zm9.122 5.265l-5.489-3.169c-.422-.244-.76-.047-.762.436v6.335a1.668 1.668 0 0 0 .76 1.313l5.489 3.171c.42.241.762.045.76-.441v-6.331a1.68 1.68 0 0 0-.757-1.314zm-18.245-.012l-5.489-3.169c-.423-.243-.761-.046-.763.435v6.334a1.677 1.677 0 0 0 .763 1.315l5.486 3.171c.422.24.76.046.762-.441v-6.333a1.673 1.673 0 0 0-.758-1.311zm9.122 5.268l-5.489-3.171c-.42-.243-.76-.046-.762.436v6.329a1.679 1.679 0 0 0 .762 1.318l5.489 3.169c.42.243.76.048.76-.437v-6.333a1.67 1.67 0 0 0-.754-1.311zm9.122 5.268l-5.489-3.168c-.422-.244-.76-.051-.76.436v6.332a1.684 1.684 0 0 0 .76 1.315l5.489 3.169c.42.24.76.047.76-.438v-6.333a1.674 1.674 0 0 0-.758-1.313zm-18.245-.011l-5.489-3.172c-.423-.243-.761-.048-.761.437v6.332a1.684 1.684 0 0 0 .761 1.318l5.489 3.169c.421.24.757.045.757-.438v-6.334a1.671 1.671 0 0 0-.755-1.312zm9.122 5.265l-5.489-3.169c-.422-.243-.762-.047-.76.437v6.333a1.673 1.673 0 0 0 .76 1.315l5.489 3.171c.42.241.759.045.76-.438v-6.334a1.681 1.681 0 0 0-.753-1.315zm9.122 5.269l-5.489-3.172c-.422-.243-.76-.046-.76.439v6.33a1.681 1.681 0 0 0 .762 1.318l5.489 3.169c.42.243.758.047.76-.437v-6.333a1.673 1.673 0 0 0-.759-1.311zm0-31.567l-23.738-13.706c-.42-.24-.76-.045-.758.436v6.34a1.668 1.668 0 0 0 .761 1.315l23.734 13.7c.42.241.76.043.76-.438v-6.333a1.675 1.675 0 0 0-.756-1.314z" class="cls-15" transform="translate(-312.046 -113.929)"/>
            <path id="패스_30885" fill="#5fa0ce" d="M439.386 291.36l-4.368-2.524v-.974l4.365 2.521zm0 .813l-4.37-2.521v.976l4.368 2.522zm0-21.937l-1.762-1.017v-2.032l-.85-.488v2.03l-1.76-1.016v.974l1.76 1.017v2.03l.848.488v-2.03l1.762 1.017zm-.339 12.249l-1.248-2.158 1.247-.716-.6-1.036-1.243.717-1.246-2.155-.6.346 1.246 2.151-1.246.719.6 1.034 1.246-.716 1.243 2.155zm-11.268-7c-.058.009-.083.043-.083.119v.6a.228.228 0 0 0 .117.207l.647.374v-.286c0-.086.046-.112.122-.067l.574.33a.232.232 0 0 1 .119.207v1.058c0 .089-.043.112-.119.067L427 276.855a.231.231 0 0 1-.12-.208v-2.034c0-.132.041-.165.158-.165l1.418-.064v-1.017a.458.458 0 0 0-.237-.415l-.288-.168c-.159-.093-.239-.042-.239.139v.539c0 .068-.033.089-.093.054l-.622-.362a.181.181 0 0 1-.1-.161v-.735c0-.647.3-.819.862-.5l.668.389a1.655 1.655 0 0 1 .862 1.487v1.629c0 .131-.048.159-.159.164zm-7.622-16.885c0 .067-.037.089-.1.056l-.6-.347a.172.172 0 0 1-.094-.163v-.556a.455.455 0 0 0-.239-.412l-.311-.178c-.16-.1-.239-.041-.239.136v3.144a.459.459 0 0 0 .239.418l.311.179c.156.089.239.047.239-.139v-.552c0-.069.031-.1.1-.057l.6.347a.188.188 0 0 1 .1.167v.743c0 .649-.307.818-.863.5l-.67-.385a1.667 1.667 0 0 1-.867-1.5v-3.53c0-.651.3-.819.867-.5l.667.386a1.66 1.66 0 0 1 .863 1.494zm0 21.568c0 .255-.164.357-.378.272v.013a.958.958 0 0 1 .381.708v1.27c0 .645-.309.815-.868.493l-.693-.4a1.606 1.606 0 0 1-.84-1.452v-.224c0-.091.04-.115.118-.072l.57.331a.232.232 0 0 1 .124.209v.282l.672.387c.075.046.12.02.12-.068v-.98a.452.452 0 0 0-.242-.415l-.7-.407a.232.232 0 0 1-.12-.207v-.635c0-.09.04-.114.12-.068l.708.406c.154.091.239.041.239-.131v-.986a.232.232 0 0 0-.12-.207l-.67-.386v.281c0 .09-.041.114-.119.072l-.573-.334a.228.228 0 0 1-.121-.207v-.282c0-.6.293-.743.84-.431l.693.4a1.667 1.667 0 0 1 .868 1.5zm9.282 6.119a.233.233 0 0 1 .122.207v.593c0 .089-.045.112-.122.069l-.245-.143v1.489c0 .093-.043.117-.121.069l-.519-.3a.236.236 0 0 1-.118-.207v-1.506l-1.715-.99a.234.234 0 0 1-.122-.207v-.614a.2.2 0 0 1 .038-.141l1.539-1.983c.03-.045.078-.045.143-.01l.629.365c.1.056.132.146.076.21l-1.5 2.005.91.525v-.829c0-.091.04-.115.118-.07l.519.3a.229.229 0 0 1 .12.207v.813zm-9.921-19.273a.2.2 0 0 1 .092.164v5.3c0 .072-.036.094-.1.058l-.62-.361a.178.178 0 0 1-.1-.166v-4.356l-.372-.16a.2.2 0 0 1-.124-.2v-.663c0-.089.033-.116.114-.078zm10.743-1.071l-4.365-2.521v-.976l4.367 2.523zm-1.732-3.223a.99.99 0 0 0-.451-.775c-.245-.142-.444-.026-.448.258a1.009 1.009 0 0 0 .448.776c.248.14.45.026.45-.26zm0 3.466a.991.991 0 0 0-.448-.774c-.249-.146-.448-.03-.451.257a.989.989 0 0 0 .448.775c.248.141.45.025.45-.259zm-1.8-15.06c0-.648.3-.822.863-.5l.668.389a1.64 1.64 0 0 1 .861 1.492v3.535c0 .649-.3.823-.862.5l-.67-.386a1.646 1.646 0 0 1-.86-1.491zm1.382 4.439c.158.088.24.05.239-.14v-3.188a.457.457 0 0 0-.239-.416l-.346-.2c-.157-.091-.24-.041-.24.14v3.185a.453.453 0 0 0 .239.417zm3.166-.672a1.609 1.609 0 0 1 .84 1.452v1.455c0 .629-.3.8-.841.484l-.718-.415a1.606 1.606 0 0 1-.836-1.451v-1.774a.7.7 0 0 1 .061-.313l.848-1.843c.027-.054.066-.063.14-.023l.62.36c.09.051.13.136.09.21l-.724 1.557zm-.19 2.368c.155.091.24.04.238-.138v-1.017a.45.45 0 0 0-.236-.412l-.336-.195c-.157-.089-.239-.04-.242.138v1.017a.446.446 0 0 0 .239.411zm1.625 1.078c0-.091.043-.115.121-.067l.546.312a.23.23 0 0 1 .119.207v.636c0 .088-.043.112-.122.067l-.545-.314a.231.231 0 0 1-.119-.207zm1.383-2.96c0-.648.3-.82.866-.5l.667.388a1.649 1.649 0 0 1 .862 1.492v3.541c0 .649-.3.822-.862.5l-.672-.388a1.641 1.641 0 0 1-.861-1.492zm1.382 4.439c.155.089.24.047.24-.141v-3.186a.455.455 0 0 0-.236-.416l-.347-.2c-.154-.089-.238-.041-.24.14v3.185a.45.45 0 0 0 .24.417zm2.449.171a1.612 1.612 0 0 1-.839-1.453v-1.457c0-.628.293-.795.839-.481l.717.411a1.614 1.614 0 0 1 .84 1.454v1.773a.693.693 0 0 1-.061.312l-.85 1.842c-.021.055-.067.065-.138.024l-.622-.359a.156.156 0 0 1-.089-.207l.723-1.56zm.194-2.369c-.158-.09-.242-.041-.242.138v1.015a.461.461 0 0 0 .242.416l.333.195c.154.088.24.04.24-.141v-1.015a.454.454 0 0 0-.24-.412z" transform="translate(-312.475 -115.381)"/>
            <path id="패스_30886" fill="#7e510b" d="M439.386 291.36l-4.368-2.524v-.974l4.365 2.521zm0 .813l-4.37-2.521v.976l4.368 2.522zm0-21.937l-1.762-1.017v-2.032l-.85-.488v2.03l-1.76-1.016v.974l1.76 1.017v2.03l.848.488v-2.03l1.762 1.017zm-.339 12.249l-1.248-2.158 1.247-.716-.6-1.036-1.243.717-1.246-2.155-.6.346 1.246 2.151-1.246.719.6 1.034 1.246-.716 1.243 2.155zm-11.268-7c-.058.009-.083.043-.083.119v.6a.228.228 0 0 0 .117.207l.647.374v-.286c0-.086.046-.112.122-.067l.574.33a.232.232 0 0 1 .119.207v1.058c0 .089-.043.112-.119.067L427 276.855a.231.231 0 0 1-.12-.208v-2.034c0-.132.041-.165.158-.165l1.418-.064v-1.017a.458.458 0 0 0-.237-.415l-.288-.168c-.159-.093-.239-.042-.239.139v.539c0 .068-.033.089-.093.054l-.622-.362a.181.181 0 0 1-.1-.161v-.735c0-.647.3-.819.862-.5l.668.389a1.655 1.655 0 0 1 .862 1.487v1.629c0 .131-.048.159-.159.164zm-7.622-16.885c0 .067-.037.089-.1.056l-.6-.347a.172.172 0 0 1-.094-.163v-.556a.455.455 0 0 0-.239-.412l-.311-.178c-.16-.1-.239-.041-.239.136v3.144a.459.459 0 0 0 .239.418l.311.179c.156.089.239.047.239-.139v-.552c0-.069.031-.1.1-.057l.6.347a.188.188 0 0 1 .1.167v.743c0 .649-.307.818-.863.5l-.67-.385a1.667 1.667 0 0 1-.867-1.5v-3.53c0-.651.3-.819.867-.5l.667.386a1.66 1.66 0 0 1 .863 1.494zm0 21.568c0 .255-.164.357-.378.272v.013a.958.958 0 0 1 .381.708v1.27c0 .645-.309.815-.868.493l-.693-.4a1.606 1.606 0 0 1-.84-1.452v-.224c0-.091.04-.115.118-.072l.57.331a.232.232 0 0 1 .124.209v.282l.672.387c.075.046.12.02.12-.068v-.98a.452.452 0 0 0-.242-.415l-.7-.407a.232.232 0 0 1-.12-.207v-.635c0-.09.04-.114.12-.068l.708.406c.154.091.239.041.239-.131v-.986a.232.232 0 0 0-.12-.207l-.67-.386v.281c0 .09-.041.114-.119.072l-.573-.334a.228.228 0 0 1-.121-.207v-.282c0-.6.293-.743.84-.431l.693.4a1.667 1.667 0 0 1 .868 1.5zm9.282 6.119a.233.233 0 0 1 .122.207v.593c0 .089-.045.112-.122.069l-.245-.143v1.489c0 .093-.043.117-.121.069l-.519-.3a.236.236 0 0 1-.118-.207v-1.506l-1.715-.99a.234.234 0 0 1-.122-.207v-.614a.2.2 0 0 1 .038-.141l1.539-1.983c.03-.045.078-.045.143-.01l.629.365c.1.056.132.146.076.21l-1.5 2.005.91.525v-.829c0-.091.04-.115.118-.07l.519.3a.229.229 0 0 1 .12.207v.813zm-9.921-19.273a.2.2 0 0 1 .092.164v5.3c0 .072-.036.094-.1.058l-.62-.361a.178.178 0 0 1-.1-.166v-4.356l-.372-.16a.2.2 0 0 1-.124-.2v-.663c0-.089.033-.116.114-.078zm10.743-1.071l-4.365-2.521v-.976l4.367 2.523zm-1.732-3.223a.99.99 0 0 0-.451-.775c-.245-.142-.444-.026-.448.258a1.009 1.009 0 0 0 .448.776c.248.14.45.026.45-.26zm0 3.466a.991.991 0 0 0-.448-.774c-.249-.146-.448-.03-.451.257a.989.989 0 0 0 .448.775c.248.141.45.025.45-.259zm-1.8-15.06c0-.648.3-.822.863-.5l.668.389a1.64 1.64 0 0 1 .861 1.492v3.535c0 .649-.3.823-.862.5l-.67-.386a1.646 1.646 0 0 1-.86-1.491zm1.382 4.439c.158.088.24.05.239-.14v-3.188a.457.457 0 0 0-.239-.416l-.346-.2c-.157-.091-.24-.041-.24.14v3.185a.453.453 0 0 0 .239.417zm3.166-.672a1.609 1.609 0 0 1 .84 1.452v1.455c0 .629-.3.8-.841.484l-.718-.415a1.606 1.606 0 0 1-.836-1.451v-1.774a.7.7 0 0 1 .061-.313l.848-1.843c.027-.054.066-.063.14-.023l.62.36c.09.051.13.136.09.21l-.724 1.557zm-.19 2.368c.155.091.24.04.238-.138v-1.017a.45.45 0 0 0-.236-.412l-.336-.195c-.157-.089-.239-.04-.242.138v1.017a.446.446 0 0 0 .239.411zm1.625 1.078c0-.091.043-.115.121-.067l.546.312a.23.23 0 0 1 .119.207v.636c0 .088-.043.112-.122.067l-.545-.314a.231.231 0 0 1-.119-.207zm1.383-2.96c0-.648.3-.82.866-.5l.667.388a1.649 1.649 0 0 1 .862 1.492v3.541c0 .649-.3.822-.862.5l-.672-.388a1.641 1.641 0 0 1-.861-1.492zm1.382 4.439c.155.089.24.047.24-.141v-3.186a.455.455 0 0 0-.236-.416l-.347-.2c-.154-.089-.238-.041-.24.14v3.185a.45.45 0 0 0 .24.417zm2.449.171a1.612 1.612 0 0 1-.839-1.453v-1.457c0-.628.293-.795.839-.481l.717.411a1.614 1.614 0 0 1 .84 1.454v1.773a.693.693 0 0 1-.061.312l-.85 1.842c-.021.055-.067.065-.138.024l-.622-.359a.156.156 0 0 1-.089-.207l.723-1.56zm.194-2.369c-.158-.09-.242-.041-.242.138v1.015a.461.461 0 0 0 .242.416l.333.195c.154.088.24.04.24-.141v-1.015a.454.454 0 0 0-.24-.412z" transform="translate(-312.475 -115.381)"/>
            <g id="그룹_40759" transform="translate(32.971 33.372)">
                <path id="패스_30887" d="M386 144.091a15.212 15.212 0 0 0-3.265-.655c-1.028-.231-2.99 1.012-4.544 2.23-.827.643-6.462 2.832-6.766 2.993-3.33 1.759-12.818 6.1-16.344 8.1h.005a3.077 3.077 0 0 0-.4.618.126.126 0 0 1-.008.02 3.706 3.706 0 0 0-.263.762v.012a3.521 3.521 0 0 0-.071.894 3.573 3.573 0 0 0 .185.987 6.955 6.955 0 0 0 3.446 3.631 11.272 11.272 0 0 1-1.152.663 11.6 11.6 0 0 0 1.183-.68.32.32 0 0 1 .064-.037c.538-.361 1.006-.657 1.419-.905 1-.652 2.1-1.411 3.482-2.347 2.382-1.607 7.555-5.123 10.216-6.923.58-.359 1.194-.749 1.877-1.209 1.985-1.336 2.7-.672 4.529-.76s3.531-1.25 4.684-1.978 1.673-.917 2.046-1.13.744-.167.736.449.228.926 1 1.028.76-1.346.748-1.685a1.971 1.971 0 0 0-.2-1.227c-.323-.577.038-.58-.327-1.076s-.277-.4-.295-.783-.494-.421-1.985-.992z" class="cls-18" transform="translate(-335.487 -131.94)"/>
                <path id="패스_30888" d="M381.215 150.152c-2.078.927-2.4-.044-4.422.455a10.888 10.888 0 0 0-1.543.575c-.048.023-.09.04-.14.065-.744.335-1.554.757-2.356 1.215-.064.036-.126.073-.2.108-.053.032-.105.062-.157.091-2.695 1.532-5.9 3.63-8.447 5.3-3.32 2.176-5.826 3.58-7.944 4.772a9.769 9.769 0 0 0 2.224 1.691 11.268 11.268 0 0 1-1.152.663 11.6 11.6 0 0 0 1.183-.68.318.318 0 0 1 .064-.037c.538-.361 1.006-.657 1.419-.905 1-.652 2.1-1.411 3.482-2.347 2.382-1.607 7.555-5.121 10.214-6.921.58-.358 1.2-.752 1.879-1.211 1.985-1.336 2.7-.672 4.529-.76s3.531-1.25 4.684-1.978 1.672-.917 2.046-1.13.744-.167.736.449a.839.839 0 0 0 .646.94 2.188 2.188 0 0 0-.133-1.9c-1.127-1.383-4.536.614-6.612 1.545z" class="cls-6" transform="translate(-335.75 -132.682)"/>
                <path id="패스_30889" fill="#ffd762" d="M351.013 158.064a3.575 3.575 0 0 1-.185-.987 3.524 3.524 0 0 1 .071-.894v-.012a3.7 3.7 0 0 1 .263-.762.123.123 0 0 0 .008-.02 3.077 3.077 0 0 1 .4-.618c-1.606.857-2.218-.018-2.584-.878-.064-.152-.116-.294-.169-.437-.03-.073-.059-.149-.087-.224l-.007-.013c-.954-2.427-1.94-4.883-2.442-5.989-2.1-4.662-5.5-10.863-9.156-14.072s-3.932-2.468-4.15-1.978c-1.595 3.567-1.192 5.027.574 9.085 1.3 3.009 5.65 11.368 8.46 16.856a17.735 17.735 0 0 0 2.509 3.471c0 .007 0 .017.007.023.161.171.327.335.5.495.051.047.108.1.159.143a9.072 9.072 0 0 0 .926.734c.026.019.052.039.08.056 2.123 1.44 4.864 1.9 8.269-.342a6.955 6.955 0 0 1-3.446-3.637z" transform="translate(-331.976 -129.95)"/>
                <path id="패스_30890" d="M340.516 133.206c-2.348-2.859-5.479-4.168-7-2.925s-.845 4.573 1.5 7.431 5.479 4.174 7 2.928.847-4.573-1.5-7.434z" class="cls-7" transform="translate(-332.091 -129.805)"/>
                <path id="패스_30891" d="M340.4 133.2a10.379 10.379 0 0 0-3.786-2.988v-.008a3.673 3.673 0 0 0-2.564-.278 1.94 1.94 0 0 0-.268.143 2.025 2.025 0 0 0-.349.184.013.013 0 0 1-.008.009c-.008.006-.017.008-.025.014a2.322 2.322 0 0 0-.757 1.565c-1.172 2.987-.721 4.542.9 8.269.074.174.162.372.258.577.03.068.061.138.1.208.067.145.137.3.213.457.045.1.088.193.136.288.075.157.152.317.229.482.051.1.1.208.153.317.091.183.182.373.276.564.05.1.093.194.144.3.14.281.284.58.435.884.059.115.122.236.18.356.1.212.207.419.317.636.059.12.118.236.181.36l.185.368c1.791 3.556 3.992 7.807 5.653 11.06a13.923 13.923 0 0 0 4.561 5.138.068.068 0 0 1-.019 0c.108.067.221.118.33.177a7.188 7.188 0 0 0 .715.339 6.471 6.471 0 0 0 .836.276c.124.03.247.058.371.079a7.513 7.513 0 0 0 5.66-1.425 9.77 9.77 0 0 1-2.224-1.691c-3.817 2.148-6.519-2.242-6.843-2.895-1.27-2.54-4.233-8.008-6.71-12.8-.056-.105-.107-.208-.158-.314-.231-.444-.456-.884-.676-1.316-.814-1.629-1.517-3.137-2.067-4.321a10.426 10.426 0 0 1-.769-2.2.022.022 0 0 1-.006-.012 7.055 7.055 0 0 1-.121-.816c-.007-.1-.015-.191-.023-.287a5.649 5.649 0 0 1 0-.6c0-.071.014-.138.021-.207.739-2.88 5.709-2.644 7.545 2.812v-.032a10.791 10.791 0 0 0-2.026-3.672z" class="cls-20" transform="translate(-331.979 -129.804)"/>
            </g>
            <g id="그룹_40768" transform="translate(51.079 15.65)">
                <g id="그룹_40767">
                    <path id="패스_30893" d="M366.114 381.8a3.959 3.959 0 0 0 3.944-3.948v-12.757a3.946 3.946 0 0 0-7.893 0v12.757a3.96 3.96 0 0 0 3.949 3.948z" class="cls-21" transform="translate(-354.825 -148.412)"/>
                    <path id="패스_30894" d="M370.95 366.779v11.957a3.956 3.956 0 0 1-3.108 3.852V370.63a3.956 3.956 0 0 1 3.108-3.851z" class="cls-6" transform="translate(-355.716 -149.296)"/>
                    <path id="패스_30895" d="M366.122 383.76a4.456 4.456 0 0 0 3.906-2.354 3.924 3.924 0 0 1-7.817 0 4.466 4.466 0 0 0 3.911 2.354z" class="cls-6" transform="translate(-354.832 -151.593)"/>
                    <path id="패스_30896" d="M366.114 361.149a3.958 3.958 0 0 1 3.944 3.946v8.391a4.653 4.653 0 0 1-3.64 1.838 5.282 5.282 0 0 1-4.253-2.065v-8.163a3.959 3.959 0 0 1 3.949-3.947z" class="cls-6" transform="translate(-354.825 -148.412)"/>
                    <g id="그룹_40760" transform="translate(30.894 223.706)">
                        <path id="패스_30897" d="M391.675 377.126s-3.316 8.333-.3 9.945 5.67-.132 9.03-1.482 8.811-3.927 9.859-4.409 3.536-1.81 3.184-4.621c-.349-2.8-4.757-2.924-10.558-1.527s-11.215 2.094-11.215 2.094z" class="cls-21" transform="translate(-390.106 -374.161)"/>
                        <path id="패스_30898" d="M400.055 375.977l.064 1.9a4.657 4.657 0 0 1-3.819 4.844 5.306 5.306 0 0 1-5.442-2.4 29.664 29.664 0 0 1 .936-2.9s3.699-.49 8.261-1.444z" class="cls-6" transform="translate(-390.224 -374.446)"/>
                        <path id="패스_30899" d="M397.855 377.83s.588-.756 1.568-1.838c1.389-.271 2.9-.591 4.434-.96 5.8-1.4 10.209-1.268 10.558 1.527.352 2.811-2.137 4.143-3.184 4.621s-6.5 3.056-9.859 4.409c-1.565.629-2.978 1.341-4.346 1.761-2.044-2.292.829-9.52.829-9.52z" class="cls-6" transform="translate(-391.078 -374.161)"/>
                        <path id="패스_30900" d="M391.372 386.717c3.009 1.613 5.67-.132 9.03-1.483s8.811-3.926 9.859-4.407c.914-.417 2.917-1.485 3.186-3.612.223 2.685-2.163 3.977-3.186 4.445-1.048.482-6.5 3.056-9.859 4.409s-6.02 3.1-9.03 1.482c-1.043-.557-1.318-1.927-1.243-3.472a2.936 2.936 0 0 0 1.243 2.638z" class="cls-6" transform="translate(-390.108 -374.641)"/>
                    </g>
                    <path id="패스_30901" d="M359.69 269.939l.958 84.582a5.308 5.308 0 0 0 5.382 5.258 4.659 4.659 0 0 0 4.565-4.148l10.7-81.98z" class="cls-22" transform="translate(-354.436 -134.088)"/>
                    <path id="패스_30902" d="M372.584 292.989a14.808 14.808 0 0 1-1.115-5.676 14.4 14.4 0 0 1 2.208-7.779l.561-6.872 8.23 1.416-.085.665c5.416.378 9.718 5.853 9.718 12.569 0 6.963-4.619 12.607-10.314 12.607a8.538 8.538 0 0 1-2.636-.432l-7.388 56.571a4.659 4.659 0 0 1-4.565 4.148c-.026 0-.053-.007-.079-.007z" class="cls-20" transform="translate(-355.602 -134.516)"/>
                    <path id="패스_30903" d="M371.357 282.546a14.647 14.647 0 0 1 1.582-6.686l-.805-4.828 5.31.022a8.571 8.571 0 0 1 8.519.036l8.1.035L397.056 360a4.657 4.657 0 0 1-3.819 4.844 5.306 5.306 0 0 1-6.176-4.295l-11.284-67.668a13.574 13.574 0 0 1-4.42-10.335z" class="cls-22" transform="translate(-356.268 -134.088)"/>
                    <path id="패스_30904" d="M393.254 364.069l-6.809-88.669-13.385.518-.781-4.686 21.927.094 3 88.875a4.657 4.657 0 0 1-3.819 4.844c-.048.01-.1.005-.143.012a4.685 4.685 0 0 0 .01-.988z" class="cls-20" transform="translate(-356.413 -134.292)"/>
                    <g id="그룹_40766">
                        <path id="패스_30905" d="M372.254 272.192c3.092-6.213 9.986.073 18 .073a26.433 26.433 0 0 1 2.916.16l.112 1.344c-.693 3.043-3.481 5.216-6.965 5.986-6.526 1.444-22.172-.652-26.592-6.843l-.033-3.05z" class="cls-6" transform="translate(-354.436 -134.011)"/>
                        <g id="그룹_40764" transform="translate(2.779)">
                            <g id="그룹_40762" transform="translate(0 63.075)">
                                <g id="그룹_40761" transform="translate(29.27)">
                                    <path id="패스_30906" d="M391.77 198.728c1.392-1.69 4.2-3.861 4.253-5.19a7.984 7.984 0 0 1 .224-2.371 8.9 8.9 0 0 1 1.393-3.512c.851-1.3 1.09-2.95 1.883-2.869s.72 1.038.739 1.462-.887 2.745-.762 2.848 1.071-.421 1.828-.84a9.036 9.036 0 0 0 2.17-1.716c.626-.669 3.073-3.137 3.7-2.922s.255 1.187.255 1.187 1.06-.106.63 1.308a20.016 20.016 0 0 1-.881 2.42s.384.475-.01 1.461-.55.99-.55.99.441.5-.831 2.5-5.15 4.093-6.085 5.831a15.982 15.982 0 0 1-2.655 3.832c-.857.853-6.989-2.368-5.301-4.419z" class="cls-18" transform="translate(-391.477 -183.605)"/>
                                    <path id="패스_30907" d="M397.453 203.307a15.934 15.934 0 0 0 2.655-3.835c.935-1.736 4.818-3.825 6.085-5.831s.829-2.5.829-2.5.156 0 .55-.989.012-1.461.012-1.461a20.578 20.578 0 0 0 .883-2.418c.428-1.416-.631-1.31-.631-1.31s.028-.083.056-.2c-.867 2.311-2.83 5.069-3.3 6.464-.679 2-3.964 3.956-6.2 6.358-1.154 1.237-2.57 2.848-4.455 4.878 1.286.837 3.053 1.302 3.516.844z" class="cls-6" transform="translate(-391.863 -183.788)"/>
                                </g>
                                <path id="패스_30908" d="M356.782 212.748a6.192 6.192 0 0 0 5.053 6.669l12.511 1.943a9.6 9.6 0 0 0 9.6-3.953l8.727-12.1a5.214 5.214 0 0 0-1.442-7.357 2.934 2.934 0 0 0-3.83.562l-8.655 10.089a2.066 2.066 0 0 1-1.918.7l-13.084-1.887a5.978 5.978 0 0 0-6.962 5.334z" class="cls-23" transform="translate(-356.754 -185.785)"/>
                                <path id="패스_30909" d="M358.383 213.812c.9-1.946 1.622-3.835 1.069-5.082.135-.094.283-.167.427-.249l-.019-.01c.061-.035.13-.058.191-.089a4.908 4.908 0 0 1 .463-.216c.144-.062.286-.121.436-.172s.3-.086.451-.122c.171-.042.339-.084.514-.112.13-.02.265-.027.395-.04.2-.015.4-.034.609-.031h.051a.116.116 0 0 1 .024.01 5.764 5.764 0 0 1 .838.066l12.2 1.751c2.407.375 7.028 1.7 10.125-2.272 2.827-3.621 3.675-5.16 6.589-7.546a5.205 5.205 0 0 1 .011 5.964l-8.727 12.1a9.6 9.6 0 0 1-9.6 3.953l-12.511-1.943a6.173 6.173 0 0 1-4.588-3.738 13.014 13.014 0 0 1 1.052-2.222z" class="cls-24" transform="translate(-356.846 -186.132)"/>
                            </g>
                            <path id="패스_30910" d="M445.075 205.124c.6-.637.43-3.143-.031-5.5s-2.338-4.517-4.348-2.362.082 8.556 1.65 8.4 1.754.494 2.729-.538z" class="cls-18" transform="translate(-369.806 -122.536)"/>
                            <path id="패스_30911" d="M445.075 205.124c.6-.637.43-3.143-.031-5.5s-2.338-4.517-4.348-2.362.082 8.556 1.65 8.4 1.754.494 2.729-.538z" class="cls-6" transform="translate(-369.806 -122.536)"/>
                            <g id="그룹_40763" transform="translate(.329)">
                                <path id="패스_30912" d="M357.221 110.946c.294-1.5 1.576-2.011 3.1-1.128l64.828 37.427a7.008 7.008 0 0 1 3.168 5.484v39.742a2.207 2.207 0 0 1-.941 2.052l1.034-.6v-.008a2.2 2.2 0 0 0 .963-2.061v-39.735a7 7 0 0 0-3.168-5.484l-64.825-37.426a2.191 2.191 0 0 0-2.282-.191l-.005-.007-1.011.583a1.9 1.9 0 0 0-.861 1.352z" class="cls-15" transform="translate(-357.157 -108.78)"/>
                                <path id="패스_30913" d="M357.221 110.946c.294-1.5 1.576-2.011 3.1-1.128l64.828 37.427a7.008 7.008 0 0 1 3.168 5.484v39.742a2.207 2.207 0 0 1-.941 2.052l1.034-.6v-.008a2.2 2.2 0 0 0 .963-2.061v-39.735a7 7 0 0 0-3.168-5.484l-64.825-37.426a2.191 2.191 0 0 0-2.282-.191l-.005-.007-1.011.583a1.9 1.9 0 0 0-.861 1.352z" class="cls-25" transform="translate(-357.157 -108.78)"/>
                                <path id="패스_30914" d="M425.14 147.358l-64.828-37.427c-1.748-1.01-3.167-.192-3.165 1.826v39.741a7.006 7.006 0 0 0 3.167 5.485l64.828 37.426c1.75 1.01 3.168.193 3.168-1.825v-39.742a7.008 7.008 0 0 0-3.17-5.484z" class="cls-15" transform="translate(-357.145 -108.892)"/>
                                <path id="패스_30915" d="M363.438 121.575l1.023-.591.007.01a.508.508 0 0 1 .567.025l1.741 1.006a20.529 20.529 0 0 1 .781 4.856l-1.055.609 1.054.608a11.215 11.215 0 0 1-.78 3.955l-1.056.61a11.243 11.243 0 0 0 .781-3.955l-3.284-1.894 1.055-.608-1.055-.61 3.284 1.894a20.5 20.5 0 0 0-.781-4.855l-1.742-1.006a.541.541 0 0 0-.54-.054zm15 9.278v3.532l-3.286-1.9 1.055.61-1.055.609 3.286 1.9v3.527a.528.528 0 0 1-.21.476l.994-.574-.008-.009a.488.488 0 0 0 .282-.5v-3.526l-1.055-.609 1.055-.609v-3.53a1.675 1.675 0 0 0-.757-1.313l-1.747-1.01-1.059.61 1.747 1.01a1.663 1.663 0 0 1 .753 1.306zm37.831 48.511a5.036 5.036 0 0 1 2.286 3.962 1.606 1.606 0 0 1-.655 1.47l1.026-.593a1.592 1.592 0 0 0 .688-1.484 5.054 5.054 0 0 0-2.29-3.964 1.6 1.6 0 0 0-1.631-.153l-1.029.6a1.616 1.616 0 0 1 1.6.161z" class="cls-15" transform="translate(-358.098 -110.686)"/>
                                <path id="패스_30916" d="M363.438 121.575l1.023-.591.007.01a.508.508 0 0 1 .567.025l1.741 1.006a20.529 20.529 0 0 1 .781 4.856l-1.055.609 1.054.608a11.215 11.215 0 0 1-.78 3.955l-1.056.61a11.243 11.243 0 0 0 .781-3.955l-3.284-1.894 1.055-.608-1.055-.61 3.284 1.894a20.5 20.5 0 0 0-.781-4.855l-1.742-1.006a.541.541 0 0 0-.54-.054zm15 9.278v3.532l-3.286-1.9 1.055.61-1.055.609 3.286 1.9v3.527a.528.528 0 0 1-.21.476l.994-.574-.008-.009a.488.488 0 0 0 .282-.5v-3.526l-1.055-.609 1.055-.609v-3.53a1.675 1.675 0 0 0-.757-1.313l-1.747-1.01-1.059.61 1.747 1.01a1.663 1.663 0 0 1 .753 1.306z" class="cls-25" transform="translate(-358.098 -110.686)"/>
                                <path id="패스_30917" d="M363.215 122.178v3.531l3.285 1.891a20.5 20.5 0 0 0-.781-4.855l-1.742-1.006c-.422-.239-.764-.039-.762.439zm15.22 12.322v-3.532a1.663 1.663 0 0 0-.758-1.312l-1.747-1.01a11.319 11.319 0 0 0-.779 3.954zm0 4.743v-3.527l-3.286-1.9a20.615 20.615 0 0 0 .779 4.856l1.747 1.006c.42.241.758.049.76-.437zm-15.221-12.313v3.529a1.692 1.692 0 0 0 .762 1.315l1.743 1.006a11.243 11.243 0 0 0 .781-3.955z" class="cls-20" transform="translate(-358.098 -110.799)"/>
                                <path id="패스_30918" d="M394.325 167.321l.005.005-1.028.6a.538.538 0 0 0 .218-.491 1.669 1.669 0 0 0-.759-1.312l-28.743-16.6a.536.536 0 0 0-.532-.053l1.05-.6a.534.534 0 0 1 .534.052l28.745 16.6a1.675 1.675 0 0 1 .759 1.313.513.513 0 0 1-.249.486zm-10.313-3.093a1.671 1.671 0 0 0-.759-1.312l-18.176-10.5a.55.55 0 0 0-.518-.059v-.005l-.017.009-1.052.608a.534.534 0 0 1 .534.055l18.18 10.5a1.674 1.674 0 0 1 .759 1.315.546.546 0 0 1-.219.488l1.044-.6a.531.531 0 0 0 .224-.499zm-5.021-17.483l12.382 7.15a1.687 1.687 0 0 1 .763 1.32v3.522a.549.549 0 0 1-.2.469l1.014-.583c.01-.005.017-.012.025-.017l.013-.005v-.005a.54.54 0 0 0 .2-.471V154.6a1.682 1.682 0 0 0-.761-1.319l-12.384-7.151a.528.528 0 0 0-.544-.05l-1.047.605a.539.539 0 0 1 .538.06zm14.969 8.644l12.384 7.147a1.683 1.683 0 0 1 .76 1.32v3.522a.536.536 0 0 1-.219.491l1.047-.606h.01l.011-.008a.539.539 0 0 0 .209-.48v-3.521a1.679 1.679 0 0 0-.759-1.32l-12.382-7.147a.526.526 0 0 0-.547-.05l-1.05.6a.54.54 0 0 1 .536.052zM370.338 125.6v4.406l-1.686-.973-1.055.61 2.741 1.58v4.408l1.057-.612v-4.406l-1.057-.607 1.059-.613v-4.4l-3.462-2-1.055.613zm-5.808 11.842l-1.041.6a.531.531 0 0 1 .529.056l12.382 7.152a1.678 1.678 0 0 1 .762 1.32v3.522a.538.538 0 0 1-.211.481l1.007-.582-.007-.009a.5.5 0 0 0 .266-.5v-3.524a1.673 1.673 0 0 0-.765-1.32l-12.381-7.151a.53.53 0 0 0-.541-.042zm42.648 12.935l14.136 8.163a1.663 1.663 0 0 1 .757 1.315.531.531 0 0 1-.214.481l1.024-.593v-.008a.513.513 0 0 0 .25-.5 1.678 1.678 0 0 0-.76-1.313l-14.133-8.16a.492.492 0 0 0-.57-.019v-.012l-1.012.583a.54.54 0 0 1 .522.067zm-33.04-18.177l1.057-.61a12.46 12.46 0 0 1 .717-3.988l-3.46-2-1.057.609 3.461 2a12.5 12.5 0 0 0-.718 3.989zm-1.686-.972l-1.055.607 2.74 1.585a21.848 21.848 0 0 0 .72 4.82l1.055-.61a21.95 21.95 0 0 1-.72-4.82l-1.054-.609-1.686-.972zm40.011 18.694l8.851 5.113a1.669 1.669 0 0 1 .757 1.313.534.534 0 0 1-.218.488l1.028-.593-.005-.007a.513.513 0 0 0 .254-.5 1.68 1.68 0 0 0-.76-1.312l-8.851-5.113a.528.528 0 0 0-.545-.042l-1.039.6a.544.544 0 0 1 .528.055zm-3.028 13.452l-1.037.6a.539.539 0 0 1 .529.055l12.382 7.15a1.676 1.676 0 0 1 .762 1.32v3.522a.548.548 0 0 1-.22.5l1.052-.61.011-.005h-.005a.533.533 0 0 0 .216-.484v-3.521a1.676 1.676 0 0 0-.76-1.32l-12.383-7.15a.53.53 0 0 0-.546-.055zm10.348 18.326a5.047 5.047 0 0 1 2.289 3.962 2.078 2.078 0 0 1-.235 1.013c.762.012 1.294-.577 1.292-1.62a5.053 5.053 0 0 0-2.29-3.963 1.792 1.792 0 0 0-1.356-.261l-1.057.609a1.784 1.784 0 0 1 1.357.26z" class="cls-15" transform="translate(-358.14 -111.012)"/>
                                <path id="패스_30919" d="M394.325 167.321l.005.005-1.028.6a.538.538 0 0 0 .218-.491 1.669 1.669 0 0 0-.759-1.312l-28.743-16.6a.536.536 0 0 0-.532-.053l1.05-.6a.534.534 0 0 1 .534.052l28.745 16.6a1.675 1.675 0 0 1 .759 1.313.513.513 0 0 1-.249.486zm-10.313-3.093a1.671 1.671 0 0 0-.759-1.312l-18.176-10.5a.55.55 0 0 0-.518-.059v-.005l-.017.009-1.052.608a.534.534 0 0 1 .534.055l18.18 10.5a1.674 1.674 0 0 1 .759 1.315.546.546 0 0 1-.219.488l1.044-.6a.531.531 0 0 0 .224-.499zm-5.021-17.483l12.382 7.15a1.687 1.687 0 0 1 .763 1.32v3.522a.549.549 0 0 1-.2.469l1.014-.583c.01-.005.017-.012.025-.017l.013-.005v-.005a.54.54 0 0 0 .2-.471V154.6a1.682 1.682 0 0 0-.761-1.319l-12.384-7.151a.528.528 0 0 0-.544-.05l-1.047.605a.539.539 0 0 1 .538.06zm14.969 8.644l12.384 7.147a1.683 1.683 0 0 1 .76 1.32v3.522a.536.536 0 0 1-.219.491l1.047-.606h.01l.011-.008a.539.539 0 0 0 .209-.48v-3.521a1.679 1.679 0 0 0-.759-1.32l-12.382-7.147a.526.526 0 0 0-.547-.05l-1.05.6a.54.54 0 0 1 .536.052zM370.338 125.6v4.406l-1.686-.973-1.055.61 2.741 1.58v4.408l1.057-.612v-4.406l-1.057-.607 1.059-.613v-4.4l-3.462-2-1.055.613zm-5.808 11.842l-1.041.6a.531.531 0 0 1 .529.056l12.382 7.152a1.678 1.678 0 0 1 .762 1.32v3.522a.538.538 0 0 1-.211.481l1.007-.582-.007-.009a.5.5 0 0 0 .266-.5v-3.524a1.673 1.673 0 0 0-.765-1.32l-12.381-7.151a.53.53 0 0 0-.541-.042zm42.648 12.935l14.136 8.163a1.663 1.663 0 0 1 .757 1.315.531.531 0 0 1-.214.481l1.024-.593v-.008a.513.513 0 0 0 .25-.5 1.678 1.678 0 0 0-.76-1.313l-14.133-8.16a.492.492 0 0 0-.57-.019v-.012l-1.012.583a.54.54 0 0 1 .522.067zm-33.04-18.177l1.057-.61a12.46 12.46 0 0 1 .717-3.988l-3.46-2-1.057.609 3.461 2a12.5 12.5 0 0 0-.718 3.989zm-1.686-.972l-1.055.607 2.74 1.585a21.848 21.848 0 0 0 .72 4.82l1.055-.61a21.95 21.95 0 0 1-.72-4.82l-1.054-.609-1.686-.972zm40.011 18.694l8.851 5.113a1.669 1.669 0 0 1 .757 1.313.534.534 0 0 1-.218.488l1.028-.593-.005-.007a.513.513 0 0 0 .254-.5 1.68 1.68 0 0 0-.76-1.312l-8.851-5.113a.528.528 0 0 0-.545-.042l-1.039.6a.544.544 0 0 1 .528.055zm-3.028 13.452l-1.037.6a.539.539 0 0 1 .529.055l12.382 7.15a1.676 1.676 0 0 1 .762 1.32v3.522a.548.548 0 0 1-.22.5l1.052-.61.011-.005h-.005a.533.533 0 0 0 .216-.484v-3.521a1.676 1.676 0 0 0-.76-1.32l-12.383-7.15a.53.53 0 0 0-.546-.055z" class="cls-25" transform="translate(-358.14 -111.012)"/>
                                <path id="패스_30920" d="M393.477 167.544c0 .486-.341.682-.759.441l-28.742-16.594a1.68 1.68 0 0 1-.762-1.318c0-.481.341-.679.76-.438l28.743 16.6a1.669 1.669 0 0 1 .759 1.313zm-10.563-2.59a1.674 1.674 0 0 0-.759-1.315l-18.18-10.5c-.42-.244-.76-.046-.76.437a1.681 1.681 0 0 0 .762 1.319l18.178 10.5c.416.24.757.042.759-.441zm-16.077-41.231l3.459 1.994v4.406l-2.741-1.582a21.824 21.824 0 0 0-.718-4.817zm4.517 7.009l2.741 1.582a12.5 12.5 0 0 1 .718-3.988l-3.461-2zm2.74 2.8l-2.74-1.585v4.409l3.461 2a21.85 21.85 0 0 1-.721-4.821zm-3.8-2.194l-2.741-1.58a12.576 12.576 0 0 1-.717 3.989l3.459 2zm6.064 14.023l-12.383-7.147c-.421-.245-.764-.047-.762.438v3.522a1.684 1.684 0 0 0 .762 1.323l12.383 7.15c.42.243.762.045.762-.443v-3.522a1.679 1.679 0 0 0-.76-1.318zm14.97 8.645l-12.382-7.15c-.421-.245-.765-.046-.765.438v3.521a1.705 1.705 0 0 0 .765 1.325l12.382 7.147c.419.241.763.048.763-.44v-3.522a1.687 1.687 0 0 0-.761-1.316zm14.972 8.644l-12.383-7.15c-.422-.245-.763-.047-.764.438v3.522a1.689 1.689 0 0 0 .764 1.323l12.384 7.15c.418.241.761.046.759-.443v-3.52a1.683 1.683 0 0 0-.76-1.32zm14.966 8.642l-12.382-7.15c-.419-.24-.759-.046-.765.441v3.524a1.688 1.688 0 0 0 .763 1.319l12.382 7.148c.422.243.762.047.762-.441v-3.522a1.676 1.676 0 0 0-.759-1.319zm.762-14.828c0 .486-.337.681-.757.44l-8.853-5.11a1.678 1.678 0 0 1-.76-1.32c0-.481.337-.677.762-.436l8.851 5.113a1.669 1.669 0 0 1 .757 1.313zm0 3.509c0 .483-.337.679-.759.438l-14.135-8.161a1.687 1.687 0 0 1-.759-1.318c0-.481.337-.679.759-.438l14.136 8.163a1.663 1.663 0 0 1 .757 1.315z" class="cls-11" transform="translate(-358.098 -111.126)"/>
                            </g>
                            <path id="패스_30921" d="M398.764 187.874c.851-1.3 1.09-2.949 1.883-2.869s.72 1.038.739 1.462a26.5 26.5 0 0 1-.734 2.588l-2.01-.973c.045-.071.076-.136.122-.208z" class="cls-18" transform="translate(-363.332 -120.75)"/>
                        </g>
                        <g id="그룹_40765" transform="translate(8.937 54.347)">
                            <path id="패스_30922" d="M380.781 197.716c-.546 3.381.1 10.507 3.42 11.88s-3.9 3.347-6.88 3.123-13.583-2.389-12.09-4.555.01-2.861 1.268-2.761 3.806-2.76 3.954-12.09 10.923.753 10.328 4.403z" class="cls-18" transform="translate(-364.221 -175.797)"/>
                            <path id="패스_30923" d="M379.906 176.329c3.508 0 3.707-.47 5.693 2.425.718 1.047 1.579 3.727 1.151 5.15-.849 2.835.917 4.4.756 6.981-.228 3.574-1.252 12.547-12.8 5.818-5.7-3.316 2.537-5.034 4.738-9.309 2.127-4.119-1.795-11.065.462-11.065z" class="cls-18" transform="translate(-365.421 -173.73)"/>
                            <path id="패스_30927" d="M376.229 173.251c-6.5 0-12.17 2.239-12.17 10.9s4.4 8.487 4.852 10.91c.793 4.253 6.964 2.67 7.561.281s.447-5.937 2.063-6.714c2.852-1.368 1.513 2.121 2.707 1.97s-.652-2.766.873-4.228c2.234-2.144.719-4.946.918-6.119a2.958 2.958 0 0 1 1.155-1.473c1.769-1.378-1.314-5.527-7.959-5.527z" class="cls-26" transform="translate(-364.059 -173.251)"/>
                            <path id="패스_30928" d="M384.343 178.773a2.958 2.958 0 0 0-1.155 1.473c-.2 1.173 1.316 3.975-.918 6.119-1.525 1.463.32 4.081-.873 4.228s.145-3.338-2.707-1.97c-1.616.777-1.467 4.327-2.063 6.714s-6.768 3.972-7.561-.281c-.33-1.757-2.727-2.166-4.023-5.549 2.211 4.288 8.563 5.5 9.483 1.165 1.719-8.11-1.009-7.42 5.054-13.486 1.724-1.72-2.586-3.362-6.46-3.71a22.709 22.709 0 0 1 3.263-.226c6.645.001 9.729 4.15 7.96 5.523z" class="cls-20" transform="translate(-364.214 -173.251)"/>
                            <path id="패스_30986" d="M16.892 26.339h-2.431v3.371l2.8-.272z" class="cls-6" transform="translate(-.511 -.931)"/>
                        </g>
                        <path id="패스_30929" d="M353.457 219.91c0-4.767 1.146-7.855 3.18-9.578 5.207-4.413 17.889-.531 23.8 1.441 5.163 1.72 10.105 4.05 11.976 6.89l.03 27.826.026 14.957c.007 3.826-3.1 6.594-7.134 7.485-7.639 1.689-27.781-1.463-27.781-10.363.825-5.574 2.908-13.462-.316-22.935-2.338-6.872-3.781-12.013-3.781-15.723z" class="cls-23" transform="translate(-353.457 -124.409)"/>
                        <path id="패스_30930" d="M353.457 219.91c0-4.767 1.146-7.855 3.18-9.578 5.207-4.413 17.889-.531 23.8 1.441a51.329 51.329 0 0 1 5.479 2.157 6.557 6.557 0 0 1 .722.246c3.081 1.27 6.492 2.978 10.618 3.687 10.214 1.754 9.3 13.706 3.807 13.046s-7.218 5.014-7.74 10.81c-.373 4.086-.711 8.2-.711 11.926 0 3.214.343 7.324-.282 9.182-.645 3.106-3.464 5.322-7 6.1-7.639 1.689-27.781-1.463-27.781-10.363.825-5.574 2.908-13.462-.316-22.935-2.333-6.868-3.776-12.009-3.776-15.719z" class="cls-23" transform="translate(-353.457 -124.409)"/>
                        <path id="패스_30931" d="M356.918 210.333c5.207-4.413 17.889-.531 23.8 1.441a51.327 51.327 0 0 1 5.479 2.157 6.562 6.562 0 0 1 .722.246c3.081 1.27 6.492 2.978 10.618 3.687 10.214 1.754 9.3 13.706 3.807 13.046s-7.218 5.014-7.74 10.81c-.373 4.086-.711 8.2-.711 11.926 0 3.214.343 7.324-.282 9.182-.645 3.106-3.464 5.322-7 6.1-.459.1-.964.185-1.506.25.884-5.518 2.638-13.114-.438-22.156-1.586-4.661-2.154-15.559.309-22.091a13.042 13.042 0 0 1 1.082-2.236c1.247-2.628 2.147-5.145-.031-6.125a49.127 49.127 0 0 0-6.229-2.511c-5.825-1.944-18.211-5.723-23.553-1.613a7.319 7.319 0 0 1 1.673-2.113z" class="cls-24" transform="translate(-353.739 -124.409)"/>
                        <path id="패스_30932" d="M369.435 204.2c-.667 1.279-1.823 3.038-2.931 3.464.191 4.305 11.408 6.187 17.577 3.96a10.264 10.264 0 0 1-2.793-5.252c-6.118 1.863-11.706-.882-11.853-2.172z" class="cls-7" transform="translate(-355.506 -123.765)"/>
                        <path id="패스_30933" d="M431.26 209.452c2.292-2.7 3.8-3.605 3.723-5.808s.055-1.206.3-2.327a8.818 8.818 0 0 1 1.482-3.422c.882-1.259 1.17-2.874 1.951-2.769s.675 1.043.682 1.468-.962 2.676-.843 2.784a5.931 5.931 0 0 0 1.832-.772 8.862 8.862 0 0 0 2.138-1.577 5.331 5.331 0 0 1 1.118 2.4c.461 2.354.634 4.858.033 5.5-1.8 1.522-4.831 2.912-5.633 4.293a21.782 21.782 0 0 1-2.807 4.2c-.787.999-5.671-1.966-3.976-3.97z" class="cls-18" transform="translate(-365.619 -122.339)"/>
                        <path id="패스_30934" d="M431.967 212.715c-.01-.012-.024-.02-.031-.03l-.005-.005c.24-.26.484-.527.716-.786 2.2-2.737 3.461-3.856 3.728-4.287.884-1.444 1.221-3.959 3.059-5.291.5-.366 2.254-1.755 4.049-3.3l.042.107a6.293 6.293 0 0 1 .272.919c.461 2.354.634 4.858.033 5.5-1.8 1.522-4.831 2.912-5.633 4.293a21.674 21.674 0 0 1-2.678 4.039c-.048.059-.081.1-.129.165-.454.577-2.296-.19-3.423-1.324z" class="cls-6" transform="translate(-365.781 -122.95)"/>
                        <path id="패스_30935" d="M388.809 221.95a6.187 6.187 0 0 0 4.993 6.711l18.146 3.081a9.6 9.6 0 0 0 9.632-3.869l8.831-12.021a5.212 5.212 0 0 0-1.38-7.367 2.93 2.93 0 0 0-3.833.529l-8.742 10.013a2.064 2.064 0 0 1-1.924.681l-18.718-3.029a5.973 5.973 0 0 0-7.005 5.271z" class="cls-23" transform="translate(-359.003 -124.361)"/>
                        <path id="패스_30936" d="M390.4 223.03c.919-1.94 1.654-3.822 1.109-5.072.138-.092.287-.164.432-.244a.221.221 0 0 0-.02-.011c.063-.035.132-.056.195-.089.152-.078.3-.146.464-.212.143-.059.286-.116.436-.165s.3-.085.453-.121c.171-.04.341-.081.514-.107.132-.019.265-.024.395-.035a5.877 5.877 0 0 1 .611-.028h.051l.023.01a5.666 5.666 0 0 1 .838.075l17.839 2.885c2.4.4 7.014 1.755 10.145-2.185 2.857-3.6 3.719-5.128 6.652-7.49a5.2 5.2 0 0 1-.038 5.963l-8.831 12.021a9.6 9.6 0 0 1-9.632 3.869l-18.146-3.081a6.164 6.164 0 0 1-4.555-3.775 12.9 12.9 0 0 1 1.065-2.208z" class="cls-24" transform="translate(-359.091 -124.713)"/>
                    </g>
                </g>
            </g>
            <g id="그룹_40771" transform="translate(0 7.918)">
                <g id="그룹_40770">
                    <path id="패스_30938" d="M331.925 289.226c0 3.38.056 8.881-.22 9.045a1.106 1.106 0 0 1-1.041 0c-.3-.18-1.971-10.933-1.971-10.933z" class="cls-22" transform="translate(-299.501 -129.089)"/>
                    <path id="패스_30939" d="M330.914 289.226c0 3.38.039 8.881-.151 9.045a.557.557 0 0 1-.716 0c-.209-.18-1.355-10.933-1.355-10.933z" class="cls-6" transform="translate(-298.489 -129.089)"/>
                    <path id="패스_30940" d="M338.151 289.087a27.685 27.685 0 0 1-1.948-6.437 25.339 25.339 0 0 1-.025-5.364l-.292-.2c-.448 2.531-6.268.6-6.34-1.132.014.36.029.716.029 1.082a15.719 15.719 0 0 1-.3 3.228 10.813 10.813 0 0 1-1.532 3.725 2.484 2.484 0 0 0 .166 2.461c1.659 3.164 4.369 2.107 5.876 7.984s3.466 6.776 5.875 7.534c1.816.567 3.974.791 4.927-.1a2.191 2.191 0 0 0 .046-.426c0-2.262-3.315-4.974-6.482-12.355zm-1.951-6.437c-.061-.353-.112-.7-.155-1.052.046.349.1.702.155 1.052z" class="cls-18" transform="translate(-298.3 -127.301)"/>
                    <path id="패스_30941" d="M344.5 302.23c0-.014 0-.029-.007-.043a4.181 4.181 0 0 0-.128-.464c-.008-.018-.013-.035-.019-.051-.057-.164-.129-.332-.209-.506a.3.3 0 0 1-.015-.029c-.086-.183-.185-.371-.3-.567a.115.115 0 0 1-.021-.038c-.108-.183-.223-.378-.346-.581l-.053-.083c-.116-.19-.243-.389-.375-.6l-.088-.133c-.1-.155-.206-.32-.314-.483l-.673-1.042c2.465 5.522-5.542 1.079-7.087-2.707a19.069 19.069 0 0 0-4.224-6.965c-1.687-1.806-2.671-2.723-2.295-3.927-.236.481-.476.884-.69 1.24-.327.715-.327.711 0 0-.653 1.1-1.055 1.821-.283 3.289 1.657 3.164 4.366 2.108 5.872 7.984s3.467 6.781 5.878 7.534c2.242.7 5.009.877 5.377-.93a2.189 2.189 0 0 0 .046-.426 2.479 2.479 0 0 0-.046-.472z" class="cls-22" transform="translate(-298.216 -128.567)"/>
                    <path id="패스_30942" d="M339.574 303.465c-2.408-.759-4.37-1.659-5.875-7.534s-4.217-4.82-5.876-7.984a2.478 2.478 0 0 1-.166-2.461c-.653 1.1-1.055 1.821-.283 3.289 1.657 3.164 4.366 2.108 5.872 7.984s3.467 6.781 5.878 7.534c2.242.7 5.009.877 5.377-.93-.953.892-3.111.668-4.927.102z" class="cls-6" transform="translate(-298.216 -128.798)"/>
                    <path id="패스_30943" d="M340.808 186.072c-1.314-6.6-4.181-4.227-10.634-1.808s-5.8 15.16-5.8 20.8 3.674 12.58 3.674 20.486c0 .874.01 1.916.024 3.071-.455 6.009-2.283 9.168-2.283 14.679 0 5.287 2.391 10.01 3.154 16.071.031.786.059 1.5.085 2.116.076 1.851 6.309 3.919 6.788 1.211.1-2.66.443-5.5.815-8.924.967-8.873 2.659-27.03 4.376-41.045 1.646-13.458 1.577-17.718-.199-26.657z" class="cls-22" transform="translate(-297.807 -112.512)"/>
                    <path id="패스_30944" d="M344.094 289.529c-.913.6-3.073 1.127-5.747-.491-2.862-1.734-3.491-7.921-6.8-10.826s.176-5.312.078-10.15-1.522-53.062 1.5-65.134c0 0-2.084 5.292-8.76 4.334v1.122c0 5.648 3.674 12.58 3.674 20.486 0 .874.01 1.916.024 3.071-.455 6.009-2.283 9.168-2.283 14.679 0 5.287 2.391 10.01 3.154 16.071.031.786.059 1.5.085 2.116a1.035 1.035 0 0 0 .04.174c.008.2.017.389.017.589a15.717 15.717 0 0 1-.3 3.228 11.031 11.031 0 0 1-.381 1.391 9.685 9.685 0 0 1-.46 1.094c-.236.481-.476.884-.69 1.24-.327.715-.327.711 0 0-.653 1.1-1.055 1.821-.283 3.289 1.657 3.164 4.366 2.108 5.872 7.984s3.467 6.781 5.878 7.534c2.242.7 5.009.877 5.377-.93a2.19 2.19 0 0 0 .046-.426 2.606 2.606 0 0 0-.041-.445z" class="cls-20" transform="translate(-297.81 -115.833)"/>
                    <path id="패스_30945" d="M300.5 287.924c.1-1 .23-2.071.4-3.242l.093-.62c-1.017 1.28-5.227.374-5.492-1.366a20.1 20.1 0 0 1-.534 4.39c-.39 1.162-.812 2.129-1.133 3.011-.325 2.94.769 4.292.078 9.122-.717 5.01-1.694 8.591 5.9 9.678a5.664 5.664 0 0 0 2.833-.09c.214-1.137-.267-3-.834-5.63-1.028-4.73-2.085-7.618-1.311-15.253z" class="cls-18" transform="translate(-292.952 -128.36)"/>
                    <path id="패스_30946" d="M301.723 304.223c.805 6.633-6.715-.069-6.891-2.464s-.1-5.5-.347-7.386a27.72 27.72 0 0 1-.051-5.022c-.248.645-.488 1.238-.69 1.791-.16 1.453-.165 1.446 0-.019a8.338 8.338 0 0 0-.463 1.673c-.437 3.047.724 4.248.038 9.039s-1.618 8.215 5.642 9.254c2.4.343 3.372-.055 3.6-1.237.21-1.136-.271-2.996-.838-5.629z" class="cls-22" transform="translate(-292.862 -129.405)"/>
                    <path id="패스_30947" d="M299.724 310.274c-7.6-1.087-6.619-4.668-5.9-9.678.693-4.842-.408-6.187-.078-9.142a8.338 8.338 0 0 0-.463 1.673c-.437 3.047.724 4.248.038 9.039s-1.618 8.215 5.642 9.254c2.4.343 3.372-.055 3.6-1.237a5.664 5.664 0 0 1-2.839.091z" class="cls-6" transform="translate(-292.862 -129.735)"/>
                    <path id="패스_30948" d="M323.627 188.952c1.877-14.167-4.939-12.28-9.219-8.792a3.312 3.312 0 0 1-.2-.574 7.965 7.965 0 0 1-1.48 2.125l-.005.008c-3.774 3.633-8.478 7.526-9.831 23.49-.555 6.547-1.763 17.021-3.038 27.472-1.337 6.4-3.786 9.265-4.662 14.946-.831 5.395.942 10.584.641 16.965-.119.955-.193 1.584-.209 1.789.293 1.912 4.527 2.853 5.644 1.444 1.568-10.617 9.813-32.466 13.14-44.186 4.311-15.188 7.161-19.18 9.219-34.687z" class="cls-22" transform="translate(-293.192 -111.866)"/>
                    <path id="패스_30949" d="M298.567 291.406c-5.312-.882-2.939-5.673-3.005-8.615a38.548 38.548 0 0 1 1.622-11.337c1.234-4.055 8.394-56.806 11.244-65.36s9.31-17.448 10.487-19.935a41.749 41.749 0 0 1 3.712-6.614c-1.49-1.074-4.217-.5-5.071-1.4-.728-.771-3.211 2.671-3.477 2.075a3.307 3.307 0 0 1-.2-.574 7.966 7.966 0 0 1-1.48 2.125l-.005.008c-3.774 3.633-8.478 7.526-9.831 23.49-.555 6.547-1.763 17.021-3.038 27.472-1.337 6.4-3.786 9.265-4.662 14.946-.831 5.395.942 10.584.641 16.965-.119.955-.193 1.584-.209 1.789a1.574 1.574 0 0 0 .088.309c-.074 1.078-.116 2.052-.266 2.922-.008.038-.01.083-.017.124a7.154 7.154 0 0 1-.217.86c-.158.478-.326.919-.491 1.34v.008a.424.424 0 0 1-.014.043l-.141.357c-.056.155-.121.313-.175.459-.11.277-.212.547-.308.8-.16 1.453-.165 1.446 0-.019a8.338 8.338 0 0 0-.463 1.673c-.437 3.047.724 4.248.038 9.039s-1.618 8.215 5.642 9.254c2.4.343 3.372-.055 3.6-1.237a3.256 3.256 0 0 0 .047-.459 16.714 16.714 0 0 1-4.051-.508z" class="cls-20" transform="translate(-292.862 -111.922)"/>
                    <path id="패스_30950" d="M314.869 112.557c0-7.151 4.923-12.95 11-12.95s11 5.8 11 12.95-4.923 12.946-11 12.946-11-5.793-11-12.946z" class="cls-26" transform="translate(-296.318 -99.607)"/>
                    <path id="패스_30951" d="M325.574 118.856c-.934-3.707-.784-5.534-3.722-7.958-2.874-2.368.224-12.718 10.49-8.684a4.2 4.2 0 0 1-.47-.5 9.807 9.807 0 0 0-6-2.1c-6.078 0-11 5.8-11 12.95s4.923 12.946 11 12.946a9.7 9.7 0 0 0 5.258-1.572c-3.11-1.949-5.283-3.997-5.556-5.082z" class="cls-20" transform="translate(-296.318 -99.607)"/>
                    <path id="패스_30952" d="M321.706 120.82c2.618 3.2 1.43 11.117-1.7 12.313-3.411 1.307 2.891 11.336 11.611 7.338s5.327-12.085 1.548-11.534c-1.732.25-.993-.908-.55-6.075s-2.842.326-5.011.824-6.084-3.093-5.898-2.866z" class="cls-18" transform="translate(-296.977 -102.914)"/>
                    <path id="패스_30953" d="M325.032 131.184c.3-2.785 1.075-4.474.513-9.311 0 0-3.969-1.184-3.839-1.027 2.618 3.2 1.43 11.117-1.7 12.313-2.75 1.053.808 7.759 6.853 8.241-.778-1.527-5.972-2.476-6.261-3.583-1.073-4.117 4.139-3.85 4.434-6.633z" class="cls-6" transform="translate(-296.977 -102.94)"/>
                    <path id="패스_30954" d="M345.174 148.39c-2.1-6.127-3.624-5.732-4.01-10.407-.376-4.565-2.609-7.979-4.7-7.979a30.8 30.8 0 0 0-5.472.5c2.419-.464 5.306 5.961-.474 8.21-5.809 2.257-10.848-4.546-12.928-3.757l.046-.019c-7.408 2.772-10.658 3.919-5.288 13.645.086.154.153.293.244.453a4.772 4.772 0 0 1 .319.691c.4.738.863 1.513 1.506 2.88 1.075 2.28 3.835 13.716 1.715 20.1a6.224 6.224 0 0 0 2.021 2.334 29.419 29.419 0 0 0 6.719 3.791c3.373 1.375 7.016 2.118 9.237.8 2.089-1.239 3.35-1.868 4.105-2.914-.6-4.227 1.815-8.577 2.442-11.238.643-2.743 1.29-6.45 1.613-7.9s5.002-3.062 2.905-9.19z" class="cls-23" transform="translate(-295.505 -104.38)"/>
                    <path id="패스_30955" d="M342.8 157.681c.033-.036.062-.072.1-.107.357-.374.81-.808 1.256-1.328l.126-.148c.115-.138.222-.286.329-.438.053-.074.1-.154.153-.233.1-.155.2-.309.285-.479.051-.1.09-.2.137-.3a5.423 5.423 0 0 0 .475-1.56v-.005a5.415 5.415 0 0 1-1.254 1.615 43.356 43.356 0 0 1-7.287 2.692c-9.912 2.9-12.5.305-14.334-3.659a66.893 66.893 0 0 0-4.436-9.087c-1.795-3.793-4.633-4.506-.751-6.508.681-.352 1.584-.824 2.654-1.348-1.114-.69-2.019-1.151-2.648-.912l.046-.019a45.013 45.013 0 0 0-4.79 1.98c-.238.123-.462.252-.674.381-.11.069-.212.138-.314.207-.128.086-.252.174-.368.262-.1.074-.194.145-.284.221a5.627 5.627 0 0 0-.467.446c-1.7 1.86-1.447 4.615 1.61 10.148.086.154.153.293.244.453a4.776 4.776 0 0 1 .319.691c.4.738.863 1.513 1.506 2.88 1.075 2.28 3.835 13.716 1.715 20.1a6.224 6.224 0 0 0 2.021 2.334 26.19 26.19 0 0 0 4.034 2.543 9.185 9.185 0 0 0 .116-2.383c.014-.26.031-.514.046-.77 0-.031 0-.059.005-.091.329-5.54.7-10.081 5.339-11.644a85.649 85.649 0 0 1 14.2-3.26c.148-.76.276-1.416.374-1.855a1.214 1.214 0 0 1 .174-.369c.03-.046.063-.094.1-.138a3.67 3.67 0 0 1 .243-.312z" class="cls-20" transform="translate(-295.505 -105.292)"/>
                    <path id="패스_30956" d="M335.22 130.482a1.633 1.633 0 0 1 .212.014.079.079 0 0 0 .023.005 2.06 2.06 0 0 1 .21.05l.018.008a1.942 1.942 0 0 1 .217.083v.005a2.633 2.633 0 0 1 .858.673 22.128 22.128 0 0 1 5.549-.44 2.833 2.833 0 0 0-1.875-.878c-.458 0-.913.013-1.37.034a31.187 31.187 0 0 0-4.1.467 1.54 1.54 0 0 1 .234-.024z" class="cls-6" transform="translate(-299.474 -104.38)"/>
                    <path id="패스_30957" d="M333.475 125.168c5.094 4.517 9.142 7.886 8.885 14.309s.424 7.417 1.008 9.109-4.087-.548-8.563-5.316 4.183-8.561-1.849-14.593-2.203-5.926.519-3.509z" class="cls-26" transform="translate(-298.655 -103.378)"/>
                    <path id="패스_30958" d="M332.957 128.678c6.032 6.032-2.625 9.826 1.849 14.593s9.146 7.008 8.563 5.316a13.211 13.211 0 0 1-.9-3.307c-.522.641-1.522-.717-2.542-1.263-1.459-.776-3.017-3.7-2.8-7.284s-.352-4.324-2.809-7.051c-1.355-1.5-.878-2.575-3.276-5.95-1.69-.492-2.321.707 1.915 4.946z" class="cls-20" transform="translate(-298.655 -103.379)"/>
                    <path id="패스_30959" d="M335.87 112.35a2.781 2.781 0 0 0-4.87-.658c-2.279 2.891-2.44 4.155-5.161 7.222a8.878 8.878 0 0 1-.717.725 4.411 4.411 0 0 0-.136-.765c-.453-1.634-1.721-2.713-2.83-2.408s-1.654 1.882-1.2 3.519a3.778 3.778 0 0 0 1.27 2.01 14.832 14.832 0 0 0 7.343 6.262c4.72 1.911 6.931-3.7 6.931-9.176a28.568 28.568 0 0 0-.63-6.731z" class="cls-18" transform="translate(-297.249 -101.322)"/>
                    <path id="패스_30960" d="M327.024 124.05c-.369-2.418-1.01-4.236-1.184-4.041a8.872 8.872 0 0 1-.717.725 4.408 4.408 0 0 0-.136-.765c-.453-1.634-1.72-2.713-2.83-2.408a2.234 2.234 0 0 0-1.359 2.273 4.368 4.368 0 0 0 .158 1.1 3.8 3.8 0 0 0 1.27 2.014 6.112 6.112 0 0 1 .355.684 14.759 14.759 0 0 0 6.988 5.725 4.119 4.119 0 0 0 2.945.188c-2.578.717-5.14-3.212-5.49-5.495z" class="cls-6" transform="translate(-297.249 -102.418)"/>
                    <g id="그룹_40769" transform="translate(14.153 5.008)">
                        <path id="패스_30961" d="M355.177 106.54a15.3 15.3 0 0 0-2.557 2.132c-.824.657-1.088 2.965-1.113 4.938-.019 1.048-1.846 6.811-1.912 7.148-.718 3.7-3.288 13.809-3.94 17.811a3.194 3.194 0 0 0 .231.7.157.157 0 0 1 .012.019 3.567 3.567 0 0 0 .428.683l.008.009a3.537 3.537 0 0 0 .652.616 3.681 3.681 0 0 0 .886.474 6.959 6.959 0 0 0 4.99-.406 11.7 11.7 0 0 1-.206 1.312 11.749 11.749 0 0 0 .211-1.347.36.36 0 0 1 .012-.073c.056-.645.12-1.2.184-1.672.117-1.185.217-2.521.356-4.186.242-2.863.749-9.1 1.014-12.3.084-.678.165-1.4.236-2.22.2-2.383 1.167-2.523 2.248-4.006s1.24-3.532 1.4-4.886.334-1.879.4-2.3.336-.683.812-.291.863.4 1.428-.137-.57-1.436-.843-1.638a1.958 1.958 0 0 0-1.081-.615c-.65-.11-.427-.395-1.044-.421s-.482-.033-.795-.261-.633.111-2.017.917z" class="cls-18" transform="translate(-315.306 -105.548)"/>
                        <path id="패스_30962" d="M356.993 114.2c-.579 2.2-1.538 1.84-2.417 3.73a10.8 10.8 0 0 0-.518 1.561c-.012.052-.024.1-.038.15-.206.789-.385 1.685-.532 2.6-.011.072-.023.144-.038.22-.008.061-.019.121-.028.18-.5 3.06-.872 6.87-1.164 9.906-.387 3.949-.864 6.782-1.264 9.18a9.809 9.809 0 0 0 2.711-.671 11.716 11.716 0 0 1-.206 1.312 11.771 11.771 0 0 0 .211-1.347.361.361 0 0 1 .012-.073c.056-.645.12-1.2.184-1.672.117-1.185.217-2.521.356-4.186.242-2.863.749-9.1 1.014-12.295.084-.678.165-1.4.236-2.224.2-2.383 1.167-2.523 2.248-4.006s1.24-3.532 1.4-4.886.334-1.879.4-2.3.336-.683.812-.291a.837.837 0 0 0 1.136.087 2.186 2.186 0 0 0-1.565-1.09c-1.79.015-2.371 3.915-2.95 6.115z" class="cls-6" transform="translate(-316.144 -105.946)"/>
                        <path id="패스_30963" d="M342.258 146.737a3.682 3.682 0 0 1-.886-.474 3.535 3.535 0 0 1-.652-.616l-.008-.009a3.567 3.567 0 0 1-.428-.683.148.148 0 0 0-.012-.019 3.2 3.2 0 0 1-.231-.7c-.339 1.789-1.4 1.716-2.3 1.461-.158-.045-.3-.094-.448-.141l-.23-.073h-.013c-2.488-.781-5.021-1.551-6.2-1.855-4.952-1.284-11.913-2.524-16.7-1.691s-4.388 1.515-4.144 1.993c1.779 3.479 3.169 4.081 7.437 5.249 3.16.873 12.4 2.728 18.435 3.981a17.735 17.735 0 0 0 4.278.223l.022.008c.233-.018.466-.046.7-.079.07-.011.145-.022.214-.035a9.127 9.127 0 0 0 1.151-.26c.032-.008.062-.018.1-.029 2.451-.749 4.531-2.6 4.918-6.653a6.959 6.959 0 0 1-5.003.402z" class="cls-23" transform="translate(-309.686 -111.219)"/>
                        <path id="패스_30964" d="M316.317 139.1c-3.7.036-6.684 1.653-6.665 3.615s3.034 3.526 6.729 3.492 6.687-1.651 6.669-3.615-3.032-3.52-6.733-3.492z" class="cls-23" transform="translate(-309.652 -110.817)"/>
                        <path id="패스_30965" d="M316.317 139.1a10.352 10.352 0 0 0-4.7 1.076s-.005-.008 0-.01a3.68 3.68 0 0 0-1.825 1.823 2.175 2.175 0 0 0-.057.3 1.963 1.963 0 0 0-.073.386v.013c0 .005-.005.019-.005.028a2.325 2.325 0 0 0 .743 1.571c1.593 2.784 3.087 3.409 7.008 4.482.182.052.392.108.611.162.072.02.147.039.222.056.155.038.319.081.491.121.1.025.2.052.31.076.169.039.341.079.518.123.111.024.224.052.342.079l.613.139c.109.024.209.049.321.072l.961.215c.126.027.26.055.389.084l.695.152.395.084.4.087c3.894.835 8.584 1.786 12.161 2.531a13.937 13.937 0 0 0 6.863-.33.076.076 0 0 1-.013.016c.121-.043.232-.1.346-.147a7.086 7.086 0 0 0 .711-.346 6.4 6.4 0 0 0 .738-.477c.1-.076.2-.156.3-.239a7.519 7.519 0 0 0 2.44-5.3 9.809 9.809 0 0 1-2.711.671c-.722 4.319-5.835 3.669-6.547 3.515-2.774-.6-8.892-1.724-14.18-2.8-.117-.023-.229-.048-.345-.073q-.737-.149-1.449-.3c-1.779-.388-3.394-.785-4.663-1.1a10.647 10.647 0 0 1-2.193-.778l-.01-.005a6.946 6.946 0 0 1-.712-.416c-.08-.054-.16-.109-.238-.164a5.416 5.416 0 0 1-.466-.371c-.053-.047-.1-.1-.147-.146-1.78-2.381 1.52-6.1 6.922-4.114-.01-.005-.019-.014-.027-.018a10.8 10.8 0 0 0-4.139-.728z" class="cls-20" transform="translate(-309.652 -110.817)"/>
                    </g>
                </g>
            </g>
            <path id="패스_30985" fill="#bf1111" d="M577.587 175.544c-4.132-2.385-7.874-2.616-10.584-1.058l-1.052.609-.344.2-.573.332-.919.532-.115.066-.345.2-.229.133-.344.2-.23.132-.344.2-.116.067a7.953 7.953 0 0 0-3.222 3.644 11.051 11.051 0 0 0-.5 1.291v.01a13.16 13.16 0 0 0-.366 1.427v.019a15.7 15.7 0 0 0-.225 1.565v.018q-.076.822-.077 1.711c0 9.541 6.706 21.146 14.979 25.926 4.149 2.395 7.9 2.618 10.615 1.042l-.022.015 1.05-.607.113-.066.115-.066.114-.066.114-.066.114-.067.114-.066.114-.067.114-.066.113-.066.114-.066.113-.066.114-.066.115-.066.114-.066.114-.066.114-.067.114-.065.114-.066.114-.066.114-.066.114-.066.113-.066.114-.066.114-.067.114-.066.114-.066.113-.066.114-.066.115-.066.114-.066.114-.066c2.713-1.561 4.391-4.913 4.393-9.687.017-9.553-6.689-21.166-14.962-25.938z" transform="translate(-413.862 -83.3)"/>
            <path id="패스_30968" fill="#ff623c" d="M493.343 228.714c0-9.539-6.7-21.151-14.978-25.924s-14.977-.91-14.979 8.625 6.706 21.146 14.979 25.925 14.98.918 14.978-8.626z" transform="translate(-319.641 -107.572)"/>
            <path id="패스_30972" d="M473.217 218.179a14.735 14.735 0 0 0 6.668 11.544c3.688 2.13 6.675.41 6.675-3.841a11.53 11.53 0 0 0-.51-3.243l-7.218 4.162-5.42-9.378 1.059-.61 1.23-.71 1.319-.76 3.925 6.788 3.956-2.276a13.922 13.922 0 0 0-5.011-5.52c-3.69-2.126-6.673-.403-6.673 3.844z" class="cls-25" transform="translate(-321.185 -109.564)"/>
            <path id="패스_30973" d="M485.1 229.865c-1.221 1.065-3.1 1.114-5.217-.105a14.735 14.735 0 0 1-6.668-11.544c0-2.434.983-4.034 2.512-4.56a5.065 5.065 0 0 0-1.457 3.95 14.712 14.712 0 0 0 6.673 11.542 5.055 5.055 0 0 0 4.157.717z" transform="translate(-321.185 -109.6)" style="mix-blend-mode:darken;isolation:isolate" opacity="0.098"/>
            <path id="패스_30983" d="M475.221 216.922l3.925 6.788 5.894-3.39 1.49 2.585 1.059-.608-1.489-2.587-.884.508-3.956 2.276-3.925-6.788z" class="cls-23" transform="translate(-321.5 -109.921)"/>
            <path id="패스_30984" fill="#fff" d="M478.867 227.387l-5.42-9.378 1.495-.861 3.925 6.788 5.894-3.39 1.49 2.585z" opacity="0.996" transform="translate(-321.222 -110.148)"/>
            <path id="패스_30975" fill="#c0a8ff" d="M511.914 326.018L465.88 362.91l-3.523-12.349z" transform="translate(-319.479 -127.245)"/>
            <path id="패스_30976" fill="#61b3e4" d="M511.914 326.018L465.88 362.91l-3.523-12.349z" transform="translate(-319.479 -127.245)"/>
            <path id="패스_30977" fill="#79d7e4" d="M439.387 344.255l68.92-18.237-49.557 24.543zm68.92-18.237L465.8 354.631l10.922 11.178z" transform="translate(-315.872 -127.245)"/>
            <path id="패스_30978" fill="#4278c6" d="M470.06 359.961l-3.523 8.279 6.513-5.22z" transform="translate(-320.136 -132.576)"/>
        </g>
    </g>
</svg>
