<svg xmlns="http://www.w3.org/2000/svg" xmlns:xlink="http://www.w3.org/1999/xlink" width="360" height="328" viewBox="0 0 360 328">
    <defs>
        <linearGradient id="linear-gradient" x2="1" y1=".5" y2=".5" gradientUnits="objectBoundingBox">
            <stop offset="0" stop-color="#775ca7"/>
            <stop offset="1" stop-color="#57a0d7"/>
        </linearGradient>
        <linearGradient id="linear-gradient-2" x2="1" y1=".5" y2=".5" gradientUnits="objectBoundingBox">
            <stop offset="0" stop-color="#ffc533"/>
            <stop offset="1" stop-color="#f8ba26"/>
        </linearGradient>
        <linearGradient id="linear-gradient-3" x2="1" y1=".5" y2=".5" gradientUnits="objectBoundingBox">
            <stop offset="0" stop-color="#ff6660"/>
            <stop offset=".219" stop-color="#fe6f60"/>
            <stop offset=".579" stop-color="#fe8761"/>
            <stop offset="1" stop-color="#fdad64"/>
        </linearGradient>
        <linearGradient id="linear-gradient-8" x1="-.001" x2=".98" y1=".506" y2=".506" xlink:href="#linear-gradient-3"/>
        <linearGradient id="linear-gradient-10" x1="0" x2="1.05" y1=".5" y2=".5" xlink:href="#linear-gradient"/>
        <linearGradient id="linear-gradient-14" x2="1.05" y1=".5" y2=".5" gradientUnits="objectBoundingBox">
            <stop offset="0" stop-color="#775ca7"/>
            <stop offset=".12" stop-color="#6c71b6"/>
            <stop offset=".277" stop-color="#6386c4"/>
            <stop offset=".455" stop-color="#5c94cf"/>
            <stop offset=".666" stop-color="#589dd5"/>
            <stop offset="1" stop-color="#57a0d7"/>
        </linearGradient>
        <linearGradient id="linear-gradient-16" x1=".5" x2=".5" y1="-.029" y2=".769" gradientUnits="objectBoundingBox">
            <stop offset="0" stop-color="#42b1ff"/>
            <stop offset="1" stop-color="#4a83e7"/>
        </linearGradient>
        <clipPath id="clip-path">
            <path id="패스_30618" fill="none" d="M1057.427 564.673c-.02-.025-.006-.009-.007-.011l.014.015.035.04.081.1c.056.072.113.148.17.228.114.16.229.33.338.507a12.492 12.492 0 0 1 .617 1.118 16.342 16.342 0 0 1 .961 2.458 21.657 21.657 0 0 1 .879 5.365 10.186 10.186 0 0 1-.167 2.53 7.305 7.305 0 0 1-.874 2.28 13.489 13.489 0 0 1-3.766 3.772 1.211 1.211 0 0 0 1.351 2.008 23.014 23.014 0 0 0 2.557-1.793 12.4 12.4 0 0 0 2.277-2.4 10.328 10.328 0 0 0 1.489-3.1 13.4 13.4 0 0 0 .5-3.316 25.175 25.175 0 0 0-.6-6.312 20.252 20.252 0 0 0-.975-3.109 16.527 16.527 0 0 0-.705-1.518c-.132-.251-.274-.5-.428-.753-.077-.126-.158-.252-.244-.381l-.137-.2-.077-.106-.044-.057-.066-.082a2.088 2.088 0 1 0-3.177 2.71z" transform="translate(-1055.207 -561.23)"/>
        </clipPath>
        <style>
            .cls-3,.cls-4{fill:#ffd41d;stroke:#ffd41d}.cls-3{opacity:.2}.cls-6{fill:#f89ab5}.cls-8{fill:#e6e6e6}.cls-16,.cls-8{mix-blend-mode:multiply;isolation:isolate}.cls-9{fill:#5f4b8b}.cls-10{fill:#666}.cls-11{fill:#333}.cls-12{fill:#f7b75d}.cls-13{fill:#ffc988}.cls-14{fill:#0353fe}.cls-15{fill:#febe40}.cls-16{opacity:.1}.cls-16,.cls-29{fill:url(#linear-gradient)}.cls-17{fill:#ea8cac}.cls-18{fill:#0a1a4e}.cls-21{fill:url(#linear-gradient-3)}.cls-22{fill:#55b66a}.cls-27{fill:#fff}.cls-28{fill:#7fcbca}.cls-33{fill:#c8da52}.cls-34{fill:#34b2cc}.cls-36{fill:#89ceea}.cls-37{fill:#da1c4b}.cls-38{fill:#b11e48}.cls-40{fill:#4e9b5c}.cls-42{fill:#fbfbfc}.cls-43{fill:#f7f7f8}.cls-44{fill:#f3f4f5}.cls-45{fill:#f0f0f1}.cls-46{fill:#ececee}.cls-47{fill:#e8e8ea}.cls-48{fill:#e4e4e7}.cls-49{fill:#e0e1e3}.cls-50{fill:#dcdde0}.cls-51{fill:#d8d9dc}.cls-52{fill:#d4d5d9}.cls-53{fill:#d1d1d5}.cls-54{fill:#cdcdd2}.cls-55{fill:#c9cace}.cls-56{fill:#c5c6cb}.cls-57{fill:#c1c2c7}.cls-64{fill:#d19420}
        </style>
    </defs>
    <g id="img_villagecompleted" transform="translate(-104 -9.675)">
        <g id="그룹_42144">
            <path id="패스_33293" d="M383.078 162.915c-25.842-14.265-67.327-13.565-92.661 1.568s-24.926 38.972.915 53.236 67.322 13.561 92.656-1.573 24.932-38.967-.91-53.231z" class="cls-3" transform="translate(-4.572 81.699)"/>
            <path id="패스_33294" d="M387.515 163.324c-26.871-14.833-70.009-14.106-96.352 1.63s-25.919 40.525.951 55.357 70 14.1 96.347-1.635 25.926-40.52-.946-55.352z" class="cls-3" transform="translate(-145.182 22.199)"/>
            <path id="패스_33295" d="M360.774 160.862c-20.668-11.409-53.847-10.849-74.108 1.254s-19.936 31.169.732 42.577 53.843 10.846 74.1-1.258 19.944-31.165-.724-42.573z" class="cls-4" transform="translate(-129.452 31.239)"/>
            <path id="패스_33296" d="M365.87 161.331c-21.85-12.061-56.927-11.47-78.347 1.326s-21.076 32.952.774 45.013 56.923 11.466 78.343-1.33 21.08-32.948-.77-45.009z" class="cls-4" transform="translate(5.55 87.516)"/>
            <path id="선_176" fill="none" stroke="#ffd41d" stroke-width="8px" d="M68 26L0 0" transform="translate(226.5 227.175)"/>
        </g>
        <g id="그룹_42140" transform="translate(-22 4)">
            <g id="그룹_40695" transform="translate(284.014 121.31)">
                <g id="그룹_40650" transform="translate(115.94)">
                    <g id="그룹_40649">
                        <path id="패스_30586" d="M1166.777 404.79c-.679.293-1.639.371-1.462 1.289a12.923 12.923 0 0 0 .6 2.038c.656 1.521 1.477 2.456 2.513 2.009s1.564-1.757.908-3.277-1.524-2.506-2.559-2.059z" class="cls-6" transform="translate(-1165.097 -404.681)"/>
                        <path id="패스_30587" d="M1164.8 408.048a1.955 1.955 0 0 0 .365 1.684l1.12 1.415.134-1.685-1.443-2.124z" class="cls-6" transform="translate(-1164.738 -406.397)"/>
                    </g>
                    <path id="패스_30588" fill="#e8ac42" d="M1175.833 426.873c-.147-1.335-.332-2.669-.581-4a34.319 34.319 0 0 0-2.33-7.858 1.469 1.469 0 0 0-2.723 1.1l.012.033a31.229 31.229 0 0 1 1.609 7.242c.147 1.247.234 2.508.287 3.772s.069 2.534.051 3.805c-.03 2.542-.193 5.092-.435 7.633q-.185 1.906-.441 3.8-.128.948-.272 1.889l-.151.937c-.051.305-.107.632-.16.906a2.535 2.535 0 1 0 4.979.959q.016-.084.026-.168v-.015c.045-.371.077-.69.11-1.031l.092-1q.085-1 .15-2 .132-2 .189-3.994c.072-2.664.061-5.331-.09-8-.068-1.339-.172-2.674-.322-4.01z" transform="translate(-1168.208 -410.794)"/>
                </g>
                <ellipse id="타원_996" cx="13.387" cy="7.729" class="cls-8" rx="13.387" ry="7.729" transform="translate(101.21 96.137)"/>
                <path id="패스_30589" d="M1151.038 569.08a5.347 5.347 0 1 0 5.484 5.206 5.347 5.347 0 0 0-5.484-5.206z" class="cls-9" transform="translate(-1036.586 -510.86)"/>
                <g id="그룹_40651" transform="translate(114.226 97.725)">
                    <path id="패스_30590" d="M1160.081 683.721a2.052 2.052 0 0 0 .675 2.528 42.773 42.773 0 0 0 4.524 3 3.387 3.387 0 0 0 1.514-.36 1.046 1.046 0 0 0 .584-.615 1.091 1.091 0 0 0-.18-.846z" class="cls-10" transform="translate(-1159.898 -682.63)"/>
                    <path id="패스_30591" d="M1165.415 689.118a42.777 42.777 0 0 1-4.524-3 2.046 2.046 0 0 1-.732-2.355l-.078-.039a2.052 2.052 0 0 0 .675 2.528 42.773 42.773 0 0 0 4.524 3 2.014 2.014 0 0 0 1.5-.26 1.447 1.447 0 0 0 .38-.36 1.205 1.205 0 0 1-.263.2c-.547.207-1.056.459-1.482.286z" class="cls-11" transform="translate(-1159.898 -682.63)"/>
                    <path id="패스_30592" d="M1166.755 683.368l-2.17-1.55s-2.879-1.337-3.306-1.163a1.414 1.414 0 0 0-.865 1.032 1.909 1.909 0 0 0 .724 1.479c.521.39 1.485 1.022 2.923 1.927 2.4 1.511 3.468.349 3.468.349l-.174-1.337z" class="cls-12" transform="translate(-1160.229 -680.64)"/>
                    <path id="패스_30593" d="M1161.295 680.656a1.435 1.435 0 0 0-.859.995c.221.484 1.062 1.337 4.22 2.525l1.25-.334-1.392-2.063c-.479-.22-2.836-1.279-3.219-1.123z" class="cls-13" transform="translate(-1160.246 -680.64)"/>
                    <path id="패스_30594" d="M1169.063 683.109s-.8.9-.417 1.437a4.587 4.587 0 0 0 1.245 1.007l.208-2.606-.61-.174z" class="cls-12" transform="translate(-1165.481 -682.018)"/>
                </g>
                <path id="패스_30595" d="M1178.161 631.726l.012-.091-.015-.365z" class="cls-14" transform="translate(-1057.466 -551.028)"/>
                <path id="패스_30596" d="M1167.874 570.478a3.609 3.609 0 0 0-4.058 3.095 3.776 3.776 0 0 0-.031.385l-.486 18.06-.01.368.013.088 2.943 20.3a1.585 1.585 0 0 0 3.153-.292l-.828-20.126-.012.091v-.455l.015.365 2.4-17.814a3.609 3.609 0 0 0-3.099-4.065z" class="cls-14" transform="translate(-1047.862 -511.743)"/>
                <g id="그룹_40652" transform="translate(104.914 101.088)">
                    <path id="패스_30597" d="M1133.786 693.215a2.051 2.051 0 0 0 .675 2.528 42.812 42.812 0 0 0 4.524 3 3.385 3.385 0 0 0 1.514-.36 1.046 1.046 0 0 0 .584-.615 1.093 1.093 0 0 0-.18-.846z" class="cls-10" transform="translate(-1133.603 -692.124)"/>
                    <path id="패스_30598" d="M1139.12 698.612a42.8 42.8 0 0 1-4.524-3 2.047 2.047 0 0 1-.732-2.355l-.077-.039a2.051 2.051 0 0 0 .675 2.528 42.812 42.812 0 0 0 4.524 3 2.013 2.013 0 0 0 1.5-.26 1.437 1.437 0 0 0 .38-.361 1.216 1.216 0 0 1-.263.2c-.548.208-1.057.46-1.483.287z" class="cls-11" transform="translate(-1133.603 -692.124)"/>
                    <path id="패스_30599" d="M1140.459 692.863l-2.17-1.55s-2.879-1.337-3.306-1.162a1.414 1.414 0 0 0-.865 1.032 1.91 1.91 0 0 0 .724 1.479c.521.391 1.485 1.022 2.923 1.926 2.4 1.511 3.468.349 3.468.349l-.174-1.337z" class="cls-12" transform="translate(-1133.934 -690.135)"/>
                    <path id="패스_30600" d="M1135 690.15a1.434 1.434 0 0 0-.859.994c.221.484 1.063 1.336 4.22 2.526l1.249-.334-1.391-2.063c-.48-.219-2.838-1.279-3.219-1.123z" class="cls-13" transform="translate(-1133.95 -690.135)"/>
                    <path id="패스_30601" d="M1142.768 692.6s-.8.9-.416 1.437a4.585 4.585 0 0 0 1.245 1.007l.208-2.606-.61-.174z" class="cls-12" transform="translate(-1139.186 -691.512)"/>
                </g>
                <path id="패스_30602" d="M1147.158 578.822a3.491 3.491 0 0 0-3.953 2.958c-.017.114-.027.233-.032.346l-.806 18.583-.011.233.989 20.616a1.534 1.534 0 0 0 3.065.006l1.067-20.612-.011.233 2.651-18.411a3.492 3.492 0 0 0-2.959-3.952z" class="cls-14" transform="translate(-1034.343 -517.13)"/>
                <path id="패스_30603" d="M1154.54 497.026l-1.52-3.338-8.1 1.895-5.783 3.688 1.762 6.305.186 3.026-.3 14.334.043.852.077 4.141a1.324 1.324 0 0 0 1.528 1.28c7.077-1.117 10.916-4.535 12.242-5.957a2.116 2.116 0 0 0 .567-1.366l.224-6.165a18.314 18.314 0 0 1 .385-3.522 58.828 58.828 0 0 0-.36-11.823 11.554 11.554 0 0 0-.951-3.35z" class="cls-15" transform="translate(-1032.262 -462.168)"/>
                <path id="패스_30604" d="M1144.918 495.583l-5.783 3.688.764 6.958.83 3.094.053 13.613.043.852.077 4.132a1.321 1.321 0 0 0 1.526 1.282c.509-.08.948-.158 1.137-.2l1.025-6.011.3-14.334-.186-3.026-1.762-6.305 3.342-.508a14.47 14.47 0 0 0 6.949-3.075l.528-.43-.742-1.629z" class="cls-16" transform="translate(-1032.262 -462.168)"/>
                <path id="패스_30605" d="M1158.338 484.128l.032 4.779a8.476 8.476 0 0 0 5.036-1.783l-.823-4.2z" class="cls-6" transform="translate(-1044.665 -455.218)"/>
                <path id="패스_30606" d="M1158.3 485.981a5.883 5.883 0 0 0 4.213-3.156l-4.251 1.415z" class="cls-8" transform="translate(-1044.618 -455.152)"/>
                <g id="그룹_40653" transform="translate(109.237 16.652)">
                    <path id="패스_30607" d="M1151.319 454.775c-2.321-1.049-3.94 1.109-4.818 4.326-.126.461-.614.867-.691 1.369.217 2.973 2.56 6.183 5.464 6.194 2.133-.3 4.314-2.852 5.281-5.925.014-3.658-2.332-5.953-5.236-5.964z" class="cls-6" transform="translate(-1145.81 -453.515)"/>
                    <path id="패스_30608" d="M1146.538 460.524c.077-.5.565-.908.691-1.369.7-2.558 1.866-4.445 3.482-4.583-2-.447-3.411 1.6-4.21 4.531-.126.461-.614.867-.691 1.369.217 2.973 2.56 6.183 5.464 6.194.018 0 .035-.008.053-.011-2.585-.455-4.588-3.392-4.789-6.131z" class="cls-17" transform="translate(-1145.81 -453.516)"/>
                    <path id="패스_30609" d="M1148.509 452.263a2.8 2.8 0 0 0-.645 2.273s3.138 3.452 9.994 4.392c0 0-.422-9.604-9.349-6.665z" class="cls-18" transform="translate(-1147.113 -451.704)"/>
                    <path id="패스_30610" d="M1158.666 455.466l-2.556 3.556-.243 2.72s1.142.233 1.139 1.148a2.849 2.849 0 0 1-.736 1.69l2.452 2.423c1.8-.795 3.506-3.03 4.329-5.645.012-3.292-1.888-5.48-4.385-5.892z" class="cls-18" transform="translate(-1152.306 -454.134)"/>
                </g>
                <path id="패스_30611" fill="url(#linear-gradient-2)" d="M1158.421 494.8v.414a6.9 6.9 0 0 0 5.135-1.565l-.245-.959s-1.111 2.118-4.89 2.11z" transform="translate(-1044.718 -461.522)"/>
                <g id="그룹_40667" transform="translate(48.478 42.739)">
                    <ellipse id="타원_997" cx="13.479" cy="7.782" class="cls-8" rx="13.479" ry="7.782" transform="translate(13.696 75.815)"/>
                    <g id="그룹_40666">
                        <path id="패스_30612" d="M1048.853 748.16a2.066 2.066 0 0 0 .68 2.546 43.141 43.141 0 0 0 4.555 3.023 3.417 3.417 0 0 0 1.525-.363 1.056 1.056 0 0 0 .588-.619 1.1 1.1 0 0 0-.181-.852z" class="cls-10" transform="translate(-1022.311 -669.263)"/>
                        <path id="패스_30613" d="M1054.223 753.594a43.13 43.13 0 0 1-4.555-3.024 2.061 2.061 0 0 1-.737-2.371l-.078-.039a2.066 2.066 0 0 0 .68 2.546 43.141 43.141 0 0 0 4.555 3.023 2.026 2.026 0 0 0 1.514-.261 1.461 1.461 0 0 0 .383-.363 1.225 1.225 0 0 1-.265.2c-.556.21-1.068.463-1.497.289z" class="cls-11" transform="translate(-1022.311 -669.263)"/>
                        <path id="패스_30614" d="M1055.572 747.805l-2.185-1.561s-2.9-1.346-3.329-1.17a1.424 1.424 0 0 0-.87 1.039 1.921 1.921 0 0 0 .73 1.489c.524.393 1.495 1.029 2.943 1.94 2.419 1.522 3.492.351 3.492.351l-.176-1.346z" class="cls-12" transform="translate(-1022.644 -667.259)"/>
                        <path id="패스_30615" d="M1050.074 745.074a1.444 1.444 0 0 0-.865 1c.223.487 1.07 1.346 4.25 2.543l1.258-.336-1.4-2.077c-.484-.22-2.858-1.287-3.243-1.13z" class="cls-13" transform="translate(-1022.66 -667.259)"/>
                        <g id="그룹_40661" transform="translate(26.434 12.7)">
                            <g id="그룹_40654" transform="translate(0 21.617)">
                                <path id="패스_30616" d="M1050.6 622.562a9.718 9.718 0 0 0-1.42.713c-.593.372-.146.937.041 1.458.284.794 1.263.765 2.431.348a1.757 1.757 0 0 0 1.331-2.169c-.283-.795-1.214-.768-2.383-.35z" class="cls-6" transform="translate(-1048.885 -622.274)"/>
                                <path id="패스_30617" d="M1049.339 623.084l-.3.459 1.9-.294.853-.933-1.345.109a1.464 1.464 0 0 0-1.108.659z" class="cls-6" transform="translate(-1048.985 -622.3)"/>
                            </g>
                            <g id="그룹_40660" transform="translate(2.238)">
                                <g id="그룹_40659">
                                    <g id="그룹_40658">
                                        <g id="그룹_40657" clip-path="url(#clip-path)">
                                            <g id="그룹_40655" transform="translate(-2.637 -16.759)">
                                                <path id="사각형_18028" d="M0 0H28.781V28.781H0z" class="cls-21"/>
                                            </g>
                                            <g id="그룹_40656" transform="translate(-2.637 12.022)">
                                                <path id="사각형_18029" d="M0 0H28.781V28.781H0z" class="cls-21"/>
                                            </g>
                                        </g>
                                    </g>
                                </g>
                            </g>
                        </g>
                        <path id="패스_30619" d="M1034.793 576.833l-3.142-.306 1.018 4.567s-1.76 1.249-1.063 2.331 1.948 2.765 1.948 2.765a20.316 20.316 0 0 1-.124 4.808c-.4 1.766-1.7 7-1.7 7l1.705 1.112 5.612-11.471-2.215-10.614z" class="cls-21" transform="translate(-1011.186 -558.41)"/>
                        <path id="패스_30620" d="M1027.287 758.534a2.066 2.066 0 0 0 .68 2.546 43.05 43.05 0 0 0 4.555 3.024 3.416 3.416 0 0 0 1.524-.363 1.054 1.054 0 0 0 .588-.619 1.1 1.1 0 0 0-.181-.852z" class="cls-10" transform="translate(-1008.382 -675.963)"/>
                        <path id="패스_30621" d="M1032.657 763.968a43.04 43.04 0 0 1-4.555-3.023 2.06 2.06 0 0 1-.737-2.371l-.078-.039a2.066 2.066 0 0 0 .68 2.546 43.05 43.05 0 0 0 4.555 3.024 2.028 2.028 0 0 0 1.514-.262 1.455 1.455 0 0 0 .383-.363 1.224 1.224 0 0 1-.265.2c-.554.209-1.068.462-1.497.288z" class="cls-11" transform="translate(-1008.382 -675.963)"/>
                        <path id="패스_30622" d="M1034.006 758.179l-2.185-1.561s-2.9-1.346-3.328-1.17a1.423 1.423 0 0 0-.87 1.039 1.923 1.923 0 0 0 .729 1.489c.524.393 1.495 1.029 2.943 1.94 2.419 1.522 3.492.351 3.492.351l-.176-1.346z" class="cls-12" transform="translate(-1008.716 -673.96)"/>
                        <path id="패스_30623" d="M1028.509 755.448a1.444 1.444 0 0 0-.865 1c.222.487 1.07 1.346 4.249 2.543l1.258-.336-1.4-2.077c-.484-.22-2.857-1.287-3.242-1.13z" class="cls-13" transform="translate(-1008.732 -673.96)"/>
                        <path id="패스_30624" d="M1060.268 637.4a3.3 3.3 0 0 0-3.521 3.054c-.007.1-.009.2-.008.3l.362 19.163c.007 1.6.122 3.193.192 4.79l.236 4.789.473 9.574a1.448 1.448 0 0 0 2.893.008l.525-9.546.262-4.771c.092-1.59.161-3.18.286-4.769l1.354-19.065a3.3 3.3 0 0 0-3.054-3.527z" class="cls-6" transform="translate(-1027.523 -597.721)"/>
                        <path id="패스_30625" d="M1038.04 642.482a3.3 3.3 0 0 0-3.54 3.032q-.01.138-.01.274v.008l.081 9.954.041 4.972.021 2.485.01 1.242c0 .207 0 .414.011.621l.046.621 1.46 19.845a1.448 1.448 0 0 0 2.893-.068l.532-19.755.017-.616c.006-.206.029-.411.043-.616l.1-1.232.19-2.463.381-4.924.76-9.839a3.3 3.3 0 0 0-3.036-3.541z" class="cls-6" transform="translate(-1013.154 -601.002)"/>
                        <path id="패스_30626" d="M1047.915 583.18l1.123-8.4c1.189-3.056-.125-3.616-.232-5.01l-.93-4.526-9.461 4.3.078.232a.75.75 0 0 1-.056.6 7.234 7.234 0 0 0-.711 2.578c-.321 2.72.625 1.841.6 4.937-.007 1.013.039 4.583.051 5.734l-1.315 6.888a1.764 1.764 0 0 0 .944 1.753c1.419.8 5.15.493 10.1-1.779a14.019 14.019 0 0 0 1.245-1.1 1.037 1.037 0 0 0 .464-.823l.11-.446-.148-.544c-.211-.513-1.862-4.394-1.862-4.394z" class="cls-21" transform="translate(-1014.807 -551.124)"/>
                        <path id="패스_30627" d="M1032.247 631.873s1.409 2.39 1.341 7.367c-.018 1.355-.2 2.926-.291 4.735-.572 10.867 13.747.487 13.747.487s1.9-12.431-.579-15.479c-.686 3.99-10.898 4.757-14.218 2.89z" class="cls-22" transform="translate(-1011.705 -592.289)"/>
                        <path id="패스_30628" fill="#4d9e5c" d="M1037.069 638.092c-1.5.033-4.828-.251-5.774-.947 0 0-.179 2.4-.493 6.828-.1 1.351.091 3.4 0 5.208-.256 4.874 4.031 5.539 7.13 4.718l-.859-14.887z" transform="translate(-1010.753 -597.562)"/>
                        <path id="패스_30629" d="M1035.038 566.346l2.615 1.8 9.468-4.5-2.214-1.413z" class="cls-21" transform="translate(-1013.508 -549.182)"/>
                        <g id="그룹_40663" transform="translate(0 17.044)">
                            <g id="그룹_40662" transform="translate(0 6.866)">
                                <path id="패스_30630" d="M977.041 593.882a9.746 9.746 0 0 0-1.31-.9c-.611-.34-.891.325-1.257.739-.558.632-.06 1.476.868 2.3a1.757 1.757 0 0 0 2.542.118c.559-.634.086-1.439-.843-2.257z" class="cls-6" transform="translate(-974.24 -592.887)"/>
                                <path id="패스_30631" d="M978.071 592.924l-.546-.04 1.174 1.521 1.229.3-.745-1.126a1.463 1.463 0 0 0-1.112-.655z" class="cls-6" transform="translate(-976.362 -592.884)"/>
                            </g>
                            <path id="패스_30632" fill="url(#linear-gradient-8)" d="M1031.546 577.281l.007-.016-.007.016z" transform="translate(-1011.252 -575.931)"/>
                            <path id="패스_30633" d="M1000.182 573.632a2.088 2.088 0 0 0-2.684 1.2s0 .013-.006.019l-.019.05-.048.118c-.036.084-.074.171-.118.26-.085.178-.179.36-.282.541a12.569 12.569 0 0 1-.681 1.08 16.441 16.441 0 0 1-1.689 2.028 21.655 21.655 0 0 1-4.275 3.359 10.227 10.227 0 0 1-2.3 1.075 7.31 7.31 0 0 1-2.418.335 13.479 13.479 0 0 1-5.121-1.478 1.211 1.211 0 0 0-1.107 2.152 23.01 23.01 0 0 0 2.8 1.374 12.415 12.415 0 0 0 3.2.836 10.342 10.342 0 0 0 3.43-.19 13.418 13.418 0 0 0 3.146-1.163 25.19 25.19 0 0 0 5.24-3.569 20.236 20.236 0 0 0 2.252-2.354 16.528 16.528 0 0 0 .99-1.351c.156-.236.306-.482.453-.738.073-.128.145-.26.216-.4l.107-.216.056-.119.029-.066.04-.1a2.088 2.088 0 0 0-1.211-2.683z" class="cls-21" transform="translate(-977.197 -573.497)"/>
                        </g>
                        <g id="그룹_40665" transform="translate(22.177)">
                            <path id="패스_30634" d="M1046.233 562.329a7.1 7.1 0 0 0 4.787-.962l.144-4.656-4.344.929z" class="cls-6" transform="translate(-1042.915 -545.612)"/>
                            <path id="패스_30635" d="M1047.574 559.5a5.923 5.923 0 0 0 4.439-2.9l-4.365 1.144z" class="cls-8" transform="translate(-1043.781 -545.543)"/>
                            <g id="그룹_40664" transform="translate(0 .063)">
                                <path id="패스_30636" d="M1042.184 526.665c-2.375-.965-3.921 1.27-4.679 4.54-.109.469-.584.9-.642 1.4.335 2.983 2.816 6.121 5.738 6.02 2.134-.387 4.23-3.037 5.083-6.166-.128-3.677-2.577-5.896-5.5-5.794z" class="cls-6" transform="translate(-1036.863 -526.123)"/>
                                <path id="패스_30637" d="M1037.6 532.635c.058-.508.533-.936.642-1.4.6-2.6 1.7-4.545 3.325-4.747-2.027-.371-3.369 1.746-4.059 4.723-.109.469-.584.9-.642 1.4.335 2.983 2.816 6.121 5.738 6.02.018 0 .035-.01.052-.013-2.62-.358-4.75-3.235-5.056-5.983z" class="cls-17" transform="translate(-1036.863 -526.125)"/>
                                <path id="패스_30638" d="M1041.281 525.951a2.69 2.69 0 0 0-1.825 1.835 2.278 2.278 0 0 0-.058 1.085s2.963 2.645 9.9 3.325c.002.004-.071-8.583-8.017-6.245z" class="cls-18" transform="translate(-1038.474 -525.547)"/>
                            </g>
                            <path id="패스_30639" d="M1044.136 525.371c-.672 0-3.464 1.327-3.23 2.731s3.433 6.476 3.894 9.238-2.147 10.944-2.157 12.817 1.248 2.224 5.306 2.108 8.045-5.266 8.69-8.351-5.959-13.343-5.959-13.343c-1.558-5.471-5.873-5.2-6.544-5.2z" class="cls-18" transform="translate(-1039.465 -525.369)"/>
                        </g>
                        <path id="패스_30640" d="M1036.7 757.8a1.069 1.069 0 0 0-.933.275s-.721.981-.284 1.48a4.619 4.619 0 0 0 1.342.895l-.033-2.632z" class="cls-12" transform="translate(-1013.702 -675.48)"/>
                        <path id="패스_30641" d="M1058.263 747.43a1.069 1.069 0 0 0-.933.275s-.721.982-.284 1.48a4.62 4.62 0 0 0 1.341.895l-.033-2.632z" class="cls-12" transform="translate(-1027.631 -668.78)"/>
                    </g>
                </g>
                <g id="그룹_40677" transform="translate(0 65.132)">
                    <g id="그룹_40669" transform="translate(17.074 14.534)">
                        <g id="그룹_40668" transform="translate(0 5.841)">
                            <path id="패스_30642" d="M887.546 646.289c-.742-.476-1.146.336-1.641.828-.754.75-.2 1.851.906 2.959s2.434 1.1 3.187.354.224-1.8-.878-2.9a12.223 12.223 0 0 0-1.574-1.241z" class="cls-6" transform="translate(-885.559 -646.143)"/>
                            <path id="패스_30643" d="M890.708 646.234l-.683-.095 1.354 2.008 1.522.473-.846-1.476a1.844 1.844 0 0 0-1.347-.91z" class="cls-6" transform="translate(-888.444 -646.139)"/>
                        </g>
                        <path id="패스_30644" fill="url(#linear-gradient-10)" d="M911.155 629.646a2.409 2.409 0 0 0-2.477 2.341 2.555 2.555 0 0 0 .024.412V632.725l-.006.375c-.007.253-.019.509-.036.765-.033.513-.084 1.027-.153 1.538a19.292 19.292 0 0 1-.631 2.983 9.686 9.686 0 0 1-2.838 4.752c-.083.07-.169.136-.255.2l-.044.034-.025.021c-.019.012-.036.026-.057.039a1.139 1.139 0 0 1-.315.132 2.9 2.9 0 0 1-1.056.035 9 9 0 0 1-2.7-.882 16.188 16.188 0 0 1-2.635-1.621 13.645 13.645 0 0 1-1.172-.987 7.006 7.006 0 0 1-.918-1.036l-.029-.042a1.387 1.387 0 0 0-2.348 1.472 9.515 9.515 0 0 0 1.2 1.621 16.538 16.538 0 0 0 1.332 1.317 19.319 19.319 0 0 0 3 2.185 12.384 12.384 0 0 0 3.651 1.491 6.6 6.6 0 0 0 2.331.094 4.99 4.99 0 0 0 1.3-.384c.108-.048.214-.1.319-.159l.156-.091.077-.046.057-.036c.148-.095.295-.191.437-.294a11.514 11.514 0 0 0 2.836-2.948 16.74 16.74 0 0 0 1.771-3.463 23.685 23.685 0 0 0 1.038-3.61q.189-.911.314-1.834c.042-.308.079-.617.11-.93l.042-.475.017-.245c0-.089.01-.154.013-.28l.008-.293a2.41 2.41 0 0 0-2.338-2.477z" transform="translate(-890.563 -629.645)"/>
                    </g>
                    <g id="그룹_40671" transform="translate(0 15.518)">
                        <path id="패스_30645" fill="#ffd41d" d="M837.346 636.6l13.9 11.778 11.663-4.182-13.9-11.778z" transform="translate(-837.346 -632.423)"/>
                        <g id="그룹_40670" transform="translate(3.943 1.776)">
                            <path id="패스_30646" d="M862.911 644.012a7.436 7.436 0 0 0-4.426-.783c-1.446.215-2.431.911-2.585 1.825s.548 1.908 1.84 2.608a7.438 7.438 0 0 0 4.426.782 5.082 5.082 0 0 0 .914-.219l-2.754-2.388 3.582-1.126a4.945 4.945 0 0 0-.997-.699z" class="cls-27" transform="translate(-853.259 -641.134)"/>
                            <path id="패스_30647" d="M848.48 639.324l.618.524 5.26-1.886-.618-.523z" class="cls-27" transform="translate(-848.48 -637.439)"/>
                            <path id="패스_30648" d="M864.615 657.792l.618.523 9.833-3.526-.618-.523z" class="cls-27" transform="translate(-858.901 -648.307)"/>
                            <path id="패스_30649" d="M867.406 660.157l.618.524 9.833-3.526-.618-.523z" class="cls-27" transform="translate(-860.704 -649.835)"/>
                            <path id="패스_30650" d="M870.2 662.522l.618.523 9.833-3.526-.618-.523z" class="cls-27" transform="translate(-862.507 -651.362)"/>
                            <path id="패스_30651" d="M872.989 664.887l.618.523 9.833-3.526-.618-.523z" class="cls-27" transform="translate(-864.31 -652.89)"/>
                        </g>
                    </g>
                    <ellipse id="타원_998" cx="13.387" cy="7.729" class="cls-8" rx="13.387" ry="7.729" transform="translate(17.754 79.301)"/>
                    <circle id="타원_999" cx="5.347" cy="5.347" r="5.347" class="cls-9" transform="rotate(-50.57 62.042 -1.257)"/>
                    <g id="그룹_40672" transform="translate(30.77 80.89)">
                        <path id="패스_30652" d="M924.416 820.1a2.052 2.052 0 0 0 .675 2.528 42.756 42.756 0 0 0 4.524 3 3.387 3.387 0 0 0 1.514-.36 1.046 1.046 0 0 0 .584-.615 1.093 1.093 0 0 0-.18-.846z" class="cls-10" transform="translate(-924.233 -819.009)"/>
                        <path id="패스_30653" d="M929.75 825.5a42.853 42.853 0 0 1-4.524-3 2.046 2.046 0 0 1-.732-2.355l-.078-.039a2.052 2.052 0 0 0 .675 2.528 42.756 42.756 0 0 0 4.524 3 2.012 2.012 0 0 0 1.5-.26 1.436 1.436 0 0 0 .38-.36 1.2 1.2 0 0 1-.263.2c-.547.204-1.056.456-1.482.286z" class="cls-11" transform="translate(-924.233 -819.009)"/>
                        <path id="패스_30654" d="M931.089 819.748l-2.17-1.55s-2.879-1.337-3.305-1.162a1.413 1.413 0 0 0-.865 1.032 1.909 1.909 0 0 0 .725 1.479c.521.39 1.485 1.022 2.923 1.926 2.4 1.511 3.468.349 3.468.349l-.175-1.336z" class="cls-12" transform="translate(-924.564 -817.02)"/>
                        <path id="패스_30655" d="M925.63 817.035a1.433 1.433 0 0 0-.859.994c.221.484 1.062 1.337 4.22 2.526l1.25-.334-1.392-2.063c-.48-.219-2.836-1.279-3.219-1.123z" class="cls-13" transform="translate(-924.581 -817.02)"/>
                        <path id="패스_30656" d="M933.4 819.488s-.8.9-.417 1.437a4.59 4.59 0 0 0 1.245 1.008l.208-2.606-.61-.174z" class="cls-12" transform="translate(-929.816 -818.398)"/>
                    </g>
                    <path id="패스_30657" d="M942.5 768.105l.012-.091-.015-.365z" class="cls-28" transform="translate(-905.258 -704.243)"/>
                    <path id="패스_30658" d="M932.209 706.857a3.608 3.608 0 0 0-4.058 3.095 3.759 3.759 0 0 0-.031.385l-.486 18.06-.01.368.013.087 2.943 20.3a1.585 1.585 0 0 0 3.153-.292l-.833-20.13-.012.091v-.455l.015.365 2.4-17.814a3.609 3.609 0 0 0-3.094-4.06z" class="cls-28" transform="translate(-895.654 -664.959)"/>
                    <g id="그룹_40673" transform="translate(21.458 84.252)">
                        <path id="패스_30659" d="M898.121 829.594a2.053 2.053 0 0 0 .675 2.529 42.843 42.843 0 0 0 4.524 3 3.386 3.386 0 0 0 1.514-.36 1.045 1.045 0 0 0 .584-.615 1.093 1.093 0 0 0-.18-.846z" class="cls-10" transform="translate(-897.938 -828.503)"/>
                        <path id="패스_30660" d="M903.454 834.991a42.808 42.808 0 0 1-4.524-3 2.047 2.047 0 0 1-.732-2.355l-.078-.039a2.053 2.053 0 0 0 .675 2.529 42.843 42.843 0 0 0 4.524 3 2.013 2.013 0 0 0 1.5-.26 1.443 1.443 0 0 0 .38-.36 1.228 1.228 0 0 1-.263.2c-.546.206-1.055.458-1.482.285z" class="cls-11" transform="translate(-897.938 -828.503)"/>
                        <path id="패스_30661" d="M904.794 829.242l-2.17-1.55s-2.879-1.337-3.306-1.162a1.414 1.414 0 0 0-.864 1.032 1.909 1.909 0 0 0 .724 1.479c.521.391 1.485 1.022 2.923 1.926 2.4 1.511 3.468.349 3.468.349l-.174-1.337z" class="cls-12" transform="translate(-898.269 -826.514)"/>
                        <path id="패스_30662" d="M899.334 826.529a1.435 1.435 0 0 0-.859.994c.221.484 1.063 1.337 4.221 2.526l1.249-.334-1.392-2.063c-.479-.219-2.836-1.279-3.219-1.123z" class="cls-13" transform="translate(-898.285 -826.514)"/>
                        <path id="패스_30663" d="M907.1 828.982s-.8.9-.417 1.437a4.588 4.588 0 0 0 1.245 1.008l.208-2.606-.61-.174z" class="cls-12" transform="translate(-903.521 -827.892)"/>
                    </g>
                    <path id="패스_30664" d="M911.493 715.2a3.491 3.491 0 0 0-3.954 2.958c-.017.114-.027.233-.032.346l-.806 18.583-.011.233.989 20.616a1.534 1.534 0 0 0 3.065.006l1.067-20.612-.011.233 2.651-18.411a3.491 3.491 0 0 0-2.958-3.952z" class="cls-28" transform="translate(-882.134 -670.345)"/>
                    <path id="패스_30665" d="M918.875 633.405l-1.52-3.338-8.1 1.895-5.783 3.689 1.762 6.305.186 3.025-.3 14.334.043.852.077 4.141a1.323 1.323 0 0 0 1.528 1.28c7.077-1.117 10.915-4.535 12.242-5.958a2.115 2.115 0 0 0 .567-1.366l.224-6.165a18.3 18.3 0 0 1 .385-3.522 58.832 58.832 0 0 0-.36-11.823 11.556 11.556 0 0 0-.951-3.349z" class="cls-29" transform="translate(-880.053 -615.383)"/>
                    <path id="패스_30666" fill="url(#linear-gradient)" d="M909.253 631.962l-5.783 3.689.764 6.958.83 3.094.053 13.613.043.852.077 4.132a1.321 1.321 0 0 0 1.526 1.282c.508-.08.948-.158 1.137-.2l1.024-6.011.3-14.334-.186-3.026-1.762-6.305 2.594-.394a14.465 14.465 0 0 0 7.984-4l.808-.8-1.308-.449z" transform="translate(-880.053 -615.383)" style="mix-blend-mode:multiply;isolation:isolate" opacity="0.25"/>
                    <path id="패스_30667" d="M922.673 620.507l.032 4.779a8.475 8.475 0 0 0 5.036-1.783l-.823-4.2z" class="cls-6" transform="translate(-892.456 -608.433)"/>
                    <path id="패스_30668" d="M922.64 622.36a5.883 5.883 0 0 0 4.213-3.156l-4.251 1.415z" class="cls-8" transform="translate(-892.409 -608.367)"/>
                    <g id="그룹_40674" transform="translate(24.809)">
                        <path id="패스_30669" d="M913.109 591.579c-2.523-.344-3.461 2.186-3.385 5.52.011.478-.341 1.006-.272 1.509 1.056 2.788 4.216 5.2 7 4.38 1.958-.9 3.323-3.964 3.373-7.184-1.025-3.51-3.925-5.042-6.716-4.225z" class="cls-6" transform="translate(-908.719 -590.386)"/>
                        <path id="패스_30670" d="M910.165 598.8c-.069-.5.283-1.032.272-1.51-.06-2.651.522-4.792 2.031-5.385-2.042.141-2.813 2.509-2.744 5.543.011.478-.341 1.006-.272 1.509 1.056 2.788 4.216 5.2 7 4.38.016-.007.031-.018.047-.025-2.604.3-5.362-1.944-6.334-4.512z" class="cls-17" transform="translate(-908.719 -590.736)"/>
                        <path id="패스_30671" d="M907.648 590.3a2.8 2.8 0 0 0 .03 2.363s3.992 2.414 10.831 1.362c0-.005-3.141-9.091-10.861-3.725z" class="cls-18" transform="translate(-907.401 -588.603)"/>
                        <path id="패스_30672" d="M919.539 591.407l-1.437 4.137.542 2.677s1.161-.1 1.419.775a2.848 2.848 0 0 1-.223 1.829l3.04 1.624c1.5-1.276 2.5-3.9 2.541-6.644-.927-3.159-3.371-4.715-5.882-4.398z" class="cls-18" transform="translate(-914.312 -590.388)"/>
                    </g>
                    <path id="패스_30673" d="M922.756 631.177v.414a6.9 6.9 0 0 0 5.135-1.565l-.244-.959s-1.114 2.12-4.891 2.11z" class="cls-29" transform="translate(-892.51 -614.737)"/>
                    <g id="그룹_40676" transform="translate(4.7 19.05)">
                        <g id="그룹_40675" transform="translate(0 5.841)">
                            <path id="패스_30674" d="M852.6 659.041c-.741-.477-1.146.336-1.641.828-.754.75-.2 1.851.906 2.959s2.434 1.1 3.187.354.224-1.8-.878-2.9a12.251 12.251 0 0 0-1.574-1.241z" class="cls-6" transform="translate(-850.618 -658.894)"/>
                            <path id="패스_30675" d="M855.767 658.985l-.683-.1 1.354 2.009 1.522.473-.846-1.476a1.845 1.845 0 0 0-1.347-.906z" class="cls-6" transform="translate(-853.502 -658.89)"/>
                        </g>
                        <path id="패스_30676" fill="url(#linear-gradient-14)" d="M876.213 642.4a2.41 2.41 0 0 0-2.477 2.341 2.57 2.57 0 0 0 .024.413V645.48l-.006.374c-.007.253-.019.509-.036.765-.033.513-.084 1.028-.153 1.538a19.3 19.3 0 0 1-.631 2.983 9.687 9.687 0 0 1-2.838 4.752c-.083.07-.169.135-.255.2l-.044.033-.025.022c-.019.012-.036.026-.057.039a1.145 1.145 0 0 1-.315.132 2.907 2.907 0 0 1-1.056.035 9.011 9.011 0 0 1-2.7-.882 16.158 16.158 0 0 1-2.635-1.621 13.7 13.7 0 0 1-1.171-.987 6.987 6.987 0 0 1-.918-1.036l-.029-.042a1.386 1.386 0 0 0-2.347 1.472 9.5 9.5 0 0 0 1.2 1.621 16.674 16.674 0 0 0 1.332 1.317 19.334 19.334 0 0 0 3 2.184 12.379 12.379 0 0 0 3.652 1.491 6.585 6.585 0 0 0 2.33.093 4.972 4.972 0 0 0 1.3-.383c.108-.048.214-.1.319-.16l.155-.091.077-.046.057-.036c.148-.095.295-.191.437-.294a11.524 11.524 0 0 0 2.838-2.953 16.73 16.73 0 0 0 1.77-3.463 23.669 23.669 0 0 0 1.038-3.61c.125-.608.23-1.218.314-1.834.042-.308.079-.617.11-.93l.042-.475.017-.245c.005-.089.01-.154.014-.28l.008-.293a2.41 2.41 0 0 0-2.341-2.47z" transform="translate(-855.622 -642.396)"/>
                    </g>
                </g>
                <g id="그룹_40685" transform="translate(87.662 61.164)">
                    <g id="그룹_40679" transform="translate(16.413 15.16)">
                        <g id="그룹_40678" transform="translate(0 31.642)">
                            <path id="패스_30677" d="M1134.713 709.646c-1.015-.385-1.765.549-2.331 2.04a12.494 12.494 0 0 0-.487 1.986c-.131.89.8.924 1.461 1.177 1.015.385 1.8-.6 2.37-2.089s.001-2.73-1.013-3.114z" class="cls-6" transform="translate(-1131.652 -709.559)"/>
                            <path id="패스_30678" d="M1131.589 713.314a1.884 1.884 0 0 0-.279 1.636l.2.676 1.3-2.105-.2-1.615z" class="cls-6" transform="translate(-1131.232 -711.075)"/>
                        </g>
                        <path id="패스_30679" fill="#2e75bc" d="M1139.164 626.12q-.106-.958-.23-1.916l-.131-.961c-.047-.327-.091-.632-.15-.987v-.014q-.014-.08-.033-.16a2.441 2.441 0 0 0-4.749 1.135c.063.261.13.573.192.865l.185.895q.18.9.343 1.805.327 1.811.586 3.638c.342 2.434.608 4.879.745 7.323.071 1.222.114 2.445.114 3.663s-.027 2.435-.115 3.641a30.065 30.065 0 0 1-1.238 7.034l-.01.032a1.414 1.414 0 0 0 2.666.94 33.069 33.069 0 0 0 1.9-7.658c.183-1.291.3-2.582.387-3.872s.131-2.58.143-3.867c.031-2.576-.073-5.142-.256-7.7q-.137-1.922-.349-3.836z" transform="translate(-1132.892 -620.206)"/>
                    </g>
                    <ellipse id="타원_1000" cx="13.65" cy="7.881" class="cls-8" rx="13.65" ry="7.881" transform="translate(0 81.046)"/>
                    <circle id="타원_1001" cx="5.452" cy="5.452" r="5.452" class="cls-9" transform="rotate(-17.827 144.663 .529)"/>
                    <g id="그룹_40680" transform="translate(12.886 82.551)">
                        <path id="패스_30680" d="M1121.46 813.647a2.093 2.093 0 0 0 .689 2.578 43.643 43.643 0 0 0 4.613 3.062 3.452 3.452 0 0 0 1.544-.367 1.065 1.065 0 0 0 .6-.627 1.115 1.115 0 0 0-.184-.862z" class="cls-10" transform="translate(-1121.274 -812.535)"/>
                        <path id="패스_30681" d="M1126.9 819.15a43.617 43.617 0 0 1-4.613-3.062 2.086 2.086 0 0 1-.746-2.4l-.079-.04a2.093 2.093 0 0 0 .689 2.578 43.643 43.643 0 0 0 4.613 3.062 2.052 2.052 0 0 0 1.533-.265 1.476 1.476 0 0 0 .388-.368 1.223 1.223 0 0 1-.269.207c-.565.208-1.083.465-1.516.288z" class="cls-11" transform="translate(-1121.274 -812.535)"/>
                        <path id="패스_30682" d="M1128.264 813.288l-2.212-1.58s-2.936-1.363-3.37-1.185a1.442 1.442 0 0 0-.882 1.052 1.947 1.947 0 0 0 .739 1.508c.531.4 1.514 1.042 2.98 1.964 2.45 1.541 3.536.356 3.536.356l-.178-1.363z" class="cls-12" transform="translate(-1121.611 -810.506)"/>
                        <path id="패스_30683" d="M1122.7 810.522a1.464 1.464 0 0 0-.876 1.014c.226.493 1.083 1.363 4.3 2.575l1.274-.341-1.419-2.1c-.489-.227-2.892-1.307-3.279-1.148z" class="cls-13" transform="translate(-1121.627 -810.506)"/>
                        <path id="패스_30684" d="M1130.618 813.024s-.818.923-.425 1.466a4.674 4.674 0 0 0 1.269 1.027l.212-2.657-.623-.178z" class="cls-12" transform="translate(-1126.966 -811.911)"/>
                    </g>
                    <path id="패스_30685" d="M1139.722 759.942l.012-.093-.015-.372z" class="cls-33" transform="translate(-1120.301 -694.997)"/>
                    <path id="패스_30686" d="M1129.232 697.49a3.68 3.68 0 0 0-4.138 3.156 3.828 3.828 0 0 0-.032.392l-.5 18.415-.01.375.013.089 3 20.694a1.617 1.617 0 0 0 3.215-.3l-.844-20.521-.012.093v-.465l.015.372 2.446-18.164a3.68 3.68 0 0 0-3.153-4.136z" class="cls-33" transform="translate(-1110.508 -654.94)"/>
                    <g id="그룹_40681" transform="translate(3.655 86.484)">
                        <path id="패스_30687" d="M1095.393 824.754a2.092 2.092 0 0 0 .689 2.578 43.624 43.624 0 0 0 4.612 3.062 3.457 3.457 0 0 0 1.544-.367 1.065 1.065 0 0 0 .6-.627 1.115 1.115 0 0 0-.183-.863z" class="cls-10" transform="translate(-1095.207 -823.642)"/>
                        <path id="패스_30688" d="M1100.831 830.257a43.577 43.577 0 0 1-4.613-3.062 2.085 2.085 0 0 1-.746-2.4l-.079-.04a2.092 2.092 0 0 0 .689 2.578 43.624 43.624 0 0 0 4.612 3.062 2.052 2.052 0 0 0 1.533-.265 1.479 1.479 0 0 0 .388-.367 1.254 1.254 0 0 1-.268.207c-.563.207-1.081.464-1.516.287z" class="cls-11" transform="translate(-1095.207 -823.642)"/>
                        <path id="패스_30689" d="M1102.2 824.394l-2.213-1.58s-2.936-1.363-3.37-1.185a1.442 1.442 0 0 0-.882 1.052 1.948 1.948 0 0 0 .739 1.508c.531.4 1.514 1.042 2.98 1.964 2.45 1.541 3.536.355 3.536.355l-.178-1.363z" class="cls-12" transform="translate(-1095.544 -821.613)"/>
                        <path id="패스_30690" d="M1096.63 821.629a1.463 1.463 0 0 0-.876 1.014c.225.493 1.084 1.363 4.3 2.575l1.274-.341-1.419-2.1c-.486-.227-2.889-1.308-3.279-1.148z" class="cls-13" transform="translate(-1095.56 -821.613)"/>
                        <path id="패스_30691" d="M1104.552 824.13s-.818.922-.425 1.465a4.678 4.678 0 0 0 1.269 1.027l.212-2.657-.622-.178z" class="cls-12" transform="translate(-1100.899 -823.018)"/>
                    </g>
                    <path id="패스_30692" d="M1109.371 707.013a3.561 3.561 0 0 0-4.031 3.017c-.016.117-.028.238-.033.353l-.821 18.948-.011.238 1.009 21.021a1.565 1.565 0 0 0 3.125.006l1.088-21.017-.011.238 2.7-18.772a3.56 3.56 0 0 0-3.015-4.032z" class="cls-33" transform="translate(-1097.537 -661.088)"/>
                    <path id="패스_30693" d="M1116.9 623.61l-1.55-3.4-8.261 1.932-5.9 3.761 1.8 6.429.189 3.085-.306 14.615.044.869.078 4.222a1.349 1.349 0 0 0 1.558 1.305c7.216-1.138 11.13-4.624 12.483-6.075a2.156 2.156 0 0 0 .578-1.393l.229-6.286a18.663 18.663 0 0 1 .393-3.591 59.994 59.994 0 0 0-.367-12.055 11.773 11.773 0 0 0-.968-3.418z" class="cls-34" transform="translate(-1095.416 -605.046)"/>
                    <path id="패스_30694" d="M1107.087 622.138l-5.9 3.761.779 7.095.847 3.155.055 13.88.044.869.078 4.213a1.347 1.347 0 0 0 1.555 1.307c.518-.081.967-.161 1.16-.2l1.044-6.129.306-14.615-.189-3.085-1.8-6.429 2.645-.4a14.754 14.754 0 0 0 8.141-4.081l.824-.813-1.334-.458z" class="cls-16" transform="translate(-1095.416 -605.046)"/>
                    <path id="패스_30695" d="M1120.771 610.458l.032 4.873a8.639 8.639 0 0 0 5.135-1.818l-.839-4.28z" class="cls-6" transform="translate(-1108.063 -597.96)"/>
                    <path id="패스_30696" d="M1120.736 612.348a6 6 0 0 0 4.3-3.218l-4.335 1.443z" class="cls-8" transform="translate(-1108.015 -597.893)"/>
                    <g id="그룹_40682" transform="translate(8.184)">
                        <path id="패스_30697" d="M1113.613 580.529c-2.366-1.069-4.018 1.131-4.912 4.411-.129.47-.626.884-.7 1.4.222 3.031 2.61 6.3 5.571 6.315 2.174-.308 4.4-2.908 5.385-6.041.009-3.734-2.383-6.074-5.344-6.085z" class="cls-6" transform="translate(-1107.996 -579.244)"/>
                        <path id="패스_30698" d="M1108.739 586.391c.079-.512.577-.926.7-1.4.711-2.609 1.9-4.532 3.55-4.673-2.037-.455-3.478 1.635-4.293 4.62-.129.47-.626.884-.7 1.4.222 3.031 2.61 6.3 5.571 6.315.018 0 .036-.008.054-.011-2.635-.464-4.678-3.459-4.882-6.251z" class="cls-17" transform="translate(-1107.996 -579.246)"/>
                        <path id="패스_30699" d="M1110.747 577.967a2.86 2.86 0 0 0-.657 2.318s3.2 3.52 10.19 4.478c0 .001-.43-9.792-9.533-6.796z" class="cls-18" transform="translate(-1109.324 -577.398)"/>
                        <path id="패스_30700" d="M1121.1 581.233l-2.606 3.626-.248 2.774s1.165.238 1.161 1.17a2.905 2.905 0 0 1-.75 1.723l2.5 2.47c1.839-.81 3.575-3.089 4.414-5.755.017-3.357-1.92-5.587-4.471-6.008z" class="cls-18" transform="translate(-1114.619 -579.875)"/>
                    </g>
                    <path id="패스_30701" d="M1120.854 621.338v.421a7.034 7.034 0 0 0 5.237-1.6l-.249-.978s-1.137 2.168-4.988 2.157z" class="cls-34" transform="translate(-1108.117 -604.388)"/>
                    <g id="그룹_40684" transform="translate(4.536 19.622)">
                        <g id="그룹_40683" transform="translate(0 31.642)">
                            <path id="패스_30702" d="M1101.176 722.245c-1.015-.385-1.765.549-2.331 2.04a12.48 12.48 0 0 0-.487 1.986c-.131.89.8.924 1.461 1.177 1.015.385 1.8-.6 2.371-2.089s.001-2.73-1.014-3.114z" class="cls-6" transform="translate(-1098.116 -722.158)"/>
                            <path id="패스_30703" d="M1098.052 725.913a1.883 1.883 0 0 0-.279 1.636l.2.676 1.3-2.105-.2-1.614z" class="cls-6" transform="translate(-1097.696 -723.674)"/>
                        </g>
                        <path id="패스_30704" d="M1105.628 638.719q-.106-.958-.23-1.916l-.131-.961c-.047-.327-.092-.633-.15-.987v-.014q-.014-.08-.033-.16a2.441 2.441 0 0 0-4.749 1.135c.062.261.13.573.192.864l.185.895q.18.9.343 1.805.327 1.811.586 3.638c.342 2.434.608 4.879.745 7.323.071 1.222.114 2.445.114 3.663s-.027 2.435-.115 3.641a30.065 30.065 0 0 1-1.238 7.034l-.01.032a1.414 1.414 0 0 0 2.665.94 33.044 33.044 0 0 0 1.905-7.658c.183-1.29.3-2.582.387-3.872s.131-2.58.143-3.867c.031-2.576-.073-5.142-.256-7.7q-.14-1.921-.353-3.835z" class="cls-34" transform="translate(-1099.356 -632.805)"/>
                    </g>
                </g>
                <g id="그룹_40692" transform="translate(53.286 68.98)">
                    <g id="그룹_40687" transform="translate(16.651)">
                        <g id="그룹_40686" transform="translate(2.985)">
                            <path id="패스_30705" d="M1045.483 599.5c-.585.135-1.363.057-1.356.816a10.543 10.543 0 0 0 .179 1.715c.3 1.311.821 2.177 1.713 1.973a1.906 1.906 0 0 0 1.2-2.485c-.297-1.319-.844-2.227-1.736-2.019z" class="cls-6" transform="translate(-1043.821 -599.469)"/>
                            <path id="패스_30706" d="M1043.4 601.372a1.588 1.588 0 0 0 .045 1.4l.687 1.294.354-1.326-.842-1.908z" class="cls-6" transform="translate(-1043.263 -600.348)"/>
                        </g>
                        <path id="패스_30707" fill="#7fbfd3" d="M1039.862 607.543a1.193 1.193 0 0 0-.895 1.356v.028a25.35 25.35 0 0 1 .226 6.02c-.065 1.017-.18 2.037-.323 3.055s-.316 2.034-.516 3.047c-.4 2.026-.9 4.039-1.464 6.033q-.427 1.5-.908 2.973-.24.738-.494 1.469l-.257.726c-.085.236-.178.489-.26.7a2.059 2.059 0 0 0 3.837 1.494c.017-.044.032-.087.046-.13v-.012c.09-.289.162-.54.239-.807l.22-.788q.214-.787.413-1.574.4-1.576.735-3.162c.447-2.117.828-4.249 1.1-6.4.137-1.077.25-2.159.325-3.247s.126-2.18.121-3.28a27.868 27.868 0 0 0-.711-6.617 1.192 1.192 0 0 0-1.434-.884z" transform="translate(-1034.834 -604.662)"/>
                    </g>
                    <ellipse id="타원_1002" cx="13.479" cy="7.782" class="cls-8" rx="13.479" ry="7.782" transform="translate(0 88.616)"/>
                    <path id="패스_30708" d="M1023.754 858.406a2.066 2.066 0 0 0 .68 2.546 43.123 43.123 0 0 0 4.555 3.024 3.413 3.413 0 0 0 1.525-.363 1.052 1.052 0 0 0 .588-.619 1.1 1.1 0 0 0-.181-.852z" class="cls-10" transform="translate(-1010.908 -766.708)"/>
                    <path id="패스_30709" d="M1029.124 863.84a43.123 43.123 0 0 1-4.555-3.024 2.06 2.06 0 0 1-.737-2.371l-.078-.04a2.066 2.066 0 0 0 .68 2.546 43.123 43.123 0 0 0 4.555 3.024 2.027 2.027 0 0 0 1.514-.261 1.452 1.452 0 0 0 .383-.363 1.23 1.23 0 0 1-.265.2c-.556.21-1.068.464-1.497.289z" class="cls-11" transform="translate(-1010.908 -766.708)"/>
                    <path id="패스_30710" d="M1030.473 858.051l-2.185-1.561s-2.9-1.346-3.328-1.17a1.424 1.424 0 0 0-.87 1.039 1.921 1.921 0 0 0 .729 1.489c.525.393 1.495 1.029 2.943 1.94 2.419 1.521 3.492.351 3.492.351l-.176-1.346z" class="cls-12" transform="translate(-1011.241 -764.705)"/>
                    <path id="패스_30711" d="M1024.975 855.32a1.444 1.444 0 0 0-.865 1c.223.487 1.07 1.346 4.25 2.543l1.258-.337-1.4-2.077c-.485-.219-2.858-1.286-3.243-1.129z" class="cls-13" transform="translate(-1011.257 -764.705)"/>
                    <path id="패스_30712" d="M1009.672 687.08l-3.142-.307.862 2.56s-1.6 3.257-.907 4.339 1.948 2.764 1.948 2.764a20.308 20.308 0 0 1-.124 4.808c-.4 1.766-1.7 7-1.7 7l1.705 1.112 5.612-11.471-2.216-10.614z" class="cls-34" transform="translate(-999.76 -655.856)"/>
                    <path id="패스_30713" d="M1002.188 868.78a2.067 2.067 0 0 0 .68 2.546 43.106 43.106 0 0 0 4.555 3.024 3.419 3.419 0 0 0 1.524-.363 1.054 1.054 0 0 0 .588-.62 1.1 1.1 0 0 0-.181-.852z" class="cls-10" transform="translate(-996.979 -773.409)"/>
                    <path id="패스_30714" d="M1007.558 874.214a43.11 43.11 0 0 1-4.555-3.024 2.061 2.061 0 0 1-.737-2.371l-.078-.039a2.067 2.067 0 0 0 .68 2.546 43.106 43.106 0 0 0 4.555 3.024 2.026 2.026 0 0 0 1.514-.261 1.465 1.465 0 0 0 .383-.363 1.218 1.218 0 0 1-.265.2c-.555.209-1.068.462-1.497.288z" class="cls-11" transform="translate(-996.979 -773.409)"/>
                    <path id="패스_30715" d="M1008.907 868.425l-2.185-1.561s-2.9-1.346-3.329-1.17a1.424 1.424 0 0 0-.87 1.039 1.921 1.921 0 0 0 .729 1.489c.524.393 1.495 1.029 2.943 1.94 2.419 1.522 3.492.351 3.492.351l-.176-1.346z" class="cls-12" transform="translate(-997.312 -771.405)"/>
                    <path id="패스_30716" d="M1003.41 865.694a1.444 1.444 0 0 0-.865 1c.222.487 1.07 1.346 4.249 2.543l1.258-.336-1.4-2.077c-.484-.224-2.852-1.287-3.242-1.13z" class="cls-13" transform="translate(-997.329 -771.405)"/>
                    <path id="패스_30717" d="M1035.169 747.646a3.3 3.3 0 0 0-3.521 3.054c-.007.1-.009.2-.008.3l.362 19.162c.008 1.6.123 3.193.192 4.79l.236 4.789.473 9.574a1.449 1.449 0 0 0 2.893.008l.524-9.546.262-4.771c.092-1.59.161-3.18.286-4.769l1.354-19.065a3.3 3.3 0 0 0-3.053-3.526z" class="cls-6" transform="translate(-1016.12 -695.166)"/>
                    <path id="패스_30718" d="M1012.941 752.728a3.3 3.3 0 0 0-3.539 3.032q-.011.138-.01.274v.007l.081 9.954.041 4.972.021 2.485.01 1.242c0 .207 0 .414.011.621l.045.621 1.46 19.844a1.448 1.448 0 0 0 2.893-.068l.532-19.755.017-.617c.006-.205.029-.411.043-.616l.1-1.232.19-2.463.381-4.924.76-9.839a3.3 3.3 0 0 0-3.036-3.538z" class="cls-6" transform="translate(-1001.751 -698.448)"/>
                    <path id="패스_30719" d="M1022.816 693.427l1.123-8.4c1.189-3.057-.125-3.616-.232-5.01l-.93-4.526-9.461 4.3.078.232a.752.752 0 0 1-.056.6 7.229 7.229 0 0 0-.711 2.577c-.321 2.721.625 1.842.6 4.937-.007 1.014.039 4.583.051 5.734l-1.315 6.889a1.764 1.764 0 0 0 .944 1.753c1.419.8 5.15.494 10.1-1.779a14.019 14.019 0 0 0 1.245-1.1 1.036 1.036 0 0 0 .464-.823l.11-.447-.148-.544c-.211-.513-1.862-4.393-1.862-4.393z" class="cls-36" transform="translate(-1003.404 -648.57)"/>
                    <path id="패스_30720" d="M1007.148 742.119s1.408 2.39 1.341 7.367c-.018 1.355-.2 2.926-.29 4.735-.572 10.867 13.747.487 13.747.487s1.9-12.431-.579-15.479c-.687 3.99-10.899 4.757-14.219 2.89z" class="cls-37" transform="translate(-1000.302 -689.735)"/>
                    <path id="패스_30721" d="M1011.97 748.338c-1.5.033-4.828-.25-5.773-.947 0 0-.179 2.4-.493 6.828-.1 1.351.091 3.4 0 5.208-.257 4.874 4.031 5.539 7.13 4.718l-.859-14.887z" class="cls-38" transform="translate(-999.35 -695.007)"/>
                    <path id="패스_30722" fill="#82c4d8" d="M1009.939 676.592l2.615 1.8 9.468-4.5-2.214-1.413z" transform="translate(-1002.104 -646.627)"/>
                    <g id="그룹_40689" transform="translate(8.481 12.8)">
                        <path id="패스_30723" d="M1021.134 672.575a7.1 7.1 0 0 0 4.787-.961l.145-4.657-4.345.929z" class="cls-6" transform="translate(-1017.816 -655.858)"/>
                        <path id="패스_30724" d="M1022.475 669.747a5.922 5.922 0 0 0 4.439-2.9L1022.55 668z" class="cls-8" transform="translate(-1018.682 -655.789)"/>
                        <g id="그룹_40688" transform="translate(0 .063)">
                            <path id="패스_30725" d="M1017.085 636.911c-2.376-.965-3.921 1.27-4.679 4.54-.108.469-.584.9-.642 1.4.335 2.983 2.816 6.121 5.738 6.019 2.134-.387 4.23-3.037 5.083-6.166-.128-3.676-2.577-5.894-5.5-5.793z" class="cls-6" transform="translate(-1011.764 -636.369)"/>
                            <path id="패스_30726" d="M1012.5 642.881c.058-.508.534-.936.642-1.4.6-2.6 1.7-4.545 3.325-4.747-2.027-.371-3.37 1.746-4.06 4.723-.108.469-.584.9-.642 1.4.335 2.983 2.816 6.121 5.738 6.019.017 0 .035-.01.052-.013-2.618-.357-4.748-3.234-5.055-5.982z" class="cls-17" transform="translate(-1011.764 -636.371)"/>
                            <path id="패스_30727" d="M1016.182 636.2a2.691 2.691 0 0 0-1.825 1.835 2.279 2.279 0 0 0-.058 1.086s2.963 2.645 9.9 3.324c.001-.003-.071-8.586-8.017-6.245z" class="cls-18" transform="translate(-1013.375 -635.793)"/>
                        </g>
                        <path id="패스_30728" d="M1025.58 640.818c-1.557-5.472-5.872-5.2-6.543-5.2s-3.464 1.327-3.23 2.731.435 3.372.9 6.134 1.986 1.831 1.976 3.7.727 2.482 4.785 2.366 2.661-2.438 3.305-5.522-1.193-4.209-1.193-4.209z" class="cls-18" transform="translate(-1014.366 -635.615)"/>
                    </g>
                    <path id="패스_30729" d="M1011.6 868.05a1.069 1.069 0 0 0-.933.275s-.721.982-.284 1.48a4.622 4.622 0 0 0 1.341.895l-.033-2.632z" class="cls-12" transform="translate(-1002.299 -772.925)"/>
                    <path id="패스_30730" d="M1033.164 857.677a1.068 1.068 0 0 0-.933.275s-.721.981-.284 1.48a4.621 4.621 0 0 0 1.341.895l-.033-2.632z" class="cls-12" transform="translate(-1016.228 -766.226)"/>
                    <g id="그룹_40691" transform="translate(3.638 2.348)">
                        <g id="그룹_40690" transform="translate(.714)">
                            <path id="패스_30731" d="M1001.924 606.128c-.892-.205-1.439.707-1.74 2.018a1.906 1.906 0 0 0 1.2 2.485c.892.205 1.411-.661 1.713-1.973a10.566 10.566 0 0 0 .179-1.715c.011-.758-.767-.68-1.352-.815z" class="cls-6" transform="translate(-1000.106 -606.1)"/>
                            <path id="패스_30732" d="M1007.31 607.46l-.843 1.908.354 1.325.688-1.294a1.59 1.59 0 0 0 .045-1.4z" class="cls-6" transform="translate(-1004.214 -606.978)"/>
                        </g>
                        <path id="패스_30733" d="M1004.867 638.879l-.257-.726q-.254-.73-.494-1.469-.481-1.476-.908-2.973c-.565-1.994-1.069-4.007-1.464-6.033-.2-1.013-.376-2.029-.516-3.047s-.257-2.038-.323-3.055a25.367 25.367 0 0 1 .226-6.02v-.028a1.193 1.193 0 0 0-2.335-.479 27.861 27.861 0 0 0-.711 6.617c0 1.1.044 2.191.121 3.279s.187 2.17.325 3.247c.271 2.156.652 4.287 1.1 6.4q.338 1.588.735 3.162.2.788.412 1.575l.22.788c.077.268.149.518.239.807v.012q.021.065.046.13a2.059 2.059 0 0 0 3.837-1.494c-.076-.204-.168-.457-.253-.693z" class="cls-36" transform="translate(-998.088 -611.292)"/>
                    </g>
                </g>
                <g id="그룹_40694" transform="translate(103.774 3.951)">
                    <g id="그룹_40693" transform="translate(.88)">
                        <path id="패스_30734" d="M1135.107 415.874c-1.1-.253-1.772.871-2.143 2.485s.385 2.807 1.483 3.06 1.738-.815 2.11-2.429a13 13 0 0 0 .221-2.112c.008-.934-.95-.838-1.671-1.004z" class="cls-6" transform="translate(-1132.869 -415.839)"/>
                        <path id="패스_30735" d="M1141.74 417.515l-1.037 2.35.436 1.633.846-1.593a1.956 1.956 0 0 0 .056-1.722z" class="cls-6" transform="translate(-1137.929 -416.921)"/>
                    </g>
                    <path id="패스_30736" d="M1138.732 456.207l-.317-.895q-.312-.9-.608-1.809-.593-1.818-1.118-3.661c-.7-2.455-1.316-4.934-1.8-7.43-.247-1.247-.464-2.5-.636-3.752s-.317-2.509-.4-3.762a31.222 31.222 0 0 1 .278-7.413l.006-.035a1.469 1.469 0 0 0-2.876-.59 34.316 34.316 0 0 0-.876 8.149c-.006 1.353.053 2.7.149 4.039s.231 2.673.4 4c.333 2.655.8 5.28 1.353 7.887q.417 1.955.905 3.895.245.97.508 1.939l.271.971c.095.33.183.638.294.994v.014q.025.081.056.16a2.536 2.536 0 1 0 4.725-1.84c-.095-.259-.209-.568-.314-.861z" class="cls-15" transform="translate(-1130.384 -422.233)"/>
                </g>
            </g>
            <g id="그룹_40702" transform="translate(285.291 217.872)">
                <g id="그룹_40697" transform="translate(10.773 15.017)">
                    <g id="그룹_40696" transform="translate(0 26.043)">
                        <path id="패스_30737" d="M872.108 797.535c.773.49 1.592-.189 2.311-1.326a1.906 1.906 0 0 0-.311-2.744c-.773-.49-1.551.155-2.271 1.292a10.545 10.545 0 0 0-.738 1.558c-.258.714.501.898 1.009 1.22z" class="cls-6" transform="translate(-870.997 -793.299)"/>
                        <path id="패스_30738" d="M870.962 797.586l1.428-1.52.107-1.368-1.078.992a1.588 1.588 0 0 0-.507 1.3z" class="cls-6" transform="translate(-870.906 -794.203)"/>
                    </g>
                    <path id="패스_30739" d="M884.681 721.9c-.011.3-.027.563-.043.841l-.054.817q-.06.813-.134 1.622-.148 1.618-.357 3.227c-.281 2.145-.629 4.283-1.09 6.406-.228 1.061-.481 2.12-.772 3.171s-.605 2.1-.974 3.133a27.861 27.861 0 0 1-2.868 6.006 1.193 1.193 0 0 1-2.044-1.227l.014-.025a25.353 25.353 0 0 0 2.211-5.6c.277-.981.507-1.981.71-2.989s.377-2.023.524-3.045c.3-2.043.493-4.109.622-6.177q.094-1.552.13-3.105.018-.775.022-1.549v-.771c0-.251-.005-.52-.013-.747a2.059 2.059 0 0 1 4.115-.136v.138z" class="cls-40" transform="translate(-874.324 -719.759)"/>
                </g>
                <ellipse id="타원_1003" cx="13.479" cy="7.782" class="cls-8" rx="13.479" ry="7.782" transform="translate(0 75.815)"/>
                <path id="패스_30740" d="M883.59 903.88a1.1 1.1 0 0 1 .181.852 1.053 1.053 0 0 1-.588.619 3.406 3.406 0 0 1-1.524.363 43.041 43.041 0 0 1-4.555-3.024 2.067 2.067 0 0 1-.68-2.545z" class="cls-10" transform="translate(-863.578 -821.248)"/>
                <path id="패스_30741" d="M876.424 900.145l.078.039a2.06 2.06 0 0 0 .737 2.371 43.057 43.057 0 0 0 4.555 3.024c.429.174.941-.079 1.5-.284a1.247 1.247 0 0 0 .265-.2 1.459 1.459 0 0 1-.383.363 2.026 2.026 0 0 1-1.514.261 43.041 43.041 0 0 1-4.555-3.024 2.067 2.067 0 0 1-.683-2.55z" class="cls-11" transform="translate(-863.578 -821.248)"/>
                <path id="패스_30742" d="M883.143 899.789l.6.742.176 1.346s-1.073 1.17-3.492-.351c-1.448-.911-2.418-1.546-2.943-1.94a1.924 1.924 0 0 1-.729-1.489 1.425 1.425 0 0 1 .87-1.039c.429-.175 3.329 1.171 3.329 1.171z" class="cls-12" transform="translate(-863.911 -819.244)"/>
                <path id="패스_30743" d="M876.781 898.06a1.446 1.446 0 0 1 .865-1c.385-.157 2.758.91 3.241 1.131l1.4 2.077-1.258.336c-3.178-1.198-4.029-2.057-4.248-2.544z" class="cls-13" transform="translate(-863.928 -819.244)"/>
                <path id="패스_30744" d="M859.2 728.512l.862 2.559s-1.6 3.257-.908 4.339 1.949 2.765 1.949 2.765a20.328 20.328 0 0 1-.124 4.807c-.4 1.766-1.7 7-1.7 7l1.705 1.112 5.612-11.472-2.215-10.614-2.036-.187z" class="cls-40" transform="translate(-852.43 -710.395)"/>
                <path id="패스_30745" d="M862.024 914.254a1.1 1.1 0 0 1 .181.852 1.052 1.052 0 0 1-.588.619 3.413 3.413 0 0 1-1.524.363 43.089 43.089 0 0 1-4.555-3.024 2.066 2.066 0 0 1-.68-2.545z" class="cls-10" transform="translate(-849.65 -827.948)"/>
                <path id="패스_30746" d="M854.859 910.519l.078.039a2.06 2.06 0 0 0 .737 2.371 43.128 43.128 0 0 0 4.555 3.023c.429.175.942-.079 1.5-.285a1.222 1.222 0 0 0 .265-.2 1.457 1.457 0 0 1-.383.363 2.027 2.027 0 0 1-1.514.261 43.089 43.089 0 0 1-4.555-3.024 2.066 2.066 0 0 1-.683-2.548z" class="cls-11" transform="translate(-849.65 -827.948)"/>
                <path id="패스_30747" d="M861.578 910.163l.6.741.175 1.346s-1.073 1.17-3.492-.351c-1.448-.911-2.418-1.546-2.943-1.94a1.921 1.921 0 0 1-.729-1.488 1.424 1.424 0 0 1 .87-1.039c.429-.175 3.328 1.17 3.328 1.17z" class="cls-12" transform="translate(-849.983 -825.944)"/>
                <path id="패스_30748" d="M855.215 908.434a1.444 1.444 0 0 1 .865-1c.385-.158 2.758.91 3.241 1.13l1.4 2.077-1.258.337c-3.178-1.199-4.025-2.057-4.248-2.544z" class="cls-13" transform="translate(-849.999 -825.944)"/>
                <path id="패스_30749" d="M884.311 792.734l.362 19.162c.008 1.6.122 3.193.192 4.79l.236 4.789.473 9.574a1.449 1.449 0 0 0 2.893.008l.524-9.547.262-4.771c.092-1.59.16-3.18.285-4.769l1.355-19.065a3.3 3.3 0 1 0-6.574-.467c-.007.098-.009.2-.008.296z" class="cls-6" transform="translate(-868.791 -749.706)"/>
                <path id="패스_30750" d="M862.063 797.78l.081 9.954.041 4.973.021 2.485.01 1.242c0 .207 0 .414.011.621l.046.621 1.46 19.844a1.448 1.448 0 0 0 2.892-.068l.531-19.755.017-.617c.007-.205.03-.411.043-.616l.095-1.232.191-2.464.38-4.924.761-9.84a3.3 3.3 0 0 0-6.571-.508c-.007.092-.01.184-.01.274z" class="cls-6" transform="translate(-854.422 -752.987)"/>
                <path id="패스_30751" d="M877.5 740.111l-.148-.543c-.217-.522-1.868-4.4-1.868-4.4l1.123-8.4c-.618-3.14-.125-3.616-.233-5.01l-.93-4.526-9.461 4.3.078.232a.75.75 0 0 1-.056.6 7.225 7.225 0 0 0-.711 2.577c-.322 2.721.625 1.842.6 4.937-.007 1.014.038 4.583.05 5.734l-1.315 6.888a1.765 1.765 0 0 0 .944 1.753c1.419.8 5.15.494 10.1-1.779a14.138 14.138 0 0 0 1.245-1.1 1.036 1.036 0 0 0 .464-.823z" class="cls-22" transform="translate(-856.074 -703.109)"/>
                <path id="패스_30752" d="M859.818 783.857s1.409 2.39 1.341 7.367c-.018 1.355-.2 2.927-.29 4.735-.572 10.866 13.747.487 13.747.487s1.9-12.431-.579-15.479c-.687 3.991-10.899 4.758-14.219 2.89z" class="cls-37" transform="translate(-852.972 -744.274)"/>
                <path id="패스_30753" d="M864.641 791v-.92c-1.5.033-4.828-.25-5.774-.947 0 0-.178 2.4-.493 6.828-.1 1.351.091 3.4 0 5.209-.256 4.874 4.031 5.539 7.13 4.717z" class="cls-38" transform="translate(-852.02 -749.546)"/>
                <path id="패스_30754" d="M865.224 720.132l-2.615-1.8 9.869-4.107 2.214 1.413z" class="cls-40" transform="translate(-854.775 -701.167)"/>
                <g id="그룹_40699" transform="translate(8.481)">
                    <path id="패스_30755" d="M878.736 708.7l-.144 4.657a7.1 7.1 0 0 1-4.788.961l.587-4.689z" class="cls-6" transform="translate(-870.486 -697.596)"/>
                    <path id="패스_30756" d="M879.584 708.59a5.922 5.922 0 0 1-4.439 2.9l.075-1.752z" class="cls-8" transform="translate(-871.352 -697.528)"/>
                    <g id="그룹_40698" transform="translate(0 .063)">
                        <path id="패스_30757" d="M864.435 684.594c.334 2.983 2.816 6.121 5.738 6.019 2.134-.387 4.23-3.037 5.083-6.166-.128-3.681-2.578-5.9-5.5-5.8-2.375-.965-3.921 1.269-4.679 4.54-.109.471-.584.899-.642 1.407z" class="cls-6" transform="translate(-864.435 -678.108)"/>
                        <path id="패스_30758" d="M865.077 683.192c.69-2.977 2.033-5.095 4.06-4.723-1.62.2-2.722 2.146-3.325 4.747-.109.469-.584.9-.642 1.4.308 2.747 2.438 5.625 5.056 5.982-.018 0-.035.01-.052.013-2.923.1-5.4-3.036-5.738-6.019.057-.504.532-.932.641-1.4z" class="cls-17" transform="translate(-864.435 -678.109)"/>
                        <path id="패스_30759" d="M866.97 680.856s2.963 2.645 9.9 3.325c0 0-.068-8.583-8.014-6.245a2.69 2.69 0 0 0-1.825 1.835 2.273 2.273 0 0 0-.061 1.085z" class="cls-18" transform="translate(-866.046 -677.531)"/>
                    </g>
                    <path id="패스_30760" d="M878.251 682.557s.223.972 1.189 4.212c.9 3.019.752 5.406-3.305 5.522s-6.652 1.057-6.642-.815a10.86 10.86 0 0 0-.164-3.794c-.461-2.762-.617-6.19-.851-7.595s2.558-2.731 3.23-2.731 4.986-.272 6.543 5.201z" class="cls-18" transform="translate(-867.037 -677.354)"/>
                </g>
                <path id="패스_30761" d="M864.269 909.789a1.068 1.068 0 0 0-.933.275s-.721.981-.284 1.48a4.617 4.617 0 0 0 1.341.895l-.033-2.632z" class="cls-12" transform="translate(-854.97 -827.465)"/>
                <path id="패스_30762" d="M885.835 899.415a1.068 1.068 0 0 0-.933.275s-.72.981-.284 1.48a4.621 4.621 0 0 0 1.341.895l-.033-2.632z" class="cls-12" transform="translate(-868.899 -820.765)"/>
                <g id="그룹_40701" transform="translate(.037 16.755)">
                    <g id="그룹_40700" transform="translate(0 26.043)">
                        <path id="패스_30763" d="M841.791 802.442c.773.49 1.592-.189 2.312-1.326a1.906 1.906 0 0 0-.311-2.744c-.773-.49-1.551.155-2.271 1.292a10.55 10.55 0 0 0-.738 1.558c-.259.714.501.898 1.008 1.22z" class="cls-6" transform="translate(-840.681 -798.206)"/>
                        <path id="패스_30764" d="M840.646 802.493l1.428-1.52.107-1.368-1.078.992a1.587 1.587 0 0 0-.507 1.3z" class="cls-6" transform="translate(-840.59 -799.11)"/>
                    </g>
                    <path id="패스_30765" d="M854.365 726.807c-.011.3-.026.563-.043.841l-.054.817q-.059.813-.133 1.622-.149 1.618-.357 3.227c-.281 2.145-.629 4.283-1.09 6.406-.228 1.061-.481 2.119-.772 3.171s-.605 2.1-.975 3.133a27.854 27.854 0 0 1-2.868 6.006 1.193 1.193 0 0 1-2.044-1.227l.014-.025a25.356 25.356 0 0 0 2.211-5.6c.276-.981.507-1.981.71-2.988s.377-2.024.524-3.046c.3-2.043.493-4.109.622-6.177q.094-1.552.13-3.105.018-.776.022-1.549v-.771c0-.251-.005-.52-.013-.747a2.059 2.059 0 0 1 4.116-.136v.138z" class="cls-40" transform="translate(-844.008 -724.666)"/>
                </g>
            </g>
        </g>
        <g id="img_map" transform="translate(128.615 40.983)">
            <g id="그룹_21370" transform="translate(0 142.914)" style="mix-blend-mode:multiply;isolation:isolate" opacity="0.5">
                <path id="패스_28419" d="M378.506 166.788c-25.872-12.309-67.41-11.7-92.775 1.356s-24.957 33.626.912 45.934 67.413 11.7 92.782-1.357 24.953-33.621-.919-45.933z" class="cls-27" transform="translate(-266.971 -157.939)"/>
                <path id="패스_28420" d="M377.193 166.794c-25.506-12.135-66.456-11.537-91.461 1.339s-24.6 33.146.9 45.28 66.459 11.54 91.468-1.335 24.6-33.145-.907-45.284z" class="cls-42" transform="translate(-266.308 -157.611)"/>
                <path id="패스_28421" d="M375.879 166.8c-25.138-11.958-65.5-11.37-90.15 1.322s-24.246 32.669.888 44.63 65.5 11.373 90.153-1.315 24.251-32.673-.891-44.637z" class="cls-43" transform="translate(-265.645 -157.283)"/>
                <path id="패스_28422" d="M374.567 166.809c-24.771-11.787-64.547-11.206-88.836 1.3s-23.9 32.2.874 43.983 64.551 11.206 88.84-1.3 23.897-32.192-.878-43.983z" class="cls-44" transform="translate(-264.982 -156.955)"/>
                <path id="패스_28423" d="M373.253 166.816c-24.408-11.613-63.593-11.039-87.522 1.28s-23.544 31.72.863 43.333 63.593 11.039 87.526-1.28 23.541-31.72-.867-43.333z" class="cls-45" transform="translate(-264.318 -156.627)"/>
                <path id="패스_28424" d="M371.94 166.821c-24.04-11.436-62.639-10.872-86.208 1.262s-23.191 31.243.849 42.679 62.639 10.876 86.211-1.259 23.189-31.243-.852-42.682z" class="cls-46" transform="translate(-263.656 -156.299)"/>
                <path id="패스_28425" d="M370.626 166.828c-23.673-11.262-61.684-10.706-84.893 1.242s-22.838 30.77.835 42.032 61.685 10.709 84.9-1.238 22.832-30.771-.842-42.036z" class="cls-47" transform="translate(-262.992 -155.972)"/>
                <path id="패스_28426" d="M369.314 166.838c-23.31-11.092-60.731-10.545-83.583 1.221s-22.482 30.294.825 41.382 60.73 10.542 83.582-1.221 22.482-30.29-.824-41.382z" class="cls-48" transform="translate(-262.329 -155.645)"/>
                <path id="패스_28427" d="M368 166.844c-22.943-10.914-59.776-10.378-82.268 1.2s-22.128 29.814.811 40.731 59.776 10.375 82.272-1.2 22.128-29.814-.815-40.731z" class="cls-49" transform="translate(-261.665 -155.316)"/>
                <path id="패스_28428" d="M366.686 166.85c-22.576-10.74-58.822-10.211-80.954 1.186s-21.776 29.337.8 40.077 58.818 10.215 80.958-1.179 21.773-29.34-.804-40.084z" class="cls-50" transform="translate(-261.002 -154.989)"/>
                <path id="패스_28429" d="M365.373 166.856c-22.212-10.563-57.868-10.045-79.64 1.165s-21.426 28.864.783 39.431 57.864 10.048 79.644-1.162 21.423-28.865-.787-39.434z" class="cls-51" transform="translate(-260.34 -154.661)"/>
                <path id="패스_28430" d="M364.058 166.865c-21.842-10.392-56.911-9.881-78.323 1.145s-21.073 28.387.769 38.78 56.91 9.881 78.329-1.145 21.067-28.387-.775-38.78z" class="cls-52" transform="translate(-259.677 -154.333)"/>
                <path id="패스_28431" d="M362.744 166.872c-21.475-10.219-55.956-9.714-77.011 1.127s-20.717 27.911.758 38.13 55.955 9.714 77.018-1.123 20.713-27.916-.765-38.134z" class="cls-53" transform="translate(-259.014 -154.005)"/>
                <path id="패스_28432" d="M361.43 166.877c-21.108-10.041-55-9.547-75.7 1.109s-20.363 27.435.744 37.476 55 9.551 75.7-1.1 20.368-27.44-.744-37.485z" class="cls-54" transform="translate(-258.351 -153.677)"/>
                <path id="패스_28433" d="M360.117 166.884c-20.745-9.867-54.047-9.38-74.383 1.089s-20.01 26.961.734 36.829 54.044 9.384 74.387-1.085 20.01-26.959-.738-36.833z" class="cls-55" transform="translate(-257.687 -153.349)"/>
                <path id="패스_28434" d="M358.8 166.893c-20.377-9.7-53.093-9.217-73.069 1.068s-19.658 26.482.72 36.178 53.09 9.217 73.072-1.068 19.662-26.481-.723-36.178z" class="cls-56" transform="translate(-257.024 -153.022)"/>
                <path id="패스_28435" d="M357.49 166.9c-20.01-9.519-52.139-9.053-71.758 1.05s-19.3 26.005.709 35.528 52.136 9.05 71.758-1.047 19.301-26.009-.709-35.531z" class="cls-57" transform="translate(-256.361 -152.694)"/>
            </g>
            <path id="패스_28436" fill="#ce7436" d="M341.014 160.4c-15.39-7.088-40.095-6.74-55.187.786-10.793 5.381-13.7 12.97-8.868 19.453 1.65-3.088 4.922-6.034 9.885-8.511 15.089-7.523 39.8-7.871 55.191-.779 4.379 2.018 7.487 4.431 9.409 7.012 3.373-6.296-.101-13.197-10.43-17.961z" transform="translate(-247.679 -21.546)"/>
            <path id="패스_28437" fill="#c4c6d0" d="M371.32 180.1l-.552-19.341-99.077-.292.556 20.514h.028c-.286 7.593 4.624 15.178 14.8 20.8 19.546 10.789 50.919 10.257 70.084-1.189 9.444-5.641 14.135-12.879 14.145-20.061h.021v-.222c-.005-.076-.005-.142-.005-.209z" transform="translate(-255.195 -8.759)"/>
            <path id="패스_28438" fill="#efeff4" d="M355.935 160.416c-19.545-10.789-50.923-10.26-70.084 1.186s-18.853 29.477.692 40.265 50.919 10.257 70.08-1.189 18.858-29.478-.688-40.262z" transform="translate(-255.222 -28.109)"/>
            <path id="패스_28439" fill="url(#linear-gradient-16)" d="M341.035 160.4c-15.386-7.088-40.083-6.737-55.18.786-12.587 6.26-14.516 15.554-5.862 22.6a30.873 30.873 0 0 0 6.4 3.874c15.4 7.088 40.111 6.737 55.2-.782a29.919 29.919 0 0 0 5.672-3.607c9.009-7.334 6.902-16.832-6.23-22.871z" transform="translate(-247.707 -21.548)"/>
            <g id="그룹_21377" transform="translate(26.855 131.08)">
                <path id="패스_28440" fill="#a26a00" d="M334.37 157.506c-15.544-5.054-35.3-3.454-47.882 3.248-.1.052-.213.108-.315.167a31.206 31.206 0 0 0-5.638 3.867c-11.377 9.965-5.747 22.9 12.555 28.843 15.393 5 34.91 3.492 47.5-3.04.119-.059.241-.119.363-.188a31.389 31.389 0 0 0 5.967-4.049c11.385-9.954 5.758-22.9-12.55-28.848z" transform="translate(-274.654 -154.536)"/>
                <g id="그룹_21372" transform="translate(4.707 3.04)">
                    <g id="그룹_21371">
                        <path id="패스_28441" d="M292.219 188.173c-16.1-4.984-21.052-15.829-11.045-24.172s31.252-11.085 47.351-6.1 21.052 15.829 11.041 24.176-31.251 11.077-47.347 6.096zm36.2-30.186c-16.005-4.949-37.117-2.229-47.064 6.069s-5.026 19.07 10.975 24.026 37.113 2.229 47.063-6.066 5.021-19.076-10.977-24.029z" class="cls-27" transform="translate(-276.001 -155.41)"/>
                    </g>
                </g>
                <g id="그룹_21374" transform="translate(15.58 8.614)">
                    <g id="그룹_21373">
                        <path id="패스_28442" d="M290.2 179.412c-11.006-3.4-14.394-10.82-7.549-16.524s21.363-7.582 32.37-4.173 14.394 10.816 7.549 16.524-21.364 7.581-32.37 4.173zm24.743-20.635c-10.936-3.388-25.373-1.527-32.174 4.146s-3.436 13.043 7.5 16.43 25.372 1.523 32.178-4.15 3.436-13.042-7.504-16.426z" class="cls-27" transform="translate(-279.112 -157.013)"/>
                    </g>
                </g>
                <g id="그룹_21376" transform="translate(26.436 14.183)">
                    <g id="그룹_21375">
                        <path id="패스_28443" d="M288.185 170.662c-5.925-1.83-7.745-5.819-4.065-8.89s11.5-4.076 17.417-2.243 7.742 5.819 4.058 8.89-11.495 4.081-17.41 2.243zm13.31-11.1c-5.887-1.819-13.653-.821-17.312 2.233s-1.849 7.015 4.04 8.834 13.649.821 17.309-2.23 1.85-7.016-4.032-8.839z" class="cls-27" transform="translate(-282.218 -158.614)"/>
                    </g>
                </g>
                <path id="패스_28444" d="M278.908 186.027a.258.258 0 0 1-.143-.039.179.179 0 0 1-.1-.156v-.07l.077-.066 50.311-29.765a.231.231 0 0 1 .112-.028.268.268 0 0 1 .144.042.178.178 0 0 1 .1.153v.073l-.08.066L279.02 186a.2.2 0 0 1-.112.027z" class="cls-27" transform="translate(-264.642 -151.146)"/>
                <path id="패스_28445" d="M332.734 185.989c-.122.07-.245.129-.363.188l-54.418-29.671v-.007a2.47 2.47 0 0 1 .318-.16l.059-.021z" class="cls-27" transform="translate(-266.433 -150.12)"/>
            </g>
            <g id="그룹_21378" transform="translate(45.824 141.56)" style="mix-blend-mode:multiply;isolation:isolate">
                <path id="패스_28446" d="M314.918 160.313c-8.085-3.843-21.055-3.655-28.976.424s-7.8 10.5.283 14.344 21.052 3.655 28.976-.424 7.799-10.501-.283-14.344z" class="cls-27" transform="translate(-280.081 -157.549)"/>
                <path id="패스_28447" d="M314.507 160.315c-7.969-3.788-20.755-3.6-28.567.417s-7.686 10.351.28 14.142 20.755 3.6 28.567-.417 7.686-10.351-.28-14.142z" class="cls-42" transform="translate(-279.873 -157.447)"/>
                <path id="패스_28448" d="M314.1 160.317c-7.854-3.735-20.458-3.551-28.158.414s-7.574 10.2.28 13.936 20.454 3.551 28.151-.41 7.576-10.205-.273-13.94z" class="cls-43" transform="translate(-279.666 -157.345)"/>
                <path id="패스_28449" d="M313.688 160.319c-7.742-3.68-20.16-3.5-27.745.407s-7.466 10.055.273 13.735 20.157 3.5 27.742-.407 7.465-10.054-.27-13.735z" class="cls-44" transform="translate(-279.459 -157.243)"/>
                <path id="패스_28450" d="M313.274 160.321c-7.623-3.624-19.86-3.447-27.333.4s-7.354 9.905.269 13.533 19.861 3.447 27.334-.4 7.356-9.906-.27-13.533z" class="cls-45" transform="translate(-279.251 -157.14)"/>
                <path id="패스_28451" d="M312.865 160.323c-7.508-3.572-19.563-3.395-26.925.4s-7.242 9.756.266 13.328 19.563 3.394 26.924-.393 7.243-9.763-.265-13.335z" class="cls-46" transform="translate(-279.045 -157.038)"/>
                <path id="패스_28452" d="M312.456 160.324c-7.4-3.516-19.266-3.342-26.515.39s-7.134 9.606.262 13.126 19.263 3.343 26.515-.39 7.13-9.606-.262-13.126z" class="cls-47" transform="translate(-278.839 -156.935)"/>
                <path id="패스_28453" d="M312.045 160.33c-7.281-3.464-18.966-3.294-26.1.379s-7.025 9.46.255 12.924 18.966 3.294 26.1-.382 7.026-9.461-.255-12.921z" class="cls-48" transform="translate(-278.631 -156.832)"/>
                <path id="패스_28454" d="M311.636 160.331c-7.166-3.409-18.669-3.241-25.694.376s-6.914 9.311.251 12.719 18.669 3.242 25.694-.375 6.913-9.315-.251-12.72z" class="cls-49" transform="translate(-278.424 -156.729)"/>
                <path id="패스_28455" d="M311.226 160.334c-7.054-3.356-18.371-3.189-25.285.369s-6.8 9.161.248 12.517 18.371 3.189 25.285-.372 6.802-9.161-.248-12.514z" class="cls-50" transform="translate(-278.217 -156.628)"/>
                <path id="패스_28456" d="M310.816 160.336c-6.938-3.3-18.075-3.137-24.876.362s-6.69 9.015.245 12.316 18.074 3.137 24.876-.365 6.689-9.016-.245-12.313z" class="cls-51" transform="translate(-278.009 -156.525)"/>
                <path id="패스_28457" d="M310.406 160.337c-6.822-3.245-17.777-3.085-24.464.358s-6.581 8.862.238 12.111 17.777 3.085 24.467-.358 6.578-8.866-.241-12.111z" class="cls-52" transform="translate(-277.802 -156.423)"/>
                <path id="패스_28458" d="M310 160.34c-6.711-3.193-17.48-3.033-24.054.351s-6.47 8.716.234 11.909 17.477 3.033 24.054-.355 6.466-8.716-.234-11.905z" class="cls-53" transform="translate(-277.595 -156.321)"/>
                <path id="패스_28459" d="M309.587 160.342c-6.6-3.137-17.179-2.981-23.646.344s-6.361 8.57.231 11.707 17.179 2.981 23.646-.348 6.36-8.57-.231-11.703z" class="cls-54" transform="translate(-277.388 -156.218)"/>
                <path id="패스_28460" d="M309.174 160.344c-6.477-3.081-16.879-2.932-23.23.341s-6.253 8.417.223 11.5 16.883 2.928 23.237-.341 6.25-8.419-.23-11.5z" class="cls-55" transform="translate(-277.181 -156.116)"/>
                <path id="패스_28461" d="M308.763 160.346c-6.365-3.026-16.582-2.88-22.821.334s-6.141 8.271.224 11.3 16.581 2.876 22.824-.334 6.138-8.275-.227-11.3z" class="cls-56" transform="translate(-276.974 -156.014)"/>
                <path id="패스_28462" d="M308.353 160.349c-6.25-2.974-16.284-2.828-22.412.327s-6.029 8.121.22 11.1 16.285 2.824 22.415-.33 6.024-8.124-.223-11.097z" class="cls-57" transform="translate(-276.767 -155.912)"/>
            </g>
            <g id="그룹_21382" transform="translate(17.403)">
                <g id="그룹_21380" transform="translate(11.646)">
                    <path id="패스_28463" d="M339.731 133.678c-10.2-10.556-27.238-22.107-42.206-14.229l-22.244 12.91c4.3-2.083 18.861-6.646 39.13 11.6 11.385 10.246 19.626 24.273 24.048 38.892 2.171 7.147-.367 33.236-6.393 39.243-14.579 14.531-27.165 34.272-27.165 34.272l23.492-13.466s28.72-32.109 30.954-35.594c5.33-8.312 5.4-18.983 3.8-28.405-2.853-16.794-11.591-32.987-23.416-45.223z" class="cls-64" transform="translate(-275.282 -116.848)"/>
                </g>
                <g id="그룹_21381" transform="translate(0 13.021)">
                    <path id="패스_28464" fill="#fdd83a" d="M349.741 189.572c-.895-15.926-7.585-31.7-17.116-44.331-8.592-11.391-21.814-23.2-36.77-24.551a20.3 20.3 0 0 0-17 6.083c-5.24 5.679-6.907 13.79-6.907 21.279 0 28.231 41.266 99.044 41.266 99.044s27.944-30.485 31.164-34.93c4.675-6.466 5.807-14.82 5.363-22.594zm-16.781-7.311c-.335 8.539-5.635 17.157-15.072 16.2-11.765-1.2-24.656-15.314-28.794-31.542s2.056-28.419 13.824-27.219c18.082 1.858 30.759 26.708 30.042 42.561z" transform="translate(-271.95 -120.592)"/>
                </g>
            </g>
            <path id="패스_28465" d="M299.446 148.117c-3.429-7.293-4-17.39-3.163-20.844 0 0-2.041-.65-2.178-.682a17.429 17.429 0 0 0-2.513-.449c-11.769-1.193-17.955 10.991-13.82 27.219s17.028 30.35 28.793 31.539a14.4 14.4 0 0 0 3.076 0 11.831 11.831 0 0 0 4.649-1.478c4.7-2.682 6.778-8.146 7.256-13.328 0 0-12.933-2.486-22.1-21.977z" class="cls-64" transform="translate(-243.223 -94.017)"/>
        </g>
    </g>
</svg>
