<svg xmlns="http://www.w3.org/2000/svg" xmlns:xlink="http://www.w3.org/1999/xlink" width="360" height="328" viewBox="0 0 360 328">
    <defs>
        <linearGradient id="linear-gradient" x2="1" y1=".5" y2=".5" gradientUnits="objectBoundingBox">
            <stop offset="0" stop-color="#775ca7"/>
            <stop offset="1" stop-color="#57a0d7"/>
        </linearGradient>
        <linearGradient id="linear-gradient-2" x2="1" y1=".5" y2=".5" gradientUnits="objectBoundingBox">
            <stop offset="0" stop-color="#ffc533"/>
            <stop offset="1" stop-color="#f8ba26"/>
        </linearGradient>
        <linearGradient id="linear-gradient-3" x2="1" y1=".5" y2=".5" gradientUnits="objectBoundingBox">
            <stop offset="0" stop-color="#ff6660"/>
            <stop offset=".219" stop-color="#fe6f60"/>
            <stop offset=".579" stop-color="#fe8761"/>
            <stop offset="1" stop-color="#fdad64"/>
        </linearGradient>
        <linearGradient id="linear-gradient-8" x1="-.001" x2=".98" y1=".506" y2=".506" xlink:href="#linear-gradient-3"/>
        <linearGradient id="linear-gradient-10" x1="0" x2="1.05" y1=".5" y2=".5" xlink:href="#linear-gradient"/>
        <linearGradient id="linear-gradient-14" x2="1.05" y1=".5" y2=".5" gradientUnits="objectBoundingBox">
            <stop offset="0" stop-color="#775ca7"/>
            <stop offset=".12" stop-color="#6c71b6"/>
            <stop offset=".277" stop-color="#6386c4"/>
            <stop offset=".455" stop-color="#5c94cf"/>
            <stop offset=".666" stop-color="#589dd5"/>
            <stop offset="1" stop-color="#57a0d7"/>
        </linearGradient>
        <linearGradient id="linear-gradient-16" x1=".372" x2=".679" y1=".318" y2=".704" gradientUnits="objectBoundingBox">
            <stop offset="0" stop-color="#ba7f37"/>
            <stop offset="1" stop-color="#98541e"/>
        </linearGradient>
        <clipPath id="clip-path">
            <path id="사각형_18657" d="M0 0H360V328H0z" class="cls-1" transform="translate(104 9.675)"/>
        </clipPath>
        <clipPath id="clip-path-2">
            <path id="패스_30618" d="M1057.427 564.673c-.02-.025-.006-.009-.007-.011l.014.015.035.04.081.1c.056.072.113.148.17.228.114.16.229.33.338.507a12.492 12.492 0 0 1 .617 1.118 16.342 16.342 0 0 1 .961 2.458 21.657 21.657 0 0 1 .879 5.365 10.186 10.186 0 0 1-.167 2.53 7.305 7.305 0 0 1-.874 2.28 13.489 13.489 0 0 1-3.766 3.772 1.211 1.211 0 0 0 1.351 2.008 23.014 23.014 0 0 0 2.557-1.793 12.4 12.4 0 0 0 2.277-2.4 10.328 10.328 0 0 0 1.489-3.1 13.4 13.4 0 0 0 .5-3.316 25.175 25.175 0 0 0-.6-6.312 20.252 20.252 0 0 0-.975-3.109 16.527 16.527 0 0 0-.705-1.518c-.132-.251-.274-.5-.428-.753-.077-.126-.158-.252-.244-.381l-.137-.2-.077-.106-.044-.057-.066-.082a2.088 2.088 0 1 0-3.177 2.71z" class="cls-1" transform="translate(-1055.207 -561.23)"/>
        </clipPath>
        <style>
            .cls-1{fill:none}.cls-17,.cls-4{fill:#e6e6e6}.cls-5{fill:#2e3e49}.cls-8,.cls-9{fill:#f498b4}.cls-9{opacity:.58}.cls-10,.cls-17,.cls-25,.cls-9{mix-blend-mode:multiply;isolation:isolate}.cls-10{opacity:.43}.cls-13{fill:#fff}.cls-14{fill:#3a4d5c}.cls-15{fill:#f89ab5}.cls-18{fill:#5f4b8b}.cls-19{fill:#666}.cls-20{fill:#333}.cls-21{fill:#f7b75d}.cls-22{fill:#ffc988}.cls-23{fill:#0353fe}.cls-24{fill:#febe40}.cls-25{opacity:.1}.cls-25,.cls-37{fill:url(#linear-gradient)}.cls-26{fill:#ea8cac}.cls-27{fill:#0a1a4e}.cls-30{fill:url(#linear-gradient-3)}.cls-31{fill:#55b66a}.cls-36{fill:#7fcbca}.cls-41{fill:#c8da52}.cls-42{fill:#34b2cc}.cls-44{fill:#89ceea}.cls-45{fill:#da1c4b}.cls-46{fill:#b11e48}.cls-48{fill:#4e9b5c}.cls-49{fill:#4f3037}.cls-50{fill:#381a22}.cls-51{fill:#601612}.cls-52{fill:#2b151a}.cls-53{fill:#bf9692}.cls-54{fill:#93666d}.cls-55{fill:#d7b2a7}.cls-57{fill:#6b464c}.cls-60{fill:#ffc134}.cls-61{fill:#ff5d02}.cls-62{fill:#ff7308}.cls-63{fill:#df9b39}.cls-64{fill:#fff3e0}.cls-65{fill:#ffffef}.cls-66{fill:#ce4504}.cls-68{fill:#392126}.cls-73{fill:#3b5974}
        </style>
    </defs>
    <g id="img_celebration_join" transform="translate(-104 -9.675)">
        <g id="마스크_그룹_155" clip-path="url(#clip-path)">
            <g id="그룹_40648">
                <g id="그룹_40634" transform="translate(0 .493)">
                    <path id="패스_30548" d="M117.956 190.113a13.855 13.855 0 0 0 1.7.852l.022.011h.011a13.847 13.847 0 0 0 3.958.99l.832.418a13.132 13.132 0 0 0 1.434.719l.1.051h.01l-.012-.015a13.107 13.107 0 0 0 2.5.767 32.627 32.627 0 0 0 3.707 9.465l9.905 16.92a32.639 32.639 0 0 0 14.729 13.255l37.386 16.892 9.922 4.483c.509.23 1.028.425 1.55.6l.095.042.073.014a17.656 17.656 0 0 0 7.476.8 11.463 11.463 0 0 0 2.384-.35l-.069.034a17.64 17.64 0 0 0 6.176-2.81 8.117 8.117 0 0 0 .52-12.8l-1.979-1.673 40.607 24.7c.179.109.36.212.541.312.06.033.12.062.18.094.123.065.247.13.371.19.072.035.144.068.216.1.114.053.229.106.345.157l.228.1c.114.047.227.092.342.136.077.029.154.059.232.087.116.042.233.081.35.12l.226.074c.126.039.253.075.379.111.067.018.133.039.2.056q.259.068.519.125l.062.015c.193.042.387.079.581.112.066.012.133.02.2.031.129.02.259.04.389.056.079.01.157.018.236.026.118.013.235.025.353.035l.251.018c.114.007.227.013.341.017l.254.008h.591c.119 0 .237-.008.356-.015.078 0 .155-.006.233-.012.143-.01.285-.023.427-.037l.158-.014c.189-.021.378-.046.566-.075.077-.012.153-.026.23-.039.115-.019.231-.039.346-.062.086-.017.171-.036.257-.055.1-.023.21-.046.314-.071.089-.021.177-.044.266-.068s.2-.054.3-.083l.267-.079c.089-.027.2-.063.294-.1s.176-.059.264-.09.2-.073.3-.111.17-.064.254-.1c.107-.044.212-.09.318-.136s.186-.081.278-.123c.151-.07.3-.142.449-.217.081-.041.162-.086.243-.13l.276-.149c.091-.049.168-.1.251-.148s.171-.1.256-.155.167-.106.25-.161.165-.109.246-.165l.245-.172c.081-.058.16-.117.239-.177s.159-.12.238-.182.158-.128.236-.193.152-.124.227-.189.162-.145.243-.217.138-.122.205-.186a13.66 13.66 0 0 0 1.7-1.942 10.868 10.868 0 0 0 1.424-10.026c.138.08.276.16.416.234.067.035.133.068.2.1.159.082.318.161.479.235l.223.1q.247.109.5.208l.192.077a13.541 13.541 0 0 0 1.939.577q.309.067.62.12a13.606 13.606 0 0 0 2.5.186q.624-.011 1.243-.079a13.674 13.674 0 0 0 3.026-.685q.588-.206 1.157-.465a13.562 13.562 0 0 0 5.381-4.42 10.892 10.892 0 0 0 1.79-3.972q.06-.266.107-.534a10.877 10.877 0 0 0 .158-1.878c.045 0 .09 0 .135.007.087.006.174.01.261.013.115.005.231.01.346.012h.607c.078 0 .156-.006.234-.01.124 0 .247-.01.371-.018.07 0 .139-.012.209-.018.131-.011.262-.022.393-.037l.159-.021a13.578 13.578 0 0 0 9.343-5.54 10.9 10.9 0 0 0 1.88-8.328q-.049-.27-.112-.537a13.551 13.551 0 0 0 5.471-4.459 10.867 10.867 0 0 0 .895-1.479c.052-.085.106-.17.155-.257a10.06 10.06 0 0 0-2.8-13.11L269.2 170.149c-.72-2.06-2.579-4.617-5.177-7.448l-.567-.609q-.754-.8-1.577-1.626c-.874-.875-1.8-1.77-2.78-2.678q-.7-.65-1.429-1.309-.8-.721-1.627-1.45-1.189-1.045-2.435-2.1-.829-.7-1.678-1.409-.657-.546-1.325-1.092l-.776-.634q-.76-.617-1.527-1.232-1.226-.982-2.466-1.955-.885-.694-1.772-1.381l-.887-.684c-2.955-2.272-5.894-4.46-8.658-6.476q-1.244-.907-2.436-1.765c-2.909-2.1-5.547-3.95-7.7-5.445A17.585 17.585 0 0 0 211.8 127.9l-11.019 1.613c-.14 0-.279.011-.419.016l-13.69-9.452a15.914 15.914 0 0 0-1.917-3.243 15.135 15.135 0 0 0-2.413-5.451 16.325 16.325 0 0 0-1.13-1.508h.01l-.073-.081c-.1-.113-.2-.22-.295-.33s-.175-.193-.26-.284-.183-.2-.277-.29c-.206-.211-.415-.411-.637-.61-.216-.194-.45-.39-.709-.6l-.107-.085-.051-.04-.717-.522q-.563-.435-1.144-.833L33.046 1.392H0v119.653l103.634 61.888z" class="cls-4" transform="translate(0 -1.392)"/>
                </g>
                <path id="패스_30550" d="M324.725 212.143c.094-5.743-2.029-10.269-7.085-14.172-6.05-4.671-13.61-6.079-26.164-12.539l-84.444 46.449c16.061 15.938 36.749 37.067 48.195 47.491a13.836 13.836 0 0 0 15.974 1.892c65.676-36.095 53.299-55.27 53.524-69.121z" class="cls-5" transform="translate(-133.716 -119.765)"/>
                <path id="패스_30551" d="M324.725 212.143a16.851 16.851 0 0 0-7.085-14.172c-6.314-4.308-13.61-6.079-26.164-12.539l-84.444 46.449c16.061 15.938 36.749 37.067 48.195 47.491a13.836 13.836 0 0 0 15.974 1.892c65.676-36.095 53.299-55.27 53.524-69.121z" class="cls-5" transform="translate(-133.716 -119.765)"/>
                <path id="패스_30552" fill="#ccc" d="M344.167 231.168a15.97 15.97 0 0 0-6.714-13.43c-5.983-4.082-12.9-5.76-24.794-11.883l-80.023 44.017c15.219 15.1 34.824 35.126 45.671 45a13.111 13.111 0 0 0 15.138 1.792c62.238-34.2 50.508-52.371 50.722-65.496z" transform="translate(-150.253 -132.955)"/>
                <g id="그룹_40644" transform="translate(89.102 64.844)">
                    <g id="그룹_40643">
                        <path id="패스_30553" fill="#ea92af" d="M251.608 323.932l45.4 26.5 16.942-37.794-62.342-22.808z" transform="translate(-251.608 -252.036)"/>
                        <path id="패스_30554" d="M486.6 282.371a17.586 17.586 0 0 0-12.576-2.954L463 281.03c-34.753.869-66.031 33.45-66.031 33.45l50.392 72.112 84.054-64.925c-3.402-9.752-32.27-30.591-44.815-39.296z" class="cls-8" transform="translate(-345.494 -245.191)"/>
                        <path id="패스_30555" d="M577.178 282.371a17.586 17.586 0 0 0-12.576-2.954l-11.019 1.613a62.317 62.317 0 0 0-10.781 1.248 60.792 60.792 0 0 1 8.066-.753l11.019-1.613a17.587 17.587 0 0 1 12.576 2.954c12.547 8.7 41.415 29.544 44.821 39.3l-82.066 63.389.727 1.04L622 321.668c-3.408-9.753-32.275-30.592-44.822-39.297z" class="cls-9" transform="translate(-436.074 -245.191)"/>
                        <path id="패스_30556" d="M779 428.8l-52.545-38.41c-7.452-1.73-13.656.429-21.692 15.46l59.322 39.94a12.565 12.565 0 0 0 16.861-2.612A10.06 10.06 0 0 0 779 428.8z" class="cls-8" transform="translate(-544.287 -316.659)"/>
                        <path id="패스_30557" d="M789.627 428.8l-52.548-38.41c-5.557-1.29-10.42-.414-15.866 6.346 4.93-5.368 9.453-6.012 14.563-4.826l52.548 38.413a10.06 10.06 0 0 1 2.259 13.956 12.636 12.636 0 0 0 .988-1.1 10.06 10.06 0 0 0-1.943-14.375z" class="cls-9" transform="translate(-554.911 -316.66)"/>
                        <g id="그룹_40635" class="cls-10" transform="translate(179.718 85.052)">
                            <path id="패스_30558" d="M759.1 436.81a21.071 21.071 0 0 1 1.815-5.288 20.585 20.585 0 0 1 3.13-4.718c.319-.358.668-.694 1.016-1.029a14 14 0 0 1 1.143-.917 8.935 8.935 0 0 1 2.663-1.319 6.022 6.022 0 0 1 2.975-.131 6.25 6.25 0 0 1 2.57 1.238 8.835 8.835 0 0 0-2.65-.389 6.123 6.123 0 0 0-2.438.569 9.83 9.83 0 0 0-2.126 1.346 15.7 15.7 0 0 0-1.865 1.8 38.7 38.7 0 0 0-3.24 4.235c-1.019 1.493-1.985 3.034-2.993 4.603z" class="cls-8" transform="translate(-759.097 -423.279)"/>
                        </g>
                        <g id="그룹_40636" class="cls-10" transform="translate(204.032 100.737)">
                            <path id="패스_30559" d="M827.755 481.1a21.062 21.062 0 0 1 1.815-5.287 20.579 20.579 0 0 1 3.131-4.718c.319-.358.668-.694 1.016-1.03a13.964 13.964 0 0 1 1.143-.917 8.938 8.938 0 0 1 2.663-1.319 6.028 6.028 0 0 1 2.975-.131 6.251 6.251 0 0 1 2.57 1.238 8.832 8.832 0 0 0-2.65-.389 6.119 6.119 0 0 0-2.437.569 9.825 9.825 0 0 0-2.126 1.346 15.659 15.659 0 0 0-1.865 1.8 38.693 38.693 0 0 0-3.241 4.235c-1.018 1.491-1.983 3.035-2.994 4.603z" class="cls-1" transform="translate(-827.755 -467.57)"/>
                        </g>
                        <path id="패스_30560" d="M762.818 459.076l-.393-.26a10.886 10.886 0 0 1 1.259 14.193 13.607 13.607 0 0 1-18.108 3.668L681.487 437.7c-.041.087-.082.168-.124.256L747.53 478.2a13.607 13.607 0 0 0 18.108-3.668 10.894 10.894 0 0 0-2.82-15.453z" class="cls-9" transform="translate(-529.173 -347.541)"/>
                        <path id="패스_30561" d="M783.548 464.215L727.4 425.632l-1.841 1.963-2.6 2.337c-.265.531-.532 1.075-.8 1.638l27.172 19.809 20.916 14.082 8.026 4.881a12.588 12.588 0 0 0 9.674-.645 12.245 12.245 0 0 0-4.399-5.482z" class="cls-9" transform="translate(-555.524 -339.746)"/>
                        <path id="패스_30562" d="M742.375 464.029L683.613 425.1c-8.148-1.5-14.751 1.147-22.693 17.807l66.167 40.242a13.607 13.607 0 0 0 18.109-3.668 10.895 10.895 0 0 0-2.82-15.453z" class="cls-8" transform="translate(-515.97 -339.171)"/>
                        <path id="패스_30563" d="M744.122 493.861l-60.714-41.7-2.045 2.285 2.175 5.127c-.265.531-.531 1.075-.8 1.638l38.436 28.022 19.116 11.626a13.565 13.565 0 0 0 9.2 1.812l-.411-1.671a12.259 12.259 0 0 0-4.957-7.139z" class="cls-9" transform="translate(-529.173 -356.884)"/>
                        <g id="그룹_40637" class="cls-10" transform="translate(193.513 113.75)">
                            <path id="패스_30564" d="M798.052 517.846a21.077 21.077 0 0 1 1.815-5.288 20.586 20.586 0 0 1 3.133-4.717c.319-.358.668-.694 1.016-1.03a14.072 14.072 0 0 1 1.143-.916 8.933 8.933 0 0 1 2.663-1.319 6.021 6.021 0 0 1 2.975-.131 6.243 6.243 0 0 1 2.57 1.238 8.833 8.833 0 0 0-2.65-.389 6.127 6.127 0 0 0-2.437.569 9.819 9.819 0 0 0-2.126 1.346 15.66 15.66 0 0 0-1.865 1.8 38.671 38.671 0 0 0-3.24 4.235c-1.02 1.49-1.986 3.034-2.997 4.602z" class="cls-1" transform="translate(-798.052 -504.316)"/>
                        </g>
                        <g id="그룹_40638" class="cls-10" transform="translate(169.069 97.05)">
                            <path id="패스_30565" d="M729.028 470.687a21.077 21.077 0 0 1 1.815-5.288 20.583 20.583 0 0 1 3.13-4.718c.319-.358.668-.694 1.016-1.03a14.059 14.059 0 0 1 1.143-.917 8.95 8.95 0 0 1 2.663-1.319 6.023 6.023 0 0 1 2.975-.131 6.246 6.246 0 0 1 2.57 1.238 8.835 8.835 0 0 0-2.65-.389 6.126 6.126 0 0 0-2.437.569 9.808 9.808 0 0 0-2.126 1.346 15.653 15.653 0 0 0-1.865 1.8 38.7 38.7 0 0 0-3.241 4.235c-1.021 1.492-1.981 3.036-2.993 4.604z" class="cls-8" transform="translate(-729.028 -457.157)"/>
                        </g>
                        <path id="패스_30566" d="M742.375 496.7l-.393-.261a10.888 10.888 0 0 1 1.259 14.193 13.608 13.608 0 0 1-18.109 3.668l-64.087-38.977-.125.256 66.167 40.242a13.607 13.607 0 0 0 18.113-3.671 10.895 10.895 0 0 0-2.82-15.453z" class="cls-9" transform="translate(-515.97 -371.839)"/>
                        <path id="패스_30567" d="M702.525 497.906l-58.762-38.927c-8.148-1.5-14.751 1.147-22.693 17.807l66.167 40.241a13.608 13.608 0 0 0 18.109-3.668 10.894 10.894 0 0 0-2.821-15.453z" class="cls-8" transform="translate(-490.232 -361.051)"/>
                        <path id="패스_30568" d="M702.525 530.576l-.393-.26a10.887 10.887 0 0 1 1.259 14.193 13.608 13.608 0 0 1-18.109 3.668L621.195 509.2l-.125.256 66.167 40.244a13.608 13.608 0 0 0 18.109-3.668 10.894 10.894 0 0 0-2.821-15.453z" class="cls-9" transform="translate(-490.232 -393.72)"/>
                        <path id="패스_30569" d="M683.128 531.507l-56.816-38.351-1.841 1.963-2.6 2.337c-.265.531-.532 1.075-.8 1.638l66.167 40.241a13.626 13.626 0 0 0 2.937 1.34l-.988-2.1a17.54 17.54 0 0 0-6.059-7.068z" class="cls-9" transform="translate(-490.232 -383.358)"/>
                        <path id="패스_30570" d="M648.049 536.967l-58.762-38.927c-8.148-1.5-14.751 1.147-22.693 17.807l66.167 40.242a13.607 13.607 0 0 0 18.108-3.668 10.895 10.895 0 0 0-2.82-15.453z" class="cls-8" transform="translate(-455.048 -386.279)"/>
                        <path id="패스_30571" d="M634.823 558.531l-66.167-40.241c3.355-7.039 6.472-11.57 9.567-14.35-3.784 2.488-7.529 7.348-11.63 15.951l66.167 40.242a13.611 13.611 0 0 0 16.408-1.726 13.61 13.61 0 0 1-14.345.124z" class="cls-9" transform="translate(-455.048 -390.323)"/>
                        <path id="패스_30572" d="M390.557 382.4l-9.2-7.777-35.986-23.785s10.227-13.189 2.6-29.148-29.44-29.113-29.44-29.113L267.075 264.5l-15.467 8.971 51.478 31.5-4.717 11.906a32.639 32.639 0 0 0 2.177 28.511l9.905 16.92a32.641 32.641 0 0 0 14.729 13.255l47.308 21.375a17.667 17.667 0 0 0 17.55-1.729 8.117 8.117 0 0 0 .52-12.8z" class="cls-8" transform="translate(-251.608 -235.675)"/>
                        <path id="패스_30573" d="M401.774 389.735l-9.2-7.777-35.986-23.784s10.227-13.189 2.6-29.148-32.5-27.935-32.5-27.935l-54.8-25.329-3.126 1.813 57.653 23.5s21.812 13.154 29.44 29.113-2.6 29.148-2.6 29.148l35.986 23.785 9.2 7.777a8.117 8.117 0 0 1-.52 12.8 17.678 17.678 0 0 1-2.845 1.651 17.653 17.653 0 0 0 6.176-2.81 8.117 8.117 0 0 0 .519-12.8z" class="cls-9" transform="translate(-262.69 -242.949)"/>
                        <path id="패스_30574" d="M251.608 220.9l51.261 31.278 68.637-31.278-54.736-37.793z" class="cls-8" transform="translate(-251.608 -183.107)"/>
                        <g id="그룹_40639" class="cls-10" transform="translate(135.863 124.613)">
                            <path id="패스_30575" d="M635.259 548.521a21.072 21.072 0 0 1 1.815-5.287 20.59 20.59 0 0 1 3.131-4.718c.319-.358.668-.694 1.016-1.029a14 14 0 0 1 1.143-.917 8.939 8.939 0 0 1 2.663-1.319 6.022 6.022 0 0 1 2.973-.131 6.239 6.239 0 0 1 2.569 1.238 8.83 8.83 0 0 0-2.65-.389 6.124 6.124 0 0 0-2.438.569 9.827 9.827 0 0 0-2.126 1.346 15.665 15.665 0 0 0-1.865 1.8 38.713 38.713 0 0 0-3.24 4.235c-1.014 1.49-1.979 3.034-2.991 4.602z" class="cls-8" transform="translate(-635.259 -534.991)"/>
                        </g>
                        <g id="그룹_40640" class="cls-10" transform="translate(160.177 140.298)">
                            <path id="패스_30576" d="M703.917 592.812a21.081 21.081 0 0 1 1.815-5.287 20.586 20.586 0 0 1 3.131-4.719c.319-.358.667-.694 1.016-1.03a14.1 14.1 0 0 1 1.143-.916 8.937 8.937 0 0 1 2.663-1.319 6.023 6.023 0 0 1 2.975-.131 6.242 6.242 0 0 1 2.57 1.238 8.833 8.833 0 0 0-2.65-.389 6.12 6.12 0 0 0-2.437.569 9.822 9.822 0 0 0-2.126 1.346 15.683 15.683 0 0 0-1.865 1.8 38.778 38.778 0 0 0-3.241 4.235c-1.017 1.491-1.983 3.034-2.994 4.603z" class="cls-1" transform="translate(-703.917 -579.281)"/>
                        </g>
                        <g id="그룹_40641" class="cls-10" transform="translate(157.578 110.264)">
                            <path id="패스_30577" d="M696.58 508a21.076 21.076 0 0 1 1.815-5.287 20.582 20.582 0 0 1 3.131-4.713c.319-.358.668-.694 1.016-1.03a14.079 14.079 0 0 1 1.143-.916 8.937 8.937 0 0 1 2.663-1.319 6.017 6.017 0 0 1 2.975-.131 6.237 6.237 0 0 1 2.57 1.238 8.828 8.828 0 0 0-2.65-.389 6.127 6.127 0 0 0-2.437.569 9.826 9.826 0 0 0-2.126 1.346 15.686 15.686 0 0 0-1.865 1.8 38.707 38.707 0 0 0-3.24 4.235c-1.018 1.488-1.983 3.032-2.995 4.597z" class="cls-8" transform="translate(-696.58 -494.473)"/>
                        </g>
                        <g id="그룹_40642" class="cls-10" transform="translate(181.892 125.949)">
                            <path id="패스_30578" d="M765.238 552.293a21.09 21.09 0 0 1 1.815-5.287 20.589 20.589 0 0 1 3.131-4.718c.319-.358.668-.694 1.016-1.03a14.02 14.02 0 0 1 1.143-.916 8.935 8.935 0 0 1 2.663-1.319 6.02 6.02 0 0 1 2.975-.131 6.244 6.244 0 0 1 2.57 1.238 8.833 8.833 0 0 0-2.65-.389 6.121 6.121 0 0 0-2.437.569 9.83 9.83 0 0 0-2.126 1.346 15.673 15.673 0 0 0-1.865 1.8 38.742 38.742 0 0 0-3.241 4.235c-1.017 1.49-1.983 3.034-2.994 4.602z" class="cls-1" transform="translate(-765.238 -538.763)"/>
                        </g>
                    </g>
                    <path id="패스_30579" fill="#fff" d="M575.175 604.194c-6.516-.724-10.244 7.624-10.244 7.624l11.568 5.13c9.482 1.951 12.93.495 15.457-4.585 0 0-1.918-6.517-16.781-8.169z" opacity="0.46" transform="translate(-453.974 -455.045)"/>
                </g>
                <path id="패스_30580" fill="#f498b4" d="M268.766 221.1l19.51 59.949 17.066 9.924c-4.655-71.311 60.044-70.877 60.044-70.877L342 200.244z" transform="translate(-173.588 -129.331)" style="mix-blend-mode:multiply;isolation:isolate" opacity="0.4"/>
                <g id="그룹_40645">
                    <path id="패스_30582" d="M131.84 164.329h.01c-10.722-12.946-8.674-36.44 5.795-55.769 14.681-19.611 37.044-28.269 52.52-21.088a14.743 14.743 0 0 0-2.285-2.2L73.531 0H22.273L0 31.243v55.811l116.635 69.652z" class="cls-13"/>
                </g>
                <g id="그룹_40646" transform="translate(109.46 154.104)"/>
                <g id="그룹_40647">
                    <path id="패스_30585" d="M125.505 162.148h.011c-11.315-13.661-9.154-38.454 6.115-58.851 15.492-20.7 39.091-29.831 55.422-22.254a15.562 15.562 0 0 0-2.412-2.32L76.544 0H0v88.737L109.46 154.1z" class="cls-14"/>
                </g>
            </g>
        </g>
        <g id="그룹_40695" transform="translate(296.015 142.31)">
            <g id="그룹_40650" transform="translate(115.94)">
                <g id="그룹_40649">
                    <path id="패스_30586" d="M1166.777 404.79c-.679.293-1.639.371-1.462 1.289a12.923 12.923 0 0 0 .6 2.038c.656 1.521 1.477 2.456 2.513 2.009s1.564-1.757.908-3.277-1.524-2.506-2.559-2.059z" class="cls-15" transform="translate(-1165.097 -404.681)"/>
                    <path id="패스_30587" d="M1164.8 408.048a1.955 1.955 0 0 0 .365 1.684l1.12 1.415.134-1.685-1.443-2.124z" class="cls-15" transform="translate(-1164.738 -406.397)"/>
                </g>
                <path id="패스_30588" fill="#e8ac42" d="M1175.833 426.873c-.147-1.335-.332-2.669-.581-4a34.319 34.319 0 0 0-2.33-7.858 1.469 1.469 0 0 0-2.723 1.1l.012.033a31.229 31.229 0 0 1 1.609 7.242c.147 1.247.234 2.508.287 3.772s.069 2.534.051 3.805c-.03 2.542-.193 5.092-.435 7.633q-.185 1.906-.441 3.8-.128.948-.272 1.889l-.151.937c-.051.305-.107.632-.16.906a2.535 2.535 0 1 0 4.979.959q.016-.084.026-.168v-.015c.045-.371.077-.69.11-1.031l.092-1q.085-1 .15-2 .132-2 .189-3.994c.072-2.664.061-5.331-.09-8-.068-1.339-.172-2.674-.322-4.01z" transform="translate(-1168.208 -410.794)"/>
            </g>
            <ellipse id="타원_996" cx="13.387" cy="7.729" class="cls-17" rx="13.387" ry="7.729" transform="translate(101.21 96.137)"/>
            <path id="패스_30589" d="M1151.038 569.08a5.347 5.347 0 1 0 5.484 5.206 5.347 5.347 0 0 0-5.484-5.206z" class="cls-18" transform="translate(-1036.586 -510.86)"/>
            <g id="그룹_40651" transform="translate(114.226 97.725)">
                <path id="패스_30590" d="M1160.081 683.721a2.052 2.052 0 0 0 .675 2.528 42.773 42.773 0 0 0 4.524 3 3.387 3.387 0 0 0 1.514-.36 1.046 1.046 0 0 0 .584-.615 1.091 1.091 0 0 0-.18-.846z" class="cls-19" transform="translate(-1159.898 -682.63)"/>
                <path id="패스_30591" d="M1165.415 689.118a42.777 42.777 0 0 1-4.524-3 2.046 2.046 0 0 1-.732-2.355l-.078-.039a2.052 2.052 0 0 0 .675 2.528 42.773 42.773 0 0 0 4.524 3 2.014 2.014 0 0 0 1.5-.26 1.447 1.447 0 0 0 .38-.36 1.205 1.205 0 0 1-.263.2c-.547.207-1.056.459-1.482.286z" class="cls-20" transform="translate(-1159.898 -682.63)"/>
                <path id="패스_30592" d="M1166.755 683.368l-2.17-1.55s-2.879-1.337-3.306-1.163a1.414 1.414 0 0 0-.865 1.032 1.909 1.909 0 0 0 .724 1.479c.521.39 1.485 1.022 2.923 1.927 2.4 1.511 3.468.349 3.468.349l-.174-1.337z" class="cls-21" transform="translate(-1160.229 -680.64)"/>
                <path id="패스_30593" d="M1161.295 680.656a1.435 1.435 0 0 0-.859.995c.221.484 1.062 1.337 4.22 2.525l1.25-.334-1.392-2.063c-.479-.22-2.836-1.279-3.219-1.123z" class="cls-22" transform="translate(-1160.246 -680.64)"/>
                <path id="패스_30594" d="M1169.063 683.109s-.8.9-.417 1.437a4.587 4.587 0 0 0 1.245 1.007l.208-2.606-.61-.174z" class="cls-21" transform="translate(-1165.481 -682.018)"/>
            </g>
            <path id="패스_30595" d="M1178.161 631.726l.012-.091-.015-.365z" class="cls-23" transform="translate(-1057.466 -551.028)"/>
            <path id="패스_30596" d="M1167.874 570.478a3.609 3.609 0 0 0-4.058 3.095 3.776 3.776 0 0 0-.031.385l-.486 18.06-.01.368.013.088 2.943 20.3a1.585 1.585 0 0 0 3.153-.292l-.828-20.126-.012.091v-.455l.015.365 2.4-17.814a3.609 3.609 0 0 0-3.099-4.065z" class="cls-23" transform="translate(-1047.862 -511.743)"/>
            <g id="그룹_40652" transform="translate(104.914 101.088)">
                <path id="패스_30597" d="M1133.786 693.215a2.051 2.051 0 0 0 .675 2.528 42.812 42.812 0 0 0 4.524 3 3.385 3.385 0 0 0 1.514-.36 1.046 1.046 0 0 0 .584-.615 1.093 1.093 0 0 0-.18-.846z" class="cls-19" transform="translate(-1133.603 -692.124)"/>
                <path id="패스_30598" d="M1139.12 698.612a42.8 42.8 0 0 1-4.524-3 2.047 2.047 0 0 1-.732-2.355l-.077-.039a2.051 2.051 0 0 0 .675 2.528 42.812 42.812 0 0 0 4.524 3 2.013 2.013 0 0 0 1.5-.26 1.437 1.437 0 0 0 .38-.361 1.216 1.216 0 0 1-.263.2c-.548.208-1.057.46-1.483.287z" class="cls-20" transform="translate(-1133.603 -692.124)"/>
                <path id="패스_30599" d="M1140.459 692.863l-2.17-1.55s-2.879-1.337-3.306-1.162a1.414 1.414 0 0 0-.865 1.032 1.91 1.91 0 0 0 .724 1.479c.521.391 1.485 1.022 2.923 1.926 2.4 1.511 3.468.349 3.468.349l-.174-1.337z" class="cls-21" transform="translate(-1133.934 -690.135)"/>
                <path id="패스_30600" d="M1135 690.15a1.434 1.434 0 0 0-.859.994c.221.484 1.063 1.336 4.22 2.526l1.249-.334-1.391-2.063c-.48-.219-2.838-1.279-3.219-1.123z" class="cls-22" transform="translate(-1133.95 -690.135)"/>
                <path id="패스_30601" d="M1142.768 692.6s-.8.9-.416 1.437a4.585 4.585 0 0 0 1.245 1.007l.208-2.606-.61-.174z" class="cls-21" transform="translate(-1139.186 -691.512)"/>
            </g>
            <path id="패스_30602" d="M1147.158 578.822a3.491 3.491 0 0 0-3.953 2.958c-.017.114-.027.233-.032.346l-.806 18.583-.011.233.989 20.616a1.534 1.534 0 0 0 3.065.006l1.067-20.612-.011.233 2.651-18.411a3.492 3.492 0 0 0-2.959-3.952z" class="cls-23" transform="translate(-1034.343 -517.13)"/>
            <path id="패스_30603" d="M1154.54 497.026l-1.52-3.338-8.1 1.895-5.783 3.688 1.762 6.305.186 3.026-.3 14.334.043.852.077 4.141a1.324 1.324 0 0 0 1.528 1.28c7.077-1.117 10.916-4.535 12.242-5.957a2.116 2.116 0 0 0 .567-1.366l.224-6.165a18.314 18.314 0 0 1 .385-3.522 58.828 58.828 0 0 0-.36-11.823 11.554 11.554 0 0 0-.951-3.35z" class="cls-24" transform="translate(-1032.262 -462.168)"/>
            <path id="패스_30604" d="M1144.918 495.583l-5.783 3.688.764 6.958.83 3.094.053 13.613.043.852.077 4.132a1.321 1.321 0 0 0 1.526 1.282c.509-.08.948-.158 1.137-.2l1.025-6.011.3-14.334-.186-3.026-1.762-6.305 3.342-.508a14.47 14.47 0 0 0 6.949-3.075l.528-.43-.742-1.629z" class="cls-25" transform="translate(-1032.262 -462.168)"/>
            <path id="패스_30605" d="M1158.338 484.128l.032 4.779a8.476 8.476 0 0 0 5.036-1.783l-.823-4.2z" class="cls-15" transform="translate(-1044.665 -455.218)"/>
            <path id="패스_30606" d="M1158.3 485.981a5.883 5.883 0 0 0 4.213-3.156l-4.251 1.415z" class="cls-17" transform="translate(-1044.618 -455.152)"/>
            <g id="그룹_40653" transform="translate(109.237 16.652)">
                <path id="패스_30607" d="M1151.319 454.775c-2.321-1.049-3.94 1.109-4.818 4.326-.126.461-.614.867-.691 1.369.217 2.973 2.56 6.183 5.464 6.194 2.133-.3 4.314-2.852 5.281-5.925.014-3.658-2.332-5.953-5.236-5.964z" class="cls-15" transform="translate(-1145.81 -453.515)"/>
                <path id="패스_30608" d="M1146.538 460.524c.077-.5.565-.908.691-1.369.7-2.558 1.866-4.445 3.482-4.583-2-.447-3.411 1.6-4.21 4.531-.126.461-.614.867-.691 1.369.217 2.973 2.56 6.183 5.464 6.194.018 0 .035-.008.053-.011-2.585-.455-4.588-3.392-4.789-6.131z" class="cls-26" transform="translate(-1145.81 -453.516)"/>
                <path id="패스_30609" d="M1148.509 452.263a2.8 2.8 0 0 0-.645 2.273s3.138 3.452 9.994 4.392c0 0-.422-9.604-9.349-6.665z" class="cls-27" transform="translate(-1147.113 -451.704)"/>
                <path id="패스_30610" d="M1158.666 455.466l-2.556 3.556-.243 2.72s1.142.233 1.139 1.148a2.849 2.849 0 0 1-.736 1.69l2.452 2.423c1.8-.795 3.506-3.03 4.329-5.645.012-3.292-1.888-5.48-4.385-5.892z" class="cls-27" transform="translate(-1152.306 -454.134)"/>
            </g>
            <path id="패스_30611" fill="url(#linear-gradient-2)" d="M1158.421 494.8v.414a6.9 6.9 0 0 0 5.135-1.565l-.245-.959s-1.111 2.118-4.89 2.11z" transform="translate(-1044.718 -461.522)"/>
            <g id="그룹_40667" transform="translate(48.478 42.739)">
                <ellipse id="타원_997" cx="13.479" cy="7.782" class="cls-17" rx="13.479" ry="7.782" transform="translate(13.696 75.815)"/>
                <g id="그룹_40666">
                    <path id="패스_30612" d="M1048.853 748.16a2.066 2.066 0 0 0 .68 2.546 43.141 43.141 0 0 0 4.555 3.023 3.417 3.417 0 0 0 1.525-.363 1.056 1.056 0 0 0 .588-.619 1.1 1.1 0 0 0-.181-.852z" class="cls-19" transform="translate(-1022.311 -669.263)"/>
                    <path id="패스_30613" d="M1054.223 753.594a43.13 43.13 0 0 1-4.555-3.024 2.061 2.061 0 0 1-.737-2.371l-.078-.039a2.066 2.066 0 0 0 .68 2.546 43.141 43.141 0 0 0 4.555 3.023 2.026 2.026 0 0 0 1.514-.261 1.461 1.461 0 0 0 .383-.363 1.225 1.225 0 0 1-.265.2c-.556.21-1.068.463-1.497.289z" class="cls-20" transform="translate(-1022.311 -669.263)"/>
                    <path id="패스_30614" d="M1055.572 747.805l-2.185-1.561s-2.9-1.346-3.329-1.17a1.424 1.424 0 0 0-.87 1.039 1.921 1.921 0 0 0 .73 1.489c.524.393 1.495 1.029 2.943 1.94 2.419 1.522 3.492.351 3.492.351l-.176-1.346z" class="cls-21" transform="translate(-1022.644 -667.259)"/>
                    <path id="패스_30615" d="M1050.074 745.074a1.444 1.444 0 0 0-.865 1c.223.487 1.07 1.346 4.25 2.543l1.258-.336-1.4-2.077c-.484-.22-2.858-1.287-3.243-1.13z" class="cls-22" transform="translate(-1022.66 -667.259)"/>
                    <g id="그룹_40661" transform="translate(26.434 12.7)">
                        <g id="그룹_40654" transform="translate(0 21.617)">
                            <path id="패스_30616" d="M1050.6 622.562a9.718 9.718 0 0 0-1.42.713c-.593.372-.146.937.041 1.458.284.794 1.263.765 2.431.348a1.757 1.757 0 0 0 1.331-2.169c-.283-.795-1.214-.768-2.383-.35z" class="cls-15" transform="translate(-1048.885 -622.274)"/>
                            <path id="패스_30617" d="M1049.339 623.084l-.3.459 1.9-.294.853-.933-1.345.109a1.464 1.464 0 0 0-1.108.659z" class="cls-15" transform="translate(-1048.985 -622.3)"/>
                        </g>
                        <g id="그룹_40660" transform="translate(2.238)">
                            <g id="그룹_40659">
                                <g id="그룹_40658">
                                    <g id="그룹_40657" clip-path="url(#clip-path-2)">
                                        <g id="그룹_40655" transform="translate(-2.637 -16.759)">
                                            <path id="사각형_18028" d="M0 0H28.781V28.781H0z" class="cls-30"/>
                                        </g>
                                        <g id="그룹_40656" transform="translate(-2.637 12.022)">
                                            <path id="사각형_18029" d="M0 0H28.781V28.781H0z" class="cls-30"/>
                                        </g>
                                    </g>
                                </g>
                            </g>
                        </g>
                    </g>
                    <path id="패스_30619" d="M1034.793 576.833l-3.142-.306 1.018 4.567s-1.76 1.249-1.063 2.331 1.948 2.765 1.948 2.765a20.316 20.316 0 0 1-.124 4.808c-.4 1.766-1.7 7-1.7 7l1.705 1.112 5.612-11.471-2.215-10.614z" class="cls-30" transform="translate(-1011.186 -558.41)"/>
                    <path id="패스_30620" d="M1027.287 758.534a2.066 2.066 0 0 0 .68 2.546 43.05 43.05 0 0 0 4.555 3.024 3.416 3.416 0 0 0 1.524-.363 1.054 1.054 0 0 0 .588-.619 1.1 1.1 0 0 0-.181-.852z" class="cls-19" transform="translate(-1008.382 -675.963)"/>
                    <path id="패스_30621" d="M1032.657 763.968a43.04 43.04 0 0 1-4.555-3.023 2.06 2.06 0 0 1-.737-2.371l-.078-.039a2.066 2.066 0 0 0 .68 2.546 43.05 43.05 0 0 0 4.555 3.024 2.028 2.028 0 0 0 1.514-.262 1.455 1.455 0 0 0 .383-.363 1.224 1.224 0 0 1-.265.2c-.554.209-1.068.462-1.497.288z" class="cls-20" transform="translate(-1008.382 -675.963)"/>
                    <path id="패스_30622" d="M1034.006 758.179l-2.185-1.561s-2.9-1.346-3.328-1.17a1.423 1.423 0 0 0-.87 1.039 1.923 1.923 0 0 0 .729 1.489c.524.393 1.495 1.029 2.943 1.94 2.419 1.522 3.492.351 3.492.351l-.176-1.346z" class="cls-21" transform="translate(-1008.716 -673.96)"/>
                    <path id="패스_30623" d="M1028.509 755.448a1.444 1.444 0 0 0-.865 1c.222.487 1.07 1.346 4.249 2.543l1.258-.336-1.4-2.077c-.484-.22-2.857-1.287-3.242-1.13z" class="cls-22" transform="translate(-1008.732 -673.96)"/>
                    <path id="패스_30624" d="M1060.268 637.4a3.3 3.3 0 0 0-3.521 3.054c-.007.1-.009.2-.008.3l.362 19.163c.007 1.6.122 3.193.192 4.79l.236 4.789.473 9.574a1.448 1.448 0 0 0 2.893.008l.525-9.546.262-4.771c.092-1.59.161-3.18.286-4.769l1.354-19.065a3.3 3.3 0 0 0-3.054-3.527z" class="cls-15" transform="translate(-1027.523 -597.721)"/>
                    <path id="패스_30625" d="M1038.04 642.482a3.3 3.3 0 0 0-3.54 3.032q-.01.138-.01.274v.008l.081 9.954.041 4.972.021 2.485.01 1.242c0 .207 0 .414.011.621l.046.621 1.46 19.845a1.448 1.448 0 0 0 2.893-.068l.532-19.755.017-.616c.006-.206.029-.411.043-.616l.1-1.232.19-2.463.381-4.924.76-9.839a3.3 3.3 0 0 0-3.036-3.541z" class="cls-15" transform="translate(-1013.154 -601.002)"/>
                    <path id="패스_30626" d="M1047.915 583.18l1.123-8.4c1.189-3.056-.125-3.616-.232-5.01l-.93-4.526-9.461 4.3.078.232a.75.75 0 0 1-.056.6 7.234 7.234 0 0 0-.711 2.578c-.321 2.72.625 1.841.6 4.937-.007 1.013.039 4.583.051 5.734l-1.315 6.888a1.764 1.764 0 0 0 .944 1.753c1.419.8 5.15.493 10.1-1.779a14.019 14.019 0 0 0 1.245-1.1 1.037 1.037 0 0 0 .464-.823l.11-.446-.148-.544c-.211-.513-1.862-4.394-1.862-4.394z" class="cls-30" transform="translate(-1014.807 -551.124)"/>
                    <path id="패스_30627" d="M1032.247 631.873s1.409 2.39 1.341 7.367c-.018 1.355-.2 2.926-.291 4.735-.572 10.867 13.747.487 13.747.487s1.9-12.431-.579-15.479c-.686 3.99-10.898 4.757-14.218 2.89z" class="cls-31" transform="translate(-1011.705 -592.289)"/>
                    <path id="패스_30628" fill="#4d9e5c" d="M1037.069 638.092c-1.5.033-4.828-.251-5.774-.947 0 0-.179 2.4-.493 6.828-.1 1.351.091 3.4 0 5.208-.256 4.874 4.031 5.539 7.13 4.718l-.859-14.887z" transform="translate(-1010.753 -597.562)"/>
                    <path id="패스_30629" d="M1035.038 566.346l2.615 1.8 9.468-4.5-2.214-1.413z" class="cls-30" transform="translate(-1013.508 -549.182)"/>
                    <g id="그룹_40663" transform="translate(0 17.044)">
                        <g id="그룹_40662" transform="translate(0 6.866)">
                            <path id="패스_30630" d="M977.041 593.882a9.746 9.746 0 0 0-1.31-.9c-.611-.34-.891.325-1.257.739-.558.632-.06 1.476.868 2.3a1.757 1.757 0 0 0 2.542.118c.559-.634.086-1.439-.843-2.257z" class="cls-15" transform="translate(-974.24 -592.887)"/>
                            <path id="패스_30631" d="M978.071 592.924l-.546-.04 1.174 1.521 1.229.3-.745-1.126a1.463 1.463 0 0 0-1.112-.655z" class="cls-15" transform="translate(-976.362 -592.884)"/>
                        </g>
                        <path id="패스_30632" fill="url(#linear-gradient-8)" d="M1031.546 577.281l.007-.016-.007.016z" transform="translate(-1011.252 -575.931)"/>
                        <path id="패스_30633" d="M1000.182 573.632a2.088 2.088 0 0 0-2.684 1.2s0 .013-.006.019l-.019.05-.048.118c-.036.084-.074.171-.118.26-.085.178-.179.36-.282.541a12.569 12.569 0 0 1-.681 1.08 16.441 16.441 0 0 1-1.689 2.028 21.655 21.655 0 0 1-4.275 3.359 10.227 10.227 0 0 1-2.3 1.075 7.31 7.31 0 0 1-2.418.335 13.479 13.479 0 0 1-5.121-1.478 1.211 1.211 0 0 0-1.107 2.152 23.01 23.01 0 0 0 2.8 1.374 12.415 12.415 0 0 0 3.2.836 10.342 10.342 0 0 0 3.43-.19 13.418 13.418 0 0 0 3.146-1.163 25.19 25.19 0 0 0 5.24-3.569 20.236 20.236 0 0 0 2.252-2.354 16.528 16.528 0 0 0 .99-1.351c.156-.236.306-.482.453-.738.073-.128.145-.26.216-.4l.107-.216.056-.119.029-.066.04-.1a2.088 2.088 0 0 0-1.211-2.683z" class="cls-30" transform="translate(-977.197 -573.497)"/>
                    </g>
                    <g id="그룹_40665" transform="translate(22.177)">
                        <path id="패스_30634" d="M1046.233 562.329a7.1 7.1 0 0 0 4.787-.962l.144-4.656-4.344.929z" class="cls-15" transform="translate(-1042.915 -545.612)"/>
                        <path id="패스_30635" d="M1047.574 559.5a5.923 5.923 0 0 0 4.439-2.9l-4.365 1.144z" class="cls-17" transform="translate(-1043.781 -545.543)"/>
                        <g id="그룹_40664" transform="translate(0 .063)">
                            <path id="패스_30636" d="M1042.184 526.665c-2.375-.965-3.921 1.27-4.679 4.54-.109.469-.584.9-.642 1.4.335 2.983 2.816 6.121 5.738 6.02 2.134-.387 4.23-3.037 5.083-6.166-.128-3.677-2.577-5.896-5.5-5.794z" class="cls-15" transform="translate(-1036.863 -526.123)"/>
                            <path id="패스_30637" d="M1037.6 532.635c.058-.508.533-.936.642-1.4.6-2.6 1.7-4.545 3.325-4.747-2.027-.371-3.369 1.746-4.059 4.723-.109.469-.584.9-.642 1.4.335 2.983 2.816 6.121 5.738 6.02.018 0 .035-.01.052-.013-2.62-.358-4.75-3.235-5.056-5.983z" class="cls-26" transform="translate(-1036.863 -526.125)"/>
                            <path id="패스_30638" d="M1041.281 525.951a2.69 2.69 0 0 0-1.825 1.835 2.278 2.278 0 0 0-.058 1.085s2.963 2.645 9.9 3.325c.002.004-.071-8.583-8.017-6.245z" class="cls-27" transform="translate(-1038.474 -525.547)"/>
                        </g>
                        <path id="패스_30639" d="M1044.136 525.371c-.672 0-3.464 1.327-3.23 2.731s3.433 6.476 3.894 9.238-2.147 10.944-2.157 12.817 1.248 2.224 5.306 2.108 8.045-5.266 8.69-8.351-5.959-13.343-5.959-13.343c-1.558-5.471-5.873-5.2-6.544-5.2z" class="cls-27" transform="translate(-1039.465 -525.369)"/>
                    </g>
                    <path id="패스_30640" d="M1036.7 757.8a1.069 1.069 0 0 0-.933.275s-.721.981-.284 1.48a4.619 4.619 0 0 0 1.342.895l-.033-2.632z" class="cls-21" transform="translate(-1013.702 -675.48)"/>
                    <path id="패스_30641" d="M1058.263 747.43a1.069 1.069 0 0 0-.933.275s-.721.982-.284 1.48a4.62 4.62 0 0 0 1.341.895l-.033-2.632z" class="cls-21" transform="translate(-1027.631 -668.78)"/>
                </g>
            </g>
            <g id="그룹_40677" transform="translate(0 65.132)">
                <g id="그룹_40669" transform="translate(17.074 14.534)">
                    <g id="그룹_40668" transform="translate(0 5.841)">
                        <path id="패스_30642" d="M887.546 646.289c-.742-.476-1.146.336-1.641.828-.754.75-.2 1.851.906 2.959s2.434 1.1 3.187.354.224-1.8-.878-2.9a12.223 12.223 0 0 0-1.574-1.241z" class="cls-15" transform="translate(-885.559 -646.143)"/>
                        <path id="패스_30643" d="M890.708 646.234l-.683-.095 1.354 2.008 1.522.473-.846-1.476a1.844 1.844 0 0 0-1.347-.91z" class="cls-15" transform="translate(-888.444 -646.139)"/>
                    </g>
                    <path id="패스_30644" fill="url(#linear-gradient-10)" d="M911.155 629.646a2.409 2.409 0 0 0-2.477 2.341 2.555 2.555 0 0 0 .024.412V632.725l-.006.375c-.007.253-.019.509-.036.765-.033.513-.084 1.027-.153 1.538a19.292 19.292 0 0 1-.631 2.983 9.686 9.686 0 0 1-2.838 4.752c-.083.07-.169.136-.255.2l-.044.034-.025.021c-.019.012-.036.026-.057.039a1.139 1.139 0 0 1-.315.132 2.9 2.9 0 0 1-1.056.035 9 9 0 0 1-2.7-.882 16.188 16.188 0 0 1-2.635-1.621 13.645 13.645 0 0 1-1.172-.987 7.006 7.006 0 0 1-.918-1.036l-.029-.042a1.387 1.387 0 0 0-2.348 1.472 9.515 9.515 0 0 0 1.2 1.621 16.538 16.538 0 0 0 1.332 1.317 19.319 19.319 0 0 0 3 2.185 12.384 12.384 0 0 0 3.651 1.491 6.6 6.6 0 0 0 2.331.094 4.99 4.99 0 0 0 1.3-.384c.108-.048.214-.1.319-.159l.156-.091.077-.046.057-.036c.148-.095.295-.191.437-.294a11.514 11.514 0 0 0 2.836-2.948 16.74 16.74 0 0 0 1.771-3.463 23.685 23.685 0 0 0 1.038-3.61q.189-.911.314-1.834c.042-.308.079-.617.11-.93l.042-.475.017-.245c0-.089.01-.154.013-.28l.008-.293a2.41 2.41 0 0 0-2.338-2.477z" transform="translate(-890.563 -629.645)"/>
                </g>
                <g id="그룹_40671" transform="translate(0 15.518)">
                    <path id="패스_30645" fill="#ffd41d" d="M837.346 636.6l13.9 11.778 11.663-4.182-13.9-11.778z" transform="translate(-837.346 -632.423)"/>
                    <g id="그룹_40670" transform="translate(3.943 1.776)">
                        <path id="패스_30646" d="M862.911 644.012a7.436 7.436 0 0 0-4.426-.783c-1.446.215-2.431.911-2.585 1.825s.548 1.908 1.84 2.608a7.438 7.438 0 0 0 4.426.782 5.082 5.082 0 0 0 .914-.219l-2.754-2.388 3.582-1.126a4.945 4.945 0 0 0-.997-.699z" class="cls-13" transform="translate(-853.259 -641.134)"/>
                        <path id="패스_30647" d="M848.48 639.324l.618.524 5.26-1.886-.618-.523z" class="cls-13" transform="translate(-848.48 -637.439)"/>
                        <path id="패스_30648" d="M864.615 657.792l.618.523 9.833-3.526-.618-.523z" class="cls-13" transform="translate(-858.901 -648.307)"/>
                        <path id="패스_30649" d="M867.406 660.157l.618.524 9.833-3.526-.618-.523z" class="cls-13" transform="translate(-860.704 -649.835)"/>
                        <path id="패스_30650" d="M870.2 662.522l.618.523 9.833-3.526-.618-.523z" class="cls-13" transform="translate(-862.507 -651.362)"/>
                        <path id="패스_30651" d="M872.989 664.887l.618.523 9.833-3.526-.618-.523z" class="cls-13" transform="translate(-864.31 -652.89)"/>
                    </g>
                </g>
                <ellipse id="타원_998" cx="13.387" cy="7.729" class="cls-17" rx="13.387" ry="7.729" transform="translate(17.754 79.301)"/>
                <circle id="타원_999" cx="5.347" cy="5.347" r="5.347" class="cls-18" transform="rotate(-50.57 62.042 -1.257)"/>
                <g id="그룹_40672" transform="translate(30.77 80.89)">
                    <path id="패스_30652" d="M924.416 820.1a2.052 2.052 0 0 0 .675 2.528 42.756 42.756 0 0 0 4.524 3 3.387 3.387 0 0 0 1.514-.36 1.046 1.046 0 0 0 .584-.615 1.093 1.093 0 0 0-.18-.846z" class="cls-19" transform="translate(-924.233 -819.009)"/>
                    <path id="패스_30653" d="M929.75 825.5a42.853 42.853 0 0 1-4.524-3 2.046 2.046 0 0 1-.732-2.355l-.078-.039a2.052 2.052 0 0 0 .675 2.528 42.756 42.756 0 0 0 4.524 3 2.012 2.012 0 0 0 1.5-.26 1.436 1.436 0 0 0 .38-.36 1.2 1.2 0 0 1-.263.2c-.547.204-1.056.456-1.482.286z" class="cls-20" transform="translate(-924.233 -819.009)"/>
                    <path id="패스_30654" d="M931.089 819.748l-2.17-1.55s-2.879-1.337-3.305-1.162a1.413 1.413 0 0 0-.865 1.032 1.909 1.909 0 0 0 .725 1.479c.521.39 1.485 1.022 2.923 1.926 2.4 1.511 3.468.349 3.468.349l-.175-1.336z" class="cls-21" transform="translate(-924.564 -817.02)"/>
                    <path id="패스_30655" d="M925.63 817.035a1.433 1.433 0 0 0-.859.994c.221.484 1.062 1.337 4.22 2.526l1.25-.334-1.392-2.063c-.48-.219-2.836-1.279-3.219-1.123z" class="cls-22" transform="translate(-924.581 -817.02)"/>
                    <path id="패스_30656" d="M933.4 819.488s-.8.9-.417 1.437a4.59 4.59 0 0 0 1.245 1.008l.208-2.606-.61-.174z" class="cls-21" transform="translate(-929.816 -818.398)"/>
                </g>
                <path id="패스_30657" d="M942.5 768.105l.012-.091-.015-.365z" class="cls-36" transform="translate(-905.258 -704.243)"/>
                <path id="패스_30658" d="M932.209 706.857a3.608 3.608 0 0 0-4.058 3.095 3.759 3.759 0 0 0-.031.385l-.486 18.06-.01.368.013.087 2.943 20.3a1.585 1.585 0 0 0 3.153-.292l-.833-20.13-.012.091v-.455l.015.365 2.4-17.814a3.609 3.609 0 0 0-3.094-4.06z" class="cls-36" transform="translate(-895.654 -664.959)"/>
                <g id="그룹_40673" transform="translate(21.458 84.252)">
                    <path id="패스_30659" d="M898.121 829.594a2.053 2.053 0 0 0 .675 2.529 42.843 42.843 0 0 0 4.524 3 3.386 3.386 0 0 0 1.514-.36 1.045 1.045 0 0 0 .584-.615 1.093 1.093 0 0 0-.18-.846z" class="cls-19" transform="translate(-897.938 -828.503)"/>
                    <path id="패스_30660" d="M903.454 834.991a42.808 42.808 0 0 1-4.524-3 2.047 2.047 0 0 1-.732-2.355l-.078-.039a2.053 2.053 0 0 0 .675 2.529 42.843 42.843 0 0 0 4.524 3 2.013 2.013 0 0 0 1.5-.26 1.443 1.443 0 0 0 .38-.36 1.228 1.228 0 0 1-.263.2c-.546.206-1.055.458-1.482.285z" class="cls-20" transform="translate(-897.938 -828.503)"/>
                    <path id="패스_30661" d="M904.794 829.242l-2.17-1.55s-2.879-1.337-3.306-1.162a1.414 1.414 0 0 0-.864 1.032 1.909 1.909 0 0 0 .724 1.479c.521.391 1.485 1.022 2.923 1.926 2.4 1.511 3.468.349 3.468.349l-.174-1.337z" class="cls-21" transform="translate(-898.269 -826.514)"/>
                    <path id="패스_30662" d="M899.334 826.529a1.435 1.435 0 0 0-.859.994c.221.484 1.063 1.337 4.221 2.526l1.249-.334-1.392-2.063c-.479-.219-2.836-1.279-3.219-1.123z" class="cls-22" transform="translate(-898.285 -826.514)"/>
                    <path id="패스_30663" d="M907.1 828.982s-.8.9-.417 1.437a4.588 4.588 0 0 0 1.245 1.008l.208-2.606-.61-.174z" class="cls-21" transform="translate(-903.521 -827.892)"/>
                </g>
                <path id="패스_30664" d="M911.493 715.2a3.491 3.491 0 0 0-3.954 2.958c-.017.114-.027.233-.032.346l-.806 18.583-.011.233.989 20.616a1.534 1.534 0 0 0 3.065.006l1.067-20.612-.011.233 2.651-18.411a3.491 3.491 0 0 0-2.958-3.952z" class="cls-36" transform="translate(-882.134 -670.345)"/>
                <path id="패스_30665" d="M918.875 633.405l-1.52-3.338-8.1 1.895-5.783 3.689 1.762 6.305.186 3.025-.3 14.334.043.852.077 4.141a1.323 1.323 0 0 0 1.528 1.28c7.077-1.117 10.915-4.535 12.242-5.958a2.115 2.115 0 0 0 .567-1.366l.224-6.165a18.3 18.3 0 0 1 .385-3.522 58.832 58.832 0 0 0-.36-11.823 11.556 11.556 0 0 0-.951-3.349z" class="cls-37" transform="translate(-880.053 -615.383)"/>
                <path id="패스_30666" fill="url(#linear-gradient)" d="M909.253 631.962l-5.783 3.689.764 6.958.83 3.094.053 13.613.043.852.077 4.132a1.321 1.321 0 0 0 1.526 1.282c.508-.08.948-.158 1.137-.2l1.024-6.011.3-14.334-.186-3.026-1.762-6.305 2.594-.394a14.465 14.465 0 0 0 7.984-4l.808-.8-1.308-.449z" transform="translate(-880.053 -615.383)" style="mix-blend-mode:multiply;isolation:isolate" opacity="0.25"/>
                <path id="패스_30667" d="M922.673 620.507l.032 4.779a8.475 8.475 0 0 0 5.036-1.783l-.823-4.2z" class="cls-15" transform="translate(-892.456 -608.433)"/>
                <path id="패스_30668" d="M922.64 622.36a5.883 5.883 0 0 0 4.213-3.156l-4.251 1.415z" class="cls-17" transform="translate(-892.409 -608.367)"/>
                <g id="그룹_40674" transform="translate(24.809)">
                    <path id="패스_30669" d="M913.109 591.579c-2.523-.344-3.461 2.186-3.385 5.52.011.478-.341 1.006-.272 1.509 1.056 2.788 4.216 5.2 7 4.38 1.958-.9 3.323-3.964 3.373-7.184-1.025-3.51-3.925-5.042-6.716-4.225z" class="cls-15" transform="translate(-908.719 -590.386)"/>
                    <path id="패스_30670" d="M910.165 598.8c-.069-.5.283-1.032.272-1.51-.06-2.651.522-4.792 2.031-5.385-2.042.141-2.813 2.509-2.744 5.543.011.478-.341 1.006-.272 1.509 1.056 2.788 4.216 5.2 7 4.38.016-.007.031-.018.047-.025-2.604.3-5.362-1.944-6.334-4.512z" class="cls-26" transform="translate(-908.719 -590.736)"/>
                    <path id="패스_30671" d="M907.648 590.3a2.8 2.8 0 0 0 .03 2.363s3.992 2.414 10.831 1.362c0-.005-3.141-9.091-10.861-3.725z" class="cls-27" transform="translate(-907.401 -588.603)"/>
                    <path id="패스_30672" d="M919.539 591.407l-1.437 4.137.542 2.677s1.161-.1 1.419.775a2.848 2.848 0 0 1-.223 1.829l3.04 1.624c1.5-1.276 2.5-3.9 2.541-6.644-.927-3.159-3.371-4.715-5.882-4.398z" class="cls-27" transform="translate(-914.312 -590.388)"/>
                </g>
                <path id="패스_30673" d="M922.756 631.177v.414a6.9 6.9 0 0 0 5.135-1.565l-.244-.959s-1.114 2.12-4.891 2.11z" class="cls-37" transform="translate(-892.51 -614.737)"/>
                <g id="그룹_40676" transform="translate(4.7 19.05)">
                    <g id="그룹_40675" transform="translate(0 5.841)">
                        <path id="패스_30674" d="M852.6 659.041c-.741-.477-1.146.336-1.641.828-.754.75-.2 1.851.906 2.959s2.434 1.1 3.187.354.224-1.8-.878-2.9a12.251 12.251 0 0 0-1.574-1.241z" class="cls-15" transform="translate(-850.618 -658.894)"/>
                        <path id="패스_30675" d="M855.767 658.985l-.683-.1 1.354 2.009 1.522.473-.846-1.476a1.845 1.845 0 0 0-1.347-.906z" class="cls-15" transform="translate(-853.502 -658.89)"/>
                    </g>
                    <path id="패스_30676" fill="url(#linear-gradient-14)" d="M876.213 642.4a2.41 2.41 0 0 0-2.477 2.341 2.57 2.57 0 0 0 .024.413V645.48l-.006.374c-.007.253-.019.509-.036.765-.033.513-.084 1.028-.153 1.538a19.3 19.3 0 0 1-.631 2.983 9.687 9.687 0 0 1-2.838 4.752c-.083.07-.169.135-.255.2l-.044.033-.025.022c-.019.012-.036.026-.057.039a1.145 1.145 0 0 1-.315.132 2.907 2.907 0 0 1-1.056.035 9.011 9.011 0 0 1-2.7-.882 16.158 16.158 0 0 1-2.635-1.621 13.7 13.7 0 0 1-1.171-.987 6.987 6.987 0 0 1-.918-1.036l-.029-.042a1.386 1.386 0 0 0-2.347 1.472 9.5 9.5 0 0 0 1.2 1.621 16.674 16.674 0 0 0 1.332 1.317 19.334 19.334 0 0 0 3 2.184 12.379 12.379 0 0 0 3.652 1.491 6.585 6.585 0 0 0 2.33.093 4.972 4.972 0 0 0 1.3-.383c.108-.048.214-.1.319-.16l.155-.091.077-.046.057-.036c.148-.095.295-.191.437-.294a11.524 11.524 0 0 0 2.838-2.953 16.73 16.73 0 0 0 1.77-3.463 23.669 23.669 0 0 0 1.038-3.61c.125-.608.23-1.218.314-1.834.042-.308.079-.617.11-.93l.042-.475.017-.245c.005-.089.01-.154.014-.28l.008-.293a2.41 2.41 0 0 0-2.341-2.47z" transform="translate(-855.622 -642.396)"/>
                </g>
            </g>
            <g id="그룹_40685" transform="translate(87.662 61.164)">
                <g id="그룹_40679" transform="translate(16.413 15.16)">
                    <g id="그룹_40678" transform="translate(0 31.642)">
                        <path id="패스_30677" d="M1134.713 709.646c-1.015-.385-1.765.549-2.331 2.04a12.494 12.494 0 0 0-.487 1.986c-.131.89.8.924 1.461 1.177 1.015.385 1.8-.6 2.37-2.089s.001-2.73-1.013-3.114z" class="cls-15" transform="translate(-1131.652 -709.559)"/>
                        <path id="패스_30678" d="M1131.589 713.314a1.884 1.884 0 0 0-.279 1.636l.2.676 1.3-2.105-.2-1.615z" class="cls-15" transform="translate(-1131.232 -711.075)"/>
                    </g>
                    <path id="패스_30679" fill="#2e75bc" d="M1139.164 626.12q-.106-.958-.23-1.916l-.131-.961c-.047-.327-.091-.632-.15-.987v-.014q-.014-.08-.033-.16a2.441 2.441 0 0 0-4.749 1.135c.063.261.13.573.192.865l.185.895q.18.9.343 1.805.327 1.811.586 3.638c.342 2.434.608 4.879.745 7.323.071 1.222.114 2.445.114 3.663s-.027 2.435-.115 3.641a30.065 30.065 0 0 1-1.238 7.034l-.01.032a1.414 1.414 0 0 0 2.666.94 33.069 33.069 0 0 0 1.9-7.658c.183-1.291.3-2.582.387-3.872s.131-2.58.143-3.867c.031-2.576-.073-5.142-.256-7.7q-.137-1.922-.349-3.836z" transform="translate(-1132.892 -620.206)"/>
                </g>
                <ellipse id="타원_1000" cx="13.65" cy="7.881" class="cls-17" rx="13.65" ry="7.881" transform="translate(0 81.046)"/>
                <circle id="타원_1001" cx="5.452" cy="5.452" r="5.452" class="cls-18" transform="rotate(-17.827 144.663 .529)"/>
                <g id="그룹_40680" transform="translate(12.886 82.551)">
                    <path id="패스_30680" d="M1121.46 813.647a2.093 2.093 0 0 0 .689 2.578 43.643 43.643 0 0 0 4.613 3.062 3.452 3.452 0 0 0 1.544-.367 1.065 1.065 0 0 0 .6-.627 1.115 1.115 0 0 0-.184-.862z" class="cls-19" transform="translate(-1121.274 -812.535)"/>
                    <path id="패스_30681" d="M1126.9 819.15a43.617 43.617 0 0 1-4.613-3.062 2.086 2.086 0 0 1-.746-2.4l-.079-.04a2.093 2.093 0 0 0 .689 2.578 43.643 43.643 0 0 0 4.613 3.062 2.052 2.052 0 0 0 1.533-.265 1.476 1.476 0 0 0 .388-.368 1.223 1.223 0 0 1-.269.207c-.565.208-1.083.465-1.516.288z" class="cls-20" transform="translate(-1121.274 -812.535)"/>
                    <path id="패스_30682" d="M1128.264 813.288l-2.212-1.58s-2.936-1.363-3.37-1.185a1.442 1.442 0 0 0-.882 1.052 1.947 1.947 0 0 0 .739 1.508c.531.4 1.514 1.042 2.98 1.964 2.45 1.541 3.536.356 3.536.356l-.178-1.363z" class="cls-21" transform="translate(-1121.611 -810.506)"/>
                    <path id="패스_30683" d="M1122.7 810.522a1.464 1.464 0 0 0-.876 1.014c.226.493 1.083 1.363 4.3 2.575l1.274-.341-1.419-2.1c-.489-.227-2.892-1.307-3.279-1.148z" class="cls-22" transform="translate(-1121.627 -810.506)"/>
                    <path id="패스_30684" d="M1130.618 813.024s-.818.923-.425 1.466a4.674 4.674 0 0 0 1.269 1.027l.212-2.657-.623-.178z" class="cls-21" transform="translate(-1126.966 -811.911)"/>
                </g>
                <path id="패스_30685" d="M1139.722 759.942l.012-.093-.015-.372z" class="cls-41" transform="translate(-1120.301 -694.997)"/>
                <path id="패스_30686" d="M1129.232 697.49a3.68 3.68 0 0 0-4.138 3.156 3.828 3.828 0 0 0-.032.392l-.5 18.415-.01.375.013.089 3 20.694a1.617 1.617 0 0 0 3.215-.3l-.844-20.521-.012.093v-.465l.015.372 2.446-18.164a3.68 3.68 0 0 0-3.153-4.136z" class="cls-41" transform="translate(-1110.508 -654.94)"/>
                <g id="그룹_40681" transform="translate(3.655 86.484)">
                    <path id="패스_30687" d="M1095.393 824.754a2.092 2.092 0 0 0 .689 2.578 43.624 43.624 0 0 0 4.612 3.062 3.457 3.457 0 0 0 1.544-.367 1.065 1.065 0 0 0 .6-.627 1.115 1.115 0 0 0-.183-.863z" class="cls-19" transform="translate(-1095.207 -823.642)"/>
                    <path id="패스_30688" d="M1100.831 830.257a43.577 43.577 0 0 1-4.613-3.062 2.085 2.085 0 0 1-.746-2.4l-.079-.04a2.092 2.092 0 0 0 .689 2.578 43.624 43.624 0 0 0 4.612 3.062 2.052 2.052 0 0 0 1.533-.265 1.479 1.479 0 0 0 .388-.367 1.254 1.254 0 0 1-.268.207c-.563.207-1.081.464-1.516.287z" class="cls-20" transform="translate(-1095.207 -823.642)"/>
                    <path id="패스_30689" d="M1102.2 824.394l-2.213-1.58s-2.936-1.363-3.37-1.185a1.442 1.442 0 0 0-.882 1.052 1.948 1.948 0 0 0 .739 1.508c.531.4 1.514 1.042 2.98 1.964 2.45 1.541 3.536.355 3.536.355l-.178-1.363z" class="cls-21" transform="translate(-1095.544 -821.613)"/>
                    <path id="패스_30690" d="M1096.63 821.629a1.463 1.463 0 0 0-.876 1.014c.225.493 1.084 1.363 4.3 2.575l1.274-.341-1.419-2.1c-.486-.227-2.889-1.308-3.279-1.148z" class="cls-22" transform="translate(-1095.56 -821.613)"/>
                    <path id="패스_30691" d="M1104.552 824.13s-.818.922-.425 1.465a4.678 4.678 0 0 0 1.269 1.027l.212-2.657-.622-.178z" class="cls-21" transform="translate(-1100.899 -823.018)"/>
                </g>
                <path id="패스_30692" d="M1109.371 707.013a3.561 3.561 0 0 0-4.031 3.017c-.016.117-.028.238-.033.353l-.821 18.948-.011.238 1.009 21.021a1.565 1.565 0 0 0 3.125.006l1.088-21.017-.011.238 2.7-18.772a3.56 3.56 0 0 0-3.015-4.032z" class="cls-41" transform="translate(-1097.537 -661.088)"/>
                <path id="패스_30693" d="M1116.9 623.61l-1.55-3.4-8.261 1.932-5.9 3.761 1.8 6.429.189 3.085-.306 14.615.044.869.078 4.222a1.349 1.349 0 0 0 1.558 1.305c7.216-1.138 11.13-4.624 12.483-6.075a2.156 2.156 0 0 0 .578-1.393l.229-6.286a18.663 18.663 0 0 1 .393-3.591 59.994 59.994 0 0 0-.367-12.055 11.773 11.773 0 0 0-.968-3.418z" class="cls-42" transform="translate(-1095.416 -605.046)"/>
                <path id="패스_30694" d="M1107.087 622.138l-5.9 3.761.779 7.095.847 3.155.055 13.88.044.869.078 4.213a1.347 1.347 0 0 0 1.555 1.307c.518-.081.967-.161 1.16-.2l1.044-6.129.306-14.615-.189-3.085-1.8-6.429 2.645-.4a14.754 14.754 0 0 0 8.141-4.081l.824-.813-1.334-.458z" class="cls-25" transform="translate(-1095.416 -605.046)"/>
                <path id="패스_30695" d="M1120.771 610.458l.032 4.873a8.639 8.639 0 0 0 5.135-1.818l-.839-4.28z" class="cls-15" transform="translate(-1108.063 -597.96)"/>
                <path id="패스_30696" d="M1120.736 612.348a6 6 0 0 0 4.3-3.218l-4.335 1.443z" class="cls-17" transform="translate(-1108.015 -597.893)"/>
                <g id="그룹_40682" transform="translate(8.184)">
                    <path id="패스_30697" d="M1113.613 580.529c-2.366-1.069-4.018 1.131-4.912 4.411-.129.47-.626.884-.7 1.4.222 3.031 2.61 6.3 5.571 6.315 2.174-.308 4.4-2.908 5.385-6.041.009-3.734-2.383-6.074-5.344-6.085z" class="cls-15" transform="translate(-1107.996 -579.244)"/>
                    <path id="패스_30698" d="M1108.739 586.391c.079-.512.577-.926.7-1.4.711-2.609 1.9-4.532 3.55-4.673-2.037-.455-3.478 1.635-4.293 4.62-.129.47-.626.884-.7 1.4.222 3.031 2.61 6.3 5.571 6.315.018 0 .036-.008.054-.011-2.635-.464-4.678-3.459-4.882-6.251z" class="cls-26" transform="translate(-1107.996 -579.246)"/>
                    <path id="패스_30699" d="M1110.747 577.967a2.86 2.86 0 0 0-.657 2.318s3.2 3.52 10.19 4.478c0 .001-.43-9.792-9.533-6.796z" class="cls-27" transform="translate(-1109.324 -577.398)"/>
                    <path id="패스_30700" d="M1121.1 581.233l-2.606 3.626-.248 2.774s1.165.238 1.161 1.17a2.905 2.905 0 0 1-.75 1.723l2.5 2.47c1.839-.81 3.575-3.089 4.414-5.755.017-3.357-1.92-5.587-4.471-6.008z" class="cls-27" transform="translate(-1114.619 -579.875)"/>
                </g>
                <path id="패스_30701" d="M1120.854 621.338v.421a7.034 7.034 0 0 0 5.237-1.6l-.249-.978s-1.137 2.168-4.988 2.157z" class="cls-42" transform="translate(-1108.117 -604.388)"/>
                <g id="그룹_40684" transform="translate(4.536 19.622)">
                    <g id="그룹_40683" transform="translate(0 31.642)">
                        <path id="패스_30702" d="M1101.176 722.245c-1.015-.385-1.765.549-2.331 2.04a12.48 12.48 0 0 0-.487 1.986c-.131.89.8.924 1.461 1.177 1.015.385 1.8-.6 2.371-2.089s.001-2.73-1.014-3.114z" class="cls-15" transform="translate(-1098.116 -722.158)"/>
                        <path id="패스_30703" d="M1098.052 725.913a1.883 1.883 0 0 0-.279 1.636l.2.676 1.3-2.105-.2-1.614z" class="cls-15" transform="translate(-1097.696 -723.674)"/>
                    </g>
                    <path id="패스_30704" d="M1105.628 638.719q-.106-.958-.23-1.916l-.131-.961c-.047-.327-.092-.633-.15-.987v-.014q-.014-.08-.033-.16a2.441 2.441 0 0 0-4.749 1.135c.062.261.13.573.192.864l.185.895q.18.9.343 1.805.327 1.811.586 3.638c.342 2.434.608 4.879.745 7.323.071 1.222.114 2.445.114 3.663s-.027 2.435-.115 3.641a30.065 30.065 0 0 1-1.238 7.034l-.01.032a1.414 1.414 0 0 0 2.665.94 33.044 33.044 0 0 0 1.905-7.658c.183-1.29.3-2.582.387-3.872s.131-2.58.143-3.867c.031-2.576-.073-5.142-.256-7.7q-.14-1.921-.353-3.835z" class="cls-42" transform="translate(-1099.356 -632.805)"/>
                </g>
            </g>
            <g id="그룹_40692" transform="translate(53.286 68.98)">
                <g id="그룹_40687" transform="translate(16.651)">
                    <g id="그룹_40686" transform="translate(2.985)">
                        <path id="패스_30705" d="M1045.483 599.5c-.585.135-1.363.057-1.356.816a10.543 10.543 0 0 0 .179 1.715c.3 1.311.821 2.177 1.713 1.973a1.906 1.906 0 0 0 1.2-2.485c-.297-1.319-.844-2.227-1.736-2.019z" class="cls-15" transform="translate(-1043.821 -599.469)"/>
                        <path id="패스_30706" d="M1043.4 601.372a1.588 1.588 0 0 0 .045 1.4l.687 1.294.354-1.326-.842-1.908z" class="cls-15" transform="translate(-1043.263 -600.348)"/>
                    </g>
                    <path id="패스_30707" fill="#7fbfd3" d="M1039.862 607.543a1.193 1.193 0 0 0-.895 1.356v.028a25.35 25.35 0 0 1 .226 6.02c-.065 1.017-.18 2.037-.323 3.055s-.316 2.034-.516 3.047c-.4 2.026-.9 4.039-1.464 6.033q-.427 1.5-.908 2.973-.24.738-.494 1.469l-.257.726c-.085.236-.178.489-.26.7a2.059 2.059 0 0 0 3.837 1.494c.017-.044.032-.087.046-.13v-.012c.09-.289.162-.54.239-.807l.22-.788q.214-.787.413-1.574.4-1.576.735-3.162c.447-2.117.828-4.249 1.1-6.4.137-1.077.25-2.159.325-3.247s.126-2.18.121-3.28a27.868 27.868 0 0 0-.711-6.617 1.192 1.192 0 0 0-1.434-.884z" transform="translate(-1034.834 -604.662)"/>
                </g>
                <ellipse id="타원_1002" cx="13.479" cy="7.782" class="cls-17" rx="13.479" ry="7.782" transform="translate(0 88.616)"/>
                <path id="패스_30708" d="M1023.754 858.406a2.066 2.066 0 0 0 .68 2.546 43.123 43.123 0 0 0 4.555 3.024 3.413 3.413 0 0 0 1.525-.363 1.052 1.052 0 0 0 .588-.619 1.1 1.1 0 0 0-.181-.852z" class="cls-19" transform="translate(-1010.908 -766.708)"/>
                <path id="패스_30709" d="M1029.124 863.84a43.123 43.123 0 0 1-4.555-3.024 2.06 2.06 0 0 1-.737-2.371l-.078-.04a2.066 2.066 0 0 0 .68 2.546 43.123 43.123 0 0 0 4.555 3.024 2.027 2.027 0 0 0 1.514-.261 1.452 1.452 0 0 0 .383-.363 1.23 1.23 0 0 1-.265.2c-.556.21-1.068.464-1.497.289z" class="cls-20" transform="translate(-1010.908 -766.708)"/>
                <path id="패스_30710" d="M1030.473 858.051l-2.185-1.561s-2.9-1.346-3.328-1.17a1.424 1.424 0 0 0-.87 1.039 1.921 1.921 0 0 0 .729 1.489c.525.393 1.495 1.029 2.943 1.94 2.419 1.521 3.492.351 3.492.351l-.176-1.346z" class="cls-21" transform="translate(-1011.241 -764.705)"/>
                <path id="패스_30711" d="M1024.975 855.32a1.444 1.444 0 0 0-.865 1c.223.487 1.07 1.346 4.25 2.543l1.258-.337-1.4-2.077c-.485-.219-2.858-1.286-3.243-1.129z" class="cls-22" transform="translate(-1011.257 -764.705)"/>
                <path id="패스_30712" d="M1009.672 687.08l-3.142-.307.862 2.56s-1.6 3.257-.907 4.339 1.948 2.764 1.948 2.764a20.308 20.308 0 0 1-.124 4.808c-.4 1.766-1.7 7-1.7 7l1.705 1.112 5.612-11.471-2.216-10.614z" class="cls-42" transform="translate(-999.76 -655.856)"/>
                <path id="패스_30713" d="M1002.188 868.78a2.067 2.067 0 0 0 .68 2.546 43.106 43.106 0 0 0 4.555 3.024 3.419 3.419 0 0 0 1.524-.363 1.054 1.054 0 0 0 .588-.62 1.1 1.1 0 0 0-.181-.852z" class="cls-19" transform="translate(-996.979 -773.409)"/>
                <path id="패스_30714" d="M1007.558 874.214a43.11 43.11 0 0 1-4.555-3.024 2.061 2.061 0 0 1-.737-2.371l-.078-.039a2.067 2.067 0 0 0 .68 2.546 43.106 43.106 0 0 0 4.555 3.024 2.026 2.026 0 0 0 1.514-.261 1.465 1.465 0 0 0 .383-.363 1.218 1.218 0 0 1-.265.2c-.555.209-1.068.462-1.497.288z" class="cls-20" transform="translate(-996.979 -773.409)"/>
                <path id="패스_30715" d="M1008.907 868.425l-2.185-1.561s-2.9-1.346-3.329-1.17a1.424 1.424 0 0 0-.87 1.039 1.921 1.921 0 0 0 .729 1.489c.524.393 1.495 1.029 2.943 1.94 2.419 1.522 3.492.351 3.492.351l-.176-1.346z" class="cls-21" transform="translate(-997.312 -771.405)"/>
                <path id="패스_30716" d="M1003.41 865.694a1.444 1.444 0 0 0-.865 1c.222.487 1.07 1.346 4.249 2.543l1.258-.336-1.4-2.077c-.484-.224-2.852-1.287-3.242-1.13z" class="cls-22" transform="translate(-997.329 -771.405)"/>
                <path id="패스_30717" d="M1035.169 747.646a3.3 3.3 0 0 0-3.521 3.054c-.007.1-.009.2-.008.3l.362 19.162c.008 1.6.123 3.193.192 4.79l.236 4.789.473 9.574a1.449 1.449 0 0 0 2.893.008l.524-9.546.262-4.771c.092-1.59.161-3.18.286-4.769l1.354-19.065a3.3 3.3 0 0 0-3.053-3.526z" class="cls-15" transform="translate(-1016.12 -695.166)"/>
                <path id="패스_30718" d="M1012.941 752.728a3.3 3.3 0 0 0-3.539 3.032q-.011.138-.01.274v.007l.081 9.954.041 4.972.021 2.485.01 1.242c0 .207 0 .414.011.621l.045.621 1.46 19.844a1.448 1.448 0 0 0 2.893-.068l.532-19.755.017-.617c.006-.205.029-.411.043-.616l.1-1.232.19-2.463.381-4.924.76-9.839a3.3 3.3 0 0 0-3.036-3.538z" class="cls-15" transform="translate(-1001.751 -698.448)"/>
                <path id="패스_30719" d="M1022.816 693.427l1.123-8.4c1.189-3.057-.125-3.616-.232-5.01l-.93-4.526-9.461 4.3.078.232a.752.752 0 0 1-.056.6 7.229 7.229 0 0 0-.711 2.577c-.321 2.721.625 1.842.6 4.937-.007 1.014.039 4.583.051 5.734l-1.315 6.889a1.764 1.764 0 0 0 .944 1.753c1.419.8 5.15.494 10.1-1.779a14.019 14.019 0 0 0 1.245-1.1 1.036 1.036 0 0 0 .464-.823l.11-.447-.148-.544c-.211-.513-1.862-4.393-1.862-4.393z" class="cls-44" transform="translate(-1003.404 -648.57)"/>
                <path id="패스_30720" d="M1007.148 742.119s1.408 2.39 1.341 7.367c-.018 1.355-.2 2.926-.29 4.735-.572 10.867 13.747.487 13.747.487s1.9-12.431-.579-15.479c-.687 3.99-10.899 4.757-14.219 2.89z" class="cls-45" transform="translate(-1000.302 -689.735)"/>
                <path id="패스_30721" d="M1011.97 748.338c-1.5.033-4.828-.25-5.773-.947 0 0-.179 2.4-.493 6.828-.1 1.351.091 3.4 0 5.208-.257 4.874 4.031 5.539 7.13 4.718l-.859-14.887z" class="cls-46" transform="translate(-999.35 -695.007)"/>
                <path id="패스_30722" fill="#82c4d8" d="M1009.939 676.592l2.615 1.8 9.468-4.5-2.214-1.413z" transform="translate(-1002.104 -646.627)"/>
                <g id="그룹_40689" transform="translate(8.481 12.8)">
                    <path id="패스_30723" d="M1021.134 672.575a7.1 7.1 0 0 0 4.787-.961l.145-4.657-4.345.929z" class="cls-15" transform="translate(-1017.816 -655.858)"/>
                    <path id="패스_30724" d="M1022.475 669.747a5.922 5.922 0 0 0 4.439-2.9L1022.55 668z" class="cls-17" transform="translate(-1018.682 -655.789)"/>
                    <g id="그룹_40688" transform="translate(0 .063)">
                        <path id="패스_30725" d="M1017.085 636.911c-2.376-.965-3.921 1.27-4.679 4.54-.108.469-.584.9-.642 1.4.335 2.983 2.816 6.121 5.738 6.019 2.134-.387 4.23-3.037 5.083-6.166-.128-3.676-2.577-5.894-5.5-5.793z" class="cls-15" transform="translate(-1011.764 -636.369)"/>
                        <path id="패스_30726" d="M1012.5 642.881c.058-.508.534-.936.642-1.4.6-2.6 1.7-4.545 3.325-4.747-2.027-.371-3.37 1.746-4.06 4.723-.108.469-.584.9-.642 1.4.335 2.983 2.816 6.121 5.738 6.019.017 0 .035-.01.052-.013-2.618-.357-4.748-3.234-5.055-5.982z" class="cls-26" transform="translate(-1011.764 -636.371)"/>
                        <path id="패스_30727" d="M1016.182 636.2a2.691 2.691 0 0 0-1.825 1.835 2.279 2.279 0 0 0-.058 1.086s2.963 2.645 9.9 3.324c.001-.003-.071-8.586-8.017-6.245z" class="cls-27" transform="translate(-1013.375 -635.793)"/>
                    </g>
                    <path id="패스_30728" d="M1025.58 640.818c-1.557-5.472-5.872-5.2-6.543-5.2s-3.464 1.327-3.23 2.731.435 3.372.9 6.134 1.986 1.831 1.976 3.7.727 2.482 4.785 2.366 2.661-2.438 3.305-5.522-1.193-4.209-1.193-4.209z" class="cls-27" transform="translate(-1014.366 -635.615)"/>
                </g>
                <path id="패스_30729" d="M1011.6 868.05a1.069 1.069 0 0 0-.933.275s-.721.982-.284 1.48a4.622 4.622 0 0 0 1.341.895l-.033-2.632z" class="cls-21" transform="translate(-1002.299 -772.925)"/>
                <path id="패스_30730" d="M1033.164 857.677a1.068 1.068 0 0 0-.933.275s-.721.981-.284 1.48a4.621 4.621 0 0 0 1.341.895l-.033-2.632z" class="cls-21" transform="translate(-1016.228 -766.226)"/>
                <g id="그룹_40691" transform="translate(3.638 2.348)">
                    <g id="그룹_40690" transform="translate(.714)">
                        <path id="패스_30731" d="M1001.924 606.128c-.892-.205-1.439.707-1.74 2.018a1.906 1.906 0 0 0 1.2 2.485c.892.205 1.411-.661 1.713-1.973a10.566 10.566 0 0 0 .179-1.715c.011-.758-.767-.68-1.352-.815z" class="cls-15" transform="translate(-1000.106 -606.1)"/>
                        <path id="패스_30732" d="M1007.31 607.46l-.843 1.908.354 1.325.688-1.294a1.59 1.59 0 0 0 .045-1.4z" class="cls-15" transform="translate(-1004.214 -606.978)"/>
                    </g>
                    <path id="패스_30733" d="M1004.867 638.879l-.257-.726q-.254-.73-.494-1.469-.481-1.476-.908-2.973c-.565-1.994-1.069-4.007-1.464-6.033-.2-1.013-.376-2.029-.516-3.047s-.257-2.038-.323-3.055a25.367 25.367 0 0 1 .226-6.02v-.028a1.193 1.193 0 0 0-2.335-.479 27.861 27.861 0 0 0-.711 6.617c0 1.1.044 2.191.121 3.279s.187 2.17.325 3.247c.271 2.156.652 4.287 1.1 6.4q.338 1.588.735 3.162.2.788.412 1.575l.22.788c.077.268.149.518.239.807v.012q.021.065.046.13a2.059 2.059 0 0 0 3.837-1.494c-.076-.204-.168-.457-.253-.693z" class="cls-44" transform="translate(-998.088 -611.292)"/>
                </g>
            </g>
            <g id="그룹_40694" transform="translate(103.774 3.951)">
                <g id="그룹_40693" transform="translate(.88)">
                    <path id="패스_30734" d="M1135.107 415.874c-1.1-.253-1.772.871-2.143 2.485s.385 2.807 1.483 3.06 1.738-.815 2.11-2.429a13 13 0 0 0 .221-2.112c.008-.934-.95-.838-1.671-1.004z" class="cls-15" transform="translate(-1132.869 -415.839)"/>
                    <path id="패스_30735" d="M1141.74 417.515l-1.037 2.35.436 1.633.846-1.593a1.956 1.956 0 0 0 .056-1.722z" class="cls-15" transform="translate(-1137.929 -416.921)"/>
                </g>
                <path id="패스_30736" d="M1138.732 456.207l-.317-.895q-.312-.9-.608-1.809-.593-1.818-1.118-3.661c-.7-2.455-1.316-4.934-1.8-7.43-.247-1.247-.464-2.5-.636-3.752s-.317-2.509-.4-3.762a31.222 31.222 0 0 1 .278-7.413l.006-.035a1.469 1.469 0 0 0-2.876-.59 34.316 34.316 0 0 0-.876 8.149c-.006 1.353.053 2.7.149 4.039s.231 2.673.4 4c.333 2.655.8 5.28 1.353 7.887q.417 1.955.905 3.895.245.97.508 1.939l.271.971c.095.33.183.638.294.994v.014q.025.081.056.16a2.536 2.536 0 1 0 4.725-1.84c-.095-.259-.209-.568-.314-.861z" class="cls-24" transform="translate(-1130.384 -422.233)"/>
            </g>
        </g>
        <g id="그룹_40702" transform="translate(297.291 238.872)">
            <g id="그룹_40697" transform="translate(10.773 15.017)">
                <g id="그룹_40696" transform="translate(0 26.043)">
                    <path id="패스_30737" d="M872.108 797.535c.773.49 1.592-.189 2.311-1.326a1.906 1.906 0 0 0-.311-2.744c-.773-.49-1.551.155-2.271 1.292a10.545 10.545 0 0 0-.738 1.558c-.258.714.501.898 1.009 1.22z" class="cls-15" transform="translate(-870.997 -793.299)"/>
                    <path id="패스_30738" d="M870.962 797.586l1.428-1.52.107-1.368-1.078.992a1.588 1.588 0 0 0-.507 1.3z" class="cls-15" transform="translate(-870.906 -794.203)"/>
                </g>
                <path id="패스_30739" d="M884.681 721.9c-.011.3-.027.563-.043.841l-.054.817q-.06.813-.134 1.622-.148 1.618-.357 3.227c-.281 2.145-.629 4.283-1.09 6.406-.228 1.061-.481 2.12-.772 3.171s-.605 2.1-.974 3.133a27.861 27.861 0 0 1-2.868 6.006 1.193 1.193 0 0 1-2.044-1.227l.014-.025a25.353 25.353 0 0 0 2.211-5.6c.277-.981.507-1.981.71-2.989s.377-2.023.524-3.045c.3-2.043.493-4.109.622-6.177q.094-1.552.13-3.105.018-.775.022-1.549v-.771c0-.251-.005-.52-.013-.747a2.059 2.059 0 0 1 4.115-.136v.138z" class="cls-48" transform="translate(-874.324 -719.759)"/>
            </g>
            <ellipse id="타원_1003" cx="13.479" cy="7.782" class="cls-17" rx="13.479" ry="7.782" transform="translate(0 75.815)"/>
            <path id="패스_30740" d="M883.59 903.88a1.1 1.1 0 0 1 .181.852 1.053 1.053 0 0 1-.588.619 3.406 3.406 0 0 1-1.524.363 43.041 43.041 0 0 1-4.555-3.024 2.067 2.067 0 0 1-.68-2.545z" class="cls-19" transform="translate(-863.578 -821.248)"/>
            <path id="패스_30741" d="M876.424 900.145l.078.039a2.06 2.06 0 0 0 .737 2.371 43.057 43.057 0 0 0 4.555 3.024c.429.174.941-.079 1.5-.284a1.247 1.247 0 0 0 .265-.2 1.459 1.459 0 0 1-.383.363 2.026 2.026 0 0 1-1.514.261 43.041 43.041 0 0 1-4.555-3.024 2.067 2.067 0 0 1-.683-2.55z" class="cls-20" transform="translate(-863.578 -821.248)"/>
            <path id="패스_30742" d="M883.143 899.789l.6.742.176 1.346s-1.073 1.17-3.492-.351c-1.448-.911-2.418-1.546-2.943-1.94a1.924 1.924 0 0 1-.729-1.489 1.425 1.425 0 0 1 .87-1.039c.429-.175 3.329 1.171 3.329 1.171z" class="cls-21" transform="translate(-863.911 -819.244)"/>
            <path id="패스_30743" d="M876.781 898.06a1.446 1.446 0 0 1 .865-1c.385-.157 2.758.91 3.241 1.131l1.4 2.077-1.258.336c-3.178-1.198-4.029-2.057-4.248-2.544z" class="cls-22" transform="translate(-863.928 -819.244)"/>
            <path id="패스_30744" d="M859.2 728.512l.862 2.559s-1.6 3.257-.908 4.339 1.949 2.765 1.949 2.765a20.328 20.328 0 0 1-.124 4.807c-.4 1.766-1.7 7-1.7 7l1.705 1.112 5.612-11.472-2.215-10.614-2.036-.187z" class="cls-48" transform="translate(-852.43 -710.395)"/>
            <path id="패스_30745" d="M862.024 914.254a1.1 1.1 0 0 1 .181.852 1.052 1.052 0 0 1-.588.619 3.413 3.413 0 0 1-1.524.363 43.089 43.089 0 0 1-4.555-3.024 2.066 2.066 0 0 1-.68-2.545z" class="cls-19" transform="translate(-849.65 -827.948)"/>
            <path id="패스_30746" d="M854.859 910.519l.078.039a2.06 2.06 0 0 0 .737 2.371 43.128 43.128 0 0 0 4.555 3.023c.429.175.942-.079 1.5-.285a1.222 1.222 0 0 0 .265-.2 1.457 1.457 0 0 1-.383.363 2.027 2.027 0 0 1-1.514.261 43.089 43.089 0 0 1-4.555-3.024 2.066 2.066 0 0 1-.683-2.548z" class="cls-20" transform="translate(-849.65 -827.948)"/>
            <path id="패스_30747" d="M861.578 910.163l.6.741.175 1.346s-1.073 1.17-3.492-.351c-1.448-.911-2.418-1.546-2.943-1.94a1.921 1.921 0 0 1-.729-1.488 1.424 1.424 0 0 1 .87-1.039c.429-.175 3.328 1.17 3.328 1.17z" class="cls-21" transform="translate(-849.983 -825.944)"/>
            <path id="패스_30748" d="M855.215 908.434a1.444 1.444 0 0 1 .865-1c.385-.158 2.758.91 3.241 1.13l1.4 2.077-1.258.337c-3.178-1.199-4.025-2.057-4.248-2.544z" class="cls-22" transform="translate(-849.999 -825.944)"/>
            <path id="패스_30749" d="M884.311 792.734l.362 19.162c.008 1.6.122 3.193.192 4.79l.236 4.789.473 9.574a1.449 1.449 0 0 0 2.893.008l.524-9.547.262-4.771c.092-1.59.16-3.18.285-4.769l1.355-19.065a3.3 3.3 0 1 0-6.574-.467c-.007.098-.009.2-.008.296z" class="cls-15" transform="translate(-868.791 -749.706)"/>
            <path id="패스_30750" d="M862.063 797.78l.081 9.954.041 4.973.021 2.485.01 1.242c0 .207 0 .414.011.621l.046.621 1.46 19.844a1.448 1.448 0 0 0 2.892-.068l.531-19.755.017-.617c.007-.205.03-.411.043-.616l.095-1.232.191-2.464.38-4.924.761-9.84a3.3 3.3 0 0 0-6.571-.508c-.007.092-.01.184-.01.274z" class="cls-15" transform="translate(-854.422 -752.987)"/>
            <path id="패스_30751" d="M877.5 740.111l-.148-.543c-.217-.522-1.868-4.4-1.868-4.4l1.123-8.4c-.618-3.14-.125-3.616-.233-5.01l-.93-4.526-9.461 4.3.078.232a.75.75 0 0 1-.056.6 7.225 7.225 0 0 0-.711 2.577c-.322 2.721.625 1.842.6 4.937-.007 1.014.038 4.583.05 5.734l-1.315 6.888a1.765 1.765 0 0 0 .944 1.753c1.419.8 5.15.494 10.1-1.779a14.138 14.138 0 0 0 1.245-1.1 1.036 1.036 0 0 0 .464-.823z" class="cls-31" transform="translate(-856.074 -703.109)"/>
            <path id="패스_30752" d="M859.818 783.857s1.409 2.39 1.341 7.367c-.018 1.355-.2 2.927-.29 4.735-.572 10.866 13.747.487 13.747.487s1.9-12.431-.579-15.479c-.687 3.991-10.899 4.758-14.219 2.89z" class="cls-45" transform="translate(-852.972 -744.274)"/>
            <path id="패스_30753" d="M864.641 791v-.92c-1.5.033-4.828-.25-5.774-.947 0 0-.178 2.4-.493 6.828-.1 1.351.091 3.4 0 5.209-.256 4.874 4.031 5.539 7.13 4.717z" class="cls-46" transform="translate(-852.02 -749.546)"/>
            <path id="패스_30754" d="M865.224 720.132l-2.615-1.8 9.869-4.107 2.214 1.413z" class="cls-48" transform="translate(-854.775 -701.167)"/>
            <g id="그룹_40699" transform="translate(8.481)">
                <path id="패스_30755" d="M878.736 708.7l-.144 4.657a7.1 7.1 0 0 1-4.788.961l.587-4.689z" class="cls-15" transform="translate(-870.486 -697.596)"/>
                <path id="패스_30756" d="M879.584 708.59a5.922 5.922 0 0 1-4.439 2.9l.075-1.752z" class="cls-17" transform="translate(-871.352 -697.528)"/>
                <g id="그룹_40698" transform="translate(0 .063)">
                    <path id="패스_30757" d="M864.435 684.594c.334 2.983 2.816 6.121 5.738 6.019 2.134-.387 4.23-3.037 5.083-6.166-.128-3.681-2.578-5.9-5.5-5.8-2.375-.965-3.921 1.269-4.679 4.54-.109.471-.584.899-.642 1.407z" class="cls-15" transform="translate(-864.435 -678.108)"/>
                    <path id="패스_30758" d="M865.077 683.192c.69-2.977 2.033-5.095 4.06-4.723-1.62.2-2.722 2.146-3.325 4.747-.109.469-.584.9-.642 1.4.308 2.747 2.438 5.625 5.056 5.982-.018 0-.035.01-.052.013-2.923.1-5.4-3.036-5.738-6.019.057-.504.532-.932.641-1.4z" class="cls-26" transform="translate(-864.435 -678.109)"/>
                    <path id="패스_30759" d="M866.97 680.856s2.963 2.645 9.9 3.325c0 0-.068-8.583-8.014-6.245a2.69 2.69 0 0 0-1.825 1.835 2.273 2.273 0 0 0-.061 1.085z" class="cls-27" transform="translate(-866.046 -677.531)"/>
                </g>
                <path id="패스_30760" d="M878.251 682.557s.223.972 1.189 4.212c.9 3.019.752 5.406-3.305 5.522s-6.652 1.057-6.642-.815a10.86 10.86 0 0 0-.164-3.794c-.461-2.762-.617-6.19-.851-7.595s2.558-2.731 3.23-2.731 4.986-.272 6.543 5.201z" class="cls-27" transform="translate(-867.037 -677.354)"/>
            </g>
            <path id="패스_30761" d="M864.269 909.789a1.068 1.068 0 0 0-.933.275s-.721.981-.284 1.48a4.617 4.617 0 0 0 1.341.895l-.033-2.632z" class="cls-21" transform="translate(-854.97 -827.465)"/>
            <path id="패스_30762" d="M885.835 899.415a1.068 1.068 0 0 0-.933.275s-.72.981-.284 1.48a4.621 4.621 0 0 0 1.341.895l-.033-2.632z" class="cls-21" transform="translate(-868.899 -820.765)"/>
            <g id="그룹_40701" transform="translate(.037 16.755)">
                <g id="그룹_40700" transform="translate(0 26.043)">
                    <path id="패스_30763" d="M841.791 802.442c.773.49 1.592-.189 2.312-1.326a1.906 1.906 0 0 0-.311-2.744c-.773-.49-1.551.155-2.271 1.292a10.55 10.55 0 0 0-.738 1.558c-.259.714.501.898 1.008 1.22z" class="cls-15" transform="translate(-840.681 -798.206)"/>
                    <path id="패스_30764" d="M840.646 802.493l1.428-1.52.107-1.368-1.078.992a1.587 1.587 0 0 0-.507 1.3z" class="cls-15" transform="translate(-840.59 -799.11)"/>
                </g>
                <path id="패스_30765" d="M854.365 726.807c-.011.3-.026.563-.043.841l-.054.817q-.059.813-.133 1.622-.149 1.618-.357 3.227c-.281 2.145-.629 4.283-1.09 6.406-.228 1.061-.481 2.119-.772 3.171s-.605 2.1-.975 3.133a27.854 27.854 0 0 1-2.868 6.006 1.193 1.193 0 0 1-2.044-1.227l.014-.025a25.356 25.356 0 0 0 2.211-5.6c.276-.981.507-1.981.71-2.988s.377-2.024.524-3.046c.3-2.043.493-4.109.622-6.177q.094-1.552.13-3.105.018-.776.022-1.549v-.771c0-.251-.005-.52-.013-.747a2.059 2.059 0 0 1 4.116-.136v.138z" class="cls-48" transform="translate(-844.008 -724.666)"/>
            </g>
        </g>
        <g id="그룹_40710" transform="translate(161.403 93.516)">
            <path id="패스_30766" d="M643.791 426.865L552.5 481.783l-47.847-27.363 91.064-55.31z" class="cls-17" transform="translate(-503.485 -358.989)"/>
            <g id="YELLOW_HATCHBACK">
                <path id="패스_1" d="M26.588 140.443l-3.85-3.85v-3.706L27.2 136.4l.6 2.549z" class="cls-49" transform="translate(-.254 -82.556)"/>
                <path id="패스_2" d="M29.491 141.82v-3.46l1.31.274v3.128z" class="cls-50" transform="translate(-3.254 -84.987)"/>
                <path id="패스_4" d="M211.279 162.42l1.389-8.129-7.311 1.021 4.651 6.372z" class="cls-51" transform="translate(-81.382 -92.065)"/>
                <g id="그룹_1" transform="translate(111.878 62.245)">
                    <path id="패스_5" d="M194.893 154.773c-1.2-.7-2.857-.6-4.69.456a14.618 14.618 0 0 0-6.613 11.456c0 2.112.742 3.593 1.941 4.284l3.527 2.038c1.2.7 2.861.611 4.7-.451a14.617 14.617 0 0 0 6.612-11.456c0-2.117-.746-3.6-1.951-4.29z" class="cls-52" transform="translate(-183.59 -154.326)"/>
                    <path id="패스_6" d="M203.211 162.739a14.62 14.62 0 0 1-6.613 11.456c-3.652 2.109-6.613.4-6.613-3.819a14.62 14.62 0 0 1 6.615-11.456c3.649-2.109 6.611-.4 6.611 3.819z" class="cls-50" transform="translate(-186.431 -155.965)"/>
                    <path id="패스_7" d="M198.949 165.35a8.118 8.118 0 0 0-3.675 6.364c0 2.344 1.645 3.292 3.675 2.121a8.125 8.125 0 0 0 3.675-6.365c-.003-2.342-1.649-3.291-3.675-2.12z" class="cls-53" transform="translate(-188.781 -159)"/>
                    <path id="패스_8" d="M198.457 173.488a7.661 7.661 0 0 0 3.465-6 2.648 2.648 0 0 0-.745-2.047 2.648 2.648 0 0 0-2.147.377 7.66 7.66 0 0 0-3.466 6 1.7 1.7 0 0 0 2.89 1.667z" class="cls-54" transform="translate(-188.866 -159.226)"/>
                    <path id="패스_9" d="M200.559 168.559a1.376 1.376 0 0 0-1.2.183 4.1 4.1 0 0 0-1.852 3.209 1.3 1.3 0 0 0 .537 1.194c.1.056.525.313.65.372a1.344 1.344 0 0 0 1.239-.166 4.1 4.1 0 0 0 1.852-3.209 1.3 1.3 0 0 0-.544-1.2c-.092-.052-.541-.325-.682-.383z" class="cls-53" transform="translate(-189.771 -160.621)"/>
                    <path id="패스_10" d="M202.254 170.4a4.1 4.1 0 0 1-1.852 3.209c-1.023.59-1.852.111-1.852-1.07a4.092 4.092 0 0 1 1.852-3.208c1.022-.588 1.852-.108 1.852 1.069z" class="cls-55" transform="translate(-190.236 -160.881)"/>
                    <path id="패스_11" d="M202.693 166.856a8.966 8.966 0 0 1-4.057 7.025c-2.24 1.293-4.057.245-4.057-2.341a8.964 8.964 0 0 1 4.057-7.025c2.241-1.292 4.057-.244 4.057 2.341zm-4.057-1.659a7.66 7.66 0 0 0-3.466 6c0 2.21 1.552 3.106 3.466 2a7.659 7.659 0 0 0 3.465-6c0-2.21-1.549-3.106-3.463-2z" class="cls-55" transform="translate(-188.472 -158.606)"/>
                </g>
                <path id="패스_12" d="M111.078 220.554l1.426-8.068-6.836.994 4.139 6.339z" class="cls-51" transform="translate(-37.096 -117.918)"/>
                <g id="그룹_2" transform="translate(56.041 94.272)">
                    <path id="패스_13" d="M94.423 212.779c-1.2-.7-2.857-.6-4.69.456a14.619 14.619 0 0 0-6.613 11.456c0 2.112.742 3.593 1.941 4.284l3.527 2.038c1.2.7 2.861.611 4.7-.452A14.618 14.618 0 0 0 99.9 219.1c0-2.117-.746-3.6-1.951-4.289z" class="cls-52" transform="translate(-83.12 -212.122)"/>
                    <ellipse id="타원_1" cx="9.354" cy="5.401" class="cls-50" rx="9.354" ry="5.401" transform="rotate(-59.999 14.437 7.4)"/>
                    <path id="패스_14" d="M98.479 223.355a8.119 8.119 0 0 0-3.675 6.364c0 2.344 1.645 3.293 3.675 2.121a8.125 8.125 0 0 0 3.675-6.364c-.004-2.343-1.654-3.293-3.675-2.121z" class="cls-53" transform="translate(-88.311 -216.796)"/>
                    <path id="패스_15" d="M97.987 231.494a7.664 7.664 0 0 0 3.465-6 2.652 2.652 0 0 0-.745-2.047 2.648 2.648 0 0 0-2.147.377 7.662 7.662 0 0 0-3.466 6 1.7 1.7 0 0 0 2.89 1.667z" class="cls-54" transform="translate(-88.396 -217.022)"/>
                    <path id="패스_16" d="M100.088 226.565a1.375 1.375 0 0 0-1.2.183 4.094 4.094 0 0 0-1.852 3.208 1.3 1.3 0 0 0 .537 1.194c.1.056.525.314.65.372a1.347 1.347 0 0 0 1.239-.166 4.1 4.1 0 0 0 1.852-3.209 1.3 1.3 0 0 0-.544-1.2c-.092-.047-.539-.324-.682-.382z" class="cls-53" transform="translate(-89.301 -218.417)"/>
                    <path id="패스_17" d="M101.782 228.408a4.1 4.1 0 0 1-1.852 3.209c-1.023.59-1.852.111-1.852-1.07a4.094 4.094 0 0 1 1.852-3.208c1.022-.591 1.852-.111 1.852 1.069z" class="cls-55" transform="translate(-89.765 -218.677)"/>
                    <path id="패스_18" d="M102.222 224.864a8.968 8.968 0 0 1-4.057 7.025c-2.24 1.293-4.057.245-4.057-2.341a8.965 8.965 0 0 1 4.057-7.025c2.235-1.296 4.057-.247 4.057 2.341zm-4.057-1.66a7.659 7.659 0 0 0-3.466 6c0 2.21 1.552 3.106 3.466 2a7.661 7.661 0 0 0 3.465-6c0-2.211-1.549-3.107-3.463-2z" class="cls-55" transform="translate(-88.001 -216.402)"/>
                </g>
                <path id="패스_19" fill="url(#linear-gradient-16)" d="M132.344 158.575l-40.334 23.3a12.212 12.212 0 0 0 .1-1.344c0-5.016-3.522-7.05-7.866-4.542a17.387 17.387 0 0 0-7.866 13.625 9.927 9.927 0 0 0 .069 1.246l-10.652 6.024-3.049-6.341 3.072-12.056 23.166-19.808 63.578-33.26V146.9l-4.642 2.689a11.777 11.777 0 0 0 .077-1.32c0-5.016-3.522-7.049-7.866-4.541a17.386 17.386 0 0 0-7.866 13.624 9.46 9.46 0 0 0 .079 1.223z" transform="translate(-18.027 -79.238)"/>
                <path id="패스_20" d="M30.15 145.012l-.659-.659 1.46-.288z" class="cls-54" transform="translate(-3.254 -87.522)"/>
                <path id="패스_21" d="M26.492 136.292l-3.754-3.753 1.311-.437 3.753 3.753z" class="cls-54" transform="translate(-.254 -82.207)"/>
                <path id="패스_22" d="M29.491 144.236l1.31-.437.222.222z" class="cls-57" transform="translate(-3.254 -87.404)"/>
                <path id="패스_23" fill="#cc8b2d" d="M109.762 141.619l10.654-46.333 39.87-16.177 13.168 25.739z" transform="translate(-38.914 -58.665)"/>
                <path id="패스_24" fill="#ffc855" d="M85.812 90.949L70.595 142.3l-49-16.69 23.97-43.275s1.213-1.751 2.814-1.689" transform="translate(.253 -59.347)"/>
                <path id="패스_25" d="M65.236 247.468l-1.493-7.175 9.028-3.709v6.534z" class="cls-50" transform="translate(-18.47 -128.623)"/>
                <path id="패스_26" d="M-17.719 202.363v-6.534l46.766 26.363v7.169z" class="cls-49" transform="translate(17.719 -110.518)"/>
                <path id="패스_27" d="M-17.719 194.985l1.829-1.056 44.713 26.689.677-.305.956.857-1.409.814z" class="cls-54" transform="translate(17.719 -109.674)"/>
                <path id="패스_28" d="M32.08 199.442l-1.365 12.774-44.174-25.505 1.249-11.7z" class="cls-60" transform="translate(15.826 -101.27)"/>
                <path id="패스_29" d="M72.492 235.24l1.295.747-6.126 3.537-1.119-.646-.514.094z" class="cls-57" transform="translate(-19.485 -128.026)"/>
                <path id="패스_30" d="M-15.1 180.489l1.991.291-1.5 7.559-1.249-.722z" class="cls-61" transform="translate(16.891 -103.703)"/>
                <path id="패스_31" d="M-12.993 179.758l.5.288-.367.646-1.624-.938 1.591-.918z" class="cls-62" transform="translate(16.282 -102.969)"/>
                <path id="패스_32" d="M2.544 188.778l26.215 15.136-1.417 6.749L3.8 197.07z" class="cls-49" transform="translate(8.717 -107.386)"/>
                <path id="패스_33" d="M58.764 233.622l-.373 2.812-9.6-5.545-.062-.288z" class="cls-63" transform="translate(-11.799 -125.965)"/>
                <path id="패스_34" d="M47.772 216.785L58 221.835l-1.5 7.558-9.489-5.478z" class="cls-64" transform="translate(-11.037 -119.828)"/>
                <path id="패스_35" d="M49.122 216.013l9.489 5.478-.353.654-9.878-5.7z" class="cls-65" transform="translate(-11.645 -119.485)"/>
                <path id="패스_36" d="M67.688 225.812l1.249-.722.749.432z" class="cls-66" transform="translate(-20.223 -123.517)"/>
                <path id="패스_37" d="M67.141 226.759l-1.808 7.733-1.248-.722.757-7.126z" class="cls-61" transform="translate(-18.622 -124.207)"/>
                <path id="패스_38" fill="#9d3501" d="M69.083 232.558l-2.752 1.589.825-7.733 1.927-.545z" transform="translate(-19.62 -123.864)"/>
                <path id="패스_39" d="M68.693 225.822l-1.991 1.15-1.249-.722.742-.429.5.288 1.895-.348z" class="cls-62" transform="translate(-19.23 -123.815)"/>
                <path id="패스_40" d="M-2.887 199.418L-3 200.464l-10.372-5.988.1-.91z" class="cls-63" transform="translate(15.787 -109.512)"/>
                <path id="패스_41" d="M2.391 197.276l2.1-6.408.273 1.268-.649 6.082z" class="cls-68" transform="translate(8.785 -108.314)"/>
                <path id="패스_42" d="M-13.609 188.915l.761-7.128 10.231 5.05-1.5 7.558z" class="cls-64" transform="translate(15.893 -104.28)"/>
                <path id="패스_43" d="M3.464 198.374l.813-7.623.691.067-.761 7.128z" class="cls-55" transform="translate(8.308 -108.262)"/>
                <path id="패스_44" d="M-2.01 186.492l-.742.428-9.489-5.477.742-.43z" class="cls-65" transform="translate(15.285 -103.936)"/>
                <path id="패스_45" d="M219.645 154.152l-.695 7.427-1.295-.747V154.3z" class="cls-68" transform="translate(-86.846 -92.003)"/>
                <path id="패스_46" d="M224.782 157.308l-4.8 2.771v-7.117l4.8-2.187z" class="cls-50" transform="translate(-87.88 -90.503)"/>
                <path id="패스_47" d="M218.95 153.145l-1.295-.747 2.481-1.432 2.747-1.091.867.5z" class="cls-57" transform="translate(-86.846 -90.103)"/>
                <path id="패스_48" fill="#7f2000" d="M224.863 145.929l-2 1.153-.749-6.2 2.747-.722z" transform="translate(-88.827 -85.788)"/>
                <path id="패스_49" fill="#ce3801" d="M222.116 147.228v-5.766h.749v6.2z" transform="translate(-88.827 -86.366)"/>
                <path id="패스_50" d="M222.116 140.193l1.248-.722v-.864l1.5.865-2 1.154z" class="cls-66" transform="translate(-88.827 -85.097)"/>
                <path id="패스_51" fill="#ffd752" d="M106.627 42.745l33.929 19.589a.788.788 0 0 1 0 1.364l-36.94 21.327a3.15 3.15 0 0 1-3.151 0L66.534 65.437a.788.788 0 0 1 0-1.364l36.942-21.327a3.15 3.15 0 0 1 3.151-.001z" transform="translate(-19.535 -42.323)"/>
                <path id="패스_52" fill="#7fabcc" d="M38.455 121.989l33.293 19.222a4.282 4.282 0 0 0 6.246-2.491l8.251-27.843a4.282 4.282 0 0 0-1.965-4.925l-27.992-16.16a4.282 4.282 0 0 0-5.9 1.653l-13.549 24.782a4.281 4.281 0 0 0 1.616 5.762z" transform="translate(-6.285 -63.156)"/>
                <path id="패스_53" d="M117.355 150.217L135.74 139.6a5.457 5.457 0 0 0 2.717-4.389l1.534-24.895a1.575 1.575 0 0 0-2.36-1.461l-11.208 6.471a5.454 5.454 0 0 0-2.5 3.174l-8.863 29.9a1.575 1.575 0 0 0 2.295 1.817z" class="cls-73" transform="translate(-41.236 -71.787)"/>
                <path id="패스_54" d="M174.222 91.782l-10.273 5.931a4.04 4.04 0 0 0-2.012 3.251l-1.581 25.653a1.575 1.575 0 0 0 2.36 1.461l17.424-10.06a4.041 4.041 0 0 0 1.886-4.534l-5.494-20.742a1.575 1.575 0 0 0-2.31-.96z" class="cls-73" transform="translate(-61.389 -64.201)"/>
                <path id="패스_55" d="M11.84 145.693L56.016 171.2l-23.057 16.3-44.177-25.506z" class="cls-60" transform="translate(14.831 -88.245)"/>
                <path id="패스_56" d="M120.28 190.145l-.757 4.463-7.638-2.547-.745-1.061 1.882-.529v-1.74z" class="cls-49" transform="translate(-39.526 -107.366)"/>
                <path id="패스_57" d="M111.011 193.466v-.958h.32l.5 1.23z" class="cls-68" transform="translate(-39.469 -109.043)"/>
                <path id="패스_58" d="M111.011 192l1.108-.64.846.282-1.583.481z" class="cls-57" transform="translate(-39.469 -108.531)"/>
                <path id="패스_59" d="M126.981 191.272v3.706l-.757.756v-4.272z" class="cls-50" transform="translate(-46.227 -108.494)"/>
                <path id="패스_60" d="M121.782 189.541l-.757.757-6.5-2.167.757-.756z" class="cls-54" transform="translate(-41.029 -106.762)"/>
                <path id="패스_61" d="M111.676 192.237l1.173-.618.41.137v1.009z" class="cls-54" transform="translate(-39.765 -108.648)"/>
            </g>
        </g>
    </g>
</svg>
