<svg xmlns="http://www.w3.org/2000/svg" id="img_smart_time" width="48" height="48" viewBox="0 0 48 48">
    <defs>
        <style>
            .cls-2{fill:#626572}
        </style>
    </defs>
    <g id="ico_list_time" transform="translate(9 9)">
        <path id="패스_28402" d="M1195.5 421a12.5 12.5 0 1 0 0-25 .625.625 0 1 0 0 1.25 11.238 11.238 0 1 1-4.195.807.625.625 0 0 0-.466-1.159A12.5 12.5 0 0 0 1195.5 421z" class="cls-2" transform="translate(-1180.5 -393.5)"/>
        <path id="패스_28403" d="M1198.75 412.5a.623.623 0 0 1-.384-.131l-5.625-4.375a.626.626 0 0 1-.241-.494v-6.875a.625.625 0 1 1 1.25 0v6.569l5.384 4.188a.625.625 0 0 1-.384 1.119z" class="cls-2" transform="translate(-1178.125 -392.5)"/>
    </g>
    <path id="패스_37388" d="M177.03 255.635a24 24 0 1 1 24-24 24.028 24.028 0 0 1-24 24zm0-47a23 23 0 1 0 23 23 23.026 23.026 0 0 0-23-23z" opacity="0.1" transform="translate(-153.03 -207.635)"/>
</svg>
